<svg width="255" height="246" viewBox="0 0 255 246" fill="none" xmlns="http://www.w3.org/2000/svg">
<path d="M216.98 186.46L198.35 167.831C197.53 167.011 196.201 167.011 195.38 167.831L184.176 179.035C183.356 179.856 183.356 181.185 184.176 182.005L202.805 200.635C203.625 201.455 204.955 201.455 205.775 200.635L216.98 189.43C217.8 188.61 217.8 187.28 216.98 186.46Z" fill="#B0CDFE"/>
<path d="M215.268 188.817H211.922C211.569 188.818 211.219 188.749 210.893 188.614C210.567 188.479 210.271 188.281 210.022 188.031L196.772 174.781C196.522 174.532 196.324 174.236 196.189 173.91C196.054 173.584 195.985 173.234 195.986 172.882V169.541C195.986 169.439 196.026 169.342 196.098 169.271C196.169 169.199 196.266 169.159 196.368 169.159C196.469 169.159 196.566 169.199 196.638 169.271C196.709 169.342 196.75 169.439 196.75 169.541V172.882C196.749 173.136 196.8 173.387 196.898 173.622C196.997 173.856 197.141 174.069 197.322 174.247L210.572 187.496C210.75 187.678 210.962 187.822 211.197 187.92C211.431 188.019 211.683 188.069 211.937 188.069H215.278C215.333 188.058 215.391 188.06 215.445 188.075C215.5 188.089 215.551 188.115 215.594 188.152C215.638 188.188 215.672 188.233 215.696 188.285C215.72 188.336 215.731 188.392 215.731 188.449C215.73 188.505 215.717 188.561 215.692 188.612C215.667 188.663 215.631 188.707 215.587 188.743C215.543 188.778 215.491 188.803 215.436 188.816C215.381 188.829 215.324 188.829 215.268 188.817Z" fill="#262424"/>
<path d="M205.122 195.437C206.104 194.455 206.104 192.863 205.122 191.881C204.14 190.899 202.548 190.899 201.566 191.881C200.584 192.863 200.584 194.455 201.566 195.437C202.548 196.419 204.14 196.419 205.122 195.437Z" fill="white"/>
<path d="M174.057 130.909L164.156 121.008C163.348 120.2 162.039 120.2 161.232 121.008L147.011 135.229C146.204 136.036 146.204 137.345 147.011 138.153L156.912 148.053C157.719 148.861 159.028 148.861 159.836 148.053L174.057 133.833C174.864 133.025 174.864 131.716 174.057 130.909Z" fill="#FEA151"/>
<path d="M159.883 124.317L157.925 122.359C157.571 122.005 156.997 122.005 156.643 122.359L155.563 123.439C155.209 123.794 155.209 124.368 155.563 124.722L157.52 126.679C157.874 127.034 158.449 127.034 158.803 126.679L159.883 125.599C160.237 125.245 160.237 124.671 159.883 124.317Z" fill="#B0CDFE"/>
<path d="M152.683 131.516L150.726 129.558C150.372 129.204 149.797 129.204 149.443 129.558L148.363 130.638C148.009 130.992 148.009 131.567 148.363 131.921L150.321 133.878C150.675 134.232 151.249 134.232 151.603 133.878L152.683 132.798C153.037 132.444 153.037 131.87 152.683 131.516Z" fill="#B0CDFE"/>
<path d="M163.527 137.524C165.18 135.871 165.18 133.191 163.527 131.538C161.874 129.885 159.195 129.885 157.542 131.538C155.889 133.191 155.889 135.871 157.542 137.524C159.195 139.177 161.874 139.177 163.527 137.524Z" fill="white"/>
<path d="M129.941 5.53674V80.1311C129.941 82.9242 132.205 85.1885 134.998 85.1885L248.539 85.1885C251.332 85.1885 253.597 82.9242 253.597 80.1311V5.53674C253.597 2.74365 251.332 0.479401 248.539 0.479401L134.998 0.479401C132.205 0.479401 129.941 2.74365 129.941 5.53674Z" fill="white"/>
<path d="M248.537 85.6655H135C133.532 85.6655 132.123 85.0822 131.085 84.0439C130.047 83.0056 129.463 81.5974 129.463 80.129V5.53654C129.463 4.06816 130.047 2.65992 131.085 1.62162C132.123 0.583313 133.532 0 135 0H248.539C250.008 0 251.416 0.583313 252.454 1.62162C253.492 2.65992 254.076 4.06816 254.076 5.53654V80.1309C254.075 80.858 253.932 81.5779 253.654 82.2495C253.375 82.9212 252.967 83.5313 252.453 84.0453C251.938 84.5592 251.328 84.9668 250.656 85.2448C249.984 85.5229 249.264 85.6658 248.537 85.6655ZM135 0.956485C133.785 0.956485 132.619 1.43923 131.76 2.29851C130.901 3.1578 130.418 4.32324 130.418 5.53845V80.1309C130.418 81.3461 130.901 82.5116 131.76 83.3709C132.619 84.2301 133.785 84.7129 135 84.7129H248.539C249.754 84.7129 250.92 84.2301 251.779 83.3709C252.638 82.5116 253.121 81.3461 253.121 80.1309V5.53654C253.121 4.32133 252.638 3.15589 251.779 2.2966C250.92 1.43732 249.754 0.954576 248.539 0.954576H135V0.956485Z" fill="#262424"/>
<path d="M222.01 64.9113C225.381 66.473 225.381 71.3853 222.01 72.947C221.388 73.2346 220.711 73.3832 220.026 73.3822H163.515C162.826 73.3843 162.145 73.235 161.52 72.945C158.148 71.3834 158.148 66.4711 161.52 64.9094C162.142 64.6218 162.819 64.4732 163.504 64.4741H220.014C220.703 64.4721 221.384 64.6214 222.01 64.9113Z" fill="#FEA151"/>
<path d="M191.769 54.9374C203.689 54.9374 213.352 45.2744 213.352 33.3544C213.352 21.4345 203.689 11.7715 191.769 11.7715C179.849 11.7715 170.186 21.4345 170.186 33.3544C170.186 45.2744 179.849 54.9374 191.769 54.9374Z" fill="#B0CDFE"/>
<path d="M142.096 66.3643L142.535 67.8305C142.727 68.4698 143.074 69.0516 143.546 69.5235C144.018 69.9954 144.599 70.3426 145.239 70.5338L146.705 70.973L145.239 71.4121C144.599 71.6033 144.018 71.9505 143.546 72.4224C143.074 72.8943 142.727 73.4761 142.535 74.1154L142.096 75.5816L141.657 74.1154C141.466 73.4761 141.119 72.8943 140.647 72.4224C140.175 71.9505 139.593 71.6033 138.954 71.4121L137.488 70.973L138.954 70.5338C139.595 70.3435 140.178 69.9965 140.652 69.5242C141.125 69.0519 141.473 68.4691 141.665 67.8286L142.096 66.3643Z" fill="#FEA151"/>
<path d="M117.957 115.305L118.396 116.771C118.587 117.411 118.935 117.993 119.406 118.464C119.878 118.936 120.46 119.283 121.099 119.475L122.566 119.914L121.099 120.353C120.46 120.544 119.878 120.891 119.406 121.363C118.935 121.835 118.587 122.417 118.396 123.056L117.957 124.523L117.518 123.056C117.328 122.416 116.981 121.832 116.509 121.359C116.037 120.886 115.455 120.537 114.814 120.345L113.348 119.906L114.814 119.467C115.454 119.276 116.036 118.929 116.507 118.457C116.979 117.985 117.327 117.403 117.518 116.764L117.957 115.305Z" fill="#FEA151"/>
<path d="M238.025 177.748L238.465 179.214C238.656 179.853 239.003 180.435 239.475 180.907C239.947 181.379 240.529 181.726 241.168 181.917L242.634 182.356L241.168 182.795C240.529 182.987 239.947 183.334 239.475 183.806C239.003 184.278 238.656 184.859 238.465 185.499L238.025 186.965L237.586 185.499C237.395 184.859 237.048 184.278 236.576 183.806C236.104 183.334 235.522 182.987 234.883 182.795L233.417 182.356L234.883 181.917C235.522 181.726 236.104 181.379 236.576 180.907C237.048 180.435 237.395 179.853 237.586 179.214L238.025 177.748Z" fill="#FEA151"/>
<path d="M225.961 9.77832L226.343 11.0594C226.509 11.6203 226.813 12.131 227.226 12.5454C227.639 12.9597 228.148 13.2646 228.709 13.4324L229.99 13.8143L228.709 14.1961C228.15 14.3634 227.641 14.6669 227.229 15.0795C226.816 15.492 226.512 16.0007 226.345 16.5596L225.963 17.8407L225.582 16.5596C225.414 16.0002 225.11 15.4913 224.697 15.0787C224.283 14.6661 223.774 14.3628 223.214 14.1961L221.933 13.8143L223.214 13.4324C223.773 13.2652 224.282 12.9616 224.694 12.5491C225.107 12.1365 225.411 11.6279 225.578 11.0689L225.961 9.77832Z" fill="#FEA151"/>
<path d="M141.665 204.022C143.971 204.022 145.84 202.152 145.84 199.846C145.84 197.54 143.971 195.671 141.665 195.671C139.359 195.671 137.49 197.54 137.49 199.846C137.49 202.152 139.359 204.022 141.665 204.022Z" fill="#B0CDFE"/>
<path d="M108.554 11.0196C110.86 11.0196 112.73 9.15022 112.73 6.84426C112.73 4.5383 110.86 2.66895 108.554 2.66895C106.248 2.66895 104.379 4.5383 104.379 6.84426C104.379 9.15022 106.248 11.0196 108.554 11.0196Z" fill="#B0CDFE"/>
<path d="M106.632 210.847L111.748 228.965L117.875 227.031L115.513 209.409L106.632 210.847Z" fill="white"/>
<path d="M111.748 229.442C111.644 229.442 111.543 229.408 111.46 229.345C111.377 229.283 111.317 229.194 111.288 229.094L106.17 210.976C106.151 210.912 106.147 210.844 106.157 210.777C106.166 210.711 106.19 210.647 106.226 210.59C106.262 210.533 106.31 210.485 106.366 210.448C106.422 210.411 106.485 210.386 106.552 210.375L115.433 208.937C115.496 208.927 115.561 208.93 115.623 208.945C115.685 208.96 115.743 208.987 115.794 209.025C115.846 209.063 115.889 209.111 115.921 209.167C115.954 209.222 115.975 209.283 115.983 209.346L118.345 226.967C118.36 227.079 118.335 227.192 118.274 227.287C118.214 227.382 118.122 227.453 118.014 227.487L111.888 229.421C111.843 229.435 111.796 229.442 111.748 229.442ZM107.235 211.232L112.073 228.361L117.348 226.696L115.105 209.959L107.235 211.232Z" fill="#262424"/>
<path d="M136.932 242.894V245.523H104.643C104.643 245.523 104.643 244.282 104.748 242.331C105.001 237.661 105.859 228.904 108.774 223.277H120.695C120.695 223.277 123.856 232.604 134.028 238.056C134.819 238.48 135.494 239.091 135.995 239.836C136.496 240.581 136.807 241.436 136.901 242.329C136.921 242.516 136.931 242.705 136.932 242.894Z" fill="#B0CDFE"/>
<path d="M136.932 242.894V245.523H104.643C104.643 245.523 104.643 244.282 104.748 242.331H136.903C136.922 242.518 136.932 242.706 136.932 242.894Z" fill="white"/>
<path d="M136.932 246H104.643C104.516 246 104.395 245.949 104.305 245.86C104.216 245.77 104.165 245.649 104.165 245.522C104.165 245.509 104.165 244.247 104.27 242.304C104.277 242.181 104.33 242.066 104.419 241.982C104.507 241.898 104.625 241.851 104.748 241.851H136.903C137.022 241.851 137.136 241.895 137.224 241.974C137.312 242.054 137.367 242.163 137.379 242.281C137.4 242.484 137.411 242.688 137.411 242.892V245.52C137.411 245.583 137.399 245.646 137.375 245.704C137.351 245.762 137.316 245.815 137.271 245.86C137.227 245.904 137.174 245.94 137.116 245.964C137.057 245.988 136.995 246 136.932 246ZM105.126 245.045H136.455V242.893C136.455 242.865 136.455 242.836 136.455 242.808H105.2C105.154 243.804 105.133 244.581 105.126 245.045Z" fill="#262424"/>
<path d="M114.316 200.381L93.3155 96.1299H66.6848V127.131L102.01 202.013L114.316 200.381Z" fill="#B0CDFE"/>
<path d="M94.1441 108.342H92.3915C90.9102 108.343 89.4757 107.823 88.3388 106.874C87.2018 105.924 86.4347 104.605 86.1715 103.147L85.7267 100.749C85.7224 100.657 85.7518 100.566 85.8094 100.494C85.8669 100.422 85.9488 100.373 86.0397 100.356C86.1306 100.34 86.2245 100.357 86.3038 100.404C86.3832 100.451 86.4427 100.526 86.4712 100.614L86.9046 103.012C87.1349 104.297 87.8097 105.46 88.8111 106.298C89.8124 107.135 91.0765 107.594 92.382 107.594H94.1346C94.1899 107.582 94.2471 107.582 94.3022 107.595C94.3573 107.608 94.4088 107.633 94.4531 107.668C94.4973 107.704 94.5332 107.748 94.5581 107.799C94.583 107.85 94.5962 107.906 94.597 107.962C94.5977 108.019 94.5858 108.075 94.5622 108.126C94.5387 108.178 94.504 108.223 94.4606 108.26C94.4173 108.296 94.3664 108.322 94.3117 108.336C94.2569 108.351 94.1997 108.353 94.1441 108.342Z" fill="#262424"/>
<path d="M99.1161 159.637C102.659 158.837 104.559 153.883 103.359 148.573C102.16 143.263 98.3151 139.607 94.772 140.408C91.2289 141.208 89.3291 146.162 90.5287 151.472C91.7283 156.782 95.573 160.437 99.1161 159.637Z" fill="#80AFFD"/>
<path d="M102.073 196.051C101.998 196.051 101.925 196.029 101.863 195.987C101.801 195.946 101.753 195.887 101.723 195.818L70.6444 121.043C70.6209 120.953 70.6305 120.859 70.6714 120.776C70.7124 120.693 70.7819 120.628 70.8672 120.593C70.9524 120.557 71.0476 120.554 71.1351 120.583C71.2226 120.613 71.2965 120.673 71.3431 120.752L102.422 195.528C102.445 195.586 102.454 195.648 102.447 195.709C102.441 195.771 102.419 195.83 102.385 195.882C102.351 195.933 102.304 195.975 102.25 196.005C102.195 196.034 102.135 196.05 102.073 196.051Z" fill="#262424"/>
<path d="M116.999 211.603L104.259 213.825C103.788 213.907 103.304 213.822 102.889 213.584C102.475 213.345 102.158 212.969 101.993 212.521L98.5562 203.182C98.4527 202.901 98.4121 202.601 98.4373 202.303C98.4625 202.005 98.5529 201.716 98.7021 201.457C98.8513 201.198 99.0556 200.975 99.3005 200.803C99.5455 200.632 99.8252 200.516 100.12 200.465L114.629 197.935C114.893 197.889 115.164 197.895 115.426 197.954C115.687 198.013 115.935 198.122 116.154 198.276C116.374 198.431 116.56 198.627 116.704 198.853C116.847 199.079 116.945 199.332 116.991 199.596L118.675 209.243C118.72 209.508 118.713 209.78 118.654 210.042C118.594 210.304 118.483 210.552 118.327 210.771C118.172 210.991 117.974 211.177 117.746 211.32C117.518 211.462 117.264 211.559 116.999 211.603Z" fill="#FEA151"/>
<path d="M30.3975 210.847L25.2791 228.965L19.1526 227.031L21.5142 209.409L30.3975 210.847Z" fill="white"/>
<path d="M25.2791 229.441C25.2305 229.441 25.1822 229.433 25.1359 229.418L19.0094 227.484C18.902 227.451 18.8099 227.38 18.7494 227.285C18.689 227.19 18.6641 227.077 18.6792 226.965L21.0408 209.343C21.0491 209.28 21.0701 209.219 21.1025 209.164C21.1349 209.109 21.178 209.061 21.2293 209.023C21.2806 208.985 21.339 208.957 21.401 208.942C21.4631 208.927 21.5276 208.925 21.5906 208.935L30.472 210.373C30.5384 210.383 30.6017 210.408 30.6578 210.445C30.7139 210.482 30.7616 210.531 30.7976 210.588C30.8337 210.644 30.8573 210.708 30.867 210.775C30.8767 210.841 30.8722 210.909 30.8538 210.974L25.7354 229.092C25.7076 229.192 25.648 229.28 25.5657 229.343C25.4834 229.406 25.3828 229.44 25.2791 229.441ZM19.67 226.696L24.945 228.361L29.7885 211.23L21.919 209.956L19.67 226.696Z" fill="#262424"/>
<path d="M0.477295 242.894V245.523H32.7668C32.7668 245.523 32.7668 244.282 32.6618 242.331C32.4079 237.661 31.5507 228.904 28.6354 223.277H16.7165C16.7165 223.277 13.5607 232.604 3.38111 238.056C2.59025 238.48 1.91504 239.091 1.41426 239.836C0.913482 240.581 0.602312 241.436 0.507841 242.329C0.488127 242.516 0.477932 242.705 0.477295 242.894Z" fill="#B0CDFE"/>
<path d="M0.477295 242.894V245.523H32.7668C32.7668 245.523 32.7668 244.282 32.6618 242.331H0.507841C0.488191 242.518 0.477997 242.706 0.477295 242.894Z" fill="white"/>
<path d="M32.7668 246H0.477288C0.350703 246 0.229303 245.949 0.139794 245.86C0.0502852 245.77 0 245.649 0 245.522V242.894C0.000557434 242.689 0.0113893 242.486 0.0324552 242.283C0.0442957 242.165 0.0995038 242.056 0.187355 241.976C0.275207 241.897 0.389429 241.853 0.507834 241.853H32.6618C32.7842 241.853 32.902 241.9 32.9908 241.984C33.0796 242.068 33.1327 242.183 33.1391 242.305C33.2441 244.247 33.2441 245.511 33.2441 245.524C33.2436 245.651 33.1931 245.771 33.1036 245.861C33.0141 245.95 32.893 246 32.7668 246ZM0.954576 245.045H32.2838C32.2838 244.583 32.257 243.806 32.2074 242.808H0.960303C0.960303 242.836 0.960303 242.865 0.960303 242.894V245.045H0.954576Z" fill="#262424"/>
<path d="M23.1905 200.381L42.8528 96.1299H70.8219L67.731 128.935L35.495 202.013L23.1905 200.381Z" fill="#B0CDFE"/>
<path d="M43.7788 108.342H42.0262C41.9249 108.342 41.8278 108.302 41.7562 108.23C41.6846 108.159 41.6444 108.062 41.6444 107.96C41.6444 107.859 41.6846 107.762 41.7562 107.69C41.8278 107.619 41.9249 107.579 42.0262 107.579H43.7788C45.0843 107.579 46.3483 107.12 47.3497 106.283C48.351 105.445 49.0259 104.282 49.2562 102.997L49.6895 100.599C49.7181 100.511 49.7776 100.436 49.8569 100.389C49.9363 100.342 50.0301 100.325 50.1211 100.341C50.212 100.358 50.2938 100.407 50.3514 100.479C50.409 100.551 50.4384 100.642 50.4341 100.734L50.0007 103.132C49.7406 104.593 48.9746 105.916 47.837 106.868C46.6993 107.821 45.2626 108.343 43.7788 108.342Z" fill="#262424"/>
<path d="M46.9658 151.444C48.1654 146.134 46.2656 141.18 42.7225 140.38C39.1794 139.579 35.3347 143.235 34.1351 148.545C32.9355 153.855 34.8353 158.809 38.3784 159.609C41.9215 160.409 45.7662 156.754 46.9658 151.444Z" fill="#80AFFD"/>
<path d="M35.4319 196.05C35.37 196.05 35.3093 196.034 35.2549 196.004C35.2005 195.974 35.1541 195.932 35.1198 195.881C35.0854 195.829 35.064 195.77 35.0575 195.709C35.0511 195.647 35.0597 195.585 35.0826 195.527L66.133 120.822V96.6714C66.133 96.5701 66.1732 96.473 66.2448 96.4014C66.3165 96.3298 66.4136 96.2896 66.5148 96.2896C66.6161 96.2896 66.7132 96.3298 66.7848 96.4014C66.8564 96.473 66.8967 96.5701 66.8967 96.6714V120.897C66.8967 120.946 66.8869 120.996 66.868 121.042L35.7813 195.817C35.7522 195.886 35.7036 195.945 35.6415 195.986C35.5794 196.028 35.5066 196.05 35.4319 196.05Z" fill="#262424"/>
<path d="M66.511 117.634C66.4189 117.633 66.33 117.599 66.2609 117.538L64.1799 115.702C63.3623 114.981 62.7074 114.094 62.2588 113.1C61.8101 112.106 61.578 111.028 61.5778 109.938V97.668C61.5778 97.5667 61.618 97.4696 61.6896 97.398C61.7612 97.3264 61.8583 97.2861 61.9596 97.2861C62.0609 97.2861 62.158 97.3264 62.2296 97.398C62.3012 97.4696 62.3414 97.5667 62.3414 97.668V109.94C62.3417 110.923 62.551 111.895 62.9556 112.791C63.3601 113.687 63.9506 114.486 64.6878 115.137L66.7687 116.973C66.8245 117.025 66.8633 117.093 66.8802 117.168C66.897 117.242 66.8912 117.32 66.8635 117.391C66.8358 117.462 66.7874 117.523 66.7245 117.566C66.6617 117.61 66.5873 117.633 66.511 117.634Z" fill="#262424"/>
<path d="M20.4661 211.536L33.1887 213.856C33.6586 213.942 34.1438 213.86 34.5596 213.625C34.9755 213.39 35.2956 213.016 35.4644 212.569L38.981 203.256C39.0869 202.976 39.13 202.677 39.1072 202.378C39.0844 202.08 38.9963 201.79 38.8491 201.53C38.7019 201.269 38.4993 201.044 38.2555 200.871C38.0117 200.698 37.7328 200.58 37.4385 200.526L22.9556 197.884C22.6919 197.836 22.4212 197.84 22.1591 197.896C21.8969 197.953 21.6485 198.06 21.4279 198.213C21.2074 198.365 21.019 198.56 20.8736 198.785C20.7282 199.01 20.6287 199.262 20.5806 199.526L18.8242 209.159C18.7757 209.423 18.7797 209.694 18.836 209.956C18.8923 210.219 18.9998 210.467 19.1523 210.688C19.3048 210.909 19.4993 211.098 19.7247 211.243C19.9502 211.389 20.2021 211.488 20.4661 211.536Z" fill="#FEA151"/>
<path d="M29.5021 62.498L20.5177 69.7929C19.4345 70.6718 18.6947 71.9033 18.4273 73.2723C18.16 74.6413 18.3823 76.0607 19.0552 77.2825C22.4154 83.3918 29.4487 94.1594 39.5195 99.4115L41.0525 93.8081L33.4159 77.0076L40.5523 72.9659L29.5021 62.498Z" fill="white"/>
<path d="M39.5252 99.7665C39.468 99.7664 39.4117 99.7527 39.361 99.7264C29.1738 94.4132 22.0736 83.4986 18.7422 77.4523C18.0284 76.1577 17.7926 74.6534 18.076 73.2026C18.3594 71.7517 19.144 70.4468 20.2924 69.516L29.2769 62.2211C29.3438 62.1662 29.4284 62.1377 29.5149 62.1409C29.6014 62.144 29.6838 62.1787 29.7465 62.2383L40.7967 72.7061C40.8378 72.7445 40.8694 72.7919 40.8887 72.8447C40.908 72.8975 40.9146 72.9542 40.9079 73.01C40.9012 73.0658 40.8814 73.1193 40.8501 73.166C40.8189 73.2127 40.777 73.2514 40.7279 73.2789L33.8741 77.1564L41.3752 93.661C41.4092 93.7365 41.416 93.8216 41.3942 93.9016L39.8669 99.5049C39.8462 99.5798 39.8016 99.6458 39.7399 99.693C39.6782 99.7402 39.6028 99.766 39.5252 99.7665ZM29.485 62.9714L20.7449 70.0696C19.7262 70.8956 19.0304 72.0534 18.7791 73.3405C18.5278 74.6276 18.7371 75.9621 19.3703 77.1106C22.6158 83.0003 29.4888 93.5884 39.2961 98.8883L40.6707 93.8385L33.0913 77.1545C33.0545 77.0733 33.0493 76.9813 33.0769 76.8965C33.1044 76.8117 33.1627 76.7403 33.2403 76.6963L39.9567 72.8913L29.485 62.9714Z" fill="#262424"/>
<path d="M86.0347 7.59891C81.5302 8.63045 83.621 17.9926 84.6929 21.0267C85.7648 24.0608 82.4079 31.7053 87.379 35.2363C92.3501 38.7673 80.5693 47.8898 92.4232 61.0981C101.561 71.2774 120.671 67.7565 119.647 58.1498C118.623 48.543 104.613 41.9376 103.788 33.1404C103.263 27.5413 106.782 20.1313 98.3225 15.8866C92.0071 12.7213 89.5909 6.78426 86.0347 7.59891Z" fill="#262424"/>
<path d="M50.9744 42.5742L28.0703 61.639C28.0703 61.639 28.7385 73.0939 40.0979 74.8121L50.5028 68.8938L50.9744 42.5742Z" fill="#FEA151"/>
<path d="M40.5428 73.3401C40.4759 73.3405 40.41 73.3234 40.3518 73.2904C33.2403 69.2602 31.3998 62.2173 31.3254 61.9214C31.3135 61.8293 31.3356 61.7359 31.3876 61.6589C31.4396 61.5819 31.5179 61.5265 31.6078 61.503C31.6978 61.4796 31.7932 61.4898 31.8761 61.5317C31.9591 61.5736 32.0239 61.6442 32.0585 61.7305C32.0757 61.8011 33.9027 68.76 40.7241 72.626C40.797 72.6673 40.8543 72.7314 40.8872 72.8084C40.92 72.8854 40.9267 72.9711 40.9061 73.0523C40.8854 73.1335 40.8387 73.2056 40.7731 73.2576C40.7074 73.3096 40.6265 73.3386 40.5428 73.3401Z" fill="#262424"/>
<path d="M40.4741 97.4084C40.4741 97.4084 67.248 101.933 95.5397 96.4041L88.1303 71.0563L89.6576 40.0918L50.9744 42.5737C50.9744 42.5737 44.4107 54.6014 44.4107 58.4197C44.4107 62.238 48.6109 71.0563 48.6109 71.0563L40.4741 97.4084Z" fill="#FEA151"/>
<path d="M45.0999 94.8539C45.1133 94.8539 54.0959 96.2018 66.4824 96.2018C74.182 96.2018 83.1971 95.6825 92.193 93.9929C92.2431 93.9846 92.2911 93.9663 92.3341 93.9392C92.3771 93.9121 92.4143 93.8766 92.4434 93.835C92.4725 93.7933 92.4931 93.7462 92.5038 93.6965C92.5145 93.6468 92.5151 93.5955 92.5057 93.5456C92.4963 93.4956 92.477 93.448 92.449 93.4056C92.4209 93.3632 92.3847 93.3268 92.3424 93.2986C92.3001 93.2704 92.2526 93.2509 92.2027 93.2413C92.1528 93.2317 92.1015 93.2321 92.0517 93.2426C83.1188 94.9207 74.1458 95.4381 66.4824 95.4381C60.3178 95.4381 54.997 95.1021 51.2188 94.768C49.3306 94.6 47.8281 94.4339 46.7972 94.3079C46.2817 94.2449 45.8846 94.1934 45.6173 94.1571L45.3138 94.1151L45.2126 94.0998C45.1624 94.0924 45.1113 94.095 45.0622 94.1073C45.013 94.1197 44.9668 94.1416 44.9261 94.1718C44.8854 94.202 44.8511 94.24 44.825 94.2835C44.799 94.327 44.7818 94.3752 44.7744 94.4253C44.767 94.4755 44.7696 94.5266 44.7819 94.5757C44.7943 94.6249 44.8162 94.6711 44.8464 94.7118C44.8767 94.7525 44.9146 94.7868 44.9581 94.8128C45.0016 94.8389 45.0498 94.8561 45.0999 94.8635V94.8539Z" fill="#262424"/>
<path d="M47.6754 69.4398C47.6017 69.4395 47.5297 69.4179 47.468 69.3776C47.4064 69.3373 47.3577 69.28 47.3279 69.2127C45.8597 65.8163 44.1071 61.2343 44.1071 58.6799C44.1071 55.5565 48.2118 47.3051 49.9778 43.903C49.9954 43.8509 50.0241 43.8032 50.0619 43.7632C50.0997 43.7232 50.1457 43.6918 50.1968 43.6712C50.2478 43.6507 50.3027 43.6414 50.3577 43.644C50.4126 43.6466 50.4664 43.6611 50.5152 43.6864C50.5641 43.7117 50.6069 43.7473 50.6407 43.7908C50.6745 43.8342 50.6986 43.8844 50.7112 43.938C50.7238 43.9915 50.7246 44.0472 50.7137 44.1012C50.7028 44.1551 50.6803 44.206 50.6479 44.2505C49.2943 46.8679 44.8708 55.6405 44.8708 58.6799C44.8708 61.2324 46.8468 66.1866 48.0266 68.9129C48.0504 68.9708 48.0596 69.0336 48.0534 69.0958C48.0472 69.158 48.0258 69.2178 47.9912 69.2698C47.9565 69.3219 47.9095 69.3646 47.8545 69.3942C47.7994 69.4239 47.7379 69.4395 47.6754 69.4398Z" fill="#262424"/>
<path d="M67.1051 38.2101C61.6933 37.8054 58.2253 41.9406 57.8662 46.3919C57.5071 50.8432 62.3864 52.8539 62.3864 52.8539C62.3864 52.8539 64.2573 48.1421 65.96 47.7526C67.6626 47.3631 69.5209 53.4558 69.5209 53.4558C69.5209 53.4558 75.3847 52.0926 76.4294 46.3034C77.4741 40.5141 71.9016 38.5692 67.1051 38.2101Z" fill="#B0CDFE"/>
<path d="M38.7367 93.7355L36.839 102.017C36.7498 102.387 36.8056 102.776 36.9949 103.105C37.1843 103.434 37.4927 103.679 37.8566 103.787L43.4141 105.326C43.7538 105.417 44.115 105.377 44.4269 105.215C44.7388 105.053 44.9789 104.78 45.0999 104.45L47.536 98.1495C47.6664 97.8175 47.6746 97.4501 47.5592 97.1126C47.4438 96.7752 47.2123 96.4897 46.906 96.3071L40.8081 92.7943C40.6149 92.6859 40.3989 92.6244 40.1775 92.615C39.9562 92.6056 39.7357 92.6485 39.534 92.7401C39.3323 92.8318 39.155 92.9697 39.0165 93.1426C38.8779 93.3155 38.7821 93.5186 38.7367 93.7355Z" fill="white"/>
<path d="M43.7807 105.725C43.6245 105.725 43.4691 105.704 43.3187 105.662L37.7611 104.117C37.3076 103.986 36.9222 103.685 36.6855 103.277C36.4489 102.868 36.3794 102.384 36.4915 101.926L38.3797 93.6552C38.4403 93.3769 38.566 93.1169 38.7465 92.8965C38.9271 92.6761 39.1573 92.5017 39.4183 92.3875C39.6667 92.2779 39.9376 92.2287 40.2087 92.2439C40.4798 92.2592 40.7435 92.3385 40.978 92.4754L47.0759 95.9882C47.4552 96.2139 47.7423 96.5668 47.886 96.9842C48.0296 97.4015 48.0206 97.8564 47.8605 98.2677L45.4244 104.568C45.2988 104.904 45.0746 105.194 44.7814 105.4C44.4881 105.607 44.1393 105.72 43.7807 105.725ZM39.0822 93.8079L37.1865 102.082C37.1196 102.362 37.1613 102.656 37.303 102.906C37.4448 103.156 37.676 103.342 37.9501 103.428L43.5077 104.967C43.7625 105.033 44.0328 105.002 44.2658 104.879C44.4988 104.757 44.6778 104.552 44.7677 104.304L47.2038 98.0043C47.3041 97.7517 47.3113 97.4718 47.2243 97.2144C47.1372 96.957 46.9614 96.7389 46.7284 96.5991L40.6306 93.0863C40.4921 93.0082 40.3372 92.9637 40.1783 92.9564C40.0195 92.9491 39.8612 92.9792 39.7161 93.0443C39.5578 93.1145 39.4184 93.2212 39.3093 93.3555C39.2001 93.4899 39.1243 93.6482 39.088 93.8175L39.0822 93.8079Z" fill="#262424"/>
<path d="M39.4164 89.5759L38.8837 91.1987C38.776 91.5278 38.7794 91.8831 38.8932 92.21C39.007 92.537 39.225 92.8175 39.5137 93.0086L46.295 97.497C46.4918 97.6271 46.7152 97.7114 46.9488 97.7439C47.1824 97.7765 47.4204 97.7563 47.6452 97.6849C47.87 97.6135 48.0759 97.4927 48.248 97.3313C48.42 97.17 48.5538 96.9722 48.6395 96.7524C48.7198 96.5467 48.756 96.3263 48.7458 96.1056C48.7356 95.885 48.6792 95.6689 48.5803 95.4714C47.83 93.9689 45.6345 90.2862 41.5012 88.5985C41.3007 88.5181 41.0859 88.4798 40.8701 88.486C40.6542 88.4922 40.4419 88.5426 40.2464 88.6343C40.0509 88.726 39.8763 88.8569 39.7335 89.0189C39.5907 89.1809 39.4828 89.3705 39.4164 89.5759Z" fill="white"/>
<path d="M47.1618 98.1168C46.7827 98.1164 46.4122 98.0041 46.0965 97.7942L39.3152 93.3077C38.9631 93.0721 38.6978 92.7276 38.5599 92.327C38.422 91.9264 38.4191 91.4917 38.5515 91.0893L39.0842 89.4665C39.1677 89.2131 39.3022 88.9795 39.4795 88.7802C39.6569 88.5809 39.8732 88.42 40.1151 88.3076C40.3532 88.1957 40.612 88.1347 40.8749 88.1285C41.1379 88.1222 41.3993 88.1709 41.6424 88.2713C45.8846 90.0029 48.1335 93.7735 48.8972 95.3142C49.0446 95.6097 49.114 95.9381 49.0989 96.268C49.0837 96.5979 48.9845 96.9184 48.8106 97.1992C48.6368 97.48 48.394 97.7117 48.1055 97.8723C47.8169 98.0329 47.492 98.1171 47.1618 98.1168ZM39.7543 89.6879L39.2216 91.3107C39.1383 91.5657 39.1408 91.8409 39.2287 92.0943C39.3167 92.3477 39.4852 92.5654 39.7085 92.7139L46.4898 97.2005C46.7146 97.3495 46.9825 97.4201 47.2516 97.4013C47.5207 97.3824 47.7761 97.2752 47.978 97.0962C48.1798 96.9172 48.3169 96.6765 48.3678 96.4115C48.4187 96.1466 48.3807 95.8722 48.2596 95.6311C47.5245 94.163 45.3825 90.57 41.3637 88.9281C41.2117 88.8655 41.0483 88.8353 40.884 88.8392C40.7197 88.8431 40.558 88.8812 40.4091 88.951C40.2555 89.0222 40.1181 89.1241 40.0054 89.2506C39.8928 89.377 39.8073 89.5252 39.7543 89.686V89.6879Z" fill="#262424"/>
<path d="M148.41 17.06C147.264 17.2948 145.063 17.7168 142.747 18.0146L148.263 18.7782C148.527 18.8145 148.768 18.9515 148.933 19.1607C149.099 19.3699 149.178 19.6351 149.153 19.9008C149.004 21.4511 148.649 24.5229 147.994 26.8979C147.936 27.11 147.813 27.2984 147.641 27.4357C147.47 27.573 147.259 27.6521 147.039 27.6615C142.972 27.7629 138.902 27.6016 134.855 27.1785C134.855 27.1785 120.378 46.6519 117.037 49.802C115.809 50.9589 107.558 53.3377 102.814 54.9567V39.588L112.073 37.0336L131.069 21.5694L133.051 10.0515C133.093 9.80521 133.221 9.5818 133.412 9.42075C133.603 9.2597 133.845 9.17138 134.095 9.17139C134.358 9.17151 134.611 9.26926 134.806 9.44565C135.001 9.62205 135.123 9.86451 135.149 10.126L135.746 15.6625C135.746 15.6625 142.207 15.5613 148.11 15.021C148.253 15.008 148.398 15.025 148.534 15.0709C148.67 15.1168 148.796 15.1906 148.902 15.2876C149.008 15.3847 149.093 15.5027 149.151 15.6343C149.209 15.7659 149.239 15.9082 149.238 16.052C149.237 16.2895 149.153 16.5192 149.003 16.7027C148.852 16.8862 148.643 17.0123 148.41 17.06Z" fill="white"/>
<path d="M102.814 55.4344C102.687 55.4344 102.566 55.3841 102.476 55.2946C102.387 55.205 102.336 55.0836 102.336 54.9571V39.5884C102.336 39.4841 102.37 39.3826 102.433 39.2995C102.497 39.2164 102.585 39.1562 102.686 39.1283L111.85 36.6006L130.63 21.3102L132.581 9.9679C132.643 9.6021 132.836 9.27122 133.123 9.03638C133.411 8.80153 133.773 8.67857 134.144 8.69021C134.515 8.70184 134.869 8.84728 135.141 9.09968C135.413 9.35207 135.585 9.69436 135.624 10.0634L136.176 15.1608C137.722 15.1264 143.123 14.9832 148.068 14.5308C148.454 14.4947 148.838 14.6079 149.143 14.8471C149.448 15.0863 149.649 15.4332 149.705 15.8164C149.761 16.1995 149.668 16.5897 149.446 16.9064C149.223 17.2231 148.887 17.4422 148.507 17.5186C147.934 17.6351 147.07 17.805 146.048 17.9844L148.339 18.2975C148.726 18.3496 149.078 18.5498 149.321 18.856C149.563 19.1623 149.677 19.5506 149.639 19.9394C149.485 21.5545 149.126 24.6226 148.465 27.0185C148.381 27.3306 148.198 27.6072 147.944 27.8076C147.691 28.008 147.379 28.1215 147.056 28.1316C143.061 28.2336 139.064 28.0831 135.088 27.681C133.41 29.9338 120.557 47.1544 117.375 50.1498C116.458 51.0128 112.76 52.2499 107.226 54.0197C105.677 54.516 104.215 54.9857 102.978 55.4076C102.925 55.4261 102.869 55.4351 102.814 55.4344ZM103.291 39.9511V54.2889C104.389 53.9223 105.626 53.5252 106.918 53.1071C110.91 51.8261 115.876 50.2319 116.705 49.4511C119.977 46.3659 134.322 27.0854 134.46 26.8906C134.509 26.824 134.574 26.7713 134.65 26.7379C134.726 26.7044 134.809 26.6912 134.891 26.6997C138.916 27.1197 142.965 27.2798 147.01 27.1789C147.13 27.1748 147.245 27.1326 147.338 27.0583C147.432 26.9841 147.499 26.8818 147.53 26.7665C148.171 24.4412 148.522 21.4362 148.675 19.8516C148.689 19.7083 148.647 19.5651 148.558 19.4522C148.468 19.3393 148.339 19.2655 148.196 19.2464L142.68 18.4827C142.554 18.4827 142.432 18.4324 142.343 18.3429C142.253 18.2534 142.203 18.132 142.203 18.0054C142.203 17.8788 142.253 17.7574 142.343 17.6679C142.432 17.5784 142.554 17.5281 142.68 17.5281C144.998 17.2227 147.201 16.7969 148.309 16.5736C148.435 16.5473 148.548 16.4785 148.629 16.3788C148.71 16.279 148.755 16.1543 148.755 16.0256C148.755 15.9473 148.737 15.87 148.704 15.7989C148.671 15.7278 148.624 15.6645 148.564 15.6133C148.508 15.5606 148.44 15.5205 148.367 15.4959C148.294 15.4712 148.216 15.4624 148.139 15.4701C142.285 16.0046 135.804 16.1115 135.739 16.1135C135.621 16.1132 135.508 16.0696 135.421 15.9911C135.333 15.9125 135.278 15.8045 135.265 15.6877L134.668 10.1512C134.648 10.0162 134.581 9.89244 134.479 9.80164C134.377 9.71085 134.247 9.65874 134.11 9.65442C133.974 9.6501 133.84 9.69384 133.733 9.77801C133.625 9.86217 133.551 9.98142 133.522 10.1149L131.546 21.6424C131.526 21.7558 131.466 21.8582 131.376 21.9306L112.38 37.3948C112.329 37.4363 112.27 37.4669 112.207 37.4845L103.291 39.9511Z" fill="#262424"/>
<path d="M107.014 55.3386L88.7832 59.7296L88.7603 59.7048C88.1876 59.1149 78.8976 48.9792 89.6347 40.0921L103.018 38.3834L105.702 37.9844L106.937 54.2274L107.014 55.3386Z" fill="#FEA151"/>
<path d="M87.6472 58.7483C87.5883 58.748 87.5302 58.7341 87.4775 58.7076C87.4249 58.6811 87.3791 58.6427 87.3437 58.5956C85.1806 55.6879 80.9519 48.1544 88.4033 41.0314C88.478 40.9776 88.5696 40.9527 88.6612 40.9611C88.7528 40.9695 88.8383 41.0107 88.902 41.0772C88.9656 41.1436 89.0032 41.2308 89.0076 41.3227C89.0121 41.4146 88.9833 41.5051 88.9264 41.5774C81.9102 48.2842 85.9061 55.3977 87.9508 58.145C87.9911 58.2016 88.0152 58.2681 88.0205 58.3374C88.0258 58.4067 88.0121 58.4761 87.9809 58.5382C87.9497 58.6002 87.9021 58.6526 87.8433 58.6896C87.7845 58.7267 87.7167 58.7469 87.6472 58.7483Z" fill="#262424"/>
<path d="M103.959 54.3805C103.862 54.3807 103.769 54.3442 103.698 54.2783C103.627 54.2124 103.584 54.122 103.577 54.0254L102.689 39.4128C102.683 39.3115 102.718 39.212 102.785 39.136C102.852 39.0601 102.947 39.0141 103.048 39.008C103.15 39.0019 103.249 39.0363 103.325 39.1036C103.401 39.171 103.447 39.2657 103.453 39.3669L104.341 53.9796C104.346 54.0796 104.312 54.1777 104.245 54.2527C104.179 54.3277 104.086 54.3736 103.986 54.3805H103.959Z" fill="#262424"/>
<path d="M63.8048 29.5105L62.4933 42.159C62.4933 42.159 64.3369 45.7631 67.3458 45.9068C70.3547 46.0506 73.2652 42.8072 73.2652 42.8072V28.7539L63.8048 29.5105Z" fill="white"/>
<path d="M67.545 46.385H67.3256C64.0821 46.2286 62.1578 42.5387 62.0771 42.3823C62.0381 42.3043 62.0215 42.217 62.0291 42.1301L63.3406 29.4817C63.3521 29.3722 63.4014 29.2701 63.4802 29.1932C63.559 29.1163 63.6622 29.0693 63.7719 29.0605L73.2349 28.3039C73.2993 28.2994 73.364 28.3082 73.4249 28.3297C73.4858 28.3512 73.5416 28.385 73.5889 28.429C73.6362 28.473 73.6739 28.5262 73.6998 28.5854C73.7257 28.6446 73.7392 28.7084 73.7393 28.773V42.8086C73.7393 42.925 73.6962 43.0373 73.6183 43.1239C73.4972 43.26 70.6548 46.385 67.545 46.385ZM62.98 42.0646C63.3179 42.6598 64.9649 45.3257 67.3735 45.4392C69.7821 45.5527 72.2387 43.202 72.8011 42.622V29.2547L64.2259 29.9407L62.98 42.0646Z" fill="#262424"/>
<path d="M81.689 9.43756L83.3688 9.16517C83.6324 9.12145 83.9029 9.14917 84.1522 9.24542C84.4015 9.34167 84.6204 9.50294 84.7862 9.71247C85.2705 10.3002 85.6154 10.9901 85.7951 11.7302C85.9179 12.5332 85.7565 13.3539 85.3386 14.0505C85.2426 14.2216 85.1136 14.3719 84.959 14.4927C84.8044 14.6135 84.6274 14.7024 84.4382 14.7542L82.5642 15.2838C82.3507 15.3419 82.127 15.3524 81.909 15.3146C81.691 15.2768 81.4839 15.1917 81.3023 15.0652C81.1208 14.9387 80.9692 14.7739 80.8582 14.5825C80.7472 14.391 80.6796 14.1776 80.66 13.9572L80.428 11.0391C80.4009 10.663 80.5152 10.2904 80.7484 9.99415C80.9817 9.69791 81.3171 9.49942 81.689 9.43756Z" fill="white"/>
<path d="M82.1506 15.8365C81.6503 15.8356 81.1687 15.6465 80.8014 15.3068C80.4341 14.9671 80.2081 14.5016 80.1682 14.0029L79.9235 11.0798C79.8865 10.5817 80.037 10.0877 80.3454 9.69482C80.6539 9.30193 81.098 9.03848 81.5907 8.95619L83.2704 8.6838C83.6205 8.62655 83.9796 8.66393 84.3104 8.79209C84.6412 8.92025 84.9317 9.13451 85.1519 9.41269C85.6856 10.0615 86.0651 10.8229 86.2616 11.6397C86.4109 12.5568 86.2323 13.4971 85.7572 14.2955C85.6304 14.5236 85.4594 14.7241 85.2541 14.8852C85.0488 15.0463 84.8134 15.1648 84.5617 15.2337L82.6878 15.7634C82.5129 15.8121 82.3321 15.8367 82.1506 15.8365ZM83.6033 9.64221C83.5484 9.64201 83.4936 9.64623 83.4394 9.65482L81.7597 9.92721C81.5087 9.96763 81.2823 10.1013 81.1257 10.3014C80.969 10.5015 80.8937 10.7534 80.9147 11.0067L81.1443 13.9298C81.1558 14.0788 81.2002 14.2234 81.2744 14.3531C81.3486 14.4828 81.4507 14.5944 81.5733 14.6798C81.6959 14.7652 81.836 14.8224 81.9833 14.8471C82.1307 14.8718 82.2817 14.8634 82.4255 14.8226L84.2994 14.293C84.426 14.2588 84.5446 14.1997 84.6481 14.1192C84.7516 14.0386 84.838 13.9382 84.9022 13.8239C85.2641 13.2295 85.4077 12.5277 85.3083 11.839C85.1423 11.1725 84.8285 10.5519 84.3902 10.023C84.296 9.90461 84.1764 9.80889 84.0402 9.74296C83.904 9.67704 83.7547 9.6426 83.6033 9.64221Z" fill="#262424"/>
<path d="M56.9043 21.5974C55.6432 27.0301 56.2308 33.8877 62.748 35.5901C67.54 36.8512 74.4582 32.6443 76.9526 25.5395C79.447 18.4347 79.9791 11.8898 71.1719 9.80146C70.2267 9.59268 69.2687 9.44691 68.3042 9.36513C62.9422 9.01708 60.8867 8.90863 57.6382 18.7146C57.3507 19.5797 57.1388 20.5709 56.9043 21.5974Z" fill="white"/>
<path d="M64.2864 36.2678C63.7267 36.2713 63.169 36.2026 62.6269 36.0635C55.971 34.3257 55.0605 27.3924 56.4275 21.4856L56.5158 21.0947C56.7201 20.1892 56.9143 19.3292 57.1715 18.5574C60.5486 8.36806 62.8286 8.51687 68.3344 8.87501C68.3987 8.87915 68.4615 8.8959 68.5193 8.92431C68.577 8.95273 68.6286 8.99225 68.6712 9.04061C68.7137 9.08897 68.7462 9.14523 68.767 9.20618C68.7878 9.26713 68.7963 9.33157 68.7922 9.39582C68.788 9.46008 68.7713 9.52289 68.7429 9.58067C68.7145 9.63845 68.6749 9.69006 68.6266 9.73257C68.5782 9.77508 68.5219 9.80764 68.461 9.82841C68.4001 9.84917 68.3356 9.85773 68.2714 9.85359C63.0127 9.5131 61.2422 9.39708 58.1022 18.8676C57.85 19.6016 57.6709 20.4339 57.4716 21.3141L57.3808 21.7076C56.768 24.3583 55.3632 33.1529 62.8715 35.1177C64.3646 35.5086 66.2587 35.2261 68.8288 34.2274C68.9502 34.1802 69.0853 34.1832 69.2045 34.2357C69.3237 34.2882 69.4172 34.3859 69.4643 34.5073C69.5115 34.6287 69.5085 34.7639 69.456 34.8831C69.4035 35.0023 69.3058 35.0957 69.1844 35.1429C67.2222 35.8995 65.6433 36.2678 64.2864 36.2678Z" fill="#262424"/>
<path d="M74.2665 25.8141C73.5002 25.19 72.9167 24.3706 72.5776 23.4423C72.2384 22.5141 72.1562 21.5115 72.3396 20.5404C72.4506 19.8796 72.67 19.0095 72.7356 18.1822C67.7619 20.8531 59.9938 20.9263 56.657 20.8153C56.1317 20.8071 55.6223 20.6335 55.2013 20.3193C54.7802 20.0051 54.4689 19.5662 54.3115 19.0649C52.4678 12.6461 59.9989 3.96248 66.7556 6.38372C76.2489 3.54886 84.0221 10.3989 83.1771 17.36C82.2389 25.0777 76.1404 27.4359 74.2665 25.8141Z" fill="#262424"/>
<path d="M74.6473 25.2011C74.6473 25.2011 79.2073 22.5958 82.5567 24.8455C85.9061 27.0952 82.0144 35.3552 73.2249 31.6275L74.6473 25.2011Z" fill="white"/>
<path d="M77.4545 33.0658C75.9255 33.0386 74.4176 32.7041 73.0206 32.0822C72.9613 32.057 72.9075 32.0204 72.8624 31.9745C72.8172 31.9285 72.7816 31.8741 72.7575 31.8144C72.7334 31.7547 72.7212 31.6908 72.7218 31.6264C72.7224 31.562 72.7356 31.4983 72.7608 31.439C72.786 31.3797 72.8226 31.326 72.8685 31.2809C72.9144 31.2357 72.9688 31.2001 73.0286 31.1759C73.0883 31.1518 73.1522 31.1397 73.2166 31.1403C73.281 31.1408 73.3446 31.1541 73.4039 31.1793C78.3675 33.2802 81.5302 31.4315 82.7358 29.2196C83.5782 27.6634 83.3915 25.9963 82.2894 25.2573C79.2376 23.2043 74.9399 25.6054 74.897 25.6306C74.784 25.6951 74.6499 25.7121 74.5243 25.6778C74.3988 25.6436 74.2919 25.5608 74.2274 25.4477C74.1628 25.3347 74.1458 25.2006 74.1801 25.0751C74.2144 24.9495 74.2972 24.8427 74.4103 24.7781C74.607 24.6646 79.2754 22.0492 82.8366 24.4427C84.3676 25.4717 84.6879 27.676 83.5933 29.6862C82.5516 31.603 80.4003 33.0658 77.4545 33.0658Z" fill="#262424"/>
</svg>
