<svg width="341" height="387" viewBox="0 0 341 387" fill="none" xmlns="http://www.w3.org/2000/svg">
<path d="M340.272 183.282L338.111 197.794L325.023 285.68C324.724 287.696 323.711 289.536 322.169 290.867C320.628 292.197 318.66 292.929 316.625 292.929H173.527C172.306 292.929 171.1 292.666 169.991 292.157C168.881 291.648 167.894 290.906 167.097 289.98C166.3 289.055 165.712 287.968 165.373 286.794C165.034 285.621 164.952 284.387 165.132 283.179L177.843 197.797L180.376 180.78C180.675 178.765 181.687 176.925 183.229 175.594C184.77 174.264 186.738 173.532 188.773 173.532H331.871C333.092 173.531 334.299 173.794 335.409 174.303C336.519 174.812 337.507 175.554 338.304 176.48C339.102 177.405 339.69 178.492 340.03 179.666C340.369 180.84 340.452 182.073 340.272 183.282Z" fill="white"/>
<path d="M316.631 293.541H173.53C172.221 293.541 170.928 293.259 169.738 292.713C168.548 292.167 167.49 291.37 166.636 290.378C165.782 289.385 165.151 288.22 164.788 286.961C164.424 285.703 164.336 284.38 164.53 283.085L179.788 180.686C180.121 178.53 181.211 176.564 182.861 175.14C184.512 173.716 186.616 172.928 188.795 172.917H331.893C333.202 172.916 334.496 173.199 335.686 173.744C336.876 174.29 337.935 175.086 338.79 176.079C339.645 177.072 340.276 178.237 340.64 179.496C341.004 180.755 341.092 182.077 340.899 183.373L325.656 285.772C325.323 287.931 324.23 289.899 322.576 291.324C320.921 292.748 318.813 293.534 316.631 293.541ZM188.792 174.144C186.905 174.152 185.084 174.833 183.655 176.066C182.227 177.299 181.285 179.002 181 180.869L165.744 283.267C165.577 284.389 165.653 285.533 165.968 286.622C166.283 287.711 166.828 288.719 167.568 289.577C168.307 290.436 169.223 291.125 170.252 291.597C171.282 292.069 172.401 292.314 173.533 292.314H316.634C318.52 292.306 320.342 291.625 321.771 290.392C323.199 289.159 324.141 287.456 324.426 285.589L339.67 183.191C339.836 182.069 339.76 180.925 339.445 179.836C339.129 178.747 338.584 177.739 337.844 176.881C337.104 176.022 336.189 175.333 335.159 174.861C334.129 174.389 333.01 174.144 331.878 174.144H188.78H188.792Z" fill="#262424"/>
<path d="M339.749 182.011C339.749 182.406 339.72 182.8 339.66 183.19L337.502 197.702V197.794H178.461L180.981 180.869C181.259 178.999 182.199 177.291 183.629 176.057C185.059 174.823 186.885 174.144 188.773 174.144H331.871C333.957 174.146 335.957 174.975 337.433 176.449C338.91 177.923 339.742 179.924 339.749 182.011Z" fill="#FEA151"/>
<path d="M197.576 189.202C199.529 189.202 201.113 187.617 201.113 185.662C201.113 183.706 199.529 182.121 197.576 182.121C195.623 182.121 194.039 183.706 194.039 185.662C194.039 187.617 195.623 189.202 197.576 189.202Z" fill="white"/>
<path d="M214.592 189.202C216.545 189.202 218.128 187.617 218.128 185.662C218.128 183.706 216.545 182.121 214.592 182.121C212.638 182.121 211.055 183.706 211.055 185.662C211.055 187.617 212.638 189.202 214.592 189.202Z" fill="white"/>
<path d="M231.615 189.202C233.568 189.202 235.152 187.617 235.152 185.662C235.152 183.706 233.568 182.121 231.615 182.121C229.662 182.121 228.078 183.706 228.078 185.662C228.078 187.617 229.662 189.202 231.615 189.202Z" fill="white"/>
<path d="M249.242 253.548C230.156 252.69 228.696 243.482 232.456 229.628C229.604 225.087 226.328 219.566 229.244 209.183C231.947 199.498 249.264 188.582 262.406 200.968C262.709 201.053 272.398 203.947 272.575 222.497C272.769 241.346 270.726 254.527 249.242 253.548Z" fill="#262424"/>
<path d="M231.227 278.087C229.142 286.229 226.914 295.15 223.444 302.715C219.016 309.894 209.202 321.057 202.463 319.829C193.685 318.233 199.42 296.527 200.789 291.341C200.853 291.098 209.683 275.955 213.945 264.072C218.206 252.189 228.64 248.716 228.64 248.716C228.64 248.716 235.945 259.654 231.227 278.087Z" fill="#B0CDFE"/>
<path d="M280.33 251.885C280.33 251.885 263.811 240.264 228.637 248.716C228.637 248.716 215.549 265.949 215.031 283.523C214.9 287.965 217.439 296.228 217.375 301.347C217.166 315.043 216.019 328.709 213.941 342.248L287.117 344.609C287.117 344.609 291.342 302.797 280.33 251.885Z" fill="#B0CDFE"/>
<path d="M217.269 306.987H217.25C217.168 306.987 217.087 306.971 217.012 306.939C216.936 306.907 216.868 306.86 216.811 306.8C216.754 306.741 216.71 306.671 216.681 306.594C216.652 306.518 216.638 306.436 216.642 306.354C216.697 304.657 216.733 302.969 216.754 301.335C216.785 298.797 216.146 295.415 215.537 292.143C214.928 288.871 214.341 285.745 214.408 283.499C214.818 269.535 223.055 255.812 226.583 250.56C226.674 250.424 226.814 250.331 226.974 250.299C227.134 250.268 227.3 250.301 227.435 250.392C227.57 250.483 227.664 250.624 227.695 250.784C227.727 250.944 227.693 251.11 227.602 251.245C224.139 256.41 216.036 269.889 215.64 283.542C215.576 285.675 216.146 288.703 216.748 291.924C217.357 295.254 218.018 298.697 217.984 301.369C217.963 303.011 217.926 304.72 217.871 306.408C217.864 306.564 217.797 306.71 217.685 306.818C217.573 306.925 217.424 306.986 217.269 306.987Z" fill="#262424"/>
<path d="M283.938 340.094L218.74 338.571C218.66 338.569 218.581 338.551 218.508 338.519C218.435 338.487 218.369 338.44 218.313 338.383C218.258 338.325 218.215 338.256 218.186 338.182C218.157 338.107 218.143 338.028 218.145 337.948C218.146 337.868 218.164 337.789 218.196 337.715C218.229 337.642 218.275 337.576 218.333 337.521C218.39 337.465 218.459 337.422 218.533 337.393C218.608 337.364 218.687 337.35 218.767 337.352L283.965 338.875C284.127 338.879 284.28 338.947 284.392 339.064C284.503 339.18 284.564 339.337 284.56 339.499C284.557 339.66 284.489 339.814 284.372 339.925C284.256 340.037 284.099 340.098 283.938 340.094Z" fill="#262424"/>
<path d="M265.744 252.912C264.618 255.518 262.924 257.85 260.782 259.742C258.64 261.635 256.102 263.041 253.347 263.864C252.421 258.869 249.87 252.585 249.87 252.585C247.036 256.419 245.539 261.495 245.169 263.809C235.995 261.33 234.949 252.655 234.949 252.655C236.069 243.961 243.668 237.417 250.191 237.637C264.594 238.114 265.744 252.912 265.744 252.912Z" fill="white"/>
<path d="M253.198 263.861C253.029 263.864 252.864 263.805 252.733 263.694C252.603 263.584 252.515 263.43 252.487 263.259C251.867 259.796 250.455 255.643 249.704 253.572C247.954 256.533 246.738 259.789 246.114 263.187C246.099 263.289 246.063 263.387 246.008 263.474C245.953 263.561 245.88 263.634 245.795 263.69C245.71 263.746 245.614 263.783 245.513 263.798C245.413 263.813 245.311 263.806 245.213 263.778C236.111 261.239 234.965 252.234 234.955 252.143C234.947 252.084 234.947 252.024 234.955 251.965C236.122 242.579 243.939 236.265 250.216 236.497C264.432 236.99 265.731 252.092 265.742 252.259C265.75 252.377 265.731 252.495 265.685 252.604C264.565 255.276 262.887 257.667 260.766 259.609C258.646 261.551 256.134 262.997 253.408 263.847C253.339 263.862 253.269 263.867 253.198 263.861ZM249.885 251.262H249.974C250.102 251.278 250.222 251.328 250.324 251.408C250.425 251.488 250.504 251.594 250.551 251.715C250.647 251.958 252.764 257.391 253.753 262.164C256.089 261.327 258.231 260.01 260.047 258.295C261.863 256.579 263.313 254.501 264.307 252.19C264.133 250.5 262.461 238.379 250.181 237.955C244.551 237.767 237.485 243.758 236.403 252.052C236.531 252.934 237.727 259.712 244.857 262.131C245.366 259.651 246.754 255.15 249.316 251.556C249.381 251.467 249.464 251.394 249.56 251.343C249.657 251.292 249.763 251.265 249.871 251.262H249.885Z" fill="#262424"/>
<path d="M257.761 220.523L257.535 229.169L257.152 243.961C252.266 247.44 247.516 247.804 242.934 244.299L243.606 237.428L244.622 227.019L257.761 220.523Z" fill="white"/>
<path d="M250.145 246.756C247.754 246.756 245.444 245.899 243.215 244.186C243.117 244.111 243.041 244.012 242.992 243.898C242.944 243.783 242.925 243.658 242.937 243.534L244.594 226.462C244.606 226.338 244.648 226.22 244.718 226.118C244.787 226.017 244.881 225.935 244.99 225.882L257.883 219.461C257.992 219.404 258.114 219.378 258.236 219.384C258.358 219.391 258.477 219.43 258.58 219.498C258.682 219.566 258.766 219.661 258.822 219.772C258.879 219.884 258.906 220.008 258.9 220.134L258.304 243.29C258.301 243.403 258.273 243.515 258.22 243.615C258.168 243.715 258.093 243.801 258.002 243.866C255.304 245.795 252.682 246.756 250.145 246.756ZM244.383 243.264C248.299 246.112 252.398 245.986 256.89 242.883L257.448 221.285L245.959 227.009L244.383 243.264Z" fill="#262424"/>
<path d="M233.957 221.461C234.413 228.725 236.118 237.454 244.379 236.404C254.206 235.154 260.751 228.083 261.158 218.26C261.565 208.436 257.469 202.738 246.31 203.48C245.364 203.54 244.425 203.682 243.502 203.907C237.038 205.498 233.634 210.992 233.82 217.592C233.841 218.772 233.883 220.092 233.957 221.461Z" fill="white"/>
<path d="M242.969 237.628C241.014 237.683 239.105 237.015 237.588 235.745C233.942 232.632 233.139 226.322 232.85 221.844C232.756 220.455 232.716 219.145 232.68 217.92C232.47 210.594 236.506 205.043 243.219 203.435C243.407 203.39 243.606 203.423 243.77 203.528C243.935 203.633 244.052 203.801 244.096 203.995C244.14 204.189 244.107 204.394 244.005 204.563C243.903 204.732 243.74 204.853 243.552 204.898C237.555 206.335 233.949 211.309 234.148 217.879C234.184 219.089 234.224 220.381 234.314 221.747C234.586 225.95 235.316 231.851 238.528 234.594C240.018 235.867 241.884 236.344 244.242 236.05C247.887 235.659 251.363 234.268 254.308 232.022C254.384 231.962 254.471 231.918 254.563 231.892C254.656 231.866 254.752 231.86 254.847 231.873C254.942 231.885 255.034 231.917 255.117 231.967C255.2 232.016 255.273 232.081 255.331 232.16C255.39 232.238 255.433 232.327 255.457 232.422C255.482 232.518 255.489 232.617 255.476 232.715C255.464 232.813 255.433 232.907 255.385 232.993C255.337 233.078 255.273 233.153 255.197 233.213C252.046 235.623 248.324 237.119 244.42 237.543C243.938 237.601 243.454 237.63 242.969 237.628Z" fill="#262424"/>
<path d="M234.949 206.791C234.949 206.791 235.818 222.684 257.46 222.805C257.46 222.805 270.319 218.921 265.996 206.791C261.672 194.661 240.404 191.749 234.949 206.791Z" fill="#262424"/>
<path d="M194.02 261.939C194.02 261.939 190.748 239.798 190.648 238.479C190.547 237.159 192.982 233.198 198.357 232.79C203.733 232.382 204.953 234.213 204.953 235.938C204.953 237.662 205.766 244.064 205.766 244.064C205.766 244.064 205.562 235.938 205.666 234.719C205.769 233.5 208.81 232.79 209.014 234.819C209.218 236.849 210.027 251.373 210.027 251.373C210.027 251.373 217.028 249.24 218.854 249.14C220.681 249.039 220.477 251.982 219.564 252.491C218.65 253 203.075 264.069 203.075 264.069L194.02 261.939Z" fill="white"/>
<path d="M203.073 264.682C203.022 264.688 202.971 264.688 202.92 264.682L193.865 262.549C193.745 262.521 193.637 262.458 193.553 262.367C193.47 262.276 193.417 262.162 193.399 262.04C193.265 261.126 190.124 239.862 190.021 238.537C189.957 237.729 190.49 236.562 191.406 235.49C192.322 234.417 194.52 232.47 198.297 232.187C201.268 231.965 203.362 232.391 204.515 233.464C204.758 233.693 204.964 233.959 205.124 234.253C205.459 233.439 206.512 232.946 207.462 232.937H207.486C208.655 232.937 209.48 233.653 209.589 234.765C209.766 236.538 210.39 247.501 210.563 250.569C212.438 250.011 217.26 248.619 218.782 248.533C219.22 248.499 219.655 248.624 220.008 248.886C220.362 249.147 220.609 249.527 220.705 249.956C221.01 251.011 220.705 252.549 219.826 253.034C219.177 253.393 209.644 260.133 203.389 264.575C203.296 264.64 203.186 264.676 203.073 264.682ZM194.55 261.431L202.93 263.405C205.316 261.708 218.365 252.436 219.247 251.952C219.469 251.83 219.746 250.983 219.552 250.288C219.409 249.789 219.129 249.737 218.876 249.749C217.439 249.828 212.122 251.37 210.195 251.958C210.106 251.986 210.012 251.993 209.919 251.979C209.827 251.965 209.739 251.93 209.663 251.876C209.586 251.823 209.523 251.752 209.478 251.67C209.433 251.588 209.408 251.497 209.404 251.404C209.404 251.257 208.591 236.87 208.39 234.877C208.372 234.698 208.317 234.149 207.507 234.149C206.868 234.149 206.29 234.53 206.29 234.759C206.211 235.697 206.323 241.236 206.393 244.036C206.405 244.198 206.353 244.358 206.247 244.481C206.142 244.603 205.992 244.679 205.83 244.691C205.669 244.703 205.509 244.651 205.386 244.545C205.264 244.439 205.188 244.289 205.176 244.128C205.142 243.866 204.36 237.671 204.36 235.926C204.374 235.631 204.324 235.336 204.213 235.063C204.102 234.789 203.933 234.543 203.718 234.341C202.838 233.525 201.006 233.196 198.425 233.391C195.077 233.643 193.202 235.301 192.374 236.27C191.546 237.239 191.257 238.098 191.281 238.418C191.333 239.439 193.418 253.68 194.562 261.437L194.55 261.431Z" fill="#262424"/>
<path d="M193.029 260.187L204.9 263.463C204.9 263.463 206.117 285.4 207.03 294.541C207.943 303.681 208.096 318.458 202.465 319.829C196.833 321.201 182.573 313.388 184.963 299.416C188.767 277.173 193.029 260.187 193.029 260.187Z" fill="#B0CDFE"/>
<path d="M206.027 316.334C205.928 316.336 205.83 316.313 205.742 316.268C205.654 316.223 205.578 316.157 205.521 316.076C205.464 315.995 205.428 315.901 205.415 315.803C205.403 315.704 205.414 315.604 205.449 315.512C207.668 309.308 206.754 297.937 206.42 294.598L205.415 281.801C205.402 281.64 205.454 281.48 205.559 281.356C205.664 281.233 205.814 281.156 205.975 281.143C206.137 281.13 206.297 281.182 206.42 281.287C206.543 281.392 206.62 281.542 206.633 281.704L207.637 294.501C208.072 298.848 208.855 309.668 206.599 315.938C206.556 316.055 206.477 316.155 206.375 316.226C206.273 316.297 206.151 316.335 206.027 316.334Z" fill="#262424"/>
<path d="M203.455 270.626C203.404 270.626 203.353 270.62 203.303 270.608L192.802 267.942C192.724 267.922 192.65 267.887 192.586 267.838C192.521 267.79 192.467 267.729 192.426 267.66C192.385 267.59 192.357 267.513 192.346 267.433C192.335 267.353 192.339 267.272 192.359 267.194C192.379 267.116 192.414 267.042 192.463 266.977C192.511 266.913 192.571 266.858 192.641 266.817C192.71 266.776 192.787 266.749 192.867 266.738C192.947 266.726 193.028 266.73 193.106 266.75L203.607 269.416C203.768 269.437 203.913 269.52 204.012 269.647C204.111 269.775 204.156 269.937 204.135 270.097C204.115 270.258 204.032 270.404 203.905 270.503C203.777 270.602 203.615 270.646 203.455 270.626Z" fill="#262424"/>
<path d="M195.965 265.949C196.893 265.949 197.645 265.196 197.645 264.267C197.645 263.338 196.893 262.585 195.965 262.585C195.037 262.585 194.285 263.338 194.285 264.267C194.285 265.196 195.037 265.949 195.965 265.949Z" fill="white"/>
<path d="M195.964 266.561C195.511 266.561 195.067 266.427 194.69 266.175C194.314 265.923 194.02 265.564 193.846 265.145C193.673 264.726 193.627 264.265 193.716 263.819C193.804 263.374 194.023 262.966 194.343 262.645C194.664 262.324 195.072 262.105 195.517 262.017C195.961 261.928 196.422 261.974 196.841 262.147C197.26 262.321 197.618 262.615 197.87 262.992C198.121 263.37 198.256 263.813 198.256 264.267C198.255 264.875 198.013 265.458 197.584 265.889C197.154 266.319 196.571 266.561 195.964 266.561ZM195.964 263.21C195.753 263.21 195.547 263.272 195.372 263.39C195.197 263.507 195.06 263.673 194.98 263.868C194.899 264.063 194.878 264.277 194.919 264.484C194.96 264.691 195.062 264.881 195.211 265.03C195.36 265.179 195.549 265.281 195.756 265.322C195.963 265.363 196.177 265.342 196.372 265.261C196.566 265.181 196.733 265.044 196.85 264.869C196.967 264.693 197.029 264.487 197.029 264.276C197.03 264.135 197.004 263.996 196.951 263.865C196.898 263.735 196.819 263.616 196.72 263.516C196.621 263.416 196.504 263.337 196.374 263.283C196.244 263.229 196.105 263.201 195.964 263.201V263.21Z" fill="#262424"/>
<path d="M280.334 251.885C280.334 251.885 301.105 262.275 299.278 344.537H272.42C272.42 344.537 272.749 289.879 270.798 276.869C268.363 260.617 275.263 252.29 280.334 251.885Z" fill="#B0CDFE"/>
<path d="M272.441 334.357C272.279 334.357 272.124 334.293 272.01 334.178C271.896 334.064 271.832 333.909 271.832 333.748C271.817 316.508 271.582 286.217 270.197 276.963C268.109 263.033 272.714 254.962 277.292 252.284C277.362 252.244 277.439 252.218 277.518 252.208C277.598 252.197 277.679 252.203 277.756 252.224C277.833 252.245 277.906 252.281 277.97 252.33C278.033 252.379 278.086 252.44 278.126 252.509C278.166 252.579 278.192 252.656 278.203 252.735C278.213 252.815 278.207 252.896 278.186 252.974C278.166 253.051 278.13 253.124 278.081 253.187C278.032 253.251 277.971 253.304 277.901 253.344C273.317 256.029 269.531 264.313 271.4 276.787C272.797 286.11 273.034 316.478 273.049 333.763C273.049 333.924 272.985 334.079 272.871 334.194C272.757 334.308 272.602 334.372 272.441 334.372V334.357Z" fill="#262424"/>
<path d="M257.782 224.233C257.495 220.069 260.338 216.317 264.228 215.987C265.055 215.911 265.887 216.005 266.68 216.264C271.435 217.827 269.793 229.757 258.076 228.4L257.782 224.233Z" fill="white"/>
<path d="M259.571 228.507C258.919 228.506 258.267 228.471 257.618 228.401C257.419 228.38 257.238 228.283 257.112 228.132C256.987 227.98 256.929 227.786 256.95 227.592C256.971 227.399 257.071 227.221 257.226 227.099C257.382 226.977 257.58 226.92 257.779 226.941C264.765 227.671 268.013 224.272 268.671 221.142C269.128 218.952 268.297 217.042 266.669 216.556C265.915 216.332 265.124 216.25 264.338 216.315C262.535 216.484 260.874 217.34 259.714 218.697C258.553 220.054 257.989 221.802 258.142 223.563C258.157 223.757 258.092 223.948 257.962 224.096C257.832 224.243 257.648 224.334 257.45 224.348C257.251 224.363 257.055 224.3 256.904 224.173C256.753 224.046 256.66 223.866 256.645 223.673C256.301 219.163 259.702 215.202 264.222 214.848C265.198 214.767 266.181 214.868 267.118 215.147C269.494 215.859 270.77 218.503 270.153 221.438C269.375 225.1 265.831 228.507 259.571 228.507Z" fill="#262424"/>
<path d="M300.061 284.361C308.675 284.361 315.658 277.371 315.658 268.749C315.658 260.127 308.675 253.137 300.061 253.137C291.448 253.137 284.465 260.127 284.465 268.749C284.465 277.371 291.448 284.361 300.061 284.361Z" fill="#FEA151"/>
<path d="M304.012 272.701C304.012 272.701 299.857 276.86 294.765 277.85C294.42 277.902 294.069 277.87 293.739 277.756C293.41 277.643 293.114 277.451 292.874 277.198L291.219 275.54C290.421 274.742 290.305 273.569 290.957 272.917L292.871 271.001C293.523 270.349 294.698 270.467 295.492 271.263L296.405 272.177C296.952 272.099 297.485 271.943 297.988 271.714C299.12 271.248 300.148 270.562 301.013 269.696C301.878 268.83 302.563 267.801 303.028 266.668C303.258 266.165 303.413 265.631 303.491 265.084L302.578 264.17C301.781 263.371 301.665 262.198 302.313 261.546L304.228 259.63C304.879 258.978 306.054 259.096 306.848 259.895L308.504 261.552C308.757 261.792 308.949 262.089 309.062 262.418C309.175 262.748 309.208 263.1 309.156 263.444C308.166 268.545 304.012 272.701 304.012 272.701Z" fill="white"/>
<path d="M340.272 25.7536L338.111 40.2657L325.023 128.152C324.724 130.167 323.711 132.008 322.169 133.338C320.628 134.669 318.66 135.401 316.625 135.401H173.527C172.306 135.401 171.1 135.138 169.991 134.629C168.881 134.12 167.894 133.377 167.097 132.452C166.3 131.526 165.712 130.44 165.373 129.266C165.034 128.092 164.952 126.859 165.132 125.651L177.843 40.2688L180.376 23.2521C180.675 21.2368 181.687 19.3962 183.229 18.0657C184.77 16.7353 186.738 16.0034 188.773 16.0037H331.871C333.092 16.003 334.299 16.266 335.409 16.7747C336.519 17.2834 337.507 18.0258 338.304 18.9513C339.102 19.8767 339.69 20.9635 340.03 22.1374C340.369 23.3113 340.452 24.5448 340.272 25.7536Z" fill="white"/>
<path d="M316.631 136.013H173.53C172.221 136.013 170.928 135.73 169.738 135.184C168.548 134.638 167.49 133.842 166.636 132.849C165.782 131.857 165.151 130.691 164.788 129.433C164.424 128.174 164.336 126.852 164.53 125.556L179.788 23.1576C180.121 21.0018 181.21 19.0352 182.861 17.6111C184.512 16.1871 186.616 15.3989 188.795 15.3882H331.893C333.202 15.3879 334.496 15.6702 335.686 16.216C336.876 16.7617 337.935 17.558 338.79 18.5505C339.645 19.5431 340.276 20.7085 340.64 21.9673C341.004 23.2262 341.092 24.5488 340.899 25.845L325.638 128.243C325.305 130.399 324.215 132.365 322.564 133.789C320.914 135.213 318.81 136.002 316.631 136.013ZM188.792 16.6161C186.901 16.6057 185.07 17.281 183.637 18.5171C182.205 19.7532 181.268 21.4665 181 23.3405L165.744 125.745C165.577 126.866 165.653 128.01 165.968 129.099C166.283 130.188 166.828 131.196 167.568 132.055C168.307 132.914 169.223 133.603 170.252 134.075C171.282 134.547 172.401 134.791 173.533 134.791H316.634C318.52 134.784 320.342 134.102 321.771 132.869C323.199 131.636 324.141 129.933 324.426 128.067L339.67 25.6683C339.836 24.5469 339.76 23.4028 339.445 22.3139C339.129 21.2249 338.584 20.2168 337.844 19.3582C337.104 18.4996 336.189 17.8108 335.159 17.3386C334.129 16.8664 333.01 16.6221 331.878 16.6222H188.78L188.792 16.6161Z" fill="#262424"/>
<path d="M339.749 24.4832C339.749 24.8779 339.72 25.2721 339.66 25.6623L337.502 40.1744V40.2659H178.461L180.981 23.3406C181.259 21.4709 182.199 19.7635 183.629 18.5292C185.059 17.295 186.885 16.6161 188.773 16.6162H331.871C333.957 16.6178 335.957 17.4466 337.433 18.9211C338.91 20.3955 339.742 22.3955 339.749 24.4832Z" fill="#B0CDFE"/>
<path d="M197.576 31.6737C199.529 31.6737 201.113 30.0885 201.113 28.1332C201.113 26.1779 199.529 24.5928 197.576 24.5928C195.623 24.5928 194.039 26.1779 194.039 28.1332C194.039 30.0885 195.623 31.6737 197.576 31.6737Z" fill="white"/>
<path d="M214.592 31.6737C216.545 31.6737 218.128 30.0885 218.128 28.1332C218.128 26.1779 216.545 24.5928 214.592 24.5928C212.638 24.5928 211.055 26.1779 211.055 28.1332C211.055 30.0885 212.638 31.6737 214.592 31.6737Z" fill="white"/>
<path d="M231.615 31.6737C233.568 31.6737 235.152 30.0885 235.152 28.1332C235.152 26.1779 233.568 24.5928 231.615 24.5928C229.662 24.5928 228.078 26.1779 228.078 28.1332C228.078 30.0885 229.662 31.6737 231.615 31.6737Z" fill="white"/>
<path d="M232.18 120.261C230.095 128.402 227.867 137.323 224.397 144.889C219.966 152.067 210.156 163.222 203.417 162.003C194.638 160.406 200.373 138.7 201.742 133.515C201.806 133.271 209.2 115.995 213.461 104.113C217.722 92.2299 225.721 90.8893 225.721 90.8893C225.721 90.8893 236.898 101.827 232.18 120.261Z" fill="#FEA151"/>
<path d="M281.286 94.0577C281.286 94.0577 260.892 82.437 225.718 90.889C225.718 90.889 216.088 99.9564 216.535 122.777C216.998 146.369 214.895 184.421 214.895 184.421L288.07 186.782C288.07 186.782 292.295 144.974 281.286 94.0577Z" fill="#FEA151"/>
<path d="M284.893 182.267L219.695 180.744C219.533 180.744 219.378 180.68 219.264 180.565C219.15 180.451 219.086 180.296 219.086 180.135C219.086 179.973 219.15 179.818 219.264 179.704C219.378 179.589 219.533 179.525 219.695 179.525L284.893 181.049C285.054 181.049 285.209 181.113 285.323 181.227C285.437 181.341 285.502 181.496 285.502 181.658C285.502 181.82 285.437 181.975 285.323 182.089C285.209 182.203 285.054 182.267 284.893 182.267Z" fill="#262424"/>
<path d="M216.351 148.704C216.27 148.704 216.189 148.687 216.115 148.656C216.04 148.624 215.972 148.578 215.915 148.52C215.858 148.462 215.814 148.393 215.784 148.317C215.755 148.241 215.74 148.16 215.742 148.079L216.375 112.949C216.374 112.928 216.374 112.908 216.375 112.888C217.706 101.685 221.587 95.1247 223.778 92.2119C223.876 92.0818 224.022 91.996 224.183 91.9735C224.344 91.9509 224.508 91.9934 224.638 92.0915C224.768 92.1897 224.854 92.3356 224.876 92.497C224.899 92.6584 224.856 92.8222 224.758 92.9523C222.627 95.7645 218.896 102.093 217.596 113.004L216.96 148.097C216.959 148.258 216.895 148.413 216.781 148.526C216.666 148.64 216.512 148.704 216.351 148.704Z" fill="#262424"/>
<path d="M268.257 96.8818C267.064 99.7975 265.271 102.405 263.002 104.521C260.734 106.636 258.046 108.208 255.129 109.124C254.15 103.541 251.453 96.5165 251.453 96.5165C248.456 100.803 246.873 106.476 246.482 109.063C236.781 106.292 235.676 96.5945 235.676 96.5945C236.86 86.8768 244.895 79.5609 251.793 79.8072C267.041 80.345 268.257 96.8818 268.257 96.8818Z" fill="white"/>
<path d="M254.541 109.121C254.356 109.124 254.176 109.061 254.034 108.943C253.891 108.826 253.795 108.661 253.763 108.48C253.086 104.769 251.541 100.32 250.721 98.1008C248.807 101.273 247.478 104.762 246.795 108.402C246.779 108.511 246.74 108.616 246.68 108.709C246.619 108.802 246.54 108.881 246.447 108.941C246.354 109.001 246.249 109.041 246.139 109.057C246.03 109.073 245.918 109.066 245.811 109.035C235.86 106.315 234.607 96.667 234.596 96.5698C234.588 96.5066 234.588 96.4426 234.596 96.3794C235.872 86.3232 244.418 79.5776 251.281 79.8068C266.822 80.3353 268.242 96.5154 268.254 96.6942C268.267 96.8269 268.245 96.9607 268.191 97.0827C266.965 99.9421 265.129 102.5 262.811 104.577C260.493 106.654 257.749 108.201 254.77 109.109C254.695 109.124 254.617 109.128 254.541 109.121ZM250.919 95.6217H251.016C251.155 95.6385 251.287 95.6925 251.398 95.7779C251.509 95.8634 251.595 95.9773 251.646 96.1074C251.751 96.3678 254.066 102.189 255.148 107.302C257.702 106.406 260.044 104.994 262.029 103.155C264.014 101.316 265.599 99.0892 266.686 96.6125C266.495 94.8018 264.667 81.8157 251.242 81.3611H250.946C244.842 81.3611 237.33 87.7065 236.163 96.4727C236.303 97.4169 237.611 104.679 245.407 107.271C245.963 104.613 247.48 99.7911 250.281 95.9403C250.354 95.8395 250.45 95.7576 250.561 95.7015C250.672 95.6454 250.795 95.6167 250.919 95.6178V95.6217Z" fill="#262424"/>
<path d="M259.564 62.4241L259.333 71.3724L258.94 86.6822C253.93 90.2834 249.058 90.6605 244.359 87.0329L245.049 79.921L246.091 69.1476L259.564 62.4241Z" fill="white"/>
<path d="M251.121 89.5755C248.52 89.5755 246.006 88.6918 243.579 86.9243C243.474 86.8472 243.39 86.7448 243.337 86.627C243.284 86.5092 243.264 86.38 243.278 86.2522L245.08 68.6404C245.093 68.513 245.139 68.3911 245.215 68.2863C245.291 68.1816 245.393 68.0976 245.512 68.0426L259.542 61.4182C259.661 61.3598 259.793 61.3326 259.926 61.3394C260.059 61.3462 260.188 61.3867 260.3 61.4569C260.412 61.5271 260.503 61.6245 260.565 61.7395C260.626 61.8545 260.655 61.9831 260.649 62.1125L260 85.9997C259.998 86.1169 259.967 86.2319 259.909 86.3351C259.852 86.4384 259.771 86.527 259.672 86.5938C256.72 88.5804 253.882 89.5755 251.121 89.5755ZM244.851 85.9737C249.113 88.9109 253.573 88.7809 258.461 85.5801L259.068 63.3008L246.566 69.2048L244.851 85.9737Z" fill="#262424"/>
<path d="M233.669 63.4179C234.158 70.8109 235.984 79.6953 244.828 78.6267C255.347 77.3543 262.354 70.1577 262.79 60.1594C263.226 50.1611 258.83 44.3578 246.875 45.1129C245.863 45.1737 244.858 45.3189 243.87 45.5471C236.949 47.1669 233.305 52.7589 233.504 59.476C233.526 60.6805 233.571 62.0209 233.669 63.4179Z" fill="white"/>
<path d="M243.794 79.7975C241.839 79.8534 239.929 79.1746 238.412 77.8842C234.766 74.7231 233.963 68.314 233.674 63.7653C233.58 62.3549 233.54 61.0239 233.504 59.7799C233.291 52.3385 237.331 46.7008 244.043 45.0673C244.232 45.0212 244.43 45.0552 244.594 45.162C244.759 45.2687 244.876 45.4393 244.92 45.6364C244.964 45.8335 244.932 46.0408 244.83 46.2127C244.728 46.3847 244.564 46.5072 244.376 46.5533C238.379 48.0129 234.77 53.0645 234.973 59.7383C235.009 60.9672 235.048 62.283 235.139 63.667C235.41 67.9359 236.141 73.9291 239.352 76.7158C240.842 78.0052 242.709 78.4892 245.063 78.1943C248.708 77.797 252.184 76.3841 255.128 74.103C255.204 74.0419 255.291 73.9971 255.384 73.9711C255.476 73.9451 255.573 73.9384 255.668 73.9513C255.763 73.9643 255.854 73.9968 255.938 74.0468C256.021 74.0968 256.093 74.1635 256.152 74.2429C256.21 74.3224 256.253 74.4131 256.278 74.5098C256.303 74.6066 256.309 74.7076 256.297 74.8069C256.284 74.9063 256.253 75.0021 256.206 75.089C256.158 75.1758 256.094 75.2519 256.018 75.313C252.867 77.7613 249.145 79.28 245.24 79.7105C244.76 79.7699 244.277 79.799 243.794 79.7975Z" fill="#262424"/>
<path d="M266.222 62.5972C265.133 64.0391 263.92 65.3851 262.594 66.6201L257.153 66.7685L256.128 62.9625C256.128 62.9625 252.69 62.6961 252.055 60.3821C252.039 60.3284 252.026 60.2738 252.017 60.2184C251.862 59.4573 251.27 56.0966 251.966 50.9205C251.966 50.9205 243.559 54.2393 239.034 54.5552C237.405 54.6694 235.553 53.9919 233.801 53.0747C230.32 51.2402 227.447 45.4628 228.193 41.6568V41.5845C229.353 36.0088 232.192 39.9936 232.192 39.9936C232.192 39.9936 233.198 35.5064 236.083 35.2818C238.968 35.0573 240.654 39.2857 240.654 39.2857C246.215 38.2061 251.932 38.1635 257.508 39.1601C268.558 41.2039 265.533 48.6407 265.533 48.6407C265.533 48.6407 273.628 51.5142 266.222 62.5972Z" fill="#262424"/>
<path d="M257.417 65.9563C257.089 61.9913 260.338 58.4188 264.784 58.1048C265.728 58.0326 266.679 58.1222 267.585 58.3689C273.019 59.8571 271.142 71.2168 257.753 69.9249L257.417 65.9563Z" fill="white"/>
<path d="M260.442 71.1126C259.768 71.1111 259.096 71.0747 258.427 71.0034C258.222 70.9819 258.034 70.8819 257.905 70.7255C257.776 70.569 257.716 70.3689 257.738 70.1691C257.76 69.9693 257.862 69.7862 258.023 69.6601C258.183 69.534 258.388 69.4752 258.593 69.4967C265.795 70.25 269.146 66.7433 269.825 63.5153C270.296 61.2554 269.439 59.2854 267.76 58.7845C266.982 58.5535 266.166 58.4691 265.355 58.5359C263.496 58.7099 261.781 59.5926 260.585 60.9924C259.388 62.3922 258.805 64.1962 258.963 66.0126C258.971 66.1115 258.958 66.211 258.927 66.3052C258.895 66.3994 258.844 66.4866 258.778 66.5618C258.712 66.637 258.631 66.6988 258.54 66.7435C258.449 66.7882 258.351 66.815 258.249 66.8224C258.148 66.8298 258.046 66.8177 257.949 66.7867C257.853 66.7557 257.763 66.7064 257.686 66.6417C257.609 66.577 257.546 66.4981 257.5 66.4096C257.454 66.321 257.427 66.2245 257.419 66.1256C257.064 61.4738 260.573 57.3871 265.236 57.0217C266.243 56.9385 267.256 57.0433 268.223 57.3306C270.674 58.0651 271.991 60.7921 271.354 63.8204C270.555 67.5983 266.892 71.1126 260.442 71.1126Z" fill="#262424"/>
<path d="M194.973 104.112C194.973 104.112 191.701 81.9708 191.601 80.6515C191.5 79.3322 193.935 75.3713 199.311 74.963C204.686 74.5547 205.906 76.3859 205.906 78.1135C205.906 79.841 206.719 86.2394 206.719 86.2394C206.719 86.2394 206.515 78.1135 206.619 76.8947C206.722 75.676 209.763 74.9661 209.967 76.9953C210.171 79.0245 210.98 93.5488 210.98 93.5488C210.98 93.5488 217.981 91.416 219.807 91.3155C221.634 91.2149 221.43 94.1582 220.517 94.667C219.604 95.1758 204.028 106.245 204.028 106.245L194.973 104.112Z" fill="white"/>
<path d="M204.025 106.855C203.978 106.855 203.931 106.85 203.885 106.839L194.83 104.707C194.71 104.679 194.601 104.615 194.518 104.525C194.435 104.434 194.381 104.32 194.364 104.198C194.23 103.284 191.089 82.0198 190.986 80.6944C190.922 79.887 191.454 78.72 192.371 77.6476C193.287 76.5751 195.484 74.6281 199.262 74.3448C202.236 74.1193 204.327 74.5489 205.48 75.6214C205.723 75.8509 205.929 76.1172 206.089 76.4105C206.424 75.597 207.477 75.1034 208.427 75.0943C208.687 75.0735 208.948 75.1044 209.196 75.1851C209.444 75.2659 209.674 75.3949 209.872 75.5648C210.07 75.7347 210.232 75.9421 210.35 76.1751C210.468 76.4081 210.538 76.6621 210.557 76.9224C210.734 78.6957 211.358 89.6582 211.531 92.7264C213.406 92.1688 218.228 90.7764 219.75 90.6911C220.188 90.657 220.623 90.7821 220.976 91.0434C221.33 91.3048 221.577 91.6849 221.673 92.114C221.978 93.1682 221.673 94.7069 220.794 95.1913C220.145 95.5508 210.612 102.29 204.357 106.733C204.261 106.805 204.145 106.848 204.025 106.855ZM195.503 103.604L203.882 105.578C206.269 103.881 219.317 94.6094 220.2 94.1249C220.422 94.003 220.699 93.156 220.504 92.4613C220.361 91.9616 220.081 91.9098 219.829 91.922C218.392 92.0012 213.074 93.543 211.145 94.131C211.056 94.1591 210.961 94.1664 210.869 94.1522C210.777 94.138 210.689 94.1027 210.612 94.0491C210.536 93.9955 210.473 93.925 210.428 93.843C210.383 93.7611 210.357 93.6699 210.353 93.5765C210.353 93.4302 209.541 79.043 209.34 77.0473C209.321 76.8676 209.267 76.3191 208.457 76.3191C207.818 76.3191 207.24 76.7 207.24 76.9285C207.16 77.8669 207.273 83.4061 207.343 86.2061C207.355 86.3678 207.303 86.5276 207.197 86.6504C207.091 86.7733 206.941 86.8491 206.78 86.8612C206.618 86.8733 206.459 86.8208 206.336 86.7151C206.213 86.6093 206.138 86.4592 206.126 86.2976C206.092 86.0355 205.31 79.8413 205.31 78.0954C205.323 77.8006 205.273 77.5062 205.162 77.2327C205.051 76.9592 204.883 76.713 204.668 76.5111C203.788 75.6945 201.955 75.3655 199.374 75.5605C196.026 75.8134 194.151 77.4708 193.323 78.4397C192.495 79.4086 192.206 80.2678 192.231 80.5878C192.285 81.6145 194.37 95.8555 195.518 103.61L195.503 103.604Z" fill="#262424"/>
<path d="M193.982 102.361L205.853 105.636C205.853 105.636 207.07 127.573 207.983 136.714C208.896 145.854 209.049 160.632 203.418 162.003C197.787 163.374 183.526 155.562 185.916 141.589C189.721 119.347 193.982 102.361 193.982 102.361Z" fill="#FEA151"/>
<path d="M206.98 158.508C206.881 158.509 206.783 158.486 206.695 158.441C206.607 158.396 206.531 158.33 206.474 158.249C206.417 158.168 206.381 158.075 206.368 157.976C206.356 157.878 206.367 157.778 206.402 157.685C208.621 151.485 207.708 140.111 207.373 136.772L206.368 123.975C206.362 123.895 206.371 123.814 206.396 123.738C206.421 123.662 206.46 123.591 206.512 123.53C206.564 123.469 206.628 123.418 206.699 123.382C206.771 123.345 206.848 123.323 206.928 123.317C207.008 123.31 207.089 123.32 207.165 123.344C207.241 123.369 207.312 123.409 207.373 123.461C207.434 123.513 207.484 123.576 207.521 123.648C207.557 123.719 207.579 123.797 207.586 123.877L208.59 136.674C209.026 141.022 209.808 151.841 207.552 158.112C207.509 158.228 207.431 158.329 207.328 158.4C207.226 158.471 207.105 158.508 206.98 158.508Z" fill="#262424"/>
<path d="M204.408 112.802C204.357 112.803 204.306 112.797 204.256 112.784L193.755 110.118C193.677 110.098 193.603 110.063 193.539 110.014C193.474 109.966 193.42 109.905 193.379 109.836C193.338 109.766 193.311 109.69 193.299 109.61C193.288 109.53 193.292 109.448 193.312 109.37C193.332 109.292 193.367 109.218 193.416 109.154C193.464 109.089 193.525 109.035 193.594 108.994C193.663 108.952 193.74 108.925 193.82 108.914C193.9 108.902 193.981 108.907 194.059 108.927L204.56 111.593C204.721 111.613 204.866 111.696 204.965 111.824C205.064 111.951 205.109 112.113 205.089 112.274C205.068 112.434 204.985 112.58 204.858 112.679C204.73 112.778 204.569 112.823 204.408 112.802Z" fill="#262424"/>
<path d="M196.918 108.122C197.846 108.122 198.599 107.369 198.599 106.441C198.599 105.512 197.846 104.759 196.918 104.759C195.991 104.759 195.238 105.512 195.238 106.441C195.238 107.369 195.991 108.122 196.918 108.122Z" fill="white"/>
<path d="M196.917 108.738C196.464 108.738 196.021 108.603 195.644 108.351C195.267 108.099 194.973 107.741 194.799 107.322C194.626 106.902 194.581 106.441 194.669 105.996C194.757 105.551 194.976 105.142 195.296 104.821C195.617 104.5 196.025 104.282 196.47 104.193C196.914 104.105 197.375 104.15 197.794 104.324C198.213 104.498 198.571 104.792 198.823 105.169C199.074 105.546 199.209 105.99 199.209 106.444C199.208 107.052 198.966 107.635 198.537 108.065C198.107 108.495 197.525 108.737 196.917 108.738ZM196.917 105.386C196.706 105.386 196.5 105.449 196.325 105.566C196.15 105.683 196.013 105.85 195.933 106.045C195.852 106.239 195.831 106.454 195.872 106.661C195.913 106.868 196.015 107.058 196.164 107.207C196.313 107.356 196.502 107.457 196.709 107.499C196.916 107.54 197.13 107.519 197.325 107.438C197.519 107.357 197.686 107.221 197.803 107.045C197.92 106.87 197.982 106.664 197.982 106.453C197.984 106.312 197.958 106.172 197.905 106.041C197.852 105.91 197.774 105.791 197.675 105.691C197.575 105.59 197.458 105.511 197.327 105.456C197.197 105.402 197.058 105.374 196.917 105.374V105.386Z" fill="#262424"/>
<path d="M281.288 94.0583C281.288 94.0583 302.059 104.448 300.233 186.71H273.374C273.374 186.71 273.7 132.056 271.752 119.043C269.314 102.794 276.214 94.4636 281.288 94.0583Z" fill="#FEA151"/>
<path d="M273.394 176.53C273.232 176.53 273.077 176.466 272.963 176.352C272.849 176.237 272.785 176.082 272.785 175.921C272.77 158.682 272.535 128.39 271.15 119.137C269.062 105.206 273.668 97.1354 278.246 94.4572C278.315 94.4172 278.392 94.3913 278.471 94.3809C278.551 94.3706 278.632 94.3761 278.709 94.397C278.787 94.4179 278.859 94.4539 278.923 94.503C278.986 94.552 279.04 94.613 279.08 94.6826C279.119 94.7523 279.145 94.8291 279.156 94.9087C279.166 94.9883 279.161 95.0692 279.14 95.1468C279.119 95.2243 279.083 95.2969 279.034 95.3605C278.985 95.4241 278.924 95.4775 278.854 95.5175C274.27 98.2018 270.484 106.486 272.353 118.96C273.75 128.283 273.987 158.651 274.002 175.936C274.002 176.098 273.938 176.253 273.824 176.367C273.71 176.481 273.555 176.545 273.394 176.545V176.53Z" fill="#262424"/>
<path d="M300.061 126.833C308.675 126.833 315.658 119.843 315.658 111.221C315.658 102.598 308.675 95.6085 300.061 95.6085C291.448 95.6085 284.465 102.598 284.465 111.221C284.465 119.843 291.448 126.833 300.061 126.833Z" fill="#B0CDFE"/>
<path d="M304.012 115.173C304.012 115.173 299.857 119.332 294.765 120.322C294.42 120.374 294.069 120.342 293.739 120.228C293.41 120.115 293.114 119.923 292.874 119.67L291.219 118.012C290.421 117.214 290.305 116.041 290.957 115.389L292.871 113.473C293.523 112.821 294.698 112.939 295.492 113.735L296.405 114.649C296.952 114.571 297.485 114.415 297.988 114.186C299.12 113.72 300.148 113.034 301.013 112.168C301.878 111.302 302.563 110.273 303.028 109.14C303.258 108.637 303.413 108.103 303.491 107.556L302.578 106.642C301.781 105.843 301.665 104.67 302.313 104.018L304.228 102.102C304.879 101.45 306.054 101.569 306.848 102.367L308.504 104.024C308.757 104.264 308.949 104.561 309.062 104.89C309.175 105.22 309.208 105.572 309.156 105.916C308.166 111.017 304.012 115.173 304.012 115.173Z" fill="white"/>
<path d="M117.152 170.991V189.363C117.152 191.002 117.803 192.573 118.96 193.732C120.118 194.891 121.688 195.542 123.325 195.542H149.35L154.183 200.393C154.28 200.49 154.403 200.556 154.538 200.583C154.672 200.61 154.811 200.596 154.938 200.544C155.065 200.491 155.173 200.402 155.249 200.288C155.325 200.174 155.365 200.039 155.364 199.902V195.542H160.493C162.13 195.542 163.7 194.891 164.858 193.732C166.015 192.573 166.666 191.002 166.666 189.363V170.991C166.666 169.352 166.015 167.78 164.858 166.621C163.7 165.463 162.13 164.812 160.493 164.812H123.322C121.686 164.812 120.116 165.464 118.959 166.622C117.802 167.781 117.152 169.352 117.152 170.991Z" fill="#FEA151"/>
<path d="M125.599 177.773H158.213C159.284 177.773 160.152 176.904 160.152 175.832C160.152 174.76 159.284 173.892 158.213 173.892H125.599C124.528 173.892 123.66 174.76 123.66 175.832C123.66 176.904 124.528 177.773 125.599 177.773Z" fill="white"/>
<path d="M146.34 186.463H158.213C159.284 186.463 160.152 185.594 160.152 184.522C160.152 183.45 159.284 182.581 158.213 182.581H146.34C145.269 182.581 144.401 183.45 144.401 184.522C144.401 185.594 145.269 186.463 146.34 186.463Z" fill="white"/>
<path d="M91.3633 21.5578V49.4486C91.3633 51.9359 92.3504 54.3213 94.1073 56.08C95.8643 57.8388 98.2473 58.8268 100.732 58.8268H140.216L147.57 66.188C147.717 66.3351 147.904 66.4352 148.108 66.4758C148.311 66.5164 148.523 66.4956 148.715 66.416C148.906 66.3364 149.071 66.2017 149.186 66.0287C149.301 65.8558 149.363 65.6525 149.363 65.4446V58.8268H157.149C158.379 58.8268 159.597 58.5843 160.734 58.113C161.871 57.6417 162.904 56.9509 163.774 56.08C164.644 55.2092 165.334 54.1753 165.804 53.0375C166.275 51.8997 166.518 50.6802 166.518 49.4486V21.5578C166.518 20.3259 166.276 19.1061 165.805 17.9679C165.335 16.8298 164.645 15.7956 163.775 14.9244C162.905 14.0532 161.872 13.3622 160.735 12.8907C159.598 12.4192 158.379 12.1765 157.149 12.1765H100.732C99.5015 12.1765 98.283 12.4192 97.1461 12.8907C96.0092 13.3622 94.9763 14.0532 94.1063 14.9244C93.2363 15.7956 92.5462 16.8298 92.0756 17.9679C91.6049 19.1061 91.3629 20.3259 91.3633 21.5578Z" fill="#B0CDFE"/>
<path d="M158.961 9.90078V37.7916C158.961 40.2789 157.974 42.6643 156.217 44.423C154.46 46.1818 152.077 47.1698 149.592 47.1698H110.087L102.733 54.531C102.586 54.6781 102.399 54.7783 102.195 54.8189C101.992 54.8594 101.781 54.8386 101.589 54.759C101.397 54.6794 101.233 54.5447 101.117 54.3718C101.002 54.1988 100.94 53.9955 100.94 53.7876V47.1698H93.1696C90.6848 47.1698 88.3018 46.1818 86.5448 44.423C84.7878 42.6643 83.8008 40.2789 83.8008 37.7916V9.90078C83.8004 8.66896 84.0424 7.44913 84.5131 6.31096C84.9837 5.1728 85.6737 4.13859 86.5438 3.26742C87.4138 2.39625 88.4467 1.70518 89.5836 1.23369C90.7205 0.762205 91.939 0.519531 93.1696 0.519531H149.592C150.823 0.519531 152.042 0.762205 153.178 1.23369C154.315 1.70518 155.348 2.39625 156.218 3.26742C157.088 4.13859 157.778 5.1728 158.249 6.31096C158.72 7.44913 158.962 8.66896 158.961 9.90078Z" fill="#FEA151"/>
<path d="M146.133 14.3037H96.623C94.9975 14.3037 93.6797 15.6221 93.6797 17.2485C93.6797 18.8748 94.9975 20.1933 96.623 20.1933H146.133C147.759 20.1933 149.077 18.8748 149.077 17.2485C149.077 15.6221 147.759 14.3037 146.133 14.3037Z" fill="white"/>
<path d="M114.648 27.4961H96.623C94.9975 27.4961 93.6797 28.8145 93.6797 30.4409C93.6797 32.0672 94.9975 33.3857 96.623 33.3857H114.648C116.274 33.3857 117.592 32.0672 117.592 30.4409C117.592 28.8145 116.274 27.4961 114.648 27.4961Z" fill="white"/>
<path d="M76.3614 341.867L74.5352 358.22H83.9709L87.3191 341.462L76.3614 341.867Z" fill="white"/>
<path d="M83.9747 358.829H74.5389C74.4525 358.829 74.3668 358.811 74.2878 358.776C74.2087 358.741 74.138 358.69 74.0804 358.625C74.0228 358.56 73.9797 358.484 73.9537 358.402C73.9278 358.319 73.9198 358.232 73.9302 358.146L75.7565 341.794C75.7719 341.647 75.8399 341.511 75.9479 341.411C76.0559 341.31 76.1966 341.253 76.3439 341.248L87.3016 340.843C87.3945 340.839 87.4871 340.856 87.5724 340.893C87.6577 340.93 87.7333 340.986 87.7936 341.057C87.8538 341.128 87.897 341.212 87.9199 341.302C87.9428 341.392 87.9447 341.486 87.9256 341.577L84.5774 358.335C84.5504 358.475 84.4753 358.601 84.3652 358.691C84.2551 358.781 84.117 358.83 83.9747 358.829ZM75.2238 357.61H83.4694L86.565 342.11L76.907 342.461L75.2238 357.61Z" fill="#262424"/>
<path d="M99.6762 168.117C105.125 198.415 104.893 232.053 102.869 260.492C102.309 268.316 101.618 275.726 100.872 282.6C98.0447 308.556 94.5626 331.103 94.5626 331.103H75.8585C73.1678 288.31 58.1466 212.16 58.1466 212.16C47.3929 199.363 43.3203 179.254 43.3203 179.254C47.2651 141.96 95.7801 146.509 99.6762 168.117Z" fill="#B0CDFE"/>
<path d="M85.4284 324.272C85.3469 324.272 85.2662 324.255 85.1911 324.223C85.116 324.192 85.0481 324.145 84.9913 324.087C84.9345 324.028 84.8901 323.959 84.8606 323.883C84.8311 323.807 84.8172 323.725 84.8196 323.644C86.1863 263.53 68.4288 170.753 68.2492 169.824C68.2185 169.662 68.2532 169.495 68.3457 169.359C68.4382 169.223 68.5808 169.129 68.7423 169.099C68.9037 169.068 69.0707 169.103 69.2066 169.195C69.3425 169.288 69.436 169.431 69.4667 169.592C69.6463 170.524 87.4251 263.435 86.0615 323.674C86.0599 323.755 86.0422 323.835 86.0094 323.91C85.9766 323.984 85.9293 324.051 85.8703 324.106C85.8113 324.162 85.7419 324.205 85.666 324.233C85.5901 324.262 85.5093 324.275 85.4284 324.272Z" fill="#262424"/>
<path d="M73.2544 195.475C73.1327 195.478 73.013 195.444 72.9108 195.378C72.8086 195.311 72.7286 195.216 72.6811 195.104C72.6336 194.992 72.6208 194.868 72.6443 194.748C72.6678 194.629 72.7266 194.519 72.813 194.433L75.9451 191.191C76.7146 190.399 77.2948 189.443 77.6422 188.395C77.9896 187.346 78.0952 186.233 77.951 185.137L75.6194 166.99C75.5988 166.829 75.6432 166.665 75.7428 166.537C75.8424 166.408 75.9891 166.324 76.1506 166.303C76.312 166.283 76.475 166.327 76.6037 166.427C76.7325 166.526 76.8163 166.673 76.8369 166.835L79.1685 184.982C79.3371 186.26 79.214 187.56 78.8086 188.784C78.4032 190.008 77.726 191.123 76.8278 192.048L73.6957 195.289C73.6385 195.349 73.5699 195.396 73.4941 195.428C73.4182 195.46 73.3367 195.476 73.2544 195.475Z" fill="#262424"/>
<path d="M102.868 260.492C102.308 268.316 101.617 275.726 100.871 282.6C95.8186 282.207 91.8191 277.42 91.8008 271.534C91.7826 265.391 96.1322 260.401 101.511 260.385C101.965 260.384 102.419 260.42 102.868 260.492Z" fill="#80AFFD"/>
<path d="M74.0877 327.903H96.9801C97.3212 327.903 97.6582 327.978 97.9675 328.122C98.2767 328.266 98.5508 328.476 98.7703 328.737C98.9899 328.998 99.1497 329.305 99.2384 329.634C99.3272 329.964 99.3428 330.309 99.2842 330.645L97.0409 343.787C96.9482 344.331 96.6661 344.825 96.2444 345.182C95.8227 345.538 95.2886 345.733 94.7368 345.733H74.0877C73.4677 345.733 72.8731 345.487 72.4347 345.048C71.9963 344.609 71.75 344.014 71.75 343.393V330.252C71.7488 329.944 71.8084 329.639 71.9253 329.354C72.0423 329.069 72.2143 328.81 72.4315 328.592C72.6487 328.374 72.9068 328.2 73.191 328.082C73.4752 327.964 73.7799 327.903 74.0877 327.903Z" fill="#FEA151"/>
<path d="M114.272 385.437H68.207C68.2375 383.71 68.3044 382.013 68.4049 380.361C68.9013 371.656 70.2263 363.017 72.3618 354.564H87.8212C93.1875 365.328 103.549 370.688 109.25 372.927C110.461 373.406 111.515 374.213 112.295 375.257C113.075 376.302 113.55 377.542 113.666 378.841L113.803 380.364L114.272 385.437Z" fill="#B0CDFE"/>
<path d="M114.272 385.437H68.207C68.2375 383.71 68.3044 382.013 68.4049 380.361H113.809L114.272 385.437Z" fill="white"/>
<path d="M114.271 386.052H68.2066C68.1254 386.052 68.0449 386.036 67.9701 386.005C67.8952 385.973 67.8274 385.927 67.7707 385.869C67.7139 385.81 67.6694 385.741 67.6397 385.666C67.6101 385.59 67.5958 385.509 67.5978 385.428C67.6283 383.719 67.6952 382 67.7957 380.324C67.8043 380.169 67.8722 380.022 67.9854 379.915C68.0987 379.808 68.2486 379.748 68.4045 379.749H113.809C113.962 379.748 114.109 379.805 114.222 379.908C114.335 380.012 114.405 380.154 114.417 380.306L114.88 385.382C114.889 385.467 114.879 385.553 114.853 385.634C114.826 385.715 114.782 385.79 114.725 385.853C114.667 385.916 114.597 385.967 114.519 386.001C114.441 386.035 114.357 386.053 114.271 386.052ZM68.8336 384.834H113.599L113.249 380.986H68.9919C68.9128 382.244 68.8641 383.533 68.8336 384.822V384.834Z" fill="#262424"/>
<path d="M40.8888 341.867L39.0625 358.22H48.4983L51.8464 341.462L40.8888 341.867Z" fill="white"/>
<path d="M48.4982 358.829H39.0624C38.9759 358.829 38.8903 358.811 38.8112 358.776C38.7322 358.741 38.6615 358.69 38.6039 358.625C38.5463 358.56 38.5031 358.484 38.4772 358.402C38.4513 358.319 38.4432 358.232 38.4536 358.146L40.2799 341.794C40.2953 341.647 40.3633 341.511 40.4714 341.411C40.5794 341.31 40.7201 341.253 40.8674 341.248L51.825 340.843C51.9179 340.839 52.0105 340.856 52.0958 340.893C52.1811 340.93 52.2568 340.986 52.317 341.057C52.3772 341.128 52.4205 341.212 52.4433 341.302C52.4662 341.392 52.4682 341.486 52.449 341.577L49.1008 358.335C49.0738 358.475 48.9987 358.601 48.8886 358.691C48.7785 358.781 48.6404 358.83 48.4982 358.829ZM39.7472 357.61H47.9898L51.0854 342.11L41.4335 342.467L39.7472 357.61Z" fill="#262424"/>
<path d="M99.1241 177.237C97.8427 208.01 90.2971 240.773 82.1185 268.084C79.8691 275.598 77.5771 282.709 75.3551 289.224C66.9451 313.927 59.5548 330.493 59.5548 330.493L40.3789 331.102C47.0753 288.751 49.002 211.157 49.002 211.157C41.292 196.331 41.6969 175.814 41.6969 175.814C53.6712 140.269 100.037 155.299 99.1241 177.237Z" fill="#B0CDFE"/>
<path d="M82.1197 268.085C79.8704 275.598 77.5784 282.71 75.3564 289.224C70.5107 287.737 67.6526 282.183 68.9157 276.445C70.2367 270.446 75.5664 266.525 80.82 267.686C81.2634 267.783 81.698 267.917 82.1197 268.085Z" fill="#80AFFD"/>
<path d="M73.7552 294.489C73.657 294.49 73.56 294.467 73.4725 294.422C73.385 294.377 73.3096 294.312 73.2528 294.232C73.1959 294.152 73.1594 294.059 73.1462 293.961C73.1329 293.864 73.1435 293.765 73.1769 293.672C73.7065 292.159 74.2412 290.61 74.781 289.026C77.1795 281.981 79.4502 274.876 81.5382 267.908C91.7136 233.884 97.4268 203.367 98.5196 177.212C98.5994 175.147 98.2555 173.088 97.509 171.161C97.4509 171.009 97.4556 170.84 97.5221 170.691C97.5886 170.542 97.7114 170.426 97.8636 170.368C98.0158 170.309 98.1848 170.314 98.3335 170.381C98.4822 170.447 98.5984 170.57 98.6565 170.723C99.4593 172.805 99.827 175.031 99.7371 177.261C98.6443 203.519 92.9129 234.137 82.6918 268.258C80.6007 275.242 78.324 282.359 75.9224 289.419C75.3826 291.005 74.8479 292.557 74.3183 294.074C74.2783 294.193 74.2028 294.296 74.1021 294.37C74.0013 294.445 73.8802 294.486 73.7552 294.489Z" fill="#262424"/>
<path d="M51.3391 326.532C51.2446 326.535 51.1506 326.516 51.0648 326.477C50.9789 326.437 50.9034 326.378 50.8443 326.304C50.7853 326.23 50.7442 326.143 50.7244 326.051C50.7046 325.958 50.7067 325.862 50.7303 325.771C65.1701 267.405 68.0496 172.971 68.08 172.039C68.0824 171.959 68.1005 171.88 68.1333 171.807C68.1661 171.734 68.213 171.668 68.2712 171.613C68.3294 171.558 68.3979 171.516 68.4727 171.487C68.5474 171.459 68.6271 171.445 68.707 171.448C68.787 171.45 68.8657 171.468 68.9386 171.501C69.0115 171.534 69.0773 171.581 69.1321 171.639C69.187 171.697 69.2298 171.766 69.2582 171.841C69.2865 171.916 69.2999 171.995 69.2975 172.075C69.2701 173.023 66.3876 267.576 51.9296 326.072C51.8964 326.204 51.8203 326.321 51.7133 326.404C51.6063 326.487 51.4747 326.532 51.3391 326.532Z" fill="#262424"/>
<path d="M67.5139 198.184C67.3744 198.196 67.235 198.16 67.1191 198.081C67.0032 198.003 66.9178 197.887 66.8775 197.753C66.8371 197.618 66.8441 197.474 66.8974 197.345C66.9506 197.215 67.0469 197.108 67.1699 197.041L70.932 194.561C71.8576 193.955 72.6335 193.146 73.2014 192.196C73.7692 191.246 74.1142 190.18 74.2102 189.077L75.8873 170.857C75.9023 170.695 75.9807 170.546 76.1055 170.442C76.2302 170.338 76.391 170.289 76.5524 170.304C76.7139 170.318 76.8628 170.397 76.9664 170.522C77.07 170.647 77.1198 170.808 77.1049 170.969L75.4277 189.189C75.3159 190.476 74.9137 191.72 74.2514 192.829C73.5892 193.937 72.6842 194.881 71.6047 195.588L67.8426 198.068C67.7466 198.138 67.6324 198.178 67.5139 198.184Z" fill="#262424"/>
<path d="M38.6072 327.903H61.4996C61.8407 327.903 62.1777 327.978 62.487 328.122C62.7962 328.266 63.0703 328.476 63.2898 328.737C63.5094 328.998 63.6692 329.305 63.7579 329.634C63.8467 329.964 63.8623 330.309 63.8037 330.645L61.5604 343.787C61.4663 344.331 61.1827 344.825 60.7598 345.18C60.337 345.535 59.8022 345.729 59.2502 345.727H38.6072C37.9872 345.727 37.3926 345.481 36.9542 345.042C36.5158 344.603 36.2695 344.008 36.2695 343.387V330.246C36.2691 329.939 36.3293 329.634 36.4466 329.35C36.5639 329.066 36.736 328.807 36.9531 328.59C37.1702 328.372 37.4281 328.2 37.7119 328.082C37.9957 327.964 38.2999 327.903 38.6072 327.903Z" fill="#FEA151"/>
<path d="M78.7992 385.437H32.7344C32.7648 383.71 32.8318 382.013 32.9322 380.361C33.4287 371.656 34.7537 363.017 36.8892 354.564H52.3486C57.7148 365.328 68.0759 370.688 73.7769 372.927C74.9882 373.406 76.0427 374.213 76.8226 375.257C77.6024 376.302 78.0771 377.542 78.1935 378.841L78.3304 380.364L78.7992 385.437Z" fill="#B0CDFE"/>
<path d="M78.7992 385.437H32.7344C32.7648 383.71 32.8318 382.013 32.9322 380.361H78.3365L78.7992 385.437Z" fill="white"/>
<path d="M78.7948 386.052H32.73C32.6488 386.052 32.5684 386.036 32.4935 386.005C32.4186 385.973 32.3508 385.927 32.2941 385.869C32.2374 385.81 32.1929 385.741 32.1632 385.666C32.1335 385.59 32.1193 385.509 32.1213 385.428C32.1517 383.719 32.2187 382 32.3191 380.324C32.3277 380.169 32.3956 380.022 32.5089 379.915C32.6221 379.808 32.7721 379.748 32.9279 379.749H78.3322C78.485 379.748 78.6325 379.805 78.7453 379.908C78.8581 380.012 78.9279 380.154 78.9409 380.306L79.4036 385.382C79.4121 385.467 79.4027 385.553 79.376 385.634C79.3492 385.715 79.3057 385.79 79.2483 385.853C79.1909 385.916 79.1209 385.967 79.0428 386.001C78.9646 386.035 78.8802 386.053 78.7948 386.052ZM33.3571 384.834H78.1221L77.7721 380.986H33.5062C33.4362 382.244 33.3784 383.533 33.3571 384.822V384.834Z" fill="#262424"/>
<path d="M105.113 102.994L108.461 105.736L121.145 88.9787C121.145 88.9787 118.302 81.7698 118.302 80.8558C118.302 79.9417 122.463 71.7152 123.781 70.597C125.099 69.4788 126.012 70.4965 126.012 71.6116C126.012 72.7268 124.49 78.5523 124.49 78.5523C124.49 78.5523 135.956 68.1596 138.187 67.145C140.418 66.1304 141.13 67.5502 139.913 69.0736C138.695 70.597 134.434 74.4574 134.434 74.4574C134.434 74.4574 142.552 70.0913 143.769 70.1918C144.987 70.2923 149.553 74.4574 147.93 77.9095C146.308 81.3615 129.159 91.6203 129.159 91.6203C129.159 91.6203 122.463 124.551 118.71 127.991C114.957 131.43 94.0977 118.097 94.0977 118.097L105.113 102.994Z" fill="white"/>
<path d="M116.809 129.164C114.316 129.164 110.319 127.744 104.715 124.898C99.1119 122.052 93.8187 118.664 93.7578 118.631C93.6866 118.586 93.6255 118.527 93.5782 118.457C93.5309 118.388 93.4985 118.309 93.483 118.226C93.4676 118.144 93.4694 118.059 93.4884 117.977C93.5074 117.895 93.5432 117.818 93.5935 117.75L104.606 102.632C104.655 102.563 104.717 102.506 104.789 102.463C104.861 102.42 104.941 102.392 105.024 102.382C105.107 102.371 105.192 102.378 105.272 102.401C105.353 102.425 105.427 102.465 105.492 102.519L108.347 104.856L120.434 88.8781C119.645 86.8672 117.676 81.7515 117.676 80.8497C117.676 79.6858 121.937 71.3283 123.371 70.1217C124.354 69.2899 125.136 69.4605 125.517 69.6373C125.865 69.8302 126.152 70.1169 126.346 70.4647C126.539 70.8126 126.632 71.2078 126.613 71.6055C126.613 72.3642 126.022 74.9022 125.569 76.7364C128.78 73.8663 136.106 67.4009 137.92 66.5752C139.734 65.7495 140.544 66.4198 140.8 66.7519C141.326 67.4313 141.165 68.4642 140.377 69.4484C139.652 70.2914 138.884 71.0959 138.076 71.8584C140.453 70.6762 143.031 69.5093 143.804 69.5702C144.781 69.6525 146.808 71.2947 147.962 73.2874C148.972 75.0363 149.146 76.7212 148.47 78.1623C146.887 81.5657 132.304 90.4442 129.705 92.0072C128.792 96.4495 122.829 125.047 119.122 128.444C118.607 128.923 117.831 129.164 116.809 129.164ZM94.9784 117.933C102.95 122.963 115.871 129.761 118.294 127.54C121.252 124.828 126.707 100.602 128.558 91.4984C128.574 91.4145 128.608 91.3351 128.658 91.2653C128.707 91.1955 128.77 91.1368 128.844 91.0932C133.568 88.2657 146.108 80.3408 147.374 77.6474C147.998 76.319 147.478 74.9053 146.933 73.9425C145.904 72.1387 144.151 70.8438 143.719 70.8012C142.976 70.8012 138.569 72.9339 134.73 74.9967C134.665 75.0429 134.591 75.0758 134.513 75.0934C134.435 75.1111 134.354 75.1132 134.275 75.0996C134.197 75.086 134.121 75.057 134.054 75.0143C133.986 74.9715 133.927 74.9158 133.881 74.8504C133.788 74.7183 133.751 74.5545 133.778 74.3951C133.806 74.2357 133.895 74.0937 134.027 74.0003C134.07 73.9607 138.267 70.1583 139.439 68.6897C139.899 68.1169 139.957 67.6477 139.85 67.5136C139.743 67.3795 139.281 67.3217 138.447 67.7025C136.688 68.5038 128.077 76.1331 124.908 79.0063C124.811 79.0983 124.687 79.1559 124.554 79.1702C124.421 79.1845 124.288 79.1548 124.173 79.0855C124.059 79.0162 123.971 78.9113 123.922 78.7869C123.873 78.6625 123.867 78.5255 123.904 78.3969C124.485 76.1758 125.404 72.3703 125.404 71.6116C125.419 71.4481 125.39 71.2837 125.323 71.1343C125.255 70.9848 125.15 70.8554 125.018 70.7585C124.823 70.6671 124.518 70.7798 124.181 71.0632C122.963 72.0839 119.027 79.9143 118.918 80.874C118.945 81.4164 120.361 85.3133 121.718 88.7532C121.76 88.8529 121.774 88.9619 121.759 89.069C121.745 89.1761 121.702 89.2774 121.636 89.3626L108.952 106.12C108.903 106.186 108.841 106.242 108.769 106.283C108.698 106.324 108.618 106.351 108.536 106.36C108.454 106.37 108.371 106.363 108.292 106.339C108.213 106.316 108.139 106.277 108.076 106.224L105.215 103.881L94.9784 117.933Z" fill="#262424"/>
<path d="M80.0542 79.5331C86.9728 81.5014 107.652 102.436 107.652 102.436L95.6293 123.917C95.6293 123.917 72.3443 109.444 65.9523 99.8465C59.5603 90.2489 62.1993 74.4571 80.0542 79.5331Z" fill="#FEA151"/>
<path d="M90.4923 121.193C90.3847 121.195 90.2787 121.168 90.1849 121.115C90.0912 121.062 90.0131 120.985 89.9587 120.892C89.9043 120.8 89.8754 120.694 89.875 120.586C89.8746 120.478 89.9028 120.373 89.9566 120.279L101.176 100.17C101.216 100.1 101.269 100.038 101.333 99.9881C101.397 99.9383 101.47 99.9017 101.548 99.8802C101.626 99.8587 101.708 99.8528 101.788 99.8628C101.868 99.8728 101.946 99.8985 102.016 99.9385C102.086 99.9786 102.148 100.032 102.198 100.096C102.248 100.16 102.284 100.233 102.306 100.311C102.327 100.389 102.333 100.471 102.323 100.551C102.313 100.631 102.287 100.709 102.247 100.779L91.0311 120.87C90.9791 120.968 90.9014 121.05 90.8065 121.107C90.7116 121.164 90.603 121.194 90.4923 121.193Z" fill="#262424"/>
<path d="M60.8737 75.7768C51.6723 76.5537 44.7416 81.4653 44.7416 81.4653L43.728 108.378L50.887 135.398C50.887 135.398 41.6978 166.268 38.4531 180.284H102.778C102.778 180.284 98.9211 150.019 91.82 127.674C91.82 127.674 96.2852 111.221 95.6764 104.923C95.0677 98.6251 80.0526 79.5335 80.0526 79.5335C80.0526 79.5335 69.2959 75.0669 60.8737 75.7768Z" fill="#FEA151"/>
<path d="M69.5934 74.8001C77.2298 76.034 81.5878 81.4175 82.0676 85.497C82.5474 89.5765 79.5727 93.0254 76.746 93.5587C76.746 93.5587 73.9194 85.5904 71.7564 85.3841C69.5934 85.1778 68.0141 93.9246 68.0141 93.9246C68.0141 93.9246 57.7828 92.9203 55.0401 84.1502C53.145 78.0971 60.6935 73.3442 69.5934 74.8001Z" fill="white"/>
<path d="M68.0057 95.0649H67.9239C67.8134 95.0649 56.8801 93.8565 53.9433 84.3791C53.5626 83.1965 53.5063 81.9358 53.78 80.7248C54.0537 79.5138 54.6477 78.3956 55.5017 77.4835C58.4017 74.2251 63.9972 72.7307 69.7563 73.6733C77.7242 74.9783 82.6326 80.7098 83.2011 85.4505C83.7615 90.0986 80.432 94.0499 77.0943 94.6863C76.8992 94.725 76.6965 94.6924 76.5241 94.5945C76.3516 94.4966 76.2214 94.3402 76.1576 94.1546C74.7056 90.0221 72.6482 86.3205 71.7483 86.2319C70.9712 86.3568 69.5395 90.3282 68.8156 94.4003C68.7818 94.5873 68.682 94.7566 68.5338 94.8782C68.3856 94.9998 68.1986 95.0659 68.0057 95.0649ZM66.3287 75.0145C62.3284 75.0145 58.7534 76.2913 56.741 78.5509C56.0698 79.2532 55.602 80.1198 55.3862 81.0605C55.1704 82.0012 55.2145 82.9816 55.5139 83.8998C57.6982 90.9646 64.9666 92.8818 67.3308 93.3249C68.0466 89.6435 69.4986 84.367 71.9078 84.6047C74.1984 84.8302 76.493 90.3121 77.4461 92.8858C79.618 92.0521 81.9863 89.2165 81.5364 85.6358C81.0374 81.4872 76.628 76.4484 69.4577 75.2723C68.4222 75.1026 67.3743 75.0164 66.3246 75.0145H66.3287Z" fill="#262424"/>
<path d="M75.2763 79.5618C75.2763 79.5618 75.0122 82.3388 71.7427 83.6596C70.0573 83.6519 68.3907 83.2851 66.8423 82.5811C65.2939 81.877 63.8954 80.8502 62.7305 79.5618L63.6429 61.9895L66.7523 62.6795L74.3199 64.3728L75.1203 77.0091L75.2763 79.5618Z" fill="white"/>
<path d="M71.6738 83.6596C69.827 83.6291 68.0051 83.2555 66.3138 82.5604C64.6225 81.8652 63.0955 80.8624 61.8215 79.6102C61.7433 79.5324 61.6828 79.4403 61.6439 79.3398C61.605 79.2393 61.5884 79.1323 61.5952 79.0256L62.5465 62.7379C62.5522 62.6236 62.5845 62.5119 62.6411 62.4105C62.6977 62.3092 62.7773 62.2206 62.8743 62.1511C62.9713 62.0816 63.0834 62.0327 63.2027 62.008C63.322 61.9833 63.4456 61.9833 63.5648 62.008L74.7414 64.2054C74.9225 64.2397 75.0865 64.3291 75.2077 64.4596C75.329 64.5902 75.4008 64.7546 75.4119 64.9274L76.4176 79.0177C76.4217 79.0621 76.4217 79.1068 76.4176 79.1512C76.4176 79.2767 76.0447 82.2274 72.1767 83.6086C72.0935 83.6384 72.0058 83.6556 71.9169 83.6596H71.678H71.6738ZM63.2925 78.7666C65.5356 80.8272 68.5322 82.0112 71.6738 82.0783C74.1882 81.1248 74.6324 79.3827 74.6953 79.0374L73.7356 65.6297L64.1474 63.7463L63.2925 78.7666Z" fill="#262424"/>
<path d="M75.2726 76.8163C65.8064 75.9136 65.0078 64.2269 65.0078 64.2269C65.4903 63.83 65.9987 63.4636 66.5298 63.1299L74.4364 64.7491L75.2726 76.8163Z" fill="#262424"/>
<path d="M98.7225 176.225H45.1517C44.9903 176.225 44.8354 176.161 44.7213 176.047C44.6071 175.933 44.543 175.778 44.543 175.616C44.543 175.454 44.6071 175.299 44.7213 175.185C44.8354 175.071 44.9903 175.007 45.1517 175.007H98.7225C98.8839 175.007 99.0388 175.071 99.153 175.185C99.2671 175.299 99.3312 175.454 99.3312 175.616C99.3312 175.778 99.2671 175.933 99.153 176.047C99.0388 176.161 98.8839 176.225 98.7225 176.225Z" fill="#262424"/>
<path d="M94.0964 118.713C94.0041 118.715 93.9126 118.696 93.8287 118.658C93.7448 118.619 93.6707 118.562 93.6121 118.491C93.5535 118.42 93.5118 118.336 93.4902 118.246C93.4687 118.156 93.4678 118.063 93.4876 117.973C94.7508 111.909 95.2926 107.418 95.0582 104.984C94.7539 101.766 90.0573 93.8843 82.1891 83.3513C82.1407 83.2867 82.1055 83.2132 82.0855 83.135C82.0656 83.0567 82.0612 82.9753 82.0726 82.8954C82.0841 82.8155 82.1111 82.7386 82.1523 82.6691C82.1934 82.5997 82.2478 82.539 82.3123 82.4906C82.3769 82.4422 82.4503 82.407 82.5285 82.387C82.6066 82.367 82.688 82.3626 82.7678 82.374C82.8477 82.3855 82.9245 82.4126 82.9939 82.4537C83.0632 82.4949 83.1238 82.5494 83.1722 82.614C87.8718 88.9027 95.8253 100.155 96.2819 104.856C96.5315 107.449 95.9957 111.943 94.6899 118.213C94.6645 118.353 94.5913 118.479 94.4829 118.57C94.3746 118.661 94.2379 118.712 94.0964 118.713Z" fill="#262424"/>
<path d="M27.3925 124.691C27.3925 124.691 23.9439 139.319 24.857 143.112C25.7702 146.906 46.3493 160.556 63.2423 167.243C63.2423 167.243 66.0152 170.86 69.1229 171.53C72.2307 172.201 75.9258 170.942 75.9258 170.942C75.9258 170.942 81.4686 173.968 83.1488 173.547C84.8289 173.127 88.0188 167.758 88.104 165.979C88.1893 164.2 83.651 162.195 83.651 162.195C83.651 162.195 89.1298 162.856 90.0429 161.768C90.9561 160.681 84.9963 157.655 82.6039 157.067C80.2115 156.479 70.2187 160.093 70.2187 160.093L44.8456 135.373L47.7068 127.637C47.7068 127.637 50.6471 118.558 40.566 116.708C30.485 114.859 27.3925 124.691 27.3925 124.691Z" fill="white"/>
<path d="M82.8183 174.19C80.8794 174.19 77.1051 172.255 75.8754 171.597C74.9623 171.877 71.7937 172.724 69.0056 172.121C66.0318 171.478 63.4385 168.437 62.8754 167.743C45.7449 160.93 25.2754 147.356 24.2709 143.246C23.3243 139.364 26.6481 125.148 26.7882 124.544V124.499C26.8216 124.395 30.182 114.167 40.6709 116.092C43.9491 116.702 46.2715 118.1 47.5651 120.276C49.5892 123.67 48.3382 127.649 48.2834 127.817L45.544 135.202L70.357 159.376C72.369 158.66 80.4229 155.89 82.7361 156.46C84.7603 156.96 90.1356 159.464 90.6804 161.146C90.7418 161.316 90.7572 161.499 90.7252 161.677C90.6931 161.854 90.6146 162.02 90.4978 162.158C89.889 162.886 88.0628 163.038 86.4039 163.002C87.6214 163.812 88.7598 164.885 88.7081 165.997C88.6137 167.986 85.3142 173.614 83.2871 174.132C83.1336 174.169 82.9763 174.188 82.8183 174.19ZM75.9393 170.32C76.0457 170.319 76.1506 170.345 76.2437 170.396C78.4596 171.615 82.0269 173.196 83.0253 172.947C84.3493 172.614 87.4418 167.514 87.5179 165.939C87.5605 165.061 85.1712 163.52 83.4301 162.746C83.2879 162.692 83.1709 162.587 83.102 162.452C83.0331 162.316 83.0173 162.16 83.0577 162.013C83.0981 161.867 83.1918 161.74 83.3204 161.66C83.4491 161.579 83.6033 161.549 83.7528 161.576C86.3369 161.88 88.9272 161.816 89.5116 161.433C89.0307 160.518 84.7663 158.215 82.4805 157.651C80.8703 157.255 74.247 159.288 70.4483 160.659C70.3402 160.698 70.223 160.707 70.1104 160.682C69.9978 160.658 69.8944 160.602 69.8122 160.522L44.4269 135.799C44.3412 135.717 44.2816 135.61 44.2557 135.494C44.2297 135.377 44.2385 135.256 44.2808 135.144L47.142 127.408C47.142 127.408 48.2652 123.801 46.5332 120.891C45.4253 119.039 43.389 117.844 40.4761 117.296C31.1712 115.59 28.1883 124.237 27.9965 124.843C27.8413 125.504 24.6179 139.416 25.4824 142.947C26.3011 146.299 46.1619 159.79 63.4994 166.652C63.6031 166.693 63.6936 166.761 63.7611 166.85C63.7885 166.883 66.4366 170.296 69.2826 170.911C72.1894 171.542 75.7232 170.354 75.7598 170.342C75.8182 170.326 75.8787 170.318 75.9393 170.32Z" fill="#262424"/>
<path d="M44.7401 81.4652C39.9979 84.3841 24.3984 124.983 24.3984 124.983L48.7488 131.763C48.7488 131.763 56.3979 105.188 57.1618 100.456C60.0108 82.7845 44.7401 81.4652 44.7401 81.4652Z" fill="#FEA151"/>
<path d="M51.1196 124.051C51.0246 124.052 50.9307 124.03 50.8454 123.989C50.7601 123.947 50.6858 123.885 50.6284 123.81C50.571 123.734 50.5321 123.646 50.5149 123.552C50.4977 123.458 50.5025 123.362 50.5291 123.271L51.7467 118.966C54.5804 108.795 56.2485 102.36 56.5711 100.362C58.5191 88.2839 51.7619 84.134 47.5614 82.7355C47.4849 82.7101 47.4141 82.6699 47.3531 82.6171C47.2921 82.5643 47.2421 82.5 47.2059 82.4278C47.1697 82.3557 47.1481 82.2771 47.1422 82.1966C47.1364 82.1161 47.1465 82.0352 47.1718 81.9586C47.1972 81.882 47.2374 81.8111 47.2902 81.75C47.3429 81.689 47.4072 81.6389 47.4792 81.6027C47.5513 81.5665 47.6298 81.5448 47.7102 81.539C47.7907 81.5331 47.8715 81.5432 47.948 81.5686C52.5137 83.092 59.8736 87.58 57.7825 100.554C57.4477 102.628 55.8162 108.932 52.9277 119.295L51.7101 123.603C51.6747 123.732 51.5976 123.846 51.4908 123.927C51.384 124.008 51.2536 124.052 51.1196 124.051Z" fill="#262424"/>
<path d="M46.8538 126.818C46.7961 126.818 46.7387 126.809 46.6833 126.793L27.5652 121.26C27.4877 121.238 27.4153 121.2 27.3523 121.15C27.2892 121.099 27.2366 121.037 27.1976 120.966C27.1586 120.896 27.1339 120.818 27.1249 120.738C27.1159 120.657 27.1228 120.576 27.1452 120.498C27.1676 120.421 27.205 120.348 27.2554 120.285C27.3057 120.222 27.368 120.169 27.4387 120.13C27.5093 120.091 27.587 120.067 27.6672 120.058C27.7474 120.049 27.8286 120.056 27.9061 120.078L47.0242 125.611C47.1819 125.636 47.3233 125.722 47.4182 125.851C47.513 125.979 47.5537 126.14 47.5313 126.298C47.509 126.456 47.4254 126.599 47.2987 126.697C47.172 126.794 47.0122 126.837 46.8538 126.818Z" fill="#262424"/>
<path d="M50.6868 23.4229C56.3569 25.3805 52.3315 37.1257 50.5346 40.877C48.7378 44.6283 51.9861 54.9279 45.0741 58.7733C38.1622 62.6188 52.0971 76.0103 34.9385 91.3267C21.715 103.137 -2.47886 95.942 0.206144 83.734C2.89115 71.526 21.8918 64.99 24.1903 53.7894C25.6541 46.6636 22.1344 36.6425 33.6474 32.367C42.2576 29.1768 46.209 21.879 50.6868 23.4229Z" fill="#262424"/>
<path d="M80.9805 53.076C80.9805 53.076 84.0025 48.1022 87.255 49.795C90.5075 51.4877 89.4121 63.471 81.4111 61.8367L80.9805 53.076Z" fill="white"/>
<path d="M82.689 63.1301C82.1154 63.1278 81.5432 63.0696 80.9795 62.9563C80.7975 62.9221 80.6318 62.823 80.5095 62.6753C80.3872 62.5277 80.3156 62.3401 80.3064 62.1434L79.8413 53.0154C79.8306 52.8244 79.8793 52.6349 79.98 52.4764C80.131 52.2417 83.6885 46.704 87.7887 48.76C90.1672 49.951 90.5915 54.1716 89.6164 57.3969C88.5149 61.0872 85.9813 63.1301 82.689 63.1301ZM81.9138 61.335C86.0792 61.8087 87.5887 58.4183 88.0538 56.8796C88.9432 53.9282 88.266 50.9551 87.091 50.3596C84.6432 49.1251 82.1341 52.3373 81.5018 53.2414L81.9138 61.335Z" fill="#262424"/>
<path d="M56.0067 31.1339L54.1846 30.2346C53.8986 30.0925 53.5811 30.0326 53.2652 30.0611C52.9493 30.0896 52.6465 30.2055 52.3884 30.3967C51.6398 30.9251 51.0167 31.6233 50.5663 32.4384C50.1615 33.3454 50.0747 34.3706 50.3209 35.337C50.3715 35.5752 50.4677 35.8004 50.6037 35.9993C50.7398 36.1982 50.913 36.3667 51.1129 36.4948L53.0727 37.7608C53.2959 37.9043 53.547 37.9949 53.808 38.0259C54.0689 38.0569 54.3332 38.0277 54.582 37.9403C54.8307 37.8529 55.0578 37.7094 55.2469 37.5203C55.436 37.3311 55.5824 37.1009 55.6758 36.8461L56.9066 33.4728C57.0692 33.037 57.0667 32.5536 56.8998 32.1197C56.7328 31.6857 56.4137 31.3335 56.0067 31.1339Z" fill="white"/>
<path d="M54.0346 39.179C53.5193 39.1826 53.0134 39.0384 52.5741 38.7628L50.4302 37.3974C50.123 37.202 49.8569 36.9461 49.6474 36.6445C49.4379 36.3429 49.2891 36.0017 49.2097 35.6407C48.8946 34.4022 49.0185 33.0896 49.5596 31.9358C50.1122 30.9402 50.8787 30.0862 51.8012 29.4382C52.2025 29.1461 52.6727 28.969 53.1633 28.9251C53.6539 28.8812 54.1471 28.9721 54.5919 29.1884L56.5853 30.1583C57.2108 30.4657 57.7015 31.0011 57.9612 31.6596C58.2208 32.318 58.2307 33.052 57.9888 33.7175L56.63 37.3474C56.4307 37.8865 56.0755 38.3506 55.6118 38.6779C55.1481 39.0051 54.5979 39.1799 54.0346 39.179ZM53.3837 30.5871C53.1517 30.587 52.9255 30.6612 52.7368 30.7994C52.0226 31.2945 51.4262 31.9475 50.9916 32.7101C50.6395 33.5118 50.5704 34.4138 50.7963 35.2619C50.8296 35.4074 50.8911 35.5446 50.977 35.6654C51.0629 35.7862 51.1716 35.8882 51.2967 35.9654L53.4406 37.3308C53.582 37.4212 53.7413 37.4785 53.9069 37.4983C54.0725 37.5182 54.2404 37.5002 54.3984 37.4456C54.5564 37.3911 54.7006 37.3013 54.8206 37.1828C54.9406 37.0644 55.0334 36.9201 55.0923 36.7605L56.4388 33.1222C56.5368 32.8515 56.5328 32.5532 56.4275 32.2853C56.3222 32.0175 56.1232 31.7994 55.8693 31.6736L53.8759 30.7036C53.7237 30.628 53.5569 30.5882 53.3877 30.5871H53.3837Z" fill="#262424"/>
<path d="M83.1074 54.5804C82.6891 61.8367 79.4012 70.2049 70.4243 69.9678C63.8234 69.8042 56.5239 62.037 55.9717 52.2257C55.4195 42.4144 57.1597 34.0421 69.2237 34.6471C70.5122 34.7288 71.7936 34.894 73.0596 35.1417C80.0538 36.6543 82.7268 37.2634 83.2455 50.7131C83.2873 51.8945 83.1911 53.2109 83.1074 54.5804Z" fill="white"/>
<path d="M70.7509 71.1132H70.357C64.0121 70.9399 56.5446 63.3972 55.9735 52.8552C55.6978 47.7635 55.8436 41.4383 59.4434 37.7335C61.649 35.4638 64.9573 34.4237 69.2897 34.6455C70.5464 34.728 71.7964 34.8963 73.0313 35.1494C80.2388 36.7619 82.7555 38.0197 83.2438 51.2749C83.2832 52.3351 83.2163 53.4639 83.1493 54.6572L83.1178 55.1732C82.7161 62.9215 79.2384 71.1132 70.7509 71.1132ZM68.1514 36.2378C64.7958 36.2378 62.3146 37.1046 60.5974 38.8744C58.1673 41.3778 57.2102 45.7882 57.5844 52.7584C58.0925 62.1394 64.7801 69.3273 70.424 69.4805C80.0221 69.7385 81.3652 58.5192 81.5503 55.0724L81.5818 54.5524C81.6487 53.3994 81.7118 52.3109 81.6763 51.3273C81.2116 38.6567 79.069 38.1729 72.7083 36.7337C71.5604 36.4988 70.3987 36.3413 69.2306 36.262C68.8578 36.2459 68.4967 36.2378 68.1475 36.2378H68.1514Z" fill="#262424"/>
<path d="M59.1517 51.8159C60.3316 51.3621 61.3667 50.5976 62.1475 49.6033C62.9283 48.609 63.4256 47.4219 63.5868 46.1679C63.7145 45.3186 63.7929 44.1767 64.0402 43.1419C69.0275 48.3653 78.4417 51.5356 82.5429 52.7229C83.1848 52.9212 83.8729 52.912 84.5093 52.6966C85.1457 52.4812 85.6979 52.0706 86.0876 51.5232C90.8771 44.4529 85.1684 30.9101 75.9933 31.1657C65.5776 23.9511 53.4101 29.195 51.6748 37.9969C49.754 47.7551 56.217 53.0527 59.1517 51.8159Z" fill="#262424"/>
<path d="M58.807 53.1638C58.807 53.1638 54.0704 48.1399 49.0815 49.7685C44.0926 51.397 46.994 63.3622 59.3076 61.8592L58.807 53.1638Z" fill="white"/>
<path d="M57.6538 63.1301C51.3784 63.1301 47.7269 59.116 46.9229 55.0103C46.3346 51.9985 47.3896 49.4575 49.5507 48.6904C54.7632 46.8381 59.5325 52.2208 59.7482 52.4518C59.8206 52.5348 59.8776 52.6328 59.9158 52.7403C59.9541 52.8477 59.973 52.9625 59.9713 53.0781C59.9697 53.1936 59.9476 53.3077 59.9063 53.4137C59.865 53.5198 59.8053 53.6157 59.7306 53.6962C59.6559 53.7766 59.5677 53.8399 59.471 53.8824C59.3743 53.9249 59.271 53.9459 59.1671 53.9441C59.0631 53.9423 58.9604 53.9177 58.865 53.8718C58.7696 53.8259 58.6832 53.7596 58.6108 53.6766C58.5559 53.6155 54.2965 48.8473 50.0488 50.3685C48.4996 50.9176 48.1466 52.9095 48.48 54.6398C49.2213 58.4273 53.0061 62.1102 59.5639 61.2473C59.7719 61.2195 59.9814 61.2848 60.1462 61.4286C60.3109 61.5725 60.4175 61.7832 60.4425 62.0144C60.4674 62.2456 60.4087 62.4783 60.2793 62.6614C60.1498 62.8445 59.9602 62.9629 59.7522 62.9907C59.0558 63.0832 58.3551 63.1298 57.6538 63.1301Z" fill="#262424"/>
<path d="M260.351 352.355C260.189 352.355 260.035 352.29 259.92 352.176C259.806 352.062 259.742 351.907 259.742 351.745V347.611C259.742 347.449 259.806 347.294 259.92 347.18C260.035 347.065 260.189 347.001 260.351 347.001C260.512 347.001 260.667 347.065 260.781 347.18C260.896 347.294 260.96 347.449 260.96 347.611V351.745C260.96 351.907 260.896 352.062 260.781 352.176C260.667 352.29 260.512 352.355 260.351 352.355Z" fill="#262424"/>
<path d="M266.583 354.457H262.453C262.291 354.457 262.136 354.393 262.022 354.279C261.908 354.164 261.844 354.01 261.844 353.848C261.844 353.686 261.908 353.531 262.022 353.417C262.136 353.303 262.291 353.239 262.453 353.239H266.583C266.744 353.239 266.899 353.303 267.013 353.417C267.128 353.531 267.192 353.686 267.192 353.848C267.192 354.01 267.128 354.164 267.013 354.279C266.899 354.393 266.744 354.457 266.583 354.457Z" fill="#262424"/>
<path d="M260.351 360.691C260.189 360.691 260.035 360.627 259.92 360.512C259.806 360.398 259.742 360.243 259.742 360.082V355.947C259.742 355.785 259.806 355.63 259.92 355.516C260.035 355.402 260.189 355.338 260.351 355.338C260.512 355.338 260.667 355.402 260.781 355.516C260.896 355.63 260.96 355.785 260.96 355.947V360.082C260.96 360.243 260.896 360.398 260.781 360.512C260.667 360.627 260.512 360.691 260.351 360.691Z" fill="#262424"/>
<path d="M258.247 354.457H254.117C253.955 354.457 253.8 354.393 253.686 354.279C253.572 354.164 253.508 354.01 253.508 353.848C253.508 353.686 253.572 353.531 253.686 353.417C253.8 353.303 253.955 353.239 254.117 353.239H258.247C258.408 353.239 258.563 353.303 258.677 353.417C258.792 353.531 258.856 353.686 258.856 353.848C258.856 354.01 258.792 354.164 258.677 354.279C258.563 354.393 258.408 354.457 258.247 354.457Z" fill="#262424"/>
<path d="M19.5502 214.658C19.3887 214.658 19.2339 214.594 19.1197 214.48C19.0055 214.366 18.9414 214.211 18.9414 214.049V210.515C18.9414 210.353 19.0055 210.198 19.1197 210.084C19.2339 209.969 19.3887 209.905 19.5502 209.905C19.7116 209.905 19.8665 209.969 19.9806 210.084C20.0948 210.198 20.1589 210.353 20.1589 210.515V214.043C20.1597 214.123 20.1446 214.203 20.1143 214.278C20.0841 214.353 20.0394 214.42 19.9828 214.478C19.9262 214.535 19.8588 214.58 19.7845 214.611C19.7103 214.642 19.6306 214.658 19.5502 214.658Z" fill="#262424"/>
<path d="M24.8635 216.45H21.3509C21.1895 216.45 21.0347 216.386 20.9205 216.271C20.8063 216.157 20.7422 216.002 20.7422 215.841C20.7422 215.679 20.8063 215.524 20.9205 215.41C21.0347 215.295 21.1895 215.231 21.3509 215.231H24.8635C25.0249 215.231 25.1798 215.295 25.2939 215.41C25.4081 215.524 25.4722 215.679 25.4722 215.841C25.4722 216.002 25.4081 216.157 25.2939 216.271C25.1798 216.386 25.0249 216.45 24.8635 216.45Z" fill="#262424"/>
<path d="M19.5502 221.77C19.3887 221.77 19.2339 221.706 19.1197 221.591C19.0055 221.477 18.9414 221.322 18.9414 221.16V217.629C18.9414 217.468 19.0055 217.313 19.1197 217.198C19.2339 217.084 19.3887 217.02 19.5502 217.02C19.7116 217.02 19.8665 217.084 19.9806 217.198C20.0948 217.313 20.1589 217.468 20.1589 217.629V221.157C20.1593 221.238 20.1439 221.317 20.1135 221.392C20.083 221.466 20.0383 221.533 19.9817 221.59C19.9251 221.647 19.8579 221.692 19.7838 221.723C19.7098 221.754 19.6304 221.77 19.5502 221.77Z" fill="#262424"/>
<path d="M17.7624 216.45H14.2377C14.0762 216.45 13.9214 216.386 13.8072 216.271C13.6931 216.157 13.6289 216.002 13.6289 215.841C13.6289 215.679 13.6931 215.524 13.8072 215.41C13.9214 215.295 14.0762 215.231 14.2377 215.231H17.7624C17.9238 215.231 18.0787 215.295 18.1928 215.41C18.307 215.524 18.3711 215.679 18.3711 215.841C18.3711 216.002 18.307 216.157 18.1928 216.271C18.0787 216.386 17.9238 216.45 17.7624 216.45Z" fill="#262424"/>
<path d="M329.87 153.365C329.709 153.365 329.554 153.301 329.44 153.186C329.326 153.072 329.262 152.917 329.262 152.755V149.224C329.262 149.063 329.326 148.908 329.44 148.793C329.554 148.679 329.709 148.615 329.87 148.615C330.032 148.615 330.187 148.679 330.301 148.793C330.415 148.908 330.479 149.063 330.479 149.224V152.752C330.48 152.833 330.464 152.912 330.434 152.987C330.403 153.061 330.359 153.128 330.302 153.185C330.245 153.242 330.178 153.287 330.104 153.318C330.03 153.349 329.951 153.365 329.87 153.365Z" fill="#262424"/>
<path d="M335.184 155.157H331.66C331.498 155.157 331.343 155.093 331.229 154.978C331.115 154.864 331.051 154.709 331.051 154.547C331.051 154.386 331.115 154.231 331.229 154.116C331.343 154.002 331.498 153.938 331.66 153.938H335.184C335.346 153.938 335.501 154.002 335.615 154.116C335.729 154.231 335.793 154.386 335.793 154.547C335.793 154.709 335.729 154.864 335.615 154.978C335.501 155.093 335.346 155.157 335.184 155.157Z" fill="#262424"/>
<path d="M329.87 160.48C329.709 160.48 329.554 160.415 329.44 160.301C329.326 160.187 329.262 160.032 329.262 159.87V156.336C329.262 156.174 329.326 156.019 329.44 155.905C329.554 155.791 329.709 155.726 329.87 155.726C330.032 155.726 330.187 155.791 330.301 155.905C330.415 156.019 330.479 156.174 330.479 156.336V159.87C330.479 160.032 330.415 160.187 330.301 160.301C330.187 160.415 330.032 160.48 329.87 160.48Z" fill="#262424"/>
<path d="M328.079 155.157H324.554C324.393 155.157 324.238 155.093 324.124 154.978C324.009 154.864 323.945 154.709 323.945 154.547C323.945 154.386 324.009 154.231 324.124 154.116C324.238 154.002 324.393 153.938 324.554 153.938H328.079C328.24 153.938 328.395 154.002 328.509 154.116C328.623 154.231 328.688 154.386 328.688 154.547C328.688 154.709 328.623 154.864 328.509 154.978C328.395 155.093 328.24 155.157 328.079 155.157Z" fill="#262424"/>
<path d="M4.12072 263.343C5.5681 263.343 6.74144 262.169 6.74144 260.72C6.74144 259.271 5.5681 258.097 4.12072 258.097C2.67334 258.097 1.5 259.271 1.5 260.72C1.5 262.169 2.67334 263.343 4.12072 263.343Z" fill="#B0CDFE"/>
<path d="M300.064 368.476C302.893 368.476 305.187 366.18 305.187 363.348C305.187 360.516 302.893 358.22 300.064 358.22C297.235 358.22 294.941 360.516 294.941 363.348C294.941 366.18 297.235 368.476 300.064 368.476Z" fill="#B0CDFE"/>
<path d="M141.905 319.044C144.26 319.044 146.169 317.132 146.169 314.775C146.169 312.417 144.26 310.506 141.905 310.506C139.55 310.506 137.641 312.417 137.641 314.775C137.641 317.132 139.55 319.044 141.905 319.044Z" fill="#FEA151"/>
</svg>
