<svg width="454" height="501" viewBox="0 0 454 501" fill="none" xmlns="http://www.w3.org/2000/svg">
<path d="M290.011 8.36685H63.9145C54.8296 8.36685 47.4648 15.7241 47.4648 24.7997V250.664C47.4648 259.74 54.8296 267.097 63.9145 267.097H290.011C299.096 267.097 306.461 259.74 306.461 250.664V24.7997C306.461 15.7241 299.096 8.36685 290.011 8.36685Z" fill="white"/>
<path d="M290.01 268.169H63.9013C59.256 268.162 54.8028 266.316 51.5181 263.035C48.2334 259.753 46.3852 255.305 46.3789 250.664V24.7878C46.3852 20.1473 48.2334 15.6987 51.5181 12.4173C54.8028 9.13598 59.256 7.28974 63.9013 7.28342H290.01C294.655 7.28974 299.108 9.13598 302.393 12.4173C305.678 15.6987 307.526 20.1473 307.532 24.7878V250.664C307.526 255.305 305.678 259.753 302.393 263.035C299.108 266.316 294.655 268.162 290.01 268.169ZM63.9013 9.4386C59.8258 9.44387 55.9187 11.0636 53.0368 13.9424C50.155 16.8213 48.5336 20.7244 48.5283 24.7958V250.672C48.5336 254.744 50.155 258.647 53.0368 261.526C55.9187 264.404 59.8258 266.024 63.9013 266.029H290.01C294.085 266.024 297.992 264.404 300.874 261.526C303.756 258.647 305.378 254.744 305.383 250.672V24.7958C305.378 20.7244 303.756 16.8213 300.874 13.9424C297.992 11.0636 294.085 9.44387 290.01 9.4386H63.9013Z" fill="#262424"/>
<path d="M280.508 151.219H82.0467C77.5692 151.219 73.9395 154.845 73.9395 159.318V224.388C73.9395 228.861 77.5692 232.487 82.0467 232.487H280.508C284.985 232.487 288.615 228.861 288.615 224.388V159.318C288.615 154.845 284.985 151.219 280.508 151.219Z" fill="white"/>
<path d="M280.508 233.558H82.0469C79.616 233.552 77.2862 232.585 75.5672 230.868C73.8483 229.151 72.8803 226.824 72.875 224.395V159.317C72.8803 156.889 73.8483 154.561 75.5672 152.844C77.2862 151.127 79.616 150.16 82.0469 150.155H280.508C282.939 150.16 285.269 151.127 286.988 152.844C288.707 154.561 289.675 156.889 289.68 159.317V224.387C289.677 226.817 288.71 229.147 286.99 230.865C285.271 232.584 282.94 233.552 280.508 233.558ZM82.0469 152.29C80.1819 152.292 78.3939 153.033 77.0751 154.351C75.7564 155.668 75.0146 157.454 75.0125 159.317V224.387C75.0146 226.25 75.7564 228.037 77.0751 229.354C78.3939 230.671 80.1819 231.412 82.0469 231.415H280.508C282.373 231.412 284.161 230.671 285.48 229.354C286.798 228.037 287.54 226.25 287.542 224.387V159.317C287.54 157.454 286.798 155.668 285.48 154.351C284.161 153.033 282.373 152.292 280.508 152.29H82.0469Z" fill="#262424"/>
<path d="M125.645 230.108C125.504 230.108 125.365 230.08 125.234 230.027C125.104 229.973 124.986 229.894 124.886 229.794C124.787 229.695 124.708 229.577 124.654 229.447C124.6 229.317 124.572 229.177 124.572 229.036V154.673C124.572 154.388 124.686 154.115 124.887 153.913C125.089 153.712 125.362 153.599 125.647 153.599C125.932 153.599 126.205 153.712 126.407 153.913C126.608 154.115 126.722 154.388 126.722 154.673V229.032C126.722 229.174 126.695 229.314 126.641 229.445C126.587 229.575 126.508 229.694 126.408 229.794C126.307 229.894 126.189 229.973 126.058 230.027C125.927 230.081 125.787 230.109 125.645 230.108Z" fill="#262424"/>
<path d="M181.274 230.108C181.133 230.108 180.994 230.08 180.863 230.027C180.733 229.973 180.615 229.894 180.515 229.794C180.416 229.695 180.337 229.577 180.283 229.447C180.229 229.317 180.201 229.177 180.201 229.036V154.673C180.201 154.388 180.314 154.115 180.516 153.913C180.718 153.712 180.991 153.599 181.276 153.599C181.561 153.599 181.834 153.712 182.036 153.913C182.237 154.115 182.351 154.388 182.351 154.673V229.032C182.351 229.174 182.324 229.314 182.27 229.445C182.216 229.575 182.137 229.694 182.036 229.794C181.936 229.894 181.817 229.973 181.687 230.027C181.556 230.081 181.415 230.109 181.274 230.108Z" fill="#262424"/>
<path d="M236.905 230.108C236.62 230.108 236.347 229.995 236.146 229.794C235.945 229.593 235.832 229.321 235.832 229.036V154.673C235.832 154.388 235.945 154.115 236.147 153.913C236.348 153.712 236.622 153.599 236.907 153.599C237.192 153.599 237.465 153.712 237.667 153.913C237.868 154.115 237.981 154.388 237.981 154.673V229.032C237.982 229.174 237.954 229.314 237.901 229.445C237.847 229.575 237.767 229.694 237.667 229.794C237.567 229.894 237.448 229.973 237.317 230.027C237.187 230.081 237.046 230.109 236.905 230.108Z" fill="#262424"/>
<path d="M284.06 192.924H78.4888C78.2037 192.924 77.9304 192.811 77.7288 192.61C77.5273 192.408 77.4141 192.135 77.4141 191.851C77.4141 191.566 77.5273 191.293 77.7288 191.091C77.9304 190.89 78.2037 190.777 78.4888 190.777H284.06C284.345 190.777 284.618 190.89 284.82 191.091C285.021 191.293 285.135 191.566 285.135 191.851C285.135 192.135 285.021 192.408 284.82 192.61C284.618 192.811 284.345 192.924 284.06 192.924Z" fill="#262424"/>
<path d="M123.158 135.164L78.4941 108.871V61.696L123.158 87.9885V135.164Z" fill="#FEA151"/>
<path d="M123.152 136.235C122.96 136.235 122.772 136.184 122.606 136.087L77.9425 109.795C77.7811 109.7 77.6472 109.565 77.5542 109.403C77.4611 109.241 77.4122 109.057 77.4121 108.871V61.6955C77.412 61.506 77.4623 61.3199 77.5577 61.1561C77.6531 60.9923 77.7903 60.8567 77.9553 60.7632C78.1203 60.6696 78.3072 60.6215 78.4969 60.6236C78.6866 60.6257 78.8723 60.6781 79.0351 60.7753L123.699 87.0678C123.86 87.1623 123.994 87.2973 124.087 87.4594C124.18 87.6215 124.229 87.8051 124.229 87.992V135.163C124.229 135.304 124.201 135.444 124.147 135.574C124.093 135.704 124.013 135.823 123.913 135.922C123.813 136.022 123.695 136.101 123.564 136.154C123.433 136.208 123.293 136.235 123.152 136.235ZM79.5655 108.257L122.079 133.279V88.6015L79.5655 63.5639V108.257Z" fill="#FEA151"/>
<path d="M123.156 135.164L167.82 108.871V61.696L123.156 87.9885V135.164Z" fill="#B0CDFE"/>
<path d="M123.153 136.235C122.868 136.235 122.595 136.123 122.394 135.922C122.193 135.721 122.08 135.448 122.08 135.164V87.9887C122.08 87.8018 122.129 87.6182 122.222 87.4561C122.315 87.294 122.449 87.159 122.61 87.0645L167.274 60.772C167.437 60.6756 167.623 60.6241 167.812 60.6227C168.001 60.6212 168.188 60.6699 168.352 60.7638C168.517 60.8577 168.654 60.9934 168.748 61.1572C168.843 61.321 168.893 61.507 168.893 61.6962V108.871C168.893 109.058 168.844 109.242 168.751 109.404C168.658 109.566 168.524 109.701 168.363 109.796L123.699 136.088C123.534 136.185 123.345 136.236 123.153 136.235ZM124.226 88.5982V133.28L166.739 108.25V63.5646L124.226 88.5982Z" fill="#B0CDFE"/>
<path d="M167.821 61.6961L150.362 71.974L140.616 77.7106L123.158 87.9885L78.4941 61.6961L95.9528 51.4181L105.699 45.6815L123.158 35.4036L167.821 61.6961Z" fill="white"/>
<path d="M123.154 89.0605C122.962 89.0611 122.773 89.0102 122.607 88.9131L77.9438 62.6206C77.7826 62.526 77.6488 62.391 77.5559 62.2289C77.4629 62.0667 77.4141 61.8832 77.4141 61.6964C77.4141 61.5095 77.4629 61.326 77.5559 61.1638C77.6488 61.0017 77.7826 60.8667 77.9438 60.7721L122.607 34.4797C122.773 34.3819 122.961 34.3303 123.154 34.3303C123.346 34.3303 123.534 34.3819 123.7 34.4797L168.363 60.7721C168.525 60.8667 168.658 61.0017 168.751 61.1638C168.844 61.326 168.893 61.5095 168.893 61.6964C168.893 61.8832 168.844 62.0667 168.751 62.2289C168.658 62.391 168.525 62.526 168.363 62.6206L123.7 88.9131C123.534 89.0102 123.346 89.0611 123.154 89.0605ZM80.6077 61.6964L123.154 86.7419L165.699 61.6964L123.154 36.6508L80.6077 61.6964Z" fill="#262424"/>
<path d="M150.363 71.9743L140.617 77.7108L95.9531 51.4183L105.699 45.6818L150.363 71.9743Z" fill="white"/>
<path d="M140.611 78.7818C140.419 78.7824 140.23 78.7315 140.064 78.6344L95.4009 52.3419C95.2396 52.2474 95.1058 52.1123 95.0129 51.9502C94.92 51.7881 94.8711 51.6045 94.8711 51.4177C94.8711 51.2309 94.92 51.0473 95.0129 50.8852C95.1058 50.7231 95.2396 50.588 95.4009 50.4935L105.147 44.7569C105.312 44.6591 105.501 44.6075 105.693 44.6075C105.886 44.6075 106.074 44.6591 106.24 44.7569L150.903 71.0494C151.064 71.144 151.198 71.279 151.291 71.4411C151.384 71.6033 151.433 71.7868 151.433 71.9736C151.433 72.1605 151.384 72.344 151.291 72.5062C151.198 72.6683 151.064 72.8033 150.903 72.8979L141.157 78.6344C140.991 78.7315 140.803 78.7824 140.611 78.7818ZM98.0567 51.4177L140.603 76.4633L148.231 71.9736L105.693 46.9241L98.0567 51.4177Z" fill="#262424"/>
<path d="M140.615 87.3394V77.7107L150.361 71.9742V81.6028L140.615 87.3394Z" fill="white"/>
<path d="M140.612 88.4144C140.471 88.4144 140.331 88.3866 140.201 88.3328C140.071 88.2789 139.953 88.2 139.853 88.1005C139.754 88.001 139.675 87.8828 139.621 87.7528C139.567 87.6228 139.539 87.4835 139.539 87.3427V77.7101C139.539 77.5233 139.588 77.3396 139.681 77.1775C139.774 77.0154 139.908 76.8804 140.069 76.7859L149.816 71.0494C149.979 70.953 150.164 70.9014 150.354 70.9C150.543 70.8986 150.73 70.9473 150.894 71.0412C151.059 71.1351 151.195 71.2708 151.29 71.4346C151.385 71.5984 151.435 71.7843 151.435 71.9736V81.6062C151.435 81.7931 151.386 81.9767 151.293 82.1388C151.2 82.3009 151.066 82.4359 150.904 82.5304L141.158 88.263C140.993 88.3615 140.804 88.4138 140.612 88.4144ZM141.688 78.3037V85.4744L149.285 81.0007V73.8499L141.688 78.3037Z" fill="#262424"/>
<path d="M296.722 114.293L276.496 99.0756V103.984H232.108C227.123 103.988 222.302 102.206 218.522 98.9614C214.741 95.7165 212.252 91.2241 211.506 86.3009C210.76 81.3777 211.807 76.3506 214.457 72.1332C217.107 67.9159 221.183 64.7885 225.946 63.3193C230.708 61.8502 235.84 62.137 240.409 64.1275C244.978 66.118 248.68 69.6802 250.843 74.1664C253.005 78.6526 253.484 83.7651 252.194 88.5745C250.903 93.3838 247.927 97.5708 243.808 100.374H269.824C269.984 100.029 270.138 99.6798 270.287 99.3266C273.761 91.1282 274.499 82.0301 272.391 73.38C270.284 64.7299 265.444 56.988 258.587 51.301C251.731 45.6141 243.223 42.2846 234.324 41.806C225.425 41.3273 216.609 43.7248 209.181 48.6434C201.753 53.5619 196.108 60.7399 193.083 69.1139C190.058 77.488 189.814 86.6126 192.387 95.1362C194.959 103.66 200.212 111.129 207.366 116.437C214.52 121.745 223.196 124.61 232.108 124.607H276.492V129.515L296.722 114.293Z" fill="#FEA151"/>
<path d="M192.134 103.983H177.092V124.607H214.414C204.827 120.507 196.955 113.22 192.134 103.983Z" fill="#FEA151"/>
<path d="M369.052 499.92C367.95 499.921 366.882 499.538 366.033 498.837C365.178 498.134 364.593 497.157 364.378 496.072L330.594 332.15H122.614L88.829 496.072C88.6141 497.157 88.0292 498.134 87.174 498.837C86.3249 499.538 85.2572 499.921 84.1553 499.92C83.4608 499.918 82.7751 499.764 82.1459 499.471C81.5168 499.177 80.9591 498.75 80.5118 498.219C80.0644 497.688 79.738 497.067 79.5553 496.397C79.3726 495.728 79.3379 495.027 79.4537 494.343L108.565 319.566H344.682L373.773 494.343C373.89 495.029 373.854 495.732 373.671 496.402C373.487 497.073 373.159 497.696 372.709 498.227C372.259 498.758 371.699 499.184 371.068 499.477C370.436 499.769 369.748 499.921 369.052 499.92Z" fill="white"/>
<path d="M369.054 500.996C367.701 500.993 366.391 500.521 365.347 499.662C364.302 498.803 363.587 497.609 363.324 496.284L329.719 333.226H123.493L89.8842 496.288C89.62 497.613 88.9049 498.806 87.8604 499.664C86.8158 500.522 85.5062 500.993 84.1537 500.996C83.3092 500.997 82.4747 500.813 81.7082 500.459C80.9418 500.105 80.2617 499.588 79.7153 498.945C79.1595 498.292 78.7528 497.526 78.5235 496.701C78.2942 495.875 78.2477 495.01 78.3874 494.164L107.498 319.379C107.54 319.127 107.67 318.898 107.865 318.733C108.06 318.568 108.308 318.478 108.563 318.479H344.681C344.936 318.479 345.183 318.569 345.378 318.734C345.573 318.899 345.703 319.127 345.746 319.379L374.857 494.156C374.996 495.002 374.949 495.867 374.72 496.693C374.491 497.518 374.084 498.284 373.529 498.937C372.979 499.586 372.294 500.107 371.52 500.463C370.747 500.819 369.906 501.001 369.054 500.996ZM122.608 331.071H330.588C330.837 331.071 331.077 331.156 331.27 331.313C331.463 331.47 331.595 331.688 331.645 331.932L365.429 495.853C365.596 496.695 366.049 497.453 366.71 498.001C367.452 498.615 368.407 498.911 369.367 498.826C370.327 498.741 371.215 498.281 371.838 497.546C372.19 497.133 372.448 496.647 372.593 496.123C372.738 495.6 372.768 495.051 372.679 494.515L343.748 320.642H109.46L80.5129 494.523C80.4249 495.058 80.4546 495.606 80.5999 496.129C80.7452 496.652 81.0026 497.137 81.3543 497.55C81.6978 497.956 82.1254 498.281 82.6074 498.505C83.0894 498.728 83.6143 498.844 84.1457 498.845C84.9975 498.848 85.8234 498.552 86.4786 498.009C87.1411 497.462 87.5946 496.703 87.7627 495.861L121.547 331.936C121.597 331.69 121.731 331.469 121.926 331.312C122.121 331.154 122.365 331.069 122.616 331.071H122.608Z" fill="#262424"/>
<path d="M310.333 499.92C309.231 499.921 308.164 499.538 307.314 498.837C306.459 498.134 305.874 497.157 305.66 496.072L271.875 332.15H63.8949L30.1102 496.072C29.8954 497.157 29.3105 498.134 28.4553 498.837C27.6061 499.538 26.5384 499.921 25.4365 499.92C24.742 499.918 24.0564 499.764 23.4272 499.471C22.798 499.177 22.2404 498.75 21.793 498.219C21.3457 497.688 21.0193 497.067 20.8366 496.397C20.6538 495.728 20.6192 495.027 20.7349 494.343L49.8459 319.566H285.964L315.055 494.343C315.171 495.029 315.136 495.732 314.952 496.402C314.768 497.073 314.44 497.696 313.99 498.227C313.541 498.758 312.981 499.184 312.349 499.477C311.717 499.769 311.029 499.921 310.333 499.92Z" fill="white"/>
<path d="M310.334 500.996C308.981 500.992 307.67 500.521 306.626 499.662C305.581 498.803 304.867 497.609 304.603 496.283L270.998 333.226H64.7766L31.1674 496.287C30.8989 497.612 30.1822 498.805 29.1376 499.665C27.9578 500.637 26.4424 501.106 24.9192 500.97C23.396 500.835 21.9876 500.105 20.9985 498.94C20.4428 498.288 20.036 497.522 19.8067 496.696C19.5774 495.871 19.5309 495.005 19.6706 494.16L48.7815 319.374C48.8232 319.122 48.9532 318.894 49.1482 318.729C49.3433 318.564 49.5907 318.473 49.8463 318.474H285.964C286.219 318.474 286.466 318.565 286.661 318.73C286.856 318.894 286.986 319.123 287.029 319.374L316.14 494.152C316.279 494.997 316.233 495.863 316.003 496.688C315.774 497.514 315.367 498.279 314.812 498.932C314.262 499.583 313.576 500.105 312.802 500.461C312.029 500.818 311.186 501 310.334 500.996ZM63.8873 331.071H271.879C272.128 331.07 272.369 331.156 272.561 331.312C272.754 331.469 272.886 331.688 272.936 331.931L306.721 495.853C306.888 496.694 307.34 497.452 308.001 498C308.743 498.614 309.698 498.911 310.658 498.826C311.618 498.741 312.506 498.281 313.129 497.546C313.481 497.132 313.739 496.646 313.884 496.123C314.03 495.599 314.059 495.05 313.97 494.514L285.031 320.641H50.7435L21.8 494.522C21.7121 495.058 21.7418 495.606 21.8871 496.129C22.0324 496.651 22.2898 497.136 22.6415 497.55C22.985 497.955 23.4126 498.281 23.8946 498.504C24.3766 498.728 24.9015 498.844 25.4329 498.845C26.2848 498.848 27.1107 498.552 27.7658 498.008C28.4283 497.461 28.8818 496.703 29.0499 495.861L62.8346 331.935C62.8843 331.691 63.0171 331.471 63.2104 331.314C63.4038 331.156 63.6458 331.07 63.8953 331.071H63.8873Z" fill="#262424"/>
<path d="M365.244 306.152H30.1133V321.091H365.244V306.152Z" fill="#B0CDFE"/>
<path d="M279.502 320.637C279.362 320.637 279.222 320.61 279.092 320.556C278.962 320.502 278.844 320.423 278.744 320.324C278.644 320.224 278.565 320.106 278.511 319.976C278.457 319.846 278.43 319.707 278.43 319.566V308.611C278.43 308.326 278.543 308.053 278.744 307.851C278.946 307.65 279.219 307.537 279.504 307.537C279.789 307.537 280.063 307.65 280.264 307.851C280.466 308.053 280.579 308.326 280.579 308.611V319.566C280.579 319.707 280.551 319.847 280.497 319.977C280.443 320.107 280.364 320.225 280.264 320.325C280.163 320.425 280.045 320.503 279.914 320.557C279.784 320.611 279.644 320.638 279.502 320.637Z" fill="#262424"/>
<path d="M276.759 303.662H217.169C216.766 303.663 216.369 303.57 216.008 303.39C215.648 303.211 215.334 302.95 215.092 302.628C214.85 302.307 214.686 301.933 214.613 301.538C214.54 301.142 214.561 300.735 214.673 300.348L233.017 236.975C233.306 235.976 233.912 235.097 234.744 234.471C235.576 233.846 236.589 233.507 237.63 233.505H297.22C297.623 233.505 298.02 233.598 298.381 233.778C298.741 233.957 299.055 234.218 299.297 234.539C299.539 234.861 299.703 235.234 299.776 235.63C299.849 236.026 299.829 236.433 299.717 236.82L281.377 300.197C281.086 301.196 280.479 302.074 279.647 302.699C278.814 303.324 277.8 303.662 276.759 303.662Z" fill="white"/>
<path d="M276.76 304.739H217.17C216.6 304.739 216.039 304.607 215.529 304.353C215.019 304.099 214.576 303.73 214.233 303.275C213.891 302.82 213.659 302.292 213.556 301.732C213.454 301.173 213.482 300.597 213.641 300.05L231.985 236.677C232.343 235.457 233.086 234.385 234.104 233.62C235.121 232.856 236.358 232.44 237.631 232.435H297.221C297.791 232.435 298.353 232.567 298.862 232.821C299.372 233.075 299.816 233.444 300.158 233.899C300.5 234.354 300.732 234.882 300.835 235.441C300.938 236.001 300.909 236.577 300.75 237.124L282.407 300.496C282.048 301.717 281.305 302.789 280.288 303.554C279.27 304.318 278.033 304.734 276.76 304.739ZM237.631 234.582C236.823 234.584 236.036 234.848 235.389 235.333C234.743 235.819 234.27 236.5 234.042 237.275L215.699 300.648C215.633 300.874 215.621 301.113 215.664 301.345C215.707 301.577 215.803 301.796 215.945 301.985C216.087 302.173 216.27 302.326 216.482 302.432C216.693 302.537 216.926 302.592 217.162 302.592H276.76C277.569 302.589 278.355 302.326 279.002 301.841C279.649 301.355 280.121 300.674 280.349 299.899L298.693 236.526C298.758 236.299 298.77 236.061 298.727 235.829C298.685 235.597 298.589 235.378 298.447 235.189C298.305 235.001 298.121 234.848 297.91 234.742C297.698 234.637 297.465 234.582 297.229 234.582H237.631Z" fill="#262424"/>
<path d="M275.442 298.883H221.499C221.282 298.883 221.068 298.832 220.874 298.735C220.679 298.638 220.51 298.497 220.38 298.324C220.249 298.15 220.161 297.949 220.122 297.735C220.083 297.522 220.095 297.302 220.155 297.094L236.681 239.988C236.823 239.497 237.12 239.066 237.529 238.759C237.937 238.452 238.435 238.286 238.946 238.286H292.889C293.106 238.287 293.32 238.337 293.514 238.434C293.709 238.531 293.878 238.672 294.008 238.845C294.139 239.019 294.227 239.22 294.266 239.434C294.305 239.647 294.293 239.867 294.233 240.075L277.707 297.182C277.565 297.672 277.268 298.103 276.859 298.41C276.451 298.717 275.953 298.883 275.442 298.883Z" fill="white"/>
<path d="M275.444 299.958H221.501C221.116 299.96 220.736 299.872 220.391 299.702C220.046 299.531 219.746 299.283 219.513 298.976C219.281 298.67 219.124 298.313 219.053 297.935C218.983 297.557 219.002 297.168 219.109 296.798L235.638 239.692C235.847 238.979 236.281 238.353 236.875 237.906C237.47 237.46 238.192 237.217 238.936 237.214H292.891C293.276 237.212 293.656 237.3 294.001 237.47C294.346 237.64 294.647 237.889 294.879 238.195C295.111 238.502 295.269 238.858 295.339 239.236C295.409 239.615 295.39 240.004 295.284 240.373L278.742 297.48C278.533 298.193 278.099 298.819 277.505 299.266C276.911 299.712 276.188 299.955 275.444 299.958ZM238.948 239.361C238.67 239.363 238.4 239.454 238.178 239.621C237.956 239.789 237.794 240.023 237.716 240.29L221.19 297.408C221.18 297.455 221.18 297.505 221.19 297.552C221.201 297.6 221.222 297.644 221.253 297.682C221.283 297.72 221.321 297.751 221.365 297.773C221.409 297.794 221.457 297.806 221.505 297.806H275.444C275.722 297.805 275.992 297.714 276.214 297.548C276.435 297.381 276.598 297.148 276.677 296.882L293.202 239.776C293.213 239.728 293.213 239.679 293.202 239.631C293.191 239.584 293.17 239.54 293.14 239.501C293.109 239.463 293.071 239.432 293.027 239.411C292.984 239.389 292.936 239.378 292.887 239.377H238.948V239.361Z" fill="#262424"/>
<path d="M223.414 445.897L224.08 463.326H212.814L210.721 445.897H223.414Z" fill="white"/>
<path d="M224.074 464.401H212.816C212.554 464.401 212.3 464.305 212.104 464.131C211.908 463.957 211.782 463.717 211.751 463.457L209.658 446.028C209.64 445.878 209.655 445.726 209.7 445.582C209.746 445.438 209.821 445.305 209.922 445.192C210.022 445.08 210.146 444.989 210.284 444.927C210.422 444.865 210.571 444.833 210.722 444.833H223.412C223.689 444.833 223.956 444.94 224.156 445.133C224.356 445.325 224.474 445.588 224.484 445.865L225.154 463.294C225.159 463.438 225.135 463.582 225.082 463.717C225.03 463.851 224.951 463.974 224.85 464.078C224.749 464.181 224.628 464.263 224.495 464.319C224.361 464.374 224.218 464.402 224.074 464.401ZM213.761 462.254H222.957L222.371 446.972H211.923L213.761 462.254Z" fill="#262424"/>
<path d="M225.076 375.003V437.575H203.143L192.069 387.512L110.818 375.692C110.818 375.692 88.8848 373.37 88.8848 326.163H121.8L126.984 327.756L150.644 335.058L211.059 358.335L214.568 359.69C217.663 360.884 220.323 362.986 222.198 365.719C224.074 368.453 225.077 371.689 225.076 375.003Z" fill="#B0CDFE"/>
<path d="M99.2017 343.304C99.429 345.718 99.9754 350.53 101.164 356.669C101.223 356.955 101.361 357.219 101.563 357.43C101.765 357.641 102.021 357.792 102.304 357.864L111.847 360.354C112.218 360.451 112.61 360.408 112.952 360.235L118.726 357.311C119.014 357.165 119.25 356.933 119.401 356.648C119.553 356.363 119.612 356.037 119.571 355.717L118.068 342.945C118.023 342.565 117.84 342.214 117.553 341.959C117.267 341.704 116.896 341.563 116.513 341.563H100.761C100.54 341.562 100.321 341.608 100.119 341.698C99.9176 341.787 99.737 341.919 99.5897 342.083C99.4423 342.248 99.3316 342.442 99.2647 342.652C99.1978 342.863 99.1764 343.085 99.2017 343.304Z" fill="white"/>
<path d="M213.705 433.6C213.448 433.6 213.2 433.509 213.006 433.342C212.811 433.175 212.683 432.945 212.644 432.692L204.668 381.39L138.072 359.69C135.635 358.895 133.458 357.455 131.773 355.524C130.088 353.594 128.958 351.244 128.501 348.723L125.917 334.521C125.891 334.383 125.892 334.24 125.921 334.102C125.95 333.964 126.006 333.833 126.086 333.716C126.165 333.6 126.267 333.5 126.385 333.423C126.503 333.346 126.636 333.292 126.774 333.266C126.913 333.24 127.056 333.242 127.194 333.27C127.332 333.299 127.463 333.355 127.58 333.435C127.697 333.514 127.797 333.616 127.874 333.734C127.951 333.852 128.004 333.984 128.031 334.123L130.615 348.325C131.002 350.466 131.963 352.463 133.396 354.103C134.828 355.743 136.678 356.965 138.75 357.639L205.952 379.549C206.141 379.611 206.309 379.723 206.438 379.874C206.567 380.026 206.651 380.209 206.682 380.406L214.769 432.361C214.791 432.501 214.786 432.643 214.753 432.78C214.719 432.918 214.659 433.047 214.576 433.161C214.493 433.275 214.388 433.371 214.267 433.445C214.146 433.518 214.012 433.567 213.872 433.588C213.817 433.596 213.761 433.6 213.705 433.6Z" fill="#262424"/>
<path d="M129.136 347.244C128.893 347.247 128.658 347.167 128.467 347.019C128.276 346.87 128.141 346.661 128.083 346.426C128.026 346.191 128.05 345.944 128.151 345.724C128.252 345.505 128.425 345.326 128.641 345.217L132.122 343.424C133.002 342.968 133.722 342.255 134.186 341.381C134.651 340.506 134.838 339.511 134.722 338.528L133.618 329.31C133.601 329.17 133.612 329.028 133.65 328.892C133.688 328.757 133.753 328.63 133.84 328.519C133.927 328.408 134.035 328.316 134.158 328.246C134.281 328.177 134.417 328.133 134.557 328.117C134.697 328.1 134.839 328.111 134.975 328.149C135.111 328.187 135.238 328.251 135.349 328.339C135.46 328.426 135.552 328.534 135.621 328.657C135.69 328.78 135.735 328.915 135.751 329.055L136.856 338.273C137.022 339.691 136.752 341.126 136.081 342.387C135.411 343.648 134.372 344.675 133.103 345.332L129.622 347.125C129.472 347.203 129.305 347.244 129.136 347.244Z" fill="#262424"/>
<path d="M225.077 375.003V382.242C224.746 382.261 224.415 382.273 224.08 382.273C221.288 382.273 218.548 381.52 216.148 380.094C213.748 378.669 211.778 376.623 210.444 374.173C209.11 371.722 208.463 368.958 208.57 366.17C208.677 363.383 209.534 360.677 211.052 358.335L214.561 359.69C217.657 360.883 220.319 362.985 222.196 365.718C224.073 368.451 225.077 371.688 225.077 375.003Z" fill="white"/>
<path d="M224.59 450.781H203.654C203.078 450.782 202.522 450.568 202.094 450.183C201.666 449.797 201.396 449.267 201.337 448.694L199.694 432.831C199.66 432.507 199.695 432.179 199.797 431.87C199.898 431.56 200.063 431.275 200.281 431.033C200.5 430.792 200.767 430.598 201.064 430.466C201.362 430.334 201.685 430.265 202.011 430.265H225.415C225.731 430.266 226.044 430.33 226.334 430.454C226.624 430.579 226.886 430.761 227.103 430.99C227.321 431.219 227.489 431.489 227.599 431.785C227.708 432.081 227.756 432.396 227.74 432.711L226.919 448.574C226.888 449.171 226.629 449.732 226.196 450.143C225.762 450.554 225.187 450.782 224.59 450.781Z" fill="#FEA151"/>
<path d="M261.003 499.92H206.126C206.126 499.92 205.728 497.407 205.476 492.837C204.967 482.277 205.436 471.693 206.876 461.219H229.208C229.208 461.219 234.791 475.668 243.604 481.249C250.67 485.722 258.418 485.44 260.552 492.837C261.078 494.666 261.258 496.964 261.003 499.92Z" fill="#B0CDFE"/>
<path d="M261.003 499.92H206.127C206.127 499.92 205.728 497.406 205.477 492.837H260.548C261.079 494.666 261.258 496.964 261.003 499.92Z" fill="white"/>
<path d="M261.003 500.976H206.127C205.871 500.976 205.623 500.885 205.428 500.718C205.234 500.552 205.105 500.321 205.066 500.068C205.066 499.964 204.667 497.447 204.408 492.897C204.399 492.751 204.421 492.605 204.471 492.468C204.521 492.33 204.598 492.204 204.699 492.098C204.799 491.992 204.921 491.907 205.055 491.849C205.19 491.791 205.334 491.762 205.481 491.762H260.548C260.782 491.762 261.009 491.837 261.195 491.977C261.382 492.118 261.517 492.315 261.581 492.539C262.171 494.574 262.331 497.02 262.076 500.012C262.048 500.277 261.923 500.522 261.725 500.7C261.527 500.878 261.27 500.977 261.003 500.976ZM207.048 498.829H260.002C260.124 497.178 260.026 495.518 259.711 493.893H206.601C206.753 496.22 206.924 497.897 207.048 498.849V498.829Z" fill="#262424"/>
<path d="M253.654 445.897L254.324 463.326H243.058L240.965 445.897H253.654Z" fill="white"/>
<path d="M254.32 464.401H243.054C242.792 464.401 242.539 464.305 242.342 464.131C242.146 463.957 242.021 463.717 241.989 463.457L239.896 446.028C239.878 445.878 239.893 445.726 239.938 445.582C239.984 445.438 240.06 445.305 240.16 445.192C240.261 445.08 240.384 444.989 240.522 444.927C240.66 444.865 240.809 444.833 240.961 444.833H253.654C253.931 444.834 254.198 444.942 254.398 445.134C254.597 445.326 254.715 445.588 254.727 445.865L255.393 463.294C255.397 463.437 255.373 463.581 255.321 463.715C255.27 463.849 255.191 463.971 255.091 464.075C254.991 464.178 254.871 464.26 254.739 464.316C254.606 464.372 254.464 464.401 254.32 464.401ZM244.011 462.254H253.207L252.621 446.972H242.173L244.011 462.254Z" fill="#262424"/>
<path d="M255.316 375.003V437.575H233.383L222.317 387.512L141.066 375.692C141.066 375.692 119.133 373.37 119.133 326.163H152.048L157.232 327.756L180.892 335.058L241.307 358.335L244.816 359.69C247.909 360.885 250.567 362.988 252.441 365.721C254.315 368.454 255.318 371.69 255.316 375.003Z" fill="#B0CDFE"/>
<path d="M223.941 395.917C223.696 395.916 223.459 395.833 223.269 395.68C223.078 395.527 222.945 395.314 222.892 395.076L221.428 388.467L140.927 376.755C140.444 376.699 134.841 375.899 129.278 369.322C121.833 360.522 118.057 346.001 118.057 326.162C118.057 325.877 118.17 325.604 118.371 325.403C118.573 325.202 118.846 325.089 119.131 325.089C119.416 325.089 119.69 325.202 119.891 325.403C120.093 325.604 120.206 325.877 120.206 326.162C120.206 371.875 140.967 374.604 141.178 374.624H141.218L222.477 386.448C222.693 386.479 222.894 386.575 223.053 386.723C223.213 386.871 223.323 387.064 223.371 387.276L224.99 394.61C225.025 394.767 225.024 394.93 224.988 395.087C224.952 395.243 224.881 395.39 224.78 395.516C224.679 395.641 224.551 395.742 224.406 395.812C224.261 395.881 224.102 395.917 223.941 395.917Z" fill="#262424"/>
<path d="M129.446 343.304C129.674 345.718 130.22 350.531 131.408 356.67C131.468 356.955 131.606 357.219 131.808 357.43C132.009 357.641 132.266 357.792 132.549 357.865L142.092 360.355C142.462 360.451 142.855 360.408 143.196 360.235L148.971 357.311C149.259 357.165 149.495 356.933 149.646 356.648C149.798 356.363 149.857 356.038 149.816 355.717L148.305 342.978C148.26 342.597 148.077 342.246 147.79 341.991C147.503 341.736 147.133 341.596 146.749 341.595H130.998C130.78 341.596 130.566 341.642 130.367 341.73C130.169 341.818 129.991 341.947 129.845 342.108C129.699 342.269 129.588 342.458 129.519 342.664C129.451 342.87 129.426 343.088 129.446 343.304Z" fill="white"/>
<path d="M243.955 433.599C243.698 433.6 243.45 433.508 243.256 433.341C243.061 433.175 242.933 432.944 242.894 432.691L234.918 381.389L168.322 359.69C165.884 358.894 163.707 357.454 162.022 355.522C160.338 353.591 159.207 351.24 158.751 348.718L156.167 334.517C156.141 334.378 156.142 334.235 156.171 334.097C156.2 333.959 156.256 333.828 156.336 333.712C156.415 333.595 156.517 333.495 156.635 333.418C156.753 333.341 156.886 333.288 157.024 333.262C157.163 333.236 157.306 333.237 157.444 333.266C157.582 333.295 157.713 333.35 157.83 333.43C157.947 333.51 158.047 333.611 158.124 333.729C158.201 333.847 158.254 333.98 158.281 334.118L160.865 348.32C161.252 350.462 162.213 352.459 163.646 354.098C165.078 355.738 166.928 356.96 169 357.634L236.202 379.544C236.391 379.606 236.559 379.719 236.688 379.87C236.817 380.021 236.901 380.205 236.932 380.401L245.019 432.356C245.041 432.496 245.036 432.638 245.003 432.776C244.969 432.913 244.909 433.042 244.826 433.156C244.743 433.27 244.637 433.367 244.517 433.44C244.396 433.513 244.262 433.562 244.122 433.583C244.067 433.593 244.011 433.598 243.955 433.599Z" fill="#262424"/>
<path d="M159.374 347.244C159.132 347.246 158.896 347.167 158.705 347.018C158.514 346.87 158.379 346.661 158.322 346.426C158.264 346.191 158.288 345.944 158.389 345.724C158.491 345.505 158.663 345.326 158.879 345.216L162.361 343.424C163.24 342.968 163.96 342.255 164.425 341.381C164.889 340.506 165.076 339.511 164.961 338.528L163.856 329.313C163.839 329.173 163.85 329.032 163.888 328.896C163.927 328.76 163.991 328.633 164.078 328.523C164.166 328.412 164.274 328.319 164.397 328.25C164.52 328.181 164.655 328.137 164.795 328.12C164.935 328.104 165.077 328.115 165.213 328.153C165.349 328.191 165.476 328.255 165.587 328.342C165.698 328.429 165.79 328.537 165.86 328.66C165.929 328.783 165.973 328.919 165.99 329.058L167.094 338.277C167.26 339.695 166.99 341.13 166.32 342.391C165.649 343.652 164.611 344.679 163.342 345.336L159.868 347.125C159.716 347.204 159.546 347.245 159.374 347.244Z" fill="#262424"/>
<path d="M255.317 375.003V382.242C254.986 382.261 254.655 382.273 254.32 382.273C251.528 382.273 248.788 381.52 246.388 380.094C243.988 378.669 242.018 376.623 240.684 374.173C239.351 371.722 238.703 368.958 238.81 366.17C238.917 363.383 239.775 360.677 241.292 358.335L244.802 359.69C247.897 360.883 250.559 362.985 252.436 365.718C254.313 368.451 255.318 371.688 255.317 375.003Z" fill="#80AFFD"/>
<path d="M254.834 450.782H233.898C233.322 450.782 232.766 450.568 232.338 450.183C231.91 449.797 231.64 449.267 231.581 448.694L229.938 432.831C229.905 432.507 229.94 432.179 230.041 431.87C230.142 431.56 230.307 431.275 230.525 431.033C230.744 430.792 231.011 430.598 231.309 430.466C231.607 430.334 231.929 430.265 232.255 430.265H255.656C255.971 430.266 256.284 430.33 256.574 430.454C256.864 430.579 257.126 430.761 257.343 430.99C257.561 431.219 257.73 431.489 257.839 431.785C257.949 432.081 257.997 432.396 257.98 432.711L257.171 448.575C257.14 449.172 256.88 449.735 256.445 450.146C256.01 450.557 255.433 450.784 254.834 450.782Z" fill="#FEA151"/>
<path d="M291.247 499.92H236.351C236.351 499.92 235.952 497.407 235.701 492.837C235.192 482.277 235.66 471.693 237.101 461.219H259.432C259.432 461.219 265.015 475.668 273.828 481.249C280.895 485.722 288.643 485.44 290.776 492.837C291.319 494.666 291.502 496.964 291.247 499.92Z" fill="#B0CDFE"/>
<path d="M291.247 499.92H236.351C236.351 499.92 235.952 497.406 235.701 492.837H290.793C291.319 494.666 291.503 496.964 291.247 499.92Z" fill="white"/>
<path d="M291.248 500.976H236.352C236.095 500.976 235.847 500.885 235.653 500.718C235.458 500.552 235.33 500.321 235.291 500.068C235.291 499.964 234.892 497.447 234.629 492.897C234.62 492.751 234.641 492.605 234.691 492.468C234.741 492.33 234.819 492.204 234.92 492.098C235.02 491.992 235.141 491.907 235.276 491.849C235.41 491.791 235.555 491.762 235.702 491.762H290.793C291.026 491.762 291.253 491.837 291.44 491.977C291.626 492.118 291.762 492.315 291.826 492.539C292.416 494.574 292.576 497.02 292.32 500.012C292.293 500.277 292.168 500.522 291.97 500.7C291.771 500.878 291.514 500.977 291.248 500.976ZM237.293 498.829H290.247C290.369 497.178 290.271 495.518 289.956 493.893H236.834C236.998 496.22 237.177 497.897 237.293 498.849V498.829Z" fill="#262424"/>
<path d="M137.775 185.516C137.775 185.516 140.455 193.129 151.438 197.142C163.668 201.611 169.654 183.718 169.788 167.942C169.922 152.166 131.347 153.131 137.775 185.516Z" fill="white"/>
<path d="M155.136 200.684C153.714 200.67 152.304 200.397 150.968 199.876C139.486 195.548 136.556 187.327 136.436 186.981C136.413 186.915 136.395 186.848 136.381 186.779C133.511 171.89 139.511 164.398 143.37 161.255C150.314 155.571 159.549 155.566 165.086 158.506C169.079 160.633 171.241 164.1 171.211 168.312C171.126 178.904 168.45 193.187 161.227 198.621C159.452 199.976 157.32 200.698 155.136 200.684ZM138.997 186.083C139.336 186.96 142.137 193.527 151.867 197.17C154.782 198.27 157.328 197.967 159.634 196.244C165.625 191.767 168.41 178.973 168.495 168.285C168.53 164.164 165.61 161.994 163.863 161.069C159.19 158.591 150.988 158.613 144.982 163.526C140.929 166.849 136.601 173.459 138.997 186.083Z" fill="#262424"/>
<path d="M138.21 187.875L134.207 204.985L153.087 206.378L154.133 188.434L138.21 187.875Z" fill="white"/>
<path d="M153.231 207.801H153.132L135.445 206.403C135.253 206.388 135.066 206.329 134.897 206.232C134.728 206.134 134.582 205.999 134.467 205.837C134.353 205.674 134.273 205.488 134.235 205.29C134.196 205.093 134.198 204.889 134.242 204.692L137.992 187.539C138.063 187.222 138.236 186.941 138.483 186.743C138.729 186.545 139.034 186.442 139.345 186.452L154.266 187.014C154.444 187.02 154.62 187.064 154.781 187.142C154.943 187.221 155.089 187.333 155.209 187.471C155.329 187.609 155.421 187.77 155.48 187.946C155.54 188.122 155.565 188.309 155.554 188.495L154.559 206.512C154.533 206.862 154.382 207.188 154.136 207.427C153.89 207.666 153.567 207.799 153.231 207.801ZM137.201 203.71L151.973 204.88L152.799 189.711L140.364 189.244L137.201 203.71Z" fill="#262424"/>
<path d="M148.326 146.553C148.326 146.553 139.295 141.493 129.733 150.779C120.17 160.065 129.333 182.544 138.112 190.722H154.576L165.332 170.819L170.434 176.092C172.889 173.249 174.53 169.764 175.175 166.022C175.82 162.28 175.443 158.429 174.086 154.893C169.418 142.328 152.042 145.187 148.326 146.553Z" fill="#262424"/>
<path d="M165.15 170.912L165.207 170.725C165.207 170.725 169.044 163.653 174.8 167.866C180.556 172.079 173.651 188.28 164.437 182.294C163.807 178.495 164.051 174.589 165.15 170.912Z" fill="white"/>
<path d="M168.452 185.029C166.745 184.999 165.08 184.471 163.642 183.504C163.484 183.403 163.348 183.267 163.244 183.107C163.139 182.946 163.069 182.764 163.037 182.573C162.363 178.536 162.625 174.388 163.802 170.48L163.86 170.292C163.888 170.198 163.925 170.108 163.971 170.023C164.059 169.865 166.146 166.127 169.726 165.278C171.693 164.81 173.679 165.278 175.631 166.702C179.404 169.428 178.862 175.764 176.197 180.071C174.187 183.321 171.402 185.029 168.452 185.029ZM165.512 181.469C170.143 184.012 173.175 179.944 174.013 178.561C176.018 175.316 176.556 170.679 174.153 168.94C172.812 167.968 171.552 167.638 170.307 167.922C168.142 168.431 166.626 170.724 166.301 171.253C165.3 174.555 165.03 178.052 165.512 181.48V181.469Z" fill="#262424"/>
<path d="M128.512 209.72L131.002 199.79C131.002 199.79 142.181 194.873 157.832 200.643L159.824 210.647L128.512 209.72Z" fill="#B0CDFE"/>
<path d="M114.87 212.532C114.87 212.532 128.189 207.058 148.818 208.548C169.447 210.038 181.917 216.061 181.917 216.061C181.917 216.061 189.33 250.903 189.474 260.778C189.617 270.654 177.586 278.952 177.586 278.952L182.67 335.401H87.0469C87.0469 335.401 88.5503 247.409 114.87 212.532Z" fill="#FEA151"/>
<path d="M92.4264 279.263C92.368 279.267 92.3094 279.267 92.251 279.263C92.1116 279.24 91.9779 279.191 91.8577 279.117C91.7375 279.043 91.6331 278.946 91.5505 278.831C91.4679 278.717 91.4087 278.588 91.3763 278.45C91.3439 278.313 91.3389 278.171 91.3617 278.032C96.3584 247.445 103.979 225.192 114.008 211.902C114.093 211.789 114.199 211.695 114.321 211.623C114.442 211.552 114.577 211.505 114.716 211.485C114.856 211.466 114.998 211.474 115.135 211.509C115.271 211.544 115.399 211.606 115.512 211.691C115.624 211.776 115.719 211.882 115.791 212.003C115.862 212.124 115.909 212.259 115.929 212.398C115.948 212.537 115.94 212.679 115.905 212.816C115.87 212.952 115.808 213.08 115.723 213.193C105.905 226.203 98.4201 248.138 93.4792 278.378C93.4353 278.625 93.3058 278.849 93.1134 279.011C92.921 279.173 92.6778 279.262 92.4264 279.263Z" fill="#262424"/>
<path d="M180.083 330.257H90.1978C89.9127 330.257 89.6394 330.144 89.4378 329.943C89.2363 329.741 89.123 329.468 89.123 329.184C89.123 328.899 89.2363 328.626 89.4378 328.424C89.6394 328.223 89.9127 328.11 90.1978 328.11H180.083C180.368 328.11 180.641 328.223 180.843 328.424C181.044 328.626 181.158 328.899 181.158 329.184C181.158 329.468 181.044 329.741 180.843 329.943C180.641 330.144 180.368 330.257 180.083 330.257Z" fill="#262424"/>
<path d="M122.528 155.519L121.421 162.896C121.342 163.446 121.456 164.01 121.741 164.468C122.025 164.927 122.457 165.247 122.948 165.36L128.174 166.486C128.435 166.542 128.704 166.538 128.964 166.474C129.223 166.409 129.469 166.287 129.684 166.113C129.9 165.939 130.081 165.718 130.216 165.463C130.352 165.208 130.439 164.925 130.473 164.631L131.345 156.947C131.408 156.384 131.27 155.816 130.961 155.364C130.652 154.913 130.196 154.615 129.691 154.534L124.7 153.734C124.201 153.661 123.696 153.806 123.291 154.139C122.886 154.472 122.612 154.967 122.528 155.519Z" fill="white"/>
<path d="M128.615 167.948C128.409 167.948 128.203 167.926 128 167.883L122.61 166.745C121.778 166.569 121.042 166.046 120.557 165.288C120.073 164.53 119.879 163.596 120.015 162.684L121.157 155.258C121.298 154.342 121.762 153.524 122.449 152.976C123.137 152.429 123.994 152.196 124.837 152.328L129.985 153.136C130.832 153.268 131.597 153.758 132.115 154.5C132.634 155.241 132.864 156.175 132.756 157.1L131.857 164.857C131.754 165.714 131.368 166.5 130.771 167.069C130.175 167.638 129.408 167.951 128.615 167.948ZM124.371 155.014C124.193 155.015 124.022 155.084 123.886 155.209C123.751 155.335 123.66 155.508 123.63 155.699L122.489 163.126C122.455 163.336 122.499 163.553 122.61 163.729C122.722 163.905 122.893 164.026 123.085 164.065L128.475 165.202C128.576 165.224 128.68 165.223 128.781 165.199C128.882 165.175 128.977 165.129 129.06 165.063C129.143 164.997 129.214 164.913 129.266 164.817C129.319 164.72 129.352 164.613 129.365 164.502L130.278 156.74C130.302 156.527 130.249 156.312 130.13 156.141C130.01 155.971 129.835 155.858 129.64 155.826L124.492 155.019L124.371 155.014Z" fill="#262424"/>
<path d="M97.9492 253.459C62.7784 270.068 52.5512 231.813 62.2341 227.65C71.9169 223.488 86.5735 214.879 79.2127 198.738C71.852 182.597 67.1429 155.981 86.6434 145.295C106.144 134.609 122.788 156.225 122.793 156.235C122.858 156.415 122.943 159.344 121.22 163.497C113.305 164.765 109.235 171.447 113.974 187.139C119.018 203.899 133.125 236.849 97.9492 253.459Z" fill="#262424"/>
<path d="M268.676 307.882C266.391 310.272 255.025 308.901 255.025 308.901C255.025 308.901 250.392 310.272 248.346 309.698C246.3 309.124 243.56 305.997 243.56 305.997C243.56 305.997 187.005 313.367 184.25 301.217L169.838 273.048L195.759 259.34L205.64 283.736L245.606 292.771L247.468 292.305C249.279 291.82 251.141 291.553 253.015 291.509C255.915 291.451 258.771 292.214 261.254 293.71C263.738 295.206 265.746 297.374 267.049 299.962C268.688 303.129 269.932 306.571 268.676 307.882Z" fill="white"/>
<path d="M249.562 310.917C249.057 310.926 248.553 310.87 248.062 310.75C246.184 310.24 244.023 308.101 243.13 307.164C240.338 307.507 227.713 308.985 214.952 309.268C195.033 309.71 184.644 307.212 183.225 301.623L168.869 273.546C168.739 273.295 168.715 273.003 168.8 272.733C168.885 272.464 169.073 272.239 169.323 272.108L195.244 258.4C195.377 258.329 195.523 258.287 195.673 258.277C195.823 258.266 195.974 258.287 196.115 258.339C196.257 258.39 196.386 258.471 196.494 258.576C196.602 258.68 196.687 258.806 196.743 258.946L206.414 282.82L245.606 291.668L247.201 291.269C249.087 290.759 251.026 290.474 252.979 290.421C256.081 290.361 259.136 291.178 261.793 292.777C264.45 294.377 266.601 296.693 267.997 299.46C270.418 304.209 270.873 307.121 269.429 308.622C266.985 311.168 257.506 310.268 255.073 309.989C254.287 310.224 251.655 310.917 249.562 310.917ZM243.552 304.942C243.703 304.943 243.853 304.976 243.99 305.04C244.128 305.103 244.25 305.194 244.35 305.308C245.331 306.431 247.361 308.336 248.617 308.678C249.873 309.021 253.031 308.364 254.71 307.882C254.85 307.84 254.996 307.828 255.141 307.846C259.643 308.383 266.57 308.523 267.902 307.149C268.013 307.033 268.879 305.882 266.107 300.44C264.894 298.034 263.026 296.02 260.718 294.628C258.41 293.236 255.755 292.523 253.059 292.572C251.269 292.627 249.491 292.894 247.763 293.369L245.881 293.823C245.717 293.862 245.547 293.862 245.383 293.823L205.417 284.784C205.248 284.746 205.09 284.667 204.959 284.554C204.827 284.442 204.724 284.299 204.659 284.139L195.224 260.846L171.273 273.506L185.195 300.755C185.236 300.834 185.266 300.919 185.286 301.006C187.137 309.16 221.918 307.778 243.409 304.957L243.552 304.942Z" fill="#262424"/>
<path d="M182.839 217.07L200.716 260.6C195.759 276.694 186.105 284.263 168.172 276.857C168.172 276.857 157.313 247.131 157.851 229.917C158.39 212.703 176.1 209.68 182.839 217.07Z" fill="#FEA151"/>
<path d="M165.698 270.602C165.47 270.602 165.248 270.53 165.064 270.396C164.88 270.262 164.743 270.073 164.673 269.857C161.563 260.121 156.398 241.971 156.773 229.888C157.001 222.526 160.426 216.694 166.169 213.894C166.424 213.769 166.72 213.751 166.989 213.844C167.258 213.936 167.479 214.132 167.604 214.388C167.729 214.643 167.747 214.938 167.654 215.207C167.562 215.476 167.366 215.697 167.11 215.822C164.171 217.256 159.198 221.001 158.919 229.952C158.552 241.72 163.648 259.595 166.719 269.199C166.771 269.36 166.784 269.531 166.758 269.698C166.731 269.865 166.666 270.024 166.566 270.16C166.466 270.297 166.336 270.408 166.185 270.485C166.034 270.562 165.867 270.602 165.698 270.602Z" fill="#262424"/>
<path d="M179.911 275.462C176.199 275.402 172.557 274.445 169.295 272.673C169.05 272.53 168.871 272.294 168.799 272.019C168.727 271.744 168.767 271.451 168.911 271.205C169.054 270.96 169.29 270.781 169.566 270.709C169.841 270.637 170.134 270.677 170.38 270.821C170.452 270.865 177.762 275.028 184.983 272.458C189.853 270.717 193.637 266.335 196.237 259.428C196.274 259.281 196.342 259.144 196.435 259.026C196.529 258.907 196.647 258.81 196.781 258.74C196.915 258.67 197.062 258.63 197.213 258.621C197.364 258.612 197.515 258.635 197.656 258.688C197.798 258.741 197.926 258.824 198.033 258.93C198.141 259.037 198.224 259.165 198.278 259.306C198.332 259.447 198.356 259.597 198.348 259.748C198.34 259.899 198.3 260.046 198.231 260.18C195.396 267.726 191.169 272.53 185.661 274.494C183.814 275.142 181.869 275.469 179.911 275.462Z" fill="#262424"/>
<path d="M233.583 499.921C234.253 499.92 234.915 499.775 235.523 499.496C236.132 499.216 236.673 498.809 237.109 498.301C237.546 497.794 237.868 497.198 238.053 496.555C238.237 495.912 238.281 495.236 238.181 494.575L220.634 379.143H142.689L125.142 494.575C125.042 495.236 125.086 495.912 125.271 496.555C125.455 497.198 125.777 497.794 126.214 498.301C126.65 498.809 127.191 499.216 127.8 499.496C128.409 499.775 129.071 499.92 129.74 499.921C130.805 499.921 131.837 499.556 132.665 498.888C133.493 498.219 134.067 497.287 134.29 496.248L156.746 391.628H206.581L229.037 496.248C229.26 497.287 229.833 498.218 230.66 498.886C231.487 499.555 232.519 499.92 233.583 499.921Z" fill="#FEA151"/>
<path d="M218.777 449.538C218.532 449.537 218.294 449.453 218.103 449.298C217.913 449.144 217.78 448.929 217.729 448.689L214.211 432.296C214.182 432.159 214.18 432.016 214.205 431.878C214.231 431.739 214.283 431.607 214.36 431.488C214.436 431.37 214.536 431.268 214.652 431.188C214.768 431.108 214.899 431.051 215.037 431.022C215.175 430.992 215.317 430.99 215.456 431.015C215.595 431.041 215.727 431.093 215.846 431.17C215.964 431.247 216.067 431.346 216.147 431.462C216.227 431.578 216.283 431.708 216.313 431.846L219.83 448.239C219.863 448.396 219.861 448.558 219.824 448.714C219.786 448.869 219.715 449.015 219.614 449.139C219.513 449.264 219.385 449.364 219.241 449.433C219.096 449.502 218.938 449.538 218.777 449.538Z" fill="#262424"/>
<path d="M180.585 499.921C181.255 499.92 181.917 499.775 182.525 499.496C183.134 499.216 183.675 498.809 184.112 498.301C184.548 497.794 184.87 497.198 185.055 496.555C185.24 495.912 185.283 495.236 185.183 494.575L167.637 379.143H89.6829L72.1366 494.575C72.0362 495.236 72.0799 495.912 72.2648 496.555C72.4496 497.198 72.7713 497.794 73.2079 498.301C73.6444 498.809 74.1855 499.216 74.7942 499.496C75.4028 499.775 76.0647 499.92 76.7345 499.921C77.7991 499.921 78.8315 499.556 79.6595 498.888C80.4875 498.219 81.0611 497.287 81.2846 496.248L103.74 391.628H153.584L176.039 496.248C176.262 497.287 176.835 498.218 177.662 498.886C178.49 499.555 179.521 499.92 180.585 499.921Z" fill="#FEA151"/>
<path d="M169.316 391.193C169.059 391.193 168.811 391.101 168.616 390.933C168.422 390.766 168.293 390.534 168.255 390.281L166.588 379.305C166.546 379.024 166.616 378.737 166.785 378.507C166.954 378.278 167.208 378.125 167.49 378.082C167.771 378.04 168.059 378.11 168.288 378.279C168.518 378.448 168.671 378.701 168.714 378.983L170.381 389.958C170.402 390.097 170.396 390.24 170.362 390.377C170.329 390.514 170.268 390.643 170.184 390.756C170.101 390.87 169.995 390.966 169.874 391.039C169.753 391.112 169.619 391.16 169.48 391.181C169.425 391.189 169.371 391.193 169.316 391.193Z" fill="#262424"/>
<path d="M154.573 397.332C154.327 397.331 154.09 397.247 153.899 397.092C153.708 396.938 153.576 396.723 153.524 396.483L152.727 392.703H142.721C142.436 392.703 142.163 392.59 141.961 392.388C141.76 392.187 141.646 391.914 141.646 391.629C141.646 391.345 141.76 391.072 141.961 390.87C142.163 390.669 142.436 390.556 142.721 390.556H153.576C153.822 390.556 154.06 390.64 154.251 390.795C154.442 390.949 154.574 391.164 154.625 391.404L155.618 396.033C155.651 396.189 155.649 396.351 155.612 396.506C155.575 396.661 155.504 396.806 155.404 396.93C155.304 397.055 155.177 397.155 155.034 397.225C154.89 397.294 154.733 397.331 154.573 397.332Z" fill="#262424"/>
<path d="M88.0216 270.259H158.159C160.524 270.259 162.813 271.094 164.623 272.615C166.433 274.135 167.647 276.245 168.053 278.573L182.648 362.506C182.874 363.808 183.553 364.988 184.566 365.838C185.579 366.688 186.86 367.153 188.183 367.151H216.856C219.016 367.151 221.088 368.008 222.616 369.534C224.144 371.061 225.003 373.131 225.003 375.289C225.003 376.358 224.792 377.416 224.382 378.404C223.973 379.391 223.373 380.289 222.616 381.044C221.86 381.8 220.962 382.4 219.973 382.809C218.985 383.218 217.925 383.428 216.856 383.428H90.1072C87.8013 383.431 85.5649 382.64 83.774 381.189C81.9831 379.738 80.7469 377.715 80.2733 375.461C76.9235 359.155 70.7464 320.167 78.1199 278.509C78.5361 276.191 79.7569 274.093 81.5677 272.584C83.3785 271.075 85.6636 270.252 88.0216 270.259Z" fill="white"/>
<path d="M216.847 384.5H90.1064C87.5537 384.491 85.0814 383.608 83.1011 381.999C81.1209 380.389 79.7524 378.151 79.2237 375.656C76.0813 360.474 69.5772 320.601 77.0783 278.318C77.5352 275.753 78.8828 273.431 80.8842 271.76C82.8856 270.089 85.4126 269.177 88.0208 269.184H158.158C160.778 269.18 163.315 270.102 165.32 271.787C167.325 273.471 168.668 275.811 169.113 278.39L183.712 362.343C183.893 363.394 184.441 364.348 185.258 365.035C186.076 365.722 187.11 366.098 188.178 366.095H216.851C219.213 366.216 221.438 367.239 223.067 368.952C224.695 370.665 225.603 372.937 225.603 375.3C225.602 377.662 224.693 379.934 223.064 381.647C221.434 383.359 219.209 384.38 216.847 384.5ZM88.0407 271.331C85.9357 271.32 83.8945 272.052 82.2765 273.397C80.6585 274.743 79.5676 276.615 79.1958 278.685C71.7386 320.613 78.2068 360.164 81.3093 375.222C81.7345 377.234 82.8373 379.039 84.4339 380.337C86.0305 381.635 88.0242 382.346 90.0825 382.353H216.847C217.79 382.375 218.728 382.209 219.605 381.864C220.483 381.519 221.283 381.002 221.957 380.344C222.632 379.686 223.168 378.899 223.534 378.031C223.9 377.163 224.089 376.23 224.089 375.288C224.089 374.346 223.9 373.413 223.534 372.545C223.168 371.676 222.632 370.89 221.957 370.232C221.283 369.573 220.483 369.057 219.605 368.712C218.728 368.367 217.79 368.2 216.847 368.223H188.182C186.609 368.225 185.085 367.671 183.881 366.659C182.677 365.647 181.87 364.242 181.603 362.693L167.007 278.76C166.649 276.68 165.565 274.793 163.947 273.434C162.33 272.075 160.284 271.331 158.17 271.335H88.0208L88.0407 271.331Z" fill="#262424"/>
<path d="M423.475 439.268L428.467 460.067L439.892 459.238L438.234 436.408L423.475 439.268Z" fill="white"/>
<path d="M428.464 461.138C428.222 461.138 427.987 461.057 427.797 460.907C427.606 460.758 427.472 460.549 427.415 460.314L422.426 439.515C422.392 439.373 422.387 439.226 422.412 439.083C422.436 438.939 422.49 438.802 422.569 438.679C422.648 438.557 422.751 438.452 422.871 438.37C422.992 438.288 423.128 438.232 423.271 438.204L438.026 435.344C438.176 435.315 438.33 435.318 438.478 435.353C438.627 435.387 438.766 435.453 438.887 435.546C439.008 435.639 439.108 435.756 439.18 435.89C439.253 436.024 439.296 436.172 439.306 436.324L440.965 459.155C440.985 459.439 440.891 459.72 440.704 459.936C440.518 460.151 440.253 460.284 439.968 460.306L428.539 461.134H428.46L428.464 461.138ZM424.787 440.104L429.301 458.92L438.74 458.234L437.245 437.69L424.787 440.104Z" fill="#262424"/>
<path d="M447.911 499.92H396.616C396.127 497.384 395.976 494.795 396.165 492.219C396.456 488.793 397.581 485.14 400.747 483.399C402.949 482.138 404.999 480.63 406.86 478.906C412.551 473.763 418.776 465.6 423.449 455.187H443.596C445.766 467.436 447.151 479.81 447.743 492.235C447.851 494.777 447.911 497.354 447.911 499.92Z" fill="#B0CDFE"/>
<path d="M447.911 499.919H396.616C396.127 497.383 395.976 494.794 396.165 492.219H447.747C447.851 494.776 447.911 497.354 447.911 499.919Z" fill="white"/>
<path d="M447.913 500.999H396.618C396.371 500.999 396.132 500.914 395.94 500.759C395.749 500.604 395.616 500.388 395.565 500.147C395.051 497.507 394.893 494.81 395.094 492.128C395.117 491.858 395.241 491.608 395.44 491.426C395.64 491.243 395.901 491.143 396.171 491.144H447.749C448.027 491.144 448.294 491.252 448.494 491.444C448.695 491.636 448.814 491.898 448.826 492.175C448.934 494.833 448.989 497.438 448.989 499.92C448.99 500.061 448.963 500.202 448.909 500.333C448.855 500.463 448.776 500.583 448.676 500.683C448.576 500.783 448.457 500.863 448.326 500.917C448.195 500.971 448.055 500.999 447.913 500.999ZM397.519 498.844H446.832C446.832 497.047 446.78 495.191 446.712 493.299H397.18C397.117 495.154 397.232 497.011 397.523 498.844H397.519Z" fill="#262424"/>
<path d="M407.026 499.92H396.621C396.133 497.384 395.981 494.795 396.171 492.22C396.462 488.794 397.586 485.141 400.753 483.4C402.954 482.138 405.005 480.631 406.866 478.906C405.917 482.049 404.773 488.838 407.026 499.92Z" fill="white"/>
<path d="M407.026 501H396.622C396.375 500.999 396.136 500.915 395.944 500.759C395.752 500.604 395.62 500.388 395.569 500.147C395.055 497.507 394.897 494.81 395.098 492.128C395.497 487.431 397.272 484.089 400.234 482.455C402.364 481.235 404.347 479.775 406.144 478.105C406.319 477.948 406.541 477.853 406.775 477.833C407.009 477.813 407.243 477.87 407.442 477.995C407.641 478.121 407.794 478.307 407.877 478.527C407.96 478.747 407.969 478.987 407.903 479.213C407.022 482.18 405.869 488.774 408.086 499.705C408.119 499.862 408.116 500.024 408.078 500.18C408.04 500.336 407.967 500.481 407.866 500.605C407.764 500.729 407.636 500.829 407.49 500.897C407.345 500.966 407.186 501.001 407.026 501ZM397.523 498.844H405.718C404.274 491.052 404.521 485.427 405.12 481.782C403.906 482.734 402.621 483.59 401.275 484.344C398.942 485.63 397.587 488.327 397.248 492.311C397.087 494.492 397.179 496.684 397.523 498.844Z" fill="#262424"/>
<path d="M426.572 481.859C429.358 481.859 431.616 478.45 431.616 474.246C431.616 470.041 429.358 466.633 426.572 466.633C423.786 466.633 421.527 470.041 421.527 474.246C421.527 478.45 423.786 481.859 426.572 481.859Z" fill="white"/>
<path d="M426.573 482.937C423.139 482.937 420.447 479.12 420.447 474.244C420.447 469.368 423.139 465.556 426.573 465.556C430.006 465.556 432.698 469.372 432.698 474.244C432.698 479.116 430.006 482.937 426.573 482.937ZM426.573 467.711C424.423 467.711 422.605 470.703 422.605 474.244C422.605 477.786 424.423 480.782 426.573 480.782C428.722 480.782 430.54 477.79 430.54 474.244C430.54 470.699 428.722 467.711 426.573 467.711Z" fill="#262424"/>
<path d="M437.69 491.227C437.412 491.227 437.145 491.12 436.945 490.928C436.745 490.735 436.628 490.473 436.617 490.195C435.856 469.879 433.144 457.131 433.116 456.991C433.086 456.854 433.084 456.711 433.109 456.572C433.134 456.434 433.187 456.301 433.263 456.183C433.34 456.064 433.439 455.962 433.555 455.881C433.671 455.801 433.802 455.744 433.94 455.715C434.078 455.685 434.22 455.682 434.359 455.708C434.498 455.733 434.63 455.785 434.749 455.861C434.868 455.938 434.97 456.037 435.051 456.153C435.131 456.269 435.188 456.399 435.218 456.537C435.246 456.665 438.009 469.572 438.763 490.116C438.768 490.257 438.746 490.397 438.697 490.529C438.648 490.661 438.573 490.782 438.477 490.885C438.381 490.989 438.266 491.072 438.138 491.131C438.009 491.189 437.871 491.222 437.73 491.227H437.69Z" fill="#262424"/>
<path d="M443.997 491.227C443.719 491.227 443.452 491.12 443.252 490.928C443.052 490.735 442.934 490.473 442.924 490.195C442.162 469.879 439.451 457.131 439.423 456.991C439.362 456.713 439.415 456.422 439.57 456.183C439.724 455.943 439.968 455.775 440.246 455.715C440.525 455.654 440.816 455.707 441.056 455.861C441.296 456.016 441.464 456.259 441.524 456.537C441.552 456.665 444.316 469.572 445.07 490.116C445.075 490.257 445.052 490.397 445.003 490.529C444.954 490.661 444.88 490.782 444.784 490.885C444.688 490.989 444.572 491.072 444.444 491.131C444.316 491.189 444.178 491.222 444.037 491.227H443.997Z" fill="#262424"/>
<path d="M381.037 228.788C381.037 228.788 388.147 331.058 392.442 348.324C396.736 365.589 420.946 441.319 420.946 441.319L452.271 435.85L432.359 341.097C432.359 341.097 437.707 278.553 436.818 259.634C435.929 240.716 433.077 193.481 405.924 196.572C378.771 199.664 381.037 228.788 381.037 228.788Z" fill="#B0CDFE"/>
<path d="M407.132 240.541L423.287 238.7C423.933 238.626 424.582 238.812 425.091 239.216C425.601 239.62 425.928 240.21 426.002 240.855L427.657 255.364C427.714 255.862 427.616 256.366 427.377 256.807C427.138 257.248 426.77 257.605 426.321 257.83L418.589 261.71C418.065 261.973 417.463 262.04 416.894 261.897L408.464 259.798C407.979 259.677 407.543 259.411 407.214 259.036C406.885 258.661 406.678 258.194 406.621 257.699L404.974 243.25C404.902 242.605 405.088 241.957 405.492 241.449C405.897 240.942 406.486 240.615 407.132 240.541Z" fill="white"/>
<path d="M393.953 253.146C393.816 253.146 393.681 253.12 393.554 253.07L390.292 251.775C389.394 251.419 388.609 250.826 388.022 250.059C387.435 249.292 387.067 248.38 386.958 247.421L385.235 232.327C385.203 232.044 385.285 231.76 385.462 231.538C385.639 231.315 385.898 231.172 386.181 231.14C386.463 231.107 386.748 231.189 386.97 231.366C387.193 231.543 387.337 231.801 387.369 232.084L389.092 247.178C389.156 247.752 389.376 248.298 389.727 248.756C390.079 249.215 390.548 249.57 391.086 249.783L394.348 251.078C394.579 251.17 394.772 251.34 394.892 251.558C395.012 251.777 395.052 252.03 395.005 252.275C394.958 252.519 394.828 252.74 394.636 252.899C394.444 253.058 394.202 253.145 393.953 253.146Z" fill="#262424"/>
<path d="M427.77 433.723C427.537 433.724 427.31 433.648 427.124 433.508C426.937 433.368 426.802 433.171 426.737 432.947L400.9 343.592C400.881 343.526 400.867 343.458 400.861 343.389L391.071 231.634C391.046 231.35 391.135 231.068 391.318 230.85C391.501 230.632 391.764 230.495 392.047 230.471C392.331 230.446 392.614 230.535 392.832 230.718C393.05 230.901 393.187 231.163 393.212 231.447L402.994 343.098L428.803 432.333C428.852 432.494 428.863 432.665 428.835 432.831C428.806 432.997 428.739 433.154 428.638 433.289C428.538 433.424 428.407 433.534 428.256 433.609C428.105 433.685 427.939 433.724 427.77 433.723Z" fill="#262424"/>
<path d="M422.75 434.719C422.479 434.725 422.216 434.629 422.013 434.449C421.811 434.27 421.684 434.021 421.657 433.752C421.631 433.482 421.708 433.213 421.872 432.998C422.036 432.783 422.276 432.638 422.542 432.592L447.51 427.636C447.79 427.58 448.08 427.638 448.317 427.797C448.554 427.955 448.719 428.201 448.774 428.48C448.83 428.76 448.772 429.05 448.613 429.287C448.455 429.524 448.208 429.688 447.929 429.743L422.961 434.699C422.891 434.713 422.821 434.719 422.75 434.719Z" fill="#262424"/>
<path d="M361.148 438.703L364.618 459.809H376.075V436.918L361.148 438.703Z" fill="white"/>
<path d="M376.076 460.888H364.619C364.363 460.889 364.115 460.798 363.92 460.632C363.724 460.466 363.595 460.236 363.554 459.984L360.085 438.87C360.061 438.727 360.067 438.58 360.101 438.439C360.136 438.297 360.199 438.165 360.287 438.048C360.375 437.932 360.485 437.835 360.611 437.763C360.737 437.69 360.877 437.644 361.022 437.627L375.948 435.843C376.099 435.826 376.252 435.841 376.396 435.887C376.541 435.933 376.674 436.01 376.787 436.111C376.9 436.212 376.99 436.336 377.052 436.474C377.113 436.613 377.145 436.763 377.145 436.914V459.805C377.146 459.946 377.119 460.086 377.066 460.217C377.012 460.348 376.934 460.467 376.835 460.568C376.736 460.668 376.617 460.748 376.487 460.803C376.357 460.858 376.217 460.887 376.076 460.888ZM365.536 458.733H374.999V438.133L362.398 439.639L365.536 458.733Z" fill="#262424"/>
<path d="M384.905 499.92H333.61C333.121 497.384 332.97 494.795 333.159 492.219C333.45 488.793 334.575 485.14 337.741 483.399C339.943 482.138 341.994 480.63 343.854 478.906C349.545 473.763 355.77 465.6 360.444 455.187H380.59C382.76 467.436 384.145 479.81 384.737 492.235C384.845 494.777 384.905 497.354 384.905 499.92Z" fill="#B0CDFE"/>
<path d="M384.905 499.919H333.61C333.121 497.383 332.97 494.794 333.159 492.219H384.741C384.845 494.776 384.905 497.354 384.905 499.919Z" fill="white"/>
<path d="M384.905 500.999H333.61C333.363 500.999 333.124 500.914 332.932 500.759C332.741 500.604 332.608 500.388 332.557 500.147C332.044 497.507 331.885 494.81 332.086 492.128C332.109 491.858 332.233 491.608 332.432 491.426C332.632 491.243 332.893 491.143 333.163 491.144H384.741C385.019 491.144 385.286 491.252 385.486 491.444C385.687 491.636 385.806 491.898 385.818 492.175C385.926 494.833 385.981 497.438 385.981 499.92C385.982 500.061 385.955 500.202 385.901 500.333C385.847 500.463 385.768 500.583 385.668 500.683C385.568 500.783 385.449 500.863 385.318 500.917C385.187 500.971 385.047 500.999 384.905 500.999ZM334.511 498.844H383.82C383.82 497.047 383.768 495.191 383.7 493.299H334.172C334.108 495.154 334.222 497.011 334.511 498.844Z" fill="#262424"/>
<path d="M344.014 499.92H333.61C333.121 497.384 332.97 494.795 333.159 492.22C333.45 488.794 334.575 485.141 337.741 483.4C339.943 482.138 341.994 480.631 343.854 478.906C342.909 482.049 341.765 488.838 344.014 499.92Z" fill="white"/>
<path d="M344.014 500.999H333.606C333.359 500.999 333.12 500.915 332.928 500.759C332.737 500.604 332.604 500.388 332.553 500.147C332.04 497.507 331.881 494.81 332.082 492.128C332.481 487.431 334.256 484.089 337.219 482.455C339.348 481.235 341.331 479.775 343.129 478.105C343.304 477.948 343.525 477.853 343.759 477.833C343.993 477.813 344.228 477.87 344.427 477.995C344.625 478.121 344.778 478.307 344.861 478.527C344.944 478.747 344.953 478.987 344.887 479.213C344.006 482.184 342.858 488.793 345.071 499.705C345.103 499.861 345.101 500.023 345.063 500.179C345.025 500.334 344.952 500.48 344.851 500.604C344.75 500.728 344.622 500.828 344.477 500.896C344.333 500.965 344.174 501 344.014 500.999ZM334.511 498.844H342.706C341.262 491.052 341.51 485.427 342.108 481.782C340.895 482.734 339.609 483.59 338.264 484.344C335.931 485.63 334.575 488.327 334.236 492.311C334.077 494.492 334.17 496.685 334.515 498.844H334.511Z" fill="#262424"/>
<path d="M363.566 481.859C366.352 481.859 368.611 478.45 368.611 474.246C368.611 470.041 366.352 466.633 363.566 466.633C360.78 466.633 358.521 470.041 358.521 474.246C358.521 478.45 360.78 481.859 363.566 481.859Z" fill="white"/>
<path d="M363.565 482.937C360.131 482.937 357.439 479.12 357.439 474.244C357.439 469.368 360.131 465.556 363.565 465.556C366.998 465.556 369.69 469.372 369.69 474.244C369.69 479.116 366.998 482.937 363.565 482.937ZM363.565 467.711C361.415 467.711 359.597 470.703 359.597 474.244C359.597 477.786 361.415 480.782 363.565 480.782C365.714 480.782 367.533 477.79 367.533 474.244C367.533 470.699 365.714 467.711 363.565 467.711Z" fill="#262424"/>
<path d="M374.678 491.227C374.401 491.227 374.134 491.12 373.933 490.928C373.733 490.735 373.616 490.473 373.606 490.195C372.844 469.839 370.132 457.131 370.108 456.991C370.078 456.854 370.076 456.711 370.101 456.572C370.127 456.434 370.179 456.301 370.255 456.183C370.332 456.064 370.431 455.962 370.547 455.881C370.663 455.801 370.794 455.744 370.932 455.715C371.07 455.685 371.212 455.682 371.351 455.708C371.49 455.733 371.623 455.785 371.741 455.861C371.86 455.938 371.962 456.037 372.043 456.153C372.123 456.269 372.18 456.399 372.21 456.537C372.238 456.665 375.001 469.572 375.755 490.116C375.76 490.257 375.738 490.397 375.689 490.529C375.64 490.661 375.565 490.782 375.469 490.885C375.373 490.989 375.258 491.072 375.13 491.131C375.001 491.189 374.863 491.222 374.722 491.227H374.682H374.678Z" fill="#262424"/>
<path d="M380.989 491.227C380.711 491.227 380.444 491.12 380.244 490.928C380.044 490.735 379.926 490.473 379.916 490.195C379.154 469.839 376.443 457.131 376.419 456.991C376.389 456.854 376.387 456.711 376.412 456.572C376.437 456.434 376.489 456.301 376.566 456.183C376.642 456.064 376.741 455.962 376.857 455.881C376.974 455.801 377.104 455.744 377.242 455.715C377.38 455.685 377.523 455.682 377.662 455.708C377.801 455.733 377.933 455.785 378.052 455.861C378.171 455.938 378.273 456.037 378.353 456.153C378.434 456.269 378.491 456.399 378.52 456.537C378.548 456.665 381.312 469.572 382.066 490.116C382.071 490.257 382.048 490.397 381.999 490.529C381.95 490.661 381.876 490.782 381.78 490.885C381.684 490.989 381.569 491.072 381.44 491.131C381.312 491.189 381.174 491.222 381.033 491.227H380.993H380.989Z" fill="#262424"/>
<path d="M342.226 225.439C342.226 225.439 337.692 327.852 340.005 345.496C342.318 363.14 357.783 441.105 357.783 441.105L389.526 439.217L380.485 342.811C380.485 342.811 392.887 281.279 394.151 262.376C395.416 243.473 397.936 196.223 370.623 196.223C343.311 196.223 342.226 225.439 342.226 225.439Z" fill="#B0CDFE"/>
<path d="M388.852 299.655C388.79 299.661 388.727 299.661 388.665 299.655C388.526 299.631 388.393 299.58 388.273 299.504C388.154 299.429 388.051 299.331 387.97 299.215C387.889 299.1 387.831 298.969 387.8 298.832C387.77 298.694 387.767 298.551 387.791 298.412C390.87 280.924 392.649 268.79 393.079 262.344C393.921 249.72 396.158 216.189 383.7 202.883C380.254 199.202 375.848 197.338 370.608 197.338C370.323 197.338 370.05 197.225 369.848 197.023C369.646 196.822 369.533 196.549 369.533 196.264C369.533 195.979 369.646 195.706 369.848 195.505C370.05 195.304 370.323 195.191 370.608 195.191C376.466 195.191 381.399 197.286 385.271 201.417C398.367 215.404 396.086 249.62 395.241 262.487C394.806 269.009 393.015 281.211 389.925 298.783C389.877 299.031 389.743 299.254 389.547 299.414C389.351 299.574 389.105 299.659 388.852 299.655Z" fill="#262424"/>
<path d="M366.835 240.07H383.093C383.744 240.07 384.368 240.328 384.828 240.788C385.287 241.247 385.546 241.87 385.546 242.52V257.12C385.547 257.62 385.394 258.109 385.109 258.519C384.824 258.93 384.42 259.244 383.951 259.419L375.832 262.403C375.281 262.607 374.675 262.607 374.125 262.403L365.99 259.363C365.521 259.189 365.118 258.875 364.833 258.465C364.548 258.055 364.395 257.568 364.395 257.069V242.528C364.392 241.879 364.648 241.256 365.106 240.795C365.563 240.334 366.185 240.073 366.835 240.07Z" fill="white"/>
<path d="M352.409 251.11C352.232 251.11 352.058 251.067 351.902 250.983L348.812 249.326C347.959 248.87 347.246 248.192 346.75 247.363C346.253 246.535 345.991 245.587 345.992 244.621V229.431C345.992 229.146 346.105 228.873 346.307 228.672C346.508 228.471 346.782 228.357 347.067 228.357C347.352 228.357 347.625 228.471 347.827 228.672C348.028 228.873 348.142 229.146 348.142 229.431V244.625C348.141 245.202 348.298 245.769 348.595 246.265C348.892 246.76 349.319 247.165 349.828 247.437L352.919 249.095C353.13 249.208 353.297 249.388 353.393 249.607C353.49 249.825 353.51 250.07 353.452 250.302C353.393 250.533 353.258 250.739 353.069 250.885C352.88 251.032 352.648 251.111 352.409 251.11Z" fill="#262424"/>
<path d="M365.544 434.349C365.29 434.349 365.045 434.259 364.851 434.094C364.658 433.93 364.529 433.703 364.487 433.453L348.935 341.752C348.928 341.683 348.928 341.614 348.935 341.545L351.878 229.399C351.88 229.258 351.91 229.119 351.967 228.989C352.023 228.86 352.105 228.743 352.208 228.646C352.311 228.549 352.432 228.473 352.564 228.423C352.696 228.373 352.837 228.35 352.978 228.355C353.119 228.359 353.258 228.39 353.387 228.448C353.516 228.505 353.632 228.587 353.729 228.689C353.826 228.791 353.902 228.911 353.952 229.043C354.003 229.174 354.027 229.314 354.023 229.455L351.084 341.497L366.605 433.094C366.629 433.234 366.625 433.376 366.593 433.514C366.562 433.652 366.504 433.782 366.422 433.897C366.34 434.012 366.236 434.11 366.116 434.185C365.996 434.26 365.863 434.31 365.723 434.333C365.664 434.343 365.604 434.349 365.544 434.349Z" fill="#262424"/>
<path d="M360.455 434.77C360.171 434.782 359.893 434.68 359.684 434.487C359.475 434.294 359.35 434.026 359.339 433.742C359.327 433.458 359.429 433.181 359.622 432.972C359.815 432.762 360.083 432.638 360.368 432.627L385.734 430.527C386.018 430.504 386.3 430.593 386.518 430.777C386.735 430.961 386.871 431.224 386.895 431.507C386.918 431.791 386.828 432.073 386.644 432.29C386.46 432.507 386.198 432.643 385.914 432.667L360.547 434.766H360.455V434.77Z" fill="#262424"/>
<path d="M407.714 192.151L402.774 195.302C402.774 195.302 394.26 194.147 391.947 194.672C389.634 195.198 381.331 200.25 381.331 202.863C381.331 205.476 389.845 201.269 389.845 201.269C389.845 201.269 382.787 205.385 381.961 205.783C381.136 206.181 377.65 205.783 375.653 206.412C373.655 207.042 379.541 219.013 382.065 220.694C384.589 222.375 395.731 220.379 398.566 219.642C401.402 218.905 412.336 205.887 412.755 205.675C413.174 205.464 420.009 200.636 420.009 200.636L407.714 192.151Z" fill="white"/>
<path d="M385.976 222.427C384.03 222.427 382.387 222.204 381.478 221.607C378.993 219.954 373.769 209.978 374.212 206.867C374.235 206.54 374.354 206.227 374.555 205.967C374.756 205.708 375.029 205.514 375.341 205.409C376.581 205.011 378.172 204.987 379.576 204.959C380.224 204.972 380.873 204.93 381.514 204.831L381.765 204.696C381.537 204.65 381.318 204.565 381.119 204.445C380.848 204.278 380.627 204.043 380.477 203.763C380.327 203.483 380.254 203.169 380.266 202.851C380.266 199.266 389.545 194.107 391.719 193.613C393.892 193.119 400.683 193.932 402.537 194.175L407.147 191.235C407.327 191.12 407.536 191.061 407.749 191.065C407.962 191.069 408.169 191.137 408.344 191.259L420.642 199.764C420.784 199.863 420.899 199.994 420.979 200.147C421.059 200.3 421.1 200.47 421.1 200.642C421.1 200.815 421.059 200.985 420.979 201.138C420.899 201.291 420.784 201.422 420.642 201.521C418.249 203.21 414.297 205.995 413.4 206.556C413.177 206.775 412.423 207.62 411.626 208.512C405.245 215.639 400.89 220.161 398.865 220.691C397.573 221.029 390.849 222.427 385.976 222.427ZM376.306 207.377C376.266 209.468 380.521 218.408 382.662 219.83C384.548 221.089 394.574 219.599 398.298 218.635C400.121 218.161 407.566 209.839 410.011 207.102C411.917 204.971 412.004 204.883 412.276 204.748C412.615 204.549 415.669 202.413 418.134 200.676L407.69 193.434L403.351 196.223C403.137 196.359 402.881 196.416 402.629 196.382C399.283 195.928 393.744 195.382 392.185 195.737C389.896 196.254 382.937 200.808 382.435 202.68C383.44 202.776 386.51 201.752 389.37 200.342C389.62 200.207 389.914 200.177 390.187 200.259C390.459 200.341 390.688 200.528 390.823 200.778C390.958 201.028 390.988 201.322 390.906 201.594C390.824 201.867 390.637 202.095 390.387 202.23C389.661 202.652 383.288 206.353 382.443 206.779C381.873 207.062 381.035 207.094 379.608 207.122C378.501 207.105 377.396 207.19 376.306 207.377ZM413.336 206.612L413.237 206.668L413.336 206.612Z" fill="#262424"/>
<path d="M417.125 97.6683C417.125 97.6683 427.158 100.899 434.308 116.232C441.458 131.566 452.596 163.905 453.019 178.816C453.442 193.728 426.014 205.699 417.129 209.057C417.129 209.057 404.408 204.436 404.831 190.788L426.763 171.048C426.763 171.048 411.418 142.485 405.951 125.475C400.484 108.464 417.125 97.6683 417.125 97.6683Z" fill="#FEA151"/>
<path d="M418.96 206.141C418.758 206.141 418.56 206.085 418.39 205.978C407.224 198.974 408.177 190.087 408.225 189.712C408.242 189.572 408.286 189.437 408.356 189.314C408.425 189.191 408.518 189.084 408.629 188.997C408.74 188.91 408.867 188.845 409.003 188.808C409.139 188.77 409.281 188.759 409.421 188.776C409.561 188.793 409.696 188.837 409.819 188.907C409.942 188.976 410.05 189.069 410.137 189.18C410.224 189.291 410.289 189.418 410.327 189.553C410.364 189.689 410.375 189.831 410.358 189.971C410.322 190.298 409.581 197.939 419.53 204.161C419.728 204.285 419.879 204.469 419.963 204.686C420.046 204.904 420.056 205.142 419.992 205.366C419.927 205.589 419.792 205.786 419.606 205.926C419.42 206.066 419.193 206.141 418.96 206.141Z" fill="#262424"/>
<path d="M381.167 70.5233C381.167 70.5233 373.182 82.5507 361.399 82.5507C349.616 82.5507 340.832 31.8384 361.798 27.5303C382.764 23.2222 396.144 48.251 381.167 70.5233Z" fill="white"/>
<path d="M361.856 83.9748C354.479 83.9748 349.204 70.3912 347.982 57.6095C346.678 43.9875 349.677 28.5638 361.992 26.1305C371.906 24.1751 380.957 27.9047 386.215 36.1054C391.273 43.993 393.212 57.3898 383.499 71.336C383.113 71.9017 374.633 83.9748 361.856 83.9748ZM367.061 28.5858C365.545 28.5887 364.033 28.7395 362.546 29.0362C352.154 31.085 349.71 44.9927 350.888 57.3239C352.094 69.9573 357.217 81.0142 361.851 81.0142C373.107 81.0142 381.016 69.754 381.093 69.6442C389.969 56.901 388.28 44.8004 383.744 37.7257C381.967 34.8886 379.502 32.559 376.582 30.9589C373.663 29.3589 370.387 28.5419 367.066 28.5858H367.061Z" fill="#262424"/>
<path d="M394.668 98.2074L390.896 74.0114L374.742 78.4305L375.208 98.2074H394.668Z" fill="white"/>
<path d="M395.987 99.6305H375.332C374.937 99.6306 374.557 99.4847 374.275 99.224C373.993 98.9633 373.829 98.6086 373.821 98.2359L373.321 78.4668C373.313 78.1467 373.42 77.8336 373.624 77.5778C373.827 77.3219 374.116 77.1382 374.444 77.0562L391.6 72.6389C391.805 72.5857 392.02 72.5741 392.23 72.6047C392.44 72.6354 392.642 72.7076 392.82 72.8168C392.999 72.9259 393.151 73.0695 393.267 73.238C393.383 73.4066 393.46 73.5964 393.493 73.7949L397.498 97.9813C397.532 98.1864 397.519 98.3961 397.458 98.5958C397.398 98.7955 397.292 98.9803 397.148 99.1373C397.004 99.2944 396.826 99.4199 396.625 99.5051C396.425 99.5902 396.207 99.6331 395.987 99.6305ZM376.809 96.7723H394.223L390.751 75.81L376.371 79.522L376.809 96.7723Z" fill="#262424"/>
<path d="M356.492 56.9311C356.492 56.9311 358.792 47.2616 365.901 49.6541C373.01 52.0465 372.592 62.9176 367.47 66.0078L373.984 76.8578H391.504C391.504 76.8578 405.64 58.8252 407.312 47.4767C408.985 36.1282 397.485 35.2101 397.485 35.2101C397.485 35.2101 395.394 25.4409 387.031 23.7409C378.667 22.041 355.667 26.6318 355.667 26.6318C355.667 26.6318 351.199 19.8532 347.413 19.9266C343.628 20.0001 343.727 27.4818 343.727 27.4818C343.727 27.4818 338.775 21.3485 335.726 23.2215C332.678 25.0946 337.845 50.2942 353.295 45.6561C353.306 45.6561 351.215 55.9605 356.492 56.9311Z" fill="#262424"/>
<path d="M406.049 95.5447C406.049 95.5447 401.964 85.3979 386.14 85.3979C370.316 85.3979 364.779 98.2075 364.779 98.2075H406.055V95.5447H406.049Z" fill="white"/>
<path d="M405.993 99.6307H363.424C363.179 99.6315 362.937 99.5754 362.721 99.4674C362.504 99.3593 362.32 99.2028 362.184 99.0117C362.047 98.8206 361.964 98.6008 361.94 98.3721C361.917 98.1434 361.954 97.9128 362.049 97.7009C362.11 97.5612 368.339 83.9745 385.454 83.9745C402.569 83.9745 407.192 94.6068 407.38 95.057C407.447 95.222 407.481 95.3976 407.479 95.5744V98.2493C407.476 98.6166 407.318 98.968 407.04 99.2267C406.762 99.4855 406.385 99.6307 405.993 99.6307ZM365.898 96.842H404.508V95.8486C403.795 94.4051 399.355 86.7632 385.46 86.7632C373.973 86.758 368.13 93.4376 365.898 96.842Z" fill="#262424"/>
<path d="M337.512 230.302C342.43 232.004 347.464 233.353 352.574 234.342V221.367C352.647 220.47 353.056 219.633 353.719 219.023C354.381 218.413 355.25 218.074 356.151 218.074C357.052 218.074 357.92 218.413 358.583 219.023C359.246 219.633 359.654 220.47 359.728 221.367V235.525C405.225 241.759 437.809 227.048 437.809 227.048C429.682 141.362 417.124 97.6686 417.124 97.6686C375.304 90.5418 343.701 99.9195 343.701 99.9195C337.512 125.682 337.512 230.302 337.512 230.302Z" fill="#FEA151"/>
<path d="M434.627 198.441C434.364 198.441 434.11 198.344 433.914 198.169C433.718 197.994 433.593 197.754 433.562 197.493C427.333 145.107 420.004 113.257 417.145 101.999C417.074 101.723 417.116 101.431 417.262 101.186C417.407 100.942 417.644 100.765 417.92 100.695C418.196 100.624 418.489 100.666 418.734 100.812C418.979 100.957 419.156 101.194 419.226 101.469C422.097 112.771 429.447 144.724 435.692 197.238C435.709 197.378 435.698 197.52 435.66 197.656C435.622 197.793 435.558 197.92 435.47 198.031C435.383 198.142 435.274 198.235 435.151 198.304C435.027 198.373 434.891 198.417 434.751 198.433L434.627 198.441Z" fill="#262424"/>
<path d="M382.819 232.403C376.425 232.404 370.036 232.066 363.678 231.391C363.394 231.361 363.135 231.22 362.955 230.998C362.776 230.777 362.693 230.493 362.723 230.21C362.753 229.927 362.894 229.667 363.116 229.488C363.338 229.31 363.622 229.226 363.905 229.256C380.63 231.037 406.256 231.312 433.337 222.528C433.608 222.44 433.903 222.463 434.157 222.593C434.411 222.723 434.603 222.948 434.691 223.219C434.779 223.49 434.755 223.784 434.625 224.038C434.495 224.292 434.27 224.483 433.999 224.571C415.487 230.575 397.662 232.403 382.819 232.403Z" fill="#262424"/>
<path d="M347.496 228.853C347.421 228.852 347.346 228.844 347.272 228.829C343.284 227.988 341.071 227.335 340.98 227.307C340.707 227.225 340.477 227.039 340.342 226.789C340.207 226.539 340.176 226.245 340.258 225.972C340.339 225.7 340.526 225.471 340.776 225.335C341.027 225.2 341.321 225.17 341.594 225.251C341.614 225.251 343.827 225.909 347.719 226.729C347.982 226.78 348.217 226.928 348.376 227.144C348.536 227.359 348.609 227.627 348.581 227.893C348.553 228.16 348.426 228.406 348.225 228.583C348.024 228.761 347.764 228.857 347.496 228.853Z" fill="#262424"/>
<path d="M284.312 152.039L274.011 146.263C274.011 146.263 272.018 128.097 270.65 125.472C269.597 123.452 259.97 116.863 256.154 114.346C255.909 114.184 255.634 114.072 255.346 114.018C255.057 113.963 254.761 113.966 254.473 114.026C254.186 114.086 253.913 114.203 253.671 114.369C253.429 114.536 253.223 114.748 253.064 114.995C252.805 115.395 252.683 115.867 252.713 116.342C252.744 116.817 252.927 117.269 253.235 117.632L259.823 124.843L251.724 121.194C251.011 120.872 250.203 120.832 249.463 121.083C248.723 121.333 248.105 121.856 247.736 122.544L242.867 131.599C242.502 132.277 242.405 133.067 242.595 133.814C242.785 134.56 243.247 135.208 243.892 135.63L254.986 142.905C254.986 142.905 254.774 154.35 257.51 155.716C260.246 157.083 269.473 158.445 269.473 158.445L280.404 168.209L284.312 152.039Z" fill="white"/>
<path d="M280.419 169.284C280.154 169.284 279.898 169.186 279.701 169.009L269.01 159.448C267.315 159.189 259.61 157.958 257.022 156.66C254.115 155.206 253.872 146.836 253.9 143.466L243.296 136.514C242.423 135.948 241.797 135.073 241.541 134.065C241.285 133.057 241.419 131.99 241.917 131.076L246.802 122.037C247.302 121.113 248.133 120.411 249.129 120.073C250.126 119.736 251.213 119.787 252.173 120.217L255.531 121.731L252.448 118.356C251.925 117.756 251.638 116.986 251.639 116.191C251.641 115.395 251.931 114.626 252.456 114.028C252.981 113.429 253.706 113.041 254.496 112.935C255.285 112.829 256.087 113.013 256.751 113.452C259.913 115.54 270.338 122.535 271.61 124.977C272.934 127.523 274.64 142.159 275.027 145.597L284.849 151.103C285.055 151.217 285.217 151.396 285.311 151.612C285.405 151.828 285.425 152.069 285.368 152.298L281.479 168.468C281.422 168.704 281.285 168.913 281.092 169.062C280.9 169.21 280.662 169.288 280.419 169.284ZM250.454 121.998C250.091 121.997 249.734 122.095 249.421 122.281C249.109 122.467 248.853 122.734 248.68 123.053L243.811 132.108C243.57 132.549 243.505 133.064 243.628 133.551C243.752 134.038 244.055 134.46 244.477 134.733L255.575 142.008C255.727 142.107 255.851 142.243 255.936 142.403C256.021 142.564 256.064 142.743 256.061 142.924C255.966 148.127 256.719 154.122 257.991 154.756C260.109 155.811 267.123 157.01 269.652 157.385C269.859 157.416 270.054 157.508 270.21 157.648L279.801 166.217L283.091 152.58L273.5 147.202C273.351 147.119 273.223 147.001 273.129 146.858C273.035 146.715 272.976 146.552 272.958 146.382C272.192 139.434 270.637 127.75 269.708 125.969C268.986 124.579 261.883 119.408 255.571 115.245C255.341 115.091 255.063 115.025 254.788 115.06C254.514 115.094 254.261 115.227 254.077 115.434C253.893 115.641 253.79 115.907 253.788 116.184C253.785 116.46 253.883 116.728 254.063 116.938L260.623 124.109C260.792 124.291 260.892 124.526 260.907 124.773C260.921 125.021 260.85 125.266 260.704 125.466C260.558 125.667 260.347 125.811 260.107 125.873C259.867 125.936 259.613 125.914 259.387 125.81L251.288 122.161C251.026 122.048 250.743 121.992 250.458 121.998H250.454Z" fill="#262424"/>
<path d="M359.046 138.566C352.833 152.907 341.161 175.614 330.474 188.207C325.744 193.784 321.206 197.369 317.422 197.369C313.769 197.369 308.297 194.947 302.411 191.529C288.454 183.434 272.152 169.786 272.152 169.786C271.279 158.126 274.01 150.075 283.226 148.505L309.573 160.126C309.573 160.126 332.252 103.8 343.705 99.924C361.566 97.0517 368.031 117.843 359.046 138.566Z" fill="#FEA151"/>
<path d="M340.872 174.623C340.68 174.624 340.492 174.573 340.327 174.476C340.162 174.379 340.026 174.24 339.933 174.073C339.839 173.906 339.793 173.717 339.797 173.526C339.802 173.335 339.857 173.148 339.959 172.986C346.787 161.8 352.837 150.157 358.063 138.141C362.601 127.651 363.247 116.517 359.73 109.083C357.832 105.072 354.837 102.375 351.065 101.287C350.791 101.209 350.559 101.024 350.421 100.775C350.283 100.526 350.25 100.232 350.329 99.9587C350.408 99.685 350.592 99.4538 350.841 99.316C351.091 99.1782 351.385 99.145 351.659 99.2237C356.045 100.487 359.507 103.578 361.672 108.163C365.496 116.258 364.886 127.779 360.037 138.989C354.771 151.101 348.675 162.835 341.793 174.109C341.697 174.267 341.561 174.397 341.4 174.487C341.239 174.577 341.057 174.624 340.872 174.623Z" fill="#262424"/>
<path d="M330.47 188.208C325.741 193.785 321.203 197.37 317.418 197.37C313.765 197.37 308.294 194.948 302.408 191.53C303.321 184.794 309.463 179.579 316.896 179.579C323.061 179.587 328.325 183.156 330.47 188.208Z" fill="#D16100"/>
<path d="M277.111 171.002C276.848 171.002 276.595 170.906 276.399 170.732C276.203 170.558 276.077 170.318 276.046 170.058C275.97 169.432 274.307 154.676 284.456 151C284.724 150.902 285.019 150.915 285.277 151.036C285.535 151.156 285.735 151.374 285.832 151.641C285.929 151.908 285.916 152.203 285.796 152.461C285.675 152.719 285.458 152.918 285.19 153.015C276.648 156.111 278.163 169.663 278.183 169.799C278.217 170.081 278.137 170.366 277.962 170.59C277.786 170.814 277.529 170.959 277.246 170.994L277.111 171.002Z" fill="#262424"/>
<path d="M30.1133 352.511C26.1746 352.511 22.3974 354.074 19.6123 356.856C16.8273 359.639 15.2627 363.412 15.2627 367.347C15.2627 363.412 13.6981 359.639 10.9131 356.856C8.12803 354.074 4.35073 352.511 0.412109 352.511C4.35073 352.511 8.12803 350.948 10.9131 348.166C13.6981 345.384 15.2627 341.611 15.2627 337.676C15.2627 341.611 16.8273 345.384 19.6123 348.166C22.3974 350.948 26.1746 352.511 30.1133 352.511Z" fill="#B0CDFE"/>
<path d="M353.021 10.4692C350.242 10.4702 347.577 11.5736 345.612 13.5367C343.646 15.4998 342.542 18.1621 342.541 20.9384C342.54 19.5624 342.268 18.1999 341.74 16.9289C341.213 15.6579 340.439 14.5033 339.465 13.5311C338.49 12.5588 337.333 11.788 336.06 11.2626C334.787 10.7372 333.422 10.4676 332.045 10.4692C334.824 10.4681 337.489 9.3648 339.454 7.40167C341.419 5.43855 342.524 2.77628 342.525 0C342.525 1.37603 342.797 2.73846 343.325 4.00945C343.853 5.28043 344.626 6.43505 345.601 7.40731C346.576 8.37956 347.733 9.1504 349.006 9.67578C350.279 10.2012 351.643 10.4708 353.021 10.4692Z" fill="#FEA151"/>
<path d="M30.1091 282.566C32.371 282.566 34.2046 280.734 34.2046 278.474C34.2046 276.215 32.371 274.383 30.1091 274.383C27.8473 274.383 26.0137 276.215 26.0137 278.474C26.0137 280.734 27.8473 282.566 30.1091 282.566Z" fill="#FEA151"/>
</svg>
