<svg width="1480" height="191" viewBox="0 0 1480 191" fill="none" xmlns="http://www.w3.org/2000/svg">
<path d="M184.5 107.5C137.738 103.603 34.5 163.5 0 190.5V-14L1480 8.49109V159.5C1325.5 154.5 1340 150 1250.5 121.5C1043.24 55.5 1052.78 138.879 936.5 144C857.054 147.499 799.955 99.5 733 99.5C666.045 99.5 629.453 121.009 560.5 144C491.547 166.991 380.965 159.494 329 144C276.327 128.295 274.5 115 184.5 107.5Z" fill="#D0E1FD" fill-opacity="0.8"/>
<path d="M304.103 118C171.914 178.01 0 165 0 165C0 165 0.000581162 54.5 0 -14L1480 8.5V74V184C1480 184 1367.91 116.2 1269.43 99.5C1157.39 80.5 1076.63 165 934.316 165C878.577 165 744.109 132.593 673.975 113.147C603.841 93.7008 413.14 68.5 304.103 118Z" fill="#D0E1FD" fill-opacity="0.8"/>
</svg>
