<svg width="965" height="629" viewBox="0 0 965 629" fill="none" xmlns="http://www.w3.org/2000/svg">
<path d="M582.976 -750.737L1232.24 -264.812C1289.4 -223.978 1301.65 -142.31 1256.74 -85.1429L1199.57 -7.55823C1158.74 49.6093 1077.07 61.8595 1019.9 16.9421L938.232 -44.3089C881.064 -85.1429 803.48 -72.8925 758.563 -19.8083L313.472 576.368C272.638 633.536 190.969 645.786 133.802 600.868L52.1336 539.617C-5.03401 498.783 -17.2832 417.115 27.6342 359.948L472.725 -236.229C513.559 -293.396 501.308 -370.981 448.224 -415.898L370.64 -473.066C313.472 -513.9 301.221 -595.568 346.139 -652.735L407.39 -726.236C448.224 -783.404 525.808 -795.654 582.976 -750.737Z" fill="#FAFBFE"/>
</svg>
