<svg width="251" height="553" viewBox="0 0 251 553" fill="none" xmlns="http://www.w3.org/2000/svg">
<circle cx="4.12556" cy="4.12556" r="4.12556" fill="#7854F7"/>
<circle cx="64.6334" cy="4.12556" r="4.12556" fill="#7854F7"/>
<circle cx="125.142" cy="4.12556" r="4.12556" fill="#7854F7"/>
<circle cx="185.65" cy="4.12556" r="4.12556" fill="#7854F7"/>
<circle cx="246.158" cy="4.12556" r="4.12556" fill="#7854F7"/>
<circle cx="4.12556" cy="64.6339" r="4.12556" fill="#7854F7"/>
<circle cx="64.6334" cy="64.6339" r="4.12556" fill="#7854F7"/>
<circle cx="125.142" cy="64.6339" r="4.12556" fill="#7854F7"/>
<circle cx="185.65" cy="64.6339" r="4.12556" fill="#7854F7"/>
<circle cx="246.158" cy="64.6339" r="4.12556" fill="#7854F7"/>
<circle cx="4.12556" cy="125.142" r="4.12556" fill="#7854F7"/>
<circle cx="64.6334" cy="125.142" r="4.12556" fill="#7854F7"/>
<circle cx="125.142" cy="125.142" r="4.12556" fill="#7854F7"/>
<circle cx="185.65" cy="125.142" r="4.12556" fill="#7854F7"/>
<circle cx="246.158" cy="125.142" r="4.12556" fill="#7854F7"/>
<circle cx="4.12556" cy="185.65" r="4.12556" fill="#7854F7"/>
<circle cx="64.6334" cy="185.65" r="4.12556" fill="#7854F7"/>
<circle cx="125.142" cy="185.65" r="4.12556" fill="#7854F7"/>
<circle cx="185.65" cy="185.65" r="4.12556" fill="#7854F7"/>
<circle cx="246.158" cy="185.65" r="4.12556" fill="#7854F7"/>
<circle cx="4.12556" cy="246.158" r="4.12556" fill="#7854F7"/>
<circle cx="64.6334" cy="246.158" r="4.12556" fill="#7854F7"/>
<circle cx="125.142" cy="246.158" r="4.12556" fill="#7854F7"/>
<circle cx="185.65" cy="246.158" r="4.12556" fill="#7854F7"/>
<circle cx="246.158" cy="246.158" r="4.12556" fill="#7854F7"/>
<circle cx="4.12556" cy="306.667" r="4.12556" fill="#7854F7"/>
<circle cx="64.6334" cy="306.667" r="4.12556" fill="#7854F7"/>
<circle cx="125.142" cy="306.667" r="4.12556" fill="#7854F7"/>
<circle cx="185.65" cy="306.667" r="4.12556" fill="#7854F7"/>
<circle cx="246.158" cy="306.667" r="4.12556" fill="#7854F7"/>
<circle cx="4.12556" cy="367.175" r="4.12556" fill="#7854F7"/>
<circle cx="64.6334" cy="367.175" r="4.12556" fill="#7854F7"/>
<circle cx="125.142" cy="367.175" r="4.12556" fill="#7854F7"/>
<circle cx="185.65" cy="367.175" r="4.12556" fill="#7854F7"/>
<circle cx="246.158" cy="367.175" r="4.12556" fill="#7854F7"/>
<circle cx="4.12556" cy="427.683" r="4.12556" fill="#7854F7"/>
<circle cx="64.6334" cy="427.683" r="4.12556" fill="#7854F7"/>
<circle cx="125.142" cy="427.683" r="4.12556" fill="#7854F7"/>
<circle cx="185.65" cy="427.683" r="4.12556" fill="#7854F7"/>
<circle cx="246.158" cy="427.683" r="4.12556" fill="#7854F7"/>
<circle cx="4.12556" cy="488.191" r="4.12556" fill="#7854F7"/>
<circle cx="64.6334" cy="488.191" r="4.12556" fill="#7854F7"/>
<circle cx="125.142" cy="488.191" r="4.12556" fill="#7854F7"/>
<circle cx="185.65" cy="488.191" r="4.12556" fill="#7854F7"/>
<circle cx="246.158" cy="488.191" r="4.12556" fill="#7854F7"/>
<circle cx="4.12556" cy="548.7" r="4.12556" fill="#7854F7"/>
<circle cx="64.6334" cy="548.7" r="4.12556" fill="#7854F7"/>
<circle cx="125.142" cy="548.7" r="4.12556" fill="#7854F7"/>
<circle cx="185.65" cy="548.7" r="4.12556" fill="#7854F7"/>
<circle cx="246.158" cy="548.7" r="4.12556" fill="#7854F7"/>
</svg>
