<svg width="146" height="85" viewBox="0 0 146 85" fill="none" xmlns="http://www.w3.org/2000/svg">
<g clip-path="url(#clip0)">
<path d="M111.775 38.6921L99.2432 37.4148C98.8542 37.368 98.4052 37.3704 97.9693 37.4148L22.5168 45.0954C20.4813 45.3026 19.1643 46.3884 19.5232 47.5635L28.538 77.0783C29.6018 80.5612 35.3306 82.8772 41.3641 82.263L114.054 74.8636C120.088 74.2494 124.099 70.9419 123.035 67.4591L114.777 40.4201C114.508 39.539 113.319 38.8379 111.775 38.6921Z" fill="#FC1A40"/>
<path d="M114.777 40.4199L123.035 67.4589C124.099 70.9417 120.088 74.2492 114.054 74.8634L77.7091 78.5631L66.1309 40.6555L97.9692 37.4146C98.4053 37.3702 98.8543 37.3678 99.2431 37.4146L111.775 38.6919C113.319 38.8376 114.507 39.5387 114.777 40.4199Z" fill="#C60034"/>
<path d="M105.953 15.9468C103.833 13.177 99.4332 11.2885 94.1355 10.8757C88.9234 10.4975 83.809 11.6672 80.5719 14.0735L73.447 19.2124L69.8144 12.9621C68.1176 10.1061 64.0902 7.96301 58.8614 7.28389C57.8523 7.17012 56.856 7.09846 55.8854 7.11072C51.7465 7.05608 47.7569 7.98142 44.8488 9.74873C40.9786 12.0465 39.674 15.3812 41.349 18.4125C43.0974 21.4364 47.5394 23.7101 53.0206 24.2339L61.3712 25.0713L71.6671 26.1435C71.7398 26.1361 71.7398 26.1361 71.7398 26.1361L89.6206 27.9936C91.3948 28.1593 93.1907 28.1497 94.8626 27.9795C98.4249 27.6169 101.683 26.5061 104.009 24.7983C107.439 22.2858 108.197 18.8768 105.953 15.9468Z" fill="#FE9923"/>
<path d="M104.009 24.7983C101.683 26.5061 98.4245 27.617 94.8625 27.9795C93.1908 28.1497 91.3949 28.1593 89.6205 27.9936L71.7396 26.1361C71.7396 26.1361 71.7396 26.1361 71.6669 26.1435L61.3711 25.0714L55.8853 7.1106C56.8559 7.09847 57.8521 7.17 58.8612 7.28376C64.09 7.96288 68.1176 10.1059 69.8142 12.962L73.4468 19.2122L80.5717 14.0734C83.8089 11.6671 88.9232 10.4973 94.1353 10.8756C99.433 11.2884 103.832 13.1769 105.952 15.9466C108.197 18.8768 107.439 22.2858 104.009 24.7983Z" fill="#FE8821"/>
<path d="M125.515 33.6153L122.982 42.0077C122.656 42.9062 121.429 43.5504 119.975 43.6984C119.539 43.7428 119.09 43.7452 118.701 43.6984L78.7104 39.6347L73.3075 33.478L64.58 35.5778L56.9048 37.4408L16.914 33.377C14.896 33.1499 13.5795 32.029 13.913 30.9133L16.5191 22.5138C16.977 20.823 18.628 19.3566 21.027 18.3769C23.426 17.3973 26.3804 17.0099 29.322 17.3162L59.9533 20.4288L62.0443 20.6485C62.0443 20.6485 72.4068 28.0745 72.6251 28.0523C72.7708 28.0375 75.5886 26.7122 78.3468 25.4361C81.1042 24.1602 83.8499 22.8424 83.8499 22.8424L116.499 26.1822C119.44 26.4886 121.98 27.4417 123.677 28.8267C125.375 30.2114 126.045 31.9173 125.515 33.6153Z" fill="#FF3E75"/>
<path d="M125.515 33.6154L122.982 42.0078C122.656 42.9063 121.429 43.5505 119.975 43.6985C119.539 43.7429 119.09 43.7453 118.701 43.6985L78.7104 39.6348L73.3076 33.4781L64.5801 35.5779L59.9531 20.429L62.0441 20.6486C62.0441 20.6486 72.4067 28.0746 72.625 28.0524C72.7706 28.0376 75.5884 26.7123 78.3466 25.4362C81.1043 24.1603 83.85 22.8425 83.85 22.8425L116.499 26.1823C119.441 26.4886 121.98 27.4418 123.677 28.8267C125.375 30.2115 126.045 31.9174 125.515 33.6154Z" fill="#FC1A40"/>
<path d="M55.2275 41.7654L66.8058 79.6729L88.6129 77.4531L77.0346 39.5456L55.2275 41.7654Z" fill="#FCBF29"/>
<path d="M62.044 20.6486L61.0296 23.9538L56.9048 37.441L65.4132 38.3058L75.0763 39.2692L78.7103 39.6347L83.8501 22.8425L62.044 20.6486Z" fill="#FCBF29"/>
<path d="M77.0354 39.5456L66.1318 40.6555L77.7101 78.5631L88.6136 77.4532L77.0354 39.5456Z" fill="#FE9923"/>
<path d="M83.8498 22.8424L78.7102 39.6347L75.0761 39.269L65.4131 38.3056L61.0295 23.9537L62.0437 20.6486L83.8498 22.8424Z" fill="#FE9923"/>
</g>
<defs>
<clipPath id="clip0">
<rect width="124.699" height="74.8847" fill="white" transform="matrix(0.994859 -0.10127 0.292112 0.956384 0 12.6282)"/>
</clipPath>
</defs>
</svg>
