<svg width="1197" height="1089" viewBox="0 0 1197 1089" fill="none" xmlns="http://www.w3.org/2000/svg">
<path d="M896.119 904.247C698.149 1156.97 394.875 1123.28 175.844 959.004C150.571 942.156 78.9644 874.762 19.9945 782.095C-30.5511 702.064 19.995 596.761 112.662 579.912C146.359 575.7 184.267 567.276 226.389 563.064C272.722 554.64 323.268 575.7 352.753 613.609C365.389 630.458 386.451 651.519 411.724 668.367C487.542 723.125 580.209 718.913 639.179 638.882L1077.24 53.3955C1119.36 -5.57439 1203.6 -18.2107 1262.57 28.1227L1342.6 87.0927C1401.57 129.214 1414.21 213.457 1367.88 272.427L896.119 904.247Z" fill="#FAFBFE"/>
</svg>
