<svg width="210" height="210" viewBox="0 0 210 210" fill="none" xmlns="http://www.w3.org/2000/svg">
<g clip-path="url(#clip0)">
<path d="M55.9961 27.5588L83.5549 139.551C114.481 131.941 133.382 100.701 125.772 69.7753C118.161 38.8496 86.9219 19.9487 55.9961 27.5588V27.5588Z" fill="#FFD06A"/>
<path d="M115.632 72.271C108.022 41.3449 81.322 21.3268 55.9963 27.5589C25.0702 35.1692 6.16922 66.4086 13.7795 97.3347C17.4333 112.183 26.5357 124.256 38.4335 131.957C37.7808 137.641 35.3858 142.95 31.6722 147.18C30.0944 148.977 31.555 151.745 33.9335 151.495C35.1851 151.363 36.4427 151.145 37.6991 150.836C44.7931 149.09 50.5748 144.769 54.2988 139.113C63.5462 141.698 73.5665 142.009 83.5552 139.551C108.881 133.319 123.242 103.197 115.632 72.271Z" fill="#FFE7B5"/>
<path d="M189.775 154.102C196.741 141.759 199.201 126.841 195.547 111.992C187.937 81.0666 156.698 62.1653 125.771 69.7755L154.543 181.448C164.026 178.898 172.336 174.115 179.042 167.803C184.966 171.085 192.092 172.23 199.187 170.484C200.443 170.175 201.658 169.785 202.828 169.32C205.051 168.439 205.06 165.308 202.829 164.449C197.576 162.425 192.991 158.834 189.775 154.102Z" fill="#FFE7B5"/>
<path d="M185.407 114.488C177.797 83.5617 151.098 63.5433 125.772 69.7754C94.846 77.3856 75.9451 108.625 83.5553 139.551C91.1655 170.477 122.405 189.378 153.331 181.768C153.739 181.668 154.141 181.557 154.544 181.448C179.112 174.567 192.895 144.916 185.407 114.488Z" fill="#FFF7E6"/>
<path d="M88.1841 70.9597L47.6235 80.9408C46.2231 81.2854 44.8092 80.4296 44.4646 79.0295C44.1201 77.6295 44.9755 76.2153 46.3759 75.8707L86.9365 65.8896C88.3368 65.545 89.7508 66.4008 90.0953 67.8008C90.4399 69.2008 89.5845 70.6151 88.1841 70.9597Z" fill="#FFB35C"/>
<path d="M81.2811 94.1667L52.6142 101.221C51.2139 101.566 49.7999 100.71 49.4554 99.3098C49.1108 97.9098 49.9662 96.4956 51.3666 96.151L80.0335 89.0967C81.4338 88.7521 82.8478 89.6079 83.1923 91.0079C83.5368 92.4079 82.6811 93.8222 81.2811 94.1667Z" fill="#FFB35C"/>
<path d="M90.6792 81.0998L50.1186 91.0809C48.7183 91.4255 47.3043 90.5697 46.9598 89.1697C46.6152 87.7697 47.4706 86.3554 48.871 86.0108L89.4316 76.0297C90.832 75.6851 92.2459 76.5409 92.5905 77.941C92.935 79.341 92.0796 80.7552 90.6792 81.0998Z" fill="#FFB35C"/>
<path d="M146.666 100.057L147.715 158.947C147.715 158.947 174.648 137.292 168.778 113.435C166.366 103.635 156.466 97.645 146.666 100.057Z" fill="#CC3245"/>
<path d="M158.638 115.931C156.226 106.13 150.866 99.0231 146.666 100.057C141.699 101.279 137.715 104.426 135.303 108.507C131.273 106.011 126.282 105.073 121.316 106.295C111.515 108.707 105.525 118.606 107.937 128.407C113.808 152.264 147.715 158.947 147.715 158.947C147.715 158.947 164.508 139.787 158.638 115.931Z" fill="#FF3E3A"/>
</g>
<defs>
<clipPath id="clip0">
<rect width="173" height="173" fill="white" transform="translate(0 41.3384) rotate(-13.8246)"/>
</clipPath>
</defs>
</svg>
