<svg width="274" height="303" viewBox="0 0 274 303" fill="none" xmlns="http://www.w3.org/2000/svg">
<path d="M174.668 5.04614H38.2958C32.8162 5.04614 28.374 9.48371 28.374 14.9577V151.19C28.374 156.664 32.8162 161.101 38.2958 161.101H174.668C180.147 161.101 184.59 156.664 184.59 151.19V14.9577C184.59 9.48371 180.147 5.04614 174.668 5.04614Z" fill="white"/>
<path d="M174.669 161.747H38.2895C35.4876 161.744 32.8017 160.63 30.8204 158.651C28.8392 156.672 27.7245 153.988 27.7207 151.19V14.9503C27.7245 12.1513 28.8392 9.46807 30.8204 7.4889C32.8017 5.50972 35.4876 4.39615 38.2895 4.39233H174.669C177.471 4.39615 180.157 5.50972 182.138 7.4889C184.119 9.46807 185.234 12.1513 185.238 14.9503V151.19C185.234 153.988 184.119 156.672 182.138 158.651C180.157 160.63 177.471 161.744 174.669 161.747ZM38.2895 5.69225C35.8313 5.69543 33.4747 6.67236 31.7365 8.40878C29.9983 10.1452 29.0203 12.4994 29.0171 14.9551V151.194C29.0203 153.65 29.9983 156.004 31.7365 157.741C33.4747 159.477 35.8313 160.454 38.2895 160.457H174.669C177.127 160.454 179.484 159.477 181.222 157.741C182.96 156.004 183.938 153.65 183.941 151.194V14.9551C183.938 12.4994 182.96 10.1452 181.222 8.40878C179.484 6.67236 177.127 5.69543 174.669 5.69225H38.2895Z" fill="#262424"/>
<path d="M168.941 91.2079H49.2376C46.537 91.2079 44.3477 93.3949 44.3477 96.0928V135.34C44.3477 138.038 46.537 140.225 49.2376 140.225H168.941C171.642 140.225 173.831 138.038 173.831 135.34V96.0928C173.831 93.3949 171.642 91.2079 168.941 91.2079Z" fill="white"/>
<path d="M168.942 140.872H49.2382C47.772 140.869 46.3667 140.286 45.3299 139.25C44.2931 138.215 43.7092 136.811 43.7061 135.346V96.0937C43.7092 94.629 44.2931 93.2252 45.3299 92.1894C46.3667 91.1537 47.772 90.5704 49.2382 90.5673H168.942C170.408 90.5704 171.813 91.1537 172.85 92.1894C173.887 93.2252 174.471 94.629 174.474 96.0937V135.341C174.472 136.807 173.889 138.212 172.852 139.249C171.815 140.285 170.409 140.869 168.942 140.872ZM49.2382 91.8552C48.1133 91.8564 47.0348 92.3034 46.2394 93.098C45.444 93.8926 44.9966 94.97 44.9953 96.0937V135.341C44.9966 136.465 45.444 137.542 46.2394 138.337C47.0348 139.132 48.1133 139.578 49.2382 139.58H168.942C170.067 139.578 171.145 139.132 171.94 138.337C172.736 137.542 173.183 136.465 173.185 135.341V96.0937C173.183 94.97 172.736 93.8926 171.94 93.098C171.145 92.3034 170.067 91.8564 168.942 91.8552H49.2382Z" fill="#262424"/>
<path d="M75.5357 138.792C75.4507 138.792 75.3666 138.775 75.2881 138.742C75.2096 138.71 75.1383 138.662 75.0782 138.602C75.0181 138.542 74.9704 138.471 74.9379 138.393C74.9054 138.314 74.8887 138.23 74.8887 138.145V93.2921C74.8887 93.1203 74.957 92.9556 75.0785 92.8342C75.2001 92.7128 75.365 92.6445 75.5369 92.6445C75.7088 92.6445 75.8737 92.7128 75.9953 92.8342C76.1168 92.9556 76.1851 93.1203 76.1851 93.2921V138.143C76.1854 138.228 76.1689 138.313 76.1363 138.392C76.1038 138.47 76.056 138.542 75.9956 138.602C75.9353 138.663 75.8635 138.71 75.7846 138.743C75.7057 138.775 75.6211 138.792 75.5357 138.792Z" fill="#262424"/>
<path d="M109.091 138.792C109.006 138.792 108.922 138.775 108.844 138.742C108.765 138.71 108.694 138.662 108.634 138.602C108.574 138.542 108.526 138.471 108.494 138.393C108.461 138.314 108.444 138.23 108.444 138.145V93.2921C108.444 93.1203 108.513 92.9556 108.634 92.8342C108.756 92.7128 108.921 92.6445 109.093 92.6445C109.264 92.6445 109.429 92.7128 109.551 92.8342C109.672 92.9556 109.741 93.1203 109.741 93.2921V138.143C109.741 138.228 109.725 138.313 109.692 138.392C109.659 138.47 109.612 138.542 109.551 138.602C109.491 138.663 109.419 138.71 109.34 138.743C109.261 138.775 109.177 138.792 109.091 138.792Z" fill="#262424"/>
<path d="M142.635 138.792C142.464 138.792 142.299 138.724 142.178 138.602C142.056 138.481 141.988 138.317 141.988 138.145V93.2921C141.988 93.1203 142.057 92.9556 142.178 92.8342C142.3 92.7128 142.465 92.6445 142.636 92.6445C142.808 92.6445 142.973 92.7128 143.095 92.8342C143.216 92.9556 143.285 93.1203 143.285 93.2921V138.143C143.285 138.228 143.268 138.313 143.236 138.392C143.203 138.47 143.156 138.542 143.095 138.602C143.035 138.663 142.963 138.71 142.884 138.743C142.805 138.775 142.721 138.792 142.635 138.792Z" fill="#262424"/>
<path d="M171.082 116.364H47.0896C46.9177 116.364 46.7528 116.295 46.6313 116.174C46.5097 116.052 46.4414 115.888 46.4414 115.716C46.4414 115.544 46.5097 115.38 46.6313 115.258C46.7528 115.137 46.9177 115.068 47.0896 115.068H171.082C171.254 115.068 171.418 115.137 171.54 115.258C171.662 115.38 171.73 115.544 171.73 115.716C171.73 115.888 171.662 116.052 171.54 116.174C171.418 116.295 171.254 116.364 171.082 116.364Z" fill="#262424"/>
<path d="M74.0338 81.5256L47.0947 65.6671V37.213L74.0338 53.0715V81.5256Z" fill="#FEA151"/>
<path d="M74.0299 82.1712C73.9141 82.1716 73.8003 82.1409 73.7004 82.0823L46.7613 66.2238C46.664 66.1668 46.5832 66.0853 46.5271 65.9876C46.471 65.8898 46.4414 65.779 46.4414 65.6663V37.2123C46.4414 37.098 46.4717 36.9857 46.5292 36.8869C46.5868 36.7881 46.6695 36.7063 46.769 36.6499C46.8686 36.5935 46.9813 36.5644 47.0957 36.5657C47.2101 36.567 47.3221 36.5986 47.4203 36.6572L74.3595 52.5157C74.4568 52.5727 74.5376 52.6542 74.5937 52.7519C74.6498 52.8497 74.6793 52.9605 74.6794 53.0732V81.5248C74.6794 81.6099 74.6625 81.6942 74.6299 81.7727C74.5972 81.8513 74.5493 81.9227 74.489 81.9827C74.4287 82.0428 74.3571 82.0903 74.2783 82.1227C74.1995 82.155 74.1151 82.1715 74.0299 82.1712ZM47.7403 65.2963L73.3829 80.3883V53.4408L47.7403 38.3392V65.2963Z" fill="#FEA151"/>
<path d="M74.0342 81.5256L100.973 65.6671V37.213L74.0342 53.0715V81.5256Z" fill="#B0CDFE"/>
<path d="M74.0337 82.1714C73.8621 82.1714 73.6976 82.1033 73.5762 81.9821C73.4549 81.8609 73.3867 81.6965 73.3867 81.5251V53.071C73.3868 52.9583 73.4163 52.8476 73.4724 52.7498C73.5285 52.652 73.6093 52.5706 73.7066 52.5136L100.646 36.6551C100.744 36.5969 100.856 36.5658 100.97 36.565C101.085 36.5641 101.197 36.5935 101.296 36.6501C101.395 36.7067 101.478 36.7886 101.535 36.8874C101.592 36.9862 101.622 37.0983 101.622 37.2125V65.6666C101.622 65.7793 101.593 65.89 101.537 65.9878C101.48 66.0856 101.4 66.167 101.302 66.224L74.3633 82.0825C74.2634 82.1411 74.1496 82.1718 74.0337 82.1714ZM74.6808 53.4387V80.3886L100.323 65.2917V38.3394L74.6808 53.4387Z" fill="#B0CDFE"/>
<path d="M100.973 37.2125L90.4427 43.4118L84.5642 46.8718L74.0338 53.0711L47.0947 37.2125L57.625 31.0133L63.5035 27.5532L74.0338 21.354L100.973 37.2125Z" fill="white"/>
<path d="M74.0296 53.718C73.9137 53.7184 73.7999 53.6877 73.7001 53.6291L46.7609 37.7706C46.6637 37.7135 46.583 37.6321 46.5269 37.5343C46.4709 37.4365 46.4414 37.3258 46.4414 37.2131C46.4414 37.1004 46.4709 36.9897 46.5269 36.8919C46.583 36.7942 46.6637 36.7127 46.7609 36.6557L73.7001 20.7971C73.7998 20.7382 73.9136 20.707 74.0296 20.707C74.1455 20.707 74.2593 20.7382 74.3591 20.7971L101.298 36.6557C101.395 36.7127 101.476 36.7942 101.532 36.8919C101.588 36.9897 101.618 37.1004 101.618 37.2131C101.618 37.3258 101.588 37.4365 101.532 37.5343C101.476 37.6321 101.395 37.7135 101.298 37.7706L74.3591 53.6291C74.2592 53.6877 74.1454 53.7184 74.0296 53.718ZM48.3677 37.2131L74.0296 52.3196L99.6915 37.2131L74.0296 22.1067L48.3677 37.2131Z" fill="#262424"/>
<path d="M90.4485 43.4114L84.57 46.8714L57.6309 31.0129L63.5094 27.5529L90.4485 43.4114Z" fill="white"/>
<path d="M84.5657 47.5184C84.4499 47.5187 84.3361 47.488 84.2362 47.4295L57.2971 31.5709C57.1998 31.5139 57.1191 31.4325 57.0631 31.3347C57.007 31.2369 56.9775 31.1262 56.9775 31.0135C56.9775 30.9008 57.007 30.7901 57.0631 30.6923C57.1191 30.5945 57.1998 30.5131 57.2971 30.456L63.1756 26.996C63.2754 26.937 63.3892 26.9059 63.5051 26.9059C63.621 26.9059 63.7348 26.937 63.8346 26.996L90.7738 42.8545C90.871 42.9116 90.9517 42.993 91.0077 43.0908C91.0638 43.1886 91.0933 43.2993 91.0933 43.412C91.0933 43.5247 91.0638 43.6354 91.0077 43.7332C90.9517 43.8309 90.871 43.9124 90.7738 43.9694L84.8953 47.4295C84.7954 47.488 84.6816 47.5187 84.5657 47.5184ZM58.899 31.0135L84.5609 46.1199L89.1622 43.412L63.5051 28.3031L58.899 31.0135Z" fill="#262424"/>
<path d="M84.5645 52.6797V46.8722L90.443 43.4121V49.2197L84.5645 52.6797Z" fill="white"/>
<path d="M84.5582 53.3281C84.4732 53.3281 84.389 53.3114 84.3105 53.2789C84.232 53.2464 84.1607 53.1988 84.1006 53.1388C84.0405 53.0788 83.9929 53.0075 83.9604 52.9291C83.9279 52.8507 83.9111 52.7666 83.9111 52.6818V46.8718C83.9112 46.7591 83.9407 46.6483 83.9968 46.5505C84.0529 46.4527 84.1337 46.3713 84.231 46.3143L90.1095 42.8543C90.2079 42.7961 90.3199 42.765 90.4341 42.7642C90.5484 42.7633 90.6608 42.7927 90.7601 42.8493C90.8593 42.906 90.9417 42.9878 90.999 43.0866C91.0562 43.1854 91.0863 43.2976 91.0861 43.4117V49.2217C91.086 49.3344 91.0565 49.4452 91.0004 49.543C90.9442 49.6408 90.8635 49.7222 90.7662 49.7792L84.8877 53.2368C84.788 53.2962 84.6742 53.3278 84.5582 53.3281ZM85.2076 47.2298V51.5548L89.7896 48.8565V44.5434L85.2076 47.2298Z" fill="#262424"/>
<path d="M178.721 68.9368L166.522 59.758V62.7183H139.748C136.742 62.7212 133.834 61.6463 131.554 59.6891C129.274 57.7319 127.772 55.0223 127.322 52.0529C126.872 49.0834 127.504 46.0512 129.102 43.5075C130.7 40.9638 133.159 39.0774 136.032 38.1913C138.904 37.3052 142 37.4782 144.756 38.6788C147.511 39.8794 149.744 42.0279 151.049 44.7338C152.353 47.4397 152.642 50.5234 151.864 53.4242C151.085 56.325 149.29 58.8504 146.806 60.5413H162.498C162.594 60.3331 162.687 60.1225 162.777 59.9094C164.872 54.9645 165.317 49.4769 164.046 44.2595C162.775 39.0421 159.855 34.3725 155.72 30.9424C151.584 27.5123 146.453 25.5041 141.086 25.2154C135.718 24.9266 130.4 26.3727 125.92 29.3394C121.44 32.3061 118.035 36.6355 116.211 41.6864C114.386 46.7373 114.239 52.2409 115.79 57.382C117.342 62.523 120.51 67.0281 124.825 70.2297C129.141 73.4314 134.373 75.1593 139.748 75.1576H166.519V78.1179L178.721 68.9368Z" fill="#FEA151"/>
<path d="M115.635 62.7185H106.562V75.1578H129.073C123.291 72.6849 118.543 68.2899 115.635 62.7185Z" fill="#FEA151"/>
<path d="M222.345 301.531C221.68 301.532 221.036 301.301 220.524 300.878C220.008 300.454 219.656 299.864 219.526 299.21L199.148 200.339H73.7036L53.326 299.21C53.1964 299.864 52.8437 300.454 52.3278 300.878C51.8157 301.301 51.1717 301.532 50.5071 301.531C50.0882 301.53 49.6746 301.437 49.2951 301.26C48.9156 301.083 48.5793 300.825 48.3094 300.505C48.0396 300.185 47.8428 299.81 47.7325 299.406C47.6223 299.003 47.6014 298.58 47.6712 298.167L65.2298 192.749H207.646L225.193 298.167C225.263 298.581 225.242 299.005 225.131 299.409C225.02 299.814 224.822 300.189 224.551 300.51C224.28 300.83 223.942 301.087 223.561 301.264C223.18 301.44 222.765 301.531 222.345 301.531Z" fill="white"/>
<path d="M222.349 302.18C221.533 302.178 220.743 301.894 220.113 301.376C219.483 300.857 219.052 300.137 218.893 299.338L198.624 200.988H74.237L53.9653 299.34C53.8059 300.139 53.3746 300.859 52.7446 301.376C52.1146 301.894 51.3247 302.178 50.5089 302.18C49.9995 302.18 49.4962 302.07 49.0339 301.856C48.5716 301.642 48.1614 301.331 47.8319 300.943C47.4967 300.549 47.2513 300.087 47.113 299.589C46.9747 299.091 46.9467 298.569 47.0309 298.059L64.5894 192.636C64.6146 192.484 64.6929 192.346 64.8106 192.247C64.9283 192.147 65.0775 192.093 65.2316 192.093H207.648C207.802 192.093 207.951 192.148 208.069 192.247C208.186 192.347 208.265 192.484 208.29 192.636L225.849 298.055C225.933 298.564 225.905 299.086 225.767 299.584C225.628 300.082 225.383 300.544 225.048 300.938C224.716 301.33 224.303 301.644 223.837 301.858C223.37 302.073 222.863 302.183 222.349 302.18ZM73.703 199.688H199.148C199.298 199.688 199.443 199.74 199.559 199.834C199.675 199.929 199.755 200.061 199.785 200.207L220.163 299.078C220.264 299.586 220.536 300.043 220.935 300.373C221.383 300.744 221.959 300.923 222.538 300.871C223.117 300.82 223.652 300.543 224.028 300.099C224.241 299.85 224.396 299.557 224.484 299.241C224.571 298.925 224.589 298.594 224.536 298.271L207.085 193.398H65.7728L48.3129 298.276C48.2599 298.599 48.2778 298.929 48.3654 299.244C48.4531 299.56 48.6083 299.852 48.8204 300.102C49.0276 300.346 49.2855 300.542 49.5762 300.677C49.867 300.812 50.1836 300.882 50.5041 300.883C51.0179 300.885 51.516 300.706 51.9112 300.378C52.3108 300.048 52.5843 299.591 52.6857 299.083L73.0632 200.21C73.0934 200.062 73.1742 199.929 73.2918 199.833C73.4094 199.738 73.5565 199.687 73.7078 199.688H73.703Z" fill="#262424"/>
<path d="M186.936 301.531C186.271 301.532 185.627 301.301 185.115 300.878C184.599 300.454 184.246 299.864 184.117 299.21L163.739 200.339H38.2944L17.9169 299.21C17.7873 299.864 17.4345 300.454 16.9187 300.878C16.4065 301.301 15.7625 301.532 15.0979 301.531C14.679 301.53 14.2654 301.437 13.8859 301.26C13.5064 301.083 13.1701 300.825 12.9003 300.505C12.6304 300.185 12.4336 299.81 12.3234 299.406C12.2132 299.003 12.1922 298.58 12.2621 298.167L29.8206 192.749H172.237L189.784 298.167C189.854 298.581 189.832 299.005 189.721 299.409C189.611 299.814 189.413 300.189 189.142 300.51C188.87 300.83 188.533 301.087 188.152 301.264C187.771 301.44 187.356 301.531 186.936 301.531Z" fill="white"/>
<path d="M186.932 302.18C186.116 302.178 185.325 301.893 184.695 301.375C184.065 300.857 183.634 300.137 183.475 299.337L163.206 200.988H38.822L18.5503 299.34C18.3883 300.139 17.9561 300.858 17.326 301.377C16.6144 301.963 15.7004 302.246 14.7816 302.164C13.8629 302.082 13.0134 301.643 12.4168 300.94C12.0816 300.546 11.8363 300.084 11.698 299.586C11.5597 299.088 11.5316 298.566 11.6159 298.056L29.1744 192.633C29.1995 192.481 29.2779 192.343 29.3956 192.244C29.5132 192.144 29.6625 192.09 29.8166 192.09H172.233C172.387 192.09 172.536 192.145 172.654 192.244C172.771 192.344 172.85 192.482 172.875 192.633L190.434 298.052C190.518 298.562 190.49 299.084 190.351 299.582C190.213 300.079 189.968 300.541 189.633 300.935C189.301 301.327 188.888 301.642 188.421 301.857C187.954 302.072 187.446 302.183 186.932 302.18ZM38.2856 199.688H163.738C163.888 199.688 164.033 199.739 164.149 199.834C164.265 199.928 164.345 200.06 164.375 200.207L184.753 299.078C184.853 299.585 185.126 300.043 185.525 300.373C185.973 300.743 186.549 300.922 187.128 300.871C187.707 300.819 188.242 300.542 188.618 300.099C188.83 299.849 188.986 299.556 189.073 299.24C189.161 298.925 189.179 298.594 189.125 298.27L171.67 193.397H30.3578L12.9003 298.275C12.8472 298.598 12.8652 298.929 12.9528 299.244C13.0404 299.559 13.1957 299.852 13.4078 300.101C13.615 300.346 13.8729 300.542 14.1636 300.677C14.4543 300.812 14.771 300.882 15.0915 300.882C15.6053 300.884 16.1035 300.706 16.4986 300.378C16.8982 300.048 17.1717 299.59 17.2731 299.082L37.6506 200.209C37.6806 200.062 37.7607 199.93 37.8773 199.834C37.9939 199.739 38.1399 199.688 38.2904 199.688H38.2856Z" fill="#262424"/>
<path d="M220.054 184.659H17.917V193.669H220.054V184.659Z" fill="#B0CDFE"/>
<path d="M168.336 193.395C168.251 193.395 168.166 193.378 168.088 193.346C168.009 193.314 167.938 193.266 167.878 193.206C167.818 193.146 167.77 193.075 167.738 192.996C167.705 192.918 167.688 192.834 167.688 192.749V186.141C167.688 185.969 167.757 185.805 167.878 185.683C168 185.562 168.165 185.494 168.337 185.494C168.509 185.494 168.674 185.562 168.795 185.683C168.917 185.805 168.985 185.969 168.985 186.141V192.749C168.985 192.834 168.968 192.918 168.935 192.997C168.903 193.075 168.855 193.147 168.795 193.207C168.734 193.267 168.663 193.314 168.584 193.347C168.505 193.379 168.421 193.396 168.336 193.395Z" fill="#262424"/>
<path d="M166.684 183.157H130.742C130.499 183.157 130.26 183.101 130.042 182.992C129.825 182.884 129.635 182.727 129.489 182.533C129.343 182.339 129.244 182.114 129.201 181.875C129.157 181.636 129.169 181.391 129.237 181.158L140.301 142.934C140.475 142.331 140.841 141.801 141.343 141.423C141.845 141.046 142.456 140.842 143.084 140.841H179.026C179.269 140.841 179.508 140.897 179.726 141.005C179.943 141.113 180.133 141.271 180.279 141.465C180.425 141.659 180.524 141.884 180.567 142.122C180.611 142.361 180.599 142.607 180.531 142.84L169.47 181.066C169.295 181.669 168.928 182.199 168.426 182.576C167.924 182.953 167.313 183.157 166.684 183.157Z" fill="white"/>
<path d="M166.68 183.806H130.737C130.394 183.806 130.055 183.726 129.748 183.573C129.44 183.419 129.173 183.197 128.966 182.923C128.76 182.648 128.62 182.33 128.558 181.992C128.496 181.655 128.513 181.307 128.609 180.977L139.673 142.754C139.889 142.017 140.337 141.371 140.951 140.91C141.565 140.449 142.311 140.198 143.079 140.195H179.021C179.365 140.194 179.703 140.274 180.011 140.427C180.318 140.581 180.586 140.803 180.792 141.078C180.999 141.352 181.139 141.67 181.201 142.008C181.263 142.346 181.245 142.693 181.15 143.023L170.085 181.247C169.869 181.983 169.421 182.629 168.807 183.091C168.194 183.552 167.447 183.802 166.68 183.806ZM143.079 141.49C142.591 141.491 142.117 141.65 141.727 141.943C141.337 142.236 141.052 142.646 140.914 143.114L129.85 181.338C129.81 181.475 129.803 181.619 129.829 181.759C129.855 181.898 129.913 182.031 129.998 182.144C130.084 182.258 130.195 182.35 130.322 182.414C130.45 182.477 130.59 182.51 130.733 182.51H166.68C167.167 182.509 167.642 182.35 168.032 182.057C168.422 181.765 168.707 181.354 168.844 180.886L179.909 142.662C179.948 142.526 179.955 142.382 179.929 142.242C179.904 142.102 179.846 141.97 179.76 141.856C179.675 141.742 179.564 141.65 179.436 141.586C179.309 141.523 179.168 141.49 179.026 141.49H143.079Z" fill="#262424"/>
<path d="M165.888 180.274H133.352C133.221 180.274 133.092 180.243 132.975 180.185C132.857 180.126 132.755 180.041 132.677 179.937C132.598 179.832 132.545 179.71 132.522 179.582C132.498 179.453 132.505 179.321 132.541 179.195L142.509 144.751C142.594 144.455 142.774 144.195 143.02 144.01C143.267 143.825 143.567 143.724 143.875 143.725H176.411C176.542 143.725 176.671 143.755 176.789 143.814C176.906 143.872 177.008 143.957 177.086 144.062C177.165 144.166 177.218 144.288 177.242 144.417C177.265 144.545 177.258 144.678 177.222 144.803L167.254 179.248C167.169 179.544 166.989 179.804 166.743 179.989C166.496 180.174 166.196 180.274 165.888 180.274Z" fill="white"/>
<path d="M165.887 180.922H133.351C133.119 180.923 132.89 180.871 132.682 180.768C132.474 180.665 132.292 180.515 132.152 180.33C132.012 180.145 131.917 179.93 131.875 179.702C131.832 179.474 131.844 179.24 131.908 179.017L141.878 144.573C142.004 144.143 142.266 143.765 142.624 143.495C142.983 143.226 143.419 143.08 143.867 143.078H176.411C176.643 143.077 176.872 143.13 177.08 143.232C177.288 143.335 177.47 143.485 177.61 143.67C177.75 143.855 177.845 144.07 177.887 144.298C177.929 144.526 177.918 144.761 177.854 144.983L167.877 179.428C167.751 179.858 167.489 180.236 167.13 180.505C166.772 180.774 166.336 180.921 165.887 180.922ZM143.874 144.373C143.707 144.374 143.544 144.429 143.41 144.53C143.276 144.631 143.178 144.772 143.131 144.933L133.164 179.384C133.157 179.413 133.157 179.443 133.164 179.471C133.17 179.5 133.183 179.527 133.201 179.55C133.219 179.573 133.243 179.592 133.269 179.605C133.295 179.617 133.324 179.624 133.354 179.625H165.887C166.055 179.624 166.217 179.569 166.351 179.469C166.485 179.368 166.583 179.228 166.631 179.067L176.598 144.623C176.605 144.594 176.605 144.565 176.598 144.536C176.592 144.507 176.579 144.481 176.561 144.458C176.542 144.435 176.519 144.416 176.493 144.403C176.466 144.39 176.438 144.383 176.408 144.383H143.874V144.373Z" fill="#262424"/>
<path d="M134.509 268.947L134.91 279.459H128.115L126.853 268.947H134.509Z" fill="white"/>
<path d="M134.905 280.108H128.114C127.956 280.108 127.803 280.05 127.685 279.945C127.567 279.84 127.491 279.695 127.472 279.538L126.209 269.026C126.199 268.936 126.208 268.844 126.235 268.757C126.263 268.67 126.308 268.59 126.369 268.522C126.429 268.454 126.504 268.399 126.587 268.362C126.67 268.325 126.76 268.305 126.852 268.305H134.505C134.673 268.305 134.834 268.37 134.954 268.486C135.075 268.602 135.146 268.76 135.152 268.928L135.556 279.44C135.559 279.527 135.545 279.614 135.513 279.695C135.482 279.776 135.434 279.85 135.373 279.913C135.312 279.975 135.239 280.025 135.159 280.058C135.078 280.092 134.992 280.109 134.905 280.108ZM128.684 278.813H134.231L133.877 269.596H127.576L128.684 278.813Z" fill="#262424"/>
<path d="M135.516 226.186V263.927H122.287L115.608 233.731L66.6001 226.602C66.6001 226.602 53.3711 225.201 53.3711 196.728H73.2243L76.3511 197.689L90.6216 202.093L127.062 216.133L129.178 216.95C131.045 217.67 132.649 218.938 133.78 220.587C134.911 222.235 135.517 224.187 135.516 226.186Z" fill="#B0CDFE"/>
<path d="M59.5853 207.067C59.7224 208.523 60.052 211.426 60.7687 215.129C60.8045 215.301 60.8879 215.46 61.0095 215.587C61.1311 215.715 61.286 215.805 61.4566 215.849L67.2125 217.351C67.4359 217.409 67.6729 217.384 67.8787 217.279L71.3616 215.515C71.5354 215.427 71.6777 215.288 71.769 215.116C71.8603 214.944 71.8961 214.747 71.8715 214.554L70.9647 206.851C70.9376 206.621 70.8272 206.41 70.6543 206.256C70.4814 206.102 70.2581 206.017 70.0267 206.017H60.5258C60.3925 206.017 60.2606 206.044 60.1389 206.098C60.0171 206.152 59.9082 206.232 59.8193 206.331C59.7304 206.43 59.6636 206.547 59.6233 206.674C59.583 206.801 59.57 206.935 59.5853 207.067Z" fill="white"/>
<path d="M128.653 261.529C128.499 261.529 128.349 261.474 128.232 261.374C128.115 261.273 128.037 261.134 128.014 260.981L123.203 230.038L83.0349 216.95C81.5649 216.47 80.2522 215.602 79.2359 214.437C78.2196 213.273 77.5377 211.855 77.2623 210.335L75.7036 201.769C75.6878 201.685 75.6887 201.599 75.7061 201.516C75.7236 201.433 75.7573 201.354 75.8053 201.284C75.8533 201.213 75.9147 201.153 75.986 201.107C76.0573 201.06 76.1371 201.028 76.2208 201.012C76.3045 200.996 76.3905 200.997 76.4738 201.015C76.5572 201.032 76.6363 201.066 76.7067 201.114C76.7771 201.162 76.8373 201.223 76.8839 201.294C76.9305 201.365 76.9626 201.445 76.9784 201.529L78.5371 210.095C78.7709 211.386 79.3506 212.591 80.2145 213.58C81.0784 214.569 82.1943 215.306 83.4438 215.712L123.978 228.928C124.091 228.965 124.193 229.033 124.271 229.124C124.348 229.215 124.399 229.326 124.418 229.445L129.296 260.782C129.309 260.866 129.306 260.952 129.286 261.035C129.266 261.118 129.229 261.196 129.179 261.264C129.129 261.333 129.065 261.391 128.992 261.436C128.92 261.48 128.839 261.509 128.754 261.522C128.721 261.527 128.687 261.529 128.653 261.529Z" fill="#262424"/>
<path d="M77.6414 209.443C77.4954 209.444 77.3532 209.396 77.238 209.307C77.1228 209.217 77.0412 209.091 77.0067 208.95C76.9721 208.808 76.9866 208.659 77.0476 208.526C77.1087 208.394 77.2129 208.286 77.3431 208.22L79.4429 207.139C79.9735 206.864 80.4077 206.434 80.6879 205.906C80.968 205.379 81.0808 204.779 81.0112 204.186L80.3449 198.626C80.3348 198.541 80.3414 198.456 80.3644 198.374C80.3874 198.292 80.4263 198.215 80.4789 198.149C80.5315 198.082 80.5968 198.026 80.671 197.984C80.7452 197.943 80.8269 197.916 80.9114 197.906C80.9959 197.896 81.0815 197.902 81.1634 197.925C81.2454 197.948 81.322 197.987 81.3889 198.04C81.4558 198.092 81.5116 198.158 81.5533 198.232C81.595 198.306 81.6216 198.387 81.6317 198.472L82.298 204.032C82.3981 204.887 82.2351 205.753 81.8308 206.513C81.4265 207.274 80.8 207.893 80.0346 208.29L77.9348 209.371C77.8441 209.418 77.7435 209.443 77.6414 209.443Z" fill="#262424"/>
<path d="M135.509 226.187V230.553C135.31 230.565 135.11 230.572 134.908 230.572C133.224 230.571 131.571 230.117 130.124 229.258C128.676 228.398 127.488 227.164 126.683 225.686C125.879 224.208 125.488 222.54 125.553 220.859C125.617 219.178 126.135 217.545 127.05 216.133L129.167 216.95C131.034 217.67 132.639 218.937 133.771 220.586C134.903 222.235 135.509 224.187 135.509 226.187Z" fill="white"/>
<path d="M135.215 271.892H122.587C122.24 271.892 121.904 271.764 121.646 271.531C121.388 271.298 121.226 270.979 121.19 270.633L120.199 261.065C120.179 260.87 120.2 260.672 120.261 260.486C120.322 260.299 120.421 260.127 120.553 259.981C120.685 259.835 120.846 259.719 121.025 259.639C121.205 259.559 121.4 259.518 121.596 259.518H135.713C135.903 259.518 136.092 259.557 136.267 259.632C136.442 259.707 136.6 259.817 136.731 259.955C136.862 260.093 136.964 260.256 137.03 260.435C137.096 260.613 137.125 260.803 137.115 260.993L136.62 270.561C136.601 270.921 136.445 271.259 136.184 271.507C135.922 271.755 135.575 271.893 135.215 271.892Z" fill="#FEA151"/>
<path d="M157.18 301.531H124.081C124.081 301.531 123.841 300.015 123.689 297.259C123.382 290.89 123.665 284.505 124.534 278.188H138.003C138.003 278.188 141.371 286.903 146.686 290.269C150.948 292.968 155.622 292.797 156.909 297.259C157.226 298.362 157.334 299.748 157.18 301.531Z" fill="#B0CDFE"/>
<path d="M157.172 301.531H124.073C124.073 301.531 123.832 300.015 123.681 297.259H156.898C157.217 298.362 157.326 299.748 157.172 301.531Z" fill="white"/>
<path d="M157.17 302.169H124.071C123.916 302.169 123.767 302.113 123.65 302.013C123.532 301.912 123.455 301.773 123.431 301.621C123.431 301.558 123.191 300.04 123.034 297.296C123.029 297.208 123.042 297.119 123.072 297.036C123.102 296.954 123.149 296.878 123.21 296.814C123.27 296.749 123.343 296.698 123.425 296.663C123.506 296.629 123.593 296.611 123.681 296.611H156.896C157.037 296.611 157.174 296.656 157.286 296.741C157.398 296.825 157.48 296.944 157.519 297.079C157.875 298.307 157.971 299.783 157.817 301.587C157.8 301.747 157.725 301.895 157.605 302.002C157.486 302.109 157.331 302.169 157.17 302.169ZM124.627 300.873H156.566C156.64 299.878 156.581 298.877 156.391 297.896H124.357C124.449 299.3 124.552 300.311 124.627 300.885V300.873Z" fill="#262424"/>
<path d="M152.746 268.947L153.15 279.459H146.356L145.093 268.947H152.746Z" fill="white"/>
<path d="M153.155 280.108H146.36C146.202 280.108 146.05 280.05 145.931 279.945C145.813 279.84 145.737 279.695 145.718 279.538L144.455 269.026C144.445 268.936 144.454 268.844 144.481 268.757C144.509 268.67 144.554 268.59 144.615 268.522C144.676 268.454 144.75 268.399 144.833 268.362C144.916 268.325 145.006 268.305 145.098 268.305H152.754C152.921 268.306 153.082 268.371 153.202 268.487C153.323 268.603 153.394 268.761 153.401 268.928L153.802 279.44C153.805 279.527 153.791 279.613 153.76 279.694C153.728 279.775 153.681 279.849 153.621 279.911C153.56 279.973 153.488 280.023 153.408 280.057C153.328 280.091 153.242 280.108 153.155 280.108ZM146.938 278.813H152.484L152.131 269.596H145.829L146.938 278.813Z" fill="#262424"/>
<path d="M153.752 226.186V263.927H140.523L133.848 233.731L84.8404 226.602C84.8404 226.602 71.6113 225.201 71.6113 196.728H91.4645L94.5914 197.689L108.862 202.093L145.302 216.133L147.418 216.95C149.284 217.671 150.887 218.939 152.018 220.588C153.148 222.236 153.752 224.188 153.752 226.186Z" fill="#B0CDFE"/>
<path d="M134.823 238.801C134.676 238.801 134.533 238.751 134.418 238.659C134.303 238.566 134.223 238.438 134.19 238.294L133.308 234.308L84.7523 227.244C84.4612 227.21 81.0818 226.727 77.7264 222.76C73.2358 217.452 70.958 208.694 70.958 196.728C70.958 196.556 71.0263 196.392 71.1479 196.27C71.2694 196.149 71.4343 196.081 71.6062 196.081C71.7781 196.081 71.943 196.149 72.0646 196.27C72.1862 196.392 72.2544 196.556 72.2544 196.728C72.2544 224.3 84.7763 225.946 84.9038 225.958H84.9279L133.94 233.09C134.07 233.109 134.191 233.167 134.288 233.256C134.384 233.345 134.451 233.461 134.479 233.59L135.456 238.013C135.477 238.108 135.477 238.206 135.455 238.301C135.433 238.395 135.39 238.484 135.329 238.559C135.268 238.635 135.191 238.696 135.104 238.738C135.016 238.78 134.92 238.801 134.823 238.801Z" fill="#262424"/>
<path d="M77.8245 207.067C77.9616 208.524 78.2911 211.426 79.0079 215.129C79.0437 215.301 79.1271 215.46 79.2487 215.588C79.3703 215.715 79.5252 215.806 79.6958 215.85L85.4516 217.351C85.6751 217.41 85.9121 217.384 86.1179 217.279L89.6007 215.516C89.7746 215.428 89.9169 215.288 90.0082 215.116C90.0994 214.944 90.1352 214.748 90.1107 214.555L89.1991 206.87C89.172 206.641 89.0615 206.429 88.8886 206.275C88.7157 206.122 88.4924 206.037 88.261 206.037H78.7602C78.6291 206.037 78.4996 206.065 78.3798 206.118C78.2601 206.171 78.1527 206.249 78.0647 206.346C77.9767 206.443 77.9098 206.557 77.8685 206.681C77.8271 206.806 77.8122 206.937 77.8245 207.067Z" fill="white"/>
<path d="M146.895 261.529C146.74 261.529 146.591 261.474 146.473 261.374C146.356 261.273 146.278 261.134 146.255 260.981L141.444 230.038L101.276 216.95C99.8058 216.47 98.4929 215.601 97.4766 214.436C96.4603 213.271 95.7785 211.853 95.5035 210.333L93.9448 201.767C93.929 201.683 93.9299 201.597 93.9473 201.514C93.9648 201.43 93.9985 201.351 94.0465 201.281C94.0945 201.211 94.1559 201.151 94.2272 201.104C94.2985 201.058 94.3783 201.025 94.462 201.01C94.5457 200.994 94.6317 200.995 94.7151 201.012C94.7984 201.03 94.8775 201.063 94.9479 201.111C95.0183 201.159 95.0785 201.221 95.1251 201.292C95.1717 201.363 95.2038 201.443 95.2196 201.526L96.7783 210.092C97.0121 211.384 97.5918 212.588 98.4557 213.578C99.3196 214.567 100.436 215.304 101.685 215.71L142.219 228.925C142.333 228.963 142.434 229.031 142.512 229.122C142.589 229.213 142.64 229.324 142.659 229.442L147.537 260.78C147.55 260.864 147.547 260.95 147.527 261.032C147.507 261.115 147.471 261.193 147.42 261.262C147.37 261.331 147.307 261.389 147.234 261.433C147.161 261.477 147.08 261.507 146.996 261.52C146.962 261.525 146.928 261.529 146.895 261.529Z" fill="#262424"/>
<path d="M95.8816 209.443C95.7356 209.445 95.5934 209.397 95.4782 209.307C95.363 209.218 95.2815 209.092 95.2469 208.95C95.2123 208.808 95.2268 208.659 95.2879 208.527C95.3489 208.394 95.4531 208.286 95.5834 208.22L97.6832 207.139C98.2138 206.864 98.648 206.434 98.9281 205.907C99.2083 205.379 99.321 204.779 99.2514 204.186L98.5851 198.628C98.575 198.544 98.5817 198.458 98.6047 198.377C98.6277 198.295 98.6666 198.218 98.7192 198.151C98.7718 198.085 98.837 198.029 98.9112 197.987C98.9854 197.945 99.0671 197.919 99.1516 197.909C99.2361 197.899 99.3217 197.905 99.4037 197.928C99.4856 197.951 99.5622 197.99 99.6291 198.043C99.696 198.095 99.7519 198.16 99.7935 198.235C99.8352 198.309 99.8619 198.39 99.872 198.475L100.538 204.035C100.638 204.89 100.475 205.756 100.071 206.516C99.6668 207.277 99.0403 207.896 98.2749 208.293L96.1799 209.371C96.0877 209.419 95.9854 209.444 95.8816 209.443Z" fill="#262424"/>
<path d="M153.749 226.187V230.553C153.55 230.565 153.35 230.572 153.148 230.572C151.464 230.571 149.811 230.117 148.364 229.258C146.916 228.398 145.728 227.164 144.923 225.686C144.119 224.208 143.728 222.54 143.793 220.859C143.858 219.178 144.375 217.545 145.29 216.133L147.407 216.95C149.274 217.67 150.879 218.937 152.011 220.586C153.144 222.235 153.75 224.187 153.749 226.187Z" fill="#80AFFD"/>
<path d="M153.455 271.892H140.828C140.48 271.892 140.145 271.764 139.887 271.531C139.628 271.299 139.466 270.979 139.43 270.633L138.439 261.065C138.419 260.87 138.44 260.672 138.501 260.486C138.562 260.299 138.662 260.127 138.793 259.981C138.925 259.835 139.086 259.719 139.266 259.639C139.445 259.559 139.64 259.518 139.837 259.518H153.951C154.141 259.518 154.33 259.557 154.505 259.632C154.68 259.707 154.838 259.817 154.969 259.955C155.1 260.093 155.202 260.256 155.268 260.435C155.334 260.613 155.363 260.803 155.353 260.993L154.865 270.561C154.846 270.921 154.689 271.261 154.427 271.509C154.164 271.757 153.816 271.894 153.455 271.892Z" fill="#FEA151"/>
<path d="M175.416 301.531H142.305C142.305 301.531 142.065 300.015 141.913 297.259C141.606 290.89 141.888 284.505 142.757 278.188H156.227C156.227 278.188 159.594 286.903 164.91 290.269C169.172 292.968 173.845 292.797 175.132 297.259C175.459 298.362 175.57 299.748 175.416 301.531Z" fill="#B0CDFE"/>
<path d="M175.419 301.531H142.308C142.308 301.531 142.068 300.015 141.916 297.259H175.145C175.462 298.362 175.573 299.748 175.419 301.531Z" fill="white"/>
<path d="M175.414 302.169H142.303C142.148 302.169 141.999 302.113 141.882 302.013C141.764 301.912 141.687 301.773 141.663 301.621C141.663 301.558 141.423 300.04 141.264 297.296C141.259 297.208 141.271 297.119 141.302 297.036C141.332 296.954 141.379 296.878 141.439 296.814C141.5 296.749 141.573 296.698 141.654 296.663C141.735 296.629 141.823 296.611 141.911 296.611H175.14C175.28 296.611 175.417 296.656 175.53 296.741C175.642 296.825 175.724 296.944 175.763 297.079C176.119 298.307 176.215 299.783 176.061 301.587C176.044 301.747 175.969 301.895 175.849 302.002C175.73 302.109 175.575 302.169 175.414 302.169ZM142.871 300.873H174.81C174.884 299.878 174.825 298.877 174.635 297.896H142.594C142.693 299.3 142.801 300.311 142.871 300.885V300.873Z" fill="#262424"/>
<path d="M82.8568 111.895C82.8568 111.895 84.4731 116.487 91.0973 118.907C98.4741 121.603 102.085 110.811 102.166 101.295C102.247 91.7798 78.9795 92.3623 82.8568 111.895Z" fill="white"/>
<path d="M93.3208 121.044C92.4628 121.035 91.6124 120.871 90.8066 120.557C83.8812 117.946 82.1137 112.987 82.0415 112.779C82.0276 112.739 82.0166 112.698 82.0083 112.657C80.277 103.677 83.8963 99.1575 86.2238 97.262C90.4121 93.8335 95.9825 93.8303 99.3218 95.6039C101.731 96.8868 103.034 98.9779 103.016 101.518C102.965 107.907 101.351 116.522 96.9943 119.8C95.9237 120.617 94.6379 121.052 93.3208 121.044ZM83.5861 112.237C83.7909 112.766 85.4801 116.727 91.3486 118.924C93.107 119.588 94.6426 119.405 96.0337 118.366C99.647 115.665 101.327 107.949 101.378 101.502C101.399 99.0164 99.6379 97.7078 98.5841 97.1498C95.7657 95.6552 90.8186 95.668 87.1964 98.6316C84.7514 100.636 82.1408 104.623 83.5861 112.237Z" fill="#262424"/>
<path d="M83.1207 113.318L80.7061 123.639L92.0938 124.479L92.7247 113.656L83.1207 113.318Z" fill="white"/>
<path d="M92.1807 125.337H92.1207L81.4529 124.494C81.3368 124.485 81.224 124.45 81.1222 124.391C81.0204 124.332 80.9319 124.251 80.863 124.153C80.794 124.055 80.7461 123.942 80.7227 123.823C80.6992 123.704 80.7006 123.581 80.7269 123.463L82.9889 113.116C83.0317 112.925 83.1363 112.756 83.285 112.636C83.4337 112.517 83.6174 112.455 83.8049 112.461L92.8047 112.799C92.9123 112.803 93.018 112.83 93.1157 112.877C93.2134 112.924 93.301 112.992 93.3734 113.075C93.4458 113.158 93.5015 113.256 93.5373 113.362C93.5731 113.468 93.5882 113.581 93.5817 113.693L92.9817 124.56C92.9659 124.771 92.8748 124.968 92.7264 125.112C92.578 125.256 92.3832 125.336 92.1807 125.337ZM82.5119 122.87L91.4217 123.575L91.9197 114.427L84.4198 114.144L82.5119 122.87Z" fill="#262424"/>
<path d="M89.2153 88.3946C89.2153 88.3946 83.7685 85.3423 78.0006 90.9433C72.2327 96.5444 77.7598 110.103 83.0549 115.036H92.9852L99.4726 103.031L102.55 106.211C104.031 104.496 105.021 102.394 105.41 100.137C105.798 97.8805 105.571 95.5573 104.753 93.4249C101.937 85.8459 91.457 87.5705 89.2153 88.3946Z" fill="#262424"/>
<path d="M99.3593 103.087L99.3937 102.974C99.3937 102.974 101.708 98.7079 105.18 101.249C108.652 103.79 104.487 113.562 98.9296 109.952C98.5495 107.66 98.697 105.304 99.3593 103.087Z" fill="white"/>
<path d="M101.355 111.601C100.326 111.583 99.3214 111.265 98.4543 110.681C98.359 110.62 98.2771 110.539 98.2141 110.442C98.1511 110.345 98.1085 110.235 98.0891 110.12C97.6827 107.685 97.8411 105.183 98.5507 102.826L98.5858 102.713C98.6026 102.656 98.6251 102.602 98.653 102.55C98.7056 102.455 99.9648 100.201 102.124 99.6885C103.31 99.4063 104.508 99.6885 105.685 100.547C107.961 102.191 107.634 106.013 106.027 108.611C104.815 110.571 103.135 111.601 101.355 111.601ZM99.5821 109.454C102.375 110.988 104.204 108.534 104.71 107.7C105.919 105.743 106.243 102.946 104.794 101.897C103.985 101.311 103.225 101.112 102.474 101.283C101.169 101.59 100.254 102.973 100.058 103.292C99.4546 105.284 99.2917 107.393 99.5821 109.461V109.454Z" fill="#262424"/>
<path d="M77.2676 126.495L78.7694 120.506C78.7694 120.506 85.5124 117.54 94.9525 121.021L96.154 127.054L77.2676 126.495Z" fill="#B0CDFE"/>
<path d="M69.0414 128.19C69.0414 128.19 77.075 124.889 89.5175 125.787C101.96 126.686 109.481 130.319 109.481 130.319C109.481 130.319 113.953 151.334 114.039 157.291C114.126 163.247 106.869 168.252 106.869 168.252L109.936 202.3H52.2598C52.2598 202.3 53.1665 149.227 69.0414 128.19Z" fill="#FEA151"/>
<path d="M55.5061 168.44C55.4709 168.442 55.4355 168.442 55.4003 168.44C55.3162 168.426 55.2356 168.396 55.1631 168.352C55.0906 168.307 55.0277 168.249 54.9778 168.18C54.928 168.111 54.8923 168.033 54.8727 167.95C54.8532 167.867 54.8502 167.781 54.8639 167.697C57.8777 149.248 62.4742 135.826 68.5235 127.811C68.5747 127.743 68.6387 127.686 68.712 127.642C68.7852 127.599 68.8663 127.571 68.9505 127.559C69.0347 127.547 69.1204 127.552 69.2027 127.574C69.285 127.595 69.3624 127.632 69.4303 127.683C69.4982 127.734 69.5554 127.798 69.5985 127.871C69.6417 127.945 69.67 128.026 69.6818 128.11C69.6937 128.194 69.6888 128.28 69.6675 128.362C69.6462 128.444 69.6089 128.521 69.5577 128.589C63.636 136.437 59.1213 149.667 56.1411 167.906C56.1146 168.055 56.0366 168.191 55.9205 168.288C55.8044 168.386 55.6578 168.439 55.5061 168.44Z" fill="#262424"/>
<path d="M108.368 199.198H54.1531C53.9812 199.198 53.8163 199.13 53.6947 199.008C53.5732 198.887 53.5049 198.722 53.5049 198.55C53.5049 198.379 53.5732 198.214 53.6947 198.093C53.8163 197.971 53.9812 197.903 54.1531 197.903H108.368C108.54 197.903 108.705 197.971 108.826 198.093C108.948 198.214 109.016 198.379 109.016 198.55C109.016 198.722 108.948 198.887 108.826 199.008C108.705 199.13 108.54 199.198 108.368 199.198Z" fill="#262424"/>
<path d="M73.6558 93.8029L72.9883 98.2523C72.9407 98.5843 73.0098 98.924 73.1813 99.2007C73.3528 99.4775 73.6135 99.6701 73.9092 99.7384L77.0613 100.418C77.219 100.452 77.3811 100.449 77.5378 100.41C77.6945 100.371 77.8424 100.297 77.9724 100.192C78.1023 100.088 78.2116 99.9542 78.2934 99.8004C78.3752 99.6467 78.4279 99.4759 78.4481 99.2986L78.9739 94.6643C79.012 94.3246 78.9289 93.9818 78.7425 93.7096C78.556 93.4374 78.2811 93.2574 77.9767 93.2085L74.9663 92.7262C74.6652 92.6822 74.3604 92.7698 74.1161 92.9705C73.8718 93.1713 73.7068 93.4696 73.6558 93.8029Z" fill="white"/>
<path d="M77.3211 101.3C77.1966 101.299 77.0724 101.286 76.9502 101.26L73.6992 100.574C73.1974 100.468 72.7533 100.152 72.4611 99.695C72.169 99.2377 72.0517 98.6745 72.1342 98.1246L72.8226 93.6451C72.9076 93.0931 73.1874 92.5992 73.6022 92.2691C74.017 91.9389 74.5339 91.7987 75.0423 91.8784L78.1472 92.3652C78.658 92.4451 79.1196 92.7406 79.4323 93.1879C79.7451 93.6353 79.884 94.1987 79.819 94.7566L79.2767 99.4351C79.2145 99.9519 78.9817 100.426 78.6217 100.769C78.2618 101.113 77.7994 101.301 77.3211 101.3ZM74.7613 93.4981C74.6541 93.4987 74.5505 93.5404 74.4688 93.616C74.3871 93.6916 74.3324 93.7963 74.3146 93.9115L73.6262 98.391C73.6057 98.518 73.6319 98.6487 73.6992 98.7547C73.7666 98.8608 73.8695 98.9336 73.9858 98.9574L77.2368 99.6433C77.2977 99.6564 77.3605 99.6557 77.4212 99.6413C77.4818 99.6268 77.5392 99.5989 77.5895 99.5593C77.6399 99.5196 77.6822 99.4691 77.7138 99.4109C77.7455 99.3526 77.7658 99.2879 77.7735 99.2208L78.3242 94.5392C78.3387 94.4107 78.3065 94.2812 78.2346 94.1783C78.1627 94.0753 78.0567 94.007 77.9392 93.988L74.8344 93.5012L74.7613 93.4981Z" fill="#262424"/>
<path d="M58.8325 152.876C37.6189 162.895 31.4503 139.82 37.2906 137.31C43.1309 134.799 51.9712 129.606 47.5315 119.871C43.0918 110.135 40.2514 94.0814 52.0133 87.6363C63.7752 81.1912 73.8143 94.2289 73.8173 94.2349C73.8564 94.3433 73.9076 96.1104 72.8685 98.615C68.0945 99.3796 65.6397 103.41 68.4981 112.875C71.5402 122.984 80.0491 142.858 58.8325 152.876Z" fill="#262424"/>
<path d="M161.806 185.701C160.428 187.143 153.573 186.316 153.573 186.316C153.573 186.316 150.778 187.143 149.544 186.797C148.31 186.451 146.658 184.565 146.658 184.565C146.658 184.565 112.546 189.01 110.884 181.681L102.191 164.691L117.826 156.423L123.786 171.138L147.892 176.587L149.015 176.306C150.107 176.014 151.23 175.853 152.361 175.826C154.109 175.791 155.832 176.252 157.33 177.154C158.828 178.056 160.039 179.363 160.825 180.925C161.813 182.835 162.564 184.911 161.806 185.701Z" fill="white"/>
<path d="M150.28 187.532C149.976 187.538 149.672 187.504 149.376 187.432C148.243 187.124 146.939 185.834 146.401 185.269C144.717 185.476 137.102 186.367 129.405 186.538C117.391 186.804 111.125 185.298 110.269 181.927L101.61 164.992C101.532 164.84 101.517 164.664 101.568 164.502C101.619 164.339 101.733 164.204 101.884 164.124L117.518 155.856C117.598 155.814 117.686 155.788 117.777 155.782C117.868 155.776 117.958 155.788 118.044 155.819C118.129 155.85 118.207 155.899 118.272 155.962C118.337 156.025 118.389 156.101 118.423 156.185L124.255 170.585L147.894 175.922L148.857 175.682C149.994 175.374 151.164 175.202 152.342 175.17C154.212 175.134 156.055 175.627 157.658 176.591C159.26 177.556 160.558 178.953 161.4 180.622C162.86 183.486 163.134 185.243 162.264 186.148C160.789 187.684 155.072 187.141 153.605 186.973C153.131 187.114 151.543 187.532 150.28 187.532ZM146.656 183.928C146.747 183.929 146.837 183.949 146.92 183.987C147.003 184.025 147.077 184.081 147.137 184.149C147.728 184.827 148.953 185.975 149.71 186.182C150.468 186.389 152.373 185.992 153.386 185.702C153.47 185.676 153.558 185.669 153.645 185.68C156.361 186.004 160.539 186.088 161.342 185.259C161.41 185.19 161.932 184.495 160.26 181.213C159.528 179.762 158.402 178.547 157.009 177.708C155.617 176.868 154.016 176.438 152.39 176.468C151.31 176.501 150.238 176.662 149.196 176.948L148.06 177.222C147.962 177.245 147.859 177.245 147.76 177.222L123.654 171.77C123.552 171.747 123.457 171.699 123.378 171.632C123.298 171.564 123.236 171.478 123.197 171.381L117.506 157.332L103.06 164.968L111.457 181.403C111.481 181.451 111.5 181.502 111.512 181.554C112.628 186.473 133.607 185.639 146.569 183.938L146.656 183.928Z" fill="#262424"/>
<path d="M110.032 130.927L120.815 157.182C117.825 166.89 112.002 171.455 101.186 166.988C101.186 166.988 94.6362 149.059 94.9609 138.676C95.2856 128.293 105.967 126.47 110.032 130.927Z" fill="#FEA151"/>
<path d="M99.6906 163.215C99.5532 163.216 99.4194 163.172 99.3083 163.091C99.1972 163.011 99.1147 162.897 99.0724 162.766C97.1963 156.894 94.0815 145.946 94.3076 138.659C94.4447 134.218 96.5108 130.701 99.9744 129.011C100.129 128.936 100.307 128.925 100.469 128.981C100.632 129.037 100.765 129.155 100.84 129.309C100.916 129.464 100.926 129.641 100.871 129.804C100.815 129.966 100.696 130.099 100.542 130.174C98.7694 131.039 95.77 133.298 95.6016 138.697C95.3803 145.795 98.4543 156.577 100.306 162.37C100.338 162.467 100.346 162.57 100.33 162.671C100.314 162.771 100.274 162.867 100.214 162.949C100.154 163.032 100.075 163.099 99.9844 163.145C99.8934 163.191 99.7927 163.216 99.6906 163.215Z" fill="#262424"/>
<path d="M108.262 166.147C106.023 166.111 103.826 165.534 101.859 164.465C101.711 164.379 101.603 164.237 101.559 164.071C101.516 163.904 101.54 163.728 101.627 163.58C101.713 163.432 101.856 163.324 102.022 163.28C102.188 163.237 102.365 163.261 102.513 163.348C102.556 163.374 106.965 165.885 111.321 164.335C114.258 163.285 116.541 160.642 118.109 156.476C118.131 156.388 118.172 156.305 118.229 156.234C118.285 156.162 118.356 156.103 118.437 156.061C118.518 156.019 118.607 155.995 118.698 155.989C118.789 155.984 118.88 155.998 118.965 156.03C119.05 156.062 119.128 156.112 119.192 156.176C119.257 156.24 119.307 156.317 119.34 156.402C119.373 156.487 119.387 156.578 119.382 156.669C119.377 156.76 119.353 156.849 119.312 156.93C117.601 161.481 115.052 164.379 111.73 165.563C110.616 165.954 109.443 166.151 108.262 166.147Z" fill="#262424"/>
<path d="M140.634 301.531C141.038 301.531 141.437 301.443 141.804 301.275C142.171 301.106 142.498 300.86 142.761 300.554C143.024 300.248 143.218 299.889 143.33 299.501C143.441 299.113 143.468 298.706 143.407 298.306L132.824 228.683H85.8103L75.2271 298.306C75.1665 298.706 75.1928 299.113 75.3043 299.501C75.4159 299.889 75.6099 300.248 75.8732 300.554C76.1365 300.86 76.4629 301.106 76.83 301.275C77.1971 301.443 77.5963 301.531 78.0003 301.531C78.6424 301.531 79.2651 301.311 79.7646 300.908C80.264 300.505 80.61 299.943 80.7448 299.316L94.2889 236.213H124.348L137.892 299.316C138.026 299.942 138.372 300.504 138.871 300.907C139.37 301.31 139.992 301.531 140.634 301.531Z" fill="#FEA151"/>
<path d="M131.703 271.142C131.555 271.142 131.412 271.091 131.296 270.998C131.181 270.905 131.102 270.775 131.07 270.631L128.949 260.743C128.931 260.66 128.93 260.574 128.945 260.49C128.961 260.407 128.992 260.327 129.039 260.256C129.085 260.184 129.145 260.123 129.215 260.074C129.285 260.026 129.364 259.992 129.447 259.974C129.53 259.956 129.616 259.955 129.7 259.97C129.783 259.986 129.863 260.017 129.935 260.064C130.006 260.11 130.068 260.17 130.116 260.24C130.165 260.31 130.199 260.388 130.217 260.471L132.338 270.359C132.358 270.454 132.357 270.551 132.334 270.645C132.312 270.739 132.268 270.827 132.207 270.902C132.147 270.977 132.07 271.038 131.982 271.079C131.895 271.121 131.8 271.142 131.703 271.142Z" fill="#262424"/>
<path d="M108.681 301.531C109.085 301.531 109.484 301.443 109.851 301.275C110.218 301.106 110.544 300.86 110.808 300.554C111.071 300.248 111.265 299.889 111.377 299.501C111.488 299.113 111.514 298.706 111.454 298.306L100.871 228.683H53.8523L43.269 298.306C43.2085 298.706 43.2348 299.113 43.3463 299.501C43.4579 299.889 43.6519 300.248 43.9152 300.554C44.1785 300.86 44.5049 301.106 44.872 301.275C45.2391 301.443 45.6383 301.531 46.0423 301.531C46.6844 301.531 47.3071 301.311 47.8066 300.908C48.306 300.505 48.6519 299.943 48.7868 299.316L62.3309 236.213H92.3944L105.939 299.316C106.073 299.942 106.419 300.504 106.918 300.907C107.417 301.31 108.039 301.531 108.681 301.531Z" fill="#FEA151"/>
<path d="M101.878 235.951C101.723 235.951 101.573 235.896 101.456 235.795C101.339 235.694 101.261 235.554 101.238 235.401L100.233 228.781C100.207 228.611 100.25 228.438 100.352 228.3C100.454 228.162 100.607 228.069 100.777 228.043C100.947 228.018 101.12 228.06 101.258 228.162C101.397 228.264 101.489 228.417 101.515 228.587L102.52 235.206C102.533 235.29 102.53 235.376 102.509 235.459C102.489 235.542 102.452 235.619 102.402 235.688C102.351 235.756 102.288 235.814 102.215 235.858C102.142 235.902 102.061 235.931 101.977 235.944C101.944 235.949 101.911 235.951 101.878 235.951Z" fill="#262424"/>
<path d="M92.9813 239.654C92.8332 239.653 92.6898 239.602 92.5748 239.509C92.4597 239.416 92.38 239.287 92.3487 239.142L91.8676 236.862H85.8328C85.6609 236.862 85.496 236.794 85.3744 236.672C85.2529 236.551 85.1846 236.386 85.1846 236.214C85.1846 236.042 85.2529 235.878 85.3744 235.756C85.496 235.635 85.6609 235.567 85.8328 235.567H92.38C92.5281 235.567 92.6718 235.618 92.7869 235.711C92.9021 235.804 92.9817 235.934 93.0125 236.078L93.6115 238.87C93.6314 238.965 93.6302 239.062 93.6079 239.156C93.5856 239.249 93.5427 239.337 93.4824 239.411C93.4221 239.486 93.3458 239.547 93.2591 239.589C93.1725 239.631 93.0776 239.653 92.9813 239.654Z" fill="#262424"/>
<path d="M52.835 163.009H95.1391C96.5655 163.01 97.9461 163.513 99.0377 164.43C100.129 165.347 100.862 166.62 101.107 168.024L109.91 218.649C110.046 219.434 110.456 220.146 111.067 220.659C111.678 221.172 112.45 221.452 113.248 221.45H130.542C131.846 221.45 133.095 221.968 134.017 222.888C134.939 223.809 135.456 225.057 135.456 226.359C135.456 227.004 135.329 227.642 135.082 228.238C134.835 228.834 134.473 229.375 134.017 229.831C133.561 230.286 133.019 230.648 132.423 230.895C131.827 231.141 131.188 231.268 130.542 231.268H54.093C52.7022 231.27 51.3533 230.793 50.2731 229.918C49.1929 229.042 48.4473 227.822 48.1616 226.463C46.1412 216.628 42.4154 193.112 46.8627 167.986C47.1138 166.587 47.8501 165.322 48.9423 164.412C50.0345 163.502 51.4128 163.005 52.835 163.009Z" fill="white"/>
<path d="M130.547 231.914H54.1025C52.5628 231.909 51.0716 231.376 49.8772 230.406C48.6828 229.435 47.8574 228.085 47.5385 226.58C45.6431 217.423 41.7201 193.373 46.2445 167.87C46.52 166.323 47.3329 164.922 48.54 163.914C49.7472 162.907 51.2714 162.356 52.8445 162.36H95.1486C96.7288 162.358 98.259 162.914 99.4683 163.93C100.678 164.946 101.488 166.357 101.756 167.913L110.562 218.55C110.671 219.184 111.001 219.76 111.494 220.174C111.987 220.588 112.611 220.815 113.256 220.813H130.549C131.974 220.886 133.316 221.503 134.299 222.536C135.281 223.569 135.829 224.94 135.828 226.365C135.828 227.79 135.28 229.16 134.297 230.193C133.314 231.226 131.972 231.842 130.547 231.914ZM52.8566 163.655C51.5869 163.649 50.3557 164.09 49.3798 164.902C48.4039 165.713 47.7459 166.843 47.5217 168.091C43.0238 193.381 46.9252 217.236 48.7965 226.318C49.0529 227.532 49.7181 228.621 50.6811 229.403C51.6441 230.186 52.8466 230.615 54.0881 230.619H130.547C131.116 230.633 131.681 230.532 132.211 230.324C132.74 230.116 133.223 229.805 133.63 229.408C134.037 229.01 134.36 228.536 134.581 228.012C134.802 227.489 134.915 226.926 134.915 226.358C134.915 225.79 134.802 225.227 134.581 224.703C134.36 224.18 134.037 223.705 133.63 223.308C133.223 222.911 132.74 222.599 132.211 222.391C131.681 222.183 131.116 222.083 130.547 222.096H113.258C112.309 222.098 111.39 221.764 110.664 221.153C109.937 220.543 109.45 219.696 109.289 218.761L100.486 168.137C100.27 166.882 99.6158 165.744 98.6403 164.924C97.6648 164.104 96.4305 163.656 95.1558 163.658H52.8445L52.8566 163.655Z" fill="#262424"/>
<path d="M255.173 264.949L258.184 277.494L265.075 276.994L264.075 263.224L255.173 264.949Z" fill="white"/>
<path d="M258.179 278.14C258.033 278.139 257.891 278.09 257.777 278C257.662 277.91 257.581 277.784 257.546 277.642L254.537 265.097C254.517 265.012 254.514 264.923 254.529 264.836C254.544 264.75 254.576 264.667 254.623 264.593C254.671 264.519 254.733 264.456 254.806 264.407C254.879 264.357 254.961 264.323 255.047 264.307L263.947 262.581C264.037 262.564 264.13 262.566 264.22 262.587C264.309 262.608 264.393 262.647 264.466 262.703C264.539 262.759 264.599 262.83 264.643 262.911C264.686 262.992 264.712 263.081 264.719 263.173L265.719 276.943C265.731 277.115 265.675 277.284 265.562 277.414C265.449 277.544 265.29 277.624 265.118 277.637L258.225 278.137H258.177L258.179 278.14ZM255.961 265.453L258.684 276.801L264.377 276.388L263.475 263.997L255.961 265.453Z" fill="#262424"/>
<path d="M269.911 301.531H238.972C238.677 300.001 238.586 298.44 238.7 296.886C238.876 294.82 239.554 292.617 241.464 291.567C242.792 290.806 244.029 289.896 245.151 288.856C248.583 285.754 252.338 280.831 255.157 274.55H267.308C268.617 281.938 269.453 289.402 269.81 296.896C269.875 298.429 269.911 299.984 269.911 301.531Z" fill="#B0CDFE"/>
<path d="M269.911 301.531H238.972C238.677 300.002 238.586 298.44 238.7 296.886H269.812C269.875 298.429 269.911 299.984 269.911 301.531Z" fill="white"/>
<path d="M269.914 302.182H238.975C238.826 302.182 238.682 302.131 238.566 302.038C238.45 301.944 238.371 301.814 238.34 301.668C238.03 300.076 237.935 298.449 238.056 296.831C238.07 296.669 238.144 296.518 238.265 296.408C238.385 296.298 238.542 296.237 238.705 296.238H269.815C269.983 296.238 270.144 296.303 270.265 296.419C270.386 296.535 270.457 296.693 270.465 296.86C270.53 298.463 270.563 300.034 270.563 301.531C270.564 301.617 270.547 301.701 270.514 301.78C270.482 301.859 270.434 301.931 270.374 301.991C270.314 302.052 270.242 302.1 270.163 302.133C270.084 302.165 269.999 302.182 269.914 302.182ZM239.518 300.882H269.262C269.262 299.799 269.231 298.679 269.19 297.538H239.314C239.276 298.657 239.345 299.777 239.521 300.882H239.518Z" fill="#262424"/>
<path d="M245.247 301.532H238.972C238.677 300.002 238.586 298.44 238.7 296.887C238.876 294.82 239.554 292.617 241.464 291.567C242.792 290.806 244.029 289.897 245.151 288.857C244.579 290.753 243.888 294.847 245.247 301.532Z" fill="white"/>
<path d="M245.25 302.183H238.975C238.826 302.183 238.682 302.131 238.566 302.038C238.45 301.944 238.371 301.814 238.34 301.668C238.03 300.076 237.935 298.449 238.056 296.832C238.296 293.999 239.367 291.983 241.154 290.998C242.438 290.261 243.634 289.381 244.718 288.374C244.824 288.279 244.958 288.222 245.099 288.21C245.24 288.198 245.381 288.232 245.501 288.308C245.621 288.383 245.713 288.496 245.763 288.628C245.814 288.761 245.819 288.906 245.779 289.042C245.248 290.832 244.553 294.808 245.89 301.402C245.91 301.496 245.908 301.594 245.885 301.688C245.862 301.782 245.818 301.87 245.757 301.945C245.695 302.02 245.618 302.08 245.53 302.121C245.443 302.162 245.347 302.183 245.25 302.183ZM239.518 300.883H244.461C243.59 296.183 243.74 292.79 244.1 290.591C243.369 291.166 242.593 291.682 241.782 292.137C240.375 292.913 239.557 294.539 239.352 296.942C239.255 298.258 239.311 299.58 239.518 300.883Z" fill="#262424"/>
<path d="M257.044 290.637C258.724 290.637 260.086 288.581 260.086 286.045C260.086 283.509 258.724 281.453 257.044 281.453C255.363 281.453 254.001 283.509 254.001 286.045C254.001 288.581 255.363 290.637 257.044 290.637Z" fill="white"/>
<path d="M257.042 291.288C254.971 291.288 253.348 288.986 253.348 286.045C253.348 283.104 254.971 280.804 257.042 280.804C259.113 280.804 260.737 283.106 260.737 286.045C260.737 288.983 259.113 291.288 257.042 291.288ZM257.042 282.104C255.746 282.104 254.649 283.909 254.649 286.045C254.649 288.181 255.746 289.988 257.042 289.988C258.339 289.988 259.435 288.183 259.435 286.045C259.435 283.906 258.339 282.104 257.042 282.104Z" fill="#262424"/>
<path d="M263.742 296.289C263.575 296.289 263.414 296.224 263.293 296.108C263.172 295.992 263.101 295.834 263.095 295.667C262.636 283.412 261 275.723 260.983 275.639C260.965 275.556 260.964 275.47 260.979 275.387C260.994 275.303 261.026 275.223 261.072 275.151C261.118 275.08 261.178 275.018 261.248 274.97C261.318 274.921 261.397 274.887 261.48 274.869C261.563 274.851 261.649 274.85 261.733 274.865C261.817 274.88 261.897 274.912 261.968 274.958C262.04 275.004 262.102 275.064 262.15 275.133C262.199 275.203 262.233 275.282 262.251 275.365C262.268 275.442 263.935 283.227 264.389 295.619C264.392 295.703 264.379 295.788 264.349 295.868C264.32 295.947 264.275 296.02 264.217 296.083C264.159 296.145 264.089 296.195 264.012 296.231C263.935 296.266 263.851 296.286 263.766 296.289H263.742Z" fill="#262424"/>
<path d="M267.55 296.289C267.382 296.289 267.221 296.224 267.101 296.108C266.98 295.992 266.909 295.834 266.903 295.667C266.443 283.412 264.808 275.723 264.791 275.639C264.755 275.471 264.787 275.296 264.88 275.151C264.973 275.007 265.12 274.905 265.288 274.869C265.456 274.833 265.631 274.865 265.776 274.958C265.921 275.051 266.022 275.197 266.059 275.365C266.075 275.442 267.742 283.227 268.197 295.619C268.2 295.703 268.187 295.788 268.157 295.868C268.127 295.947 268.082 296.02 268.025 296.083C267.967 296.145 267.897 296.195 267.82 296.231C267.742 296.266 267.659 296.286 267.574 296.289H267.55Z" fill="#262424"/>
<path d="M229.58 137.996C229.58 137.996 233.868 199.681 236.459 210.095C239.049 220.508 253.652 266.186 253.652 266.186L272.545 262.887L260.536 205.736C260.536 205.736 263.761 168.012 263.225 156.601C262.688 145.19 260.969 116.7 244.591 118.564C228.214 120.429 229.58 137.996 229.58 137.996Z" fill="#B0CDFE"/>
<path d="M245.317 145.084L255.061 143.974C255.451 143.929 255.843 144.041 256.15 144.285C256.457 144.529 256.655 144.885 256.699 145.274L257.697 154.025C257.732 154.325 257.673 154.629 257.529 154.895C257.385 155.161 257.162 155.376 256.892 155.512L252.228 157.853C251.912 158.011 251.549 158.051 251.206 157.966L246.121 156.699C245.829 156.626 245.566 156.466 245.367 156.24C245.168 156.013 245.044 155.732 245.01 155.433L244.016 146.718C243.972 146.329 244.085 145.938 244.329 145.632C244.572 145.326 244.928 145.129 245.317 145.084Z" fill="white"/>
<path d="M237.365 152.687C237.282 152.687 237.201 152.672 237.124 152.641L235.157 151.86C234.615 151.646 234.141 151.288 233.787 150.825C233.433 150.363 233.211 149.813 233.146 149.234L232.107 140.13C232.087 139.96 232.136 139.788 232.243 139.654C232.35 139.52 232.506 139.433 232.677 139.414C232.847 139.395 233.019 139.444 233.153 139.55C233.288 139.657 233.374 139.813 233.394 139.983L234.433 149.088C234.472 149.434 234.604 149.763 234.816 150.04C235.028 150.317 235.311 150.531 235.635 150.659L237.603 151.44C237.743 151.495 237.859 151.598 237.931 151.73C238.003 151.861 238.028 152.014 237.999 152.162C237.971 152.309 237.892 152.443 237.777 152.538C237.661 152.634 237.515 152.687 237.365 152.687Z" fill="#262424"/>
<path d="M257.764 261.604C257.624 261.604 257.487 261.559 257.374 261.474C257.262 261.389 257.18 261.271 257.141 261.135L241.557 207.24C241.545 207.2 241.537 207.159 241.533 207.118L235.628 139.712C235.613 139.541 235.667 139.371 235.778 139.239C235.888 139.108 236.046 139.025 236.218 139.01C236.389 138.995 236.559 139.049 236.691 139.159C236.823 139.27 236.905 139.428 236.92 139.599L242.82 206.942L258.387 260.765C258.417 260.863 258.423 260.965 258.406 261.065C258.389 261.166 258.348 261.26 258.288 261.342C258.227 261.423 258.148 261.49 258.057 261.535C257.966 261.581 257.866 261.604 257.764 261.604Z" fill="#262424"/>
<path d="M254.735 262.204C254.572 262.208 254.413 262.15 254.291 262.041C254.169 261.933 254.092 261.783 254.076 261.62C254.06 261.458 254.107 261.296 254.206 261.166C254.305 261.036 254.449 260.949 254.61 260.921L269.67 257.932C269.838 257.898 270.013 257.933 270.156 258.029C270.299 258.124 270.398 258.273 270.432 258.441C270.465 258.61 270.431 258.785 270.335 258.927C270.239 259.07 270.091 259.169 269.922 259.203L254.863 262.192C254.821 262.2 254.778 262.204 254.735 262.204Z" fill="#262424"/>
<path d="M217.575 264.607L219.668 277.337H226.578V263.531L217.575 264.607Z" fill="white"/>
<path d="M226.586 277.988H219.676C219.522 277.988 219.372 277.934 219.254 277.834C219.137 277.734 219.058 277.595 219.034 277.443L216.941 264.708C216.927 264.621 216.93 264.533 216.951 264.447C216.972 264.362 217.01 264.282 217.063 264.212C217.116 264.142 217.183 264.083 217.259 264.04C217.335 263.996 217.419 263.968 217.506 263.958L226.509 262.882C226.6 262.871 226.692 262.881 226.78 262.908C226.867 262.936 226.947 262.982 227.015 263.043C227.083 263.104 227.138 263.179 227.175 263.263C227.212 263.346 227.231 263.437 227.231 263.528V277.334C227.232 277.42 227.216 277.504 227.183 277.583C227.151 277.662 227.104 277.734 227.044 277.795C226.984 277.855 226.913 277.904 226.835 277.937C226.756 277.97 226.672 277.987 226.586 277.988ZM220.229 276.688H225.937V264.263L218.336 265.171L220.229 276.688Z" fill="#262424"/>
<path d="M231.905 301.531H200.966C200.671 300.001 200.58 298.44 200.694 296.886C200.87 294.82 201.548 292.617 203.458 291.567C204.786 290.806 206.023 289.896 207.145 288.856C210.577 285.754 214.332 280.831 217.151 274.55H229.302C230.611 281.938 231.447 289.402 231.804 296.896C231.869 298.429 231.905 299.984 231.905 301.531Z" fill="#B0CDFE"/>
<path d="M231.905 301.531H200.966C200.671 300.002 200.58 298.44 200.694 296.886H231.806C231.869 298.429 231.905 299.984 231.905 301.531Z" fill="white"/>
<path d="M231.908 302.182H200.969C200.82 302.182 200.676 302.131 200.56 302.038C200.445 301.944 200.365 301.814 200.334 301.668C200.024 300.076 199.929 298.449 200.05 296.831C200.064 296.669 200.138 296.518 200.259 296.408C200.379 296.298 200.536 296.237 200.699 296.238H231.809C231.977 296.238 232.138 296.303 232.259 296.419C232.38 296.535 232.451 296.693 232.459 296.86C232.524 298.463 232.557 300.034 232.557 301.531C232.558 301.617 232.541 301.701 232.508 301.78C232.476 301.859 232.428 301.931 232.368 301.991C232.308 302.052 232.236 302.1 232.157 302.133C232.078 302.165 231.993 302.182 231.908 302.182ZM201.512 300.882H231.254C231.254 299.799 231.222 298.679 231.181 297.538H201.308C201.269 298.657 201.338 299.777 201.512 300.882Z" fill="#262424"/>
<path d="M207.241 301.532H200.966C200.671 300.002 200.58 298.44 200.694 296.887C200.87 294.82 201.548 292.617 203.458 291.567C204.786 290.806 206.023 289.897 207.145 288.857C206.575 290.753 205.885 294.847 207.241 301.532Z" fill="white"/>
<path d="M207.241 302.183H200.963C200.814 302.183 200.67 302.131 200.554 302.038C200.439 301.944 200.359 301.814 200.328 301.668C200.018 300.076 199.923 298.449 200.044 296.832C200.285 293.999 201.355 291.983 203.142 290.998C204.426 290.261 205.622 289.381 206.707 288.374C206.812 288.279 206.946 288.222 207.087 288.21C207.228 288.198 207.37 288.232 207.49 288.308C207.609 288.383 207.701 288.496 207.752 288.628C207.802 288.761 207.807 288.906 207.767 289.042C207.236 290.834 206.543 294.82 207.878 301.402C207.898 301.496 207.896 301.594 207.873 301.688C207.85 301.782 207.807 301.869 207.746 301.944C207.685 302.019 207.608 302.079 207.52 302.12C207.433 302.162 207.337 302.183 207.241 302.183ZM201.509 300.883H206.452C205.581 296.183 205.73 292.79 206.091 290.591C205.359 291.166 204.584 291.682 203.772 292.137C202.365 292.913 201.547 294.539 201.343 296.942C201.247 298.258 201.303 299.58 201.511 300.883H201.509Z" fill="#262424"/>
<path d="M219.032 290.637C220.712 290.637 222.075 288.581 222.075 286.045C222.075 283.509 220.712 281.453 219.032 281.453C217.352 281.453 215.989 283.509 215.989 286.045C215.989 288.581 217.352 290.637 219.032 290.637Z" fill="white"/>
<path d="M219.03 291.288C216.96 291.288 215.336 288.986 215.336 286.045C215.336 283.104 216.96 280.804 219.03 280.804C221.101 280.804 222.725 283.106 222.725 286.045C222.725 288.983 221.101 291.288 219.03 291.288ZM219.03 282.104C217.734 282.104 216.637 283.909 216.637 286.045C216.637 288.181 217.734 289.988 219.03 289.988C220.327 289.988 221.424 288.183 221.424 286.045C221.424 283.906 220.327 282.104 219.03 282.104Z" fill="#262424"/>
<path d="M225.74 296.289C225.572 296.289 225.411 296.224 225.291 296.108C225.17 295.992 225.099 295.834 225.093 295.667C224.633 283.388 222.998 275.723 222.983 275.639C222.965 275.556 222.964 275.47 222.979 275.387C222.994 275.303 223.026 275.223 223.072 275.151C223.118 275.08 223.178 275.018 223.248 274.97C223.318 274.921 223.397 274.887 223.48 274.869C223.563 274.851 223.649 274.85 223.733 274.865C223.817 274.88 223.897 274.912 223.968 274.958C224.04 275.004 224.102 275.064 224.15 275.133C224.199 275.203 224.233 275.282 224.251 275.365C224.268 275.442 225.935 283.227 226.389 295.619C226.392 295.703 226.379 295.788 226.349 295.868C226.32 295.947 226.275 296.02 226.217 296.083C226.159 296.145 226.089 296.195 226.012 296.231C225.935 296.266 225.851 296.286 225.766 296.289H225.742H225.74Z" fill="#262424"/>
<path d="M229.553 296.289C229.386 296.289 229.225 296.224 229.104 296.108C228.983 295.992 228.913 295.834 228.906 295.667C228.447 283.388 226.811 275.723 226.797 275.639C226.779 275.556 226.777 275.47 226.793 275.387C226.808 275.303 226.839 275.223 226.886 275.151C226.932 275.08 226.991 275.018 227.061 274.97C227.131 274.921 227.21 274.887 227.294 274.869C227.377 274.851 227.463 274.85 227.547 274.865C227.63 274.88 227.71 274.912 227.782 274.958C227.853 275.004 227.915 275.064 227.964 275.133C228.012 275.203 228.046 275.282 228.064 275.365C228.081 275.442 229.748 283.227 230.203 295.619C230.206 295.703 230.192 295.788 230.163 295.868C230.133 295.947 230.088 296.02 230.03 296.083C229.973 296.145 229.903 296.195 229.826 296.231C229.748 296.266 229.665 296.286 229.58 296.289H229.556H229.553Z" fill="#262424"/>
<path d="M206.168 135.975C206.168 135.975 203.433 197.746 204.828 208.388C206.223 219.03 215.551 266.056 215.551 266.056L234.697 264.917L229.244 206.769C229.244 206.769 236.725 169.655 237.487 158.254C238.249 146.852 239.77 118.353 223.296 118.353C206.822 118.353 206.168 135.975 206.168 135.975Z" fill="#B0CDFE"/>
<path d="M234.297 180.74C234.259 180.743 234.221 180.743 234.184 180.74C234.1 180.725 234.02 180.694 233.948 180.649C233.876 180.603 233.814 180.544 233.765 180.474C233.716 180.405 233.681 180.326 233.663 180.243C233.644 180.16 233.642 180.074 233.657 179.99C235.514 169.442 236.587 162.123 236.847 158.235C237.354 150.621 238.703 130.396 231.189 122.371C229.111 120.151 226.453 119.026 223.293 119.026C223.121 119.026 222.956 118.958 222.834 118.836C222.713 118.715 222.645 118.55 222.645 118.379C222.645 118.207 222.713 118.042 222.834 117.921C222.956 117.799 223.121 117.731 223.293 117.731C226.826 117.731 229.801 118.995 232.137 121.487C240.036 129.923 238.66 150.561 238.15 158.322C237.888 162.255 236.808 169.615 234.944 180.214C234.915 180.363 234.835 180.498 234.716 180.594C234.598 180.69 234.449 180.742 234.297 180.74Z" fill="#262424"/>
<path d="M221.012 144.8H230.818C231.211 144.8 231.587 144.956 231.864 145.233C232.142 145.51 232.298 145.886 232.298 146.278V155.084C232.298 155.386 232.206 155.68 232.034 155.928C231.862 156.176 231.618 156.365 231.336 156.471L226.438 158.27C226.106 158.393 225.741 158.393 225.409 158.27L220.502 156.437C220.22 156.332 219.976 156.143 219.804 155.895C219.632 155.648 219.54 155.354 219.54 155.053V146.283C219.539 145.891 219.693 145.515 219.969 145.237C220.245 144.959 220.62 144.802 221.012 144.8Z" fill="white"/>
<path d="M212.306 151.459C212.199 151.459 212.094 151.432 212 151.382L210.136 150.382C209.622 150.108 209.192 149.699 208.893 149.199C208.593 148.699 208.435 148.127 208.436 147.545V138.383C208.436 138.211 208.504 138.046 208.625 137.925C208.747 137.803 208.912 137.735 209.084 137.735C209.256 137.735 209.421 137.803 209.542 137.925C209.664 138.046 209.732 138.211 209.732 138.383V147.547C209.732 147.895 209.826 148.237 210.006 148.536C210.185 148.835 210.442 149.079 210.749 149.243L212.614 150.243C212.741 150.311 212.841 150.42 212.9 150.552C212.958 150.684 212.97 150.831 212.935 150.971C212.899 151.111 212.818 151.235 212.704 151.323C212.59 151.411 212.45 151.459 212.306 151.459Z" fill="#262424"/>
<path d="M220.232 261.981C220.079 261.98 219.931 261.926 219.814 261.827C219.697 261.728 219.62 261.591 219.595 261.44L210.214 206.13C210.21 206.088 210.21 206.046 210.214 206.005L211.989 138.363C211.99 138.278 212.009 138.194 212.043 138.116C212.077 138.038 212.126 137.968 212.188 137.909C212.25 137.85 212.323 137.805 212.403 137.775C212.483 137.744 212.568 137.731 212.653 137.734C212.738 137.736 212.822 137.755 212.899 137.789C212.977 137.824 213.047 137.873 213.106 137.935C213.164 137.997 213.21 138.069 213.24 138.148C213.271 138.228 213.285 138.312 213.283 138.397L211.51 205.976L220.872 261.224C220.886 261.308 220.884 261.394 220.865 261.477C220.846 261.56 220.811 261.638 220.762 261.708C220.712 261.777 220.649 261.836 220.577 261.882C220.505 261.927 220.424 261.957 220.34 261.971C220.304 261.977 220.268 261.98 220.232 261.981Z" fill="#262424"/>
<path d="M217.166 262.236C216.995 262.243 216.827 262.181 216.701 262.065C216.575 261.949 216.5 261.787 216.493 261.616C216.486 261.444 216.547 261.277 216.664 261.151C216.78 261.025 216.942 260.95 217.113 260.943L232.413 259.677C232.585 259.662 232.755 259.717 232.886 259.828C233.017 259.938 233.099 260.097 233.113 260.268C233.128 260.439 233.073 260.609 232.962 260.74C232.851 260.871 232.693 260.953 232.522 260.967L217.222 262.233H217.166V262.236Z" fill="#262424"/>
<path d="M245.662 115.898L242.682 117.798C242.682 117.798 237.546 117.101 236.151 117.419C234.756 117.736 229.748 120.782 229.748 122.359C229.748 123.935 234.884 121.398 234.884 121.398C234.884 121.398 230.626 123.88 230.128 124.12C229.631 124.36 227.528 124.12 226.323 124.5C225.118 124.879 228.668 132.1 230.191 133.114C231.713 134.128 238.434 132.924 240.144 132.479C241.854 132.035 248.449 124.182 248.702 124.055C248.955 123.928 253.077 121.016 253.077 121.016L245.662 115.898Z" fill="white"/>
<path d="M232.554 134.159C231.38 134.159 230.389 134.024 229.841 133.664C228.342 132.666 225.191 126.65 225.458 124.773C225.472 124.576 225.544 124.387 225.665 124.231C225.787 124.074 225.951 123.957 226.139 123.894C226.887 123.653 227.847 123.639 228.693 123.622C229.085 123.63 229.476 123.605 229.862 123.545L230.014 123.464C229.876 123.436 229.745 123.385 229.624 123.312C229.461 123.212 229.328 123.07 229.237 122.901C229.147 122.732 229.103 122.543 229.11 122.351C229.11 120.189 234.707 117.077 236.018 116.779C237.328 116.481 241.425 116.971 242.543 117.118L245.324 115.345C245.432 115.275 245.558 115.239 245.687 115.242C245.815 115.245 245.94 115.285 246.045 115.359L253.463 120.489C253.548 120.549 253.618 120.628 253.666 120.72C253.714 120.812 253.739 120.915 253.739 121.019C253.739 121.123 253.714 121.225 253.666 121.318C253.618 121.41 253.548 121.489 253.463 121.549C252.02 122.567 249.636 124.247 249.095 124.586C248.96 124.718 248.506 125.227 248.025 125.766C244.176 130.064 241.55 132.791 240.328 133.111C239.548 133.315 235.493 134.159 232.554 134.159ZM226.721 125.081C226.697 126.342 229.263 131.734 230.555 132.592C231.693 133.351 237.74 132.453 239.986 131.871C241.085 131.585 245.576 126.566 247.051 124.915C248.2 123.629 248.253 123.577 248.417 123.495C248.621 123.375 250.464 122.087 251.95 121.039L245.651 116.671L243.034 118.353C242.905 118.435 242.75 118.469 242.598 118.449C240.58 118.175 237.239 117.846 236.299 118.06C234.918 118.372 230.721 121.119 230.418 122.248C231.024 122.306 232.876 121.688 234.601 120.837C234.752 120.756 234.929 120.738 235.094 120.788C235.258 120.837 235.396 120.949 235.478 121.101C235.559 121.252 235.577 121.429 235.527 121.593C235.478 121.757 235.365 121.895 235.214 121.976C234.776 122.231 230.933 124.463 230.423 124.72C230.079 124.891 229.574 124.91 228.713 124.927C228.046 124.917 227.379 124.968 226.721 125.081ZM249.057 124.619L248.996 124.653L249.057 124.619Z" fill="#262424"/>
<path d="M251.35 58.9103C251.35 58.9103 257.402 60.859 261.715 70.1074C266.027 79.3558 272.745 98.8618 273 107.855C273.255 116.849 256.712 124.07 251.353 126.095C251.353 126.095 243.68 123.308 243.935 115.076L257.164 103.17C257.164 103.17 247.908 85.9419 244.611 75.6819C241.313 65.4219 251.35 58.9103 251.35 58.9103Z" fill="#FEA151"/>
<path d="M252.448 124.336C252.326 124.336 252.207 124.302 252.104 124.237C245.369 120.013 245.944 114.652 245.973 114.427C245.983 114.342 246.01 114.261 246.052 114.187C246.094 114.112 246.15 114.047 246.217 113.995C246.284 113.943 246.36 113.904 246.442 113.881C246.524 113.858 246.61 113.852 246.694 113.862C246.779 113.872 246.861 113.899 246.935 113.941C247.009 113.982 247.074 114.038 247.126 114.105C247.179 114.172 247.218 114.249 247.241 114.331C247.263 114.413 247.27 114.498 247.26 114.583C247.238 114.78 246.791 119.388 252.792 123.142C252.911 123.216 253.002 123.327 253.053 123.458C253.103 123.589 253.109 123.733 253.07 123.868C253.031 124.003 252.95 124.122 252.837 124.206C252.725 124.29 252.588 124.336 252.448 124.336Z" fill="#262424"/>
<path d="M229.65 42.5369C229.65 42.5369 224.834 49.7913 217.727 49.7913C210.62 49.7913 205.322 19.2037 217.967 16.6053C230.613 14.0068 238.684 29.1031 229.65 42.5369Z" fill="white"/>
<path d="M218.011 50.6498C213.562 50.6498 210.38 42.4567 209.643 34.7473C208.857 26.5311 210.665 17.2281 218.093 15.7605C224.073 14.5811 229.532 16.8306 232.704 21.7769C235.754 26.5344 236.924 34.6148 231.065 43.0265C230.833 43.3678 225.718 50.6498 218.011 50.6498ZM221.15 17.2414C220.236 17.2431 219.324 17.3341 218.428 17.5131C212.159 18.7488 210.685 27.1374 211.396 34.5751C212.123 42.195 215.213 48.864 218.008 48.864C224.797 48.864 229.568 42.0724 229.614 42.0061C234.968 34.3199 233.949 27.0214 231.213 22.7542C230.142 21.043 228.655 19.6379 226.894 18.6728C225.133 17.7077 223.157 17.2149 221.154 17.2414H221.15Z" fill="#262424"/>
<path d="M237.801 59.2345L235.525 44.6405L225.782 47.3059L226.063 59.2345H237.801Z" fill="white"/>
<path d="M238.594 60.093H226.136C225.898 60.0931 225.669 60.0051 225.499 59.8478C225.328 59.6906 225.23 59.4767 225.225 59.2518L224.923 47.3279C224.919 47.1349 224.983 46.946 225.106 46.7917C225.229 46.6374 225.403 46.5266 225.601 46.4771L235.948 43.8128C236.072 43.7807 236.202 43.7737 236.328 43.7922C236.455 43.8107 236.577 43.8543 236.684 43.9201C236.792 43.9859 236.884 44.0725 236.954 44.1742C237.024 44.2758 237.07 44.3903 237.09 44.5101L239.506 59.0983C239.526 59.222 239.518 59.3485 239.482 59.4689C239.445 59.5893 239.382 59.7008 239.295 59.7955C239.208 59.8903 239.1 59.966 238.979 60.0174C238.858 60.0687 238.727 60.0946 238.594 60.093ZM227.027 58.369H237.53L235.437 45.7255L226.763 47.9644L227.027 58.369Z" fill="#262424"/>
<path d="M214.775 34.3386C214.775 34.3386 216.163 28.5063 220.45 29.9494C224.738 31.3924 224.486 37.9494 221.396 39.8133L225.326 46.3576H235.893C235.893 46.3576 244.419 35.481 245.428 28.6361C246.437 21.7912 239.5 21.2374 239.5 21.2374C239.5 21.2374 238.239 15.345 233.195 14.3197C228.15 13.2943 214.277 16.0633 214.277 16.0633C214.277 16.0633 211.583 11.9747 209.299 12.019C207.016 12.0633 207.076 16.576 207.076 16.576C207.076 16.576 204.089 12.8766 202.25 14.0064C200.411 15.1361 203.528 30.3355 212.847 27.538C212.854 27.538 211.593 33.7532 214.775 34.3386Z" fill="#262424"/>
<path d="M244.662 57.6288C244.662 57.6288 242.198 51.5087 232.653 51.5087C223.109 51.5087 219.77 59.2349 219.77 59.2349H244.665V57.6288H244.662Z" fill="white"/>
<path d="M244.631 60.0933H218.955C218.807 60.0938 218.661 60.06 218.53 59.9948C218.4 59.9297 218.289 59.8352 218.206 59.72C218.124 59.6047 218.074 59.4722 218.06 59.3342C218.046 59.1962 218.068 59.0571 218.125 58.9293C218.162 58.8451 221.919 50.6501 232.242 50.6501C242.565 50.6501 245.354 57.0631 245.467 57.3346C245.508 57.4342 245.528 57.5401 245.527 57.6467V59.2601C245.525 59.4817 245.43 59.6936 245.262 59.8497C245.094 60.0058 244.867 60.0933 244.631 60.0933ZM220.447 58.4113H243.735V57.8121C243.305 56.9414 240.627 52.3322 232.246 52.3322C225.317 52.3291 221.793 56.3579 220.447 58.4113Z" fill="#262424"/>
<path d="M203.321 138.909C206.288 139.935 209.324 140.749 212.406 141.346V133.52C212.45 132.978 212.697 132.474 213.097 132.106C213.496 131.738 214.02 131.534 214.564 131.534C215.107 131.534 215.631 131.738 216.031 132.106C216.43 132.474 216.677 132.978 216.721 133.52V142.059C244.163 145.82 263.816 136.946 263.816 136.946C258.914 85.264 251.34 58.91 251.34 58.91C226.116 54.6114 207.054 60.2676 207.054 60.2676C203.321 75.8066 203.321 138.909 203.321 138.909Z" fill="#FEA151"/>
<path d="M261.902 119.692C261.743 119.692 261.59 119.633 261.472 119.528C261.353 119.422 261.278 119.277 261.259 119.12C257.502 87.5228 253.082 68.3124 251.357 61.522C251.315 61.3557 251.34 61.1794 251.428 61.0318C251.515 60.8842 251.658 60.7775 251.825 60.7351C251.991 60.6927 252.168 60.7182 252.316 60.8058C252.463 60.8935 252.57 61.0361 252.613 61.2025C254.344 68.0192 258.777 87.2922 262.544 118.966C262.554 119.051 262.548 119.136 262.525 119.219C262.502 119.301 262.463 119.377 262.41 119.444C262.357 119.511 262.292 119.567 262.217 119.609C262.143 119.651 262.061 119.677 261.976 119.687L261.902 119.692Z" fill="#262424"/>
<path d="M230.649 140.175C226.793 140.176 222.939 139.972 219.104 139.565C218.933 139.547 218.776 139.462 218.668 139.328C218.56 139.194 218.51 139.023 218.528 138.853C218.546 138.682 218.632 138.525 218.765 138.417C218.899 138.309 219.07 138.259 219.241 138.277C229.329 139.351 244.785 139.517 261.12 134.219C261.283 134.166 261.461 134.18 261.614 134.258C261.767 134.337 261.883 134.472 261.936 134.636C261.989 134.799 261.975 134.977 261.897 135.13C261.818 135.283 261.682 135.399 261.519 135.451C250.353 139.072 239.602 140.175 230.649 140.175Z" fill="#262424"/>
<path d="M209.338 138.034C209.293 138.034 209.248 138.029 209.203 138.02C206.798 137.513 205.463 137.119 205.408 137.102C205.243 137.053 205.105 136.941 205.023 136.79C204.942 136.639 204.923 136.461 204.972 136.297C205.021 136.133 205.134 135.994 205.285 135.913C205.436 135.831 205.614 135.813 205.778 135.862C205.79 135.862 207.125 136.259 209.473 136.754C209.631 136.784 209.773 136.874 209.869 137.004C209.965 137.134 210.009 137.295 209.992 137.456C209.976 137.616 209.899 137.765 209.778 137.872C209.657 137.979 209.5 138.037 209.338 138.034Z" fill="#262424"/>
<path d="M171.239 91.7035L165.026 88.2194C165.026 88.2194 163.823 77.2626 162.998 75.6792C162.363 74.461 156.557 70.4867 154.255 68.9681C154.107 68.8706 153.942 68.8034 153.768 68.7703C153.594 68.7372 153.415 68.7389 153.241 68.7754C153.068 68.8118 152.904 68.8822 152.758 68.9825C152.612 69.0828 152.487 69.2111 152.391 69.3598C152.235 69.601 152.161 69.8858 152.18 70.1722C152.198 70.4586 152.309 70.7315 152.494 70.9505L156.468 75.2995L151.583 73.0986C151.153 72.9044 150.666 72.8804 150.219 73.0317C149.773 73.1829 149.4 73.498 149.178 73.9131L146.241 79.3747C146.021 79.7838 145.962 80.2604 146.077 80.7105C146.191 81.1606 146.47 81.5516 146.859 81.8063L153.55 86.1939C153.55 86.1939 153.423 93.0971 155.073 93.9213C156.723 94.7455 162.289 95.5672 162.289 95.5672L168.882 101.457L171.239 91.7035Z" fill="white"/>
<path d="M168.887 102.105C168.727 102.105 168.573 102.046 168.454 101.939L162.006 96.1725C160.984 96.0164 156.337 95.2739 154.776 94.4906C153.022 93.6135 152.875 88.5652 152.892 86.5325L146.497 82.3396C145.97 81.9978 145.592 81.4704 145.438 80.8624C145.284 80.2544 145.364 79.6107 145.664 79.0597L148.611 73.6078C148.912 73.05 149.414 72.6267 150.015 72.4231C150.616 72.2194 151.272 72.2503 151.851 72.5097L153.876 73.4227L152.017 71.3876C151.701 71.0254 151.528 70.5613 151.529 70.0812C151.53 69.6011 151.705 69.1376 152.022 68.7766C152.338 68.4156 152.775 68.1815 153.252 68.1177C153.728 68.0539 154.211 68.1648 154.612 68.4297C156.519 69.6888 162.807 73.9081 163.574 75.381C164.373 76.9164 165.402 85.7444 165.635 87.818L171.56 91.1387C171.684 91.2078 171.782 91.3159 171.838 91.4462C171.895 91.5765 171.907 91.7217 171.872 91.8595L169.527 101.612C169.492 101.755 169.41 101.881 169.294 101.971C169.177 102.06 169.034 102.108 168.887 102.105ZM150.814 73.5837C150.595 73.5834 150.379 73.6425 150.191 73.7546C150.003 73.8667 149.848 74.0277 149.744 74.2205L146.807 79.6821C146.662 79.948 146.622 80.2589 146.697 80.5525C146.771 80.8461 146.954 81.1008 147.209 81.2655L153.902 85.653C153.994 85.713 154.069 85.7951 154.12 85.8917C154.172 85.9883 154.198 86.0963 154.196 86.2057C154.138 89.3438 154.593 92.96 155.36 93.342C156.637 93.9788 160.868 94.702 162.393 94.9279C162.518 94.9468 162.635 95.0019 162.73 95.0865L168.515 100.255L170.499 92.0301L164.714 88.7863C164.624 88.7359 164.547 88.6646 164.49 88.5785C164.434 88.4924 164.398 88.3939 164.387 88.2913C163.925 84.1008 162.987 77.0534 162.427 75.9793C161.991 75.1407 157.708 72.0219 153.9 69.511C153.761 69.4179 153.594 69.3781 153.428 69.3991C153.263 69.4201 153.11 69.5003 152.999 69.6249C152.888 69.7496 152.826 69.9102 152.825 70.077C152.823 70.2438 152.882 70.4055 152.991 70.5322L156.948 74.8572C157.049 74.967 157.11 75.1086 157.118 75.2579C157.127 75.4071 157.084 75.5549 156.996 75.6759C156.908 75.7969 156.781 75.8837 156.636 75.9215C156.491 75.9593 156.338 75.9458 156.202 75.8832L151.317 73.6822C151.159 73.6141 150.988 73.5805 150.816 73.5837H150.814Z" fill="#262424"/>
<path d="M216.317 83.5769C212.57 92.2271 205.53 105.923 199.083 113.518C196.231 116.882 193.494 119.045 191.211 119.045C189.008 119.045 185.708 117.584 182.158 115.522C173.739 110.64 163.906 102.408 163.906 102.408C163.38 95.3747 165.027 90.5187 170.586 89.572L186.477 96.5809C186.477 96.5809 200.156 62.6076 207.064 60.2697C217.837 58.5373 221.736 71.0775 216.317 83.5769Z" fill="#FEA151"/>
<path d="M205.354 105.325C205.239 105.325 205.125 105.295 205.026 105.236C204.926 105.178 204.844 105.094 204.788 104.993C204.732 104.892 204.703 104.778 204.706 104.663C204.709 104.548 204.743 104.435 204.804 104.337C208.922 97.5905 212.571 90.5681 215.724 83.3201C218.461 76.9935 218.85 70.2776 216.729 65.794C215.584 63.3743 213.778 61.7476 211.502 61.0917C211.337 61.0442 211.197 60.9331 211.114 60.7828C211.031 60.6325 211.011 60.4554 211.058 60.2903C211.106 60.1253 211.217 59.9858 211.368 59.9027C211.518 59.8196 211.695 59.7995 211.861 59.847C214.506 60.6087 216.594 62.4733 217.9 65.2389C220.207 70.1214 219.839 77.0703 216.914 83.8318C213.738 91.137 210.061 98.2149 205.91 105.015C205.852 105.11 205.77 105.189 205.673 105.243C205.576 105.297 205.466 105.326 205.354 105.325Z" fill="#262424"/>
<path d="M199.08 113.519C196.228 116.883 193.49 119.045 191.208 119.045C189.005 119.045 185.704 117.584 182.154 115.523C182.705 111.459 186.409 108.314 190.893 108.314C194.611 108.319 197.786 110.472 199.08 113.519Z" fill="#D16100"/>
<path d="M166.894 103.141C166.736 103.141 166.583 103.083 166.465 102.978C166.346 102.873 166.271 102.728 166.252 102.571C166.206 102.194 165.203 93.294 171.325 91.0762C171.486 91.0175 171.664 91.0254 171.82 91.0979C171.975 91.1705 172.096 91.3018 172.154 91.463C172.213 91.6243 172.205 91.8022 172.133 91.9576C172.06 92.1131 171.929 92.2334 171.767 92.292C166.615 94.159 167.529 102.333 167.541 102.415C167.561 102.585 167.513 102.757 167.407 102.892C167.302 103.027 167.146 103.115 166.976 103.136L166.894 103.141Z" fill="#262424"/>
<path d="M17.9145 212.62C15.5389 212.62 13.2606 213.563 11.5808 215.241C9.90096 216.919 8.95726 219.195 8.95726 221.568C8.95726 219.195 8.01355 216.919 6.33373 215.241C4.65392 213.563 2.37561 212.62 0 212.62C2.37561 212.62 4.65392 211.677 6.33373 209.999C8.01355 208.321 8.95726 206.045 8.95726 203.672C8.95726 206.045 9.90096 208.321 11.5808 209.999C13.2606 211.677 15.5389 212.62 17.9145 212.62Z" fill="#B0CDFE"/>
<path d="M212.684 6.31458C211.008 6.31522 209.4 6.98071 208.215 8.16478C207.03 9.34886 206.364 10.9546 206.363 12.6292C206.363 11.7992 206.199 10.9774 205.88 10.2108C205.562 9.44423 205.095 8.74781 204.507 8.16138C203.92 7.57496 203.222 7.11002 202.454 6.79313C201.686 6.47625 200.863 6.31363 200.032 6.31458C201.708 6.31394 203.316 5.64846 204.501 4.46438C205.686 3.2803 206.353 1.67454 206.353 0C206.354 0.829963 206.518 1.65173 206.836 2.41833C207.154 3.18494 207.621 3.88135 208.209 4.46778C208.797 5.0542 209.495 5.51914 210.262 5.83603C211.03 6.15291 211.853 6.31553 212.684 6.31458Z" fill="#FEA151"/>
<path d="M17.9077 170.432C19.272 170.432 20.3779 169.327 20.3779 167.964C20.3779 166.601 19.272 165.496 17.9077 165.496C16.5435 165.496 15.4375 166.601 15.4375 167.964C15.4375 169.327 16.5435 170.432 17.9077 170.432Z" fill="#FEA151"/>
</svg>
