<svg width="125" height="88" viewBox="0 0 125 88" fill="none" xmlns="http://www.w3.org/2000/svg">
<rect width="125" height="87.2093" rx="31.3552" fill="#E7B1FD"/>
<path d="M61.3546 66.1368C62.0176 66.4909 62.8498 66.4886 63.5128 66.1346C81.581 56.4284 82.8642 37.4649 82.8484 32.0728C82.8467 31.6394 82.7186 31.216 82.4799 30.8543C82.2412 30.4926 81.9021 30.2084 81.5043 30.0364L63.3504 21.9945C63.0615 21.8672 62.7492 21.8016 62.4334 21.802C62.1177 21.8024 61.8055 21.8687 61.517 21.9968L43.4893 30.0387C43.0973 30.2107 42.7631 30.4918 42.5264 30.8484C42.2897 31.2051 42.1605 31.6223 42.1542 32.0503C42.0776 37.4153 43.1578 56.4194 61.3546 66.1368ZM55.0086 40.2906L60.1797 45.4616L69.861 35.7803L73.0498 38.9691L60.1797 51.8392L51.8198 43.4793L55.0086 40.2906Z" fill="white"/>
</svg>
