<svg width="168" height="168" viewBox="0 0 168 168" fill="none" xmlns="http://www.w3.org/2000/svg">
<g clip-path="url(#clip0)">
<path d="M143.943 97.9043L149.451 63.4849C149.753 61.4309 149.515 59.433 148.764 57.5605C148.012 55.688 146.802 54.0798 145.163 52.8055L117.385 31.7488C114.26 29.3801 110.083 28.8024 106.407 30.2777L27.1455 62.0972C21.3902 64.4076 18.609 70.9189 20.9195 76.6748L43.1903 132.151C45.5009 137.907 52.0126 140.688 57.768 138.377L137.03 106.558C140.705 105.082 143.324 101.776 143.943 97.9043ZM108.335 73.7905C106.024 68.0348 108.806 61.5233 114.561 59.2128C120.317 56.9022 126.828 59.6831 129.139 65.4389C131.449 71.1947 128.668 77.7057 122.912 80.0166C117.157 82.327 110.645 79.5462 108.335 73.7905Z" fill="#FF6C6C"/>
<path d="M137.03 106.557L57.7679 138.377C52.0125 140.687 45.5011 137.906 43.1902 132.151L32.0548 104.412L108.335 73.7902C110.645 79.5459 117.157 82.3267 122.912 80.0162C128.668 77.7056 131.449 71.1945 129.138 65.4386L148.763 57.5602C149.515 59.4327 149.753 61.4307 149.45 63.4846L143.943 97.9041C143.324 101.776 140.705 105.082 137.03 106.557Z" fill="#FF4949"/>
<path d="M68.0946 73.8407C65.792 68.105 68.5848 61.5659 74.3207 59.2631C80.0565 56.9602 86.5955 59.7533 88.8983 65.4891C91.2012 71.225 88.4081 77.764 82.6723 80.0668C76.9364 82.3696 70.3972 79.5765 68.0946 73.8407ZM81.9636 68.2729C81.1957 66.3599 79.0175 65.4296 77.1045 66.1975C75.1915 66.9655 74.2612 69.1437 75.0292 71.0567C75.7971 72.9697 77.9753 73.9 79.8883 73.132C81.8013 72.364 82.7316 70.1859 81.9636 68.2729Z" fill="#FFE470"/>
<path d="M58.4262 109.93C56.1236 104.195 58.9164 97.6554 64.6522 95.3526C70.388 93.05 76.9271 95.8428 79.2299 101.579C81.5325 107.314 78.7397 113.854 73.0038 116.156C67.2679 118.459 60.7288 115.666 58.4262 109.93ZM72.2951 104.363C71.5271 102.45 69.349 101.519 67.436 102.287C65.523 103.055 64.5927 105.233 65.3606 107.146C66.1286 109.059 68.3068 109.99 70.2198 109.222C72.133 108.454 73.0633 106.276 72.2951 104.363Z" fill="#FFD400"/>
<path d="M95.5019 98.1867L68.1143 89.9366L49.6938 84.3677C48.5137 84.036 47.7079 83.2325 47.2905 82.1921C46.9843 81.4294 46.9558 80.5551 47.1901 79.7362C47.7569 77.737 49.8924 76.6383 51.8216 77.2326L79.2092 85.4826L97.6297 91.0516C99.6289 91.6183 100.728 93.7535 100.133 95.6831C99.5672 97.682 97.4315 98.7806 95.5019 98.1867Z" fill="#FFE470"/>
<path d="M95.502 98.1867L68.1145 89.9367L79.2097 85.4826L97.6302 91.0515C99.6294 91.6182 100.728 93.7534 100.134 95.683C99.5674 97.6821 97.4317 98.7807 95.502 98.1867Z" fill="#FFD400"/>
<path d="M163.84 55.5341L127.063 70.2982C125.121 71.0777 122.984 70.1647 122.204 68.2229C121.425 66.2811 122.338 64.1433 124.279 63.3637L161.056 48.5997C162.998 47.8201 165.136 48.7332 165.915 50.675C166.695 52.6168 165.782 54.7546 163.84 55.5341Z" fill="#3E5959"/>
<path d="M122.204 68.2229L165.915 50.6751C166.695 52.6168 165.782 54.7547 163.84 55.5342L127.063 70.2983C125.121 71.0777 122.984 70.1647 122.204 68.2229Z" fill="#384949"/>
</g>
<defs>
<clipPath id="clip0">
<rect width="127.53" height="127.53" fill="white" transform="translate(50.0903) rotate(23.1271)"/>
</clipPath>
</defs>
</svg>
