<svg width="141" height="92" viewBox="0 0 141 92" fill="none" xmlns="http://www.w3.org/2000/svg">
<g filter="url(#filter0_d)">
<path d="M113.385 69.1094C116.782 67.2698 121.707 66.9672 125.575 68.1896L128.153 66.7934C131.49 64.9866 131.665 61.936 128.483 60.0132L44.853 8.54668C41.7304 6.62499 36.0895 6.59253 32.7512 8.43325L13.0069 19.1258C9.67055 20.9327 9.5818 24.0023 12.7632 25.9251L96.3934 77.3916C99.516 79.3133 105.071 79.3266 108.409 77.4858L110.987 76.0897C109.123 73.7492 109.988 70.9491 113.385 69.1094Z" fill="url(#paint0_linear)"/>
</g>
<path d="M82.3788 66.4467C82.8644 66.1837 82.8768 65.7359 82.4065 65.4464C81.9361 65.157 81.1611 65.1355 80.6755 65.3985L82.3788 66.4467ZM84.6868 63.2262C84.2011 63.4892 84.1887 63.937 84.6591 64.2265C85.1294 64.516 85.9044 64.5374 86.3901 64.2744L84.6868 63.2262ZM90.4014 62.1021C90.887 61.8391 90.8994 61.3912 90.4291 61.1018C89.9587 60.8123 89.1837 60.7909 88.6981 61.0539L90.4014 62.1021ZM92.7094 58.8815C92.2237 59.1445 92.2113 59.5924 92.6817 59.8818C93.152 60.1713 93.927 60.1927 94.4127 59.9297L92.7094 58.8815ZM98.424 57.7574C98.9096 57.4944 98.922 57.0466 98.4516 56.7571C97.9813 56.4676 97.2063 56.4462 96.7207 56.7092L98.424 57.7574ZM100.732 54.5369C100.246 54.7999 100.234 55.2477 100.704 55.5372C101.175 55.8266 101.95 55.8481 102.435 55.5851L100.732 54.5369ZM106.447 53.4128C106.932 53.1498 106.945 52.7019 106.474 52.4124C106.004 52.123 105.229 52.1015 104.743 52.3645L106.447 53.4128ZM108.755 50.1922C108.269 50.4552 108.257 50.9031 108.727 51.1925C109.197 51.482 109.972 51.5034 110.458 51.2404L108.755 50.1922ZM80.3731 67.5329L82.3788 66.4467L80.6755 65.3985L78.6698 66.4847L80.3731 67.5329ZM86.3901 64.2744L90.4014 62.1021L88.6981 61.0539L84.6868 63.2262L86.3901 64.2744ZM94.4127 59.9297L98.424 57.7574L96.7207 56.7092L92.7094 58.8815L94.4127 59.9297ZM102.435 55.5851L106.447 53.4128L104.743 52.3645L100.732 54.5369L102.435 55.5851ZM110.458 51.2404L112.463 50.1543L110.76 49.106L108.755 50.1922L110.458 51.2404Z" fill="#BEBEBE"/>
<defs>
<filter id="filter0_d" x="0.439453" y="0.0786133" width="140.327" height="91.7714" filterUnits="userSpaceOnUse" color-interpolation-filters="sRGB">
<feFlood flood-opacity="0" result="BackgroundImageFix"/>
<feColorMatrix in="SourceAlpha" type="matrix" values="0 0 0 0 0 0 0 0 0 0 0 0 0 0 0 0 0 0 127 0"/>
<feOffset dy="3"/>
<feGaussianBlur stdDeviation="5"/>
<feColorMatrix type="matrix" values="0 0 0 0 0 0 0 0 0 0 0 0 0 0 0 0 0 0 0.13 0"/>
<feBlend mode="normal" in2="BackgroundImageFix" result="effect1_dropShadow"/>
<feBlend mode="normal" in="SourceGraphic" in2="effect1_dropShadow" result="shape"/>
</filter>
<linearGradient id="paint0_linear" x1="76.64" y1="60.0406" x2="79.6567" y2="-35.0842" gradientUnits="userSpaceOnUse">
<stop stop-color="#9A95FA"/>
<stop offset="1" stop-color="#9A95FA" stop-opacity="0"/>
<stop offset="1" stop-color="white"/>
</linearGradient>
</defs>
</svg>
