<svg width="435" height="463" viewBox="0 0 435 463" fill="none" xmlns="http://www.w3.org/2000/svg">
<path d="M343.127 168.821C331.339 160.233 314.302 162.843 305.151 175.404L201.028 318.328C191.591 331.282 173.127 333.453 159.437 323.479L147.268 314.614C133.577 304.64 129.984 286.4 139.421 273.446L243.544 130.522C252.409 118.354 250.337 101.222 238.168 92.3561L208.505 70.7464C196.716 62.1579 193.978 45.1413 203.129 32.5803L210.564 22.3744C219.429 10.2059 236.371 6.92619 248.541 15.7917L412.445 135.199C424.234 143.788 426.973 160.805 417.822 173.366L410.386 183.571C401.521 195.74 384.579 199.02 372.41 190.154L343.127 168.821Z" fill="#FAFBFE"/>
<path d="M219.233 94.3762C231.022 102.965 233.927 119.752 224.99 132.02L145.952 240.511C140.924 247.411 135.998 254.972 131.072 262.533C126.146 270.094 123.3 277.997 121.113 285.793C119.585 293.482 120.138 301.514 123.049 309.503C125.961 317.492 132.55 325.227 142.818 332.708C153.086 340.188 162.468 344.089 170.966 344.411C179.463 344.733 186.997 343.18 194.128 338.986C200.979 335.175 207.528 329.383 213.595 322.653C219.282 315.646 224.968 308.639 229.995 301.739L309.034 193.247C317.691 181.363 334.46 178.322 346.629 187.187L364.883 200.486C376.672 209.074 379.578 225.861 370.64 238.129L285.458 355.054C258.367 392.24 230.171 413.364 200.49 418.148C171.19 423.209 138.806 412.527 103.819 387.038C68.8325 361.55 48.7369 334 44.1918 304.281C39.6467 274.563 51.1097 241.249 78.2005 204.063L163.383 87.1377C172.041 75.2535 188.81 72.2124 200.979 81.0779L219.233 94.3762Z" fill="#FAFBFE"/>
</svg>
