<svg width="26" height="26" viewBox="0 0 26 26" fill="none" xmlns="http://www.w3.org/2000/svg">
<path d="M12.8795 24.3147C6.58307 24.3147 1.44434 19.1756 1.44434 12.8795C1.44434 6.58306 6.58343 1.44432 12.8795 1.44432C19.176 1.44432 24.3147 6.58341 24.3147 12.8795C24.3147 19.176 19.1756 24.3147 12.8795 24.3147ZM9.46853 22.381C8.68397 21.3835 8.11382 20.1502 7.71931 18.9545H4.82223C5.99536 20.5065 7.60571 21.7102 9.46853 22.381ZM3.96597 17.6189H7.34016C7.03704 16.3486 6.85809 14.9697 6.81512 13.5495H2.80718C2.90339 15.0105 3.31162 16.3919 3.96597 17.6189ZM3.96597 8.14463C3.31162 9.37154 2.90339 10.7485 2.80718 12.2095H6.81512C6.85809 10.7893 7.03704 9.41487 7.34016 8.14463H3.96597ZM4.82223 6.80457H7.71926C8.11369 5.6091 8.68384 4.37566 9.46853 3.37803C7.60571 4.04882 5.99536 5.25251 4.82223 6.80457ZM12.2095 2.89811C10.7135 3.40099 9.68205 5.32157 9.13727 6.80457H12.2095V2.89811ZM12.2095 8.14463H8.7202C8.39456 9.39692 8.20159 10.7749 8.15572 12.2095H12.2095V8.14463ZM12.2095 13.5495H8.15572C8.20164 14.9841 8.39461 16.3621 8.7202 17.6144H12.2095V13.5495ZM12.2095 18.9545H9.13727C9.682 20.4374 10.7135 22.358 12.2095 22.8609V18.9545ZM21.7931 17.6144C22.4475 16.3875 22.8556 15.0105 22.9519 13.5495H18.9439C18.901 14.9697 18.722 16.3441 18.4189 17.6144H21.7931ZM20.9368 18.9545H18.0398C17.6454 20.1499 17.0752 21.3834 16.2905 22.381C18.1533 21.7102 19.7637 20.5065 20.9368 18.9545ZM13.5496 22.8609C15.0456 22.358 16.077 20.4375 16.6218 18.9545H13.5496V22.8609ZM13.5496 17.6144H17.0388C17.3645 16.3621 17.5575 14.9841 17.6033 13.5495H13.5496V17.6144ZM13.5496 12.2139H17.6033C17.5574 10.7794 17.3644 9.39692 17.0388 8.14463H13.5496V12.2139ZM13.5496 2.89811V6.80903H16.6218C16.077 5.32608 15.0456 3.40099 13.5496 2.89811ZM16.2905 3.37803C17.0751 4.37553 17.6452 5.6133 18.0398 6.80903H20.9368C19.7637 5.25698 18.1533 4.04882 16.2905 3.37803ZM21.7931 8.14463H18.4189C18.722 9.41487 18.901 10.7938 18.9439 12.2139H22.9519C22.8556 10.753 22.4474 9.37154 21.7931 8.14463Z" fill="#1B1732"/>
<path d="M12.8795 24.3147C6.58307 24.3147 1.44434 19.1756 1.44434 12.8795C1.44434 6.58306 6.58343 1.44432 12.8795 1.44432C19.176 1.44432 24.3147 6.58341 24.3147 12.8795C24.3147 19.176 19.1756 24.3147 12.8795 24.3147ZM9.46853 22.381C8.68397 21.3835 8.11382 20.1502 7.71931 18.9545H4.82223C5.99536 20.5065 7.60571 21.7102 9.46853 22.381ZM3.96597 17.6189H7.34016C7.03704 16.3486 6.85809 14.9697 6.81512 13.5495H2.80718C2.90339 15.0105 3.31162 16.3919 3.96597 17.6189ZM3.96597 8.14463C3.31162 9.37154 2.90339 10.7485 2.80718 12.2095H6.81512C6.85809 10.7893 7.03704 9.41487 7.34016 8.14463H3.96597ZM4.82223 6.80457H7.71926C8.11369 5.6091 8.68384 4.37566 9.46853 3.37803C7.60571 4.04882 5.99536 5.25251 4.82223 6.80457ZM12.2095 2.89811C10.7135 3.40099 9.68205 5.32157 9.13727 6.80457H12.2095V2.89811ZM12.2095 8.14463H8.7202C8.39456 9.39692 8.20159 10.7749 8.15572 12.2095H12.2095V8.14463ZM12.2095 13.5495H8.15572C8.20164 14.9841 8.39461 16.3621 8.7202 17.6144H12.2095V13.5495ZM12.2095 18.9545H9.13727C9.682 20.4374 10.7135 22.358 12.2095 22.8609V18.9545ZM21.7931 17.6144C22.4475 16.3875 22.8556 15.0105 22.9519 13.5495H18.9439C18.901 14.9697 18.722 16.3441 18.4189 17.6144H21.7931ZM20.9368 18.9545H18.0398C17.6454 20.1499 17.0752 21.3834 16.2905 22.381C18.1533 21.7102 19.7637 20.5065 20.9368 18.9545ZM13.5496 22.8609C15.0456 22.358 16.077 20.4375 16.6218 18.9545H13.5496V22.8609ZM13.5496 17.6144H17.0388C17.3645 16.3621 17.5575 14.9841 17.6033 13.5495H13.5496V17.6144ZM13.5496 12.2139H17.6033C17.5574 10.7794 17.3644 9.39692 17.0388 8.14463H13.5496V12.2139ZM13.5496 2.89811V6.80903H16.6218C16.077 5.32608 15.0456 3.40099 13.5496 2.89811ZM16.2905 3.37803C17.0751 4.37553 17.6452 5.6133 18.0398 6.80903H20.9368C19.7637 5.25698 18.1533 4.04882 16.2905 3.37803ZM21.7931 8.14463H18.4189C18.722 9.41487 18.901 10.7938 18.9439 12.2139H22.9519C22.8556 10.753 22.4474 9.37154 21.7931 8.14463Z" stroke="#1B1732"/>
</svg>
