<svg width="52" height="25" viewBox="0 0 52 25" fill="none" xmlns="http://www.w3.org/2000/svg">
<path fill-rule="evenodd" clip-rule="evenodd" d="M13.1845 0.13633C13.4014 0.226334 13.5984 0.358244 13.7643 0.524505C13.9305 0.690347 14.0624 0.887359 14.1524 1.10426C14.2424 1.32116 14.2888 1.55368 14.2888 1.78852C14.2888 2.02335 14.2424 2.25587 14.1524 2.47277C14.0624 2.68967 13.9305 2.88669 13.7643 3.05253L6.09876 10.7151H49.9437C50.4172 10.7151 50.8713 10.9032 51.2061 11.238C51.5409 11.5728 51.729 12.0269 51.729 12.5004C51.729 12.9739 51.5409 13.4281 51.2061 13.7629C50.8713 14.0977 50.4172 14.2858 49.9437 14.2858H6.09872L13.7643 21.9484C14.0995 22.2836 14.2878 22.7383 14.2878 23.2124C14.2878 23.6865 14.0995 24.1412 13.7643 24.4764C13.429 24.8117 12.9743 25 12.5002 25C12.0261 25 11.5715 24.8117 11.2362 24.4764L0.524277 13.7645C0.358017 13.5986 0.226109 13.4016 0.136105 13.1847C0.0461006 12.9678 -0.000228882 12.7353 -0.000228882 12.5005C-0.000228882 12.2656 0.0461006 12.0331 0.136105 11.8162C0.226109 11.5993 0.358017 11.4023 0.524277 11.2365L11.2362 0.524505C11.4021 0.358244 11.5991 0.226334 11.816 0.13633C12.0329 0.046327 12.2654 0 12.5002 0C12.7351 0 12.9676 0.046327 13.1845 0.13633Z" fill="#6A6A6A"/>
</svg>
