<svg width="24" height="24" viewBox="0 0 24 24" fill="none" xmlns="http://www.w3.org/2000/svg">
<path d="M20.9187 10.6531C20.6042 10.4832 17.908 8.91875 16.8962 8.32989L16.8933 8.32789L4.63842 1.25275C4.42964 1.1253 4.19553 1.04501 3.95248 1.01749C3.70943 0.989977 3.4633 1.0159 3.23131 1.09345C3.20513 1.10285 3.18053 1.11231 3.15508 1.12396C3.09599 1.14322 3.03823 1.16634 2.98217 1.19318C2.74786 1.33323 2.55562 1.53385 2.4257 1.77393C2.29578 2.01401 2.23297 2.28468 2.24389 2.55744V21.5428C2.23645 21.7969 2.29664 22.0484 2.41829 22.2717C2.53994 22.4949 2.71869 22.6818 2.93627 22.8133C2.98645 22.8378 3.03816 22.8591 3.09106 22.877C3.11999 22.8904 3.14757 22.902 3.17742 22.9125C3.32063 22.9645 3.47146 22.9923 3.62377 22.9949C3.91626 22.9918 4.20281 22.912 4.45483 22.7635C4.8435 22.5379 16.8933 15.5809 16.8933 15.5809L20.9138 13.2596C21.1624 13.1351 21.3722 12.945 21.5206 12.7099C21.6689 12.4747 21.7502 12.2035 21.7556 11.9256C21.7434 11.6578 21.6592 11.3983 21.5119 11.1744C21.3646 10.9505 21.1597 10.7704 20.9187 10.6531ZM4.24389 19.8391V4.10199L12.184 11.9611L4.24389 19.8391ZM9.26189 17.6774L13.6054 13.3679L14.7549 14.5057C13.4903 15.236 11.3536 16.4697 9.26189 17.6775V17.6774ZM13.6037 10.5524L9.20582 6.19946L14.7595 9.40576L13.6037 10.5524ZM16.5505 13.4691L15.0251 11.9594L16.5528 10.4435C17.2731 10.8618 18.3957 11.5129 19.1687 11.9578L16.5505 13.4691Z" fill="#EC8133"/>
</svg>
