<svg width="74" height="91" viewBox="0 0 74 91" fill="none" xmlns="http://www.w3.org/2000/svg">
<path d="M25.3399 52.6701L26.6932 58.7822L33.2944 88.5985C33.5602 89.7997 34.2571 90.5996 35.0384 90.5996H68.4769C69.1936 90.5996 69.6922 89.4358 69.4484 88.3335L62.9059 58.7822L61.4946 52.406C61.2288 51.2047 60.532 50.4048 59.7507 50.4048H26.3114C25.5947 50.4011 25.0962 51.565 25.3399 52.6701Z" fill="#B0CDFE"/>
<path d="M25.3399 52.6701L26.6932 58.7822H62.9052L61.4939 52.406C61.2281 51.2047 60.5312 50.4048 59.75 50.4048H26.3114C25.5947 50.4011 25.0962 51.565 25.3399 52.6701Z" fill="#FEA151"/>
<path d="M60.6312 52.6701L59.278 58.7822L52.6768 88.5985C52.4109 89.7997 51.7141 90.5996 50.9328 90.5996H17.495C16.7783 90.5996 16.2797 89.4358 16.5235 88.3336L23.0667 58.7785L24.478 52.4023C24.7438 51.201 25.4407 50.4011 26.222 50.4011H59.6605C60.3765 50.4011 60.875 51.565 60.6312 52.6701Z" fill="white"/>
<path d="M50.9292 90.8028H17.4906C17.1969 90.8028 16.9252 90.656 16.7049 90.3838C16.3047 89.8855 16.1491 89.0423 16.3165 88.285L22.859 58.7337L24.2703 52.3574C24.5566 51.0629 25.3387 50.1934 26.2169 50.1934H59.6554C59.9492 50.1934 60.2208 50.3401 60.4411 50.6124C60.8413 51.1106 60.997 51.9538 60.8296 52.7111L52.8743 88.6395C52.5894 89.9332 51.8074 90.8028 50.9292 90.8028ZM26.2198 50.6087C25.5413 50.6087 24.9223 51.3477 24.6778 52.4477L23.2665 58.8239L16.724 88.3753C16.5845 89.0064 16.7101 89.7255 17.031 90.1247C17.1279 90.2451 17.2865 90.3889 17.4928 90.3889H50.9292C51.6077 90.3889 52.2267 89.6499 52.4712 88.5507L60.425 52.6231C60.5645 51.992 60.4389 51.2728 60.118 50.8736C60.0211 50.7533 59.8625 50.6094 59.6562 50.6094H26.2198V50.6087Z" fill="#262424"/>
<path d="M60.6309 52.6701L59.2776 58.7822H23.0664L24.4777 52.406C24.7435 51.2047 25.4403 50.4048 26.2216 50.4048H59.6602C60.3761 50.4011 60.8747 51.565 60.6309 52.6701Z" fill="#FEA151"/>
<path d="M59.2782 58.9861H23.0669C23.0359 58.986 23.0052 58.979 22.9772 58.9656C22.9492 58.9521 22.9245 58.9326 22.9051 58.9084C22.8857 58.8842 22.8719 58.8559 22.8648 58.8256C22.8578 58.7954 22.8576 58.764 22.8643 58.7336L24.2756 52.3574C24.5619 51.0629 25.3439 50.1934 26.2221 50.1934H59.6607C59.9544 50.1934 60.2261 50.3401 60.4464 50.6124C60.8466 51.1106 61.0023 51.9538 60.8348 52.7111L59.4816 58.8232C59.4713 58.8694 59.4456 58.9108 59.4086 58.9405C59.3716 58.9701 59.3256 58.9862 59.2782 58.9861ZM23.3247 58.5715H59.1115L60.4288 52.6223C60.5683 51.9912 60.4427 51.2721 60.1218 50.8729C60.0249 50.7525 59.8663 50.6087 59.66 50.6087H26.2243C25.5459 50.6087 24.9269 51.3477 24.6823 52.4477L23.3247 58.5715Z" fill="#FEA151"/>
<path d="M59.0044 60.2453C58.9734 60.2452 58.9427 60.2382 58.9147 60.2248C58.8867 60.2113 58.862 60.1918 58.8426 60.1675C58.8232 60.1433 58.8094 60.1151 58.8023 60.0848C58.7953 60.0546 58.7951 60.0231 58.8018 59.9928L60.4267 52.6215C60.4408 52.5701 60.4741 52.526 60.5198 52.4984C60.5654 52.4709 60.62 52.4619 60.6721 52.4734C60.7241 52.4849 60.7698 52.516 60.7996 52.5602C60.8294 52.6045 60.841 52.6585 60.8321 52.711L59.2064 60.0816C59.1963 60.1278 59.1709 60.1691 59.1342 60.1989C59.0974 60.2286 59.0517 60.245 59.0044 60.2453Z" fill="#262424"/>
<path d="M40.5357 87.3069C40.5046 87.3069 40.4739 87.2999 40.4459 87.2864C40.4179 87.273 40.3933 87.2534 40.3738 87.2292C40.3544 87.205 40.3406 87.1767 40.3336 87.1465C40.3265 87.1163 40.3263 87.0848 40.333 87.0545L46.2543 60.302C46.259 60.2743 46.2693 60.2478 46.2846 60.2241C46.2998 60.2005 46.3198 60.1802 46.3431 60.1645C46.3665 60.1488 46.3928 60.138 46.4204 60.1328C46.4481 60.1275 46.4765 60.128 46.504 60.134C46.5315 60.1401 46.5574 60.1517 46.5803 60.1681C46.6032 60.1845 46.6224 60.2054 46.637 60.2294C46.6516 60.2535 46.6611 60.2803 46.6649 60.3082C46.6688 60.336 46.667 60.3644 46.6596 60.3915L40.7376 87.1404C40.7282 87.1871 40.703 87.2291 40.6662 87.2594C40.6294 87.2898 40.5833 87.3065 40.5357 87.3069Z" fill="#262424"/>
<path d="M28.106 87.3069C28.0749 87.3069 28.0442 87.2999 28.0162 87.2864C27.9882 87.273 27.9636 87.2534 27.9442 87.2292C27.9247 87.205 27.911 87.1767 27.9039 87.1465C27.8968 87.1163 27.8966 87.0848 27.9033 87.0545L33.8253 60.302C33.8301 60.2743 33.8404 60.2478 33.8556 60.2241C33.8709 60.2005 33.8908 60.1802 33.9142 60.1645C33.9375 60.1488 33.9638 60.138 33.9915 60.1328C34.0191 60.1275 34.0476 60.128 34.075 60.134C34.1025 60.1401 34.1285 60.1517 34.1514 60.1681C34.1742 60.1845 34.1935 60.2054 34.2081 60.2294C34.2226 60.2535 34.2321 60.2803 34.236 60.3082C34.2399 60.336 34.2381 60.3644 34.2307 60.3915L28.3086 87.1404C28.2992 87.1872 28.2739 87.2293 28.237 87.2597C28.2 87.29 28.1538 87.3067 28.106 87.3069Z" fill="#262424"/>
<path d="M54.4894 69.2626H23.435C23.4067 69.2643 23.3784 69.2602 23.3518 69.2505C23.3251 69.2409 23.3008 69.2259 23.2801 69.2065C23.2595 69.187 23.2431 69.1636 23.2319 69.1376C23.2206 69.1116 23.2148 69.0836 23.2148 69.0553C23.2148 69.027 23.2206 68.999 23.2319 68.973C23.2431 68.947 23.2595 68.9236 23.2801 68.9042C23.3008 68.8848 23.3251 68.8698 23.3518 68.8601C23.3784 68.8505 23.4067 68.8463 23.435 68.848H54.4916C54.5198 68.8465 54.5481 68.8508 54.5747 68.8606C54.6013 68.8704 54.6256 68.8855 54.6461 68.905C54.6666 68.9245 54.6829 68.948 54.694 68.9741C54.7051 69.0001 54.7107 69.0282 54.7106 69.0565C54.7104 69.0848 54.7045 69.1128 54.6931 69.1387C54.6817 69.1646 54.6652 69.188 54.6445 69.2073C54.6238 69.2266 54.5993 69.2414 54.5726 69.251C54.546 69.2605 54.5176 69.2644 54.4894 69.2626Z" fill="#262424"/>
<path d="M52.0775 79.7233H21.0209C20.9927 79.725 20.9643 79.7209 20.9377 79.7112C20.9111 79.7016 20.8867 79.6866 20.8661 79.6672C20.8455 79.6477 20.829 79.6243 20.8178 79.5983C20.8066 79.5723 20.8008 79.5443 20.8008 79.516C20.8008 79.4877 20.8066 79.4597 20.8178 79.4337C20.829 79.4077 20.8455 79.3843 20.8661 79.3649C20.8867 79.3455 20.9111 79.3305 20.9377 79.3208C20.9643 79.3112 20.9927 79.307 21.0209 79.3087H52.0775C52.1058 79.307 52.1341 79.3112 52.1607 79.3208C52.1874 79.3305 52.2117 79.3455 52.2324 79.3649C52.253 79.3843 52.2694 79.4077 52.2806 79.4337C52.2919 79.4597 52.2976 79.4877 52.2976 79.516C52.2976 79.5443 52.2919 79.5723 52.2806 79.5983C52.2694 79.6243 52.253 79.6477 52.2324 79.6672C52.2117 79.6866 52.1874 79.7016 52.1607 79.7112C52.1341 79.7209 52.1058 79.725 52.0775 79.7233Z" fill="#262424"/>
<path d="M73.2841 32.6525L71.1077 32.2936C70.6614 31.2602 69.8369 30.4361 68.8028 29.9902L68.4444 27.8143C68.4293 27.7233 68.3823 27.6406 68.3118 27.5809C68.2414 27.5212 68.152 27.4885 68.0597 27.4885H66.0675C65.9752 27.4885 65.8858 27.5212 65.8154 27.5809C65.7449 27.6406 65.6979 27.7233 65.6828 27.8143L65.3237 29.9902C64.2898 30.436 63.4653 31.2597 63.0188 32.2929L60.8424 32.6518C60.7511 32.6667 60.6682 32.7136 60.6083 32.784C60.5485 32.8545 60.5156 32.9439 60.5156 33.0363V35.0272C60.5156 35.1196 60.5485 35.209 60.6083 35.2794C60.6682 35.3498 60.7511 35.3967 60.8424 35.4117L63.0195 35.7705C63.466 36.8035 64.2901 37.6272 65.3237 38.0733L65.6828 40.2491C65.6979 40.3402 65.7449 40.4229 65.8154 40.4826C65.8858 40.5422 65.9752 40.575 66.0675 40.5749H68.0597C68.152 40.575 68.2414 40.5422 68.3118 40.4826C68.3823 40.4229 68.4293 40.3402 68.4444 40.2491L68.8035 38.074C69.8373 37.6278 70.6615 36.8039 71.1077 35.7705L73.2848 35.4117C73.3761 35.3967 73.459 35.3498 73.5189 35.2794C73.5787 35.209 73.6116 35.1196 73.6116 35.0272V33.037C73.6116 32.9445 73.5786 32.855 73.5186 32.7846C73.4586 32.7141 73.3755 32.6673 73.2841 32.6525ZM67.0632 35.3875C66.7949 35.3875 66.5326 35.308 66.3094 35.159C66.0863 35.01 65.9124 34.7983 65.8096 34.5505C65.7069 34.3027 65.68 34.0301 65.7323 33.7671C65.7846 33.504 65.9138 33.2624 66.1035 33.0727C66.2932 32.883 66.5349 32.7538 66.7981 32.7014C67.0612 32.649 67.334 32.6757 67.582 32.7783C67.83 32.8808 68.042 33.0545 68.1911 33.2774C68.3403 33.5003 68.4201 33.7624 68.4202 34.0306C68.4203 34.2088 68.3853 34.3852 68.3171 34.5498C68.249 34.7144 68.149 34.864 68.023 34.99C67.897 35.116 67.7474 35.216 67.5827 35.2842C67.418 35.3524 67.2415 35.3875 67.0632 35.3875Z" fill="#FEA151"/>
<path d="M70.1361 10.0058L66.881 9.81058C66.6983 9.16973 66.4421 8.55215 66.1174 7.97013L68.2813 5.53088C68.3856 5.41319 68.4409 5.2602 68.4362 5.1031C68.4314 4.94601 68.3668 4.79666 68.2556 4.68551L66.0271 2.45833C65.9159 2.34721 65.7664 2.28269 65.6092 2.27791C65.452 2.27314 65.2989 2.32848 65.1812 2.43265L62.7404 4.59525C62.158 4.27074 61.5401 4.01465 60.8988 3.83206L60.7035 0.579726C60.694 0.422872 60.6249 0.275562 60.5105 0.167836C60.396 0.0601106 60.2447 8.44964e-05 60.0874 0H56.9337C56.7765 8.44964e-05 56.6252 0.0601106 56.5107 0.167836C56.3962 0.275562 56.3272 0.422872 56.3176 0.579726L56.126 3.83206C55.4847 4.01489 54.8667 4.27124 54.2844 4.59598L51.8436 2.43338C51.7259 2.32922 51.5728 2.27387 51.4156 2.27865C51.2584 2.28342 51.1089 2.34795 50.9977 2.45907L48.7692 4.68624C48.658 4.79739 48.5934 4.94674 48.5886 5.10384C48.5839 5.26093 48.6393 5.41393 48.7435 5.53162L50.9074 7.97087C50.5825 8.55285 50.326 9.17043 50.143 9.81132L46.8887 10.0065C46.7317 10.016 46.5843 10.085 46.4765 10.1995C46.3687 10.3139 46.3087 10.4651 46.3086 10.6222V13.7718C46.3087 13.9289 46.3687 14.0801 46.4765 14.1945C46.5843 14.3089 46.7317 14.378 46.8887 14.3875L50.143 14.5827C50.3259 15.2238 50.5824 15.8417 50.9074 16.4239L48.7435 18.8631C48.6393 18.9808 48.5839 19.1338 48.5886 19.2909C48.5934 19.448 48.658 19.5973 48.7692 19.7085L50.9977 21.9357C51.1089 22.0468 51.2584 22.1113 51.4156 22.1161C51.5728 22.1209 51.7259 22.0655 51.8436 21.9613L54.2837 19.7987C54.8662 20.1238 55.4844 20.3804 56.126 20.5634L56.3213 23.8157C56.3308 23.9726 56.3999 24.1199 56.5144 24.2276C56.6288 24.3354 56.7801 24.3954 56.9374 24.3955H60.0889C60.2462 24.3954 60.3974 24.3354 60.5119 24.2276C60.6264 24.1199 60.6954 23.9726 60.705 23.8157L60.8988 20.5634C61.5404 20.3806 62.1586 20.1243 62.7411 19.7995L65.1812 21.9577C65.2989 22.0618 65.452 22.1172 65.6092 22.1124C65.7664 22.1076 65.9159 22.0431 66.0271 21.932L68.2556 19.7048C68.3668 19.5937 68.4314 19.4443 68.4362 19.2872C68.4409 19.1301 68.3856 18.9771 68.2813 18.8594L66.1174 16.4202C66.4421 15.8382 66.6983 15.2206 66.881 14.5797L70.1361 14.3845C70.2931 14.375 70.4405 14.306 70.5483 14.1916C70.6561 14.0772 70.7161 13.926 70.7162 13.7689V10.6215C70.7161 10.4643 70.6561 10.3131 70.5483 10.1987C70.4405 10.0843 70.2931 10.0153 70.1361 10.0058ZM58.5109 15.3994C57.8769 15.3996 57.2571 15.2118 56.7299 14.8599C56.2027 14.5079 55.7918 14.0076 55.5491 13.4222C55.3064 12.8369 55.2429 12.1927 55.3667 11.5713C55.4904 10.9498 55.7957 10.379 56.2441 9.93102C56.6924 9.48304 57.2637 9.17801 57.8855 9.05452C58.5074 8.93103 59.1519 8.99463 59.7376 9.23727C60.3233 9.47992 60.8238 9.8907 61.1759 10.4177C61.5279 10.9446 61.7156 11.5641 61.7154 12.1977C61.715 13.0468 61.3772 13.861 60.7763 14.4612C60.1754 15.0615 59.3605 15.3987 58.5109 15.3987V15.3994Z" fill="#B0CDFE"/>
<path d="M46.0196 42.9417C49.055 42.9417 51.5157 40.4826 51.5157 37.449C51.5157 34.4155 49.055 31.9563 46.0196 31.9563C42.9841 31.9563 40.5234 34.4155 40.5234 37.449C40.5234 40.4826 42.9841 42.9417 46.0196 42.9417Z" fill="#B0CDFE"/>
<path d="M39.7217 31.6184L40.1262 31.2142C40.3413 30.9992 40.633 30.8785 40.9372 30.8785C41.2414 30.8785 41.5331 30.9992 41.7482 31.2142L42.3437 31.8094C42.4317 31.8973 42.4812 32.0166 42.4812 32.1409C42.4812 32.2653 42.4317 32.3846 42.3437 32.4725L40.9803 33.8351C40.8923 33.9231 40.7729 33.9725 40.6485 33.9725C40.5241 33.9725 40.4047 33.9231 40.3167 33.8351L39.7212 33.24C39.6146 33.1335 39.5301 33.0071 39.4725 32.8679C39.4148 32.7288 39.3852 32.5797 39.3852 32.4291C39.3853 32.2785 39.415 32.1294 39.4728 31.9903C39.5305 31.8512 39.6151 31.7248 39.7217 31.6184Z" fill="#FEA151"/>
<path d="M51.0625 33.8348L49.6964 32.4696C49.6084 32.3817 49.559 32.2624 49.559 32.138C49.559 32.0137 49.6084 31.8944 49.6964 31.8065L50.292 31.2113C50.5071 30.9963 50.7988 30.8756 51.103 30.8756C51.4072 30.8756 51.6989 30.9963 51.914 31.2113L52.3185 31.6155C52.5336 31.8305 52.6544 32.122 52.6544 32.426C52.6544 32.73 52.5336 33.0216 52.3185 33.2365L51.7224 33.8322C51.6344 33.9202 51.5151 33.9696 51.3906 33.9696C51.2662 33.9696 51.1468 33.9202 51.0588 33.8322L51.0625 33.8348Z" fill="#FEA151"/>
<path d="M46.0246 40.9088C47.9367 40.9088 49.4868 39.3597 49.4868 37.4488C49.4868 35.5379 47.9367 33.9888 46.0246 33.9888C44.1126 33.9888 42.5625 35.5379 42.5625 37.4488C42.5625 39.3597 44.1126 40.9088 46.0246 40.9088Z" fill="white"/>
<path d="M46.0207 41.0923C45.2997 41.0923 44.5948 40.8787 43.9953 40.4783C43.3957 40.078 42.9285 39.5089 42.6525 38.8432C42.3766 38.1774 42.3044 37.4448 42.4451 36.7381C42.5857 36.0313 42.9329 35.3821 43.4428 34.8726C43.9527 34.363 44.6023 34.016 45.3095 33.8754C46.0167 33.7348 46.7497 33.807 47.4159 34.0828C48.082 34.3585 48.6514 34.8255 49.052 35.4247C49.4526 36.0238 49.6664 36.7283 49.6664 37.4489C49.6655 38.4149 49.2811 39.3411 48.5976 40.0241C47.9141 40.7072 46.9873 41.0914 46.0207 41.0923ZM46.0207 34.1723C45.3723 34.1723 44.7384 34.3645 44.1992 34.7245C43.6601 35.0846 43.2399 35.5963 42.9917 36.195C42.7436 36.7937 42.6786 37.4525 42.8051 38.0881C42.9316 38.7237 43.2439 39.3075 43.7024 39.7658C44.1609 40.224 44.7451 40.5361 45.3811 40.6625C46.0171 40.7889 46.6763 40.724 47.2754 40.476C47.8745 40.228 48.3865 39.8081 48.7468 39.2692C49.107 38.7304 49.2993 38.0969 49.2993 37.4489C49.2983 36.5802 48.9526 35.7473 48.338 35.1331C47.7233 34.5188 46.89 34.1733 46.0207 34.1723Z" fill="#262424"/>
<path d="M46.4956 37.449C46.4956 37.5747 46.4456 37.6953 46.3566 37.7842C46.2677 37.8731 46.147 37.9231 46.0212 37.9231C45.8954 37.9231 45.7748 37.8731 45.6858 37.7842C45.5969 37.6953 45.5469 37.5747 45.5469 37.449C45.5468 37.4157 45.5505 37.3824 45.5579 37.3499L46.0212 34.7603L46.4846 37.3499C46.492 37.3824 46.4957 37.4157 46.4956 37.449Z" fill="#FEA151"/>
<path d="M45.6812 37.1127C45.7711 37.029 45.8901 36.9835 46.0129 36.9857C46.1358 36.9879 46.253 37.0376 46.3399 37.1244C46.4267 37.2113 46.4765 37.3284 46.4787 37.4512C46.4809 37.574 46.4353 37.6928 46.3516 37.7827C46.3281 37.8064 46.302 37.8273 46.2738 37.8451L44.1172 39.3501L45.6217 37.1912C45.6386 37.1629 45.6585 37.1366 45.6812 37.1127Z" fill="#FEA151"/>
<path d="M17.5457 70.7009L20.8889 77.9915L18.3659 79.0549L14.2656 72.6867L17.5457 70.7009Z" fill="white"/>
<path d="M18.3691 79.2626C18.3343 79.2626 18.3001 79.2538 18.2695 79.2371C18.239 79.2205 18.2131 79.1964 18.1943 79.1672L14.0956 72.799C14.0805 72.7757 14.0704 72.7496 14.0656 72.7223C14.0608 72.695 14.0616 72.667 14.0678 72.64C14.074 72.6129 14.0856 72.5875 14.1019 72.565C14.1181 72.5425 14.1387 72.5235 14.1624 72.5091L17.4424 70.5234C17.4674 70.5087 17.4951 70.4994 17.5239 70.496C17.5526 70.4927 17.5818 70.4954 17.6094 70.5039C17.6371 70.5125 17.6626 70.5268 17.6845 70.5458C17.7063 70.5648 17.7239 70.5882 17.7361 70.6144L21.0793 77.905C21.0909 77.9302 21.0972 77.9575 21.098 77.9852C21.0988 78.013 21.094 78.0406 21.084 78.0664C21.0739 78.0923 21.0587 78.1159 21.0394 78.1358C21.0201 78.1557 20.997 78.1715 20.9714 78.1824L18.4484 79.2457C18.4233 79.2565 18.3964 79.2622 18.3691 79.2626ZM14.5589 72.7535L18.4506 78.7958L20.6153 77.883L17.4579 70.9989L14.5589 72.7535Z" fill="#262424"/>
<path d="M18.0498 89.5151L18.7474 90.2305L27.5456 81.6653C27.5456 81.6653 27.2166 81.3277 26.6696 80.8243C25.3611 79.6201 22.8029 77.4641 20.5156 76.7053L17.2656 79.8667C17.2656 79.8667 18.8811 83.2423 17.5593 87.4251C17.4565 87.7504 17.4348 88.0959 17.4961 88.4315C17.5574 88.7671 17.6998 89.0827 17.9111 89.3507C17.9545 89.4078 18.0008 89.4626 18.0498 89.5151Z" fill="#FEA151"/>
<path d="M18.048 89.515L18.7455 90.2305L27.5437 81.6652C27.5437 81.6652 27.2148 81.3276 26.6677 80.8242L17.9062 89.3535C17.9507 89.4097 17.998 89.4636 18.048 89.515Z" fill="white"/>
<path d="M18.7481 90.438C18.7207 90.4378 18.6937 90.4322 18.6684 90.4215C18.6432 90.4108 18.6204 90.3952 18.6012 90.3757L17.9037 89.6602C17.8489 89.6039 17.7969 89.5448 17.748 89.4833C17.7161 89.4431 17.7003 89.3925 17.7035 89.3413C17.7068 89.29 17.7289 89.2418 17.7656 89.2059L26.5242 80.6766C26.5622 80.6395 26.6131 80.6184 26.6663 80.6177C26.7194 80.617 26.7708 80.6368 26.8098 80.673C27.3546 81.1742 27.6799 81.5081 27.691 81.522C27.7294 81.5614 27.7506 81.6145 27.7499 81.6695C27.7492 81.7246 27.7267 81.7771 27.6873 81.8155L18.8928 90.3786C18.8541 90.4165 18.8022 90.4378 18.7481 90.438ZM18.1989 89.3703L18.7518 89.9376L27.2482 81.6636C27.1241 81.5411 26.9266 81.3488 26.671 81.1111L18.1945 89.3615L18.1989 89.3659V89.3703Z" fill="#262424"/>
<path d="M28.2726 50.4768C27.3334 51.7808 16.3896 59.4478 14.1743 60.9933L17.5344 69.5864L13.487 73.723C13.487 73.723 9.49324 67.1765 6.92324 62.9159C6.69561 62.5394 6.48267 62.1821 6.27854 61.846C5.84017 61.1166 5.65123 60.2644 5.74025 59.4182C5.82927 58.572 6.19141 57.7777 6.77198 57.1553C7.10241 56.8016 7.46221 56.4164 7.8455 56.0113C11.4009 52.2335 16.8089 46.6183 16.8089 46.6183L17.5895 42.103C17.9684 39.9213 19.4288 38.0559 21.4907 37.248C22.3268 36.9162 23.225 36.77 24.1231 36.8194C28.067 37.0396 28.4231 40.0013 28.4231 40.0013C28.4231 40.0013 29.3189 49.0252 28.2726 50.4768Z" fill="#B0CDFE"/>
<path d="M15.4468 70.2686C15.407 70.2686 15.3681 70.2572 15.3347 70.2357C15.3012 70.2142 15.2746 70.1836 15.2581 70.1475L10.8979 60.6885C10.8806 60.6509 10.875 60.6091 10.8816 60.5683C10.8883 60.5275 10.907 60.4896 10.9353 60.4595L23.3066 47.3533C23.3248 47.3318 23.3473 47.3143 23.3725 47.3017C23.3978 47.2892 23.4253 47.2819 23.4535 47.2803C23.4817 47.2788 23.5099 47.283 23.5364 47.2927C23.5629 47.3024 23.5871 47.3173 23.6076 47.3367C23.6281 47.356 23.6445 47.3794 23.6557 47.4052C23.6669 47.4311 23.6727 47.459 23.6728 47.4872C23.6728 47.5154 23.6672 47.5433 23.6561 47.5692C23.645 47.5952 23.6288 47.6186 23.6083 47.638L11.3333 60.6422L15.6347 69.9743C15.6492 70.0059 15.6556 70.0406 15.6532 70.0753C15.6508 70.1099 15.6397 70.1434 15.621 70.1727C15.6023 70.202 15.5766 70.2261 15.5461 70.2428C15.5157 70.2596 15.4815 70.2685 15.4468 70.2686Z" fill="#262424"/>
<path d="M13.9619 61.0867H13.9384L9.80508 60.6251C9.75207 60.6169 9.70427 60.5886 9.67168 60.546C9.63909 60.5035 9.62423 60.45 9.6302 60.3967C9.63618 60.3434 9.66252 60.2945 9.70374 60.2602C9.74495 60.2259 9.79784 60.2089 9.85134 60.2127L13.9846 60.6743C14.0353 60.6825 14.0811 60.7091 14.1133 60.7491C14.1455 60.789 14.1617 60.8395 14.1589 60.8907C14.1561 60.9419 14.1344 60.9903 14.098 61.0264C14.0616 61.0626 14.0131 61.0841 13.9619 61.0867Z" fill="#262424"/>
<path d="M9.14519 59.1418C9.14519 60.8296 8.23174 62.2759 6.92324 62.9158C6.69562 62.5394 6.48267 62.182 6.27854 61.8459C5.84018 61.1165 5.65123 60.2643 5.74025 59.4181C5.82927 58.5719 6.19141 57.7776 6.77198 57.1553C7.10241 56.8016 7.46221 56.4163 7.84551 56.0112C8.64074 56.7678 9.14519 57.8891 9.14519 59.1418Z" fill="#80AFFD"/>
<path d="M11.9631 71.5294L16.2073 67.3965C16.2947 67.3106 16.4006 67.2458 16.5169 67.2071C16.6332 67.1684 16.7569 67.1568 16.8783 67.1733C16.9998 67.1897 17.1159 67.2337 17.2178 67.3019C17.3196 67.3701 17.4045 67.4607 17.4659 67.5667L19.3163 70.8014C19.4047 70.9559 19.4393 71.1354 19.4146 71.3117C19.3899 71.4879 19.3072 71.651 19.1797 71.7752L15.2182 75.6388C15.1355 75.7195 15.0363 75.7814 14.9274 75.8203C14.8186 75.8591 14.7026 75.8741 14.5874 75.864C14.4723 75.854 14.3606 75.8192 14.2602 75.7621C14.1597 75.705 14.0727 75.6269 14.0052 75.5332L11.8757 72.5736C11.7627 72.418 11.7094 72.2269 11.7255 72.0353C11.7415 71.8437 11.8258 71.6641 11.9631 71.5294Z" fill="#FEA151"/>
<path d="M23.7942 46.6748C23.7538 46.6749 23.7142 46.6632 23.6804 46.641L22.6003 45.9336C22.375 45.7868 22.1949 45.5804 22.0802 45.3373C21.9654 45.0942 21.9205 44.8241 21.9504 44.557L22.413 40.3154C22.4214 40.2628 22.4497 40.2154 22.4921 40.183C22.5344 40.1507 22.5876 40.1358 22.6407 40.1416C22.6937 40.1473 22.7424 40.1732 22.7769 40.2139C22.8113 40.2546 22.8288 40.307 22.8257 40.3602L22.3631 44.6017C22.3418 44.7927 22.374 44.9858 22.456 45.1595C22.5381 45.3333 22.6668 45.4809 22.8279 45.5858L23.908 46.2932C23.9455 46.3177 23.9741 46.3536 23.9895 46.3956C24.005 46.4377 24.0064 46.4835 23.9936 46.5264C23.9808 46.5693 23.9545 46.607 23.9185 46.6337C23.8826 46.6604 23.839 46.6749 23.7942 46.6748Z" fill="#262424"/>
<path d="M15.5082 76.0376L12.8111 83.5909L10.2617 82.5929L11.7721 75.1724L15.5082 76.0376Z" fill="white"/>
<path d="M12.8134 83.7984C12.7883 83.7982 12.7634 83.7935 12.74 83.7844L10.1905 82.7864C10.145 82.7686 10.1072 82.7353 10.0838 82.6923C10.0605 82.6493 10.053 82.5995 10.0628 82.5516L11.5732 75.1311C11.5788 75.104 11.5897 75.0782 11.6054 75.0554C11.6211 75.0325 11.6412 75.013 11.6645 74.998C11.6878 74.983 11.7139 74.9729 11.7413 74.9681C11.7686 74.9634 11.7966 74.9642 11.8236 74.9704L15.5596 75.8363C15.588 75.8432 15.6147 75.8559 15.6378 75.8737C15.6609 75.8915 15.68 75.914 15.6939 75.9397C15.7077 75.9654 15.716 75.9937 15.7182 76.0228C15.7204 76.0519 15.7164 76.0811 15.7065 76.1086L13.0073 83.6604C12.993 83.7005 12.9667 83.7352 12.9321 83.7599C12.8974 83.7846 12.856 83.798 12.8134 83.7984ZM10.5026 82.4636L12.6908 83.3199L15.2373 76.1878L11.933 75.4232L10.5026 82.4636Z" fill="#262424"/>
<path d="M2.79696 89.5318V90.5959H15.8672C15.8672 90.5959 15.8672 90.094 15.8246 89.3043C15.7218 87.4147 15.3745 83.874 14.1945 81.5933H9.37027C9.37027 81.5933 8.08968 85.3688 3.97034 87.5747C3.64994 87.7463 3.3764 87.9937 3.17354 88.2951C2.97069 88.5966 2.84468 88.9431 2.8065 89.3043C2.7995 89.38 2.79632 89.4559 2.79696 89.5318Z" fill="#FEA151"/>
<path d="M2.79696 89.5319V90.596H15.8672C15.8672 90.596 15.8672 90.094 15.8246 89.3044H2.8065C2.7995 89.3801 2.79632 89.456 2.79696 89.5319Z" fill="white"/>
<path d="M15.8679 90.8028H2.79765C2.74253 90.8028 2.68968 90.7809 2.65071 90.742C2.61174 90.703 2.58984 90.6502 2.58984 90.5951V89.5311C2.59008 89.448 2.59449 89.365 2.60306 89.2823C2.60832 89.2313 2.63232 89.184 2.67042 89.1496C2.70853 89.1151 2.75803 89.096 2.80939 89.0959H15.8275C15.8805 89.096 15.9315 89.1164 15.97 89.1528C16.0085 89.1892 16.0316 89.239 16.0346 89.2919C16.0772 90.0785 16.0772 90.5739 16.0772 90.5951C16.0772 90.6225 16.0718 90.6497 16.0612 90.6749C16.0507 90.7002 16.0352 90.7232 16.0158 90.7425C15.9963 90.7618 15.9733 90.7771 15.9479 90.7874C15.9225 90.7978 15.8953 90.803 15.8679 90.8028ZM3.00251 90.3889H15.6601C15.6601 90.2025 15.6491 89.8987 15.63 89.5084H3.00031C3.00031 89.515 3.00031 89.5223 3.00031 89.5289V90.3889H3.00251Z" fill="#262424"/>
<path d="M33.9631 39.663C33.9631 39.663 33.2883 36.7578 29.3437 36.9655C28.4459 37.0121 27.569 37.2533 26.7737 37.6721C24.8117 38.6995 23.5619 40.7109 23.4217 42.9205L23.1331 47.4959L15.7712 57.2038L14.8636 58.4007C14.146 59.3474 13.6732 60.4565 13.4868 61.6295L12.9728 64.002L10.4961 75.3719L16.2837 75.2332L21.7174 62.3861C21.7174 62.3861 34.0674 51.6428 34.9492 50.09C35.8311 48.5372 33.9631 39.663 33.9631 39.663Z" fill="#B0CDFE"/>
<path d="M16.3324 56.6673C16.2938 56.6672 16.2559 56.6564 16.2231 56.636C16.1903 56.6156 16.1638 56.5865 16.1466 56.5518C16.1294 56.5172 16.1223 56.4785 16.1259 56.4401C16.1296 56.4016 16.1439 56.3649 16.1672 56.3341L22.9226 47.421L23.212 42.9102C23.2122 42.882 23.2182 42.8541 23.2296 42.8282C23.241 42.8024 23.2576 42.7792 23.2782 42.7599C23.2989 42.7407 23.3233 42.7259 23.3499 42.7164C23.3765 42.7069 23.4048 42.703 23.433 42.7048C23.4612 42.7066 23.4887 42.7141 23.5139 42.7269C23.5391 42.7397 23.5614 42.7575 23.5795 42.7792C23.5975 42.8009 23.611 42.826 23.619 42.8531C23.627 42.8801 23.6294 42.9086 23.6261 42.9366L23.3375 47.512C23.3349 47.5528 23.3203 47.5918 23.2957 47.6243L16.4977 56.5851C16.4783 56.6106 16.4534 56.6313 16.4247 56.6456C16.396 56.6599 16.3645 56.6673 16.3324 56.6673Z" fill="#262424"/>
<path d="M10.4886 75.5774C10.4576 75.5773 10.4271 75.5703 10.3991 75.5569C10.3712 75.5435 10.3466 75.524 10.3272 75.4999C10.3077 75.4758 10.2939 75.4476 10.2868 75.4175C10.2797 75.3873 10.2794 75.356 10.286 75.3257L12.6357 64.5274C12.641 64.5002 12.6516 64.4744 12.667 64.4515C12.6824 64.4285 12.7023 64.4088 12.7254 64.3936C12.7485 64.3784 12.7744 64.368 12.8016 64.3629C12.8288 64.3578 12.8567 64.3582 12.8837 64.3641C12.9108 64.37 12.9364 64.3812 12.959 64.397C12.9816 64.4129 13.0009 64.4332 13.0156 64.4566C13.0303 64.48 13.0402 64.5061 13.0447 64.5334C13.0492 64.5606 13.0482 64.5885 13.0417 64.6154L10.7456 75.1554L16.2689 75.0226H16.2741C16.327 75.025 16.3771 75.0476 16.4139 75.0857C16.4508 75.1238 16.4717 75.1745 16.4724 75.2275C16.473 75.2805 16.4534 75.3317 16.4175 75.3707C16.3816 75.4097 16.3321 75.4335 16.2792 75.4372L10.4916 75.5759H10.4864L10.4886 75.5774Z" fill="#262424"/>
<path d="M15.1181 73.7962C15.0856 73.7962 15.0536 73.7886 15.0246 73.7741C14.9956 73.7595 14.9705 73.7384 14.9511 73.7123C14.9318 73.6863 14.9188 73.6561 14.9132 73.6241C14.9077 73.5922 14.9097 73.5594 14.9191 73.5283L18.6595 61.2337C18.6678 61.2068 18.6816 61.1818 18.6999 61.1604L29.8096 48.1437L30.0152 40.1765C30.0195 40.1235 30.0439 40.0741 30.0834 40.0386C30.123 40.003 30.1747 39.984 30.2279 39.9854C30.2811 39.9868 30.3317 40.0086 30.3693 40.0462C30.4069 40.0838 30.4287 40.1343 30.4301 40.1875L30.2223 48.2281C30.221 48.2756 30.2034 48.3212 30.1724 48.3572L19.0413 61.3959L15.3171 73.6509C15.3037 73.6932 15.2772 73.7301 15.2414 73.7562C15.2056 73.7823 15.1624 73.7964 15.1181 73.7962Z" fill="#262424"/>
<path d="M15.7671 57.2036L14.8595 58.4005C14.142 59.3473 13.6691 60.4563 13.4828 61.6293L12.9688 64.0018C14.3081 63.949 15.6489 63.0097 16.3134 61.5141C17.011 59.9349 16.7496 58.2163 15.7671 57.2036Z" fill="#80AFFD"/>
<path d="M10.9322 72.7322H16.8578C16.9805 72.7322 17.1015 72.7603 17.2115 72.8142C17.3216 72.8682 17.4179 72.9467 17.493 73.0436C17.568 73.1405 17.6199 73.2533 17.6446 73.3733C17.6693 73.4933 17.6662 73.6174 17.6354 73.7361L16.7014 77.3428C16.6569 77.5151 16.5563 77.6676 16.4155 77.7765C16.2748 77.8854 16.1018 77.9446 15.9238 77.9446H10.3932C10.2776 77.9446 10.1635 77.9197 10.0584 77.8716C9.95337 77.8234 9.85995 77.7532 9.78454 77.6657C9.70912 77.5782 9.65348 77.4755 9.6214 77.3646C9.58933 77.2536 9.58159 77.1371 9.5987 77.0229L10.1377 73.4161C10.1662 73.2259 10.262 73.0522 10.4078 72.9267C10.5537 72.8012 10.7397 72.7322 10.9322 72.7322Z" fill="#FEA151"/>
<path d="M30.0601 46.7996C30.0274 46.7996 29.9952 46.7918 29.9661 46.7769L28.8155 46.1898C28.5755 46.0684 28.374 45.8827 28.2334 45.6535C28.0929 45.4242 28.0188 45.1605 28.0195 44.8917V40.623C28.0195 40.5679 28.0414 40.5151 28.0804 40.4761C28.1194 40.4372 28.1722 40.4153 28.2273 40.4153C28.2825 40.4153 28.3353 40.4372 28.3743 40.4761C28.4132 40.5151 28.4351 40.5679 28.4351 40.623V44.8917C28.4347 45.0839 28.4876 45.2725 28.5881 45.4364C28.6886 45.6003 28.8326 45.7331 29.0042 45.8199L30.1548 46.407C30.1964 46.4282 30.2296 46.4628 30.2491 46.5052C30.2686 46.5476 30.2732 46.5953 30.2623 46.6406C30.2513 46.686 30.2255 46.7263 30.1888 46.7551C30.1521 46.784 30.1068 46.7996 30.0601 46.7996Z" fill="#262424"/>
<path d="M14.6416 30.1248C14.6416 30.1248 13.3111 37.5533 13.4293 38.271C13.5923 39.2587 14.0263 40.6193 14.2165 41.1594C14.2165 41.1594 14.0432 42.7158 14.4243 43.3036C14.8054 43.8914 15.9472 44.1336 16.7079 44.1336C17.4686 44.1336 17.5384 42.9595 17.5384 42.9595C17.5384 42.9595 17.694 44.0639 18.2132 44.0639C18.7323 44.0639 18.8535 41.4896 18.5157 40.7117C18.1779 39.9339 17.3519 40.2274 17.3519 40.2274L17.3218 37.4337L18.7654 31.2299L14.6416 30.1248Z" fill="white"/>
<path d="M16.7107 44.3412C16.0675 44.3412 14.7281 44.1482 14.2523 43.4166C13.8697 42.8251 13.977 41.4903 14.0078 41.1843C13.8323 40.6824 13.3932 39.313 13.2272 38.3047C13.1068 37.5709 14.3037 30.852 14.4403 30.0858C14.4454 30.0579 14.4561 30.0313 14.4719 30.0077C14.4877 29.984 14.5082 29.9639 14.532 29.9485C14.5559 29.9331 14.5827 29.9227 14.6108 29.9181C14.6388 29.9134 14.6675 29.9146 14.6951 29.9215L18.8188 31.0259C18.8705 31.0402 18.9146 31.0739 18.942 31.12C18.9694 31.1661 18.9779 31.221 18.9657 31.2732L17.5279 37.4528L17.5588 39.9698C17.9369 39.9287 18.4509 40.0359 18.7079 40.6303C19.0127 41.3325 18.9877 43.4225 18.5787 44.0455C18.4553 44.2334 18.3129 44.2723 18.2116 44.2723C17.8958 44.2723 17.6873 44.0235 17.5507 43.7439C17.4002 44.0697 17.1351 44.3412 16.7107 44.3412ZM14.8096 30.383C14.2802 33.3573 13.5569 37.75 13.6348 38.235C13.8015 39.2448 14.253 40.6369 14.4131 41.0882C14.4237 41.1178 14.4275 41.1494 14.4241 41.1806C14.3786 41.593 14.3206 42.7584 14.5996 43.1891C14.9088 43.6668 15.9169 43.923 16.7092 43.923C17.2651 43.923 17.3319 42.9521 17.3326 42.9418C17.3364 42.8909 17.3587 42.8432 17.3955 42.8077C17.4322 42.7722 17.4807 42.7515 17.5317 42.7495C17.5828 42.7475 17.6328 42.7644 17.6722 42.7969C17.7116 42.8294 17.7376 42.8752 17.7453 42.9257C17.7996 43.3058 17.9869 43.8298 18.2013 43.851C18.2799 43.7872 18.4414 43.4005 18.4884 42.5338C18.5273 41.8154 18.4612 41.0977 18.3276 40.7895C18.0706 40.1966 17.4501 40.4086 17.4244 40.4182C17.3933 40.4293 17.3599 40.4328 17.3271 40.4284C17.2944 40.424 17.2631 40.4119 17.236 40.393C17.2088 40.3742 17.1866 40.3491 17.1711 40.3199C17.1556 40.2907 17.1473 40.2582 17.1469 40.2252L17.1182 37.4352C17.118 37.4186 17.1197 37.4021 17.1234 37.386L18.5185 31.3781L14.8096 30.383Z" fill="#262424"/>
<path d="M13.8281 31.8784L20.2568 33.6007C21.4258 29.0605 21.7988 23.9736 20.3141 22.6542C16.252 19.0386 14.464 26.8847 13.8281 31.8784Z" fill="#FEA151"/>
<path d="M20.1845 32.985C20.1659 32.985 20.1474 32.9825 20.1294 32.9776L14.4754 31.4292C14.4479 31.4232 14.4219 31.4116 14.399 31.3951C14.3762 31.3787 14.3569 31.3578 14.3423 31.3337C14.3278 31.3095 14.3183 31.2827 14.3144 31.2548C14.3106 31.2269 14.3125 31.1985 14.3199 31.1714C14.3274 31.1442 14.3404 31.1189 14.3579 31.0969C14.3755 31.0749 14.3974 31.0567 14.4223 31.0434C14.4471 31.0301 14.4744 31.022 14.5025 31.0196C14.5305 31.0171 14.5588 31.0205 14.5856 31.0293L20.2396 32.5777C20.2875 32.5914 20.3289 32.622 20.3562 32.6638C20.3835 32.7055 20.3948 32.7557 20.3882 32.8051C20.3815 32.8545 20.3572 32.8999 20.3198 32.9329C20.2824 32.966 20.2344 32.9844 20.1845 32.985Z" fill="#262424"/>
<path d="M24.6601 19.2412C22.1907 19.2412 17.9531 21.7546 17.9531 21.7546L17.8173 23.3771C17.8173 23.3771 16.707 26.4416 16.707 27.5966C16.707 28.7516 18.6786 31.4008 18.6786 31.4008C18.6786 31.4008 17.2739 40.4761 16.707 44.915C16.707 44.915 23.389 49.1712 35.3579 45.3223L32.4332 31.5189L32.0462 21.9285C32.0462 21.9285 27.9379 19.2412 24.6601 19.2412Z" fill="#FEA151"/>
<path d="M18.4172 33.3152C18.4067 33.316 18.3962 33.316 18.3856 33.3152C18.3312 33.3068 18.2824 33.2773 18.2497 33.233C18.2171 33.1887 18.2034 33.1333 18.2116 33.0789C18.3379 32.2511 18.4282 31.6663 18.4605 31.4571C18.1389 31.0168 16.5 28.7141 16.5 27.5994C16.5 26.4656 17.4979 23.6572 17.6132 23.3351L17.7064 22.216C17.7084 22.1886 17.7157 22.1618 17.7281 22.1372C17.7405 22.1127 17.7576 22.0908 17.7785 22.0729C17.7994 22.055 17.8236 22.0415 17.8498 22.033C17.876 22.0246 17.9036 22.0214 17.931 22.0237C17.9584 22.0259 17.9851 22.0337 18.0095 22.0463C18.0339 22.059 18.0556 22.0764 18.0732 22.0975C18.0908 22.1186 18.1041 22.143 18.1122 22.1692C18.1204 22.1955 18.1232 22.2231 18.1206 22.2505L18.0251 23.3931C18.0236 23.4114 18.0196 23.4294 18.0134 23.4466C18.0023 23.4767 16.9119 26.4898 16.9119 27.5957C16.9119 28.4866 18.3071 30.5545 18.8424 31.2759C18.8589 31.2979 18.8708 31.323 18.8775 31.3497C18.8841 31.3764 18.8854 31.4042 18.8813 31.4314C18.8813 31.4314 18.7792 32.0919 18.6199 33.1376C18.6127 33.1864 18.5884 33.2311 18.5513 33.2637C18.5141 33.2962 18.4666 33.3145 18.4172 33.3152Z" fill="#262424"/>
<path d="M25.1327 45.8057C22.6127 45.8057 19.7981 45.4505 17.4962 44.2463C17.47 44.235 17.4464 44.2183 17.4269 44.1974C17.4074 44.1765 17.3925 44.1519 17.3829 44.1249C17.3734 44.098 17.3696 44.0694 17.3716 44.0409C17.3737 44.0125 17.3816 43.9847 17.3948 43.9594C17.4081 43.9341 17.4264 43.9119 17.4487 43.894C17.471 43.8761 17.4967 43.863 17.5242 43.8555C17.5518 43.8479 17.5806 43.8462 17.6089 43.8503C17.6372 43.8544 17.6643 43.8643 17.6885 43.8794C20.8599 45.5364 25.0593 45.5364 28.0243 45.2451C29.9687 45.0551 31.8939 44.7046 33.7804 44.1972C33.8325 44.1843 33.8875 44.1921 33.934 44.2189C33.9804 44.2456 34.0147 44.2893 34.0297 44.3408C34.0447 44.3922 34.0392 44.4475 34.0144 44.495C33.9895 44.5425 33.9473 44.5785 33.8964 44.5956C31.9876 45.1095 30.0395 45.4647 28.0721 45.6575C27.1806 45.7441 26.182 45.8057 25.1327 45.8057Z" fill="#262424"/>
<path d="M24.7306 18.8136C22.8023 18.9359 21.707 20.1731 21.5804 21.1883C21.4538 22.2034 22.2102 23.1367 22.9248 23.3399C22.9248 23.3399 23.6483 21.7069 24.1934 21.7069C24.7385 21.7069 24.9783 24.0574 24.9783 24.0574C24.9783 24.0574 27.7123 23.6448 28.4054 21.5138C28.8832 20.0439 26.9773 18.6715 24.7306 18.8136Z" fill="white"/>
<path d="M17.8954 43.1391C17.9335 43.5736 18.4578 43.5493 18.684 43.371C18.684 43.371 18.5261 43.8891 19.546 44.4938C20.566 45.0985 21.6828 44.9091 22.116 44.107C22.5493 43.305 23.0544 43.2125 23.0544 43.2125C23.0544 43.2125 34.5724 41.5452 35.9705 39.6813C36.6218 38.8132 36.4955 35.5454 35.9199 32.0436C35.1591 27.4205 33.6149 22.382 32.0465 21.927C26.8228 20.4117 28.6438 28.2791 30.0757 33.1055C30.6969 35.1983 31.0449 36.6198 31.0449 36.6198L22.0514 41.3368C22.0514 41.3368 19.8265 40.4181 19.491 40.4115C19.1554 40.4049 17.8572 42.7047 17.8954 43.1391Z" fill="white"/>
<path d="M20.7662 45.0566C20.2977 45.0487 19.8398 44.9157 19.4401 44.6714C18.8056 44.2956 18.5765 43.9331 18.5009 43.6763C18.3431 43.7142 18.1775 43.7027 18.0266 43.6433C17.9301 43.6022 17.8473 43.5347 17.7875 43.4486C17.7277 43.3626 17.6935 43.2614 17.6888 43.1567C17.6469 42.6819 18.6367 40.9362 19.1148 40.4254C19.2616 40.2691 19.3784 40.2053 19.4959 40.2053C19.8263 40.2119 21.4263 40.8569 22.0416 41.1093L30.8046 36.5141C30.6966 36.0892 30.3728 34.8366 29.8772 33.1671C28.0855 27.1277 27.8807 23.5216 29.2508 22.145C29.8875 21.5051 30.8479 21.3656 32.105 21.7311C34.0362 22.291 35.5407 28.4581 36.1252 32.0135C36.6341 35.1117 36.905 38.786 36.137 39.809C35.526 40.6228 33.1359 41.4777 29.032 42.351C26.0729 42.9806 23.2414 43.3967 23.0909 43.4187C23.0608 43.426 22.6628 43.5332 22.2994 44.2076C22.1939 44.3987 22.0505 44.5664 21.8781 44.7004C21.7056 44.8344 21.5077 44.9319 21.2963 44.9869C21.1236 45.0339 20.9452 45.0573 20.7662 45.0566ZM18.8842 43.4238C18.8791 43.4664 18.8592 43.8414 19.6515 44.3118C20.1604 44.6134 20.7199 44.7124 21.1855 44.584C21.3429 44.5449 21.4905 44.4739 21.6192 44.3753C21.748 44.2767 21.855 44.1526 21.9337 44.0109C22.4 43.1457 22.9558 43.0224 23.0175 43.0107H23.0248C26.205 42.5506 34.7 41.0338 35.8014 39.5617C36.3609 38.8161 36.3249 35.8103 35.7125 32.0818C34.8248 26.6844 33.2578 22.4994 31.986 22.131C30.8846 21.8118 30.063 21.9153 29.5416 22.4392C28.3058 23.6816 28.5511 27.2517 30.2722 33.0511C30.8876 35.125 31.2407 36.5603 31.2444 36.5735C31.2553 36.6178 31.2512 36.6645 31.2329 36.7063C31.2146 36.748 31.183 36.7826 31.1431 36.8047L22.1474 41.5203C22.1205 41.5344 22.0908 41.5424 22.0605 41.5438C22.0302 41.5452 21.9999 41.5399 21.9719 41.5284C20.9365 41.102 19.7617 40.658 19.5105 40.6213C19.186 40.8224 18.0794 42.7773 18.1015 43.1215C18.1001 43.1514 18.108 43.181 18.124 43.2063C18.14 43.2317 18.1634 43.2515 18.191 43.2631C18.2523 43.2829 18.3174 43.2882 18.3811 43.2787C18.4448 43.2691 18.5054 43.245 18.5582 43.2081C18.5938 43.1785 18.6381 43.1613 18.6843 43.1591C18.7306 43.157 18.7763 43.1701 18.8144 43.1964C18.8492 43.2215 18.8749 43.2574 18.8875 43.2984C18.9001 43.3395 18.8989 43.3835 18.8842 43.4238Z" fill="#262424"/>
<path d="M29.8296 32.9827L36.4073 31.9693C35.6466 27.3462 33.935 22.5381 32.0457 21.9276C26.8704 20.2559 28.3978 28.16 29.8296 32.9827Z" fill="#FEA151"/>
<path d="M29.8285 33.1767C29.7868 33.1767 29.7461 33.1632 29.7126 33.1382C29.6791 33.1132 29.6546 33.078 29.6428 33.038C28.6669 29.7475 27.3136 23.951 29.2176 22.0937C29.8733 21.4545 30.8441 21.3371 32.1048 21.7444C34.1483 22.4048 35.8666 27.4917 36.5979 31.9387C36.6055 31.9893 36.5928 32.0408 36.5625 32.0821C36.5323 32.1233 36.4869 32.1509 36.4364 32.1589L29.8587 33.1723C29.8488 33.1745 29.8387 33.176 29.8285 33.1767ZM30.775 21.8955C30.2442 21.8955 29.8146 22.054 29.4893 22.371C27.7021 24.1139 29.1861 30.0961 29.9673 32.7658L36.1838 31.8118C35.4319 27.3941 33.7658 22.691 31.9866 22.1164C31.5966 21.9805 31.1879 21.906 30.775 21.8955Z" fill="#FEA151"/>
<path d="M29.5238 32.1162C29.4781 32.1162 29.4338 32.1011 29.3976 32.0734C29.3613 32.0457 29.3352 32.0068 29.3233 31.9628C28.3864 28.5094 27.5794 24.0206 29.0553 22.2498C29.526 21.6848 30.1942 21.4338 31.0379 21.5043C31.0923 21.5095 31.1424 21.5359 31.1775 21.5778C31.2125 21.6198 31.2296 21.6738 31.2251 21.7282C31.2205 21.7827 31.1947 21.8331 31.1532 21.8687C31.1117 21.9042 31.0579 21.922 31.0034 21.9181C30.2889 21.8587 29.7551 22.0546 29.371 22.5162C27.9377 24.2363 28.9753 29.1053 29.7213 31.855C29.7294 31.8855 29.7305 31.9174 29.7245 31.9484C29.7184 31.9794 29.7054 32.0086 29.6863 32.0337C29.6673 32.0589 29.6427 32.0795 29.6146 32.0937C29.5864 32.108 29.5554 32.1157 29.5238 32.1162Z" fill="#262424"/>
<path d="M30.2112 32.3126C30.1595 32.3115 30.11 32.2912 30.0725 32.2556C30.035 32.22 30.0121 32.1717 30.0084 32.1201C30.0046 32.0686 30.0202 32.0175 30.0522 31.9768C30.0841 31.9361 30.1301 31.9088 30.1811 31.9002L35.9819 31.0409C36.0348 31.036 36.0876 31.0516 36.1293 31.0844C36.1711 31.1172 36.1988 31.1647 36.2066 31.2172C36.2144 31.2697 36.2017 31.3232 36.1713 31.3667C36.1409 31.4102 36.0949 31.4404 36.0429 31.4511L30.242 32.3104C30.2318 32.3119 30.2215 32.3127 30.2112 32.3126Z" fill="#262424"/>
<path d="M22.1474 14.6322C22.1474 14.6322 21.4961 13.6657 20.7971 13.9945C20.098 14.3232 20.333 16.6531 22.0549 16.3354L22.1474 14.6322Z" fill="white"/>
<path d="M25.1294 24.3338C25.0614 24.3338 24.9957 24.3088 24.9437 24.2632C24.8917 24.2176 24.8569 24.1542 24.8454 24.0844C24.6775 23.0731 24.3691 22.0925 24.1727 21.9375C23.9691 22.0309 23.5112 22.9054 23.2018 23.8074C23.177 23.8795 23.1267 23.939 23.0613 23.9737C22.9958 24.0084 22.9201 24.0158 22.8496 23.9942C22.0049 23.7353 21.1633 22.5881 21.3047 21.356C21.4503 20.0931 22.6939 18.6753 24.7121 18.5384C26.1695 18.4386 27.577 18.9926 28.2965 19.9477C28.7291 20.5229 28.8614 21.1915 28.669 21.8314C27.9241 24.3052 25.1568 24.3338 25.1294 24.3338ZM24.1869 21.3326C24.7904 21.3326 25.1568 22.5743 25.3665 23.7194C25.9843 23.6578 27.6126 23.3363 28.1205 21.6521C28.2925 21.0811 28.0655 20.612 27.8447 20.3191C27.2483 19.5275 26.0046 19.052 24.7497 19.138C23.041 19.2547 21.9937 20.4051 21.8767 21.4281C21.7749 22.2686 22.2767 23.0041 22.7672 23.3055C23.0817 22.4586 23.6089 21.3326 24.1869 21.3326Z" fill="#262424"/>
<path d="M23.5039 20.0216C23.5039 20.0216 23.5735 20.6959 24.4391 21.0159C24.8848 21.0141 25.3255 20.9251 25.7349 20.7543C26.1443 20.5834 26.5141 20.3343 26.8222 20.0216L26.5814 15.762L25.7596 15.9251L23.7586 16.3323L23.5446 19.3993L23.5039 20.0216Z" fill="white"/>
<path d="M24.4943 21.2923H24.433C24.4016 21.2909 24.3706 21.2846 24.3411 21.2737C23.3269 20.8959 23.2308 20.0773 23.2276 20.0422C23.2262 20.026 23.2262 20.0098 23.2276 19.9936L23.4769 16.3289C23.4813 16.2653 23.5068 16.2049 23.5495 16.1569C23.5922 16.1088 23.6498 16.0757 23.7136 16.0625L26.4995 15.4917C26.5416 15.483 26.5852 15.4833 26.6272 15.4926C26.6692 15.5019 26.7087 15.5199 26.7429 15.5455C26.7771 15.5711 26.8053 15.6036 26.8254 15.6408C26.8456 15.678 26.8573 15.7191 26.8597 15.7611L27.0974 19.9936C27.0996 20.033 27.0937 20.0725 27.0799 20.1095C27.0661 20.1466 27.0447 20.1806 27.0171 20.2094C26.691 20.5442 26.3 20.8123 25.8669 20.9982C25.4338 21.1841 24.9672 21.2841 24.4943 21.2923ZM23.8245 19.9988C23.8435 20.0927 23.9566 20.484 24.5059 20.709C25.2469 20.6859 25.9534 20.3975 26.491 19.8987L26.2797 16.1296L24.0611 16.5859L23.8245 19.9988Z" fill="#262424"/>
<path d="M23.5039 19.6329C25.7998 19.3953 25.9926 16.3262 25.9926 16.3262C25.8756 16.222 25.7523 16.1257 25.6234 16.0381L23.7059 16.4595L23.5039 19.6329Z" fill="#262424"/>
<path d="M28.938 4.9113C27.5815 5.90325 29.5971 8.76587 30.3866 9.63723C31.1761 10.5086 31.1296 13.5704 33.2839 14.0517C35.4381 14.533 32.7955 19.2946 38.6065 22.066C43.0847 24.1988 48.9537 20.2834 47.2629 17.1849C45.5722 14.0863 39.9702 13.8567 38.4554 10.9983C37.4921 9.18215 37.6214 6.17483 34.2037 5.95253C31.65 5.78896 30.009 4.12382 28.938 4.9113Z" fill="#262424"/>
<path d="M20.4232 16.0383C19.3068 16.0383 18.6429 15.3056 18.3905 14.547C18.1056 13.7069 18.2365 12.6044 18.9434 12.2882C20.1561 11.7474 21.1971 13.188 21.2411 13.2496C21.277 13.3002 21.2947 13.3606 21.2913 13.4216L21.1562 15.7321C21.1527 15.7951 21.1269 15.8552 21.083 15.9026C21.0391 15.95 20.9797 15.9821 20.9143 15.9936C20.7524 16.0226 20.588 16.0375 20.4232 16.0383ZM19.4974 12.7366C19.3927 12.7365 19.2893 12.7585 19.1948 12.8012C18.8806 12.9404 18.7109 13.6592 18.9539 14.379C19.0785 14.7478 19.4775 15.5561 20.5803 15.4726L20.6934 13.4981C20.5279 13.2923 20.0347 12.7356 19.4995 12.7356L19.4974 12.7366Z" fill="#262424"/>
<path d="M20.2325 13.9167C20.3478 15.9587 21.2803 18.3159 23.8181 18.2493C25.6842 18.2004 27.7478 16.0138 27.9048 13.2585C28.0618 10.5032 27.5683 8.13876 24.1589 8.30408C23.7947 8.32709 23.4325 8.37364 23.0747 8.44341C21.0976 8.86866 20.3425 9.04126 20.1908 12.828C20.1769 13.1597 20.21 13.5309 20.2325 13.9167Z" fill="white"/>
<path d="M23.7101 18.5258C21.1317 18.5258 20.0762 16.1649 19.9509 13.9313L19.9424 13.7842C19.9211 13.4433 19.902 13.1212 19.9137 12.8155C20.0613 9.00108 20.8248 8.64367 23.0114 8.1723C23.3836 8.09952 23.7603 8.05107 24.1391 8.02726C25.4485 7.96407 26.4531 8.26554 27.1242 8.92338C28.2169 9.99562 28.2615 11.8106 28.1787 13.2745C28.0067 16.3068 25.7458 18.4761 23.8248 18.5269H23.7101V18.5258ZM24.4864 8.6043C24.383 8.6043 24.2768 8.60706 24.1678 8.61259C23.8225 8.63483 23.4792 8.67912 23.1399 8.74519C21.2284 9.15958 20.6507 9.28183 20.5126 12.8394C20.502 13.116 20.5211 13.4247 20.5402 13.751L20.5487 13.8992C20.6029 14.8543 20.9905 17.9395 23.7091 17.9395H23.8057C25.4623 17.896 27.4269 15.8768 27.5766 13.2403C27.6881 11.2719 27.4088 10.036 26.6963 9.33674C26.1961 8.84465 25.4708 8.6043 24.4864 8.6043Z" fill="#262424"/>
<path d="M27.8988 7.11973L27.8991 7.11961L28.4892 6.8704L28.4892 6.87041L28.4905 6.86984C28.5075 6.86259 28.5295 6.85847 28.553 6.86029C28.5765 6.86211 28.595 6.86934 28.6068 6.87684L28.6067 6.87693L28.6155 6.88226C28.7882 6.98697 28.9283 7.12087 29.0298 7.27153C29.0931 7.40471 29.1036 7.54824 29.0634 7.68363L29.061 7.6917L29.0604 7.69422C29.0584 7.69628 29.0542 7.70004 29.0467 7.70412L29.0467 7.70412L29.0446 7.70529L28.4106 8.05711L28.4104 8.05726C28.3989 8.06365 28.3829 8.06926 28.3635 8.07127C28.3442 8.07327 28.325 8.07129 28.3083 8.06626L28.3083 8.06626C28.2917 8.06125 28.2807 8.05421 28.2747 8.04904L28.2747 8.04904C28.2717 8.04651 28.2703 8.04471 28.2697 8.04395L27.8812 7.12935C27.8853 7.12639 27.891 7.12301 27.8988 7.11973ZM28.2702 8.04512L28.2702 8.04509L28.2702 8.04512Z" fill="white" stroke="#262424"/>
<path d="M26.8976 12.9823C26.5761 12.8571 26.294 12.6464 26.0811 12.3727C25.8682 12.0989 25.7324 11.7722 25.688 11.427C25.6535 11.193 25.6312 10.878 25.5641 10.5938C24.2043 12.0302 21.6358 12.9064 20.5177 13.2337C20.3426 13.2883 20.1549 13.2858 19.9814 13.2265C19.8078 13.1672 19.6571 13.0541 19.5508 12.9033C18.2448 10.954 19.8017 7.22245 22.3041 7.29427C25.1478 5.30693 28.4637 6.75152 28.9369 9.17593C29.462 11.864 27.6989 13.3199 26.8976 12.9823Z" fill="#262424"/>
<path d="M26.9685 13.4291C26.9685 13.4291 28.3264 12.0987 29.7548 12.5295C31.1832 12.9603 30.3531 16.1218 26.8242 15.728L26.9685 13.4291Z" fill="white"/>
<path d="M27.4301 16.0383C27.221 16.0382 27.0121 16.0262 26.8045 16.0024C26.7273 15.993 26.6572 15.9548 26.6093 15.8961C26.5614 15.8374 26.5397 15.763 26.549 15.6892C26.5582 15.6153 26.5975 15.5479 26.6585 15.5016C26.7194 15.4553 26.797 15.434 26.8744 15.4421C28.7668 15.6565 29.8564 14.7493 30.068 13.8162C30.1546 13.4343 30.0972 12.9409 29.651 12.8043C28.4248 12.4294 27.207 13.6148 27.1945 13.6267C27.1683 13.6559 27.1361 13.6795 27.0999 13.6963C27.0638 13.7131 27.0244 13.7227 26.9843 13.7244C26.9442 13.7261 26.9041 13.72 26.8665 13.7064C26.8289 13.6928 26.7946 13.672 26.7657 13.6453C26.7369 13.6186 26.714 13.5865 26.6986 13.551C26.6831 13.5155 26.6754 13.4774 26.6759 13.439C26.6764 13.4006 26.6851 13.3627 26.7015 13.3276C26.7179 13.2925 26.7416 13.261 26.7712 13.235C26.8316 13.1751 28.2601 11.7874 29.8314 12.2679C30.4986 12.4673 30.826 13.1422 30.6457 13.9368C30.4059 14.9975 29.3079 16.0383 27.4301 16.0383Z" fill="#262424"/>
<path d="M19.536 45.1454H4.33194C4.19583 45.1453 4.06381 45.0988 3.95777 45.0135C3.85174 44.9283 3.77805 44.8093 3.74891 44.6764L1.7054 35.3913C1.68618 35.3041 1.68676 35.2138 1.70713 35.1269C1.72749 35.0399 1.7671 34.9587 1.82305 34.8891C1.879 34.8196 1.94985 34.7634 2.03039 34.7248C2.11093 34.6863 2.19911 34.6663 2.28842 34.6663H17.4925C17.628 34.6663 17.7595 34.7123 17.8653 34.7969C17.9711 34.8814 18.045 34.9994 18.0748 35.1315L20.1183 44.4167C20.1382 44.504 20.1381 44.5947 20.1181 44.682C20.098 44.7694 20.0586 44.8511 20.0026 44.9211C19.9467 44.9911 19.8757 45.0476 19.7949 45.0864C19.7142 45.1252 19.6257 45.1454 19.536 45.1454Z" fill="white"/>
<path d="M19.5358 45.3529H4.33174C4.14836 45.3525 3.97059 45.2897 3.82767 45.1749C3.68474 45.06 3.58517 44.9 3.54533 44.7211L1.50255 35.436C1.47721 35.3186 1.47838 35.197 1.50599 35.0802C1.5336 34.9633 1.58696 34.8541 1.66216 34.7605C1.73736 34.6668 1.83251 34.5911 1.94069 34.5389C2.04887 34.4866 2.16735 34.4592 2.2875 34.4585H17.4923C17.6757 34.4589 17.8535 34.5218 17.9964 34.6366C18.1393 34.7514 18.2389 34.9114 18.2787 35.0903L20.3215 44.3777C20.3465 44.495 20.345 44.6163 20.3172 44.733C20.2894 44.8496 20.2359 44.9586 20.1607 45.052C20.0854 45.1454 19.9903 45.2208 19.8822 45.2729C19.7741 45.325 19.6558 45.3523 19.5358 45.3529ZM2.2875 34.8731C2.22922 34.8732 2.17171 34.8863 2.11918 34.9115C2.06664 34.9367 2.02044 34.9734 1.98395 35.0188C1.94746 35.0642 1.92162 35.1172 1.90833 35.1739C1.89503 35.2306 1.89463 35.2895 1.90714 35.3464L3.95065 44.6316C3.97008 44.7181 4.01827 44.7954 4.08735 44.851C4.15643 44.9066 4.24233 44.9371 4.33101 44.9376H19.5358C19.5941 44.9375 19.6516 44.9244 19.7042 44.8992C19.7567 44.874 19.8029 44.8373 19.8394 44.7919C19.8759 44.7465 19.9017 44.6935 19.915 44.6368C19.9283 44.5801 19.9287 44.5212 19.9162 44.4643L17.8727 35.1791C17.8533 35.0926 17.8051 35.0153 17.736 34.9597C17.6669 34.9041 17.581 34.8736 17.4923 34.8731H2.2875Z" fill="#262424"/>
<path d="M18.5626 45.1454H3.35928C3.22317 45.1453 3.09115 45.0988 2.98512 45.0135C2.87908 44.9283 2.80539 44.8093 2.77626 44.6764L0.732744 35.3913C0.713519 35.3041 0.71411 35.2138 0.734471 35.1269C0.754833 35.0399 0.794446 34.9587 0.850393 34.8891C0.90634 34.8196 0.977194 34.7634 1.05774 34.7248C1.13828 34.6863 1.22645 34.6663 1.31577 34.6663H16.5199C16.656 34.6663 16.788 34.7128 16.894 34.7981C17.0001 34.8834 17.0737 35.0023 17.1029 35.1352L19.1464 44.4203C19.1656 44.5076 19.165 44.598 19.1446 44.685C19.1242 44.7719 19.0845 44.8532 19.0285 44.9228C18.9725 44.9924 18.9015 45.0485 18.8209 45.087C18.7403 45.1255 18.652 45.1455 18.5626 45.1454Z" fill="white"/>
<path d="M18.5632 45.3529H3.35982C3.17644 45.3525 2.99867 45.2897 2.85574 45.1749C2.71282 45.06 2.61325 44.9 2.5734 44.7211L0.529888 35.436C0.504521 35.3185 0.505731 35.1968 0.533424 35.0798C0.561118 34.9629 0.614598 34.8536 0.689962 34.7599C0.765325 34.6662 0.860666 34.5905 0.969029 34.5384C1.07739 34.4863 1.19604 34.459 1.31631 34.4585H16.5204C16.7038 34.4589 16.8816 34.5218 17.0245 34.6366C17.1674 34.7514 17.267 34.9114 17.3068 35.0903L19.3496 44.3777C19.3746 44.495 19.3731 44.6164 19.3452 44.7331C19.3174 44.8498 19.2638 44.9588 19.1885 45.0522C19.1132 45.1457 19.018 45.2211 18.9098 45.2731C18.8016 45.3251 18.6832 45.3524 18.5632 45.3529ZM1.31631 34.8731C1.25803 34.8732 1.20052 34.8863 1.14799 34.9115C1.09546 34.9367 1.04925 34.9734 1.01276 35.0188C0.976268 35.0642 0.950427 35.1172 0.937135 35.1739C0.923843 35.2306 0.923437 35.2895 0.935947 35.3464L2.97946 44.6316C2.99889 44.7181 3.04708 44.7954 3.11616 44.851C3.18524 44.9066 3.27114 44.9371 3.35982 44.9376H18.5632C18.6214 44.9375 18.679 44.9244 18.7315 44.8992C18.784 44.874 18.8302 44.8373 18.8667 44.7919C18.9032 44.7465 18.9291 44.6935 18.9423 44.6368C18.9556 44.5801 18.956 44.5212 18.9435 44.4643L16.8986 35.1791C16.8791 35.0926 16.8309 35.0153 16.7619 34.9597C16.6928 34.9041 16.6069 34.8736 16.5182 34.8731H1.31631Z" fill="#262424"/>
<path d="M28.4511 45.1455H18.4097C18.1295 45.1455 17.9023 45.3725 17.9023 45.6526V46.0723C17.9023 46.3524 18.1295 46.5794 18.4097 46.5794H28.4511C28.7313 46.5794 28.9585 46.3524 28.9585 46.0723V45.6526C28.9585 45.3725 28.7313 45.1455 28.4511 45.1455Z" fill="white"/>
<path d="M28.4511 46.787H18.4105C18.2209 46.7868 18.0391 46.7114 17.905 46.5774C17.7709 46.4434 17.6955 46.2618 17.6953 46.0723V45.6525C17.6955 45.463 17.7709 45.2813 17.905 45.1473C18.0391 45.0133 18.2209 44.9379 18.4105 44.9377H28.4511C28.6407 44.9379 28.8225 45.0133 28.9566 45.1473C29.0907 45.2813 29.1661 45.463 29.1663 45.6525V46.0723C29.1661 46.2618 29.0907 46.4434 28.9566 46.5774C28.8225 46.7114 28.6407 46.7868 28.4511 46.787ZM18.4105 45.3531C18.3311 45.3533 18.255 45.3849 18.1989 45.441C18.1427 45.4971 18.1111 45.5732 18.1109 45.6525V46.0723C18.1111 46.1516 18.1427 46.2276 18.1989 46.2838C18.255 46.3399 18.3311 46.3715 18.4105 46.3717H28.4511C28.5305 46.3715 28.6066 46.3399 28.6627 46.2838C28.7189 46.2276 28.7505 46.1516 28.7507 46.0723V45.6525C28.7505 45.5732 28.7189 45.4971 28.6627 45.441C28.6066 45.3849 28.5305 45.3533 28.4511 45.3531H18.4105Z" fill="#262424"/>
<path d="M19.7711 45.1455H4.83942C4.5592 45.1455 4.33203 45.3725 4.33203 45.6526V46.0723C4.33203 46.3524 4.5592 46.5794 4.83942 46.5794H19.7711C20.0513 46.5794 20.2785 46.3524 20.2785 46.0723V45.6526C20.2785 45.3725 20.0513 45.1455 19.7711 45.1455Z" fill="white"/>
<path d="M19.7641 46.787H4.83238C4.64276 46.7868 4.46096 46.7114 4.32688 46.5774C4.19279 46.4434 4.11738 46.2618 4.11719 46.0723V45.6525C4.11738 45.463 4.19279 45.2813 4.32688 45.1473C4.46096 45.0133 4.64276 44.9379 4.83238 44.9377H19.7641C19.9537 44.9379 20.1355 45.0133 20.2696 45.1473C20.4036 45.2813 20.4791 45.463 20.4793 45.6525V46.0723C20.4791 46.2618 20.4036 46.4434 20.2696 46.5774C20.1355 46.7114 19.9537 46.7868 19.7641 46.787ZM4.83238 45.3531C4.75298 45.3533 4.67689 45.3849 4.62075 45.441C4.56461 45.4971 4.53299 45.5732 4.53279 45.6525V46.0723C4.53299 46.1516 4.56461 46.2276 4.62075 46.2838C4.67689 46.3399 4.75298 46.3715 4.83238 46.3717H19.7641C19.8435 46.3715 19.9195 46.3399 19.9757 46.2838C20.0318 46.2276 20.0635 46.1516 20.0636 46.0723V45.6525C20.0635 45.5732 20.0318 45.4971 19.9757 45.441C19.9195 45.3849 19.8435 45.3533 19.7641 45.3531H4.83238Z" fill="#262424"/>
<path d="M36.2598 45.0615C35.0256 45.1106 33.8504 45.6022 32.9492 46.4464C32.048 47.2905 31.4811 48.4308 31.3523 49.6585C31.2234 50.8862 31.5413 52.1192 32.2476 53.1318C32.954 54.1445 34.0016 54.869 35.1988 55.173C35.3494 55.2094 35.5064 55.211 35.6579 55.1778C35.8093 55.1446 35.9512 55.0775 36.0728 54.9814C36.1944 54.8853 36.2925 54.7628 36.3598 54.6232C36.4271 54.4837 36.4617 54.3306 36.461 54.1757C36.463 53.9494 36.3894 53.729 36.2519 53.5493C36.1143 53.3696 35.9207 53.2409 35.7017 53.1835C35.1411 53.0416 34.6316 52.7453 34.2312 52.3282C33.8308 51.9111 33.5556 51.3901 33.4369 50.8244C33.3182 50.2587 33.3608 49.6711 33.5598 49.1284C33.7589 48.5857 34.1063 48.1097 34.5627 47.7547C35.0191 47.3996 35.566 47.1798 36.1413 47.1201C36.7166 47.0604 37.297 47.1633 37.8166 47.4171C38.3363 47.6709 38.7742 48.0654 39.0805 48.5556C39.3868 49.0459 39.5493 49.6123 39.5494 50.1902H41.5995C41.5989 49.4992 41.4589 48.8154 41.1877 48.1797C40.9165 47.5441 40.5198 46.9696 40.0212 46.4908C39.5227 46.012 38.9326 45.6386 38.2863 45.393C37.64 45.1474 36.9507 45.0346 36.2598 45.0615Z" fill="white"/>
<path d="M35.4402 55.4108C35.3411 55.4104 35.2425 55.3978 35.1465 55.3734C33.9007 55.0578 32.8103 54.3043 32.075 53.2509C31.3397 52.1976 31.0086 50.9147 31.1423 49.6373C31.2761 48.3599 31.8657 47.1734 32.8033 46.2949C33.7409 45.4165 34.9638 44.9049 36.2479 44.8539L36.256 45.0616L36.2479 44.8539C36.9671 44.8259 37.6845 44.9432 38.3572 45.1989C39.0299 45.4546 39.6441 45.8433 40.1628 46.3419C40.6816 46.8405 41.0943 47.4386 41.3762 48.1004C41.6581 48.7621 41.8035 49.474 41.8035 50.1933C41.8035 50.2483 41.7816 50.3012 41.7427 50.3401C41.7037 50.3791 41.6508 50.4009 41.5957 50.4009H39.5441C39.489 50.4009 39.4362 50.3791 39.3972 50.3401C39.3582 50.3012 39.3363 50.2483 39.3363 50.1933C39.3388 49.4438 39.0488 48.7229 38.5278 48.1838C38.0068 47.6447 37.296 47.3299 36.5465 47.3063C35.7969 47.2826 35.0677 47.5521 34.5138 48.0574C33.9599 48.5626 33.625 49.2639 33.5803 50.012C33.5387 50.6822 33.7324 51.3459 34.1279 51.8887C34.5235 52.4315 35.0961 52.8194 35.7471 52.9855C36.0356 53.0625 36.2863 53.2413 36.4529 53.4889C36.6195 53.7365 36.6907 54.0361 36.6532 54.3321C36.6158 54.6281 36.4722 54.9005 36.2492 55.0988C36.0262 55.2972 35.7388 55.408 35.4402 55.4108ZM36.4579 45.2656C36.3933 45.2656 36.3285 45.2668 36.2634 45.2693C35.0783 45.3151 33.9494 45.7862 33.0836 46.5962C32.2178 47.4063 31.6732 48.501 31.5494 49.6798C31.4257 50.8586 31.7312 52.0425 32.4099 53.0144C33.0886 53.9864 34.0951 54.6814 35.2449 54.972C35.3628 55.0017 35.486 55.0039 35.6049 54.9785C35.7238 54.953 35.8353 54.9006 35.9307 54.8252C36.03 54.7485 36.1102 54.6501 36.1654 54.5375C36.2205 54.4249 36.249 54.3011 36.2487 54.1758C36.2502 53.9963 36.1918 53.8214 36.0827 53.6788C35.9737 53.5363 35.8202 53.434 35.6465 53.3884C35.0567 53.2391 34.5197 52.9297 34.0949 52.4943C33.6702 52.0588 33.3743 51.5145 33.24 50.9214C33.1058 50.3283 33.1383 49.7096 33.3341 49.1339C33.5299 48.5582 33.8814 48.0478 34.3495 47.6593C34.8176 47.2709 35.3841 47.0194 35.9864 46.9329C36.5887 46.8463 37.2031 46.928 37.7618 47.1689C38.3205 47.4098 38.8016 47.8005 39.1518 48.2978C39.502 48.795 39.7077 49.3795 39.7461 49.9863H41.3835C41.3298 48.7166 40.7874 47.5168 39.8696 46.6371C38.9518 45.7575 37.7295 45.2662 36.4579 45.2656Z" fill="#262424"/>
<path d="M48.433 45.0615C47.1987 45.1103 46.0232 45.6017 45.1218 46.4457C44.2204 47.2898 43.6532 48.4301 43.5242 49.6578C43.3952 50.8856 43.7129 52.1187 44.4192 53.1315C45.1256 54.1443 46.1732 54.869 47.3705 55.173C47.5211 55.2094 47.6781 55.211 47.8296 55.1778C47.981 55.1446 48.1229 55.0775 48.2445 54.9814C48.3661 54.8853 48.4642 54.7628 48.5315 54.6232C48.5987 54.4837 48.6334 54.3306 48.6327 54.1757C48.6348 53.9496 48.5614 53.7294 48.4241 53.5497C48.2869 53.37 48.0936 53.2411 47.8749 53.1835C47.3143 53.0416 46.8047 52.7453 46.4043 52.3282C46.0039 51.9111 45.7287 51.3901 45.61 50.8244C45.4913 50.2587 45.5339 49.6711 45.733 49.1284C45.932 48.5857 46.2795 48.1097 46.7359 47.7547C47.1923 47.3996 47.7392 47.1798 48.3145 47.1201C48.8897 47.0604 49.4702 47.1633 49.9898 47.4171C50.5094 47.6709 50.9473 48.0654 51.2537 48.5556C51.56 49.0459 51.7225 49.6123 51.7226 50.1902H53.7727C53.7721 49.4992 53.6321 48.8154 53.3609 48.1797C53.0897 47.5441 52.6929 46.9696 52.1944 46.4908C51.6959 46.012 51.1058 45.6386 50.4595 45.393C49.8131 45.1474 49.1239 45.0346 48.433 45.0615Z" fill="white"/>
<path d="M47.6199 55.4109C47.5208 55.4105 47.4222 55.3979 47.3262 55.3735C46.0804 55.0579 44.99 54.3045 44.2547 53.2511C43.5194 52.1977 43.1883 50.9149 43.322 49.6375C43.4558 48.36 44.0454 47.1735 44.983 46.2951C45.9206 45.4166 47.1434 44.9051 48.4276 44.854C49.1465 44.8264 49.8636 44.944 50.536 45.1999C51.2084 45.4558 51.8221 45.8446 52.3406 46.3431C52.859 46.8417 53.2715 47.4396 53.5532 48.1012C53.8349 48.7628 53.9802 49.4744 53.9803 50.1934C53.9803 50.2485 53.9584 50.3013 53.9194 50.3403C53.8804 50.3792 53.8276 50.4011 53.7725 50.4011H51.7223C51.6672 50.4011 51.6144 50.3792 51.5754 50.3403C51.5364 50.3013 51.5145 50.2485 51.5145 50.1934C51.517 49.4439 51.227 48.723 50.706 48.1839C50.185 47.6448 49.4742 47.33 48.7247 47.3064C47.9751 47.2828 47.2459 47.5522 46.692 48.0575C46.1381 48.5628 45.8032 49.264 45.7585 50.0121C45.7169 50.6823 45.9106 51.346 46.3062 51.8888C46.7017 52.4316 47.2743 52.8195 47.9254 52.9856C48.2137 53.0626 48.4644 53.2413 48.631 53.4888C48.7976 53.7362 48.8688 54.0356 48.8316 54.3315C48.7943 54.6274 48.651 54.8998 48.4283 55.0983C48.2055 55.2967 47.9183 55.4078 47.6199 55.4109ZM48.4423 45.2687C47.2572 45.3146 46.1285 45.7858 45.2628 46.596C44.3972 47.4061 43.8526 48.5008 43.729 49.6796C43.6053 50.8583 43.9109 52.0421 44.5896 53.014C45.2684 53.9859 46.2748 54.6808 47.4246 54.9714C47.5424 55.001 47.6654 55.0032 47.7842 54.9777C47.903 54.9523 48.0143 54.8999 48.1097 54.8246C48.2089 54.7479 48.2892 54.6495 48.3443 54.5369C48.3994 54.4243 48.4279 54.3005 48.4276 54.1752C48.4291 53.9957 48.3707 53.8209 48.2617 53.6783C48.1526 53.5357 47.9992 53.4334 47.8255 53.3878C47.2356 53.2387 46.6984 52.9293 46.2736 52.4939C45.8487 52.0586 45.5527 51.5142 45.4184 50.9211C45.284 50.328 45.3165 49.7093 45.5122 49.1335C45.708 48.5577 46.0593 48.0473 46.5274 47.6587C46.9956 47.2702 47.5621 47.0187 48.1644 46.9321C48.7667 46.8455 49.3812 46.9272 49.94 47.1681C50.4987 47.409 50.9798 47.7998 51.33 48.2971C51.6802 48.7944 51.8859 49.3788 51.9243 49.9857H53.5617C53.5067 48.6823 52.9369 47.4539 51.9771 46.5697C51.0173 45.6854 49.7459 45.2176 48.4416 45.2687H48.4423Z" fill="#262424"/>
<path d="M0.718332 21.7145C1.05249 21.7145 1.32339 21.4438 1.32339 21.1098C1.32339 20.7759 1.05249 20.5051 0.718332 20.5051C0.384171 20.5051 0.113281 20.7759 0.113281 21.1098C0.113281 21.4438 0.384171 21.7145 0.718332 21.7145Z" fill="#FEA151"/>
<path d="M1.68959 75.0139L1.91869 75.6391C1.98927 75.8325 2.10129 76.008 2.2469 76.1536C2.39251 76.2991 2.5682 76.411 2.76165 76.4816L3.38359 76.7083L2.76165 76.9351C2.56849 77.0053 2.393 77.1168 2.2474 77.2618C2.10181 77.4068 1.98963 77.5818 1.91869 77.7746L1.69179 78.3961L1.4649 77.7746C1.39432 77.5813 1.2823 77.4057 1.13669 77.2602C0.991076 77.1146 0.815392 77.0027 0.62194 76.9322L0 76.7054L0.62194 76.4786C0.814688 76.4081 0.989752 76.2965 1.13495 76.1515C1.28015 76.0066 1.39199 75.8317 1.4627 75.6391L1.68959 75.0139Z" fill="#B0CDFE"/>
<path d="M7.43301 10.6541L7.65991 11.2756C7.73049 11.4689 7.84251 11.6445 7.98812 11.79C8.13373 11.9356 8.30941 12.0475 8.50287 12.118L9.12481 12.3448L8.50287 12.5716C8.30941 12.6421 8.13373 12.754 7.98812 12.8996C7.84251 13.0451 7.73049 13.2207 7.65991 13.414L7.43301 14.0355L7.20685 13.4147C7.13627 13.2214 7.02425 13.0458 6.87864 12.9003C6.73303 12.7548 6.55734 12.6428 6.36389 12.5723L5.73828 12.3455L6.36022 12.1188C6.55443 12.0486 6.73088 11.9368 6.87715 11.7911C7.02343 11.6454 7.13597 11.4694 7.20685 11.2756L7.43301 10.6541Z" fill="#B0CDFE"/>
<path d="M70.3742 56.3142L70.7046 57.2205C70.8073 57.5023 70.9705 57.7583 71.1827 57.9704C71.3949 58.1825 71.651 58.3456 71.9331 58.4482L72.8399 58.7784L71.9331 59.1086C71.651 59.2113 71.3949 59.3743 71.1827 59.5864C70.9705 59.7985 70.8073 60.0545 70.7046 60.3363L70.3742 61.2426L70.0438 60.3363C69.9407 60.0544 69.7772 59.7985 69.5646 59.5865C69.3519 59.3745 69.0954 59.2116 68.8131 59.1094L67.9062 58.7791L68.8131 58.4489C69.0957 58.3464 69.3523 58.1832 69.5649 57.9709C69.7776 57.7585 69.941 57.5021 70.0438 57.2198L70.3742 56.3142Z" fill="#FEA151"/>
</svg>
