<svg width="161" height="135" viewBox="0 0 161 135" fill="none" xmlns="http://www.w3.org/2000/svg">
<path d="M146.38 9.03662H95.9492C91.9516 9.03662 88.7109 12.2882 88.7109 16.2992V124.973C88.7109 128.984 91.9516 132.235 95.9492 132.235H146.38C150.378 132.235 153.619 128.984 153.619 124.973V16.2992C153.619 12.2882 150.378 9.03662 146.38 9.03662Z" fill="#B0CDFE"/>
<path d="M125.85 13.8564H116.633C116.05 13.8564 115.578 14.3301 115.578 14.9144C115.578 15.4988 116.05 15.9724 116.633 15.9724H125.85C126.432 15.9724 126.904 15.4988 126.904 14.9144C126.904 14.3301 126.432 13.8564 125.85 13.8564Z" fill="#262424"/>
<path d="M148.812 16.2991V124.973C148.811 125.62 148.553 126.241 148.097 126.698C147.64 127.155 147.02 127.411 146.375 127.411H95.944C95.2995 127.41 94.6816 127.153 94.2256 126.696C93.7697 126.239 93.513 125.619 93.5117 124.973V16.2991C93.5111 15.9781 93.5735 15.6601 93.6955 15.3634C93.8174 15.0666 93.9964 14.7968 94.2223 14.5695C94.4482 14.3422 94.7165 14.1618 95.012 14.0386C95.3074 13.9154 95.6241 13.8519 95.944 13.8516H110.752C111.001 13.8516 111.247 13.9007 111.477 13.9962C111.706 14.0916 111.915 14.2316 112.091 14.408C112.267 14.5844 112.406 14.7938 112.501 15.0243C112.596 15.2548 112.645 15.5018 112.645 15.7513C112.645 16.0007 112.694 16.2478 112.79 16.4783C112.885 16.7087 113.024 16.9182 113.2 17.0946C113.376 17.271 113.585 17.4109 113.814 17.5064C114.044 17.6018 114.29 17.651 114.539 17.651H127.778C128.027 17.651 128.273 17.6018 128.503 17.5064C128.732 17.4109 128.941 17.271 129.117 17.0946C129.293 16.9182 129.432 16.7087 129.527 16.4783C129.622 16.2478 129.671 16.0007 129.671 15.7513C129.671 15.5015 129.72 15.2542 129.816 15.0235C129.911 14.7928 130.051 14.5832 130.227 14.4067C130.403 14.2303 130.612 14.0904 130.843 13.9952C131.073 13.8999 131.319 13.8511 131.568 13.8516H146.375C146.695 13.8513 147.013 13.9144 147.309 14.0373C147.605 14.1602 147.873 14.3405 148.1 14.5679C148.326 14.7952 148.506 15.0652 148.628 15.3623C148.75 15.6593 148.813 15.9777 148.812 16.2991Z" fill="white"/>
<path d="M146.383 127.706H95.9506C95.2283 127.705 94.5358 127.417 94.0251 126.904C93.5144 126.392 93.2272 125.697 93.2266 124.973V16.2991C93.2272 15.5744 93.5144 14.8796 94.0251 14.3671C94.5358 13.8547 95.2283 13.5665 95.9506 13.5659H110.759C111.337 13.5665 111.892 13.7975 112.301 14.2081C112.711 14.6186 112.941 15.1753 112.941 15.756C112.942 16.183 113.111 16.5925 113.412 16.8944C113.713 17.1964 114.121 17.3662 114.546 17.3665H127.786C128.211 17.3662 128.619 17.1964 128.92 16.8944C129.221 16.5925 129.391 16.183 129.391 15.756C129.392 15.1753 129.622 14.6186 130.031 14.2081C130.44 13.7975 130.995 13.5665 131.574 13.5659H146.381C147.103 13.5665 147.795 13.8547 148.306 14.3671C148.817 14.8796 149.104 15.5744 149.105 16.2991V124.973C149.104 125.697 148.817 126.391 148.307 126.904C147.797 127.416 147.105 127.704 146.383 127.706ZM95.9517 14.1466C95.383 14.1473 94.8377 14.3742 94.4355 14.7778C94.0333 15.1813 93.8071 15.7284 93.8065 16.2991V124.973C93.8071 125.543 94.0333 126.09 94.4355 126.494C94.8377 126.897 95.383 127.124 95.9517 127.125H146.383C146.952 127.124 147.497 126.897 147.899 126.494C148.301 126.09 148.527 125.543 148.528 124.973V16.2991C148.527 15.7284 148.301 15.1813 147.899 14.7778C147.497 14.3742 146.952 14.1473 146.383 14.1466H131.575C131.149 14.147 130.741 14.3167 130.44 14.6187C130.139 14.9207 129.97 15.3301 129.97 15.7572C129.969 16.3378 129.739 16.8945 129.33 17.3051C128.92 17.7157 128.366 17.9466 127.787 17.9472H114.548C113.969 17.9466 113.414 17.7157 113.005 17.3051C112.596 16.8945 112.366 16.3378 112.365 15.7572C112.365 15.3301 112.195 14.9207 111.894 14.6187C111.594 14.3167 111.185 14.147 110.76 14.1466H95.9506H95.9517Z" fill="#262424"/>
<path d="M133.671 105.249H108.652C104.598 105.249 101.312 108.546 101.312 112.613C101.312 116.68 104.598 119.977 108.652 119.977H133.671C137.725 119.977 141.01 116.68 141.01 112.613C141.01 108.546 137.725 105.249 133.671 105.249Z" fill="#B0CDFE"/>
<path d="M136.452 32.9004H105.873C100.923 32.9004 96.9102 36.9267 96.9102 41.8934C96.9102 46.8601 100.923 50.8865 105.873 50.8865H136.452C141.402 50.8865 145.415 46.8601 145.415 41.8934C145.415 36.9267 141.402 32.9004 136.452 32.9004Z" fill="#B0CDFE"/>
<path d="M138.181 37.4122C138.181 36.2027 137.204 35.2222 135.999 35.2222C134.793 35.2222 133.816 36.2027 133.816 37.4122V41.2728C133.816 42.4823 134.793 43.4628 135.999 43.4628C137.204 43.4628 138.181 42.4823 138.181 41.2728V37.4122Z" fill="white"/>
<path d="M140.009 41.2728C140.012 41.1902 139.999 41.1077 139.97 41.0303C139.941 40.953 139.897 40.8823 139.84 40.8225C139.783 40.7628 139.714 40.7152 139.639 40.6828C139.563 40.6503 139.481 40.6335 139.399 40.6335C139.317 40.6335 139.235 40.6503 139.159 40.6828C139.083 40.7152 139.015 40.7628 138.958 40.8225C138.901 40.8823 138.857 40.953 138.828 41.0303C138.799 41.1077 138.786 41.1902 138.789 41.2728C138.789 42.016 138.495 42.7286 137.971 43.2541C137.447 43.7796 136.737 44.0748 135.997 44.0748C135.256 44.0748 134.546 43.7796 134.022 43.2541C133.498 42.7286 133.204 42.016 133.204 41.2728C133.197 41.1152 133.13 40.9663 133.016 40.8572C132.903 40.7481 132.751 40.6872 132.594 40.6872C132.437 40.6872 132.286 40.7481 132.172 40.8572C132.059 40.9663 131.991 41.1152 131.984 41.2728C131.985 42.2335 132.328 43.1622 132.951 43.8917C133.574 44.6212 134.436 45.1037 135.382 45.2521V47.0154H134.342C134.18 47.0154 134.025 47.08 133.91 47.1948C133.796 47.3097 133.731 47.4655 133.731 47.6279C133.731 47.7083 133.747 47.788 133.778 47.8623C133.808 47.9366 133.853 48.0041 133.91 48.061C133.967 48.1178 134.034 48.163 134.108 48.1937C134.182 48.2245 134.262 48.2404 134.342 48.2404H137.642C137.722 48.2404 137.802 48.2245 137.876 48.1937C137.95 48.163 138.017 48.1178 138.074 48.061C138.13 48.0041 138.175 47.9366 138.206 47.8623C138.237 47.788 138.253 47.7083 138.253 47.6279C138.253 47.4655 138.188 47.3097 138.074 47.1948C137.959 47.08 137.804 47.0154 137.642 47.0154H136.602V45.2521C137.549 45.1057 138.414 44.6241 139.038 43.8944C139.663 43.1647 140.007 42.2349 140.009 41.2728Z" fill="white"/>
<path d="M155.492 59.2329H86.8348C83.8582 59.2329 81.4453 61.654 81.4453 64.6405V91.4432C81.4453 94.4298 83.8582 96.8508 86.8348 96.8508H155.492C158.468 96.8508 160.881 94.4298 160.881 91.4432V64.6405C160.881 61.654 158.468 59.2329 155.492 59.2329Z" fill="#FEA151"/>
<path d="M122.606 68.4258H93.4724C91.7466 68.4258 90.3477 69.8292 90.3477 71.5604C90.3477 73.2916 91.7466 74.695 93.4724 74.695H122.606C124.332 74.695 125.731 73.2916 125.731 71.5604C125.731 69.8292 124.332 68.4258 122.606 68.4258Z" fill="white"/>
<path d="M122.606 81.3877H93.4724C91.7466 81.3877 90.3477 82.7911 90.3477 84.5223C90.3477 86.2535 91.7466 87.657 93.4724 87.657H122.606C124.332 87.657 125.731 86.2535 125.731 84.5223C125.731 82.7911 124.332 81.3877 122.606 81.3877Z" fill="white"/>
<path d="M145.315 67.4372C144.804 67.1406 144.24 66.9479 143.655 66.8701C143.07 66.7923 142.476 66.831 141.906 66.9838C141.335 67.1366 140.801 67.4007 140.333 67.7609C139.864 68.1211 139.471 68.5703 139.176 69.083L131.467 82.4844C129.475 85.9417 132.665 90.1314 136.522 89.0946C137.093 88.9428 137.628 88.679 138.096 88.3184C138.564 87.9578 138.957 87.5076 139.251 86.9938L146.96 73.5925C147.555 72.557 147.717 71.327 147.409 70.1722C147.102 69.0175 146.35 68.0322 145.32 67.4325L145.315 67.4372Z" fill="white"/>
<path d="M139.701 83.5731C139.549 83.0007 139.285 82.4642 138.926 81.9941C138.566 81.524 138.118 81.1296 137.607 80.8335C137.095 80.5374 136.531 80.3454 135.945 80.2684C135.36 80.1915 134.765 80.2311 134.195 80.385C130.337 81.4218 129.666 86.6507 133.111 88.6456C136.555 90.6406 140.738 87.4701 139.699 83.5731H139.701Z" fill="white"/>
<path d="M135.355 89.3226C134.556 89.32 133.771 89.1055 133.081 88.7007C132.036 88.0949 131.272 87.0971 130.96 85.9268C130.647 84.7565 130.811 83.5096 131.415 82.4603C132.018 81.411 133.013 80.6453 134.179 80.3317C135.346 80.0181 136.588 80.1823 137.634 80.788C138.153 81.0868 138.607 81.4859 138.971 81.9621C139.335 82.4383 139.602 82.9822 139.755 83.5624C139.997 84.4329 139.971 85.3564 139.681 86.2119C139.391 87.0675 138.85 87.8153 138.13 88.3575C137.337 88.9783 136.361 89.3177 135.355 89.3226ZM135.367 80.292C134.977 80.2923 134.588 80.3441 134.211 80.446C133.365 80.6745 132.606 81.1493 132.03 81.8105C131.453 82.4717 131.084 83.2895 130.971 84.1606C130.857 85.0318 131.003 85.9172 131.391 86.705C131.778 87.4929 132.39 88.1478 133.148 88.5871C133.907 89.0264 134.778 89.2303 135.651 89.1731C136.525 89.1159 137.363 88.8001 138.058 88.2657C138.753 87.7313 139.274 87.0022 139.556 86.1705C139.839 85.3388 139.869 84.4419 139.644 83.5929C139.392 82.6468 138.837 81.8103 138.064 81.2127C137.291 80.6151 136.343 80.2899 135.367 80.2873V80.292Z" fill="#272525"/>
<path d="M154.767 82.4847L147.058 69.0833C146.764 68.5704 146.371 68.1211 145.903 67.7613C145.434 67.4016 144.9 67.1385 144.329 66.9873C140.471 65.9504 137.286 70.1413 139.274 73.5974L146.983 86.9988C147.276 87.5153 147.668 87.9684 148.137 88.3323C148.605 88.6962 149.141 88.9635 149.712 89.119C150.284 89.2745 150.881 89.315 151.468 89.2383C152.056 89.1615 152.622 88.969 153.135 88.6719C153.648 88.3747 154.098 87.9786 154.458 87.5066C154.818 87.0345 155.081 86.4957 155.233 85.9211C155.384 85.3466 155.421 84.7476 155.341 84.1586C155.262 83.5697 155.066 83.0024 154.767 82.4894V82.4847Z" fill="#B0CDFE"/>
<path d="M139.701 83.5731C139.549 83.0007 139.285 82.4642 138.926 81.9941C138.566 81.524 138.118 81.1296 137.607 80.8335C137.095 80.5374 136.531 80.3454 135.945 80.2684C135.36 80.1915 134.765 80.2311 134.195 80.385C130.337 81.4218 129.666 86.6507 133.111 88.6456C136.555 90.6406 140.738 87.4701 139.699 83.5731H139.701Z" fill="#B0CDFE"/>
<path d="M79.709 14.5746C79.8764 14.7848 79.9881 15.034 80.0339 15.2991C80.0796 15.5642 80.0579 15.8366 79.9707 16.0911C79.8835 16.3455 79.7337 16.5737 79.5352 16.7546C79.3366 16.9354 79.0958 17.063 78.835 17.1255C78.8049 17.1322 78.7769 17.1464 78.7538 17.1669C78.7306 17.1873 78.7131 17.2134 78.7028 17.2426C78.6924 17.2717 78.6897 17.3031 78.6948 17.3336C78.6999 17.3641 78.7127 17.3929 78.7319 17.4171L80.4694 19.5954C80.514 19.6512 80.5471 19.7152 80.567 19.7839C80.5869 19.8526 80.5931 19.9245 80.5852 19.9956C80.5774 20.0666 80.5557 20.1355 80.5213 20.1981C80.487 20.2607 80.4407 20.316 80.385 20.3607L78.1847 22.124C78.1603 22.1436 78.1312 22.1565 78.1003 22.1615C78.0694 22.1665 78.0378 22.1635 78.0084 22.1526C77.9791 22.1417 77.953 22.1234 77.9328 22.0994C77.9126 22.0755 77.8989 22.0467 77.893 22.0159C77.8418 21.7454 77.7217 21.4927 77.5444 21.2826C77.3671 21.0724 77.1387 20.9118 76.8813 20.8164C76.6239 20.7209 76.3462 20.694 76.0754 20.738C75.8045 20.7821 75.5495 20.8957 75.3353 21.0678C75.1211 21.2399 74.955 21.4647 74.8529 21.7203C74.7509 21.9759 74.7165 22.2536 74.753 22.5265C74.7896 22.7994 74.8959 23.0582 75.0616 23.2777C75.2272 23.4972 75.4467 23.6699 75.6986 23.7792C75.7272 23.7917 75.7522 23.8115 75.771 23.8365C75.7898 23.8616 75.8019 23.8911 75.806 23.9222C75.8101 23.9533 75.8062 23.9849 75.7945 24.014C75.7829 24.0431 75.764 24.0687 75.7396 24.0884L73.619 25.7906C73.5633 25.8353 73.4995 25.8686 73.4311 25.8885C73.3626 25.9085 73.2909 25.9147 73.2201 25.9068C73.1493 25.899 73.0807 25.8772 73.0182 25.8427C72.9558 25.8082 72.9008 25.7618 72.8562 25.7059L71.0836 23.4912C71.064 23.4664 71.0512 23.437 71.0464 23.4058C71.0416 23.3745 71.045 23.3426 71.0562 23.3131C71.0674 23.2835 71.0861 23.2574 71.1104 23.2374C71.1347 23.2173 71.1638 23.2039 71.1949 23.1985C71.4687 23.153 71.726 23.0365 71.9411 22.8605C72.1562 22.6844 72.3216 22.455 72.421 22.1949C72.5204 21.9349 72.5502 21.6533 72.5075 21.3781C72.4649 21.1029 72.3512 20.8436 72.1778 20.6262C72.0044 20.4087 71.7773 20.2405 71.5191 20.1383C71.2609 20.0362 70.9805 20.0035 70.7058 20.0437C70.4311 20.0839 70.1717 20.1955 69.9533 20.3674C69.7349 20.5393 69.5652 20.7656 69.4609 21.0237C69.4488 21.0529 69.4294 21.0785 69.4045 21.0979C69.3796 21.1174 69.3501 21.1299 69.3189 21.1345C69.2877 21.139 69.2559 21.1352 69.2265 21.1237C69.1972 21.1121 69.1714 21.093 69.1516 21.0684L67.4434 18.9253C67.3988 18.8695 67.3656 18.8055 67.3457 18.7368C67.3259 18.6681 67.3197 18.5962 67.3275 18.5251C67.3353 18.4541 67.3571 18.3852 67.3914 18.3226C67.4258 18.2599 67.4721 18.2047 67.5277 18.16L69.6179 16.4731C69.6421 16.4537 69.661 16.4284 69.6727 16.3996C69.6844 16.3708 69.6886 16.3395 69.6849 16.3086C69.6811 16.2777 69.6695 16.2483 69.6512 16.2232C69.633 16.1981 69.6086 16.1781 69.5804 16.1651C69.3392 16.047 69.1317 15.8697 68.9772 15.6496C68.8227 15.4295 68.7262 15.1737 68.6966 14.9061C68.6671 14.6385 68.7055 14.3677 68.8082 14.119C68.911 13.8703 69.0748 13.6517 69.2843 13.4836C69.4939 13.3154 69.7425 13.2032 70.0069 13.1573C70.2713 13.1114 70.543 13.1333 70.7966 13.2211C71.0503 13.3089 71.2778 13.4596 71.4578 13.6592C71.6378 13.8589 71.7646 14.1009 71.8264 14.363C71.833 14.3932 71.8472 14.4212 71.8676 14.4445C71.888 14.4677 71.914 14.4853 71.943 14.4956C71.9721 14.506 72.0033 14.5087 72.0338 14.5036C72.0642 14.4985 72.0928 14.4857 72.1169 14.4664L74.2891 12.7231C74.3447 12.6783 74.4086 12.6451 74.477 12.6251C74.5454 12.6052 74.6171 12.599 74.688 12.6068C74.7588 12.6147 74.8274 12.6365 74.8898 12.6709C74.9523 12.7054 75.0073 12.7519 75.0518 12.8077L76.7308 14.9096C76.7501 14.9337 76.7751 14.9524 76.8036 14.9641C76.8321 14.9758 76.8631 14.98 76.8937 14.9764C76.9243 14.9727 76.9534 14.9613 76.9784 14.9433C77.0034 14.9252 77.0234 14.9011 77.0366 14.8732C77.1543 14.6313 77.331 14.4233 77.5503 14.2683C77.7696 14.1133 78.0244 14.0164 78.291 13.9867C78.5576 13.9569 78.8273 13.9951 79.0752 14.0979C79.3231 14.2007 79.5411 14.3647 79.709 14.5746Z" fill="#B0CDFE"/>
<path d="M69.408 114.641C69.2626 114.94 69.1978 115.273 69.2202 115.606C69.2425 115.939 69.3513 116.26 69.5356 116.537C69.7199 116.815 69.9734 117.039 70.2708 117.188C70.5682 117.337 70.8993 117.405 71.2311 117.385C71.2689 117.383 71.3066 117.391 71.3405 117.408C71.3744 117.425 71.4032 117.451 71.4242 117.482C71.4452 117.514 71.4575 117.55 71.46 117.588C71.4625 117.626 71.4551 117.664 71.4384 117.698L69.9517 120.755C69.9143 120.832 69.8621 120.901 69.7982 120.957C69.7343 121.014 69.6598 121.058 69.5791 121.086C69.4984 121.114 69.413 121.125 69.3277 121.12C69.2425 121.115 69.1591 121.093 69.0823 121.056L66.1603 119.627C66.1266 119.611 66.0976 119.586 66.0763 119.555C66.0549 119.525 66.0419 119.489 66.0385 119.451C66.0351 119.414 66.0413 119.376 66.0567 119.342C66.0721 119.308 66.0961 119.278 66.1263 119.256C66.3923 119.061 66.6036 118.801 66.7396 118.5C66.8757 118.199 66.9319 117.868 66.9028 117.539C66.8736 117.21 66.7602 116.894 66.5735 116.621C66.3867 116.349 66.133 116.13 65.837 115.985C65.541 115.841 65.2127 115.775 64.884 115.795C64.5553 115.816 64.2374 115.921 63.9612 116.1C63.6849 116.28 63.4597 116.529 63.3074 116.822C63.155 117.115 63.0808 117.442 63.0918 117.772C63.0932 117.81 63.0848 117.847 63.0676 117.88C63.0503 117.914 63.0248 117.942 62.9934 117.962C62.962 117.983 62.9259 117.995 62.8885 117.997C62.8512 118 62.8138 117.992 62.7802 117.976L59.8582 116.547C59.7813 116.51 59.7125 116.458 59.6558 116.394C59.5991 116.329 59.5556 116.255 59.5277 116.174C59.4998 116.093 59.4882 116.007 59.4934 115.921C59.4987 115.836 59.5207 115.752 59.5582 115.675L61.045 112.619C61.0615 112.585 61.0866 112.555 61.1179 112.534C61.1491 112.513 61.1853 112.5 61.2229 112.497C61.2606 112.494 61.2983 112.501 61.3325 112.517C61.3666 112.533 61.396 112.558 61.4176 112.589C61.6069 112.863 61.8644 113.083 62.1646 113.227C62.4648 113.37 62.7972 113.432 63.1287 113.407C63.4602 113.381 63.7793 113.269 64.0543 113.082C64.3293 112.895 64.5507 112.638 64.6963 112.338C64.8419 112.038 64.9068 111.705 64.8845 111.373C64.8621 111.04 64.7534 110.718 64.569 110.441C64.3846 110.163 64.131 109.939 63.8334 109.79C63.5359 109.641 63.2047 109.573 62.8727 109.593C62.835 109.595 62.7975 109.587 62.7637 109.57C62.73 109.553 62.7013 109.527 62.6805 109.496C62.6597 109.464 62.6474 109.427 62.645 109.39C62.6425 109.352 62.65 109.314 62.6665 109.28L64.0994 106.327C64.1368 106.25 64.189 106.181 64.2529 106.124C64.3168 106.067 64.3912 106.024 64.472 105.996C64.5527 105.968 64.6381 105.956 64.7234 105.961C64.8086 105.967 64.892 105.989 64.9688 106.026L67.8533 107.437C67.8866 107.453 67.9234 107.46 67.9603 107.458C67.9972 107.456 68.033 107.445 68.0643 107.425C68.0955 107.405 68.1213 107.378 68.1391 107.345C68.1569 107.313 68.1662 107.276 68.1661 107.239C68.1697 106.916 68.2548 106.599 68.4133 106.317C68.5719 106.036 68.7988 105.799 69.0729 105.629C69.3471 105.46 69.6596 105.362 69.9814 105.346C70.3032 105.33 70.6239 105.395 70.9136 105.537C71.2032 105.679 71.4526 105.891 71.6383 106.156C71.8241 106.42 71.9402 106.727 71.976 107.048C72.0118 107.369 71.966 107.694 71.8429 107.993C71.7199 108.292 71.5235 108.555 71.2721 108.757C71.2428 108.78 71.2198 108.809 71.2053 108.844C71.1907 108.878 71.185 108.915 71.1888 108.952C71.1925 108.989 71.2056 109.024 71.2267 109.055C71.2478 109.085 71.2764 109.11 71.3096 109.126L74.1941 110.537C74.2709 110.574 74.3395 110.627 74.3962 110.691C74.4528 110.755 74.4963 110.829 74.5241 110.91C74.552 110.991 74.5637 111.077 74.5585 111.163C74.5533 111.248 74.5314 111.332 74.494 111.409L73.0588 114.362C73.0423 114.396 73.0172 114.425 72.986 114.447C72.9548 114.468 72.9185 114.481 72.8809 114.484C72.8432 114.487 72.8055 114.48 72.7713 114.463C72.7372 114.447 72.7079 114.422 72.6862 114.391C72.497 114.117 72.2397 113.897 71.9396 113.754C71.6396 113.61 71.3074 113.548 70.9759 113.573C70.6445 113.599 70.3254 113.71 70.0504 113.898C69.7753 114.085 69.5539 114.341 69.408 114.641Z" fill="#FEA151"/>
<path d="M45.4783 103.694L42.7461 110.645L45.299 112.206L49.4267 105.209L45.4783 103.694Z" fill="white"/>
<path d="M45.292 112.442C45.2506 112.441 45.2102 112.43 45.1748 112.408L42.6219 110.847C42.574 110.818 42.5379 110.773 42.5201 110.72C42.5023 110.667 42.5039 110.61 42.5246 110.558L45.2568 103.607C45.268 103.578 45.2847 103.551 45.3061 103.529C45.3274 103.507 45.353 103.489 45.3813 103.476C45.4096 103.464 45.4401 103.457 45.4711 103.456C45.502 103.456 45.5327 103.461 45.5615 103.473L49.5098 104.987C49.542 104.999 49.5711 105.018 49.595 105.043C49.619 105.068 49.6372 105.098 49.6484 105.13C49.6596 105.163 49.6635 105.198 49.6598 105.232C49.6561 105.266 49.6449 105.299 49.627 105.329L45.4982 112.326C45.4772 112.362 45.447 112.392 45.4108 112.412C45.3746 112.433 45.3335 112.443 45.292 112.442ZM43.0319 110.546L45.2111 111.878L49.0775 105.329L45.6083 103.998L43.0319 110.546Z" fill="#262424"/>
<path d="M36.8867 109.791L45.0025 129.508C45.6129 129.27 46.205 128.987 46.774 128.661C48.1038 127.849 48.194 127.01 48.1577 124.793C48.1085 121.843 48.8466 110.436 48.8466 110.436L42.5831 107.48L38.7027 109.055L36.8867 109.791Z" fill="#B0CDFE"/>
<path d="M36.8867 109.792L45.0025 129.508C45.6129 129.27 46.205 128.987 46.774 128.662L38.7027 109.056L36.8867 109.792Z" fill="white"/>
<path d="M45.0018 129.744C44.955 129.745 44.9093 129.731 44.8704 129.705C44.8316 129.678 44.8014 129.641 44.7839 129.598L36.6669 109.882C36.6548 109.853 36.6485 109.822 36.6484 109.791C36.6484 109.76 36.6546 109.728 36.6668 109.7C36.6789 109.671 36.6966 109.644 36.719 109.622C36.7414 109.601 36.7679 109.583 36.797 109.572L38.613 108.835C38.6416 108.823 38.6723 108.817 38.7032 108.817C38.7342 108.817 38.7648 108.823 38.7933 108.835C38.8219 108.847 38.8478 108.865 38.8695 108.887C38.8912 108.909 38.9084 108.935 38.92 108.964L46.9912 128.57C47.013 128.622 47.0153 128.681 46.9976 128.734C46.98 128.788 46.9436 128.834 46.8951 128.863C46.3166 129.195 45.7138 129.484 45.092 129.726C45.0635 129.738 45.0328 129.744 45.0018 129.744ZM37.1953 109.922L45.1307 129.201C45.5909 129.014 46.0403 128.802 46.4769 128.564L38.5743 109.366L37.1953 109.922Z" fill="#262424"/>
<path d="M29.147 56.387C28.7662 62.4059 28.9935 68.7304 30.1335 70.6113C31.2735 72.4922 49.8717 87.7403 49.8717 87.7403L45.3142 103.172L51.3984 106.446C51.3984 106.446 56.4586 96.6111 58.9412 91.6244C60.1422 89.2098 61.0584 87.2878 61.1322 86.8963C61.2271 86.392 60.3413 84.678 58.9248 82.3457C54.2571 74.6493 43.8262 60.2099 43.8262 60.2099C43.3833 44.488 29.5289 50.3681 29.147 56.387Z" fill="#B0CDFE"/>
<path d="M33.0144 63.7248C32.959 63.7273 32.9044 63.71 32.8605 63.6759C32.8166 63.6419 32.7862 63.5933 32.7746 63.5388C32.7631 63.4843 32.7712 63.4275 32.7975 63.3785C32.8239 63.3294 32.8667 63.2914 32.9183 63.271L34.0431 62.7691C34.4475 62.5886 34.7959 62.3021 35.0515 61.9396C35.3072 61.5771 35.4607 61.1522 35.4959 60.7095L35.8193 56.6279C35.8242 56.5656 35.8537 56.5078 35.9011 56.4672C35.9486 56.4266 36.0102 56.4067 36.0723 56.4116C36.1345 56.4166 36.1921 56.4462 36.2325 56.4938C36.273 56.5414 36.2929 56.6032 36.2879 56.6656L35.9645 60.7471C35.9232 61.2745 35.7407 61.781 35.4363 62.213C35.1319 62.645 34.717 62.9866 34.2352 63.2017L33.1105 63.7036C33.0803 63.7174 33.0476 63.7246 33.0144 63.7248Z" fill="#262424"/>
<path d="M47.6826 102.841C47.6446 102.842 47.6071 102.833 47.5733 102.816C47.5395 102.798 47.5104 102.773 47.4885 102.742C47.4666 102.711 47.4526 102.675 47.4476 102.637C47.4426 102.599 47.4469 102.561 47.46 102.525L53.058 86.7726L34.0543 66.4671C33.6199 66.0075 33.2845 65.4629 33.069 64.8675C32.8536 64.2721 32.7626 63.6385 32.8019 63.0063L33.2108 56.5548C33.2148 56.4924 33.2434 56.4342 33.2902 56.393C33.3133 56.3726 33.3403 56.357 33.3695 56.347C33.3987 56.3371 33.4295 56.333 33.4603 56.335C33.4911 56.337 33.5212 56.345 33.5488 56.3587C33.5765 56.3724 33.6012 56.3914 33.6215 56.4146C33.6419 56.4379 33.6575 56.4649 33.6674 56.4942C33.6773 56.5235 33.6814 56.5545 33.6794 56.5854L33.2705 63.0368C33.2354 63.6041 33.3172 64.1725 33.5107 64.7067C33.7042 65.2408 34.0053 65.7292 34.3953 66.1415L53.502 86.548C53.532 86.5797 53.5526 86.6192 53.5615 86.6619C53.5704 86.7047 53.5673 86.7491 53.5524 86.7902L47.9052 102.683C47.8893 102.729 47.8592 102.769 47.8193 102.798C47.7794 102.826 47.7316 102.841 47.6826 102.841Z" fill="#262424"/>
<path d="M50.295 87.8849C50.2366 87.8883 50.179 87.8697 50.1336 87.8327C50.0881 87.7957 50.0581 87.743 50.0495 87.685C50.0408 87.6269 50.0541 87.5677 50.0867 87.519C50.1194 87.4702 50.169 87.4355 50.2259 87.4217L55.0483 85.9334C55.1081 85.9149 55.1728 85.9209 55.2282 85.9502C55.2835 85.9796 55.325 86.0297 55.3435 86.0898C55.362 86.1498 55.356 86.2147 55.3267 86.2703C55.2975 86.3258 55.2475 86.3675 55.1877 86.386L50.3653 87.8743C50.3426 87.8814 50.3188 87.8849 50.295 87.8849Z" fill="#262424"/>
<path d="M55.9881 86.688C55.8416 88.9968 57.1093 91.0165 58.9382 91.6254C60.1391 89.2108 61.0553 87.2887 61.1291 86.8973C61.224 86.393 60.3383 84.679 58.9218 82.3467C57.3272 82.9509 56.1181 84.6367 55.9881 86.688Z" fill="#80AFFD"/>
<path d="M54.401 102.853L46.2595 98.893C46.2001 98.8636 46.1352 98.8472 46.0691 98.8448C46.003 98.8424 45.9371 98.8541 45.8757 98.879C45.8144 98.904 45.7591 98.9418 45.7133 98.9898C45.6676 99.0378 45.6325 99.0949 45.6104 99.1575L43.8131 104.117C43.7731 104.228 43.7761 104.35 43.8217 104.459C43.8673 104.568 43.9521 104.656 44.0592 104.705L51.4404 108.114C51.5467 108.164 51.6679 108.172 51.7798 108.136C51.8918 108.101 51.9864 108.025 52.0449 107.923L54.6014 103.517C54.6344 103.46 54.6555 103.398 54.6632 103.333C54.671 103.269 54.6652 103.203 54.6464 103.141C54.6276 103.079 54.596 103.021 54.5538 102.971C54.5116 102.922 54.4595 102.882 54.401 102.853Z" fill="#FEA151"/>
<path d="M13.087 104.092L7.4375 108.96L8.96881 111.536L15.8743 107.282L13.087 104.092Z" fill="white"/>
<path d="M8.97083 111.776C8.92974 111.776 8.88938 111.765 8.85381 111.744C8.81823 111.724 8.78869 111.694 8.76814 111.658L7.23684 109.083C7.20806 109.035 7.1972 108.978 7.20622 108.923C7.21523 108.868 7.24354 108.818 7.28605 108.782L12.9356 103.915C12.9589 103.895 12.9859 103.879 13.0152 103.869C13.0445 103.859 13.0754 103.855 13.1062 103.858C13.1371 103.86 13.1671 103.868 13.1948 103.882C13.2224 103.896 13.247 103.915 13.2672 103.938L16.0544 107.128C16.0764 107.153 16.0926 107.184 16.1019 107.216C16.1112 107.249 16.1133 107.283 16.1082 107.317C16.1031 107.35 16.0908 107.382 16.0722 107.41C16.0537 107.439 16.0292 107.463 16.0005 107.48L9.09385 111.735C9.05752 111.76 9.01488 111.774 8.97083 111.776ZM7.74415 109.013L9.05167 111.212L15.5155 107.23L13.0668 104.429L7.74415 109.013Z" fill="#262424"/>
<path d="M2.65581 105.463L0.664062 126.701C1.3146 126.776 1.96974 126.802 2.62418 126.781C4.17774 126.686 4.64873 125.985 5.64695 124.008C6.97557 121.376 12.9356 111.632 12.9356 111.632L8.77166 106.086L4.60538 105.663L2.65581 105.463Z" fill="#B0CDFE"/>
<path d="M2.65581 105.463L0.664062 126.701C1.3146 126.776 1.96974 126.802 2.62418 126.781L4.60538 105.663L2.65581 105.463Z" fill="white"/>
<path d="M2.21727 127.03C1.80604 127.03 1.3081 127 0.640276 126.937C0.609241 126.934 0.579042 126.926 0.551446 126.911C0.52385 126.897 0.499409 126.877 0.479555 126.853C0.459701 126.829 0.444831 126.801 0.435814 126.771C0.426798 126.741 0.423815 126.709 0.427042 126.678L2.41879 105.441C2.42142 105.409 2.43025 105.379 2.44477 105.351C2.45929 105.323 2.4792 105.299 2.50332 105.279C2.52745 105.259 2.55531 105.244 2.58526 105.235C2.61521 105.226 2.64665 105.223 2.67772 105.227L4.62729 105.425C4.65812 105.428 4.68807 105.437 4.71539 105.452C4.74272 105.467 4.76689 105.487 4.7865 105.511C4.80611 105.535 4.82078 105.562 4.82965 105.592C4.83852 105.622 4.84142 105.653 4.83818 105.684L2.85463 126.803C2.84962 126.859 2.82446 126.912 2.78377 126.951C2.74308 126.991 2.68961 127.014 2.6332 127.017C2.50666 127.025 2.36373 127.03 2.21727 127.03ZM0.920293 126.487C1.41427 126.537 1.91063 126.559 2.40708 126.554L4.34845 105.874L2.86987 105.724L0.920293 126.487Z" fill="#262424"/>
<path d="M20.6562 54.6072C17.5198 59.7514 14.777 65.454 14.9152 67.6476C15.0535 69.8412 24.4053 92.0429 24.4053 92.0429L13.1953 103.556L17.0534 109.301C17.0534 109.301 26.1019 102.976 30.6196 99.724C32.8047 98.1511 34.5094 96.8803 34.7566 96.5676C35.0753 96.1656 35.0893 94.2353 34.9218 91.5127C34.3735 82.5197 31.8662 64.8651 31.8662 64.8651C38.7811 50.7513 23.7926 49.4629 20.6562 54.6072Z" fill="#B0CDFE"/>
<path d="M32.8696 72.6449C32.812 72.6454 32.7563 72.6245 32.7131 72.5863C32.6699 72.5482 32.6422 72.4954 32.6353 72.438C32.0788 68.132 31.6242 64.9274 31.6195 64.8957C31.6129 64.8486 31.6206 64.8007 31.6417 64.7581C32.2037 63.6358 32.658 62.4624 32.9985 61.2538C33.0066 61.2237 33.0206 61.1956 33.0396 61.171C33.0586 61.1464 33.0822 61.1258 33.1091 61.1103C33.136 61.0949 33.1657 61.0849 33.1965 61.081C33.2273 61.0771 33.2585 61.0793 33.2884 61.0874C33.3184 61.0956 33.3464 61.1096 33.3709 61.1287C33.3954 61.1477 33.416 61.1714 33.4314 61.1985C33.4468 61.2255 33.4567 61.2553 33.4606 61.2861C33.4646 61.317 33.4624 61.3484 33.4542 61.3784C33.113 62.5939 32.6587 63.7747 32.0975 64.9051C32.1678 65.4047 32.5931 68.4317 33.1039 72.3816C33.1082 72.4125 33.1063 72.444 33.0983 72.4742C33.0903 72.5043 33.0765 72.5326 33.0575 72.5573C33.0385 72.5821 33.0148 72.6027 32.9878 72.6182C32.9608 72.6336 32.9309 72.6435 32.9001 72.6473L32.8696 72.6449Z" fill="#262424"/>
<path d="M22.1832 63.023C22.1176 63.023 22.0516 63.0207 21.9852 63.016L20.762 62.9337C20.6999 62.9295 20.6419 62.9007 20.6009 62.8536C20.56 62.8065 20.5393 62.7451 20.5435 62.6827C20.5477 62.6204 20.5764 62.5622 20.6233 62.5211C20.6702 62.48 20.7315 62.4593 20.7936 62.4635L22.0227 62.5469C22.4642 62.5766 22.9056 62.4862 23.3002 62.2854C23.6949 62.0845 24.0282 61.7805 24.2651 61.4055L26.4502 57.947C26.4838 57.8938 26.537 57.8562 26.5982 57.8424C26.6594 57.8287 26.7235 57.8398 26.7765 57.8735C26.8295 57.9072 26.867 57.9606 26.8807 58.022C26.8944 58.0834 26.8833 58.1477 26.8497 58.2009L24.6647 61.6594C24.3995 62.0785 24.0328 62.4233 23.5989 62.6618C23.165 62.9002 22.6779 63.0245 22.1832 63.023Z" fill="#262424"/>
<path d="M15.5512 104.4C15.5033 104.401 15.4562 104.387 15.4163 104.361C15.3765 104.334 15.3458 104.295 15.3284 104.251C15.311 104.206 15.3078 104.157 15.3192 104.11C15.3305 104.063 15.3559 104.021 15.3919 103.989L27.6704 92.6754L20.3068 65.8233C20.1369 65.2137 20.0939 64.5756 20.1804 63.9487C20.2668 63.3218 20.481 62.7194 20.8094 62.179L24.172 56.6645C24.1881 56.6379 24.2094 56.6148 24.2344 56.5965C24.2595 56.5782 24.2879 56.565 24.318 56.5577C24.3481 56.5504 24.3794 56.5491 24.41 56.5539C24.4407 56.5587 24.4701 56.5695 24.4965 56.5857C24.523 56.6019 24.546 56.6232 24.5643 56.6484C24.5825 56.6735 24.5957 56.702 24.603 56.7322C24.6103 56.7625 24.6116 56.7939 24.6068 56.8246C24.602 56.8553 24.5912 56.8848 24.575 56.9114L21.2125 62.4259C20.9173 62.9102 20.7247 63.4503 20.6465 64.0125C20.5683 64.5747 20.6062 65.1471 20.7579 65.694L28.1602 92.6883C28.1715 92.73 28.1711 92.774 28.1591 92.8155C28.1471 92.8569 28.124 92.8943 28.0922 92.9234L15.7059 104.333C15.6644 104.374 15.6093 104.398 15.5512 104.4Z" fill="#262424"/>
<path d="M29.7781 93.3384C29.7633 93.3398 29.7484 93.3398 29.7336 93.3384L24.7765 92.3979C24.7457 92.3921 24.7164 92.3803 24.6902 92.3631C24.664 92.346 24.6414 92.3238 24.6237 92.2979C24.606 92.2719 24.5936 92.2428 24.5871 92.212C24.5807 92.1813 24.5803 92.1496 24.5861 92.1187C24.5919 92.0878 24.6037 92.0584 24.6208 92.0321C24.6379 92.0058 24.66 91.9831 24.6858 91.9654C24.7117 91.9476 24.7407 91.9352 24.7714 91.9287C24.802 91.9222 24.8336 91.9219 24.8644 91.9277L29.8215 92.8681C29.8836 92.8739 29.9409 92.9042 29.9808 92.9524C30.0207 93.0006 30.0399 93.0626 30.0341 93.125C30.0284 93.1874 29.9982 93.2449 29.9502 93.2849C29.9022 93.3249 29.8403 93.3441 29.7781 93.3384Z" fill="#262424"/>
<path d="M30.2968 93.9779C29.0936 95.9505 29.274 98.3275 30.6096 99.7241C32.7947 98.1512 34.4994 96.8804 34.7466 96.5677C35.0653 96.1657 35.0794 94.2354 34.9118 91.5128C33.2188 91.3 31.3665 92.224 30.2968 93.9779Z" fill="#80AFFD"/>
<path d="M21.3759 107.531L16.018 100.216C15.9793 100.162 15.9296 100.117 15.8724 100.084C15.8151 100.051 15.7515 100.031 15.6858 100.024C15.6201 100.017 15.5537 100.025 15.4911 100.045C15.4284 100.066 15.3708 100.1 15.3221 100.145L11.4253 103.691C11.3371 103.77 11.2821 103.88 11.2714 103.998C11.2608 104.117 11.2952 104.235 11.3679 104.329L16.3121 110.794C16.3824 110.889 16.4855 110.953 16.6009 110.975C16.7164 110.997 16.8358 110.974 16.9354 110.912L21.2458 108.208C21.3006 108.174 21.3477 108.129 21.3842 108.075C21.4207 108.022 21.4459 107.962 21.4581 107.898C21.4703 107.835 21.4693 107.769 21.4552 107.706C21.441 107.643 21.414 107.583 21.3759 107.531Z" fill="#FEA151"/>
<path d="M56.728 28.3111C58.3787 29.552 59.6832 31.1986 60.5158 33.0921C61.8432 36.1873 65.2023 48.9622 65.2023 48.9622L54.9096 50.9994C54.9096 50.9994 52.393 40.1502 51.3385 34.5416C50.2841 28.933 53.6408 26.5477 56.728 28.3111Z" fill="#FEA151"/>
<path d="M55.6335 48.8258C55.5626 48.8249 55.4944 48.798 55.442 48.75C55.3896 48.702 55.3566 48.6364 55.3492 48.5656C55.3419 48.4949 55.3607 48.4238 55.402 48.366C55.4434 48.3082 55.5045 48.2677 55.5738 48.2521L63.7751 46.4888C63.8482 46.4778 63.9228 46.4953 63.9835 46.5378C64.0442 46.5802 64.0864 46.6444 64.1014 46.7171C64.1164 46.7898 64.103 46.8655 64.0641 46.9286C64.0253 46.9917 63.9637 47.0376 63.8922 47.0566L55.6909 48.8199C55.672 48.8238 55.6528 48.8258 55.6335 48.8258Z" fill="#262424"/>
<path d="M48.1158 24.1425C41.0568 23.4066 34.4078 26.0822 34.4078 26.0822C34.4078 26.0822 27.5562 43.4217 25.6816 46.5957C23.807 49.7697 16.6602 58.2337 16.6602 58.2337C16.6602 58.2337 22.9869 67.8733 35.9333 68.8138C48.8796 69.7542 51.7501 66.11 51.7501 66.11L54.0348 48.178C54.0348 48.178 56.6709 45.2391 57.3739 43.6521C58.0768 42.0651 58.6041 32.543 56.7295 28.311C56.7295 28.311 51.6915 24.5151 48.1158 24.1425Z" fill="#FEA151"/>
<path d="M54.7972 47.5902C54.7421 47.5902 54.6881 47.5744 54.6416 47.5446C54.5952 47.5149 54.5581 47.4725 54.5349 47.4224C54.5116 47.3722 54.5031 47.3165 54.5103 47.2616C54.5176 47.2068 54.5403 47.1552 54.5757 47.1129C55.3256 46.2195 56.653 44.5678 57.1064 43.5439C57.6712 42.2696 58.2019 34.9423 57.0408 30.1989C57.0269 30.1259 57.0414 30.0503 57.0814 29.9877C57.1214 29.925 57.1839 29.8802 57.2558 29.8624C57.3278 29.8446 57.4038 29.8552 57.4683 29.892C57.5327 29.9288 57.5806 29.989 57.602 30.0602C58.7256 34.6449 58.305 42.2684 57.6348 43.779C57.1767 44.8135 55.9594 46.3652 55.0186 47.4867C54.9915 47.5192 54.9576 47.5453 54.9194 47.5632C54.8811 47.581 54.8394 47.5903 54.7972 47.5902Z" fill="#262424"/>
<path d="M47.9267 23.204C43.5638 23.7189 41.6823 29.7912 47.0177 32.5476C47.0177 32.5476 48.3175 29.8763 49.1265 29.9867C49.9354 30.0972 50.0081 32.7894 50.0081 32.7894C50.0081 32.7894 53.2531 31.7328 53.7454 28.2004C54.2377 24.668 51.1231 22.8265 47.9267 23.204Z" fill="#B0CDFE"/>
<path d="M51.948 27.7922C51.948 27.7922 51.3479 28.8354 49.7157 28.7728C48.9947 28.4652 48.3446 28.0191 47.8042 27.4609C47.2638 26.9027 46.8441 26.244 46.5703 25.524L50.0379 18.7402L51.2487 19.5763L54.1971 21.6075L52.3328 26.749L51.948 27.7922Z" fill="white"/>
<path d="M49.6855 29.177H49.5215C49.4835 29.175 49.4459 29.1669 49.4103 29.153C48.6703 28.8253 48.0032 28.3467 47.4495 27.7465C46.8958 27.1462 46.4671 26.4367 46.1896 25.6613C46.1729 25.6142 46.1658 25.5641 46.1685 25.5141C46.1713 25.4641 46.184 25.4152 46.2057 25.3703L49.5303 18.543C49.5537 18.4954 49.5868 18.4535 49.6274 18.4202C49.6679 18.3869 49.7151 18.3629 49.7655 18.35C49.8159 18.337 49.8685 18.3354 49.9196 18.3451C49.9708 18.3549 50.0192 18.3758 50.0617 18.4065L54.0437 21.2892C54.1079 21.3359 54.1555 21.4027 54.1793 21.4796C54.2031 21.5564 54.2017 21.6392 54.1754 21.7152L52.0176 27.9411C52.0108 27.9608 52.0025 27.9798 51.9927 27.9981C51.9649 28.0461 51.331 29.177 49.6855 29.177ZM49.6138 28.436C50.7718 28.469 51.2622 27.7911 51.35 27.6561L53.3995 21.7317L49.9812 19.2644L46.9157 25.5638C47.4261 26.8377 48.3908 27.8647 49.6138 28.436Z" fill="#262424"/>
<path d="M51.2771 26.1953C48.4242 24.6083 49.816 20.6866 49.816 20.6866C50.0239 20.6229 50.2356 20.5726 50.4499 20.5361L52.7123 22.1384L51.2771 26.1953Z" fill="#262424"/>
<path d="M39.9062 66.746C39.0861 66.746 38.2273 66.7177 37.3122 66.6543C31.3733 66.2452 26.7981 63.7459 24.0062 61.7169C20.9799 59.5233 19.3806 57.4555 19.3138 57.3674C19.2733 57.3061 19.2575 57.2316 19.2696 57.1591C19.2816 57.0865 19.3207 57.0213 19.3789 56.9765C19.437 56.9317 19.5099 56.9108 19.5829 56.9179C19.6559 56.9249 19.7234 56.9595 19.7719 57.0147C19.7883 57.0358 21.3982 59.1142 24.3612 61.2585C27.0899 63.2334 31.5573 65.6703 37.3521 66.07C46.7367 66.7166 50.6429 63.619 50.6816 63.5872C50.7411 63.5389 50.8173 63.5162 50.8935 63.5242C50.9696 63.5321 51.0396 63.57 51.0879 63.6296C51.1363 63.6892 51.1592 63.7655 51.1515 63.842C51.1439 63.9184 51.1063 63.9887 51.0471 64.0375C50.8983 64.1656 47.6424 66.746 39.9062 66.746Z" fill="#262424"/>
<path d="M76.5483 57.9352C76.5486 58.7674 76.3392 59.5861 75.9397 60.3154C75.5401 61.0447 74.9633 61.6608 74.2629 62.1065C73.5625 62.5522 72.7611 62.813 71.9333 62.8647C71.1055 62.9164 70.2781 62.7574 69.528 62.4023C69.4423 62.3603 69.3475 62.3409 69.2523 62.3457C69.1572 62.3505 69.0648 62.3795 68.9838 62.4298C68.9028 62.4802 68.8359 62.5504 68.7893 62.6337C68.7426 62.7171 68.7178 62.811 68.7172 62.9066V71.5329C68.7172 71.9792 68.5406 72.4073 68.2263 72.7232C67.9119 73.0391 67.4855 73.2168 67.0406 73.2174H58.3273C58.231 73.2174 58.1363 73.1924 58.0524 73.1448C57.9685 73.0973 57.8982 73.0289 57.8484 72.9461C57.7985 72.8634 57.7708 72.7692 57.7679 72.6725C57.765 72.5759 57.787 72.4802 57.8317 72.3945C58.2301 71.6422 58.4277 70.7992 58.4053 69.9476C58.3828 69.0959 58.1411 68.2646 57.7037 67.5344C57.2663 66.8042 56.648 66.2 55.909 65.7805C55.1699 65.3611 54.3353 65.1406 53.4862 65.1406C52.6371 65.1406 51.8024 65.3611 51.0634 65.7805C50.3244 66.2 49.7061 66.8042 49.2686 67.5344C48.8312 68.2646 48.5895 69.0959 48.5671 69.9476C48.5447 70.7992 48.7423 71.6422 49.1406 72.3945C49.1854 72.4802 49.2074 72.5759 49.2045 72.6725C49.2015 72.7692 49.1738 72.8634 49.124 72.9461C49.0742 73.0289 49.0039 73.0973 48.92 73.1448C48.8361 73.1924 48.7414 73.2174 48.6451 73.2174H40.2469C39.8028 73.2168 39.3771 73.0397 39.0629 72.7249C38.7487 72.41 38.5716 71.9831 38.5703 71.5376V62.7385C38.57 62.6404 38.5953 62.5439 38.6436 62.4586C38.692 62.3734 38.7618 62.3023 38.846 62.2525C38.9303 62.2026 39.026 62.1758 39.1238 62.1747C39.2216 62.1735 39.318 62.1981 39.4033 62.2459C40.1522 62.6672 40.9979 62.8846 41.8563 62.8764C42.7148 62.8683 43.5562 62.6349 44.297 62.1995C45.0378 61.7641 45.6522 61.1418 46.0791 60.3945C46.506 59.6471 46.7306 58.8007 46.7306 57.9393C46.7306 57.0779 46.506 56.2314 46.0791 55.4841C45.6522 54.7367 45.0378 54.1144 44.297 53.679C43.5562 53.2436 42.7148 53.0103 41.8563 53.0021C40.9979 52.994 40.1522 53.2113 39.4033 53.6326C39.318 53.6804 39.2216 53.705 39.1238 53.7038C39.026 53.7027 38.9303 53.6759 38.846 53.6261C38.7618 53.5763 38.692 53.5052 38.6436 53.4199C38.5953 53.3347 38.57 53.2382 38.5703 53.14V44.6513C38.5703 44.2046 38.7472 43.7761 39.0621 43.4602C39.3769 43.1442 39.804 42.9668 40.2492 42.9668H48.5384C48.6338 42.9664 48.7276 42.9417 48.8109 42.895C48.8941 42.8483 48.9642 42.7812 49.0145 42.6998C49.0648 42.6184 49.0936 42.5256 49.0982 42.43C49.1029 42.3344 49.0832 42.2391 49.0411 42.1533C48.6857 41.4007 48.5258 40.5702 48.5762 39.739C48.6267 38.9078 48.8859 38.1029 49.3297 37.3991C49.7735 36.6954 50.3874 36.1158 51.1145 35.7141C51.8415 35.3124 52.658 35.1018 53.4879 35.1018C54.3179 35.1018 55.1344 35.3124 55.8614 35.7141C56.5884 36.1158 57.2024 36.6954 57.6462 37.3991C58.09 38.1029 58.3492 38.9078 58.3996 39.739C58.4501 40.5702 58.2902 41.4007 57.9348 42.1533C57.8932 42.2391 57.8739 42.3342 57.8789 42.4296C57.8839 42.525 57.9129 42.6175 57.9632 42.6986C58.0136 42.7796 58.0836 42.8465 58.1667 42.893C58.2499 42.9395 58.3434 42.9641 58.4386 42.9644H67.0406C67.2611 42.9647 67.4794 43.0086 67.6829 43.0935C67.8865 43.1785 68.0714 43.3028 68.2271 43.4595C68.3828 43.6161 68.5062 43.802 68.5903 44.0065C68.6744 44.211 68.7175 44.4301 68.7172 44.6513V52.9637C68.7178 53.0593 68.7426 53.1532 68.7893 53.2366C68.8359 53.32 68.9028 53.3901 68.9838 53.4405C69.0648 53.4909 69.1572 53.5198 69.2523 53.5246C69.3475 53.5294 69.4423 53.51 69.528 53.468C70.2781 53.113 71.1055 52.9539 71.9333 53.0056C72.7611 53.0573 73.5625 53.3181 74.2629 53.7638C74.9633 54.2095 75.5401 54.8256 75.9397 55.5549C76.3392 56.2842 76.5486 57.103 76.5483 57.9352Z" fill="white"/>
<path d="M67.0355 73.5125H58.3222C58.1755 73.5126 58.0313 73.4745 57.9036 73.402C57.7759 73.3295 57.6692 73.2251 57.5937 73.099C57.5182 72.9728 57.4765 72.8291 57.4728 72.682C57.469 72.5349 57.5033 72.3893 57.5723 72.2594C57.9472 71.5513 58.1331 70.7579 58.112 69.9564C58.0908 69.1548 57.8633 68.3724 57.4516 67.6852C57.0399 66.998 56.458 66.4293 55.7624 66.0346C55.0669 65.6398 54.2813 65.4323 53.4822 65.4323C52.6831 65.4323 51.8975 65.6398 51.202 66.0346C50.5064 66.4293 49.9245 66.998 49.5128 67.6852C49.1011 68.3724 48.8736 69.1548 48.8524 69.9564C48.8313 70.7579 49.0172 71.5513 49.3921 72.2594C49.4611 72.3894 49.4954 72.5351 49.4916 72.6823C49.4878 72.8295 49.4461 72.9732 49.3704 73.0995C49.2948 73.2257 49.1878 73.3301 49.06 73.4025C48.9322 73.4748 48.7879 73.5128 48.6411 73.5125H40.2418C39.7199 73.5119 39.2196 73.3036 38.8506 72.9334C38.4816 72.5632 38.2741 72.0612 38.2734 71.5376V62.7385C38.2733 62.5899 38.3119 62.4439 38.3853 62.3149C38.4588 62.1858 38.5646 62.0783 38.6922 62.003C38.8199 61.9277 38.965 61.8872 39.113 61.8854C39.2611 61.8837 39.4071 61.9209 39.5364 61.9932C40.2413 62.3888 41.037 62.5926 41.8446 62.5843C42.6522 62.576 43.4436 62.356 44.1403 61.946C44.8369 61.5361 45.4146 60.9505 45.8161 60.2473C46.2175 59.5442 46.4287 58.7479 46.4287 57.9375C46.4287 57.1272 46.2175 56.3309 45.8161 55.6278C45.4146 54.9246 44.8369 54.339 44.1403 53.929C43.4436 53.5191 42.6522 53.2991 41.8446 53.2908C41.037 53.2825 40.2413 53.4863 39.5364 53.8819C39.4071 53.9542 39.2611 53.9914 39.113 53.9897C38.965 53.9879 38.8199 53.9474 38.6922 53.8721C38.5646 53.7967 38.4588 53.6892 38.3853 53.5602C38.3119 53.4312 38.2733 53.2851 38.2734 53.1366V44.6514C38.2741 44.1278 38.4816 43.6258 38.8506 43.2556C39.2196 42.8853 39.7199 42.677 40.2418 42.6764H48.5309C48.5763 42.677 48.6211 42.6659 48.6609 42.6441C48.7007 42.6222 48.7342 42.5905 48.7582 42.5518C48.7842 42.5112 48.7993 42.4645 48.8019 42.4163C48.8046 42.3681 48.7948 42.32 48.7735 42.2767C48.3971 41.4799 48.2277 40.6005 48.281 39.7204C48.3344 38.8402 48.6088 37.9879 49.0786 37.2427C49.5485 36.4976 50.1986 35.8838 50.9684 35.4584C51.7382 35.0331 52.6028 34.8101 53.4816 34.8101C54.3604 34.8101 55.225 35.0331 55.9948 35.4584C56.7646 35.8838 57.4147 36.4976 57.8846 37.2427C58.3545 37.9879 58.6288 38.8402 58.6822 39.7204C58.7355 40.6005 58.5661 41.4799 58.1898 42.2767C58.1687 42.3195 58.1591 42.3669 58.1618 42.4145C58.1644 42.4621 58.1793 42.5082 58.205 42.5483C58.229 42.5869 58.2625 42.6187 58.3023 42.6405C58.3421 42.6624 58.3869 42.6735 58.4323 42.6729H67.0355C67.5573 42.6735 68.0576 42.8818 68.4266 43.252C68.7956 43.6223 69.0032 44.1242 69.0038 44.6478V52.9602C69.0034 53.0055 69.0146 53.0502 69.0363 53.0899C69.0581 53.1297 69.0896 53.1631 69.128 53.1871C69.1685 53.2132 69.215 53.2283 69.2631 53.2309C69.3111 53.2336 69.359 53.2238 69.4021 53.2024C70.0979 52.8718 70.8584 52.7015 71.6282 52.7039C72.9963 52.7245 74.3015 53.2843 75.2618 54.2623C76.222 55.2404 76.7603 56.5582 76.7603 57.9311C76.7603 59.304 76.222 60.6218 75.2618 61.5998C74.3015 62.5778 72.9963 63.1376 71.6282 63.1582C70.8584 63.1606 70.0979 62.9903 69.4021 62.6598C69.359 62.6384 69.3111 62.6285 69.2631 62.6312C69.215 62.6339 69.1685 62.649 69.128 62.675C69.0896 62.699 69.0581 62.7325 69.0363 62.7722C69.0146 62.8119 69.0034 62.8566 69.0038 62.9019V71.5282C69.0047 71.7882 68.9545 72.0459 68.856 72.2865C68.7575 72.5271 68.6127 72.7457 68.4299 72.9301C68.2471 73.1144 68.0298 73.2607 67.7905 73.3607C67.5512 73.4606 67.2947 73.5122 67.0355 73.5125ZM53.4799 64.8498C53.5478 64.8498 53.6162 64.8498 53.6849 64.8498C54.5661 64.8845 55.4241 65.143 56.1786 65.6011C56.9331 66.0591 57.5594 66.7018 57.9988 67.4689C58.4383 68.2361 58.6766 69.1026 58.6913 69.9873C58.706 70.872 58.4968 71.746 58.0831 72.5274C58.0613 72.5686 58.0503 72.6146 58.0513 72.6612C58.0523 72.7078 58.0651 72.7534 58.0886 72.7936C58.1121 72.8338 58.1455 72.8673 58.1855 72.8909C58.2256 72.9144 58.271 72.9273 58.3175 72.9283H67.0355C67.4038 72.9277 67.7569 72.7806 68.0173 72.5192C68.2778 72.2579 68.4244 71.9036 68.425 71.5341V62.9113C68.4245 62.7682 68.4602 62.6273 68.5289 62.5019C68.5975 62.3764 68.6969 62.2706 68.8175 62.1942C68.9404 62.1159 69.0811 62.0703 69.2265 62.0617C69.3718 62.0531 69.5169 62.0817 69.6482 62.1449C70.2659 62.4384 70.9412 62.5898 71.6247 62.5881C72.8532 62.5881 74.0313 62.0984 74.9 61.2268C75.7687 60.3552 76.2567 59.1731 76.2567 57.9405C76.2567 56.7079 75.7687 55.5257 74.9 54.6542C74.0313 53.7826 72.8532 53.2929 71.6247 53.2929C70.9412 53.2911 70.2659 53.4425 69.6482 53.7361C69.5169 53.7992 69.3718 53.8277 69.2265 53.8191C69.0812 53.8105 68.9404 53.7649 68.8175 53.6867C68.6969 53.6104 68.5975 53.5045 68.5289 53.3791C68.4602 53.2536 68.4245 53.1127 68.425 52.9696V44.6514C68.4231 44.2826 68.276 43.9295 68.0157 43.6692C67.7554 43.4089 67.403 43.2625 67.0355 43.2619H58.4311C58.2882 43.2624 58.1475 43.2264 58.0223 43.1573C57.897 43.0882 57.7914 42.9882 57.7153 42.8669C57.6375 42.7438 57.5923 42.603 57.5839 42.4576C57.5755 42.3121 57.6042 42.167 57.6672 42.0357C58.0016 41.3275 58.152 40.5458 58.1044 39.7635C58.0569 38.9813 57.8129 38.2238 57.3952 37.5615C56.9775 36.8992 56.3996 36.3537 55.7154 35.9757C55.0311 35.5977 54.2627 35.3995 53.4816 35.3995C52.7005 35.3995 51.9321 35.5977 51.2478 35.9757C50.5636 36.3537 49.9857 36.8992 49.568 37.5615C49.1503 38.2238 48.9064 38.9813 48.8588 39.7635C48.8112 40.5458 48.9616 41.3275 49.296 42.0357C49.3592 42.1673 49.3879 42.3129 49.3795 42.4587C49.3711 42.6045 49.3258 42.7458 49.248 42.8692C49.1719 42.9907 49.0663 43.0906 48.941 43.1598C48.8158 43.2289 48.6751 43.2648 48.5321 43.2642H40.2418C39.8746 43.2648 39.5226 43.4109 39.2624 43.6707C39.0021 43.9306 38.8547 44.283 38.8522 44.6514V53.1366C38.8522 53.1843 38.8647 53.2312 38.8886 53.2725C38.9125 53.3138 38.9468 53.348 38.9881 53.3717C39.0285 53.3953 39.0744 53.4078 39.1211 53.4078C39.1678 53.4078 39.2137 53.3953 39.2541 53.3717C40.047 52.9254 40.9424 52.6951 41.8515 52.7036C42.7605 52.7121 43.6516 52.9591 44.436 53.42C45.2205 53.881 45.8711 54.5399 46.3232 55.3313C46.7753 56.1226 47.0132 57.0189 47.0132 57.9311C47.0132 58.8432 46.7753 59.7395 46.3232 60.5309C45.8711 61.3222 45.2205 61.9811 44.436 62.4421C43.6516 62.9031 42.7605 63.1501 41.8515 63.1586C40.9424 63.1671 40.047 62.9367 39.2541 62.4905C39.2138 62.4667 39.1679 62.4542 39.1211 62.4542C39.0743 62.4542 39.0284 62.4667 38.9881 62.4905C38.9468 62.5141 38.9125 62.5484 38.8886 62.5897C38.8647 62.631 38.8522 62.6779 38.8522 62.7256V71.5247C38.8528 71.8942 38.9994 72.2485 39.2599 72.5098C39.5203 72.7712 39.8734 72.9183 40.2418 72.9189H48.6411C48.6883 72.9194 48.7349 72.9074 48.776 72.8841C48.8172 72.8607 48.8515 72.8269 48.8754 72.786C48.8997 72.7463 48.9132 72.7008 48.9144 72.6541C48.9156 72.6075 48.9046 72.5614 48.8824 72.5204C48.4823 71.7641 48.2731 70.9209 48.2732 70.0646C48.2766 68.681 48.8265 67.3552 49.8025 66.3777C50.7785 65.4002 52.1009 64.8508 53.4799 64.8498Z" fill="#262424"/>
<path d="M71.801 51.8083C70.2557 51.6696 69.4179 55.3068 70.4431 55.6653C71.4683 56.0239 73.4272 51.9541 71.801 51.8083Z" fill="white"/>
<path d="M70.5789 55.9777C70.4991 55.9784 70.4199 55.9653 70.3446 55.9389C69.7728 55.7391 69.5572 54.8986 69.7939 53.7982C70.0435 52.6356 70.7863 51.4248 71.8231 51.5188C72.0022 51.5278 72.1744 51.5904 72.3177 51.6985C72.4609 51.8067 72.5686 51.9553 72.6269 52.1254C72.9491 53.0071 72.2461 54.6999 71.4494 55.5122C71.1003 55.8719 70.8038 55.9777 70.5789 55.9777ZM71.7189 52.0984C71.0932 52.0984 70.5566 53.0235 70.3633 53.924C70.1887 54.734 70.3188 55.3182 70.5402 55.3946C70.6164 55.4217 70.7933 55.3629 71.0417 55.109C71.7446 54.3919 72.3023 52.9107 72.0891 52.3288C72.0684 52.262 72.0268 52.2038 71.9704 52.1627C71.914 52.1216 71.846 52.0998 71.7763 52.1007L71.7189 52.0984Z" fill="#262424"/>
<path d="M73.2462 52.4101C71.8461 52.3795 70.2879 56.5539 73.2462 57.1123C76.2045 57.6707 76.7025 55.1433 76.146 53.9971C75.5894 52.8509 74.5912 52.4442 73.2462 52.4101Z" fill="white"/>
<path d="M74.0515 57.4872C73.7636 57.4853 73.4765 57.4566 73.1939 57.4014C71.8571 57.1486 71.1459 56.1576 71.2923 54.7481C71.4212 53.502 72.2765 52.1243 73.2314 52.1243H73.2489C74.8376 52.1584 75.8394 52.712 76.4018 53.8747C76.5924 54.3078 76.6663 54.7835 76.6161 55.2543C76.5659 55.7251 76.3934 56.1744 76.1159 56.5573C75.7773 57.0087 75.154 57.4872 74.0515 57.4872ZM73.2314 52.7038C72.7135 52.7038 71.9859 53.6678 71.8676 54.8081C71.8008 55.4499 71.8981 56.5714 73.3005 56.8312C74.3784 57.0346 75.195 56.8183 75.6613 56.2046C75.8715 55.9063 76.0025 55.5591 76.0418 55.1959C76.0812 54.8326 76.0276 54.4653 75.8862 54.1286C75.4176 53.174 74.6068 52.7344 73.2396 52.705H73.2302L73.2314 52.7038Z" fill="#262424"/>
<path d="M23.5669 38.2493C23.5669 38.2493 19.3491 44.147 19.1933 46.3806C19.0375 48.6142 28.5276 57.7048 34.3857 61.3102C34.3857 61.3102 34.9328 64.5524 35.4015 65.3165C35.8701 66.0806 39.2385 67.4325 39.2385 67.4325C39.2385 67.4325 39.9122 69.1665 40.703 69.3134C41.4939 69.4604 42.3726 68.0203 42.3726 67.5795C42.3726 67.1386 41.406 65.1108 41.406 65.1108C41.406 65.1108 42.2847 66.8741 42.7826 66.7566C43.2806 66.639 42.7533 63.9059 42.3726 63.4356C41.9918 62.9654 37.0405 59.8796 37.0405 59.8796L28.1363 47.2129L30.5381 43.6568L23.5669 38.2493Z" fill="white"/>
<path d="M40.8171 69.6132C40.7613 69.6133 40.7056 69.6082 40.6507 69.5979C39.8306 69.4463 39.2014 68.092 39.0175 67.6547C38.2454 67.3397 35.6198 66.2288 35.1511 65.467C34.7059 64.7405 34.2361 62.159 34.1189 61.4866C31.341 59.7573 27.6036 56.7244 24.3289 53.5374C22.6593 51.9128 18.7895 47.9618 18.9008 46.3583C19.0613 44.0695 23.1538 38.3222 23.3283 38.0788C23.351 38.0473 23.3798 38.0207 23.413 38.0005C23.4461 37.9804 23.4829 37.9671 23.5213 37.9615C23.5597 37.9559 23.5987 37.9581 23.6362 37.968C23.6737 37.9778 23.7089 37.9951 23.7396 38.0189L30.7107 43.4264C30.7689 43.4717 30.8077 43.5375 30.8192 43.6104C30.8308 43.6834 30.8141 43.758 30.7728 43.8191L28.4917 47.2094L37.2472 59.6645C38.1844 60.2522 42.216 62.7785 42.6003 63.2523C43.008 63.7554 43.4509 65.9561 43.206 66.6767C43.1848 66.7629 43.141 66.842 43.0793 66.9056C43.0175 66.9692 42.9399 67.0152 42.8545 67.0387C42.7463 67.0618 42.6337 67.0503 42.5323 67.0058C42.6034 67.1883 42.6492 67.3798 42.6682 67.5748C42.6682 68.0086 42.1843 68.8232 41.6735 69.25C41.4397 69.4686 41.1363 69.5972 40.8171 69.6132ZM23.6306 38.6643C22.8409 39.7963 19.6143 44.5256 19.4831 46.4006C19.4186 47.3164 21.4807 49.9543 24.7366 53.1225C28.0265 56.3247 31.7827 59.367 34.5384 61.0622C34.5734 61.0839 34.6035 61.1128 34.6265 61.1471C34.6496 61.1813 34.665 61.2201 34.6719 61.2609C34.8219 62.1472 35.2882 64.5771 35.6491 65.1637C35.9537 65.661 38.079 66.6532 39.3467 67.1622C39.3833 67.1769 39.4166 67.199 39.4444 67.2271C39.4722 67.2552 39.494 67.2887 39.5084 67.3256C39.765 67.9827 40.3215 68.9455 40.7561 69.0266C40.9448 69.0607 41.1545 68.9267 41.2974 68.8068C41.7661 68.4118 42.0836 67.7429 42.0836 67.5772C42.0836 67.342 41.5962 66.1806 41.1463 65.2331C41.1173 65.1647 41.1156 65.0877 41.1414 65.0181C41.1673 64.9485 41.2188 64.8914 41.2853 64.8587C41.3518 64.826 41.4283 64.8202 41.499 64.8424C41.5697 64.8646 41.6292 64.9131 41.6653 64.978C42.0004 65.6492 42.4491 66.2923 42.6741 66.4392C42.7994 65.9478 42.4491 63.987 42.1492 63.6179C41.9207 63.3369 39.2694 61.6088 36.8898 60.1253C36.8588 60.1059 36.8318 60.0807 36.8101 60.0512L27.9058 47.3799C27.8724 47.3313 27.8545 47.2737 27.8545 47.2147C27.8545 47.1557 27.8724 47.0981 27.9058 47.0495L30.1553 43.7192L23.6306 38.6643Z" fill="#262424"/>
<path d="M34.4089 26.0775C30.3001 26.8934 21.8164 39.0522 21.8164 39.0522L30.4477 45.439C30.4477 45.439 36.423 37.8367 38.8447 33.9573C41.2664 30.078 40.3655 24.902 34.4089 26.0775Z" fill="#FEA151"/>
<path d="M30.4379 45.7292C30.3836 45.7292 30.3303 45.7139 30.2843 45.6849C30.2382 45.656 30.2012 45.6146 30.1774 45.5656C30.1537 45.5165 30.1443 45.4617 30.1501 45.4075C30.156 45.3533 30.177 45.3018 30.2106 45.259C30.2704 45.1826 36.2035 37.6249 38.5889 33.8032C39.8273 31.8188 40.1436 29.55 39.3961 28.0217C38.8876 26.9814 37.9152 26.3607 36.5842 26.229C36.5451 26.227 36.5068 26.217 36.4717 26.1997C36.4365 26.1824 36.4052 26.1581 36.3797 26.1283C36.3542 26.0985 36.335 26.0638 36.3232 26.0263C36.3114 25.9888 36.3074 25.9493 36.3113 25.9102C36.3152 25.8711 36.3269 25.8332 36.3458 25.7988C36.3647 25.7644 36.3904 25.7342 36.4213 25.71C36.4522 25.6859 36.4877 25.6683 36.5255 25.6583C36.5634 25.6482 36.6029 25.6461 36.6417 25.6518C38.1812 25.8046 39.3141 26.5358 39.9152 27.7678C40.7493 29.4724 40.4201 31.9634 39.0786 34.1159C36.6768 37.9635 30.7238 45.547 30.6641 45.6222C30.6368 45.656 30.6023 45.6831 30.5632 45.7016C30.524 45.7201 30.4812 45.7296 30.4379 45.7292Z" fill="#262424"/>
<path d="M31.9433 43.7921C31.8822 43.7918 31.8227 43.7721 31.7734 43.7356L23.9318 37.9836C23.8697 37.9383 23.828 37.87 23.816 37.7938C23.8041 37.7176 23.8227 37.6398 23.8679 37.5775C23.9132 37.5151 23.9812 37.4733 24.0571 37.4613C24.133 37.4493 24.2106 37.468 24.2727 37.5134L32.1132 43.2666C32.1627 43.3026 32.1996 43.3534 32.2185 43.4117C32.2375 43.4701 32.2375 43.5329 32.2187 43.5913C32.1998 43.6497 32.163 43.7005 32.1135 43.7366C32.0641 43.7727 32.0045 43.7921 31.9433 43.7921Z" fill="#262424"/>
<path d="M50.1736 8.0004C50.5423 10.5783 45.1093 11.3608 43.2672 11.406C41.4251 11.4511 38.0238 14.7576 35.1229 12.8501C32.222 10.9426 29.7536 18.9807 20.2632 15.4017C12.9541 12.6402 10.9343 1.87854 16.2769 0.485421C21.6196 -0.907699 28.0166 5.13547 32.8899 3.80064C35.9906 2.95107 39.2336 -0.390378 43.2317 3.20754C46.214 5.88886 49.8819 5.96609 50.1736 8.0004Z" fill="#262424"/>
<path d="M58.3146 21.2416C58.3146 21.2416 60.4268 19.6352 61.8019 20.7251C63.177 21.8151 61.1229 26.4765 57.4141 24.8046L58.3146 21.2416Z" fill="white"/>
<path d="M58.9633 25.5643C58.3586 25.5547 57.7646 25.4163 57.2281 25.1601C57.1498 25.1244 57.0868 25.0656 57.0494 24.9931C57.0119 24.9206 57.002 24.8386 57.0214 24.7603L57.9253 21.1384C57.9442 21.0625 57.9896 20.9943 58.0547 20.9443C58.1525 20.869 60.4493 19.1261 62.0631 20.4228C63.0001 21.1747 62.6751 22.8856 61.8375 24.0287C61.0913 25.037 60.0802 25.5643 58.9633 25.5643ZM57.8465 24.6357C59.6842 25.3224 60.7853 24.1721 61.1844 23.6216C61.9511 22.5712 62.0079 21.3239 61.5441 20.9516C60.5755 20.1721 59.0485 21.1341 58.6478 21.4108L57.8465 24.6357Z" fill="#262424"/>
<path d="M50.6945 8.43278L49.9301 7.73486C49.8108 7.62478 49.6654 7.54992 49.509 7.51805C49.3525 7.48618 49.1907 7.49846 49.0403 7.55362C48.6076 7.70171 48.2129 7.95015 47.886 8.28016C47.5692 8.6612 47.3902 9.14534 47.38 9.64899C47.3742 9.77038 47.3916 9.89176 47.4312 10.0061C47.4709 10.1204 47.5319 10.2255 47.6108 10.3151L48.389 11.2118C48.4777 11.3127 48.5867 11.392 48.7082 11.4442C48.8297 11.4964 48.9607 11.5202 49.092 11.5138C49.2234 11.5075 49.3517 11.4711 49.468 11.4074C49.5843 11.3436 49.6857 11.2541 49.765 11.145L50.8107 9.68714C50.9459 9.50092 51.009 9.26871 50.9875 9.03644C50.966 8.80416 50.8614 8.58874 50.6945 8.43278Z" fill="white"/>
<path d="M49.0491 11.9163C48.8692 11.9166 48.6912 11.8777 48.5267 11.8022C48.3623 11.7267 48.2152 11.6162 48.0949 11.478L47.309 10.5791C47.1949 10.4505 47.1069 10.2996 47.0501 10.1354C46.9934 9.97117 46.9691 9.79688 46.9786 9.62279C46.9938 9.0244 47.2124 8.45061 47.5962 8.00187C47.9679 7.62702 48.4172 7.34418 48.9102 7.17468C49.1259 7.09625 49.3579 7.07869 49.5824 7.1238C49.8069 7.16891 50.0156 7.27506 50.1871 7.43128L50.9591 8.13097C51.1997 8.35214 51.3517 8.65815 51.3851 8.98897C51.4185 9.31979 51.331 9.65157 51.1397 9.91924L50.0836 11.3808C49.9702 11.5384 49.8242 11.668 49.6562 11.7601C49.4882 11.8522 49.3025 11.9044 49.1124 11.9131H49.0522L49.0491 11.9163ZM49.3363 7.88711C49.2779 7.88703 49.22 7.89727 49.1649 7.9174C48.7844 8.04607 48.4367 8.2612 48.1474 8.54696C47.8917 8.85951 47.7482 9.25358 47.7413 9.66263C47.7382 9.73251 47.7486 9.80234 47.7719 9.86802C47.7953 9.9337 47.831 9.99392 47.8772 10.0451L48.6631 10.9441C48.7149 11.0033 48.7787 11.0499 48.8501 11.0806C48.9214 11.1114 48.9984 11.1254 49.0756 11.1217C49.1528 11.1181 49.2283 11.0968 49.2966 11.0595C49.3649 11.0222 49.4243 10.9697 49.4706 10.9058L50.5268 9.44428C50.6046 9.33518 50.6401 9.20001 50.6264 9.06527C50.6127 8.93053 50.5507 8.80593 50.4526 8.7159L49.6806 8.01622C49.5845 7.93203 49.4624 7.88622 49.3363 7.88711Z" fill="#262424"/>
<path d="M59.451 21.9569C58.392 24.9538 55.9923 28.0819 52.2769 26.9225C49.5449 26.0738 47.4506 21.9555 48.4206 17.7788C49.3906 13.6022 51.1437 10.2889 56.102 11.9543C56.629 12.1403 57.1428 12.3605 57.6401 12.6135C60.3736 14.0718 61.4118 14.642 59.982 20.3426C59.8544 20.8501 59.6527 21.3911 59.451 21.9569Z" fill="white"/>
<path d="M53.4203 27.5711C52.8564 27.5676 52.2964 27.4786 51.7601 27.3072C48.9584 26.4348 46.5754 22.271 47.6365 17.6892C48.1491 15.4753 49.0031 12.7893 51.0641 11.6559C52.3279 10.9625 53.9315 10.9331 55.8331 11.5709C56.3821 11.7643 56.9173 11.9935 57.4352 12.2571C58.8495 13.0121 59.8703 13.5561 60.3472 14.7261C60.8107 15.8653 60.7019 17.5191 59.9702 20.4368C59.8554 20.8957 59.6855 21.3707 59.5052 21.8722L59.4277 22.0891C58.4337 24.9027 56.386 27.5711 53.4203 27.5711ZM53.313 11.8304C52.6546 11.819 52.0044 11.9761 51.4263 12.2864C50.0314 13.0517 49.0552 14.8199 48.3533 17.849C47.4084 21.9264 49.4904 25.8411 51.9822 26.6166C52.452 26.7673 52.9426 26.846 53.4367 26.8498C56.687 26.8498 58.2831 23.1243 58.7332 21.8502L58.8107 21.6317C58.9851 21.1464 59.149 20.689 59.2578 20.2638C60.6304 14.7847 59.7377 14.3082 57.0864 12.8934C56.6044 12.649 56.1065 12.4359 55.5961 12.2556C54.8639 11.9919 54.0926 11.8482 53.313 11.8304Z" fill="#262424"/>
<path d="M49.3097 17.9567C49.8697 17.9054 50.406 17.6995 50.8618 17.3607C51.3176 17.0218 51.6761 16.5626 51.8995 16.0315C52.0583 15.6752 52.2322 15.1816 52.4645 14.7574C53.9632 17.6883 57.5946 20.2705 59.2087 21.3117C59.459 21.48 59.7545 21.5629 60.0531 21.5485C60.3517 21.5341 60.6384 21.4232 60.8723 21.2315C63.7888 18.7233 63.0095 12.0394 59.0513 10.9951C55.4814 6.50464 49.6334 7.27438 47.811 10.9303C45.7877 14.9826 47.9039 18.1233 49.3097 17.9567Z" fill="#262424"/>
<path d="M49.3824 18.5953C49.3824 18.5953 47.9772 15.8604 45.6842 15.9315C43.3912 16.0026 43.2061 21.4467 48.5719 22.3527L49.3824 18.5953Z" fill="white"/>
<path d="M48.6055 22.7532C48.5858 22.7548 48.566 22.7548 48.5463 22.7532C45.0829 22.1721 43.6421 19.7711 43.7694 17.7866C43.8538 16.4687 44.6135 15.5626 45.6603 15.5306C48.1924 15.4543 49.688 18.2945 49.7501 18.4151C49.7886 18.5023 49.7934 18.6013 49.7635 18.692C49.7336 18.7827 49.6713 18.8582 49.5893 18.9033C49.5072 18.9484 49.4116 18.9596 49.3218 18.9346C49.2321 18.9097 49.1549 18.8504 49.106 18.7689C49.0927 18.743 47.7526 16.2155 45.6826 16.2826C44.9318 16.3055 44.5468 17.0788 44.498 17.8354C44.3928 19.492 45.65 21.5055 48.6633 22.0104C48.7486 22.0308 48.824 22.0821 48.8757 22.155C48.9274 22.2279 48.952 22.3175 48.945 22.4074C48.938 22.4974 48.8999 22.5818 48.8376 22.6453C48.7753 22.7087 48.693 22.747 48.6055 22.7532Z" fill="#262424"/>
<path d="M8.99212 23.6168C8.91444 23.6168 8.83994 23.5859 8.78501 23.5308C8.73008 23.4757 8.69922 23.4009 8.69922 23.323V21.9628C8.69922 21.8849 8.73008 21.8101 8.78501 21.755C8.83994 21.6999 8.91444 21.6689 8.99212 21.6689C9.0698 21.6689 9.14431 21.6999 9.19924 21.755C9.25417 21.8101 9.28503 21.8849 9.28503 21.9628V23.3241C9.28472 23.4019 9.25372 23.4763 9.19882 23.5312C9.14393 23.586 9.0696 23.6169 8.99212 23.6168Z" fill="#262424"/>
<path d="M11.0403 24.3143H9.68353C9.60585 24.3143 9.53135 24.2834 9.47642 24.2283C9.42149 24.1732 9.39062 24.0984 9.39062 24.0205C9.39062 23.9425 9.42149 23.8678 9.47642 23.8126C9.53135 23.7575 9.60585 23.7266 9.68353 23.7266H11.0403C11.1179 23.7266 11.1924 23.7575 11.2474 23.8126C11.3023 23.8678 11.3332 23.9425 11.3332 24.0205C11.3332 24.0984 11.3023 24.1732 11.2474 24.2283C11.1924 24.2834 11.1179 24.3143 11.0403 24.3143Z" fill="#262424"/>
<path d="M8.99212 26.3607C8.91444 26.3607 8.83994 26.3297 8.78501 26.2746C8.73008 26.2195 8.69922 26.1448 8.69922 26.0668V24.7055C8.69922 24.6276 8.73008 24.5528 8.78501 24.4977C8.83994 24.4426 8.91444 24.4116 8.99212 24.4116C9.0698 24.4116 9.14431 24.4426 9.19924 24.4977C9.25417 24.5528 9.28503 24.6276 9.28503 24.7055V26.0668C9.28503 26.1054 9.27745 26.1436 9.26273 26.1793C9.24801 26.2149 9.22643 26.2473 9.19924 26.2746C9.17204 26.3019 9.13975 26.3236 9.10421 26.3383C9.06867 26.3531 9.03059 26.3607 8.99212 26.3607Z" fill="#262424"/>
<path d="M8.30471 24.3143H6.94915C6.87147 24.3143 6.79697 24.2834 6.74204 24.2283C6.68711 24.1732 6.65625 24.0984 6.65625 24.0205C6.65625 23.9425 6.68711 23.8678 6.74204 23.8126C6.79697 23.7575 6.87147 23.7266 6.94915 23.7266H8.30588C8.34435 23.7266 8.38242 23.7343 8.41793 23.7492C8.45343 23.764 8.48568 23.7857 8.51282 23.8131C8.53997 23.8404 8.56148 23.8728 8.57613 23.9085C8.59078 23.9442 8.59828 23.9824 8.5982 24.021C8.59812 24.0596 8.59047 24.0978 8.57568 24.1335C8.56089 24.1691 8.53925 24.2014 8.512 24.2287C8.48474 24.2559 8.45241 24.2775 8.41684 24.2922C8.38128 24.3069 8.34318 24.3144 8.30471 24.3143Z" fill="#262424"/>
<path d="M4.6054 80.1744C4.52772 80.1744 4.45322 80.1434 4.39829 80.0883C4.34336 80.0332 4.3125 79.9585 4.3125 79.8805V78.5192C4.3125 78.4413 4.34336 78.3665 4.39829 78.3114C4.45322 78.2563 4.52772 78.2253 4.6054 78.2253C4.68309 78.2253 4.75759 78.2563 4.81252 78.3114C4.86745 78.3665 4.89831 78.4413 4.89831 78.5192V79.8805C4.89831 79.9585 4.86745 80.0332 4.81252 80.0883C4.75759 80.1434 4.68309 80.1744 4.6054 80.1744Z" fill="#262424"/>
<path d="M6.65198 80.8656H5.2929C5.21522 80.8656 5.14072 80.8347 5.08579 80.7795C5.03086 80.7244 5 80.6497 5 80.5717C5 80.4938 5.03086 80.419 5.08579 80.3639C5.14072 80.3088 5.21522 80.2778 5.2929 80.2778H6.65198C6.72966 80.2778 6.80416 80.3088 6.85909 80.3639C6.91402 80.419 6.94488 80.4938 6.94488 80.5717C6.94488 80.6497 6.91402 80.7244 6.85909 80.7795C6.80416 80.8347 6.72966 80.8656 6.65198 80.8656Z" fill="#262424"/>
<path d="M4.60541 82.9183C4.52772 82.9183 4.45322 82.8873 4.39829 82.8322C4.34336 82.7771 4.3125 82.7024 4.3125 82.6244V81.2631C4.3125 81.1852 4.34336 81.1104 4.39829 81.0553C4.45322 81.0002 4.52772 80.9692 4.60541 80.9692C4.68309 80.9692 4.75759 81.0002 4.81252 81.0553C4.86745 81.1104 4.89831 81.1852 4.89831 81.2631V82.6221C4.89862 82.6609 4.89127 82.6993 4.87669 82.7353C4.86211 82.7712 4.84058 82.8039 4.81335 82.8314C4.78613 82.8589 4.75373 82.8808 4.71804 82.8957C4.68235 82.9106 4.64407 82.9183 4.60541 82.9183Z" fill="#262424"/>
<path d="M3.91409 80.8656H2.55853C2.48085 80.8656 2.40635 80.8347 2.35142 80.7795C2.29649 80.7244 2.26562 80.6497 2.26562 80.5717C2.26562 80.4938 2.29649 80.419 2.35142 80.3639C2.40635 80.3088 2.48085 80.2778 2.55853 80.2778H3.91526C3.95373 80.2779 3.9918 80.2856 4.02731 80.3004C4.06282 80.3153 4.09506 80.337 4.12221 80.3643C4.14935 80.3917 4.17086 80.4241 4.18551 80.4598C4.20016 80.4955 4.20766 80.5337 4.20758 80.5723C4.20751 80.6109 4.19985 80.6491 4.18506 80.6847C4.17027 80.7204 4.14863 80.7527 4.12138 80.78C4.09412 80.8072 4.06179 80.8288 4.02623 80.8435C3.99066 80.8582 3.95256 80.8657 3.91409 80.8656Z" fill="#262424"/>
<path d="M11.6572 93.6427C12.2143 93.6427 12.666 93.1896 12.666 92.6306C12.666 92.0716 12.2143 91.6184 11.6572 91.6184C11.1001 91.6184 10.6484 92.0716 10.6484 92.6306C10.6484 93.1896 11.1001 93.6427 11.6572 93.6427Z" fill="#B0CDFE"/>
<path d="M30.9461 134.198C31.8527 134.198 32.5876 133.461 32.5876 132.551C32.5876 131.642 31.8527 130.905 30.9461 130.905C30.0396 130.905 29.3047 131.642 29.3047 132.551C29.3047 133.461 30.0396 134.198 30.9461 134.198Z" fill="#FEA151"/>
</svg>
