<svg width="192" height="212" viewBox="0 0 192 212" fill="none" xmlns="http://www.w3.org/2000/svg">
<path d="M122.203 3.53052H26.7932C22.9594 3.53052 19.8516 6.63518 19.8516 10.465V105.777C19.8516 109.607 22.9594 112.712 26.7932 112.712H122.203C126.037 112.712 129.145 109.607 129.145 105.777V10.465C129.145 6.63518 126.037 3.53052 122.203 3.53052Z" fill="white"/>
<path d="M122.204 113.164H26.7888C24.8285 113.161 22.9493 112.382 21.5632 110.997C20.1771 109.613 19.3972 107.735 19.3945 105.777V10.4597C19.3972 8.50143 20.1771 6.62415 21.5632 5.23945C22.9493 3.85476 24.8285 3.07567 26.7888 3.073H122.204C124.164 3.07567 126.044 3.85476 127.43 5.23945C128.816 6.62415 129.596 8.50143 129.598 10.4597V105.777C129.596 107.735 128.816 109.613 127.43 110.997C126.044 112.382 124.164 113.161 122.204 113.164ZM26.7888 3.98246C25.069 3.98469 23.4202 4.66817 22.2041 5.88304C20.988 7.0979 20.3038 8.74496 20.3016 10.463V105.78C20.3038 107.499 20.988 109.146 22.2041 110.36C23.4202 111.575 25.069 112.259 26.7888 112.261H122.204C123.924 112.259 125.573 111.575 126.789 110.36C128.005 109.146 128.689 107.499 128.691 105.78V10.463C128.689 8.74496 128.005 7.0979 126.789 5.88304C125.573 4.66817 123.924 3.98469 122.204 3.98246H26.7888Z" fill="#262424"/>
<path d="M118.197 63.812H34.4485C32.559 63.812 31.0273 65.3421 31.0273 67.2297V94.6884C31.0273 96.576 32.559 98.1061 34.4485 98.1061H118.197C120.086 98.1061 121.618 96.576 121.618 94.6884V67.2297C121.618 65.3421 120.086 63.812 118.197 63.812Z" fill="white"/>
<path d="M118.197 98.5589H34.4486C33.4228 98.5567 32.4396 98.1486 31.7142 97.424C30.9888 96.6994 30.5803 95.7172 30.5781 94.6924V67.2303C30.5803 66.2055 30.9888 65.2233 31.7142 64.4987C32.4396 63.7741 33.4228 63.366 34.4486 63.3638H118.197C119.223 63.366 120.206 63.7741 120.931 64.4987C121.657 65.2233 122.065 66.2055 122.067 67.2303V94.6891C122.066 95.7144 121.658 96.6975 120.933 97.4228C120.207 98.1482 119.223 98.5567 118.197 98.5589ZM34.4486 64.2648C33.6616 64.2657 32.907 64.5784 32.3505 65.1344C31.794 65.6903 31.481 66.4441 31.4801 67.2303V94.6891C31.481 95.4753 31.794 96.229 32.3505 96.785C32.907 97.3409 33.6616 97.6536 34.4486 97.6545H118.197C118.984 97.6536 119.739 97.3409 120.295 96.785C120.852 96.229 121.165 95.4753 121.165 94.6891V67.2303C121.165 66.4441 120.852 65.6903 120.295 65.1344C119.739 64.5784 118.984 64.2657 118.197 64.2648H34.4486Z" fill="#262424"/>
<path d="M52.8472 97.1032C52.7878 97.1032 52.7289 97.0915 52.674 97.0688C52.6191 97.046 52.5692 97.0127 52.5271 96.9707C52.4851 96.9287 52.4517 96.8789 52.429 96.824C52.4062 96.7692 52.3945 96.7104 52.3945 96.651V65.2702C52.3945 65.15 52.4423 65.0348 52.5274 64.9498C52.6124 64.8649 52.7278 64.8171 52.848 64.8171C52.9683 64.8171 53.0837 64.8649 53.1687 64.9498C53.2538 65.0348 53.3016 65.15 53.3016 65.2702V96.6493C53.3018 96.709 53.2902 96.7681 53.2674 96.8233C53.2447 96.8784 53.2112 96.9285 53.169 96.9707C53.1268 97.0129 53.0766 97.0464 53.0213 97.0691C52.9661 97.0918 52.9069 97.1034 52.8472 97.1032Z" fill="#262424"/>
<path d="M76.3238 97.1032C76.2643 97.1032 76.2055 97.0915 76.1505 97.0688C76.0956 97.046 76.0457 97.0127 76.0037 96.9707C75.9616 96.9287 75.9283 96.8789 75.9056 96.824C75.8828 96.7692 75.8711 96.7104 75.8711 96.651V65.2702C75.8711 65.15 75.9189 65.0348 76.0039 64.9498C76.089 64.8649 76.2043 64.8171 76.3246 64.8171C76.4449 64.8171 76.5602 64.8649 76.6453 64.9498C76.7303 65.0348 76.7781 65.15 76.7781 65.2702V96.6493C76.7784 96.709 76.7668 96.7681 76.744 96.8233C76.7212 96.8784 76.6878 96.9285 76.6456 96.9707C76.6033 97.0129 76.5531 97.0464 76.4979 97.0691C76.4427 97.0918 76.3835 97.1034 76.3238 97.1032Z" fill="#262424"/>
<path d="M99.7925 97.1032C99.6725 97.1032 99.5573 97.0555 99.4724 96.9707C99.3875 96.8859 99.3398 96.7709 99.3398 96.651V65.2702C99.3398 65.15 99.3876 65.0348 99.4727 64.9498C99.5577 64.8649 99.6731 64.8171 99.7934 64.8171C99.9136 64.8171 100.029 64.8649 100.114 64.9498C100.199 65.0348 100.247 65.15 100.247 65.2702V96.6493C100.247 96.709 100.235 96.7681 100.213 96.8233C100.19 96.8784 100.157 96.9285 100.114 96.9707C100.072 97.0129 100.022 97.0464 99.9666 97.0691C99.9114 97.0918 99.8522 97.1034 99.7925 97.1032Z" fill="#262424"/>
<path d="M119.695 81.4117H32.9457C32.8254 81.4117 32.7101 81.364 32.625 81.279C32.54 81.1941 32.4922 81.0788 32.4922 80.9587C32.4922 80.8385 32.54 80.7233 32.625 80.6383C32.7101 80.5533 32.8254 80.5056 32.9457 80.5056H119.695C119.815 80.5056 119.93 80.5533 120.015 80.6383C120.1 80.7233 120.148 80.8385 120.148 80.9587C120.148 81.0788 120.1 81.1941 120.015 81.279C119.93 81.364 119.815 81.4117 119.695 81.4117Z" fill="#262424"/>
<path d="M51.7967 57.0379L32.9492 45.9428V26.0354L51.7967 37.1305V57.0379Z" fill="#FEA151"/>
<path d="M51.794 57.4896C51.713 57.4899 51.6334 57.4684 51.5635 57.4274L32.716 46.3323C32.6479 46.2924 32.5914 46.2354 32.5521 46.167C32.5129 46.0986 32.4922 46.0211 32.4922 45.9423V26.0349C32.4922 25.9549 32.5134 25.8764 32.5536 25.8073C32.5939 25.7381 32.6518 25.6809 32.7214 25.6414C32.791 25.602 32.8699 25.5817 32.9499 25.5825C33.03 25.5834 33.1084 25.6055 33.1771 25.6466L52.0246 36.7417C52.0927 36.7816 52.1492 36.8385 52.1884 36.907C52.2277 36.9754 52.2484 37.0529 52.2484 37.1317V57.0374C52.2484 57.0969 52.2366 57.1559 52.2138 57.2109C52.1909 57.2658 52.1574 57.3158 52.1152 57.3578C52.073 57.3998 52.0229 57.4331 51.9678 57.4557C51.9127 57.4783 51.8536 57.4898 51.794 57.4896ZM33.4009 45.6834L51.3413 56.2423V37.3889L33.4009 26.8233V45.6834Z" fill="#FEA151"/>
<path d="M51.7969 57.0379L70.6444 45.9428V26.0354L51.7969 37.1305V57.0379Z" fill="#B0CDFE"/>
<path d="M51.7964 57.4898C51.6764 57.4898 51.5612 57.4422 51.4763 57.3574C51.3914 57.2726 51.3438 57.1575 51.3438 57.0376V37.1302C51.3438 37.0514 51.3645 36.9739 51.4037 36.9055C51.443 36.8371 51.4995 36.7801 51.5676 36.7402L70.415 25.6451C70.4838 25.6044 70.5622 25.5827 70.6421 25.582C70.7221 25.5814 70.8008 25.602 70.8702 25.6416C70.9396 25.6812 70.9973 25.7385 71.0373 25.8076C71.0774 25.8767 71.0984 25.9552 71.0983 26.0351V45.9425C71.0982 46.0213 71.0776 46.0988 71.0383 46.1672C70.999 46.2356 70.9426 46.2926 70.8744 46.3325L52.027 57.4276C51.9571 57.4686 51.8775 57.4901 51.7964 57.4898ZM52.2491 37.3874V56.2425L70.1895 45.6802V26.8235L52.2491 37.3874Z" fill="#B0CDFE"/>
<path d="M70.6442 26.0351L63.2768 30.3723L59.164 32.793L51.7967 37.1302L32.9492 26.0351L40.3166 21.6979L44.4294 19.2771L51.7967 14.9399L70.6442 26.0351Z" fill="white"/>
<path d="M51.7938 37.5829C51.7127 37.5831 51.6331 37.5616 51.5632 37.5207L32.7157 26.4255C32.6477 26.3856 32.5912 26.3286 32.552 26.2602C32.5128 26.1918 32.4922 26.1143 32.4922 26.0355C32.4922 25.9567 32.5128 25.8792 32.552 25.8108C32.5912 25.7424 32.6477 25.6854 32.7157 25.6455L51.5632 14.5503C51.633 14.5091 51.7127 14.4873 51.7938 14.4873C51.8749 14.4873 51.9545 14.5091 52.0243 14.5503L70.8718 25.6455C70.9399 25.6854 70.9963 25.7424 71.0355 25.8108C71.0747 25.8792 71.0954 25.9567 71.0954 26.0355C71.0954 26.1143 71.0747 26.1918 71.0355 26.2602C70.9963 26.3286 70.9399 26.3856 70.8718 26.4255L52.0243 37.5207C51.9544 37.5616 51.8748 37.5831 51.7938 37.5829ZM33.8399 26.0355L51.7938 36.6045L69.7477 26.0355L51.7938 15.4665L33.8399 26.0355Z" fill="#262424"/>
<path d="M63.2806 30.372L59.1678 32.7928L40.3203 21.6976L44.4331 19.2769L63.2806 30.372Z" fill="white"/>
<path d="M59.1649 33.2454C59.0838 33.2456 59.0042 33.2242 58.9343 33.1832L40.0868 22.088C40.0188 22.0481 39.9623 21.9912 39.9231 21.9227C39.8839 21.8543 39.8633 21.7769 39.8633 21.698C39.8633 21.6192 39.8839 21.5417 39.9231 21.4733C39.9623 21.4049 40.0188 21.3479 40.0868 21.308L44.1996 18.8873C44.2694 18.846 44.3491 18.8242 44.4302 18.8242C44.5113 18.8242 44.5909 18.846 44.6607 18.8873L63.5082 29.9824C63.5763 30.0223 63.6327 30.0793 63.6719 30.1477C63.7111 30.2161 63.7318 30.2936 63.7318 30.3724C63.7318 30.4513 63.7111 30.5287 63.6719 30.5971C63.6327 30.6655 63.5763 30.7225 63.5082 30.7624L59.3954 33.1832C59.3255 33.2242 59.2459 33.2456 59.1649 33.2454ZM41.2076 21.698L59.1615 32.267L62.3807 30.3724L44.4302 19.8018L41.2076 21.698Z" fill="#262424"/>
<path d="M59.1641 36.8565V32.7933L63.2769 30.3726V34.4357L59.1641 36.8565Z" fill="white"/>
<path d="M59.1597 37.3101C59.1003 37.3101 59.0414 37.2984 58.9865 37.2757C58.9316 37.2529 58.8816 37.2196 58.8396 37.1776C58.7976 37.1356 58.7642 37.0858 58.7415 37.0309C58.7187 36.9761 58.707 36.9173 58.707 36.8579V32.793C58.7071 32.7141 58.7277 32.6367 58.767 32.5682C58.8062 32.4998 58.8627 32.4429 58.9308 32.403L63.0436 29.9822C63.1124 29.9416 63.1908 29.9198 63.2707 29.9192C63.3507 29.9186 63.4293 29.9391 63.4988 29.9788C63.5682 30.0184 63.6258 30.0757 63.6659 30.1448C63.706 30.2139 63.727 30.2924 63.7268 30.3722V34.4371C63.7268 34.516 63.7061 34.5934 63.6669 34.6619C63.6276 34.7303 63.5711 34.7872 63.503 34.8271L59.3903 37.2462C59.3205 37.2878 59.2409 37.3098 59.1597 37.3101ZM59.6141 33.0435V36.0694L62.8198 34.1816V31.164L59.6141 33.0435Z" fill="#262424"/>
<path d="M125.039 48.2304L116.504 41.8087V43.8798H97.7725C95.6691 43.8818 93.6348 43.1298 92.0394 41.7605C90.4441 40.3912 89.3935 38.4954 89.0787 36.4179C88.7639 34.3404 89.2057 32.219 90.324 30.4393C91.4422 28.6596 93.1625 27.3399 95.1722 26.7199C97.182 26.1 99.3476 26.221 101.276 27.061C103.204 27.9009 104.766 29.4041 105.678 31.2973C106.591 33.1904 106.793 35.3478 106.249 37.3773C105.704 39.4068 104.448 41.1737 102.71 42.3567H113.688C113.756 42.211 113.821 42.0636 113.884 41.9146C115.35 38.455 115.661 34.6157 114.772 30.9654C113.883 27.3152 111.84 24.0482 108.947 21.6483C106.053 19.2485 102.463 17.8435 98.7079 17.6415C94.9527 17.4395 91.2322 18.4512 88.0976 20.5268C84.9631 22.6024 82.5811 25.6314 81.3046 29.1652C80.0282 32.6989 79.9251 36.5494 81.0107 40.1463C82.0962 43.7432 84.3127 46.895 87.3317 49.135C90.3508 51.375 94.0118 52.5839 97.7725 52.5827H116.502V54.6538L125.039 48.2304Z" fill="#FEA151"/>
<path d="M80.9022 43.8799H74.5547V52.5828H90.3041C86.2587 50.8527 82.9369 47.7778 80.9022 43.8799Z" fill="#FEA151"/>
<path d="M155.56 210.961C155.095 210.961 154.644 210.8 154.286 210.504C153.925 210.207 153.678 209.795 153.588 209.337L139.331 140.164H51.5655L37.3087 209.337C37.2181 209.795 36.9713 210.207 36.6104 210.504C36.252 210.8 35.8015 210.961 35.3365 210.961C35.0434 210.96 34.7541 210.895 34.4886 210.771C34.2231 210.647 33.9878 210.467 33.799 210.243C33.6102 210.019 33.4725 209.757 33.3954 209.474C33.3183 209.192 33.3036 208.896 33.3525 208.607L45.637 134.853H145.276L157.552 208.607C157.601 208.897 157.586 209.193 157.509 209.476C157.431 209.759 157.293 210.022 157.103 210.246C156.913 210.47 156.677 210.65 156.41 210.774C156.144 210.897 155.854 210.961 155.56 210.961Z" fill="white"/>
<path d="M155.563 211.415C154.992 211.414 154.439 211.215 153.998 210.852C153.557 210.49 153.256 209.986 153.145 209.426L138.963 140.618H51.9386L37.7559 209.428C37.6444 209.987 37.3426 210.491 36.9018 210.853C36.4611 211.215 35.9084 211.414 35.3377 211.415C34.9813 211.415 34.6291 211.338 34.3057 211.188C33.9823 211.039 33.6953 210.821 33.4647 210.549C33.2302 210.274 33.0586 209.951 32.9618 209.602C32.865 209.254 32.8454 208.889 32.9043 208.532L45.1888 134.774C45.2064 134.668 45.2613 134.572 45.3436 134.502C45.4259 134.432 45.5303 134.394 45.6382 134.395H145.277C145.385 134.395 145.489 134.433 145.572 134.502C145.654 134.572 145.709 134.668 145.727 134.774L158.011 208.529C158.07 208.885 158.05 209.251 157.954 209.599C157.857 209.947 157.685 210.271 157.451 210.546C157.219 210.82 156.93 211.04 156.603 211.19C156.277 211.34 155.922 211.417 155.563 211.415ZM51.565 139.708H139.33C139.435 139.708 139.537 139.744 139.618 139.811C139.699 139.877 139.755 139.969 139.776 140.072L154.033 209.245C154.104 209.6 154.294 209.92 154.573 210.151C154.887 210.41 155.29 210.535 155.695 210.499C156.1 210.463 156.474 210.269 156.737 209.959C156.886 209.785 156.995 209.58 157.056 209.359C157.117 209.138 157.13 208.906 157.092 208.68L144.884 135.307H46.0168L33.8013 208.683C33.7642 208.909 33.7767 209.141 33.838 209.361C33.8993 209.582 34.0079 209.786 34.1563 209.961C34.3013 210.132 34.4817 210.269 34.6851 210.364C34.8885 210.458 35.11 210.507 35.3343 210.507C35.6938 210.509 36.0422 210.384 36.3188 210.154C36.5983 209.923 36.7897 209.603 36.8606 209.248L51.1174 140.073C51.1385 139.97 51.195 139.876 51.2773 139.81C51.3596 139.743 51.4625 139.707 51.5684 139.708H51.565Z" fill="#262424"/>
<path d="M130.786 210.961C130.321 210.961 129.871 210.8 129.513 210.504C129.152 210.207 128.905 209.795 128.814 209.337L114.557 140.164H26.7921L12.5353 209.337C12.4446 209.795 12.1978 210.207 11.8369 210.504C11.4786 210.8 11.028 210.961 10.5631 210.961C10.27 210.96 9.98065 210.895 9.71515 210.771C9.44964 210.647 9.21433 210.467 9.02554 210.243C8.83676 210.019 8.69903 209.757 8.62192 209.474C8.54482 209.192 8.53018 208.896 8.57903 208.607L20.8635 134.853H120.503L132.779 208.607C132.828 208.897 132.813 209.193 132.735 209.476C132.658 209.759 132.519 210.022 132.33 210.246C132.14 210.47 131.904 210.65 131.637 210.774C131.371 210.897 131.08 210.961 130.786 210.961Z" fill="white"/>
<path d="M130.784 211.415C130.213 211.413 129.66 211.214 129.219 210.852C128.778 210.489 128.477 209.986 128.365 209.426L114.184 140.618H27.1613L12.9785 209.428C12.8652 209.987 12.5628 210.49 12.122 210.853C11.6241 211.263 10.9846 211.461 10.3419 211.404C9.69909 211.347 9.10474 211.039 8.68737 210.547C8.45284 210.272 8.28122 209.949 8.18444 209.6C8.08766 209.252 8.06806 208.887 8.12699 208.53L20.4115 134.773C20.4291 134.666 20.4839 134.57 20.5662 134.5C20.6486 134.43 20.753 134.392 20.8608 134.393H120.5C120.608 134.393 120.712 134.431 120.794 134.5C120.877 134.57 120.931 134.666 120.949 134.773L133.234 208.527C133.293 208.883 133.273 209.249 133.176 209.597C133.079 209.945 132.908 210.269 132.673 210.544C132.442 210.819 132.152 211.039 131.826 211.189C131.499 211.34 131.143 211.417 130.784 211.415ZM26.786 139.708H114.556C114.661 139.708 114.763 139.744 114.844 139.81C114.925 139.876 114.981 139.969 115.002 140.071L129.259 209.244C129.33 209.6 129.52 209.92 129.799 210.151C130.113 210.41 130.516 210.535 130.921 210.499C131.326 210.463 131.701 210.269 131.963 209.959C132.112 209.784 132.221 209.579 132.282 209.358C132.343 209.137 132.356 208.906 132.318 208.68L120.106 135.307H21.2395L9.02561 208.683C8.9885 208.909 9.00104 209.14 9.06235 209.361C9.12367 209.581 9.23229 209.786 9.38068 209.961C9.52564 210.132 9.70607 210.269 9.90947 210.363C10.1129 210.458 10.3344 210.507 10.5587 210.507C10.9181 210.509 11.2667 210.384 11.5431 210.154C11.8227 209.923 12.014 209.603 12.085 209.248L26.3417 140.073C26.3627 139.97 26.4188 139.877 26.5004 139.811C26.5819 139.744 26.6841 139.708 26.7894 139.708H26.786Z" fill="#262424"/>
<path d="M153.957 129.193H12.5352V135.497H153.957V129.193Z" fill="#B0CDFE"/>
<path d="M117.773 135.306C117.714 135.306 117.655 135.294 117.6 135.271C117.545 135.248 117.495 135.215 117.453 135.173C117.411 135.131 117.378 135.081 117.355 135.026C117.332 134.972 117.32 134.913 117.32 134.853V130.23C117.32 130.11 117.368 129.995 117.453 129.91C117.538 129.825 117.654 129.777 117.774 129.777C117.894 129.777 118.009 129.825 118.095 129.91C118.18 129.995 118.227 130.11 118.227 130.23V134.853C118.227 134.913 118.216 134.972 118.193 135.027C118.17 135.082 118.136 135.132 118.094 135.174C118.052 135.216 118.002 135.249 117.947 135.272C117.892 135.294 117.833 135.306 117.773 135.306Z" fill="#262424"/>
<path d="M116.618 128.142H91.4716C91.3017 128.143 91.134 128.103 90.9818 128.028C90.8297 127.952 90.6973 127.842 90.5951 127.706C90.4929 127.57 90.4237 127.413 90.393 127.246C90.3623 127.079 90.3709 126.907 90.4182 126.744L98.1591 100.001C98.2812 99.5793 98.537 99.2086 98.8881 98.9445C99.2392 98.6805 99.6667 98.5374 100.106 98.5369H125.252C125.422 98.5367 125.59 98.576 125.742 98.6518C125.894 98.7275 126.027 98.8376 126.129 98.9733C126.231 99.109 126.3 99.2665 126.331 99.4335C126.362 99.6006 126.353 99.7724 126.306 99.9355L118.567 126.68C118.444 127.102 118.188 127.472 117.836 127.736C117.485 128 117.057 128.142 116.618 128.142Z" fill="white"/>
<path d="M116.615 128.596H91.4683C91.228 128.596 90.9909 128.541 90.7758 128.433C90.5607 128.326 90.3735 128.171 90.2291 127.979C90.0846 127.787 89.9868 127.564 89.9434 127.328C89.9 127.091 89.9122 126.848 89.979 126.618L97.72 99.8751C97.8711 99.3601 98.1847 98.9076 98.6141 98.585C99.0434 98.2624 99.5656 98.0869 100.103 98.0847H125.249C125.489 98.0846 125.727 98.1404 125.942 98.2476C126.157 98.3549 126.344 98.5106 126.488 98.7025C126.633 98.8944 126.731 99.1173 126.774 99.3535C126.817 99.5897 126.805 99.8327 126.738 100.063L118.997 126.806C118.846 127.321 118.533 127.774 118.103 128.096C117.674 128.419 117.152 128.594 116.615 128.596ZM100.103 98.9908C99.7615 98.9919 99.4296 99.1031 99.1567 99.3079C98.8838 99.5126 98.6844 99.8 98.5883 100.127L90.8474 126.87C90.8197 126.966 90.8147 127.066 90.8327 127.164C90.8507 127.262 90.8913 127.355 90.9512 127.434C91.0111 127.514 91.0887 127.578 91.1779 127.623C91.267 127.667 91.3653 127.69 91.465 127.69H116.615C116.956 127.689 117.288 127.578 117.561 127.373C117.834 127.168 118.033 126.881 118.129 126.554L125.87 99.8112C125.898 99.7155 125.903 99.6148 125.885 99.5169C125.867 99.419 125.826 99.3266 125.766 99.247C125.706 99.1675 125.629 99.1029 125.54 99.0584C125.45 99.014 125.352 98.9908 125.252 98.9908H100.103Z" fill="#262424"/>
<path d="M116.061 126.125H93.2976C93.206 126.125 93.1156 126.104 93.0336 126.063C92.9516 126.022 92.8803 125.963 92.8253 125.89C92.7703 125.816 92.7331 125.731 92.7166 125.641C92.7002 125.551 92.7049 125.459 92.7305 125.371L99.7041 101.272C99.7639 101.065 99.8895 100.883 100.062 100.754C100.234 100.624 100.444 100.554 100.66 100.554H123.423C123.515 100.554 123.605 100.576 123.687 100.617C123.769 100.658 123.841 100.717 123.896 100.79C123.951 100.864 123.988 100.949 124.004 101.039C124.021 101.129 124.016 101.221 123.99 101.309L117.017 125.408C116.957 125.615 116.831 125.797 116.659 125.926C116.487 126.056 116.277 126.125 116.061 126.125Z" fill="white"/>
<path d="M116.06 126.579H93.2967C93.1342 126.58 92.9739 126.543 92.8282 126.471C92.6826 126.399 92.5558 126.294 92.4578 126.165C92.3598 126.036 92.2933 125.885 92.2636 125.726C92.234 125.566 92.242 125.402 92.287 125.246L99.2622 101.148C99.3504 100.847 99.5335 100.582 99.7843 100.394C100.035 100.206 100.34 100.103 100.654 100.102H123.422C123.585 100.101 123.745 100.138 123.891 100.21C124.036 100.282 124.163 100.387 124.261 100.516C124.359 100.646 124.426 100.796 124.455 100.955C124.485 101.115 124.477 101.279 124.432 101.435L117.452 125.533C117.364 125.834 117.18 126.099 116.93 126.287C116.679 126.476 116.374 126.578 116.06 126.579ZM100.659 101.008C100.542 101.009 100.428 101.047 100.334 101.118C100.24 101.189 100.172 101.287 100.139 101.4L93.1654 125.503C93.1609 125.523 93.1609 125.544 93.1655 125.564C93.17 125.584 93.179 125.603 93.1918 125.619C93.2045 125.635 93.2207 125.648 93.2391 125.657C93.2576 125.666 93.2778 125.671 93.2984 125.671H116.06C116.177 125.671 116.291 125.632 116.385 125.562C116.478 125.492 116.547 125.393 116.58 125.281L123.554 101.183C123.558 101.163 123.558 101.142 123.554 101.122C123.549 101.102 123.54 101.083 123.527 101.067C123.515 101.051 123.498 101.038 123.48 101.029C123.461 101.02 123.441 101.015 123.421 101.015H100.659V101.008Z" fill="#262424"/>
<path d="M94.1064 188.164L94.3874 195.519H89.6335L88.75 188.164H94.1064Z" fill="white"/>
<path d="M94.3833 195.973H89.6327C89.522 195.973 89.4151 195.932 89.3323 195.859C89.2495 195.785 89.1965 195.684 89.1834 195.574L88.2999 188.219C88.2925 188.156 88.2987 188.092 88.3179 188.031C88.3371 187.97 88.369 187.914 88.4114 187.867C88.4538 187.819 88.5059 187.781 88.5641 187.755C88.6223 187.729 88.6854 187.715 88.7492 187.715H94.1039C94.2211 187.715 94.3338 187.76 94.4182 187.842C94.5026 187.923 94.5523 188.034 94.5566 188.151L94.8393 195.505C94.8414 195.566 94.8311 195.627 94.809 195.684C94.787 195.741 94.7536 195.792 94.711 195.836C94.6684 195.88 94.6174 195.914 94.5611 195.938C94.5048 195.961 94.4443 195.973 94.3833 195.973ZM90.0315 195.066H93.9121L93.6647 188.618H89.2557L90.0315 195.066Z" fill="#262424"/>
<path d="M94.8112 158.247V184.652H85.5557L80.8826 163.526L46.5953 158.538C46.5953 158.538 37.3398 157.558 37.3398 137.637H51.2298L53.4174 138.309L63.4015 141.391L88.8961 151.213L90.377 151.785C91.6827 152.289 92.8052 153.176 93.5966 154.329C94.3881 155.483 94.8115 156.849 94.8112 158.247Z" fill="#B0CDFE"/>
<path d="M41.688 144.871C41.7839 145.89 42.0144 147.92 42.5159 150.511C42.5409 150.632 42.5993 150.743 42.6844 150.832C42.7694 150.921 42.8778 150.985 42.9972 151.015L47.0241 152.066C47.1805 152.107 47.3463 152.089 47.4903 152.015L49.927 150.782C50.0486 150.72 50.1482 150.622 50.212 150.502C50.2759 150.381 50.301 150.244 50.2838 150.109L49.6493 144.72C49.6304 144.559 49.5531 144.411 49.4321 144.303C49.3112 144.196 49.155 144.136 48.993 144.136H42.3459C42.2527 144.136 42.1604 144.155 42.0752 144.193C41.99 144.231 41.9138 144.286 41.8517 144.356C41.7895 144.425 41.7427 144.507 41.7145 144.596C41.6863 144.685 41.6773 144.778 41.688 144.871Z" fill="white"/>
<path d="M90.0103 182.974C89.9021 182.974 89.7976 182.936 89.7154 182.865C89.6333 182.795 89.5791 182.698 89.5627 182.591L86.197 160.942L58.0941 151.785C57.0656 151.449 56.1472 150.842 55.4362 150.027C54.7252 149.213 54.2481 148.221 54.0554 147.157L52.9649 141.164C52.9539 141.106 52.9544 141.046 52.9666 140.987C52.9788 140.929 53.0024 140.874 53.036 140.824C53.0696 140.775 53.1126 140.733 53.1625 140.701C53.2123 140.668 53.2681 140.646 53.3267 140.635C53.3853 140.624 53.4454 140.624 53.5038 140.636C53.5621 140.649 53.6175 140.672 53.6667 140.706C53.7159 140.739 53.758 140.782 53.7907 140.832C53.8233 140.882 53.8457 140.937 53.8568 140.996L54.9473 146.989C55.1109 147.893 55.5164 148.735 56.1208 149.427C56.7253 150.119 57.506 150.635 58.3802 150.919L86.7389 160.165C86.8186 160.191 86.8896 160.239 86.9439 160.303C86.9983 160.366 87.0339 160.444 87.0469 160.527L90.4596 182.452C90.4689 182.51 90.4665 182.57 90.4525 182.628C90.4385 182.686 90.4132 182.741 90.378 182.789C90.3428 182.837 90.2985 182.878 90.2475 182.909C90.1965 182.94 90.1399 182.96 90.081 182.969C90.0576 182.973 90.0339 182.974 90.0103 182.974Z" fill="#262424"/>
<path d="M54.3202 146.533C54.2181 146.534 54.1186 146.501 54.038 146.438C53.9574 146.375 53.9003 146.287 53.8761 146.188C53.852 146.089 53.8621 145.984 53.9048 145.892C53.9475 145.799 54.0204 145.724 54.1115 145.677L55.5806 144.921C55.9519 144.729 56.2557 144.428 56.4516 144.059C56.6476 143.69 56.7265 143.27 56.6778 142.855L56.2117 138.965C56.2046 138.906 56.2093 138.846 56.2253 138.789C56.2414 138.731 56.2687 138.678 56.3055 138.631C56.3423 138.584 56.3879 138.545 56.4398 138.516C56.4917 138.487 56.5489 138.469 56.608 138.461C56.6671 138.454 56.727 138.459 56.7844 138.475C56.8417 138.491 56.8953 138.518 56.9421 138.555C56.9889 138.592 57.028 138.638 57.0571 138.689C57.0863 138.741 57.1049 138.798 57.112 138.857L57.5781 142.747C57.6481 143.346 57.5341 143.951 57.2513 144.483C56.9684 145.016 56.5301 145.449 55.9946 145.726L54.5255 146.483C54.4621 146.516 54.3917 146.533 54.3202 146.533Z" fill="#262424"/>
<path d="M94.8066 158.248V161.302C94.6669 161.31 94.5273 161.315 94.3859 161.315C93.2077 161.315 92.0513 160.998 91.0386 160.396C90.0259 159.794 89.1944 158.931 88.6316 157.897C88.0688 156.863 87.7956 155.696 87.8408 154.52C87.8859 153.344 88.2477 152.202 88.8882 151.214L90.369 151.785C91.6754 152.289 92.7986 153.176 93.5907 154.329C94.3827 155.483 94.8067 156.849 94.8066 158.248Z" fill="white"/>
<path d="M94.6008 190.225H85.7661C85.5229 190.225 85.2883 190.135 85.1077 189.972C84.9271 189.809 84.8133 189.585 84.7884 189.344L84.095 182.65C84.0809 182.513 84.0957 182.375 84.1384 182.244C84.1811 182.114 84.2508 181.993 84.3429 181.891C84.4351 181.789 84.5477 181.708 84.6734 181.652C84.7991 181.596 84.9352 181.567 85.0728 181.567H94.9492C95.0825 181.567 95.2143 181.594 95.3368 181.647C95.4592 181.699 95.5697 181.776 95.6615 181.873C95.7532 181.969 95.8244 182.084 95.8706 182.209C95.9168 182.333 95.9371 182.466 95.9303 182.599L95.5836 189.293C95.5706 189.545 95.4614 189.782 95.2785 189.955C95.0956 190.129 94.853 190.225 94.6008 190.225Z" fill="#FEA151"/>
<path d="M109.969 210.961H86.8114C86.8114 210.961 86.6431 209.9 86.5371 207.972C86.3222 203.516 86.5199 199.049 87.1278 194.629H96.5515C96.5515 194.629 98.9074 200.727 102.626 203.082C105.608 204.97 108.878 204.85 109.778 207.972C110.001 208.744 110.076 209.714 109.969 210.961Z" fill="#B0CDFE"/>
<path d="M109.963 210.961H86.8055C86.8055 210.961 86.6373 209.9 86.5312 207.972H109.771C109.995 208.744 110.07 209.714 109.963 210.961Z" fill="white"/>
<path d="M109.961 211.407H86.8042C86.6961 211.407 86.5915 211.368 86.5094 211.298C86.4273 211.228 86.3731 211.13 86.3566 211.024C86.3566 210.98 86.1883 209.917 86.0789 207.998C86.0753 207.936 86.0842 207.874 86.1053 207.816C86.1264 207.758 86.1592 207.705 86.2016 207.66C86.244 207.615 86.2952 207.58 86.3519 207.555C86.4087 207.531 86.4698 207.518 86.5316 207.519H109.77C109.868 207.518 109.964 207.55 110.042 207.61C110.121 207.669 110.178 207.752 110.205 207.846C110.454 208.705 110.522 209.738 110.414 211C110.402 211.112 110.35 211.215 110.266 211.29C110.182 211.366 110.074 211.407 109.961 211.407ZM87.1929 210.501H109.539C109.59 209.804 109.549 209.104 109.416 208.418H87.0045C87.0684 209.4 87.1408 210.107 87.1929 210.509V210.501Z" fill="#262424"/>
<path d="M106.866 188.164L107.149 195.519H102.395L101.512 188.164H106.866Z" fill="white"/>
<path d="M107.152 195.973H102.398C102.288 195.973 102.181 195.932 102.098 195.859C102.015 195.785 101.962 195.684 101.949 195.574L101.066 188.219C101.058 188.156 101.064 188.092 101.084 188.031C101.103 187.97 101.135 187.914 101.177 187.867C101.219 187.819 101.271 187.781 101.33 187.755C101.388 187.729 101.451 187.715 101.515 187.715H106.871C106.988 187.715 107.101 187.761 107.185 187.842C107.269 187.923 107.319 188.034 107.324 188.151L107.605 195.505C107.607 195.566 107.597 195.626 107.575 195.683C107.553 195.74 107.52 195.791 107.478 195.835C107.436 195.878 107.385 195.913 107.329 195.937C107.273 195.96 107.213 195.973 107.152 195.973ZM102.802 195.066H106.683L106.435 188.618H102.026L102.802 195.066Z" fill="#262424"/>
<path d="M107.57 158.247V184.652H98.3141L93.6443 163.526L59.357 158.538C59.357 158.538 50.1016 157.558 50.1016 137.637H63.9915L66.1791 138.309L76.1632 141.391L101.658 151.213L103.139 151.785C104.444 152.29 105.566 153.177 106.356 154.33C107.147 155.484 107.57 156.849 107.57 158.247Z" fill="#B0CDFE"/>
<path d="M94.3265 167.073C94.2234 167.073 94.1234 167.038 94.043 166.973C93.9626 166.909 93.9065 166.819 93.8839 166.718L93.2663 163.929L59.2954 158.987C59.0918 158.964 56.7275 158.626 54.38 155.85C51.2381 152.137 49.6445 146.009 49.6445 137.637C49.6445 137.517 49.6923 137.402 49.7774 137.317C49.8624 137.232 49.9778 137.184 50.098 137.184C50.2183 137.184 50.3337 137.232 50.4187 137.317C50.5038 137.402 50.5516 137.517 50.5516 137.637C50.5516 156.928 59.3123 158.079 59.4015 158.088H59.4183L93.7089 163.077C93.7999 163.09 93.8846 163.131 93.9519 163.193C94.0193 163.256 94.066 163.337 94.0859 163.427L94.7691 166.522C94.784 166.588 94.7838 166.657 94.7685 166.723C94.7531 166.789 94.7231 166.851 94.6806 166.904C94.6381 166.957 94.5842 166.999 94.5229 167.029C94.4616 167.058 94.3945 167.073 94.3265 167.073Z" fill="#262424"/>
<path d="M54.4483 144.871C54.5442 145.89 54.7747 147.921 55.2762 150.511C55.3012 150.632 55.3596 150.743 55.4447 150.832C55.5297 150.921 55.6381 150.985 55.7575 151.015L59.7844 152.066C59.9408 152.107 60.1066 152.089 60.2506 152.016L62.6873 150.782C62.8089 150.72 62.9085 150.622 62.9723 150.502C63.0362 150.382 63.0612 150.244 63.044 150.109L62.4063 144.733C62.3873 144.573 62.31 144.425 62.1891 144.317C62.0681 144.209 61.9119 144.15 61.75 144.15H55.1029C55.0112 144.15 54.9205 144.17 54.8368 144.207C54.753 144.244 54.6779 144.298 54.6163 144.366C54.5547 144.434 54.5079 144.514 54.479 144.601C54.4501 144.688 54.4396 144.78 54.4483 144.871Z" fill="white"/>
<path d="M102.772 182.974C102.664 182.974 102.559 182.936 102.477 182.865C102.395 182.795 102.341 182.698 102.324 182.591L98.9587 160.942L70.8558 151.785C69.8271 151.449 68.9086 150.842 68.1975 150.027C67.4865 149.211 67.0095 148.219 66.8171 147.155L65.7266 141.162C65.7156 141.104 65.7162 141.044 65.7284 140.986C65.7406 140.927 65.7641 140.872 65.7977 140.823C65.8313 140.774 65.8743 140.732 65.9242 140.699C65.974 140.666 66.0299 140.644 66.0884 140.633C66.147 140.622 66.2072 140.622 66.2655 140.635C66.3238 140.647 66.3792 140.67 66.4284 140.704C66.4776 140.737 66.5197 140.78 66.5524 140.83C66.585 140.88 66.6075 140.936 66.6185 140.994L67.709 146.987C67.8726 147.891 68.2781 148.734 68.8825 149.426C69.487 150.118 70.2677 150.633 71.1419 150.918L99.5006 160.164C99.5803 160.19 99.6513 160.237 99.7056 160.301C99.76 160.365 99.7956 160.442 99.8086 160.525L103.221 182.45C103.231 182.509 103.228 182.569 103.214 182.627C103.2 182.685 103.175 182.739 103.14 182.787C103.105 182.835 103.06 182.876 103.009 182.907C102.958 182.938 102.902 182.959 102.843 182.968C102.819 182.972 102.796 182.974 102.772 182.974Z" fill="#262424"/>
<path d="M67.0819 146.533C66.9798 146.534 66.8803 146.501 66.7997 146.438C66.7191 146.376 66.662 146.287 66.6379 146.188C66.6137 146.089 66.6238 145.985 66.6665 145.892C66.7093 145.799 66.7821 145.724 66.8733 145.678L68.3424 144.921C68.7136 144.729 69.0174 144.428 69.2134 144.059C69.4094 143.69 69.4882 143.27 69.4396 142.855L68.9734 138.967C68.9663 138.908 68.971 138.848 68.9871 138.791C69.0032 138.733 69.0304 138.68 69.0672 138.633C69.104 138.586 69.1496 138.547 69.2015 138.518C69.2534 138.489 69.3106 138.47 69.3697 138.463C69.4288 138.456 69.4888 138.461 69.5461 138.477C69.6034 138.493 69.657 138.52 69.7038 138.557C69.7506 138.594 69.7897 138.639 69.8188 138.691C69.848 138.743 69.8666 138.8 69.8737 138.859L70.3399 142.749C70.4099 143.348 70.2959 143.953 70.013 144.485C69.7301 145.018 69.2918 145.451 68.7563 145.728L67.2906 146.483C67.2261 146.516 67.1545 146.534 67.0819 146.533Z" fill="#262424"/>
<path d="M107.568 158.248V161.302C107.429 161.31 107.289 161.315 107.148 161.315C105.969 161.315 104.813 160.998 103.8 160.396C102.788 159.794 101.956 158.931 101.393 157.897C100.831 156.863 100.557 155.696 100.602 154.52C100.648 153.344 101.009 152.202 101.65 151.214L103.131 151.785C104.437 152.289 105.56 153.176 106.352 154.329C107.144 155.483 107.568 156.849 107.568 158.248Z" fill="#80AFFD"/>
<path d="M107.363 190.225H98.5278C98.2846 190.225 98.05 190.135 97.8694 189.972C97.6889 189.809 97.5751 189.585 97.5501 189.344L96.8568 182.65C96.8426 182.513 96.8574 182.375 96.9001 182.244C96.9428 182.114 97.0125 181.993 97.1046 181.891C97.1968 181.789 97.3094 181.708 97.4351 181.652C97.5608 181.596 97.6969 181.567 97.8345 181.567H107.709C107.843 181.567 107.974 181.594 108.097 181.647C108.219 181.699 108.33 181.776 108.422 181.873C108.513 181.969 108.584 182.084 108.631 182.209C108.677 182.333 108.697 182.466 108.69 182.599L108.349 189.293C108.336 189.546 108.226 189.783 108.042 189.956C107.859 190.13 107.615 190.226 107.363 190.225Z" fill="#FEA151"/>
<path d="M122.727 210.961H99.5614C99.5614 210.961 99.3931 209.9 99.2871 207.972C99.0722 203.516 99.2699 199.049 99.8778 194.629H109.302C109.302 194.629 111.657 200.727 115.376 203.082C118.358 204.97 121.628 204.85 122.528 207.972C122.757 208.744 122.835 209.714 122.727 210.961Z" fill="#B0CDFE"/>
<path d="M122.729 210.961H99.5634C99.5634 210.961 99.3951 209.9 99.2891 207.972H122.537C122.759 208.744 122.837 209.714 122.729 210.961Z" fill="white"/>
<path d="M122.725 211.407H99.5598C99.4517 211.407 99.3471 211.368 99.265 211.298C99.1829 211.228 99.1287 211.13 99.1122 211.024C99.1122 210.98 98.9439 209.917 98.8328 207.998C98.8292 207.936 98.8382 207.874 98.8592 207.816C98.8803 207.758 98.9131 207.705 98.9555 207.66C98.9979 207.615 99.0491 207.58 99.1058 207.555C99.1626 207.531 99.2237 207.518 99.2855 207.519H122.534C122.632 207.518 122.728 207.55 122.806 207.61C122.885 207.669 122.942 207.752 122.969 207.846C123.218 208.705 123.286 209.738 123.178 211C123.166 211.112 123.114 211.215 123.03 211.29C122.946 211.366 122.838 211.407 122.725 211.407ZM99.957 210.501H122.303C122.354 209.804 122.313 209.104 122.18 208.418H99.7634C99.8324 209.4 99.9082 210.107 99.957 210.509V210.501Z" fill="#262424"/>
<path d="M57.969 78.2857C57.969 78.2857 59.0999 81.4984 63.7343 83.1915C68.8954 85.0775 71.4214 77.5269 71.4781 70.8695C71.5347 64.2122 55.2563 64.6197 57.969 78.2857Z" fill="white"/>
<path d="M65.2905 84.6864C64.6902 84.6803 64.0953 84.565 63.5315 84.3453C58.6863 82.5188 57.4497 79.0497 57.3992 78.9038C57.3895 78.876 57.3817 78.8475 57.376 78.8185C56.1647 72.5356 58.6968 69.3739 60.3252 68.0477C63.2556 65.649 67.1528 65.6467 69.489 66.8876C71.1743 67.7852 72.0865 69.2482 72.0738 71.0254C72.038 75.4953 70.9089 81.5225 67.8606 83.8157C67.1116 84.3875 66.212 84.6923 65.2905 84.6864ZM58.4799 78.5246C58.6231 78.8948 59.8049 81.6661 63.9107 83.2031C65.141 83.6676 66.2153 83.5397 67.1886 82.8127C69.7165 80.9233 70.892 75.5244 70.9278 71.0142C70.9426 69.2751 69.7102 68.3596 68.9729 67.9692C67.0011 66.9235 63.54 66.9325 61.0057 69.0059C59.2951 70.4083 57.4687 73.1975 58.4799 78.5246Z" fill="#262424"/>
<path d="M58.1542 79.2812L56.4648 86.5016L64.4321 87.0892L64.8735 79.5172L58.1542 79.2812Z" fill="white"/>
<path d="M64.4929 87.6901H64.4509L56.9874 87.1001C56.9062 87.0937 56.8272 87.0691 56.756 87.0279C56.6847 86.9867 56.6229 86.9298 56.5746 86.8613C56.5264 86.7927 56.4929 86.7141 56.4765 86.6307C56.46 86.5474 56.461 86.4613 56.4794 86.3784L58.062 79.1396C58.0919 79.0061 58.1651 78.8875 58.2692 78.804C58.3732 78.7204 58.5017 78.677 58.6329 78.6812L64.9295 78.9181C65.0047 78.9209 65.0787 78.9394 65.147 78.9725C65.2154 79.0056 65.2767 79.0527 65.3273 79.1109C65.378 79.1692 65.417 79.2375 65.442 79.3117C65.467 79.386 65.4776 79.4647 65.4731 79.5432L65.0533 87.1461C65.0422 87.2938 64.9785 87.4316 64.8746 87.5324C64.7708 87.6332 64.6346 87.6895 64.4929 87.6901ZM57.7283 85.9638L63.9619 86.4574L64.3103 80.0565L59.0631 79.8591L57.7283 85.9638Z" fill="#262424"/>
<path d="M62.4176 61.8437C62.4176 61.8437 58.6069 59.7082 54.5715 63.6269C50.5361 67.5456 54.403 77.0316 58.1077 80.4826H65.0552L69.594 72.0836L71.7469 74.3088C72.7831 73.1091 73.4756 71.6383 73.7477 70.0594C74.0197 68.4804 73.8607 66.855 73.2882 65.3631C71.3184 60.0606 63.986 61.2672 62.4176 61.8437Z" fill="#262424"/>
<path d="M69.5151 72.1227L69.5391 72.0438C69.5391 72.0438 71.1585 69.0593 73.5875 70.8372C76.0165 72.6151 73.1025 79.4519 69.2144 76.9257C68.9485 75.3224 69.0516 73.6744 69.5151 72.1227Z" fill="white"/>
<path d="M70.9118 78.08C70.1915 78.0672 69.4887 77.8443 68.8821 77.4362C68.8153 77.3936 68.7581 77.3365 68.714 77.2688C68.6699 77.2011 68.6401 77.1243 68.6266 77.0435C68.3422 75.34 68.453 73.5896 68.9495 71.9406L68.974 71.8612C68.9858 71.8216 69.0015 71.7835 69.0211 71.7474C69.0579 71.6809 69.9388 70.1037 71.4494 69.7453C72.2793 69.5479 73.1174 69.7453 73.9411 70.3462C75.5335 71.4964 75.3045 74.1702 74.1803 75.9877C73.332 77.359 72.1567 78.08 70.9118 78.08ZM69.6711 76.5779C71.6252 77.6508 72.9048 75.9341 73.2584 75.3504C74.1047 73.9813 74.3315 72.0242 73.3177 71.2903C72.7515 70.8805 72.22 70.741 71.6947 70.8612C70.781 71.0758 70.1412 72.0436 70.0043 72.2667C69.5819 73.6598 69.4679 75.1358 69.6711 76.5822V76.5779Z" fill="#262424"/>
<path d="M54.0586 88.5003L55.1093 84.3101C55.1093 84.3101 59.8269 82.2349 66.4316 84.67L67.2721 88.8914L54.0586 88.5003Z" fill="#B0CDFE"/>
<path d="M48.3035 89.686C48.3035 89.686 53.9241 87.3762 62.6292 88.005C71.3344 88.6337 76.5966 91.1755 76.5966 91.1755C76.5966 91.1755 79.7249 105.878 79.7855 110.046C79.8461 114.213 74.769 117.715 74.769 117.715L76.9146 141.536H36.5625C36.5625 141.536 37.1969 104.404 48.3035 89.686Z" fill="#FEA151"/>
<path d="M38.8341 117.846C38.8095 117.848 38.7847 117.848 38.7601 117.846C38.7013 117.836 38.6449 117.816 38.5942 117.784C38.5434 117.753 38.4994 117.712 38.4645 117.664C38.4296 117.616 38.4047 117.561 38.391 117.503C38.3773 117.445 38.3752 117.385 38.3848 117.326C40.4934 104.419 43.7092 95.0285 47.9415 89.4204C47.9773 89.373 48.0221 89.333 48.0734 89.3029C48.1246 89.2727 48.1813 89.2529 48.2402 89.2446C48.2991 89.2364 48.3591 89.2398 48.4167 89.2546C48.4743 89.2695 48.5284 89.2956 48.5759 89.3314C48.6234 89.3671 48.6634 89.4119 48.6936 89.4631C48.7238 89.5143 48.7436 89.5709 48.7519 89.6298C48.7602 89.6886 48.7568 89.7485 48.7419 89.8061C48.727 89.8636 48.7009 89.9177 48.6651 89.9651C44.522 95.4555 41.3634 104.712 39.2784 117.473C39.2599 117.577 39.2052 117.672 39.124 117.74C39.0428 117.808 38.9402 117.846 38.8341 117.846Z" fill="#262424"/>
<path d="M75.8177 139.365H37.8871C37.7668 139.365 37.6515 139.318 37.5664 139.233C37.4814 139.148 37.4336 139.032 37.4336 138.912C37.4336 138.792 37.4814 138.677 37.5664 138.592C37.6515 138.507 37.7668 138.459 37.8871 138.459H75.8177C75.938 138.459 76.0533 138.507 76.1384 138.592C76.2234 138.677 76.2712 138.792 76.2712 138.912C76.2712 139.032 76.2234 139.148 76.1384 139.233C76.0533 139.318 75.938 139.365 75.8177 139.365Z" fill="#262424"/>
<path d="M51.532 65.6275L51.065 68.7404C51.0316 68.9727 51.08 69.2104 51.2 69.404C51.3199 69.5977 51.5023 69.7324 51.7092 69.7802L53.9146 70.2555C54.0249 70.2791 54.1383 70.2773 54.2479 70.2502C54.3576 70.2231 54.461 70.1713 54.552 70.0979C54.6429 70.0245 54.7193 69.9312 54.7766 69.8236C54.8338 69.716 54.8706 69.5965 54.8848 69.4725L55.2527 66.2302C55.2793 65.9925 55.2212 65.7527 55.0907 65.5622C54.9603 65.3718 54.7679 65.2459 54.555 65.2116L52.4488 64.8742C52.2381 64.8434 52.0249 64.9047 51.854 65.0452C51.683 65.1856 51.5676 65.3944 51.532 65.6275Z" fill="white"/>
<path d="M54.0962 70.8726C54.0091 70.8723 53.9222 70.863 53.8367 70.8448L51.5622 70.3649C51.2111 70.2904 50.9004 70.0698 50.696 69.7499C50.4916 69.43 50.4095 69.0359 50.4672 68.6512L50.9489 65.5172C51.0084 65.131 51.2041 64.7854 51.4944 64.5545C51.7846 64.3235 52.1462 64.2254 52.5019 64.2811L54.6741 64.6218C55.0315 64.6776 55.3545 64.8844 55.5733 65.1973C55.7921 65.5103 55.8892 65.9045 55.8438 66.2948L55.4644 69.568C55.4209 69.9296 55.258 70.2615 55.0062 70.5016C54.7543 70.7417 54.4308 70.8736 54.0962 70.8726ZM52.3053 65.4144C52.2303 65.4147 52.1578 65.4439 52.1006 65.4968C52.0434 65.5498 52.0052 65.623 51.9927 65.7036L51.5111 68.8376C51.4968 68.9264 51.5151 69.0179 51.5622 69.092C51.6093 69.1662 51.6814 69.2172 51.7627 69.2339L54.0372 69.7137C54.0798 69.7229 54.1237 69.7224 54.1662 69.7123C54.2087 69.7022 54.2488 69.6827 54.284 69.6549C54.3192 69.6272 54.3488 69.5919 54.3709 69.5511C54.3931 69.5104 54.4073 69.4651 54.4127 69.4181L54.798 66.1427C54.8081 66.0528 54.7856 65.9622 54.7353 65.8902C54.685 65.8182 54.6108 65.7704 54.5287 65.7571L52.3564 65.4165L52.3053 65.4144Z" fill="#262424"/>
<path d="M41.1615 106.957C26.3198 113.966 22.004 97.8228 26.0901 96.0663C30.1761 94.3098 36.3611 90.6768 33.2549 83.8656C30.1487 77.0543 28.1615 65.8224 36.3906 61.3132C44.6196 56.804 51.6432 65.9256 51.6453 65.9298C51.6727 66.0056 51.7085 67.2419 50.9815 68.9942C47.6414 69.5292 45.924 72.3493 47.9238 78.9709C50.0522 86.0433 56.0053 99.9479 41.1615 106.957Z" fill="#262424"/>
<path d="M113.205 129.923C112.24 130.931 107.444 130.353 107.444 130.353C107.444 130.353 105.489 130.931 104.626 130.689C103.762 130.447 102.606 129.128 102.606 129.128C102.606 129.128 78.7406 132.238 77.5778 127.11L71.4961 115.223L82.4344 109.439L86.6044 119.734L103.469 123.546L104.255 123.35C105.019 123.145 105.805 123.032 106.596 123.013C107.82 122.989 109.025 123.311 110.073 123.943C111.121 124.574 111.968 125.488 112.518 126.581C113.21 127.917 113.735 129.37 113.205 129.923Z" fill="white"/>
<path d="M105.141 131.204C104.928 131.208 104.715 131.184 104.508 131.133C103.715 130.918 102.803 130.015 102.426 129.62C101.248 129.765 95.9207 130.388 90.5357 130.508C82.13 130.694 77.7463 129.64 77.1472 127.282L71.0891 115.434C71.0346 115.328 71.0242 115.204 71.0601 115.091C71.096 114.977 71.1754 114.882 71.281 114.827L82.2192 109.042C82.2753 109.012 82.337 108.995 82.4004 108.99C82.4637 108.986 82.5273 108.995 82.587 109.016C82.6467 109.038 82.7011 109.072 82.7467 109.116C82.7924 109.16 82.8282 109.214 82.852 109.272L86.9328 119.347L103.471 123.081L104.145 122.913C104.94 122.697 105.759 122.577 106.583 122.555C107.892 122.53 109.181 122.874 110.302 123.549C111.423 124.224 112.331 125.201 112.92 126.369C113.942 128.373 114.134 129.602 113.525 130.235C112.493 131.31 108.493 130.93 107.466 130.812C107.135 130.911 106.024 131.204 105.141 131.204ZM102.605 128.682C102.669 128.683 102.732 128.697 102.79 128.724C102.848 128.75 102.899 128.789 102.941 128.837C103.355 129.311 104.212 130.114 104.742 130.259C105.272 130.404 106.605 130.126 107.313 129.923C107.372 129.905 107.434 129.9 107.495 129.908C109.395 130.135 112.318 130.193 112.88 129.613C112.927 129.565 113.292 129.079 112.123 126.783C111.611 125.767 110.823 124.917 109.849 124.33C108.874 123.743 107.754 123.442 106.617 123.462C105.861 123.486 105.111 123.598 104.382 123.799L103.588 123.99C103.518 124.007 103.446 124.007 103.377 123.99L86.5121 120.176C86.4407 120.16 86.3744 120.126 86.3187 120.079C86.263 120.032 86.2196 119.971 86.1923 119.904L82.2108 110.074L72.1038 115.417L77.9785 126.915C77.9958 126.949 78.0088 126.984 78.0172 127.021C78.7981 130.462 93.4755 129.879 102.544 128.689L102.605 128.682Z" fill="#262424"/>
<path d="M76.9824 91.6007L84.5264 109.97C82.4347 116.762 78.3606 119.956 70.793 116.83C70.793 116.83 66.2107 104.286 66.4379 97.0222C66.665 89.7583 74.1384 88.4823 76.9824 91.6007Z" fill="#FEA151"/>
<path d="M69.747 114.191C69.6509 114.191 69.5572 114.16 69.4795 114.104C69.4018 114.047 69.344 113.968 69.3145 113.876C68.0019 109.768 65.8226 102.109 65.9808 97.0102C66.0767 93.9035 67.5223 91.4424 69.9455 90.2606C70.0535 90.208 70.178 90.2004 70.2917 90.2395C70.4053 90.2786 70.4987 90.3612 70.5514 90.4691C70.604 90.577 70.6116 90.7014 70.5725 90.8148C70.5333 90.9283 70.4507 91.0217 70.3427 91.0743C69.1024 91.6795 67.004 93.2597 66.8862 97.0371C66.7314 102.003 68.882 109.546 70.1778 113.599C70.1998 113.667 70.2055 113.739 70.1942 113.81C70.183 113.88 70.1553 113.947 70.1133 114.005C70.0713 114.062 70.0162 114.109 69.9525 114.142C69.8888 114.174 69.8184 114.191 69.747 114.191Z" fill="#262424"/>
<path d="M75.7431 116.242C74.1767 116.217 72.6397 115.813 71.2635 115.065C71.1597 115.005 71.0843 114.905 71.0538 114.789C71.0234 114.673 71.0404 114.549 71.1011 114.446C71.1618 114.342 71.2612 114.267 71.3775 114.236C71.4938 114.206 71.6174 114.223 71.7212 114.283C71.7515 114.302 74.8361 116.059 77.8836 114.974C79.9384 114.24 81.5353 112.391 82.6325 109.476C82.6482 109.414 82.6767 109.356 82.7162 109.306C82.7558 109.256 82.8055 109.215 82.862 109.186C82.9186 109.156 82.9807 109.139 83.0444 109.135C83.108 109.131 83.1718 109.141 83.2314 109.163C83.2911 109.186 83.3453 109.221 83.3905 109.266C83.4358 109.311 83.471 109.365 83.4939 109.424C83.5168 109.484 83.5268 109.547 83.5234 109.611C83.52 109.674 83.5031 109.737 83.4739 109.793C82.2775 112.977 80.4937 115.005 78.1697 115.833C77.3901 116.107 76.5694 116.245 75.7431 116.242Z" fill="#262424"/>
<path d="M98.3922 210.961C98.6749 210.961 98.9542 210.9 99.2111 210.782C99.4679 210.664 99.6962 210.492 99.8804 210.278C100.065 210.063 100.2 209.812 100.278 209.541C100.356 209.269 100.375 208.984 100.333 208.705L92.9282 159.994H60.0359L52.6316 208.705C52.5892 208.984 52.6076 209.269 52.6857 209.541C52.7637 209.812 52.8994 210.063 53.0837 210.278C53.2679 210.492 53.4962 210.664 53.753 210.782C54.0099 210.9 54.2892 210.961 54.5719 210.961C55.0211 210.961 55.4568 210.807 55.8062 210.525C56.1556 210.243 56.3976 209.85 56.4919 209.411L65.9679 165.262H86.9979L96.4738 209.411C96.5681 209.849 96.8099 210.242 97.159 210.525C97.508 210.807 97.9433 210.961 98.3922 210.961Z" fill="#FEA151"/>
<path d="M92.1439 189.7C92.0403 189.7 91.94 189.664 91.8595 189.599C91.779 189.534 91.7232 189.443 91.7014 189.342L90.2171 182.424C90.2046 182.366 90.2037 182.306 90.2145 182.247C90.2252 182.189 90.2474 182.133 90.2798 182.083C90.3121 182.033 90.354 181.99 90.403 181.956C90.452 181.923 90.5072 181.899 90.5655 181.886C90.6237 181.874 90.6838 181.873 90.7424 181.884C90.801 181.894 90.8568 181.917 90.9068 181.949C90.9569 181.981 91 182.023 91.0338 182.072C91.0676 182.121 91.0915 182.176 91.1039 182.234L92.5882 189.152C92.6022 189.218 92.6013 189.286 92.5855 189.352C92.5697 189.418 92.5394 189.479 92.4968 189.532C92.4542 189.584 92.4005 189.627 92.3394 189.656C92.2784 189.685 92.2116 189.7 92.1439 189.7Z" fill="#262424"/>
<path d="M76.0362 210.961C76.3189 210.961 76.5982 210.9 76.8551 210.782C77.1119 210.664 77.3402 210.492 77.5245 210.278C77.7087 210.063 77.8444 209.812 77.9224 209.541C78.0005 209.269 78.0189 208.984 77.9765 208.705L70.5722 159.994H37.6766L30.2722 208.705C30.2298 208.984 30.2483 209.269 30.3263 209.541C30.4043 209.812 30.5401 210.063 30.7243 210.278C30.9085 210.492 31.1368 210.664 31.3937 210.782C31.6505 210.9 31.9298 210.961 32.2125 210.961C32.6617 210.961 33.0974 210.807 33.4468 210.525C33.7962 210.243 34.0383 209.85 34.1326 209.411L43.6085 165.262H64.6419L74.1178 209.411C74.2121 209.849 74.4539 210.242 74.803 210.525C75.152 210.807 75.5873 210.961 76.0362 210.961Z" fill="#FEA151"/>
<path d="M71.2773 165.079C71.1689 165.079 71.0641 165.04 70.982 164.97C70.8998 164.899 70.8458 164.801 70.8297 164.694L70.1262 160.063C70.1082 159.944 70.1381 159.823 70.2094 159.726C70.2807 159.629 70.3876 159.565 70.5066 159.547C70.6255 159.529 70.7467 159.558 70.8436 159.63C70.9405 159.701 71.0051 159.808 71.0232 159.927L71.7266 164.558C71.7357 164.617 71.733 164.677 71.7188 164.735C71.7046 164.793 71.6791 164.847 71.6437 164.895C71.6084 164.943 71.5639 164.983 71.5129 165.014C71.4618 165.045 71.4052 165.065 71.3463 165.074C71.3234 165.078 71.3004 165.079 71.2773 165.079Z" fill="#262424"/>
<path d="M65.0525 167.67C64.9489 167.669 64.8486 167.634 64.7681 167.568C64.6876 167.503 64.6318 167.413 64.6099 167.311L64.2734 165.716H60.0512C59.9309 165.716 59.8155 165.668 59.7305 165.583C59.6454 165.499 59.5977 165.383 59.5977 165.263C59.5977 165.143 59.6454 165.028 59.7305 164.943C59.8155 164.858 59.9309 164.81 60.0512 164.81H64.6318C64.7354 164.81 64.836 164.846 64.9165 164.911C64.9971 164.976 65.0528 165.067 65.0744 165.168L65.4934 167.122C65.5074 167.187 65.5065 167.255 65.4909 167.321C65.4753 167.386 65.4453 167.448 65.4031 167.5C65.3609 167.552 65.3075 167.595 65.2469 167.624C65.1863 167.654 65.1198 167.669 65.0525 167.67Z" fill="#262424"/>
<path d="M36.9651 114.047H66.5623C67.5603 114.047 68.5262 114.399 69.2899 115.041C70.0537 115.682 70.5662 116.573 70.7374 117.555L76.8965 152.974C76.9918 153.523 77.2785 154.021 77.7059 154.38C78.1333 154.739 78.674 154.935 79.2322 154.934H91.3316C92.2434 154.934 93.1179 155.296 93.7626 155.94C94.4074 156.584 94.7696 157.458 94.7696 158.368C94.7696 158.819 94.6807 159.266 94.5079 159.683C94.3351 160.099 94.0819 160.478 93.7626 160.797C93.4434 161.116 93.0644 161.369 92.6473 161.541C92.2301 161.714 91.7831 161.803 91.3316 161.803H37.8452C36.8721 161.804 35.9284 161.47 35.1726 160.858C34.4169 160.246 33.8952 159.392 33.6954 158.441C32.2818 151.56 29.6751 135.107 32.7866 117.528C32.9623 116.55 33.4775 115.664 34.2416 115.028C35.0057 114.391 35.97 114.044 36.9651 114.047Z" fill="white"/>
<path d="M91.3347 162.255H37.8516C36.7744 162.251 35.7311 161.878 34.8954 161.199C34.0598 160.52 33.4823 159.576 33.2592 158.523C31.9331 152.116 29.1885 135.29 32.3538 117.447C32.5467 116.365 33.1153 115.385 33.9599 114.68C34.8045 113.975 35.8708 113.59 36.9715 113.593H66.5688C67.6744 113.591 68.7449 113.98 69.5909 114.691C70.437 115.402 71.0039 116.389 71.1914 117.478L77.3522 152.905C77.4285 153.348 77.6597 153.751 78.0046 154.041C78.3496 154.331 78.7862 154.489 79.2369 154.488H91.3364C92.3331 154.539 93.2721 154.971 93.9594 155.694C94.6468 156.416 95.0299 157.375 95.0297 158.372C95.0295 159.369 94.6459 160.328 93.9583 161.051C93.2706 161.773 92.3314 162.204 91.3347 162.255ZM36.9799 114.499C36.0916 114.494 35.2302 114.803 34.5474 115.371C33.8647 115.938 33.4043 116.728 33.2474 117.602C30.1006 135.295 32.8301 151.985 34.1393 158.34C34.3187 159.189 34.7841 159.95 35.4579 160.498C36.1316 161.046 36.9729 161.346 37.8415 161.349H91.3347C91.7326 161.358 92.1283 161.288 92.4987 161.142C92.869 160.997 93.2065 160.779 93.4913 160.501C93.776 160.223 94.0023 159.891 94.1568 159.525C94.3113 159.159 94.3909 158.765 94.3909 158.367C94.3909 157.97 94.3113 157.576 94.1568 157.21C94.0023 156.843 93.776 156.511 93.4913 156.234C93.2065 155.956 92.869 155.738 92.4987 155.592C92.1283 155.447 91.7326 155.377 91.3347 155.386H79.2386C78.5746 155.387 77.9317 155.153 77.4235 154.726C76.9154 154.299 76.5748 153.706 76.462 153.053L70.3029 117.634C70.1516 116.756 69.6942 115.96 69.0117 115.386C68.3292 114.813 67.4656 114.499 66.5738 114.5H36.9715L36.9799 114.499Z" fill="#262424"/>
<path d="M178.527 185.367L180.634 194.144L185.455 193.794L184.755 184.16L178.527 185.367Z" fill="white"/>
<path d="M180.631 194.596C180.528 194.595 180.429 194.561 180.349 194.498C180.269 194.435 180.212 194.347 180.188 194.248L178.083 185.471C178.068 185.411 178.066 185.349 178.077 185.288C178.087 185.228 178.11 185.17 178.143 185.118C178.176 185.066 178.22 185.022 178.271 184.987C178.322 184.953 178.379 184.929 178.44 184.918L184.666 183.711C184.729 183.698 184.794 183.699 184.857 183.714C184.919 183.729 184.978 183.757 185.029 183.796C185.08 183.835 185.122 183.884 185.153 183.941C185.183 183.998 185.202 184.06 185.206 184.124L185.906 193.758C185.914 193.878 185.875 193.997 185.796 194.088C185.717 194.179 185.606 194.235 185.485 194.244L180.663 194.594H180.629L180.631 194.596ZM179.079 185.719L180.984 193.659L184.967 193.37L184.336 184.701L179.079 185.719Z" fill="#262424"/>
<path d="M188.838 210.961H167.192C166.986 209.891 166.922 208.798 167.002 207.711C167.125 206.266 167.599 204.724 168.936 203.989C169.865 203.457 170.73 202.821 171.515 202.093C173.917 199.923 176.544 196.478 178.516 192.084H187.017C187.933 197.253 188.518 202.475 188.768 207.718C188.813 208.791 188.838 209.878 188.838 210.961Z" fill="#B0CDFE"/>
<path d="M188.838 210.961H167.192C166.986 209.891 166.922 208.798 167.002 207.711H188.769C188.813 208.791 188.838 209.878 188.838 210.961Z" fill="white"/>
<path d="M188.84 211.417H167.194C167.09 211.417 166.989 211.381 166.908 211.315C166.827 211.25 166.771 211.159 166.75 211.057C166.533 209.943 166.466 208.805 166.551 207.673C166.561 207.559 166.613 207.454 166.697 207.377C166.782 207.3 166.892 207.257 167.006 207.258H188.771C188.888 207.258 189.001 207.303 189.086 207.384C189.17 207.465 189.22 207.576 189.225 207.693C189.271 208.814 189.294 209.914 189.294 210.961C189.295 211.021 189.283 211.08 189.26 211.135C189.238 211.19 189.204 211.241 189.162 211.283C189.12 211.325 189.07 211.359 189.014 211.382C188.959 211.405 188.9 211.417 188.84 211.417ZM167.574 210.507H188.384C188.384 209.749 188.362 208.966 188.334 208.167H167.431C167.405 208.95 167.453 209.733 167.576 210.507H167.574Z" fill="#262424"/>
<path d="M171.583 210.961H167.192C166.986 209.891 166.922 208.799 167.002 207.712C167.125 206.266 167.599 204.724 168.936 203.99C169.865 203.457 170.73 202.821 171.515 202.094C171.115 203.42 170.632 206.284 171.583 210.961Z" fill="white"/>
<path d="M171.585 211.417H167.194C167.09 211.417 166.989 211.381 166.908 211.316C166.827 211.25 166.771 211.159 166.75 211.057C166.533 209.943 166.466 208.805 166.551 207.673C166.72 205.691 167.468 204.281 168.719 203.591C169.617 203.076 170.454 202.46 171.213 201.756C171.287 201.689 171.38 201.649 171.479 201.641C171.578 201.632 171.676 201.657 171.76 201.709C171.844 201.762 171.909 201.841 171.944 201.934C171.979 202.026 171.983 202.128 171.955 202.223C171.583 203.475 171.097 206.258 172.032 210.87C172.046 210.937 172.045 211.005 172.029 211.071C172.013 211.137 171.982 211.198 171.939 211.25C171.896 211.303 171.842 211.345 171.781 211.374C171.719 211.402 171.652 211.417 171.585 211.417ZM167.574 210.507H171.033C170.423 207.219 170.528 204.845 170.78 203.307C170.268 203.709 169.726 204.07 169.158 204.388C168.174 204.931 167.601 206.069 167.458 207.75C167.39 208.671 167.429 209.596 167.574 210.507Z" fill="#262424"/>
<path d="M179.836 203.339C181.011 203.339 181.965 201.901 181.965 200.126C181.965 198.352 181.011 196.914 179.836 196.914C178.66 196.914 177.707 198.352 177.707 200.126C177.707 201.901 178.66 203.339 179.836 203.339Z" fill="white"/>
<path d="M179.835 203.794C178.386 203.794 177.25 202.184 177.25 200.126C177.25 198.069 178.386 196.46 179.835 196.46C181.284 196.46 182.42 198.07 182.42 200.126C182.42 202.182 181.284 203.794 179.835 203.794ZM179.835 197.369C178.928 197.369 178.16 198.632 178.16 200.126C178.16 201.621 178.928 202.885 179.835 202.885C180.742 202.885 181.509 201.622 181.509 200.126C181.509 198.63 180.742 197.369 179.835 197.369Z" fill="#262424"/>
<path d="M184.522 207.293C184.405 207.293 184.293 207.248 184.208 207.167C184.124 207.086 184.074 206.975 184.07 206.858C183.748 198.284 182.604 192.905 182.592 192.846C182.58 192.788 182.579 192.728 182.589 192.669C182.6 192.611 182.622 192.555 182.654 192.505C182.687 192.455 182.728 192.412 182.777 192.378C182.826 192.344 182.882 192.32 182.94 192.307C182.998 192.295 183.058 192.294 183.117 192.304C183.175 192.315 183.231 192.337 183.281 192.369C183.331 192.402 183.375 192.443 183.409 192.492C183.443 192.541 183.467 192.596 183.479 192.654C183.491 192.708 184.657 198.155 184.975 206.824C184.977 206.884 184.968 206.943 184.947 206.999C184.926 207.054 184.895 207.106 184.855 207.149C184.814 207.193 184.765 207.228 184.711 207.253C184.657 207.277 184.599 207.291 184.539 207.293H184.522Z" fill="#262424"/>
<path d="M187.187 207.293C187.069 207.293 186.957 207.248 186.872 207.167C186.788 207.086 186.738 206.975 186.734 206.858C186.412 198.284 185.268 192.905 185.256 192.846C185.231 192.729 185.253 192.606 185.318 192.505C185.384 192.404 185.486 192.333 185.604 192.307C185.721 192.282 185.844 192.304 185.946 192.369C186.047 192.434 186.118 192.537 186.143 192.655C186.155 192.708 187.321 198.155 187.639 206.824C187.641 206.884 187.632 206.943 187.611 206.999C187.591 207.054 187.559 207.106 187.519 207.149C187.478 207.193 187.429 207.228 187.375 207.253C187.321 207.277 187.263 207.291 187.203 207.293H187.187Z" fill="#262424"/>
<path d="M160.621 96.5464C160.621 96.5464 163.622 139.703 165.434 146.989C167.246 154.275 177.463 186.232 177.463 186.232L190.681 183.924L182.279 143.939C182.279 143.939 184.535 117.546 184.16 109.563C183.785 101.58 182.582 81.647 171.124 82.9515C159.665 84.256 160.621 96.5464 160.621 96.5464Z" fill="#B0CDFE"/>
<path d="M171.632 101.506L178.449 100.729C178.722 100.698 178.996 100.776 179.21 100.947C179.425 101.117 179.564 101.366 179.595 101.638L180.293 107.761C180.317 107.971 180.276 108.184 180.175 108.37C180.074 108.556 179.919 108.706 179.73 108.801L176.467 110.439C176.245 110.55 175.992 110.578 175.751 110.518L172.194 109.632C171.989 109.581 171.805 109.469 171.666 109.31C171.527 109.152 171.44 108.955 171.416 108.746L170.721 102.649C170.691 102.377 170.769 102.103 170.94 101.889C171.111 101.675 171.359 101.537 171.632 101.506Z" fill="white"/>
<path d="M166.068 106.825C166.011 106.825 165.953 106.814 165.9 106.793L164.523 106.247C164.144 106.096 163.813 105.846 163.565 105.522C163.318 105.199 163.163 104.814 163.117 104.409L162.39 98.0395C162.376 97.9203 162.41 97.8005 162.485 97.7065C162.56 97.6126 162.669 97.5522 162.788 97.5386C162.908 97.525 163.028 97.5593 163.122 97.634C163.216 97.7087 163.276 97.8177 163.29 97.937L164.017 104.307C164.044 104.549 164.137 104.779 164.285 104.973C164.433 105.166 164.631 105.316 164.858 105.406L166.235 105.952C166.333 105.991 166.414 106.063 166.465 106.155C166.515 106.247 166.532 106.354 166.512 106.457C166.493 106.561 166.438 106.654 166.356 106.721C166.275 106.788 166.173 106.825 166.068 106.825Z" fill="#262424"/>
<path d="M180.34 183.027C180.242 183.027 180.146 182.995 180.067 182.936C179.989 182.877 179.931 182.793 179.904 182.699L169.001 144.992C168.993 144.964 168.987 144.935 168.985 144.906L164.853 97.747C164.843 97.6273 164.88 97.5083 164.958 97.4163C165.035 97.3242 165.146 97.2666 165.266 97.2561C165.385 97.2456 165.504 97.2832 165.597 97.3604C165.689 97.4376 165.746 97.5483 165.757 97.668L169.885 144.784L180.776 182.44C180.797 182.508 180.801 182.58 180.789 182.65C180.777 182.72 180.749 182.786 180.706 182.843C180.664 182.9 180.609 182.947 180.545 182.979C180.482 183.01 180.411 183.027 180.34 183.027Z" fill="#262424"/>
<path d="M178.221 183.446C178.107 183.449 177.996 183.408 177.91 183.333C177.825 183.257 177.771 183.152 177.76 183.038C177.749 182.925 177.781 182.811 177.85 182.72C177.92 182.629 178.021 182.568 178.133 182.549L188.669 180.457C188.788 180.434 188.91 180.458 189.01 180.525C189.11 180.592 189.179 180.696 189.203 180.814C189.226 180.932 189.202 181.054 189.135 181.154C189.068 181.254 188.964 181.323 188.846 181.347L178.31 183.438C178.281 183.444 178.251 183.447 178.221 183.446Z" fill="#262424"/>
<path d="M152.223 185.128L153.687 194.034H158.521V184.375L152.223 185.128Z" fill="white"/>
<path d="M158.528 194.49H153.693C153.585 194.49 153.48 194.451 153.398 194.381C153.315 194.311 153.261 194.214 153.244 194.108L151.779 185.198C151.769 185.138 151.772 185.076 151.787 185.016C151.801 184.956 151.828 184.9 151.865 184.851C151.902 184.802 151.948 184.761 152.002 184.731C152.055 184.7 152.114 184.681 152.175 184.674L158.474 183.921C158.537 183.913 158.602 183.92 158.663 183.939C158.724 183.959 158.78 183.991 158.828 184.034C158.875 184.076 158.913 184.129 158.939 184.187C158.965 184.246 158.979 184.309 158.979 184.373V194.032C158.979 194.092 158.968 194.151 158.945 194.206C158.923 194.261 158.89 194.312 158.848 194.354C158.806 194.397 158.756 194.43 158.701 194.454C158.646 194.477 158.587 194.489 158.528 194.49ZM154.08 193.58H158.073V184.887L152.756 185.523L154.08 193.58Z" fill="#262424"/>
<path d="M162.248 210.961H140.602C140.396 209.891 140.332 208.798 140.412 207.711C140.535 206.266 141.01 204.724 142.346 203.989C143.275 203.457 144.14 202.821 144.926 202.093C147.327 199.923 149.954 196.478 151.926 192.084H160.428C161.343 197.253 161.928 202.475 162.178 207.718C162.223 208.791 162.248 209.878 162.248 210.961Z" fill="#B0CDFE"/>
<path d="M162.248 210.961H140.602C140.396 209.891 140.332 208.798 140.412 207.711H162.179C162.223 208.791 162.248 209.878 162.248 210.961Z" fill="white"/>
<path d="M162.25 211.417H140.604C140.5 211.417 140.399 211.381 140.318 211.315C140.237 211.25 140.182 211.159 140.16 211.057C139.943 209.943 139.877 208.805 139.961 207.673C139.971 207.559 140.023 207.454 140.107 207.377C140.192 207.3 140.302 207.257 140.416 207.258H162.181C162.298 207.258 162.411 207.303 162.496 207.384C162.58 207.465 162.63 207.576 162.636 207.693C162.681 208.814 162.705 209.914 162.705 210.961C162.705 211.021 162.693 211.08 162.67 211.135C162.648 211.19 162.614 211.241 162.572 211.283C162.53 211.325 162.48 211.359 162.424 211.382C162.369 211.405 162.31 211.417 162.25 211.417ZM140.985 210.507H161.792C161.792 209.749 161.771 208.966 161.742 208.167H140.842C140.815 208.95 140.863 209.733 140.985 210.507Z" fill="#262424"/>
<path d="M144.993 210.961H140.602C140.396 209.891 140.332 208.799 140.412 207.712C140.535 206.266 141.01 204.724 142.346 203.99C143.275 203.457 144.14 202.821 144.926 202.094C144.527 203.42 144.044 206.284 144.993 210.961Z" fill="white"/>
<path d="M144.992 211.417H140.6C140.496 211.417 140.395 211.381 140.314 211.315C140.234 211.25 140.178 211.159 140.156 211.057C139.939 209.943 139.873 208.805 139.957 207.673C140.126 205.691 140.875 204.281 142.125 203.591C143.023 203.076 143.86 202.46 144.619 201.756C144.693 201.689 144.786 201.649 144.885 201.641C144.984 201.632 145.083 201.657 145.167 201.709C145.251 201.762 145.315 201.841 145.35 201.934C145.385 202.026 145.389 202.128 145.361 202.223C144.989 203.477 144.504 206.266 145.438 210.87C145.452 210.937 145.451 211.005 145.435 211.071C145.419 211.136 145.388 211.197 145.346 211.25C145.303 211.302 145.249 211.344 145.188 211.373C145.127 211.402 145.06 211.417 144.992 211.417ZM140.982 210.507H144.441C143.831 207.219 143.936 204.845 144.188 203.307C143.676 203.709 143.134 204.07 142.566 204.388C141.581 204.931 141.009 206.069 140.866 207.75C140.799 208.671 140.838 209.596 140.984 210.507H140.982Z" fill="#262424"/>
<path d="M153.242 203.339C154.418 203.339 155.371 201.901 155.371 200.126C155.371 198.352 154.418 196.914 153.242 196.914C152.066 196.914 151.113 198.352 151.113 200.126C151.113 201.901 152.066 203.339 153.242 203.339Z" fill="white"/>
<path d="M153.241 203.794C151.792 203.794 150.656 202.184 150.656 200.126C150.656 198.069 151.792 196.46 153.241 196.46C154.69 196.46 155.826 198.07 155.826 200.126C155.826 202.182 154.69 203.794 153.241 203.794ZM153.241 197.369C152.334 197.369 151.567 198.632 151.567 200.126C151.567 201.621 152.334 202.885 153.241 202.885C154.148 202.885 154.915 201.622 154.915 200.126C154.915 198.63 154.148 197.369 153.241 197.369Z" fill="#262424"/>
<path d="M157.935 207.293C157.818 207.293 157.705 207.248 157.621 207.167C157.536 207.086 157.486 206.975 157.482 206.858C157.161 198.268 156.016 192.905 156.006 192.846C155.994 192.788 155.993 192.728 156.003 192.669C156.014 192.611 156.036 192.555 156.068 192.505C156.101 192.455 156.142 192.412 156.191 192.378C156.24 192.344 156.296 192.32 156.354 192.307C156.412 192.295 156.472 192.294 156.531 192.304C156.589 192.315 156.645 192.337 156.695 192.369C156.746 192.402 156.789 192.443 156.823 192.492C156.857 192.541 156.881 192.596 156.893 192.654C156.905 192.708 158.071 198.155 158.389 206.824C158.391 206.884 158.382 206.943 158.361 206.999C158.341 207.054 158.309 207.106 158.269 207.149C158.228 207.193 158.179 207.228 158.125 207.253C158.071 207.277 158.013 207.291 157.953 207.293H157.937H157.935Z" fill="#262424"/>
<path d="M160.603 207.293C160.486 207.293 160.373 207.248 160.289 207.167C160.204 207.086 160.155 206.975 160.15 206.858C159.829 198.268 158.684 192.905 158.674 192.846C158.662 192.788 158.661 192.728 158.671 192.669C158.682 192.611 158.704 192.555 158.736 192.505C158.769 192.455 158.81 192.412 158.859 192.378C158.908 192.344 158.964 192.32 159.022 192.307C159.08 192.295 159.14 192.294 159.199 192.304C159.257 192.315 159.313 192.337 159.363 192.369C159.414 192.402 159.457 192.443 159.491 192.492C159.525 192.541 159.549 192.596 159.561 192.654C159.573 192.708 160.739 198.155 161.057 206.824C161.059 206.884 161.05 206.943 161.029 206.999C161.009 207.054 160.977 207.106 160.937 207.149C160.896 207.193 160.847 207.228 160.793 207.253C160.739 207.277 160.681 207.291 160.621 207.293H160.605H160.603Z" fill="#262424"/>
<path d="M144.242 95.1325C144.242 95.1325 142.329 138.35 143.305 145.795C144.281 153.241 150.807 186.141 150.807 186.141L164.202 185.344L160.387 144.662C160.387 144.662 165.62 118.696 166.154 110.72C166.687 102.743 167.751 82.8035 156.225 82.8035C144.7 82.8035 144.242 95.1325 144.242 95.1325Z" fill="#B0CDFE"/>
<path d="M163.922 126.451C163.896 126.454 163.869 126.454 163.843 126.451C163.784 126.441 163.728 126.42 163.678 126.388C163.627 126.356 163.584 126.314 163.55 126.266C163.515 126.217 163.491 126.162 163.478 126.104C163.465 126.046 163.464 125.986 163.474 125.927C164.773 118.547 165.524 113.426 165.706 110.706C166.061 105.379 167.005 91.2294 161.748 85.6146C160.294 84.0613 158.434 83.2745 156.223 83.2745C156.103 83.2745 155.987 83.2268 155.902 83.1418C155.817 83.0569 155.77 82.9416 155.77 82.8215C155.77 82.7013 155.817 82.5861 155.902 82.5011C155.987 82.4161 156.103 82.3684 156.223 82.3684C158.695 82.3684 160.777 83.2527 162.411 84.9959C167.937 90.8982 166.975 105.337 166.618 110.767C166.434 113.519 165.679 118.668 164.375 126.083C164.354 126.188 164.298 126.282 164.215 126.35C164.133 126.417 164.029 126.453 163.922 126.451Z" fill="#262424"/>
<path d="M154.628 101.307H161.488C161.763 101.307 162.026 101.416 162.22 101.61C162.414 101.804 162.523 102.067 162.523 102.341V108.502C162.524 108.713 162.459 108.919 162.339 109.092C162.219 109.266 162.048 109.398 161.85 109.472L158.424 110.731C158.192 110.817 157.936 110.817 157.704 110.731L154.271 109.448C154.073 109.375 153.903 109.243 153.783 109.069C153.662 108.896 153.598 108.691 153.598 108.48V102.344C153.597 102.07 153.705 101.807 153.898 101.613C154.091 101.418 154.353 101.308 154.628 101.307Z" fill="white"/>
<path d="M148.536 105.966C148.461 105.965 148.388 105.947 148.322 105.912L147.018 105.212C146.658 105.02 146.357 104.734 146.148 104.384C145.938 104.035 145.828 103.635 145.828 103.227V96.8171C145.828 96.6969 145.876 96.5817 145.961 96.4967C146.046 96.4117 146.161 96.364 146.282 96.364C146.402 96.364 146.517 96.4117 146.602 96.4967C146.687 96.5817 146.735 96.6969 146.735 96.8171V103.229C146.735 103.472 146.801 103.712 146.927 103.921C147.052 104.13 147.232 104.301 147.447 104.416L148.751 105.115C148.84 105.163 148.911 105.239 148.951 105.331C148.992 105.423 149.001 105.526 148.976 105.624C148.951 105.722 148.894 105.809 148.815 105.871C148.735 105.932 148.637 105.966 148.536 105.966Z" fill="#262424"/>
<path d="M154.081 183.29C153.974 183.29 153.871 183.252 153.789 183.183C153.707 183.114 153.653 183.018 153.635 182.912L147.072 144.215C147.07 144.186 147.07 144.157 147.072 144.128L148.314 96.8036C148.315 96.744 148.328 96.6851 148.352 96.6305C148.376 96.5759 148.41 96.5267 148.454 96.4857C148.497 96.4446 148.548 96.4126 148.604 96.3916C148.66 96.3706 148.719 96.3609 148.779 96.3631C148.838 96.3646 148.897 96.3779 148.951 96.402C149.005 96.4261 149.055 96.4608 149.095 96.5038C149.136 96.5469 149.168 96.5977 149.19 96.6531C149.211 96.7086 149.221 96.7677 149.22 96.8271L147.979 144.108L154.529 182.761C154.539 182.819 154.537 182.88 154.524 182.938C154.511 182.996 154.486 183.051 154.452 183.099C154.417 183.148 154.373 183.189 154.323 183.221C154.272 183.252 154.216 183.274 154.157 183.284C154.132 183.288 154.107 183.29 154.081 183.29Z" fill="#262424"/>
<path d="M151.936 183.469C151.816 183.474 151.699 183.431 151.611 183.349C151.523 183.268 151.47 183.155 151.465 183.035C151.46 182.915 151.503 182.798 151.585 182.71C151.666 182.622 151.779 182.569 151.899 182.564L162.604 181.678C162.724 181.668 162.843 181.706 162.934 181.784C163.026 181.861 163.083 181.972 163.093 182.092C163.104 182.212 163.066 182.33 162.988 182.422C162.91 182.514 162.799 182.571 162.68 182.581L151.975 183.467H151.936V183.469Z" fill="#262424"/>
<path d="M171.873 81.0857L169.788 82.4154C169.788 82.4154 166.195 81.9279 165.219 82.1498C164.243 82.3717 160.74 84.5033 160.74 85.6061C160.74 86.7089 164.332 84.9337 164.332 84.9337C164.332 84.9337 161.354 86.6702 161.006 86.8384C160.657 87.0065 159.186 86.8384 158.343 87.104C157.5 87.3696 159.984 92.4212 161.049 93.1307C162.115 93.8401 166.816 92.9978 168.013 92.6868C169.209 92.3758 173.824 86.8821 174 86.793C174.177 86.7039 177.061 84.6664 177.061 84.6664L171.873 81.0857Z" fill="white"/>
<path d="M162.702 93.8617C161.881 93.8617 161.187 93.7676 160.804 93.5154C159.755 92.8178 157.551 88.6083 157.738 87.2954C157.747 87.1574 157.798 87.0253 157.883 86.9158C157.967 86.8063 158.083 86.7243 158.214 86.6801C158.737 86.512 159.409 86.5019 160.001 86.4902C160.275 86.4959 160.548 86.4779 160.819 86.4364L160.925 86.3792C160.829 86.3597 160.737 86.3239 160.652 86.2733C160.538 86.203 160.445 86.1037 160.382 85.9856C160.318 85.8675 160.287 85.7348 160.292 85.6009C160.292 84.0879 164.208 81.9109 165.125 81.7025C166.042 81.494 168.908 81.8369 169.691 81.9395L171.636 80.6988C171.712 80.6502 171.8 80.6252 171.89 80.627C171.98 80.6288 172.067 80.6573 172.141 80.7089L177.331 84.2981C177.39 84.3397 177.439 84.3952 177.473 84.4597C177.507 84.5243 177.524 84.596 177.524 84.6687C177.524 84.7415 177.507 84.8132 177.473 84.8777C177.439 84.9423 177.39 84.9977 177.331 85.0394C176.321 85.7522 174.653 86.9273 174.275 87.1643C174.18 87.2568 173.862 87.6131 173.526 87.9897C170.833 90.9972 168.996 92.9052 168.141 93.1288C167.596 93.2717 164.758 93.8617 162.702 93.8617ZM158.621 87.5106C158.604 88.3932 160.4 92.1655 161.304 92.7657C162.1 93.2969 166.33 92.6682 167.902 92.2613C168.671 92.0613 171.813 88.5495 172.844 87.3946C173.649 86.4952 173.686 86.4582 173.8 86.4011C173.943 86.317 175.232 85.416 176.272 84.683L171.865 81.6268L170.034 82.8036C169.944 82.8612 169.836 82.885 169.729 82.8708C168.318 82.6792 165.98 82.4489 165.322 82.5985C164.356 82.817 161.42 84.7385 161.208 85.5286C161.632 85.569 162.928 85.1369 164.134 84.5418C164.24 84.485 164.364 84.4724 164.479 84.5069C164.594 84.5415 164.691 84.6202 164.747 84.7259C164.804 84.8316 164.817 84.9555 164.782 85.0704C164.748 85.1853 164.669 85.2818 164.563 85.3386C164.257 85.5168 161.568 87.0786 161.211 87.2584C160.97 87.3778 160.617 87.3912 160.015 87.403C159.548 87.3957 159.081 87.4317 158.621 87.5106ZM174.248 87.1878L174.206 87.2114L174.248 87.1878Z" fill="#262424"/>
<path d="M175.853 41.2156C175.853 41.2156 180.087 42.5789 183.104 49.0494C186.121 55.5199 190.821 69.1669 191 75.4592C191.178 81.7515 179.604 86.8032 175.854 88.2203C175.854 88.2203 170.486 86.2703 170.665 80.5109L179.92 72.1811C179.92 72.1811 173.444 60.1278 171.137 52.9495C168.83 45.7713 175.853 41.2156 175.853 41.2156Z" fill="#FEA151"/>
<path d="M176.621 86.9893C176.536 86.9895 176.452 86.9656 176.38 86.9204C171.668 83.9651 172.071 80.2146 172.091 80.0566C172.098 79.9975 172.117 79.9405 172.146 79.8886C172.175 79.8368 172.214 79.7913 172.261 79.7546C172.308 79.7179 172.362 79.6908 172.419 79.6748C172.477 79.6589 172.536 79.6543 172.596 79.6615C172.655 79.6687 172.712 79.6874 172.764 79.7167C172.816 79.7459 172.861 79.785 172.898 79.8319C172.935 79.8787 172.962 79.9323 172.978 79.9896C172.994 80.0469 172.998 80.1068 172.991 80.1658C172.976 80.3037 172.663 83.528 176.862 86.1538C176.945 86.206 177.009 86.2837 177.044 86.3754C177.079 86.4672 177.083 86.5678 177.056 86.6622C177.029 86.7565 176.972 86.8395 176.893 86.8985C176.815 86.9576 176.719 86.9894 176.621 86.9893Z" fill="#262424"/>
<path d="M160.671 29.7602C160.671 29.7602 157.301 34.8356 152.329 34.8356C147.356 34.8356 143.65 13.4355 152.497 11.6176C161.345 9.79959 166.991 20.3615 160.671 29.7602Z" fill="white"/>
<path d="M152.528 35.4363C149.415 35.4363 147.189 29.7041 146.673 24.3104C146.123 18.562 147.388 12.0534 152.585 11.0266C156.769 10.2014 160.588 11.7753 162.807 15.2359C164.941 18.5644 165.76 24.2177 161.661 30.1028C161.498 30.3415 157.92 35.4363 152.528 35.4363ZM154.724 12.0627C154.085 12.0639 153.447 12.1276 152.819 12.2527C148.434 13.1173 147.402 18.9862 147.9 24.1899C148.409 29.521 150.57 34.1869 152.526 34.1869C157.276 34.1869 160.613 29.4352 160.645 29.3889C164.391 24.0114 163.678 18.9051 161.764 15.9196C161.015 14.7224 159.974 13.7393 158.742 13.0641C157.51 12.3889 156.128 12.0442 154.726 12.0627H154.724Z" fill="#262424"/>
<path d="M166.373 41.4424L164.781 31.2319L157.965 33.0967L158.161 41.4424H166.373Z" fill="white"/>
<path d="M166.928 42.043H158.212C158.045 42.043 157.885 41.9815 157.766 41.8715C157.647 41.7615 157.578 41.6118 157.574 41.4545L157.363 33.1121C157.36 32.9771 157.405 32.8449 157.491 32.737C157.577 32.629 157.699 32.5515 157.838 32.5169L165.077 30.6528C165.164 30.6304 165.254 30.6255 165.343 30.6384C165.432 30.6513 165.517 30.6818 165.592 30.7279C165.667 30.7739 165.732 30.8345 165.781 30.9057C165.83 30.9768 165.862 31.0569 165.876 31.1407L167.566 41.347C167.58 41.4336 167.575 41.5221 167.549 41.6063C167.524 41.6906 167.479 41.7686 167.418 41.8349C167.358 41.9011 167.282 41.9541 167.198 41.9901C167.113 42.026 167.021 42.0441 166.928 42.043ZM158.835 40.8368H166.184L164.719 31.991L158.651 33.5574L158.835 40.8368Z" fill="#262424"/>
<path d="M150.264 24.0244C150.264 24.0244 151.235 19.944 154.235 20.9536C157.235 21.9632 157.058 26.5506 154.896 27.8547L157.646 32.4333H165.039C165.039 32.4333 171.004 24.8237 171.71 20.0348C172.416 15.2458 167.563 14.8584 167.563 14.8584C167.563 14.8584 166.68 10.7359 163.151 10.0185C159.622 9.30119 149.916 11.2385 149.916 11.2385C149.916 11.2385 148.03 8.37795 146.433 8.40894C144.835 8.43994 144.877 11.5971 144.877 11.5971C144.877 11.5971 142.787 9.00894 141.501 9.79935C140.215 10.5898 142.395 21.2237 148.915 19.2665C148.92 19.2665 148.037 23.6148 150.264 24.0244Z" fill="#262424"/>
<path d="M171.173 40.3189C171.173 40.3189 169.449 36.0371 162.772 36.0371C156.094 36.0371 153.758 41.4426 153.758 41.4426H171.176V40.3189H171.173Z" fill="white"/>
<path d="M171.151 42.0433H153.188C153.084 42.0436 152.982 42.0199 152.891 41.9744C152.799 41.9288 152.722 41.8627 152.664 41.7821C152.607 41.7014 152.571 41.6087 152.561 41.5122C152.552 41.4156 152.567 41.3183 152.607 41.2289C152.633 41.17 155.262 35.4365 162.484 35.4365C169.706 35.4365 171.657 39.9233 171.736 40.1132C171.765 40.1829 171.779 40.2569 171.778 40.3315V41.4603C171.777 41.6153 171.71 41.7636 171.593 41.8728C171.476 41.982 171.317 42.0433 171.151 42.0433ZM154.232 40.8665H170.524V40.4473C170.224 39.8381 168.35 36.6133 162.486 36.6133C157.639 36.6112 155.173 39.4298 154.232 40.8665Z" fill="#262424"/>
<path d="M142.25 97.1853C144.326 97.9032 146.45 98.4729 148.606 98.8899V93.4146C148.637 93.036 148.809 92.6829 149.089 92.4255C149.369 92.168 149.735 92.0251 150.115 92.0251C150.496 92.0251 150.862 92.168 151.142 92.4255C151.421 92.6829 151.594 93.036 151.625 93.4146V99.3892C170.824 102.02 184.574 95.8119 184.574 95.8119C181.145 59.6535 175.846 41.2153 175.846 41.2153C158.198 38.2079 144.862 42.1651 144.862 42.1651C142.25 53.0367 142.25 97.1853 142.25 97.1853Z" fill="#FEA151"/>
<path d="M183.235 83.7402C183.124 83.7401 183.017 83.6993 182.934 83.6255C182.851 83.5518 182.799 83.4502 182.786 83.3401C180.157 61.2338 177.064 47.7936 175.858 43.0428C175.828 42.9265 175.846 42.8031 175.907 42.6998C175.969 42.5966 176.069 42.5219 176.185 42.4923C176.302 42.4626 176.425 42.4804 176.528 42.5418C176.632 42.6031 176.707 42.7029 176.736 42.8193C177.948 47.5885 181.049 61.0725 183.684 83.2325C183.692 83.2917 183.687 83.3517 183.671 83.4092C183.655 83.4666 183.628 83.5203 183.591 83.5672C183.554 83.6141 183.508 83.6532 183.456 83.6823C183.404 83.7114 183.347 83.73 183.287 83.7368L183.235 83.7402Z" fill="#262424"/>
<path d="M161.37 98.0712C158.672 98.0714 155.975 97.9289 153.292 97.6442C153.173 97.6315 153.063 97.5719 152.987 97.4784C152.912 97.3849 152.877 97.2653 152.889 97.1458C152.902 97.0263 152.962 96.9168 153.055 96.8413C153.149 96.7658 153.269 96.7305 153.388 96.7432C160.446 97.4946 171.26 97.6106 182.688 93.9038C182.802 93.8668 182.927 93.8768 183.034 93.9315C183.141 93.9862 183.222 94.0812 183.259 94.1955C183.296 94.3099 183.286 94.4342 183.231 94.5413C183.177 94.6483 183.081 94.7292 182.967 94.7662C175.155 97.2996 167.633 98.0712 161.37 98.0712Z" fill="#262424"/>
<path d="M146.46 96.5733C146.428 96.5732 146.397 96.5698 146.366 96.5632C144.683 96.2085 143.749 95.9328 143.71 95.921C143.595 95.8867 143.498 95.8081 143.441 95.7025C143.384 95.5968 143.371 95.4729 143.406 95.3579C143.44 95.2428 143.519 95.1461 143.624 95.0891C143.73 95.032 143.854 95.0192 143.969 95.0536C143.978 95.0536 144.912 95.331 146.554 95.6773C146.665 95.6989 146.764 95.7613 146.832 95.8522C146.899 95.9431 146.93 96.0559 146.918 96.1684C146.906 96.2808 146.852 96.3848 146.768 96.4598C146.683 96.5347 146.573 96.5752 146.46 96.5733Z" fill="#262424"/>
<path d="M119.804 64.1587L115.458 61.7212C115.458 61.7212 114.616 54.0554 114.039 52.9476C113.595 52.0953 109.533 49.3148 107.922 48.2523C107.819 48.1841 107.703 48.1371 107.581 48.1139C107.459 48.0908 107.334 48.092 107.213 48.1175C107.091 48.1429 106.976 48.1922 106.874 48.2624C106.772 48.3326 106.685 48.4223 106.618 48.5264C106.509 48.6951 106.457 48.8943 106.47 49.0947C106.483 49.2951 106.56 49.486 106.69 49.6392L109.47 52.682L106.052 51.1421C105.752 51.0062 105.411 50.9895 105.098 51.0953C104.786 51.2011 104.526 51.4216 104.37 51.712L102.315 55.5331C102.161 55.8194 102.12 56.1528 102.2 56.4677C102.28 56.7826 102.475 57.0561 102.747 57.2344L107.429 60.304C107.429 60.304 107.34 65.1338 108.494 65.7104C109.649 66.287 113.543 66.8619 113.543 66.8619L118.155 70.9823L119.804 64.1587Z" fill="white"/>
<path d="M118.159 71.436C118.047 71.4361 117.939 71.3947 117.856 71.32L113.344 67.2854C112.629 67.1761 109.378 66.6567 108.286 66.1087C107.059 65.4951 106.956 61.9631 106.968 60.5409L102.494 57.6074C102.125 57.3683 101.861 56.9993 101.753 56.5739C101.645 56.1486 101.701 55.6982 101.911 55.3127L103.973 51.4984C104.184 51.1081 104.535 50.812 104.955 50.6695C105.375 50.527 105.834 50.5487 106.239 50.7301L107.656 51.3689L106.356 49.945C106.135 49.6916 106.014 49.3669 106.014 49.031C106.015 48.6952 106.137 48.3709 106.359 48.1183C106.581 47.8657 106.886 47.702 107.22 47.6573C107.553 47.6127 107.891 47.6903 108.171 47.8756C109.506 48.7565 113.905 51.7085 114.441 52.739C115 53.8132 115.72 59.9895 115.884 61.4403L120.028 63.7635C120.115 63.8119 120.184 63.8875 120.223 63.9787C120.263 64.0698 120.271 64.1715 120.247 64.2679L118.606 71.0914C118.582 71.191 118.524 71.2794 118.443 71.342C118.362 71.4047 118.261 71.4378 118.159 71.436ZM105.514 51.4815C105.361 51.4813 105.21 51.5227 105.078 51.6011C104.946 51.6795 104.838 51.7922 104.765 51.927L102.711 55.7481C102.609 55.9342 102.582 56.1517 102.634 56.3571C102.686 56.5625 102.814 56.7407 102.992 56.856L107.675 59.9256C107.739 59.9676 107.791 60.025 107.827 60.0926C107.863 60.1602 107.881 60.2358 107.88 60.3123C107.84 62.5078 108.158 65.0378 108.695 65.3051C109.588 65.7506 112.548 66.2566 113.615 66.4146C113.703 66.4278 113.785 66.4664 113.851 66.5256L117.898 70.1416L119.286 64.3872L115.239 62.1178C115.176 62.0825 115.122 62.0326 115.083 61.9724C115.043 61.9121 115.018 61.8432 115.01 61.7715C114.687 58.8397 114.031 53.909 113.639 53.1576C113.334 52.5709 110.337 50.3888 107.673 48.6321C107.576 48.567 107.459 48.5392 107.343 48.5538C107.227 48.5685 107.12 48.6246 107.043 48.7119C106.965 48.7991 106.922 48.9114 106.921 49.0281C106.92 49.1448 106.961 49.258 107.037 49.3466L109.805 52.3725C109.876 52.4493 109.919 52.5484 109.925 52.6528C109.931 52.7573 109.901 52.8606 109.839 52.9453C109.778 53.0299 109.689 53.0907 109.587 53.1171C109.486 53.1436 109.379 53.1341 109.284 53.0903L105.866 51.5505C105.755 51.5028 105.636 51.4793 105.516 51.4815H105.514Z" fill="#262424"/>
<path d="M151.343 58.4731C148.721 64.525 143.795 74.1072 139.285 79.4211C137.29 81.7746 135.375 83.2876 133.778 83.2876C132.236 83.2876 129.927 82.2655 127.443 80.8231C121.554 77.4072 114.674 71.6478 114.674 71.6478C114.306 66.7273 115.459 63.3298 119.347 62.6674L130.466 67.5712C130.466 67.5712 140.036 43.8023 144.869 42.1666C152.406 40.9546 155.134 49.7282 151.343 58.4731Z" fill="#FEA151"/>
<path d="M143.672 73.6888C143.592 73.689 143.512 73.6675 143.442 73.6267C143.373 73.5859 143.315 73.5272 143.276 73.4567C143.237 73.3862 143.217 73.3065 143.219 73.2258C143.221 73.1451 143.244 73.0664 143.287 72.9979C146.169 68.2775 148.721 63.3644 150.927 58.2934C152.842 53.8671 153.115 49.1685 151.63 46.0316C150.829 44.3388 149.566 43.2007 147.974 42.7417C147.858 42.7085 147.76 42.6308 147.702 42.5256C147.644 42.4205 147.63 42.2966 147.663 42.1811C147.696 42.0656 147.774 41.9681 147.879 41.9099C147.985 41.8517 148.109 41.8377 148.224 41.8709C150.075 42.4038 151.536 43.7084 152.45 45.6433C154.064 49.0592 153.806 53.9209 151.76 58.6515C149.537 63.7625 146.965 68.7143 144.061 73.4719C144.02 73.5385 143.963 73.5934 143.895 73.6314C143.827 73.6694 143.75 73.6892 143.672 73.6888Z" fill="#262424"/>
<path d="M139.283 79.4213C137.288 81.7748 135.372 83.2878 133.776 83.2878C132.234 83.2878 129.925 82.2656 127.441 80.8233C127.827 77.9806 130.418 75.78 133.555 75.78C136.157 75.7834 138.378 77.2896 139.283 79.4213Z" fill="#D16100"/>
<path d="M116.765 72.1606C116.654 72.1606 116.547 72.12 116.464 72.0466C116.381 71.9732 116.328 71.872 116.315 71.7622C116.283 71.4982 115.582 65.2715 119.864 63.7199C119.977 63.6789 120.102 63.6843 120.211 63.7351C120.32 63.7858 120.404 63.8777 120.445 63.9905C120.486 64.1033 120.481 64.2278 120.43 64.3366C120.379 64.4453 120.287 64.5295 120.174 64.5705C116.569 65.8767 117.209 71.5958 117.217 71.6529C117.232 71.7721 117.198 71.8921 117.124 71.9867C117.05 72.0812 116.941 72.1425 116.822 72.1572L116.765 72.1606Z" fill="#262424"/>
<path d="M12.5336 148.756C10.8715 148.756 9.27754 149.416 8.10229 150.59C6.92704 151.764 6.26679 153.356 6.26679 155.016C6.26679 153.356 5.60654 151.764 4.43129 150.59C3.25604 149.416 1.66206 148.756 0 148.756C1.66206 148.756 3.25604 148.096 4.43129 146.922C5.60654 145.748 6.26679 144.156 6.26679 142.496C6.26679 144.156 6.92704 145.748 8.10229 146.922C9.27754 148.096 10.8715 148.756 12.5336 148.756Z" fill="#B0CDFE"/>
<path d="M148.801 4.41789C147.628 4.41833 146.503 4.88393 145.674 5.71235C144.845 6.54077 144.379 7.66421 144.378 8.83577C144.378 8.2551 144.263 7.68017 144.041 7.14383C143.818 6.60749 143.492 6.12025 143.08 5.70997C142.669 5.29969 142.181 4.9744 141.643 4.7527C141.106 4.53099 140.53 4.41722 139.949 4.41789C141.122 4.41744 142.247 3.95184 143.076 3.12343C143.905 2.29501 144.371 1.17156 144.372 0C144.372 0.580669 144.487 1.1556 144.709 1.69194C144.932 2.22829 145.258 2.71552 145.67 3.1258C146.081 3.53609 146.569 3.86137 147.107 4.08308C147.644 4.30478 148.22 4.41855 148.801 4.41789Z" fill="#FEA151"/>
<path d="M12.529 119.24C13.4835 119.24 14.2573 118.467 14.2573 117.513C14.2573 116.56 13.4835 115.787 12.529 115.787C11.5745 115.787 10.8008 116.56 10.8008 117.513C10.8008 118.467 11.5745 119.24 12.529 119.24Z" fill="#FEA151"/>
</svg>
