<svg width="129" height="156" viewBox="0 0 129 156" fill="none" xmlns="http://www.w3.org/2000/svg">
<path d="M103.628 92.3054C110.024 92.3054 115.209 87.1236 115.209 80.7314C115.209 74.3393 110.024 69.1575 103.628 69.1575C97.2319 69.1575 92.0469 74.3393 92.0469 80.7314C92.0469 87.1236 97.2319 92.3054 103.628 92.3054Z" fill="#B0CDFE"/>
<path d="M103.628 81.5918C106.024 81.5918 107.967 79.6504 107.967 77.2555C107.967 74.8606 106.024 72.9192 103.628 72.9192C101.232 72.9192 99.2891 74.8606 99.2891 77.2555C99.2891 79.6504 101.232 81.5918 103.628 81.5918Z" fill="white"/>
<path d="M111.512 86.4859C110.606 87.7266 109.42 88.7361 108.051 89.432C106.681 90.1279 105.166 90.4906 103.629 90.4906C102.092 90.4906 100.577 90.1279 99.2076 89.432C97.8377 88.7361 96.6517 87.7266 95.7461 86.4859C96.3932 84.4622 97.7934 82.7642 99.6575 81.7427C100.754 82.7133 102.168 83.2491 103.633 83.2491C105.097 83.2491 106.511 82.7133 107.608 81.7427C109.469 82.7656 110.867 84.4634 111.512 86.4859Z" fill="white"/>
<path d="M120.283 47.684C124.632 47.684 128.157 44.1611 128.157 39.8155C128.157 35.4699 124.632 31.947 120.283 31.947C115.935 31.947 112.41 35.4699 112.41 39.8155C112.41 44.1611 115.935 47.684 120.283 47.684Z" fill="#FEA151"/>
<path d="M120.282 40.4004C121.911 40.4004 123.232 39.0805 123.232 37.4522C123.232 35.8239 121.911 34.5039 120.282 34.5039C118.653 34.5039 117.332 35.8239 117.332 37.4522C117.332 39.0805 118.653 40.4004 120.282 40.4004Z" fill="white"/>
<path d="M125.643 43.7279C125.027 44.5714 124.22 45.2576 123.289 45.7307C122.357 46.2038 121.327 46.4503 120.282 46.4503C119.238 46.4503 118.207 46.2038 117.276 45.7307C116.344 45.2576 115.538 44.5714 114.922 43.7279C115.362 42.3529 116.314 41.1993 117.58 40.5051C118.326 41.1639 119.286 41.5275 120.281 41.5275C121.276 41.5275 122.237 41.1639 122.982 40.5051C124.249 41.1988 125.202 42.3525 125.643 43.7279Z" fill="white"/>
<path d="M92.0499 23.1479C98.446 23.1479 103.631 17.9661 103.631 11.574C103.631 5.18184 98.446 0 92.0499 0C85.6538 0 80.4688 5.18184 80.4688 11.574C80.4688 17.9661 85.6538 23.1479 92.0499 23.1479Z" fill="#B0CDFE"/>
<path d="M92.05 12.4344C94.4463 12.4344 96.389 10.4929 96.389 8.09804C96.389 5.70316 94.4463 3.76172 92.05 3.76172C89.6536 3.76172 87.7109 5.70316 87.7109 8.09804C87.7109 10.4929 89.6536 12.4344 92.05 12.4344Z" fill="white"/>
<path d="M99.93 17.3297C99.0244 18.5704 97.8384 19.5798 96.4685 20.2758C95.0987 20.9717 93.5837 21.3344 92.047 21.3344C90.5104 21.3344 88.9954 20.9717 87.6255 20.2758C86.2557 19.5798 85.0697 18.5704 84.1641 17.3297C84.812 15.3073 86.2121 13.6107 88.0754 12.5901C89.1719 13.5607 90.5859 14.0965 92.0506 14.0965C93.5154 14.0965 94.9294 13.5607 96.0259 12.5901C97.8864 13.6121 99.2838 15.3086 99.93 17.3297Z" fill="white"/>
<path d="M89.7837 68.7107C90.6999 68.7107 91.4425 67.9685 91.4425 67.053C91.4425 66.1374 90.6999 65.3953 89.7837 65.3953C88.8676 65.3953 88.125 66.1374 88.125 67.053C88.125 67.9685 88.8676 68.7107 89.7837 68.7107Z" fill="#B0CDFE"/>
<path d="M98.0864 32.2562C98.6345 32.2562 99.079 31.8121 99.079 31.2642C99.079 30.7163 98.6345 30.2722 98.0864 30.2722C97.5382 30.2722 97.0938 30.7163 97.0938 31.2642C97.0938 31.8121 97.5382 32.2562 98.0864 32.2562Z" fill="#FEA151"/>
<path d="M117.064 19.2231L117.437 20.2428C117.552 20.56 117.736 20.848 117.975 21.0868C118.214 21.3255 118.502 21.5091 118.82 21.6249L119.84 21.9969L118.82 22.3688C118.502 22.4846 118.214 22.6682 117.975 22.907C117.736 23.1457 117.552 23.4337 117.437 23.7509L117.064 24.7706L116.692 23.7509C116.576 23.4337 116.393 23.1457 116.154 22.907C115.915 22.6682 115.627 22.4846 115.309 22.3688L114.289 21.9969L115.309 21.6249C115.627 21.5091 115.915 21.3255 116.154 21.0868C116.393 20.848 116.576 20.56 116.692 20.2428L117.064 19.2231Z" fill="#B0CDFE"/>
<path d="M119.151 55.6187L119.693 57.1054C119.861 57.5678 120.129 57.9877 120.477 58.3356C120.825 58.6836 121.245 58.9511 121.708 59.1195L123.196 59.6612L121.708 60.203C121.245 60.3713 120.825 60.6389 120.477 60.9868C120.129 61.3348 119.861 61.7547 119.693 62.217L119.151 63.7038L118.608 62.217C118.44 61.7547 118.172 61.3348 117.824 60.9868C117.476 60.6389 117.056 60.3713 116.593 60.203L115.105 59.6612L116.593 59.1195C117.056 58.9511 117.476 58.6836 117.824 58.3356C118.172 57.9877 118.44 57.5678 118.608 57.1054L119.151 55.6187Z" fill="#FEA151"/>
<path d="M77.664 77.5735C77.463 78.9361 77.1511 80.28 76.7316 81.592C76.7316 81.592 75.2789 82.2469 72.9974 83.1317C68.2488 84.9749 59.9033 87.81 53.5682 87.81C44.1879 87.81 47.3343 72.8471 57.3435 73.7247L67.4477 73.3636L72.1698 62.3314L77.1159 61.7415C77.1159 61.7415 78.8373 69.9025 77.664 77.5735Z" fill="#FEA151"/>
<path d="M73.4015 78.2767C73.3281 78.2768 73.2568 78.2522 73.1991 78.2069L68.1566 74.2534C68.1228 74.2268 68.0945 74.1938 68.0734 74.1564C68.0523 74.1189 68.0387 74.0776 68.0336 74.0349C68.0285 73.9922 68.0318 73.9489 68.0434 73.9075C68.055 73.8661 68.0746 73.8273 68.1012 73.7935C68.1278 73.7597 68.1608 73.7314 68.1983 73.7103C68.2358 73.6892 68.2771 73.6757 68.3198 73.6706C68.3625 73.6654 68.4059 73.6687 68.4473 73.6803C68.4888 73.6919 68.5275 73.7116 68.5614 73.7381L73.6039 77.6916C73.6575 77.7337 73.6967 77.7914 73.7159 77.8567C73.7352 77.9221 73.7336 77.9918 73.7113 78.0562C73.689 78.1206 73.6472 78.1765 73.5917 78.216C73.5361 78.2555 73.4697 78.2767 73.4015 78.2767Z" fill="#262424"/>
<path d="M77.6646 77.5735C77.4636 78.9361 77.1518 80.28 76.7323 81.592C76.7323 81.592 75.2795 82.2469 72.998 83.1317C72.9354 81.9182 73.3787 80.582 74.3231 79.472C75.2675 78.362 76.4721 77.7228 77.6646 77.5735Z" fill="#D16100"/>
<path d="M10.2734 60.452C10.2734 60.452 12.5068 54.9997 12.985 54.4579C13.4632 53.9162 16.335 52.4812 17.6432 52.7364C18.9515 52.9916 18.6322 55.6064 18.6009 56.3071C18.5696 57.0077 17.0699 57.7734 17.0699 57.7734C17.0699 57.7734 18.825 57.263 18.9527 57.901C19.0803 58.5391 15.5701 59.8777 15.5701 59.8777C15.5701 59.8777 17.4204 59.6863 17.618 60.1005C17.8155 60.5146 15.0015 61.9183 13.9174 62.147C12.8332 62.3758 10.2734 60.452 10.2734 60.452Z" fill="white"/>
<path d="M13.7355 62.4809C12.4815 62.4809 10.3349 60.9014 10.0796 60.7088C10.0218 60.6653 9.98012 60.6039 9.96095 60.5342C9.94177 60.4645 9.9462 60.3905 9.97355 60.3236C10.3506 59.405 12.2527 54.7858 12.7441 54.2368C13.3019 53.606 16.2725 52.13 17.7108 52.4105C19.1756 52.6959 19.0154 55.059 18.9479 56.0703C18.9419 56.1678 18.9358 56.2521 18.9322 56.3183C18.9166 56.6566 18.6913 56.9792 18.3974 57.2549C18.5967 57.2574 18.7926 57.3078 18.9684 57.4018C19.0476 57.4478 19.116 57.5101 19.1692 57.5846C19.2224 57.6592 19.259 57.7442 19.2768 57.834C19.3551 58.2228 19.0744 58.6405 17.4542 59.4207L17.1759 59.5543C17.5373 59.6169 17.8083 59.7421 17.9107 59.9648C17.9396 60.0302 17.9529 60.1015 17.9495 60.1729C17.9462 60.2444 17.9263 60.3141 17.8915 60.3765C17.5469 61.0591 14.9293 62.2678 13.9777 62.464C13.8977 62.4778 13.8166 62.4834 13.7355 62.4809ZM10.671 60.3392C11.6431 61.035 13.2007 61.9524 13.8416 61.8212C14.7667 61.631 16.6579 60.6727 17.1795 60.2176C16.8699 60.1502 16.2158 60.1406 15.6003 60.2032C15.5216 60.2106 15.4429 60.1894 15.3787 60.1435C15.3145 60.0975 15.269 60.03 15.2506 59.9532C15.2323 59.8764 15.2424 59.7955 15.2789 59.7256C15.3155 59.6556 15.3762 59.6012 15.4497 59.5723C16.982 58.9897 18.3805 58.2673 18.6082 57.9483C18.4396 57.8556 17.7541 57.917 17.1627 58.088C17.086 58.1066 17.0053 58.0969 16.9352 58.0608C16.8651 58.0247 16.8104 57.9646 16.7811 57.8914C16.7518 57.8182 16.7499 57.7369 16.7757 57.6625C16.8016 57.588 16.8534 57.5254 16.9217 57.486C17.4795 57.2007 18.2601 56.6289 18.2757 56.2954C18.2757 56.2256 18.2854 56.1365 18.2914 56.033C18.3432 55.2673 18.4805 53.2352 17.5831 53.0606C16.4435 52.8391 13.6729 54.179 13.2332 54.6774C12.9224 55.0253 11.5419 58.2373 10.671 60.3392Z" fill="#262424"/>
<path d="M41.1995 79.3939C34.6272 79.397 28.2411 77.212 23.0498 73.1839C17.8584 69.1558 14.1577 63.5142 12.5321 57.15C10.9065 50.7858 11.4487 44.0617 14.0729 38.0398C16.6972 32.0178 21.254 27.0411 27.0237 23.8957L55.8946 8.14789C56.6454 7.73796 57.5283 7.64287 58.3493 7.88353C59.1702 8.1242 59.8619 8.68091 60.2721 9.43121L65.3616 18.7431C65.7693 19.4934 65.8631 20.3745 65.6225 21.1937C65.3818 22.0128 64.8263 22.7034 64.0775 23.1143L35.3246 38.8031C29.2233 42.1354 26.9345 49.7535 30.2111 55.7921C30.9962 57.2365 32.0586 58.5121 33.3376 59.5457C34.6166 60.5793 36.0869 61.3507 37.6646 61.8158C39.2422 62.2808 40.8961 62.4304 42.5316 62.2559C44.1672 62.0815 45.7522 61.5864 47.1961 60.799L76.0658 45.0512C76.4375 44.8481 76.8456 44.7201 77.2668 44.6747C77.688 44.6292 78.1141 44.6672 78.5206 44.7864C78.9272 44.9055 79.3062 45.1036 79.6361 45.3692C79.966 45.6349 80.2403 45.9629 80.4433 46.3345L85.534 55.6464C85.9442 56.3971 86.0392 57.2798 85.7981 58.1004C85.5571 58.9211 84.9997 59.6125 84.2487 60.0225L55.3778 75.7714C51.9106 77.6719 48.0954 78.8536 44.1605 79.2458C43.1763 79.3433 42.1801 79.3939 41.1995 79.3939Z" fill="#B0CDFE"/>
<path d="M44.7148 14.2491L55.8912 8.14789C56.642 7.73796 57.525 7.64287 58.3459 7.88353C59.1669 8.1242 59.8585 8.68091 60.2688 9.43121L65.3582 18.7431C65.766 19.4934 65.8598 20.3745 65.6191 21.1937C65.3785 22.0128 64.823 22.7034 64.0741 23.1143L52.8978 29.2155L44.7148 14.2491Z" fill="#FEA151"/>
<path d="M64.8867 51.1526L76.0631 45.0514C76.4348 44.8483 76.8429 44.7203 77.2642 44.6749C77.6854 44.6294 78.1114 44.6674 78.5179 44.7866C78.9245 44.9057 79.3035 45.1038 79.6334 45.3694C79.9633 45.6351 80.2376 45.9631 80.4406 46.3347L85.5313 55.6466C85.9415 56.3973 86.0365 57.28 85.7954 58.1006C85.5544 58.9213 84.9971 59.6126 84.246 60.0227L73.0684 66.1238L64.8867 51.1526Z" fill="#FEA151"/>
<path d="M29.5504 73.9174C29.5504 73.9174 41.3459 72.3873 57.348 73.7308C57.348 73.7308 60.8823 77.5049 56.5385 88.7008C52.1947 99.8968 46.8655 117.232 46.8655 117.232H12.3594C12.3594 117.232 16.9489 92.6062 29.5504 73.9174Z" fill="#FEA151"/>
<path d="M57.3511 86.7275C57.2995 86.7275 57.2486 86.7154 57.2026 86.692C57.1566 86.6686 57.1168 86.6347 57.0864 86.5931C57.056 86.5514 57.0359 86.5032 57.0276 86.4523C57.0194 86.4014 57.0233 86.3493 57.0391 86.3002C59.1977 79.6031 58.2714 76.113 57.5281 74.6227C57.4942 74.5457 57.4912 74.4586 57.5197 74.3795C57.5482 74.3004 57.6061 74.2353 57.6814 74.1977C57.7567 74.16 57.8436 74.1528 57.924 74.1775C58.0045 74.2021 58.0723 74.2568 58.1136 74.3301C58.9026 75.9036 59.8928 79.5778 57.6631 86.4964C57.6425 86.5631 57.6011 86.6216 57.545 86.6632C57.4889 86.7047 57.4209 86.7273 57.3511 86.7275Z" fill="#262424"/>
<path d="M45.4976 115.147L15.3823 114.698C15.2954 114.698 15.2121 114.664 15.1507 114.602C15.0892 114.541 15.0547 114.458 15.0547 114.371C15.0547 114.284 15.0892 114.201 15.1507 114.139C15.2121 114.078 15.2954 114.043 15.3823 114.043L45.4976 114.492C45.5845 114.492 45.6678 114.527 45.7293 114.588C45.7907 114.65 45.8253 114.733 45.8253 114.82C45.8253 114.907 45.7907 114.99 45.7293 115.051C45.6678 115.113 45.5845 115.147 45.4976 115.147Z" fill="#262424"/>
<path d="M52.5156 134.443L52.9312 144.057H56.7113L57.4461 134.443H52.5156Z" fill="white"/>
<path d="M56.7099 144.384H52.9299C52.8454 144.385 52.7642 144.352 52.7031 144.294C52.6421 144.235 52.6059 144.156 52.6022 144.071L52.1878 134.457C52.1859 134.413 52.1929 134.369 52.2085 134.328C52.2241 134.286 52.2479 134.248 52.2785 134.216C52.3091 134.184 52.3459 134.159 52.3867 134.142C52.4274 134.124 52.4712 134.115 52.5155 134.115H57.4447C57.4899 134.116 57.5345 134.126 57.5757 134.144C57.6169 134.163 57.6538 134.19 57.6841 134.223C57.7144 134.257 57.7375 134.296 57.7518 134.339C57.7662 134.382 57.7716 134.427 57.7676 134.472L57.034 144.086C57.0268 144.167 56.9896 144.243 56.9297 144.298C56.8698 144.353 56.7914 144.384 56.7099 144.384ZM53.2431 143.73H56.4064L57.0906 134.77H52.8564L53.2431 143.73Z" fill="#262424"/>
<path d="M50.2194 153.24C50.099 154.608 50.0508 155.504 50.0508 155.504H68.6921C69.9678 148.712 63.7472 149.797 63.7472 149.797C62.842 150.74 62.261 151.946 62.0885 153.241H50.2194V153.24Z" fill="white"/>
<path d="M68.6949 155.831H50.0536C50.009 155.831 49.9649 155.822 49.924 155.804C49.883 155.786 49.8462 155.76 49.8156 155.728C49.785 155.695 49.7614 155.657 49.7462 155.615C49.731 155.573 49.7245 155.529 49.7271 155.484C49.7271 155.474 49.7813 154.567 49.897 153.211C49.9039 153.129 49.9413 153.053 50.0018 152.998C50.0622 152.942 50.1413 152.911 50.2234 152.911H61.807C62.0349 151.652 62.6295 150.489 63.5163 149.566C63.5644 149.517 63.6268 149.484 63.6946 149.472C63.8078 149.453 66.4797 149.008 68.0758 150.624C69.1178 151.68 69.4358 153.341 69.0178 155.56C69.0044 155.636 68.9648 155.705 68.9057 155.754C68.8467 155.804 68.772 155.831 68.6949 155.831ZM50.4029 155.178H68.4203C68.7239 153.318 68.4516 151.944 67.6108 151.085C66.417 149.874 64.3848 150.043 63.9078 150.102C63.1015 150.98 62.5814 152.083 62.4165 153.264C62.4096 153.346 62.3722 153.422 62.3117 153.478C62.2513 153.533 62.1721 153.564 62.0901 153.564H50.5258C50.4656 154.279 50.4234 154.841 50.4029 155.178Z" fill="#262424"/>
<path d="M57.7199 142.778H51.7847C50.9415 145.882 50.4597 150.502 50.2188 153.236H62.0866C62.2591 151.941 62.8401 150.735 63.7453 149.792C59.8894 147.022 57.7199 142.778 57.7199 142.778Z" fill="#B0CDFE"/>
<path d="M61.4186 151.534C61.3597 151.534 61.3018 151.518 61.2512 151.488C57.1941 149.081 54.5584 143.756 54.4487 143.531C54.4154 143.454 54.413 143.366 54.4422 143.287C54.4713 143.209 54.5298 143.144 54.6054 143.107C54.681 143.07 54.768 143.063 54.8483 143.089C54.9286 143.114 54.996 143.169 55.0366 143.243C55.0631 143.296 57.6988 148.614 61.5861 150.926C61.6473 150.963 61.6948 151.019 61.7213 151.085C61.7478 151.151 61.7519 151.225 61.7329 151.294C61.714 151.362 61.673 151.423 61.6162 151.467C61.5595 151.51 61.4901 151.534 61.4186 151.534Z" fill="#262424"/>
<path d="M53.4128 151.207C54.2125 151.207 54.8607 150.082 54.8607 148.695C54.8607 147.308 54.2125 146.184 53.4128 146.184C52.6131 146.184 51.9648 147.308 51.9648 148.695C51.9648 150.082 52.6131 151.207 53.4128 151.207Z" fill="white"/>
<path d="M53.4162 151.534C52.4212 151.534 51.6406 150.287 51.6406 148.695C51.6406 147.104 52.42 145.857 53.4162 145.857C54.4124 145.857 55.1918 147.104 55.1918 148.695C55.1918 150.287 54.4124 151.534 53.4162 151.534ZM53.4162 146.512C52.8862 146.512 52.2959 147.408 52.2959 148.695C52.2959 149.982 52.8862 150.879 53.4162 150.879C53.9463 150.879 54.5365 149.982 54.5365 148.695C54.5365 147.408 53.9463 146.51 53.4162 146.51V146.512Z" fill="#262424"/>
<path d="M64.0035 113.122C63.9866 113.35 63.9673 113.585 63.9481 113.826C63.2831 122.055 61.6111 137.839 61.6111 137.839H51.4647L50.6034 123.49L25.8125 137.551L30.4382 117.23C30.4382 117.23 53.8582 103.689 56.5385 103.88C56.7216 103.894 56.9143 103.915 57.1155 103.948C57.3167 103.98 57.5419 104.022 57.7648 104.068C60.4836 104.692 64.1155 106.678 64.2119 109.232C64.2323 109.808 64.1553 111.218 64.0035 113.122Z" fill="#B0CDFE"/>
<path d="M64.0013 113.122C61.6065 113.582 58.9636 111.692 57.9048 108.65C57.347 107.045 57.3326 105.418 57.7626 104.075C60.4814 104.699 64.1133 106.685 64.2097 109.239C64.2302 109.808 64.1531 111.218 64.0013 113.122Z" fill="#81AFFD"/>
<path d="M55.4549 134.277C55.3714 134.277 55.2912 134.245 55.2305 134.188C55.1699 134.13 55.1333 134.052 55.1284 133.969L54.0708 115.33L31.7951 126.021C31.7561 126.042 31.7133 126.055 31.6691 126.058C31.625 126.062 31.5806 126.057 31.5385 126.044C31.4964 126.03 31.4575 126.008 31.4242 125.979C31.3909 125.949 31.3639 125.914 31.3447 125.874C31.3256 125.834 31.3147 125.791 31.3128 125.746C31.3109 125.702 31.318 125.658 31.3336 125.617C31.3492 125.575 31.3731 125.537 31.4038 125.506C31.4345 125.474 31.4713 125.448 31.512 125.431L54.2286 114.529C54.2771 114.505 54.3306 114.495 54.3844 114.497C54.4381 114.499 54.4905 114.515 54.5368 114.542C54.5831 114.57 54.622 114.608 54.65 114.654C54.6779 114.7 54.6941 114.752 54.6972 114.806L55.7813 133.935C55.7863 134.022 55.7566 134.107 55.6987 134.172C55.6409 134.236 55.5597 134.276 55.4729 134.281H55.4537L55.4549 134.277Z" fill="#262424"/>
<path d="M60.4906 135.966H52.9292C52.8423 135.966 52.759 135.931 52.6975 135.87C52.6361 135.809 52.6016 135.725 52.6016 135.638C52.6016 135.552 52.6361 135.468 52.6975 135.407C52.759 135.346 52.8423 135.311 52.9292 135.311H60.4906C60.5775 135.311 60.6608 135.346 60.7222 135.407C60.7837 135.468 60.8182 135.552 60.8182 135.638C60.8182 135.725 60.7837 135.809 60.7222 135.87C60.6608 135.931 60.5775 135.966 60.4906 135.966Z" fill="#262424"/>
<path d="M51.1473 121.904C51.092 121.904 51.0377 121.89 50.9893 121.863C50.941 121.837 50.9002 121.798 50.8707 121.751C50.8413 121.705 50.8241 121.651 50.8209 121.596C50.8176 121.541 50.8284 121.486 50.8522 121.436L55.2924 112.125C55.3307 112.049 55.3977 111.99 55.4789 111.962C55.5601 111.934 55.649 111.939 55.7265 111.976C55.804 112.013 55.8639 112.079 55.8933 112.159C55.9227 112.24 55.9193 112.329 55.8838 112.407L51.4436 121.718C51.417 121.774 51.375 121.821 51.3225 121.854C51.2701 121.887 51.2093 121.904 51.1473 121.904Z" fill="#262424"/>
<path d="M12.4767 154.149C10.9107 154.207 1.46894 154.484 1.15333 153.112C0.837726 151.741 2.61091 138.358 5.61039 138.174C6.11288 138.137 6.61789 138.186 7.10411 138.318C7.60238 138.454 8.06691 138.692 8.46805 139.017C8.86918 139.342 9.1981 139.747 9.43382 140.206L9.15194 147.691C13.2416 147.914 14.0427 154.095 12.4767 154.149Z" fill="#B0CDFE"/>
<path d="M12.4767 154.149C10.9107 154.207 1.46894 154.484 1.15333 153.112C0.837726 151.741 2.61091 138.358 5.61039 138.174C6.11288 138.137 6.61789 138.186 7.10411 138.318C2.91929 141.269 3.47341 151.136 3.47341 151.136C5.00447 147.979 9.15194 147.691 9.15194 147.691C13.2416 147.914 14.0427 154.095 12.4767 154.149Z" fill="white"/>
<path d="M8.97699 154.538C8.13377 154.538 7.2279 154.526 6.33408 154.493C1.71319 154.325 0.959102 153.739 0.830209 153.187C0.519419 151.849 1.83847 141.881 4.11036 138.836C4.57534 138.212 5.07405 137.88 5.59686 137.848C6.13591 137.809 6.67757 137.862 7.19899 138.004C7.25856 138.021 7.31216 138.054 7.35356 138.1C7.39497 138.146 7.4225 138.203 7.43296 138.264C7.44342 138.325 7.43639 138.388 7.41268 138.445C7.38896 138.502 7.34954 138.551 7.29897 138.587C4.11759 140.831 3.78632 147.41 3.78512 150.023C5.63781 147.634 8.9782 147.375 9.136 147.363H9.17696C12.1885 147.528 13.569 150.651 13.5509 152.71C13.5413 153.794 13.1449 154.45 12.4896 154.474C12.115 154.49 10.6972 154.538 8.97699 154.538ZM5.93415 138.492C5.83617 138.492 5.73659 138.495 5.6354 138.501C5.31618 138.521 4.97889 138.765 4.63437 139.224C2.41307 142.202 1.22773 152.004 1.46745 153.036C1.47467 153.061 1.70837 153.669 6.38708 153.837C9.08059 153.934 11.9211 153.837 12.4631 153.818C12.7113 153.808 12.8884 153.35 12.8944 152.703C12.9076 151.145 11.8259 148.178 9.16009 148.017C8.86376 148.043 5.14994 148.434 3.77187 151.275C3.74032 151.34 3.68823 151.393 3.62366 151.425C3.5591 151.458 3.48568 151.468 3.41481 151.454C3.34395 151.44 3.27961 151.403 3.23177 151.349C3.18394 151.295 3.15529 151.227 3.15029 151.155C3.1286 150.764 2.68049 141.948 6.35455 138.515C6.21803 138.499 6.0779 138.492 5.93415 138.492Z" fill="#262424"/>
<path d="M32.9653 117.23C31.7884 121.103 29.3719 128.957 27.1205 135.638C25.057 141.76 22.4804 147.861 19.5905 151.304C18.1016 153.08 16.5284 154.147 14.901 154.147C13.3615 154.147 11.9448 153.583 10.733 152.817C8.17682 151.204 6.52651 148.695 6.52651 148.695C4.32448 142.669 8.58398 139.99 8.58398 139.99L10.115 140.373L14.0433 117.23H32.9557H32.9653Z" fill="#B0CDFE"/>
<path d="M6.4293 148.752C6.36089 148.752 6.29425 148.73 6.23873 148.69C6.18321 148.65 6.1416 148.594 6.11972 148.529C5.05966 145.399 5.73063 143.173 6.4811 141.857C6.95256 141.006 7.61166 140.273 8.40847 139.715C8.48188 139.671 8.56933 139.658 8.65225 139.678C8.73516 139.698 8.807 139.75 8.85248 139.822C8.89797 139.894 8.91353 139.981 8.89585 140.064C8.87817 140.148 8.82865 140.221 8.75781 140.268C8.5988 140.369 4.87294 142.812 6.74009 148.32C6.75674 148.369 6.7614 148.422 6.75368 148.473C6.74596 148.525 6.72609 148.573 6.69572 148.616C6.66534 148.658 6.62533 148.692 6.579 148.716C6.53267 148.74 6.48135 148.752 6.4293 148.752Z" fill="#262424"/>
<path d="M27.2768 135.497C27.2249 135.497 27.1737 135.485 27.1275 135.461C27.0813 135.438 27.0414 135.403 27.0111 135.361C26.9807 135.319 26.9608 135.271 26.953 135.219C26.9451 135.168 26.9496 135.116 26.966 135.066C29.0223 128.934 31.2099 121.859 32.3302 118.187C32.3417 118.145 32.3617 118.105 32.3888 118.071C32.416 118.036 32.4497 118.008 32.4881 117.987C32.5265 117.966 32.5688 117.952 32.6124 117.948C32.656 117.943 32.7001 117.948 32.742 117.96C32.7839 117.973 32.8228 117.994 32.8564 118.022C32.8901 118.05 32.9177 118.085 32.9377 118.124C32.9577 118.163 32.9697 118.206 32.9729 118.249C32.9762 118.293 32.9706 118.337 32.9566 118.378C31.8351 122.054 29.6463 129.135 27.5876 135.276C27.5655 135.341 27.5236 135.397 27.4678 135.437C27.4121 135.476 27.3453 135.498 27.2768 135.497Z" fill="#262424"/>
<path d="M19.5919 151.304C18.103 153.08 16.5298 154.148 14.9023 154.148C13.3628 154.148 11.9462 153.583 10.7344 152.817C11.0656 151.167 12.5931 149.739 14.6349 149.36C16.7321 148.971 18.7233 149.809 19.5919 151.304Z" fill="#81AFFD"/>
<path d="M8.05846 148.76C7.98504 148.76 7.91379 148.736 7.85612 148.69C7.79846 148.645 7.75772 148.581 7.74045 148.51C6.71171 144.225 8.80772 141.352 8.89686 141.231C8.94971 141.164 9.02664 141.121 9.11127 141.11C9.19591 141.098 9.28156 141.121 9.35001 141.172C9.41846 141.223 9.46429 141.298 9.47775 141.383C9.49121 141.467 9.47123 141.553 9.42207 141.623C9.39557 141.658 7.42363 144.392 8.37648 148.358C8.38771 148.406 8.38797 148.456 8.37724 148.504C8.36651 148.552 8.34507 148.597 8.3145 148.636C8.28393 148.675 8.24504 148.706 8.2007 148.727C8.15637 148.749 8.10775 148.76 8.05846 148.76Z" fill="#262424"/>
<path d="M11.0461 145.909C11.007 145.909 10.9683 145.902 10.9317 145.888L8.80191 145.098C8.76076 145.084 8.72289 145.062 8.6905 145.033C8.65811 145.003 8.63186 144.968 8.61329 144.929C8.59472 144.889 8.58419 144.847 8.58233 144.803C8.58047 144.76 8.58731 144.716 8.60245 144.675C8.61759 144.634 8.64073 144.597 8.67051 144.565C8.70029 144.534 8.73612 144.508 8.77589 144.49C8.81566 144.472 8.85859 144.463 8.90215 144.462C8.94571 144.461 8.98903 144.468 9.02958 144.484L10.7931 145.138L15.8212 117.596C15.8291 117.554 15.8453 117.513 15.8688 117.477C15.8923 117.441 15.9226 117.41 15.9582 117.386C15.9937 117.362 16.0336 117.345 16.0757 117.336C16.1179 117.327 16.1613 117.326 16.2036 117.334C16.246 117.342 16.2863 117.358 16.3224 117.382C16.3584 117.405 16.3895 117.436 16.4139 117.471C16.4382 117.507 16.4553 117.547 16.4642 117.589C16.4731 117.631 16.4736 117.674 16.4656 117.716L11.3677 145.646C11.3527 145.72 11.3125 145.787 11.2538 145.835C11.1952 145.883 11.1218 145.909 11.0461 145.909Z" fill="#262424"/>
<path d="M15.3785 122.193C15.2971 122.193 15.2185 122.162 15.1582 122.107C15.0979 122.053 15.0601 121.978 15.0523 121.897C15.0445 121.815 15.0671 121.734 15.1159 121.669C15.1646 121.604 15.2359 121.559 15.3159 121.544L16.6494 121.284C17.1088 121.194 17.5318 120.972 17.8654 120.644C18.199 120.316 18.4284 119.897 18.525 119.439L18.9153 117.596C18.9349 117.513 18.9864 117.44 19.0587 117.395C19.1311 117.349 19.2185 117.333 19.3023 117.351C19.3861 117.369 19.4595 117.419 19.507 117.49C19.5544 117.561 19.5721 117.648 19.5561 117.732L19.1658 119.575C19.0428 120.159 18.7504 120.693 18.3251 121.111C17.8997 121.529 17.3605 121.813 16.7747 121.926L15.4412 122.186C15.4205 122.19 15.3996 122.193 15.3785 122.193Z" fill="#262424"/>
<path d="M40.6854 83.5825C41.0578 83.7746 41.4064 83.9414 41.7044 84.1022C42.5983 82.0296 44.3161 79.5327 44.3161 79.5327C45.137 81.4087 45.2651 83.7017 45.1906 84.7335L45.4111 84.7126C49.1982 84.2957 51.5313 80.2876 50.0608 76.9033C49.1669 74.8561 47.4715 73.3567 45.6808 73.0813C42.8084 72.6346 40.7494 73.9225 39.3654 75.4218C36.9831 78.0066 37.6625 82.0177 40.6854 83.5825Z" fill="white"/>
<path d="M45.1909 85.1386C45.1352 85.1385 45.0802 85.127 45.0291 85.1047C44.9781 85.0824 44.9322 85.0499 44.8943 85.0091C44.8564 84.9683 44.8274 84.9201 44.8089 84.8676C44.7905 84.8151 44.7831 84.7593 44.7872 84.7038C44.8511 83.2518 44.6589 81.7998 44.2196 80.4143C43.6564 81.2853 42.6731 82.8799 42.0772 84.2616C42.0546 84.3124 42.0219 84.358 41.9809 84.3956C41.94 84.4332 41.8918 84.4619 41.8392 84.4801C41.7867 84.4982 41.731 84.5054 41.6755 84.5011C41.6201 84.4968 41.5661 84.4812 41.517 84.4552C41.3502 84.3658 41.1669 84.2735 40.9732 84.1767C40.8242 84.1008 40.6663 84.0279 40.5039 83.9385C39.7505 83.5519 39.0973 82.9956 38.596 82.3134C38.0946 81.6312 37.7589 80.8419 37.6152 80.0078C37.4643 79.1398 37.5174 78.2487 37.7703 77.4048C38.0231 76.5609 38.4688 75.7872 39.0722 75.145C40.9166 73.1439 43.2244 72.2908 45.7466 72.6779C47.6506 72.9757 49.4921 74.5643 50.4366 76.7381C50.8051 77.5932 50.9653 78.5233 50.9042 79.4523C50.843 80.3812 50.5623 81.2824 50.085 82.0818C49.6096 82.9157 48.9431 83.6251 48.1403 84.1518C47.3375 84.6785 46.4212 85.0075 45.4666 85.1118L45.2341 85.1341H45.2014L45.1909 85.1386ZM44.3164 79.1278H44.3477C44.4195 79.1348 44.4882 79.1609 44.5466 79.2033C44.6051 79.2457 44.6511 79.3029 44.6799 79.3691C45.4397 81.1066 45.617 83.1211 45.6051 84.2825C46.3878 84.1599 47.1329 83.8627 47.7849 83.4129C48.437 82.9631 48.9792 82.3723 49.3714 81.6843C49.7847 80.9943 50.0283 80.2161 50.0822 79.4138C50.136 78.6114 49.9986 77.8077 49.6813 77.0687C48.8455 75.1435 47.2469 73.7365 45.6111 73.4864C43.3361 73.138 41.3323 73.8824 39.6518 75.7019C39.1341 76.2523 38.7514 76.9154 38.5337 77.6388C38.316 78.3622 38.2693 79.1263 38.3973 79.8708C38.5201 80.5821 38.8066 81.2551 39.2343 81.8367C39.6619 82.4184 40.219 82.8927 40.8615 83.2223C41.0194 83.3042 41.1729 83.3817 41.3204 83.4546L41.517 83.5469C42.4437 81.5592 43.9231 79.4018 43.9886 79.305C44.0253 79.2517 44.0741 79.2079 44.1312 79.1774C44.1882 79.1468 44.2517 79.1303 44.3164 79.1293V79.1278Z" fill="#262424"/>
<path d="M46.5083 65.4866L45.0184 69.0302L42.1133 75.5322C43.4914 77.8519 45.7306 78.4445 48.2648 77.8802L49.2466 74.9724L50.7364 70.5682L46.5083 65.4866Z" fill="white"/>
<path d="M46.5562 78.4845C44.4823 78.4845 42.8465 77.5539 41.7679 75.7374C41.7348 75.6819 41.7156 75.6193 41.7117 75.5548C41.7078 75.4903 41.7194 75.4258 41.7455 75.3667L44.6447 68.8646L46.1346 65.3285C46.1616 65.2644 46.2047 65.2083 46.2597 65.1657C46.3148 65.1231 46.3799 65.0953 46.4487 65.0852C46.5176 65.075 46.5879 65.0827 46.6529 65.1076C46.7179 65.1325 46.7754 65.1737 46.8199 65.2272L51.051 70.3104C51.0954 70.3635 51.1254 70.4271 51.1382 70.4952C51.1509 70.5632 51.1461 70.6334 51.124 70.699L48.6539 78.0095C48.6313 78.0756 48.592 78.1347 48.5398 78.1812C48.4876 78.2276 48.4242 78.2598 48.3559 78.2745C47.7655 78.4101 47.162 78.4805 46.5562 78.4845ZM42.5724 75.5067C43.7389 77.3291 45.552 78.011 47.9566 77.5375L50.2808 70.6603L46.6202 66.2635L45.3896 69.1862L42.5724 75.5067Z" fill="#262424"/>
<path d="M58.3825 69.1462C57.9847 72.7121 56.9031 76.9704 52.6243 76.2602C47.538 75.4159 44.2812 71.7815 44.2812 66.9351C44.2812 62.0888 46.5503 59.3804 52.3502 59.9968C52.8437 60.0479 53.332 60.14 53.8102 60.2723C57.1414 61.2073 58.7922 63.9945 58.5493 67.2359C58.5091 67.824 58.4584 68.4732 58.3825 69.1462Z" fill="white"/>
<path d="M53.5265 76.7427C53.2019 76.7415 52.878 76.7136 52.5581 76.6593C50.4812 76.3154 48.6249 75.4935 47.1947 74.277C47.1518 74.2435 47.1161 74.2017 47.0897 74.1541C47.0634 74.1065 47.0469 74.0541 47.0412 74C47.0356 73.9459 47.0409 73.8912 47.0569 73.8392C47.0729 73.7872 47.0992 73.7389 47.1342 73.6973C47.1693 73.6557 47.2123 73.6215 47.2609 73.5969C47.3094 73.5723 47.3624 73.5577 47.4168 73.554C47.4711 73.5503 47.5256 73.5575 47.577 73.5754C47.6284 73.5932 47.6758 73.6212 47.7161 73.6577C49.0361 74.7773 50.7539 75.5411 52.6907 75.8612C53.8632 76.0563 54.8092 75.8612 55.5824 75.2835C57.254 74.0195 57.7516 71.1503 57.981 69.1016C58.057 68.4331 58.1077 67.8003 58.1509 67.2092C58.3907 64.0096 56.6864 61.5022 53.7052 60.658C53.6069 60.6248 53.525 60.5551 53.4766 60.4633C53.4281 60.3715 53.4168 60.2647 53.4449 60.1648C53.473 60.0649 53.5384 59.9796 53.6276 59.9265C53.7168 59.8733 53.823 59.8565 53.9242 59.8793C57.2987 60.8263 59.228 63.6552 58.9584 67.2628C58.9152 67.836 58.863 68.5046 58.7855 69.1865C58.5397 71.3826 57.9915 74.4706 56.0711 75.9238C55.338 76.4727 54.4423 76.7609 53.5265 76.7427Z" fill="#262424"/>
<path d="M42.7636 67.8314C43.2466 68.5468 43.7909 69.2189 44.3905 69.84L46.9589 70.0261L47.5265 68.2141C47.5265 68.2141 49.1654 68.159 49.5065 67.0632C49.5156 67.0379 49.5231 67.012 49.5289 66.9857C49.6183 66.6269 49.9758 65.0234 49.7524 62.519C49.7524 62.519 53.6542 64.2893 55.7847 64.538C56.5504 64.6273 57.4503 64.3414 58.2891 63.9424C59.9681 63.1354 61.4564 60.4316 61.1838 58.5824V58.5466C60.7532 55.8472 59.329 57.6994 59.329 57.6994C59.329 57.6994 58.9506 55.5256 57.5918 55.3544C56.2331 55.1832 55.3467 57.1798 55.3467 57.1798C52.7423 56.5441 50.0416 56.4027 47.385 56.7629C42.1185 57.5074 43.3893 61.1433 43.3893 61.1433C43.3893 61.1433 39.5038 62.3508 42.7636 67.8314Z" fill="#262424"/>
<path d="M46.3994 69.7433C46.6408 67.7214 45.2374 65.826 43.2157 65.5743C42.7871 65.5183 42.3517 65.5446 41.9329 65.6518C39.4166 66.3024 40.014 72.1464 46.1566 71.7667L46.3994 69.7433Z" fill="white"/>
<path d="M45.6078 72.1866C42.284 72.1866 40.4918 70.3195 40.1834 68.378C39.945 66.8786 40.6392 65.5669 41.8341 65.2513C42.3024 65.1311 42.7893 65.1012 43.2688 65.1634C45.4886 65.4418 47.0753 67.5159 46.8042 69.779C46.7894 69.884 46.7341 69.9791 46.65 70.0438C46.5659 70.1085 46.4598 70.1376 46.3544 70.1249C46.2491 70.1123 46.1529 70.0588 46.0866 69.976C46.0202 69.8932 45.989 69.7878 45.9997 69.6823C46.2187 67.8539 44.9478 66.1848 43.169 65.96C42.7911 65.9107 42.4073 65.934 42.0382 66.0285C41.256 66.231 40.8136 67.16 40.9849 68.238C41.2337 69.8043 42.731 71.5583 46.1367 71.3468C46.1898 71.3435 46.2431 71.3507 46.2934 71.3679C46.3438 71.3852 46.3902 71.4122 46.4302 71.4473C46.4701 71.4825 46.5027 71.5252 46.5261 71.573C46.5495 71.6208 46.5632 71.6727 46.5665 71.7258C46.5699 71.7789 46.5627 71.8321 46.5454 71.8824C46.5282 71.9327 46.5012 71.9791 46.466 72.019C46.4308 72.0589 46.388 72.0915 46.3402 72.1149C46.2924 72.1382 46.2405 72.152 46.1874 72.1553C45.9887 72.1762 45.7955 72.1866 45.6078 72.1866Z" fill="#262424"/>
<path d="M23.6139 87.7786C19.8465 86.345 16.211 84.5868 12.7484 82.5237C10.3464 81.0791 8.80929 79.9956 8.80929 79.9956C8.59246 78.5955 8.43707 77.181 8.32745 75.7821C7.72514 67.7836 8.74184 60.4761 8.74184 60.4761C12.3786 58.3092 14.995 61.1142 14.995 61.1142C15.1227 64.2442 17.1633 71.7636 17.1633 71.7636L29.5503 73.9173C40.0183 75.9314 33.2496 91.4131 23.6139 87.7786Z" fill="#FEA151"/>
<path d="M10.0323 61.3441C10.2789 61.3441 10.4787 61.1444 10.4787 60.898C10.4787 60.6516 10.2789 60.4519 10.0323 60.4519C9.7858 60.4519 9.58594 60.6516 9.58594 60.898C9.58594 61.1444 9.7858 61.3441 10.0323 61.3441Z" fill="white"/>
<path d="M10.0363 61.672C9.88309 61.672 9.73334 61.6265 9.60596 61.5415C9.47858 61.4564 9.3793 61.3355 9.32068 61.1941C9.26205 61.0526 9.24672 60.897 9.2766 60.7468C9.30649 60.5967 9.38026 60.4588 9.48858 60.3505C9.59691 60.2422 9.73492 60.1685 9.88517 60.1387C10.0354 60.1088 10.1912 60.1241 10.3327 60.1827C10.4742 60.2413 10.5952 60.3405 10.6803 60.4678C10.7654 60.5951 10.8109 60.7448 10.8109 60.8979C10.8109 61.1032 10.7292 61.3001 10.584 61.4452C10.4387 61.5904 10.2417 61.672 10.0363 61.672ZM10.0363 60.7787C10.0125 60.7787 9.98917 60.7857 9.96936 60.799C9.94955 60.8122 9.93411 60.831 9.92499 60.853C9.91588 60.875 9.91349 60.8992 9.91814 60.9226C9.92279 60.9459 9.93426 60.9674 9.95111 60.9842C9.96795 61.001 9.98942 61.0125 10.0128 61.0171C10.0362 61.0218 10.0604 61.0194 10.0824 61.0103C10.1044 61.0012 10.1232 60.9857 10.1364 60.966C10.1497 60.9462 10.1567 60.9229 10.1567 60.8991C10.1564 60.8673 10.1436 60.837 10.121 60.8147C10.0985 60.7924 10.068 60.7799 10.0363 60.7799V60.7787Z" fill="#262424"/>
<path d="M14.6165 63.1236C14.5632 63.1235 14.5106 63.1102 14.4636 63.0851C11.3521 61.4406 9.36204 62.8118 9.28374 62.8708C9.21317 62.9181 9.12694 62.9362 9.04328 62.9212C8.95961 62.9063 8.88504 62.8594 8.83533 62.7905C8.78561 62.7216 8.76463 62.636 8.77683 62.552C8.78902 62.4679 8.83342 62.3918 8.90067 62.3399C8.99583 62.2701 11.287 60.6629 14.7756 62.5072C14.8404 62.5418 14.8918 62.5971 14.9214 62.6643C14.9509 62.7316 14.9571 62.8068 14.9387 62.8779C14.9204 62.9491 14.8786 63.012 14.8202 63.0565C14.7618 63.1011 14.69 63.1247 14.6165 63.1236Z" fill="#262424"/>
<path d="M26.5156 88.6588C25.4816 88.6525 24.4574 88.4579 23.4933 88.0845C23.453 88.0693 23.4161 88.0464 23.3847 88.017C23.3534 87.9875 23.3281 87.9522 23.3104 87.9131C23.2926 87.8739 23.2828 87.8316 23.2814 87.7886C23.28 87.7456 23.2871 87.7028 23.3023 87.6626C23.3175 87.6223 23.3405 87.5855 23.3699 87.5541C23.3994 87.5227 23.4347 87.4975 23.4739 87.4798C23.5131 87.462 23.5554 87.4522 23.5984 87.4508C23.6414 87.4495 23.6843 87.4566 23.7246 87.4717C28.3647 89.2222 32.4327 86.2799 33.9047 82.6214C35.0527 79.7682 34.6552 76.2264 31.1811 74.7433C31.1406 74.727 31.1038 74.7028 31.0728 74.6721C31.0418 74.6414 31.0173 74.6049 31.0006 74.5646C30.9839 74.5243 30.9755 74.4811 30.9758 74.4375C30.9761 74.3939 30.985 74.3508 31.0022 74.3107C31.0194 74.2706 31.0444 74.2343 31.0757 74.204C31.1071 74.1737 31.1442 74.15 31.1849 74.1342C31.2256 74.1185 31.269 74.111 31.3126 74.1122C31.3562 74.1134 31.3991 74.1233 31.4389 74.1413C35.3201 75.7979 35.7755 79.7177 34.513 82.8658C33.6951 84.8979 32.1749 86.6435 30.3427 87.6559C29.1729 88.3095 27.8558 88.6546 26.5156 88.6588Z" fill="#262424"/>
<path d="M12.7921 76.9138C12.7285 76.9138 12.6663 76.8952 12.6131 76.8604C12.5599 76.8256 12.518 76.7761 12.4924 76.7179C12.4669 76.6597 12.4589 76.5954 12.4693 76.5327C12.4797 76.47 12.5082 76.4117 12.5512 76.3649L16.4433 72.1514C16.4725 72.1197 16.5076 72.0942 16.5467 72.0761C16.5857 72.0581 16.628 72.0479 16.671 72.0462C16.714 72.0444 16.7569 72.0512 16.7973 72.066C16.8377 72.0809 16.8748 72.1035 16.9065 72.1327C16.9381 72.1619 16.9637 72.197 16.9817 72.236C16.9998 72.2751 17.01 72.3173 17.0117 72.3603C17.0135 72.4033 17.0067 72.4462 16.9918 72.4865C16.977 72.5269 16.9543 72.564 16.9251 72.5956L13.033 76.8091C13.0023 76.8423 12.9651 76.8687 12.9236 76.8868C12.8821 76.9048 12.8373 76.914 12.7921 76.9138Z" fill="#262424"/>
<path d="M13.0785 80.7C13.0792 81.3231 12.9649 81.941 12.7412 82.5227C10.3392 81.078 8.80216 79.9945 8.80216 79.9945C8.58533 78.5944 8.42993 77.1799 8.32031 75.781H8.35163C10.9668 75.7894 13.0785 77.9877 13.0785 80.7Z" fill="#D16100"/>
</svg>
