<svg width="573" height="259" viewBox="0 0 573 259" fill="none" xmlns="http://www.w3.org/2000/svg">
<circle cx="567.809" cy="4.26972" r="4.26923" transform="rotate(90 567.809 4.26972)" fill="#70C217"/>
<circle cx="567.809" cy="66.8846" r="4.26923" transform="rotate(90 567.809 66.8846)" fill="#70C217"/>
<circle cx="567.809" cy="129.5" r="4.26923" transform="rotate(90 567.809 129.5)" fill="#70C217"/>
<circle cx="567.809" cy="192.116" r="4.26923" transform="rotate(90 567.809 192.116)" fill="#70C217"/>
<circle cx="567.809" cy="254.731" r="4.26923" transform="rotate(90 567.809 254.731)" fill="#70C217"/>
<circle cx="505.192" cy="4.26923" r="4.26923" transform="rotate(90 505.192 4.26923)" fill="#70C217"/>
<circle cx="505.192" cy="66.8846" r="4.26923" transform="rotate(90 505.192 66.8846)" fill="#70C217"/>
<circle cx="505.192" cy="129.5" r="4.26923" transform="rotate(90 505.192 129.5)" fill="#70C217"/>
<circle cx="505.192" cy="192.116" r="4.26923" transform="rotate(90 505.192 192.116)" fill="#70C217"/>
<circle cx="505.192" cy="254.731" r="4.26923" transform="rotate(90 505.192 254.731)" fill="#70C217"/>
<circle cx="442.578" cy="4.26923" r="4.26923" transform="rotate(90 442.578 4.26923)" fill="#70C217"/>
<circle cx="442.578" cy="66.8846" r="4.26923" transform="rotate(90 442.578 66.8846)" fill="#70C217"/>
<circle cx="442.578" cy="129.5" r="4.26923" transform="rotate(90 442.578 129.5)" fill="#70C217"/>
<circle cx="442.578" cy="192.116" r="4.26923" transform="rotate(90 442.578 192.116)" fill="#70C217"/>
<circle cx="442.578" cy="254.731" r="4.26923" transform="rotate(90 442.578 254.731)" fill="#70C217"/>
<circle cx="379.961" cy="4.26923" r="4.26923" transform="rotate(90 379.961 4.26923)" fill="#70C217"/>
<circle cx="379.961" cy="66.8846" r="4.26923" transform="rotate(90 379.961 66.8846)" fill="#70C217"/>
<circle cx="379.961" cy="129.5" r="4.26923" transform="rotate(90 379.961 129.5)" fill="#70C217"/>
<circle cx="379.961" cy="192.116" r="4.26923" transform="rotate(90 379.961 192.116)" fill="#70C217"/>
<circle cx="379.961" cy="254.731" r="4.26923" transform="rotate(90 379.961 254.731)" fill="#70C217"/>
<circle cx="317.348" cy="4.26923" r="4.26923" transform="rotate(90 317.348 4.26923)" fill="#70C217"/>
<circle cx="317.348" cy="66.8846" r="4.26923" transform="rotate(90 317.348 66.8846)" fill="#70C217"/>
<circle cx="317.348" cy="129.5" r="4.26923" transform="rotate(90 317.348 129.5)" fill="#70C217"/>
<circle cx="317.348" cy="192.116" r="4.26923" transform="rotate(90 317.348 192.116)" fill="#70C217"/>
<circle cx="317.348" cy="254.731" r="4.26923" transform="rotate(90 317.348 254.731)" fill="#70C217"/>
<circle cx="254.731" cy="4.26923" r="4.26923" transform="rotate(90 254.731 4.26923)" fill="#70C217"/>
<circle cx="254.731" cy="66.8846" r="4.26923" transform="rotate(90 254.731 66.8846)" fill="#70C217"/>
<circle cx="254.731" cy="129.5" r="4.26923" transform="rotate(90 254.731 129.5)" fill="#70C217"/>
<circle cx="254.731" cy="192.116" r="4.26923" transform="rotate(90 254.731 192.116)" fill="#70C217"/>
<circle cx="254.731" cy="254.731" r="4.26923" transform="rotate(90 254.731 254.731)" fill="#70C217"/>
<circle cx="192.117" cy="4.26923" r="4.26923" transform="rotate(90 192.117 4.26923)" fill="#70C217"/>
<circle cx="192.117" cy="66.8846" r="4.26923" transform="rotate(90 192.117 66.8846)" fill="#70C217"/>
<circle cx="192.117" cy="129.5" r="4.26923" transform="rotate(90 192.117 129.5)" fill="#70C217"/>
<circle cx="192.117" cy="192.116" r="4.26923" transform="rotate(90 192.117 192.116)" fill="#70C217"/>
<circle cx="192.117" cy="254.731" r="4.26923" transform="rotate(90 192.117 254.731)" fill="#70C217"/>
<circle cx="129.5" cy="4.26923" r="4.26923" transform="rotate(90 129.5 4.26923)" fill="#70C217"/>
<circle cx="129.5" cy="66.8846" r="4.26923" transform="rotate(90 129.5 66.8846)" fill="#70C217"/>
<circle cx="129.5" cy="129.5" r="4.26923" transform="rotate(90 129.5 129.5)" fill="#70C217"/>
<circle cx="129.5" cy="192.116" r="4.26923" transform="rotate(90 129.5 192.116)" fill="#70C217"/>
<circle cx="129.5" cy="254.731" r="4.26923" transform="rotate(90 129.5 254.731)" fill="#70C217"/>
<circle cx="66.887" cy="4.26923" r="4.26923" transform="rotate(90 66.887 4.26923)" fill="#70C217"/>
<circle cx="66.887" cy="66.8846" r="4.26923" transform="rotate(90 66.887 66.8846)" fill="#70C217"/>
<circle cx="66.887" cy="129.5" r="4.26923" transform="rotate(90 66.887 129.5)" fill="#70C217"/>
<circle cx="66.887" cy="192.116" r="4.26923" transform="rotate(90 66.887 192.116)" fill="#70C217"/>
<circle cx="66.887" cy="254.731" r="4.26923" transform="rotate(90 66.887 254.731)" fill="#70C217"/>
<circle cx="4.26983" cy="4.26923" r="4.26923" transform="rotate(90 4.26983 4.26923)" fill="#70C217"/>
<circle cx="4.26983" cy="66.8846" r="4.26923" transform="rotate(90 4.26983 66.8846)" fill="#70C217"/>
<circle cx="4.26983" cy="129.5" r="4.26923" transform="rotate(90 4.26983 129.5)" fill="#70C217"/>
<circle cx="4.26983" cy="192.116" r="4.26923" transform="rotate(90 4.26983 192.116)" fill="#70C217"/>
<circle cx="4.26983" cy="254.731" r="4.26923" transform="rotate(90 4.26983 254.731)" fill="#70C217"/>
</svg>
