<svg width="261" height="573" viewBox="0 0 261 573" fill="none" xmlns="http://www.w3.org/2000/svg">
<circle cx="254.741" cy="568.399" r="4.26923" transform="rotate(-179.867 254.741 568.399)" fill="#70C217"/>
<circle cx="192.127" cy="568.253" r="4.26923" transform="rotate(-179.867 192.127 568.253)" fill="#70C217"/>
<circle cx="129.51" cy="568.108" r="4.26923" transform="rotate(-179.867 129.51 568.108)" fill="#70C217"/>
<circle cx="66.8931" cy="567.962" r="4.26923" transform="rotate(-179.867 66.8931 567.962)" fill="#70C217"/>
<circle cx="4.27978" cy="567.816" r="4.26923" transform="rotate(-179.867 4.27978 567.816)" fill="#70C217"/>
<circle cx="254.885" cy="505.784" r="4.26923" transform="rotate(-179.867 254.885 505.784)" fill="#70C217"/>
<circle cx="192.272" cy="505.638" r="4.26923" transform="rotate(-179.867 192.272 505.638)" fill="#70C217"/>
<circle cx="129.655" cy="505.492" r="4.26923" transform="rotate(-179.867 129.655 505.492)" fill="#70C217"/>
<circle cx="67.0415" cy="505.347" r="4.26923" transform="rotate(-179.867 67.0415 505.347)" fill="#70C217"/>
<circle cx="4.42431" cy="505.201" r="4.26923" transform="rotate(-179.867 4.42431 505.201)" fill="#70C217"/>
<circle cx="255.034" cy="443.169" r="4.26923" transform="rotate(-179.867 255.034 443.169)" fill="#70C217"/>
<circle cx="192.416" cy="443.023" r="4.26923" transform="rotate(-179.867 192.416 443.023)" fill="#70C217"/>
<circle cx="129.803" cy="442.877" r="4.26923" transform="rotate(-179.867 129.803 442.877)" fill="#70C217"/>
<circle cx="67.186" cy="442.732" r="4.26923" transform="rotate(-179.867 67.186 442.732)" fill="#70C217"/>
<circle cx="4.57274" cy="442.586" r="4.26923" transform="rotate(-179.867 4.57274 442.586)" fill="#70C217"/>
<circle cx="255.178" cy="380.553" r="4.26923" transform="rotate(-179.867 255.178 380.553)" fill="#70C217"/>
<circle cx="192.561" cy="380.408" r="4.26923" transform="rotate(-179.867 192.561 380.408)" fill="#70C217"/>
<circle cx="129.948" cy="380.262" r="4.26923" transform="rotate(-179.867 129.948 380.262)" fill="#70C217"/>
<circle cx="67.3306" cy="380.116" r="4.26923" transform="rotate(-179.867 67.3306 380.116)" fill="#70C217"/>
<circle cx="4.71728" cy="379.971" r="4.26923" transform="rotate(-179.867 4.71728 379.971)" fill="#70C217"/>
<circle cx="255.323" cy="317.939" r="4.26923" transform="rotate(-179.867 255.323 317.939)" fill="#70C217"/>
<circle cx="192.709" cy="317.793" r="4.26923" transform="rotate(-179.867 192.709 317.793)" fill="#70C217"/>
<circle cx="130.092" cy="317.647" r="4.26923" transform="rotate(-179.867 130.092 317.647)" fill="#70C217"/>
<circle cx="67.479" cy="317.502" r="4.26923" transform="rotate(-179.867 67.479 317.502)" fill="#70C217"/>
<circle cx="4.86181" cy="317.356" r="4.26923" transform="rotate(-179.867 4.86181 317.356)" fill="#70C217"/>
<circle cx="255.467" cy="255.323" r="4.26923" transform="rotate(-179.867 255.467 255.323)" fill="#70C217"/>
<circle cx="192.854" cy="255.177" r="4.26923" transform="rotate(-179.867 192.854 255.177)" fill="#70C217"/>
<circle cx="130.241" cy="255.031" r="4.26923" transform="rotate(-179.867 130.241 255.031)" fill="#70C217"/>
<circle cx="67.6235" cy="254.886" r="4.26923" transform="rotate(-179.867 67.6235 254.886)" fill="#70C217"/>
<circle cx="5.00634" cy="254.74" r="4.26923" transform="rotate(-179.867 5.00634 254.74)" fill="#70C217"/>
<circle cx="255.616" cy="192.707" r="4.26923" transform="rotate(-179.867 255.616 192.707)" fill="#70C217"/>
<circle cx="192.999" cy="192.562" r="4.26923" transform="rotate(-179.867 192.999 192.562)" fill="#70C217"/>
<circle cx="130.385" cy="192.416" r="4.26923" transform="rotate(-179.867 130.385 192.416)" fill="#70C217"/>
<circle cx="67.7681" cy="192.27" r="4.26923" transform="rotate(-179.867 67.7681 192.27)" fill="#70C217"/>
<circle cx="5.15478" cy="192.125" r="4.26923" transform="rotate(-179.867 5.15478 192.125)" fill="#70C217"/>
<circle cx="255.76" cy="130.092" r="4.26923" transform="rotate(-179.867 255.76 130.092)" fill="#70C217"/>
<circle cx="193.147" cy="129.946" r="4.26923" transform="rotate(-179.867 193.147 129.946)" fill="#70C217"/>
<circle cx="130.53" cy="129.801" r="4.26923" transform="rotate(-179.867 130.53 129.801)" fill="#70C217"/>
<circle cx="67.9126" cy="129.655" r="4.26923" transform="rotate(-179.867 67.9126 129.655)" fill="#70C217"/>
<circle cx="5.29931" cy="129.51" r="4.26923" transform="rotate(-179.867 5.29931 129.51)" fill="#70C217"/>
<circle cx="255.905" cy="67.477" r="4.26923" transform="rotate(-179.867 255.905 67.477)" fill="#70C217"/>
<circle cx="193.291" cy="67.3312" r="4.26923" transform="rotate(-179.867 193.291 67.3312)" fill="#70C217"/>
<circle cx="130.674" cy="67.1856" r="4.26923" transform="rotate(-179.867 130.674 67.1856)" fill="#70C217"/>
<circle cx="68.061" cy="67.0399" r="4.26923" transform="rotate(-179.867 68.061 67.0399)" fill="#70C217"/>
<circle cx="5.44384" cy="66.8943" r="4.26923" transform="rotate(-179.867 5.44384 66.8943)" fill="#70C217"/>
<circle cx="256.053" cy="4.86172" r="4.26923" transform="rotate(-179.867 256.053 4.86172)" fill="#70C217"/>
<circle cx="193.436" cy="4.71609" r="4.26923" transform="rotate(-179.867 193.436 4.71609)" fill="#70C217"/>
<circle cx="130.823" cy="4.57046" r="4.26923" transform="rotate(-179.867 130.823 4.57046)" fill="#70C217"/>
<circle cx="68.2056" cy="4.42471" r="4.26923" transform="rotate(-179.867 68.2056 4.42471)" fill="#70C217"/>
<circle cx="5.59228" cy="4.27908" r="4.26923" transform="rotate(-179.867 5.59228 4.27908)" fill="#70C217"/>
</svg>
