<svg width="535" height="242" viewBox="0 0 535 242" fill="none" xmlns="http://www.w3.org/2000/svg">
<circle cx="530.538" cy="3.98956" r="3.98901" transform="rotate(90 530.538 3.98956)" fill="#7854F7"/>
<circle cx="530.538" cy="62.4945" r="3.98901" transform="rotate(90 530.538 62.4945)" fill="#7854F7"/>
<circle cx="530.538" cy="121" r="3.98901" transform="rotate(90 530.538 121)" fill="#7854F7"/>
<circle cx="530.538" cy="179.506" r="3.98901" transform="rotate(90 530.538 179.506)" fill="#7854F7"/>
<circle cx="530.538" cy="238.011" r="3.98901" transform="rotate(90 530.538 238.011)" fill="#7854F7"/>
<circle cx="472.034" cy="3.98901" r="3.98901" transform="rotate(90 472.034 3.98901)" fill="#7854F7"/>
<circle cx="472.034" cy="62.4945" r="3.98901" transform="rotate(90 472.034 62.4945)" fill="#7854F7"/>
<circle cx="472.034" cy="121" r="3.98901" transform="rotate(90 472.034 121)" fill="#7854F7"/>
<circle cx="472.034" cy="179.506" r="3.98901" transform="rotate(90 472.034 179.506)" fill="#7854F7"/>
<circle cx="472.034" cy="238.011" r="3.98901" transform="rotate(90 472.034 238.011)" fill="#7854F7"/>
<circle cx="413.527" cy="3.98901" r="3.98901" transform="rotate(90 413.527 3.98901)" fill="#7854F7"/>
<circle cx="413.527" cy="62.4945" r="3.98901" transform="rotate(90 413.527 62.4945)" fill="#7854F7"/>
<circle cx="413.527" cy="121" r="3.98901" transform="rotate(90 413.527 121)" fill="#7854F7"/>
<circle cx="413.527" cy="179.506" r="3.98901" transform="rotate(90 413.527 179.506)" fill="#7854F7"/>
<circle cx="413.527" cy="238.011" r="3.98901" transform="rotate(90 413.527 238.011)" fill="#7854F7"/>
<circle cx="355.023" cy="3.98901" r="3.98901" transform="rotate(90 355.023 3.98901)" fill="#7854F7"/>
<circle cx="355.023" cy="62.4945" r="3.98901" transform="rotate(90 355.023 62.4945)" fill="#7854F7"/>
<circle cx="355.023" cy="121" r="3.98901" transform="rotate(90 355.023 121)" fill="#7854F7"/>
<circle cx="355.023" cy="179.506" r="3.98901" transform="rotate(90 355.023 179.506)" fill="#7854F7"/>
<circle cx="355.023" cy="238.011" r="3.98901" transform="rotate(90 355.023 238.011)" fill="#7854F7"/>
<circle cx="296.515" cy="3.98901" r="3.98901" transform="rotate(90 296.515 3.98901)" fill="#7854F7"/>
<circle cx="296.515" cy="62.4945" r="3.98901" transform="rotate(90 296.515 62.4945)" fill="#7854F7"/>
<circle cx="296.515" cy="121" r="3.98901" transform="rotate(90 296.515 121)" fill="#7854F7"/>
<circle cx="296.515" cy="179.506" r="3.98901" transform="rotate(90 296.515 179.506)" fill="#7854F7"/>
<circle cx="296.515" cy="238.011" r="3.98901" transform="rotate(90 296.515 238.011)" fill="#7854F7"/>
<circle cx="238.011" cy="3.98901" r="3.98901" transform="rotate(90 238.011 3.98901)" fill="#7854F7"/>
<circle cx="238.011" cy="62.4945" r="3.98901" transform="rotate(90 238.011 62.4945)" fill="#7854F7"/>
<circle cx="238.011" cy="121" r="3.98901" transform="rotate(90 238.011 121)" fill="#7854F7"/>
<circle cx="238.011" cy="179.506" r="3.98901" transform="rotate(90 238.011 179.506)" fill="#7854F7"/>
<circle cx="238.011" cy="238.011" r="3.98901" transform="rotate(90 238.011 238.011)" fill="#7854F7"/>
<circle cx="179.507" cy="3.98901" r="3.98901" transform="rotate(90 179.507 3.98901)" fill="#7854F7"/>
<circle cx="179.507" cy="62.4945" r="3.98901" transform="rotate(90 179.507 62.4945)" fill="#7854F7"/>
<circle cx="179.507" cy="121" r="3.98901" transform="rotate(90 179.507 121)" fill="#7854F7"/>
<circle cx="179.507" cy="179.506" r="3.98901" transform="rotate(90 179.507 179.506)" fill="#7854F7"/>
<circle cx="179.507" cy="238.011" r="3.98901" transform="rotate(90 179.507 238.011)" fill="#7854F7"/>
<circle cx="120.999" cy="3.98901" r="3.98901" transform="rotate(90 120.999 3.98901)" fill="#7854F7"/>
<circle cx="120.999" cy="62.4945" r="3.98901" transform="rotate(90 120.999 62.4945)" fill="#7854F7"/>
<circle cx="120.999" cy="121" r="3.98901" transform="rotate(90 120.999 121)" fill="#7854F7"/>
<circle cx="120.999" cy="179.506" r="3.98901" transform="rotate(90 120.999 179.506)" fill="#7854F7"/>
<circle cx="120.999" cy="238.011" r="3.98901" transform="rotate(90 120.999 238.011)" fill="#7854F7"/>
<circle cx="62.4954" cy="3.98901" r="3.98901" transform="rotate(90 62.4954 3.98901)" fill="#7854F7"/>
<circle cx="62.4954" cy="62.4945" r="3.98901" transform="rotate(90 62.4954 62.4945)" fill="#7854F7"/>
<circle cx="62.4954" cy="121" r="3.98901" transform="rotate(90 62.4954 121)" fill="#7854F7"/>
<circle cx="62.4954" cy="179.506" r="3.98901" transform="rotate(90 62.4954 179.506)" fill="#7854F7"/>
<circle cx="62.4954" cy="238.011" r="3.98901" transform="rotate(90 62.4954 238.011)" fill="#7854F7"/>
<circle cx="3.98755" cy="3.98901" r="3.98901" transform="rotate(90 3.98755 3.98901)" fill="#7854F7"/>
<circle cx="3.98755" cy="62.4945" r="3.98901" transform="rotate(90 3.98755 62.4945)" fill="#7854F7"/>
<circle cx="3.98755" cy="121" r="3.98901" transform="rotate(90 3.98755 121)" fill="#7854F7"/>
<circle cx="3.98755" cy="179.506" r="3.98901" transform="rotate(90 3.98755 179.506)" fill="#7854F7"/>
<circle cx="3.98755" cy="238.011" r="3.98901" transform="rotate(90 3.98755 238.011)" fill="#7854F7"/>
</svg>
