<svg viewBox="0 0 105 105" fill="none" xmlns="http://www.w3.org/2000/svg">
<path d="M87.852 40.0309C90.0624 40.0309 91.8545 38.239 91.8545 36.0284V11.2446C91.8545 9.0341 90.0626 7.24219 87.8524 7.24219H53.4424C51.234 7.24219 49.4437 9.03082 49.4402 11.2384H37.9249C36.8455 11.2384 36.4003 12.6226 37.2774 13.252L48.5505 21.3398C49.1087 21.7404 49.4398 22.3853 49.4398 23.0724V36.0286C49.4398 38.239 51.2317 40.0311 53.4424 40.0311L87.852 40.0309Z" fill="#FFE07D"/>
<path d="M100.781 7.24219H87.4424C89.6528 7.24219 91.445 9.0341 91.445 11.2448V36.0286C91.445 38.239 89.6531 40.0311 87.4424 40.0311H100.781C102.991 40.0311 104.783 38.2392 104.783 36.0286V11.2446C104.783 9.0341 102.991 7.24219 100.781 7.24219Z" fill="#FFD064"/>
<path d="M42.3298 93.5498L42.3294 68.7599C42.3259 66.5523 40.5356 64.7637 38.3272 64.7637H4.00237C1.79191 64.7637 0 66.5556 0 68.7662V93.5501C0 95.7605 1.79191 97.5526 4.00258 97.5526H38.3276C40.5379 97.5522 42.3298 95.7603 42.3298 93.5498Z" fill="#95D6A4"/>
<path d="M66.8585 68.7609H55.3432C55.3397 66.5533 53.5494 64.7646 51.341 64.7646H37.918C40.1264 64.7646 41.9167 66.5533 41.9201 68.7609L41.9205 93.5508C41.9205 95.7613 40.1286 97.5534 37.918 97.5534H51.341C53.5515 97.5534 55.3436 95.7615 55.3436 93.5508V80.5944C55.3436 79.9073 55.6745 79.2624 56.2329 78.8619L67.5061 70.774C68.3831 70.1451 67.9379 68.7609 66.8585 68.7609Z" fill="#78C2A4"/>
<path d="M96.9042 17.3638H58.2961C57.4228 17.3638 56.7148 16.6558 56.7148 15.7825C56.7148 14.9091 57.4228 14.2012 58.2961 14.2012H96.9042C97.7775 14.2012 98.4854 14.9091 98.4854 15.7825C98.4854 16.6558 97.7775 17.3638 96.9042 17.3638Z" fill="#F0F7FF"/>
<path d="M96.9032 25.2183H58.2952C57.4218 25.2183 56.7139 24.5103 56.7139 23.637C56.7139 22.7636 57.4218 22.0557 58.2952 22.0557H96.9032C97.7765 22.0557 98.4845 22.7636 98.4845 23.637C98.4845 24.5101 97.7765 25.2183 96.9032 25.2183Z" fill="#F0F7FF"/>
<path d="M76.1598 33.0718H58.2952C57.4218 33.0718 56.7139 32.3638 56.7139 31.4905C56.7139 30.6171 57.4218 29.9092 58.2952 29.9092H76.1598C77.0332 29.9092 77.7411 30.6171 77.7411 31.4905C77.7411 32.3638 77.0332 33.0718 76.1598 33.0718Z" fill="#F0F7FF"/>
<path d="M47.722 74.6558H9.11401C8.24068 74.6558 7.53271 73.9478 7.53271 73.0745C7.53271 72.2011 8.24068 71.4932 9.11401 71.4932H47.722C48.5954 71.4932 49.3033 72.2011 49.3033 73.0745C49.3033 73.9478 48.5954 74.6558 47.722 74.6558Z" fill="#F0F7FF"/>
<path d="M47.7215 82.5093H9.11353C8.24019 82.5093 7.53223 81.8013 7.53223 80.928C7.53223 80.0546 8.24019 79.3467 9.11353 79.3467H47.7215C48.5949 79.3467 49.3028 80.0546 49.3028 80.928C49.3028 81.8013 48.5949 82.5093 47.7215 82.5093Z" fill="#F0F7FF"/>
<path d="M47.7213 90.3618H29.8567C28.9834 90.3618 28.2754 89.6539 28.2754 88.7805C28.2754 87.9072 28.9834 87.1992 29.8567 87.1992H47.7213C48.5947 87.1992 49.3026 87.9072 49.3026 88.7805C49.3026 89.6539 48.5947 90.3618 47.7213 90.3618Z" fill="#F0F7FF"/>
<path d="M25.2864 32.8441C24.5648 32.7536 24.0222 32.1423 24.0191 31.4149L23.9913 24.7988L13.8825 24.8414L13.9103 31.4574C13.9134 32.1848 13.3759 32.8005 12.6551 32.8973C12.6551 32.8973 10.7885 39.2768 18.9975 39.2422C27.2065 39.2076 25.2864 32.8441 25.2864 32.8441Z" fill="#FFCBBE"/>
<path d="M22.574 54.1914C24.2294 54.1914 25.5706 52.8477 25.5688 51.1923C25.5625 45.5235 25.5481 41.899 25.5692 41.0352C25.621 38.896 24.7186 36.9966 23.1371 35.7281L21.8532 35.3638C18.7153 36.5574 14.9567 35.7424 12.655 32.8975C10.5049 33.1856 6.1378 33.8676 3.83053 34.9067C1.32227 36.0369 -0.0729879 38.5669 0.0029456 41.1662V51.1966C0.0029456 52.8506 1.34376 54.1914 2.99772 54.1914H22.574Z" fill="#E28086"/>
<path d="M38.123 41.0347C38.19 38.2657 36.6627 35.8946 34.1274 34.7785C31.8113 33.759 27.4387 33.1139 25.2864 32.8438L25.2735 32.8599C24.3328 34.0366 23.1445 34.8696 21.8534 35.3633C23.7423 36.6153 24.8418 38.6796 24.7847 41.0347C24.7639 41.8987 24.778 45.523 24.7843 51.1918C24.7862 52.8472 23.4449 54.1909 21.7896 54.1909H35.1279C36.7832 54.1909 38.1245 52.8472 38.1226 51.1918C38.1163 45.523 38.1022 41.8985 38.123 41.0347Z" fill="#DD636E"/>
<path d="M18.2738 0.33357L17.7621 0.000976562H17.7628H15.4669C10.7748 0.000976562 6.97119 3.80461 6.97119 8.49673V15.06H18.2822L18.2738 0.33357Z" fill="#C46D07"/>
<path d="M22.4958 0H17.7607L17.7691 15.0592H30.9914V8.49576C30.9916 3.80364 27.1878 0 22.4958 0Z" fill="#9E5602"/>
<path d="M16.3912 28.2303C17.5818 26.5886 18.2848 24.5704 18.2848 22.3873L18.2777 9.70173L18.2775 9.41621C16.9258 9.32779 15.9053 8.97452 14.5238 8.35457C14.2641 8.23811 13.9828 8.17773 13.6981 8.17773C12.5845 8.17773 11.6817 9.08055 11.6817 10.1942V12.3115C11.6817 13.4487 10.7599 15.0598 9.62269 15.0598H6.96973C6.96973 18.5528 9.014 19.1416 9.014 19.1416C9.014 23.399 11.6846 27.0312 15.4411 28.4589L16.3912 28.2303Z" fill="#FFCBBE"/>
<path d="M28.3386 15.0599C27.2014 15.0599 26.2796 13.4487 26.2796 12.3115V10.1942C26.2796 9.08055 25.3767 8.17773 24.2631 8.17773C23.9786 8.17773 23.6972 8.23791 23.4375 8.35457C21.8263 9.07768 20.7078 9.43913 18.9805 9.43913C18.5423 9.43913 18.1436 9.41559 17.7658 9.36913L17.773 22.0547C17.773 24.4938 16.8955 26.727 15.4409 28.4594C16.541 28.8775 17.7337 29.1086 18.9805 29.1086C24.485 29.1086 28.9471 24.6463 28.9471 19.142C28.9471 19.142 30.9913 18.553 30.9913 15.0603H28.3386V15.0599Z" fill="#FFB19D"/>
<path d="M91.9271 83.4447C91.2054 83.3542 90.6628 82.7429 90.6597 82.0155L90.6319 75.3994L80.5231 75.442L80.5509 82.058C80.554 82.7854 80.0165 83.4011 79.2957 83.4979C79.2957 83.4979 77.4291 89.8773 85.6381 89.8427C93.8471 89.8082 91.9271 83.4447 91.9271 83.4447Z" fill="#FFDDCE"/>
<path d="M89.2146 104.792C90.87 104.792 92.2113 103.448 92.2094 101.793C92.2031 96.1241 92.1887 92.4998 92.2098 91.6358C92.2585 89.621 91.4611 87.8191 90.0468 86.5565C89.6197 86.1752 89.0665 85.9643 88.4938 85.9643C85.3533 87.1654 81.6006 86.3471 79.2956 83.498C77.1455 83.7862 72.7784 84.4682 70.4711 85.5073C67.9629 86.6375 66.5678 89.1677 66.6436 91.7668V101.797C66.6436 103.451 67.9844 104.792 69.6383 104.792H89.2146Z" fill="#E28086"/>
<path d="M104.764 91.6353C104.831 88.8663 103.303 86.4952 100.768 85.3791C98.452 84.3596 94.0793 83.7145 91.927 83.4443L91.9141 83.4605C90.9734 84.6372 89.7851 85.4702 88.494 85.9639C90.383 87.2158 91.4825 89.2802 91.4254 91.6353C91.4045 92.4993 91.4186 96.1236 91.4249 101.792C91.4268 103.448 90.0856 104.791 88.4302 104.791H101.768C103.424 104.791 104.765 103.448 104.763 101.792C104.757 96.1236 104.743 92.4993 104.764 91.6353Z" fill="#DD636E"/>
<path d="M84.913 50.9342L84.4013 50.6016H84.4021H82.1061C77.414 50.6016 73.6104 54.4052 73.6104 59.0973V65.6606H84.9214L84.913 50.9342Z" fill="#E49542"/>
<path d="M89.1365 50.6016H84.4014L84.4098 65.6608H97.632V59.0973C97.6322 54.4054 93.8286 50.6016 89.1365 50.6016Z" fill="#E27D47"/>
<path d="M83.0828 78.7611C84.2425 77.1323 84.9255 75.1406 84.9255 72.9889L84.9181 60.0178C83.5664 59.9294 82.5459 59.5761 81.1644 58.9561C80.9047 58.8397 80.6235 58.7793 80.3388 58.7793C79.2251 58.7793 78.3223 59.6821 78.3223 60.7957V62.9131C78.3223 64.0502 77.4005 65.6614 76.2633 65.6614H73.6104C73.6104 69.1544 75.6546 69.7432 75.6546 69.7432C75.6546 74.0006 78.3252 77.6327 82.0817 79.0605L83.0828 78.7611Z" fill="#FFDDCE"/>
<path d="M94.9792 65.6614C93.842 65.6614 92.9202 64.0502 92.9202 62.9131V60.7957C92.9202 59.6821 92.0174 58.7793 90.9037 58.7793C90.6192 58.7793 90.3378 58.8395 90.0781 58.9561C88.4669 59.6792 87.3484 60.0407 85.6211 60.0407C85.1829 60.0407 84.7842 60.0172 84.4064 59.9707L84.4136 72.6563C84.4136 75.0954 83.5362 77.3286 82.0815 79.0609C83.1817 79.4791 84.3743 79.7101 85.6211 79.7101C91.1256 79.7101 95.5877 75.2479 95.5877 69.7436C95.5877 69.7436 97.6319 69.1546 97.6319 65.6618H94.9792V65.6614Z" fill="#FFCBBE"/>
</svg>
