<svg width="231" height="205" viewBox="0 0 231 205" fill="none" xmlns="http://www.w3.org/2000/svg">
<path d="M33.7617 53.0073L54.3627 73.6083C70.0093 57.9616 91.6245 48.284 115.501 48.284V19.15C83.5797 19.15 54.6808 32.0887 33.7617 53.0073Z" fill="#F6E266"/>
<path d="M197.238 53.0073L176.637 73.6083C160.99 57.9616 139.375 48.284 115.499 48.284V19.15C147.42 19.15 176.319 32.0887 197.238 53.0073Z" fill="#E49542"/>
<path d="M197.231 53.0145L176.638 73.6078C191.306 88.2763 200.729 108.191 201.849 130.296C201.975 132.782 204.001 134.746 206.49 134.746H226.344C228.99 134.746 231.105 132.54 230.996 129.896C229.757 99.9053 217.085 72.8688 197.231 53.0145Z" fill="#78C2A4"/>
<path d="M207.371 64.609C207.695 67.4027 207.87 70.2297 207.87 73.0883C207.87 86.0785 204.452 98.4528 198.273 109.705C200.259 116.278 201.487 123.179 201.849 130.31C201.975 132.791 204.007 134.746 206.493 134.746H226.344C228.989 134.746 231.104 132.542 230.995 129.899C229.983 105.392 221.332 82.8634 207.371 64.609Z" fill="#95D6A4"/>
<path d="M33.7689 53.0145L54.3621 73.6078C39.6936 88.2763 30.2709 108.191 29.1507 130.296C29.0248 132.782 26.9986 134.746 24.5095 134.746H4.65563C2.00951 134.746 -0.105138 132.54 0.00404585 129.896C1.24251 99.9053 13.9146 72.8688 33.7689 53.0145Z" fill="#DD5790"/>
<path d="M207.871 45.8639C206.978 45.8639 206.085 45.5233 205.404 44.8425C181.39 20.8275 149.461 7.60185 115.5 7.60185C113.573 7.60185 112.011 6.03989 112.011 4.11294C112.011 2.18598 113.573 0.624023 115.5 0.624023C151.325 0.624023 185.006 14.5752 210.338 39.9076C211.7 41.2706 211.7 43.479 210.338 44.842C209.657 45.5233 208.763 45.8639 207.871 45.8639Z" fill="#DD5790"/>
<path d="M210.338 39.9081C209.125 38.6954 207.209 38.5442 205.82 39.5531L98.8294 117.304C98.0042 117.904 97.4826 118.835 97.4023 119.853C97.3225 120.87 97.692 121.872 98.4134 122.594L127.653 151.834C128.309 152.49 129.198 152.855 130.12 152.855C130.211 152.855 130.302 152.851 130.393 152.844C131.411 152.764 132.342 152.243 132.942 151.417L210.693 44.4262C211.703 43.0379 211.552 41.1218 210.338 39.9081Z" fill="#4073C8"/>
<path d="M76.0283 153.542V169.566C76.0283 172.135 78.1109 174.217 80.6799 174.217H150.32C152.889 174.217 154.972 172.135 154.972 169.566V153.542C154.972 143.161 146.556 134.746 136.175 134.746H94.8241C84.4436 134.746 76.0283 143.161 76.0283 153.542Z" fill="#9DC6FB"/>
<path d="M136.176 134.746H124.898C135.279 134.746 143.695 143.161 143.695 153.542V174.218H150.321C152.89 174.218 154.972 172.136 154.972 169.567V153.543C154.972 143.161 146.557 134.746 136.176 134.746Z" fill="#80B4FB"/>
<path d="M150.32 204.292H80.6799C78.1109 204.292 76.0283 202.209 76.0283 199.64V193.907C76.0283 191.338 78.1109 189.255 80.6799 189.255H150.32C152.889 189.255 154.972 191.338 154.972 193.907V199.64C154.972 202.209 152.889 204.292 150.32 204.292Z" fill="#4073C8"/>
<path d="M99.2532 174.218V164.819C99.2532 162.893 97.6913 161.331 95.7643 161.331C93.8373 161.331 92.2754 162.893 92.2754 164.819V174.218H99.2532Z" fill="#80B4FB"/>
<path d="M138.725 164.819C138.725 162.893 137.163 161.331 135.236 161.331C133.309 161.331 131.747 162.893 131.747 164.819V174.218H138.725V164.819Z" fill="#80B4FB"/>
<path d="M227.511 152.855H205.339C203.412 152.855 201.85 151.293 201.85 149.366C201.85 147.439 203.412 145.877 205.339 145.877H227.511C229.438 145.877 231 147.439 231 149.366C231 151.293 229.438 152.855 227.511 152.855Z" fill="#4073C8"/>
<path d="M221.698 167.892H211.36C209.433 167.892 207.871 166.33 207.871 164.403C207.871 162.476 209.433 160.914 211.36 160.914H221.698C223.625 160.914 225.187 162.476 225.187 164.403C225.187 166.33 223.625 167.892 221.698 167.892Z" fill="#4073C8"/>
<path d="M3.48891 152.855H25.6618C27.5887 152.855 29.1507 151.293 29.1507 149.366C29.1507 147.439 27.5887 145.877 25.6618 145.877H3.48891C1.56196 145.877 0 147.439 0 149.366C0 151.293 1.56196 152.855 3.48891 152.855Z" fill="#4073C8"/>
<path d="M9.30239 167.892H19.6401C21.567 167.892 23.129 166.33 23.129 164.403C23.129 162.476 21.567 160.914 19.6401 160.914H9.30239C7.37543 160.914 5.81348 162.476 5.81348 164.403C5.81348 166.33 7.37543 167.892 9.30239 167.892Z" fill="#4073C8"/>
<path d="M121.415 76.374C121.414 76.374 109.343 76.374 109.343 76.374C100.731 76.374 93.75 83.1938 93.75 91.6065V103.374H122.25V77.597L121.415 76.374Z" fill="#E49542"/>
<path d="M121.586 76.374H120.75V103.374H137.25V91.6066C137.25 83.1938 130.237 76.374 121.586 76.374Z" fill="#E27D47"/>
<path d="M124.5 136.163V123.624H106.5V136.163C106.5 141.25 110.53 145.374 115.5 145.374C120.471 145.374 124.5 141.25 124.5 136.163Z" fill="#FFCBBE"/>
<path d="M122.25 111.233V89.124H107.1C103.886 89.124 101.281 91.6931 101.281 94.8623V98.4024C101.281 101.139 99.0113 103.377 96.2368 103.377H93.75V106.89C93.75 108.963 95.4025 110.67 97.502 110.766C97.502 119.026 103.134 125.985 110.815 128.124C117.529 125.375 122.25 118.848 122.25 111.233Z" fill="#FFCBBE"/>
<path d="M109.5 127.759C111.431 128.479 113.517 128.874 115.695 128.874C125.573 128.874 133.581 120.783 133.581 110.803C135.626 110.737 137.25 109.042 137.25 106.975V103.402H133.581C131.541 103.402 129.886 101.73 129.886 99.6685V94.8721C129.886 91.6975 127.339 89.124 124.197 89.124H121.19V110.803C121.19 118.582 116.324 125.213 109.5 127.759Z" fill="#FFB19D"/>
</svg>
