<svg  viewBox="0 0 83 109" fill="none" xmlns="http://www.w3.org/2000/svg">
<path d="M41.0217 101.353C82.0435 101.353 82.0435 63.2294 82.0435 63.2294C82.0435 42.8501 72.2116 26.4811 67.5267 19.8381C66.5131 18.4009 64.3062 18.6749 63.6687 20.3138L62.5446 23.2046C62.296 23.8439 61.4443 23.9674 61.0241 23.4252C53.1554 13.271 45.8844 4.54947 42.7065 0.783142C41.8254 -0.261047 40.2183 -0.261047 39.337 0.783142C36.1591 4.54926 28.8881 13.271 21.0194 23.4252C20.5992 23.9674 19.7474 23.8441 19.4989 23.2046L18.3748 20.3138C17.7375 18.6746 15.5304 18.4009 14.5167 19.8381C9.83187 26.4813 0 42.8501 0 63.2296C0 63.2296 0 101.353 41.0217 101.353Z" fill="#FFE07D"/>
<path d="M75.1256 33.1104C74.8374 65.4306 48.5522 91.5434 16.1637 91.5434C14.7912 91.5434 13.4309 91.4926 12.082 91.4004C18.1592 97.0824 27.2929 101.353 41.0218 101.353C82.0436 101.353 82.0436 63.2295 82.0436 63.2295C82.0436 51.4968 78.7847 41.0939 75.1256 33.1104Z" fill="#FFD064"/>
<path d="M41.0215 101.352C72.7688 101.352 72.7688 71.8478 72.7688 71.8478C72.7688 56.8386 65.878 44.6402 62.0869 39.0647C61.0885 37.5966 58.8513 37.8557 58.2078 39.5106L57.8061 40.5435C57.5575 41.1828 56.706 41.3057 56.2854 40.7639C50.5777 33.4098 45.3061 27.0616 42.7105 23.9768C41.8282 22.9283 40.2146 22.9283 39.3323 23.9768C36.7367 27.0614 31.4653 33.4096 25.7574 40.7639C25.3368 41.3059 24.4855 41.183 24.2367 40.5435L23.835 39.5106C23.1914 37.8557 20.9543 37.5966 19.9559 39.0647C16.1648 44.6402 9.27393 56.8386 9.27393 71.8478C9.27414 71.848 9.27414 101.352 41.0215 101.352Z" fill="#EEB227"/>
<path d="M16.6089 91.538C21.2272 96.9454 28.752 101.353 41.0217 101.353C72.7691 101.353 72.7691 71.8488 72.7691 71.8488C72.7691 66.0842 71.752 60.735 70.2849 56.0156C61.2743 76.7911 40.6549 91.3598 16.6089 91.538Z" fill="#E28424"/>
<path d="M18.7271 85.1443V67.2314H56.8506V98.6775V106.28C56.8506 107.499 55.8625 108.487 54.6435 108.487H27.3995C26.1805 108.487 25.1924 107.499 25.1924 106.28V98.6775L21.0962 92.7448C19.5532 90.5106 18.7271 87.8597 18.7271 85.1443Z" fill="#FFCBBE"/>
<path d="M43.251 81.5107C40.5422 81.5107 38.3462 79.3147 38.3462 76.6059V50.9673C38.3462 48.2585 40.5422 46.0625 43.251 46.0625C45.9598 46.0625 48.1558 48.2585 48.1558 50.9673V76.6059C48.1558 79.3147 45.9598 81.5107 43.251 81.5107Z" fill="#FFDDCE"/>
<path d="M53.0606 79.3928C50.3518 79.3928 48.1558 77.1968 48.1558 74.488V53.0855C48.1558 50.3767 50.3518 48.1807 53.0606 48.1807C55.7694 48.1807 57.9654 50.3767 57.9654 53.0855V74.4882C57.9654 77.197 55.7696 79.3928 53.0606 79.3928Z" fill="#FFDDCE"/>
<path d="M33.4419 79.3928C30.7331 79.3928 28.5371 77.1968 28.5371 74.488V53.0855C28.5371 50.3767 30.7331 48.1807 33.4419 48.1807C36.1507 48.1807 38.3467 50.3767 38.3467 53.0855V74.4882C38.3467 77.197 36.1507 79.3928 33.4419 79.3928Z" fill="#FFDDCE"/>
<path d="M23.6319 75.1574C20.9231 75.1574 18.7271 72.9613 18.7271 70.2525V57.3218C18.7271 54.613 20.9231 52.417 23.6319 52.417C26.3407 52.417 28.5367 54.613 28.5367 57.3218V70.2525C28.5367 72.9613 26.3409 75.1574 23.6319 75.1574Z" fill="#FFDDCE"/>
<path d="M43.2508 46.0625C42.6212 46.0625 42.0201 46.1824 41.4673 46.3983C43.294 47.112 44.5884 48.8878 44.5884 50.9671V76.6057C44.5884 78.685 43.2938 80.4608 41.4673 81.1747C42.0203 81.3908 42.6214 81.5105 43.2508 81.5105C45.9595 81.5105 48.1556 79.3145 48.1556 76.6057V50.9671C48.1556 48.2585 45.9595 46.0625 43.2508 46.0625Z" fill="#FFB19D"/>
<path d="M53.0603 48.1807C52.4308 48.1807 51.8297 48.3006 51.2769 48.5165C53.1036 49.2302 54.398 51.006 54.398 53.0853V74.488C54.398 76.5672 53.1033 78.3431 51.2769 79.0567C51.8299 79.2729 52.431 79.3926 53.0603 79.3926C55.7691 79.3926 57.9651 77.1966 57.9651 74.4878V53.0855C57.9651 50.3767 55.7693 48.1807 53.0603 48.1807Z" fill="#FFB19D"/>
<path d="M33.4417 48.1807C32.8121 48.1807 32.211 48.3006 31.6582 48.5165C33.4849 49.2302 34.7793 51.006 34.7793 53.0853V74.488C34.7793 76.5672 33.4847 78.3431 31.6582 79.0567C32.2112 79.2729 32.8124 79.3926 33.4417 79.3926C36.1505 79.3926 38.3465 77.1966 38.3465 74.4878V53.0855C38.3465 50.3767 36.1505 48.1807 33.4417 48.1807Z" fill="#FFB19D"/>
<path d="M23.6316 52.417C23.0021 52.417 22.401 52.5369 21.8481 52.7528C23.6748 53.4665 24.9693 55.2423 24.9693 57.3216V70.2523C24.9693 72.3316 23.6746 74.1074 21.8481 74.8211C22.4012 75.0372 23.0023 75.1569 23.6316 75.1569C26.3404 75.1569 28.5364 72.9609 28.5364 70.2521V57.3214C28.5364 54.613 26.3406 52.417 23.6316 52.417Z" fill="#FFB19D"/>
<path d="M63.3158 68.3572C63.3158 64.6634 60.3214 61.6689 56.6276 61.6689H41.0215C38.5589 61.6689 36.5627 63.6652 36.5627 66.1277C36.5627 68.5903 38.5589 70.5865 41.0215 70.5865H50.8311V76.16L42.2356 79.5176C38.8145 80.854 36.5625 84.1512 36.5625 87.8241V98.6773H56.8505L60.9467 92.7446C62.4895 90.5102 63.3158 87.8593 63.3158 85.1441V68.3572Z" fill="#FFCBBE"/>
<path d="M52.4874 72.7928V76.1607C52.4874 76.8426 52.0694 77.4545 51.4343 77.7027L42.838 81.0596C40.032 82.1547 38.219 84.8103 38.219 87.8248V91.0286C38.219 91.9348 37.5206 92.7252 36.6148 92.7525C35.6774 92.7807 34.9087 92.0291 34.9087 91.0981V87.825C34.9087 83.4366 37.5486 79.5705 41.6341 77.976L49.1771 75.0303V70.5859H50.2806C51.4992 70.5857 52.4874 71.574 52.4874 72.7928Z" fill="#FFB19D"/>
</svg>
