<svg width="209" height="209" viewBox="0 0 209 209" fill="none" xmlns="http://www.w3.org/2000/svg">
<path d="M162.177 75.2059C162.175 75.2059 146.308 75.2059 146.308 75.2059C134.987 75.2059 125.81 84.3834 125.81 95.7043V111.54H163.275V76.8517L162.177 75.2059Z" fill="#C36D07"/>
<path d="M163.27 75.2059H162.177V111.54H183.769V95.7047C183.769 84.3834 174.591 75.2059 163.27 75.2059Z" fill="#9E5602"/>
<path d="M167.824 161.189L144.479 154.33H142.496L117.246 161.189C107.874 163.735 101.369 172.243 101.369 181.954V208.06H181.718L183.7 204.4V181.954C183.7 172.243 177.196 163.735 167.824 161.189Z" fill="#D3EFFB"/>
<path d="M192.332 161.189L167.081 154.33H142.496L165.841 161.189C175.213 163.735 181.718 172.243 181.718 181.954V208.06H198.165C203.712 208.06 208.209 203.563 208.209 198.016V181.954C208.209 172.243 201.704 163.735 192.332 161.189Z" fill="#9DC6FB"/>
<path d="M167.081 154.822V138.089H142.496V154.822C142.496 161.611 148 167.114 154.789 167.114C161.578 167.114 167.081 161.611 167.081 154.822Z" fill="#FFCBBE"/>
<path d="M163.275 122.011V92.5413H143.359C139.134 92.5413 135.71 95.9657 135.71 100.19V104.909C135.71 108.556 132.726 111.54 129.079 111.54H125.81V116.223C125.81 118.986 127.982 121.261 130.742 121.388C130.742 132.399 138.145 141.675 148.244 144.526C157.068 140.861 163.275 132.162 163.275 122.011Z" fill="#FFCBBE"/>
<path d="M146.459 143.952C149.055 144.91 151.86 145.436 154.789 145.436C168.069 145.436 178.835 134.669 178.835 121.389C181.585 121.3 183.768 119.046 183.768 116.295V111.54H178.835C176.092 111.54 173.868 109.316 173.868 106.573V100.19C173.868 95.9657 170.443 92.5413 166.219 92.5413H162.176V121.389C162.176 131.741 155.634 140.564 146.459 143.952Z" fill="#FFB19D"/>
<path d="M122.274 208.059V194.018C122.274 192.283 120.867 190.876 119.132 190.876C117.396 190.876 115.99 192.283 115.99 194.018V208.059H122.274Z" fill="#698ED5"/>
<path d="M190.445 190.876C188.709 190.876 187.303 192.283 187.303 194.018V208.059H193.587V194.018C193.586 192.283 192.18 190.876 190.445 190.876Z" fill="#698ED5"/>
<path d="M61.9012 75.2059H40.4745C36.4165 75.2059 33.127 78.4954 33.127 82.5534C33.127 83.1589 32.6362 83.6498 32.0307 83.6498H31.7879C27.7299 83.6498 24.4404 86.9392 24.4404 90.9972V111.54H82.3992V95.7047C82.3996 84.3834 73.2221 75.2059 61.9012 75.2059Z" fill="#E49542"/>
<path d="M61.9001 75.2059H60.8066V111.54H82.3985V95.7047C82.3985 84.3834 73.2211 75.2059 61.9001 75.2059Z" fill="#E27D47"/>
<path d="M67.2171 161.189L42.9193 154.589L43.8721 154.33H41.1272L15.8767 161.189C6.50488 163.735 0 172.243 0 181.954V198.016C0 203.563 4.49681 208.059 10.0436 208.059H80.3488L83.0938 204.4V181.954C83.0938 172.243 76.5889 163.735 67.2171 161.189Z" fill="#E28086"/>
<path d="M90.9634 161.189L65.7128 154.33H41.1276L40.1748 154.589L64.4725 161.189C73.8439 163.735 80.3492 172.243 80.3492 181.954V208.06H106.84V181.954C106.84 172.243 100.335 163.735 90.9634 161.189Z" fill="#DD636E"/>
<path d="M65.7122 154.33V141.384H41.127V154.33C41.127 161.119 53.4194 163.82 53.4194 163.82C53.4194 163.82 65.7122 161.119 65.7122 154.33Z" fill="#FFDDCE"/>
<path d="M53.4199 163.82L59.6044 169.168C61.5254 170.83 64.3773 170.821 66.2882 169.148L79.0657 157.957L75.2549 152.259C73.9374 150.289 71.2221 149.856 69.3572 151.319L53.4199 163.82Z" fill="#E09499"/>
<path d="M53.4202 163.82L47.2358 169.168C45.3147 170.83 42.4629 170.821 40.552 169.148L27.7744 157.957L31.5852 152.259C32.9028 150.289 35.618 149.856 37.4829 151.319L53.4202 163.82Z" fill="#E09499"/>
<path d="M20.9048 208.059V194.018C20.9048 192.283 19.4981 190.876 17.7629 190.876C16.0277 190.876 14.6211 192.283 14.6211 194.018V208.059H20.9048Z" fill="#DD636E"/>
<path d="M92.2182 194.018C92.2182 192.283 90.8116 190.876 89.0764 190.876C87.3412 190.876 85.9346 192.283 85.9346 194.018V208.059H92.2186V194.018H92.2182Z" fill="#DA4A54"/>
<path d="M61.8398 76.445L60.8077 75.2059H40.4745C36.4201 75.2059 33.1327 78.4901 33.127 82.5432C33.1262 83.1512 32.6386 83.6493 32.0307 83.6493H31.7879C27.7299 83.6493 24.4404 86.9388 24.4404 90.9968V109.877H45.1303V96.3159H61.8394V76.445H61.8398Z" fill="#E49542"/>
<path d="M53.1061 0.00012207H8.60282C3.85144 0.00012207 0 3.85157 0 8.60294V30.878C0 35.6289 3.85144 39.4804 8.60241 39.4804H13.3627C13.9011 39.4804 14.4314 39.6105 14.9088 39.8602L16.8258 40.8626H29.6355L30.45 40.2111C31.0417 39.7382 31.7765 39.4804 32.5337 39.4804H53.1057C57.8567 39.4804 61.7085 35.6289 61.7085 30.8776V8.60294C61.7081 3.85197 57.8567 0.000528727 53.1061 0.00012207Z" fill="#F6E266"/>
<path d="M78.2414 0H51.751C56.5019 0 60.3538 3.85144 60.3538 8.60282V30.8778C60.3538 35.6288 56.5024 39.4803 51.751 39.4803H78.2414C82.9924 39.4803 86.8438 35.6288 86.8438 30.8778V8.60282C86.8442 3.85144 82.9928 0 78.2414 0Z" fill="#FFD064"/>
<path d="M31.5531 41.3496C31.347 40.3875 32.0802 39.4802 33.0639 39.4802H11.8047C13.0617 39.4802 14.2666 39.98 15.1547 40.8694L33.5714 59.3133C34.2582 60.0013 35.4188 59.3702 35.2147 58.4198L31.5531 41.3496Z" fill="#FFD064"/>
<path d="M182.811 30.8778V8.60282C182.811 3.85185 178.96 0.000406657 174.209 0H129.705C124.954 0 121.103 3.85144 121.103 8.60241V30.8774C121.103 35.6284 124.954 39.4798 129.705 39.4798H174.208C178.959 39.4802 182.811 35.6288 182.811 30.8778Z" fill="#F6E266"/>
<path d="M199.343 0H172.852C177.603 0 181.455 3.85144 181.455 8.60282V30.8778C181.455 35.6288 177.603 39.4802 172.852 39.4802H174.882C175.866 39.4802 176.6 40.3875 176.393 41.3496L172.732 58.4199C172.528 59.3702 173.688 60.0014 174.375 59.3133L192.792 40.8694C193.68 39.98 194.885 39.4802 196.142 39.4802H199.343C204.094 39.4802 207.945 35.6288 207.945 30.8778V8.60282C207.946 3.85144 204.094 0 199.343 0Z" fill="#FFD064"/>
<path d="M61.8398 121.793V96.3159H42.6981C39.0183 96.3159 36.0354 99.2987 36.0354 102.979V103.214C36.0354 106.893 33.0526 111.54 29.3728 111.54H24.4404C24.4404 120.876 29.3728 121.03 29.3728 121.03C29.3728 131.922 36.5161 141.313 46.4247 144.377C55.4468 140.842 61.8398 132.068 61.8398 121.793Z" fill="#FFDDCE"/>
<path d="M86.0516 75.2059H60.8076V96.3159H71.9545C80.8436 96.3159 88.0499 89.1095 88.0499 80.2204V77.2038C88.0499 76.1006 87.1553 75.2059 86.0516 75.2059Z" fill="#E27D47"/>
<path d="M45.123 143.935C47.6114 144.867 50.2941 145.397 53.1004 145.434C66.5274 145.608 77.4669 134.775 77.4669 121.388C77.4669 121.388 82.3992 121.125 82.3992 111.54H77.4669C73.787 111.54 70.8042 106.893 70.8042 103.214V102.979C70.8042 99.2987 67.8214 96.3159 64.1416 96.3159H60.8074V121.388C60.8074 131.728 54.2797 140.537 45.123 143.935Z" fill="#FFCBBE"/>
</svg>
