<svg width="686" height="459" viewBox="0 0 686 459" fill="none" xmlns="http://www.w3.org/2000/svg">
<path d="M13.2686 335.892C-6.10356 265.342 -5.37957 230.171 23.5994 160.955C52.769 91.2837 82.82 41.3322 144.32 24.8322C215.82 -2.6678 278.283 19.3673 352.912 17C427.758 14.6259 507.663 -19.1069 571.761 16.4616C626.269 46.709 677.499 84.5268 684.769 160.955C691.539 232.131 648.364 256.896 626.269 326.284C611.303 373.284 593.269 411.069 563.065 435.434C504.256 482.875 420.883 434.963 347.018 436.654C273.891 438.329 196.619 478.223 132.947 445.284C66.8422 411.086 33.108 408.144 13.2686 335.892Z" fill="white"/>
</svg>
