<svg width="91" height="139" viewBox="0 0 91 139" fill="none" xmlns="http://www.w3.org/2000/svg">
<path d="M48.9615 49.5824C54.6428 49.5824 60.3242 50.6153 65.4891 52.1648C70.6539 53.7142 74.7858 56.8131 78.4011 59.912C82.0165 63.5274 85.1155 67.6593 87.1814 72.8241C89.2474 77.989 90.2802 84.1868 90.2802 90.901C90.2802 98.1318 89.2473 104.846 86.6649 111.044C84.599 116.725 80.9836 121.89 76.3352 126.022C71.6869 130.154 66.522 133.253 59.8077 135.319C53.0934 137.385 45.3462 138.418 37.0825 138.418C33.4671 138.418 30.3682 138.418 26.7528 137.901C23.1374 137.385 20.0385 137.385 16.9396 136.352C13.8407 135.835 10.7418 134.802 8.15936 134.286C5.57694 133.769 2.99453 132.22 0.412109 131.187V106.396C2.47804 107.429 5.06046 108.978 8.15936 110.011C11.2583 111.044 13.8407 112.077 16.9396 112.593C20.0385 113.626 23.1374 114.143 26.2363 114.659C29.3352 115.176 32.4341 115.176 35.0166 115.176C43.2803 115.176 49.478 113.626 54.1264 110.011C58.2582 106.396 60.8407 101.231 60.8407 93.4835C60.8407 86.7692 58.7747 81.6043 54.6429 77.989C50.511 74.3736 43.7968 72.8241 35.0166 72.8241C33.4671 72.8241 31.9177 72.8242 29.8517 73.3406C27.7858 73.3406 26.2363 73.8571 24.6869 73.8571C23.1374 74.3736 21.0715 74.3736 19.5221 74.8901C17.9726 75.4066 16.4231 75.4066 15.3901 75.9231L4.02756 69.7253L9.19239 0H80.9836V24.2747H33.9835L31.9176 51.1318C33.9836 50.6154 36.0494 50.0989 38.6319 49.5824C41.2143 50.0989 44.8297 49.5824 48.9615 49.5824Z" fill="#E5EFFF"/>
</svg>
