<svg width="102" height="137" viewBox="0 0 102 137" fill="none" xmlns="http://www.w3.org/2000/svg">
<path d="M101.126 108.462H84.5988V136.868H56.7088V108.462H0.412109V88.3186L58.2582 0H84.5988V85.7362H101.126V108.462ZM56.1923 86.2527V63.011C56.1923 61.978 56.1923 60.945 56.1923 59.3956C56.1923 57.8461 56.1923 56.2967 56.1923 54.2308C56.1923 52.1648 56.1923 50.0988 56.1923 48.0329C56.1923 45.967 56.1923 43.9011 56.7088 42.3516C56.7088 40.2857 56.7088 38.7362 57.2253 37.7032C57.2253 36.1538 57.2253 35.1209 57.2253 34.6044H56.1923C55.1593 37.1868 53.6098 39.7692 52.5768 42.8681C51.0274 45.967 49.4779 48.5494 47.9285 51.6483L25.2033 86.2527H56.1923Z" fill="#D3E3FD"/>
</svg>
