<svg width="69" height="137" viewBox="0 0 69 137" fill="none" xmlns="http://www.w3.org/2000/svg">
<path d="M68.5879 136.868H39.6649V57.8461C39.6649 56.2967 39.6649 54.2307 39.6649 52.1648C39.6649 50.0988 39.6649 47.5165 39.6649 44.934C39.6649 42.3516 39.6648 39.7692 40.1813 37.7032C40.1813 35.1208 40.1813 33.0549 40.1813 30.989C39.6648 31.5055 39.1484 32.0219 38.6319 32.5384C38.1155 33.0549 37.0825 34.0878 36.0495 35.1208C35.0166 36.1538 33.9836 37.1867 32.9506 37.7032C31.9176 38.7362 30.8846 39.2527 29.8517 40.2856L14.3571 52.6813L0.412109 35.1208L44.3132 0H68.0715V136.868H68.5879Z" fill="#E5EFFF"/>
</svg>
