<svg width="94" height="142" viewBox="0 0 94 142" fill="none" xmlns="http://www.w3.org/2000/svg">
<path d="M89.6673 33.9217C89.6673 38.57 89.1507 42.7019 87.6013 46.8338C86.0518 50.4492 83.9859 54.0645 81.4035 56.6469C78.8211 59.2293 75.7222 61.8117 72.1068 63.8777C68.4914 65.9436 64.876 66.9766 60.7441 68.0095V68.5261C71.5903 70.0755 79.8541 73.1744 85.5354 78.3392C91.2167 83.5041 93.7991 90.7348 93.7991 100.032C93.7991 106.229 92.7661 111.394 90.7002 116.559C88.6343 121.724 85.0188 125.856 80.887 129.988C76.2386 133.603 71.0739 136.702 63.8431 138.768C57.1288 140.834 49.3815 141.867 40.0848 141.867C32.854 141.867 25.6233 141.35 19.4255 139.801C12.7112 138.768 7.02986 136.702 1.34855 134.119V109.328C3.93096 110.878 7.02985 111.911 10.1287 113.46C13.2277 114.493 16.3266 115.526 19.4255 116.559C22.5244 117.592 25.6233 118.108 28.7222 118.108C31.8211 118.625 34.4035 118.625 37.5024 118.625C42.6672 118.625 47.3156 118.108 50.931 117.075C54.5464 116.043 57.1287 114.493 59.1947 112.944C61.2606 111.394 62.8101 108.812 63.8431 106.229C64.876 103.647 65.3925 101.065 65.3925 97.9656C65.3925 95.3832 64.876 92.8008 63.8431 90.2184C62.8101 88.1524 60.7441 86.0865 58.1617 84.537C55.5793 82.9875 51.9639 81.9546 47.8321 80.9216C43.7002 79.8887 38.5354 79.3722 32.3376 79.3722H22.0079V59.2293H31.3046C36.9859 59.2293 41.6343 58.7128 45.7662 57.6799C49.3815 56.6469 52.4804 55.0974 55.0628 53.548C57.1287 51.9985 58.6782 49.9326 59.7112 47.3502C60.7442 44.7678 61.2607 42.7019 61.2607 39.603C61.2607 34.9546 59.7112 30.8228 56.6123 28.2403C53.5134 25.6579 48.865 24.1085 42.1507 24.1085C39.0518 24.1085 36.4694 24.6249 33.887 25.1414C31.3046 25.6579 28.7221 26.6909 26.6562 27.2074C24.5903 28.2404 22.5244 29.2733 20.4584 30.3062C18.3925 31.3392 16.843 32.3722 15.2936 33.4052L0.832031 14.2953C3.41445 12.2294 6.51341 10.6799 9.61231 9.13047C12.7112 7.58102 15.8101 6.03155 19.4255 4.99858C23.0409 3.96562 27.1727 2.93262 31.3046 1.89965C35.4365 1.38317 40.0848 0.866699 44.7331 0.866699C51.4474 0.866699 57.6452 1.38323 62.8101 2.93268C68.4914 4.48213 73.1398 6.54805 76.7552 9.13047C80.887 11.7129 83.4694 15.3283 86.0518 19.4601C88.1177 24.1085 89.6673 28.7569 89.6673 33.9217Z" fill="#D3E3FD"/>
</svg>
