<svg width="93" height="140" viewBox="0 0 93 140" fill="none" xmlns="http://www.w3.org/2000/svg">
<path d="M92.2036 139.201H0.786046V119.058L32.808 84.454C36.9399 80.3221 40.5553 76.1903 43.6542 72.5749C46.7531 68.9595 49.8519 65.3441 51.9179 61.7288C54.5003 58.1134 56.0498 54.498 57.5992 50.8826C59.1487 47.2672 59.6651 43.1353 59.6651 39.0034C59.6651 34.3551 58.1157 30.7397 55.5332 28.1573C52.9508 25.5749 48.819 24.5419 44.1706 24.5419C39.0058 24.5419 34.3575 25.5749 30.2256 28.1573C25.5772 30.7397 20.9289 33.8386 15.764 38.487L0.269531 19.8936C2.85195 17.3111 5.95083 14.7288 9.04973 12.6628C12.1486 10.0804 15.2475 8.01441 19.3794 6.46496C22.9948 4.91551 27.1267 3.36612 31.2585 2.33316C35.9069 1.30019 40.5553 0.783691 46.2366 0.783691C52.9509 0.783691 58.6322 1.81666 63.797 3.36611C68.9618 4.91556 73.6102 7.49798 77.2256 11.1134C80.841 14.2123 83.9398 18.3441 85.4893 22.9925C87.5552 27.6408 88.5882 32.8056 88.5882 39.0034C88.5882 44.1683 87.5553 49.3331 86.0058 54.4979C83.9399 59.1463 81.3575 64.3111 78.2586 68.9595C75.1597 73.6078 71.0278 78.2562 66.8959 82.9045C62.7641 87.5529 58.1157 92.2012 53.4673 96.8496L36.9399 113.377V114.926H92.7201V139.201H92.2036Z" fill="#E5EFFF"/>
</svg>
