<svg width="16" height="16" viewBox="0 0 16 16" fill="none" xmlns="http://www.w3.org/2000/svg">
<path d="M8 15C4.14027 15 1 11.8597 1 8C1 4.14027 4.14027 1 8 1C11.8597 1 15 4.14027 15 8C15 11.8597 11.8597 15 8 15ZM8 1.875C4.62262 1.875 1.875 4.62262 1.875 8C1.875 11.3774 4.62262 14.125 8 14.125C11.3774 14.125 14.125 11.3774 14.125 8C14.125 4.62262 11.3774 1.875 8 1.875Z" fill="#1B1732" stroke="#1B1732" stroke-width="0.5"/>
<path d="M9.75002 11.5004C9.74872 10.3452 9.06216 9.30567 8.00086 8.85108L7.125 8.47595V11.5H6.25V4.9375C6.25 4.69568 6.44568 4.5 6.6875 4.5H8.65624C9.74187 4.5 10.625 5.38312 10.625 6.46874C10.625 7.43729 9.92217 8.2444 9.00017 8.40758C10.0042 9.09887 10.6237 10.2473 10.625 11.4996L9.75002 11.5004ZM7.125 7.56251H8.65624C9.25952 7.56251 9.74998 7.07205 9.74998 6.46877C9.74998 5.8655 9.25952 5.37504 8.65624 5.37504H7.125V7.56251Z" fill="#1B1732" stroke="#1B1732" stroke-width="0.5"/>
</svg>
