<svg width="375" height="461" viewBox="0 0 375 461" fill="none" xmlns="http://www.w3.org/2000/svg">
<path opacity="0.139718" fill-rule="evenodd" clip-rule="evenodd" d="M0.666545 162.295C0.173041 163.858 0.00404511 178.439 0 197.542V199.052C0.00853969 238.376 0.680478 370.608 0.667444 373.883C0.588789 393.322 12.8954 413.728 43.7668 433.683C89.0029 462.924 122.573 451.388 155.136 444.436C182.194 438.66 207.699 432.884 236.34 447.875C299.447 480.906 342.866 446.027 409.242 404.781C426.893 393.812 435.22 380.835 436.184 366.811C436.436 363.159 436.995 320.506 437 282.077V280.98C436.996 250.586 436.639 223.101 435.501 220.048C422.867 186.155 373.803 192.023 317.139 163.479C256.156 132.761 201.001 114.998 152.059 115C125.074 115.001 99.9723 120.403 76.8392 132.012C42.1604 149.414 9.1878 135.338 0.666545 162.295Z" fill="#6298F9"/>
<path fill-rule="evenodd" clip-rule="evenodd" d="M408.94 269.956C342.614 311.373 300.468 275.551 237.408 242.383C174.347 209.216 126.5 277.289 43.7343 223.528C-39.0321 169.767 11.7421 112.752 76.7824 79.9547C141.823 47.1569 222.369 63.6988 316.906 111.552C409.843 158.595 475.267 228.54 408.94 269.956Z" fill="#B2CDFC"/>
<path fill-rule="evenodd" clip-rule="evenodd" d="M149.561 173.96C149.687 175.826 152.321 177.128 152.321 177.128L274.172 241.061C274.172 241.061 277.656 243.145 281.852 241.061C286.359 238.824 379.239 187.327 379.239 187.327C379.239 187.327 383.069 185.666 383.339 182.7C383.347 182.827 383.356 182.953 383.356 183.089V187.777C383.356 190.95 379.239 192.734 379.239 192.734C379.239 192.734 286.359 241.356 281.852 243.593C277.656 245.676 274.172 243.593 274.172 243.593L152.321 179.66C152.321 179.66 149.55 178.295 149.55 176.355V174.55C149.552 174.505 149.554 174 149.557 173.642C149.559 173.812 149.561 173.945 149.561 173.96Z" fill="#DDDDFC"/>
<path fill-rule="evenodd" clip-rule="evenodd" d="M151.925 170.16L252.953 114.199C256.595 112.332 259.208 114.199 259.208 114.199L379.239 177.27C379.239 177.27 383.356 179.353 383.356 182.37C383.356 182.482 383.349 182.591 383.339 182.699C383.069 185.666 379.239 187.327 379.239 187.327C379.239 187.327 286.359 238.824 281.852 241.061C277.656 243.144 274.172 241.061 274.172 241.061L152.321 177.128C152.321 177.128 149.687 175.826 149.561 173.959C149.561 173.944 149.559 173.812 149.557 173.642C149.554 173.303 149.55 172.812 149.55 172.781C149.55 171.285 151.925 170.16 151.925 170.16Z" fill="#F6F6FF"/>
<path fill-rule="evenodd" clip-rule="evenodd" d="M387.992 177.658C388.096 177.6 388.196 177.538 388.293 177.474C390.942 175.719 390.507 171.887 390.507 171.887C390.507 171.887 390.511 76.0037 390.265 71.3484C390.037 67.0133 386.26 65.4021 386.26 65.4021L262.596 1.52694C262.596 1.52694 259.998 0.167391 258.177 1.0429C258.163 1.05024 258.037 1.11793 257.876 1.2052C257.788 1.25332 257.69 1.30633 257.592 1.35934C257.592 1.35934 257.593 1.35934 257.593 1.35893C258.095 1.05677 259.091 0.602904 259.412 0.42878C259.573 0.341515 259.699 0.273823 259.713 0.26689C261.534 -0.609029 264.814 0.951559 264.814 0.951559L388.479 64.8272C388.479 64.8272 392.254 66.4379 392.483 70.7735C392.729 75.4287 392.725 171.311 392.725 171.311C392.725 171.311 393.16 175.144 390.511 176.899C390.415 176.963 390.315 177.025 390.21 177.083C387.373 178.656 384.596 178.188 384.596 178.188H384.595C385.72 178.319 386.943 178.24 387.992 177.658Z" fill="#DDDDFC"/>
<path fill-rule="evenodd" clip-rule="evenodd" d="M257.062 1.64888C257.084 1.63706 257.334 1.50045 257.592 1.35936C257.69 1.30634 257.788 1.25293 257.876 1.20521C258.037 1.11795 258.163 1.05026 258.177 1.04292C259.998 0.167406 262.596 1.52696 262.596 1.52696L386.261 65.4021C386.261 65.4021 390.036 67.0133 390.265 71.3484C390.511 76.0037 390.507 171.887 390.507 171.887C390.507 171.887 390.943 175.719 388.293 177.474C388.196 177.538 388.097 177.6 387.992 177.658C386.943 178.24 385.72 178.319 384.596 178.188C382.679 177.964 381.048 177.13 381.048 177.13L259.144 112.819C259.144 112.819 256.024 111.77 255.883 107.976L255.836 4.85406C255.836 4.85406 255.655 2.42856 257.062 1.64888Z" fill="#F6F6FF"/>
<path fill-rule="evenodd" clip-rule="evenodd" d="M349.521 180.006L349.501 179.867C349.503 179.914 349.51 179.96 349.521 180.006Z" fill="#DDDDFC"/>
<path fill-rule="evenodd" clip-rule="evenodd" d="M349.5 179.86L349.501 179.868C349.5 179.865 349.501 179.862 349.5 179.86H349.5Z" fill="#DDDDFC"/>
<path fill-rule="evenodd" clip-rule="evenodd" d="M365.869 180.875L359.64 184.117C358.515 184.703 357.786 184.647 356.853 184.187L350.149 180.718C349.771 180.506 349.58 180.258 349.521 180.006L349.592 180.506C349.639 180.762 349.88 180.975 350.176 181.14L356.88 184.609C357.812 185.069 358.542 185.126 359.667 184.54L365.896 181.297C366.28 181.098 366.647 180.957 366.685 180.556L366.735 179.821H366.732C366.713 180.224 366.402 180.598 365.869 180.875Z" fill="#DDDDFC"/>
<path fill-rule="evenodd" clip-rule="evenodd" d="M337.225 173.564L337.205 173.425C337.208 173.471 337.215 173.518 337.225 173.564Z" fill="#DDDDFC"/>
<path fill-rule="evenodd" clip-rule="evenodd" d="M337.204 173.417L337.205 173.425V173.417H337.204Z" fill="#DDDDFC"/>
<path fill-rule="evenodd" clip-rule="evenodd" d="M353.573 174.433L347.345 177.676C346.22 178.261 345.49 178.205 344.558 177.745L337.854 174.276C337.475 174.064 337.285 173.816 337.226 173.564L337.297 174.064C337.344 174.32 337.584 174.532 337.881 174.698L344.585 178.168C345.517 178.627 346.246 178.684 347.372 178.098L353.601 174.855C353.984 174.655 354.352 174.515 354.389 174.114L354.439 173.379L354.437 173.379C354.417 173.782 354.107 174.156 353.573 174.433Z" fill="#DDDDFC"/>
<path fill-rule="evenodd" clip-rule="evenodd" d="M341.412 167.898L335.183 171.14C334.058 171.726 333.329 171.67 332.396 171.21L325.692 167.74C325.313 167.529 325.123 167.28 325.064 167.028L325.135 167.529C325.182 167.784 325.423 167.997 325.719 168.162L332.423 171.632C333.355 172.092 334.085 172.148 335.21 171.562L341.438 168.32C341.822 168.12 342.19 167.979 342.227 167.579L342.278 166.844H342.275C342.256 167.246 341.945 167.62 341.412 167.898Z" fill="#DDDDFC"/>
<path fill-rule="evenodd" clip-rule="evenodd" d="M313.2 160.256L313.18 160.117C313.182 160.163 313.189 160.209 313.2 160.256Z" fill="#DDDDFC"/>
<path fill-rule="evenodd" clip-rule="evenodd" d="M313.179 160.109L313.181 160.117V160.109H313.179Z" fill="#DDDDFC"/>
<path fill-rule="evenodd" clip-rule="evenodd" d="M329.548 161.125L323.319 164.367C322.194 164.953 321.464 164.897 320.533 164.437L313.828 160.968C313.45 160.755 313.259 160.508 313.2 160.256L313.271 160.755C313.318 161.012 313.558 161.224 313.855 161.39L320.559 164.859C321.491 165.319 322.221 165.375 323.346 164.79L329.575 161.547C329.958 161.347 330.326 161.206 330.363 160.806L330.414 160.071H330.41C330.391 160.474 330.081 160.848 329.548 161.125Z" fill="#DDDDFC"/>
<path fill-rule="evenodd" clip-rule="evenodd" d="M300.905 153.814L300.884 153.675C300.887 153.721 300.894 153.767 300.905 153.814Z" fill="#DDDDFC"/>
<path fill-rule="evenodd" clip-rule="evenodd" d="M300.883 153.667L300.884 153.675V153.667H300.883Z" fill="#DDDDFC"/>
<path fill-rule="evenodd" clip-rule="evenodd" d="M317.253 154.683L311.025 157.925C309.899 158.511 309.17 158.455 308.238 157.995L301.533 154.525C301.154 154.314 300.965 154.066 300.905 153.814L300.976 154.314C301.023 154.569 301.263 154.782 301.561 154.948L308.265 158.417C309.196 158.877 309.925 158.933 311.051 158.347L317.279 155.105C317.663 154.905 318.031 154.765 318.068 154.363L318.118 153.628L318.116 153.629C318.097 154.032 317.786 154.405 317.253 154.683Z" fill="#DDDDFC"/>
<path fill-rule="evenodd" clip-rule="evenodd" d="M305.091 148.147L298.862 151.39C297.738 151.976 297.008 151.919 296.076 151.459L289.371 147.99C288.993 147.779 288.802 147.53 288.743 147.278L288.814 147.778C288.861 148.034 289.102 148.246 289.398 148.412L296.102 151.881C297.034 152.341 297.764 152.398 298.889 151.812L305.118 148.569C305.502 148.37 305.869 148.229 305.906 147.828L305.957 147.093H305.954C305.935 147.496 305.624 147.869 305.091 148.147Z" fill="#DDDDFC"/>
<path fill-rule="evenodd" clip-rule="evenodd" d="M276.591 140.692L276.592 140.699C276.591 140.696 276.592 140.694 276.591 140.692H276.591Z" fill="#DDDDFC"/>
<path fill-rule="evenodd" clip-rule="evenodd" d="M292.959 141.707L286.731 144.949C285.606 145.535 284.876 145.479 283.944 145.019L277.24 141.55C276.862 141.338 276.671 141.09 276.612 140.838L276.683 141.338C276.729 141.594 276.97 141.806 277.267 141.972L283.971 145.441C284.902 145.901 285.633 145.958 286.757 145.372L292.986 142.129C293.37 141.929 293.737 141.789 293.775 141.388L293.826 140.653H293.823C293.803 141.056 293.492 141.429 292.959 141.707Z" fill="#DDDDFC"/>
<path fill-rule="evenodd" clip-rule="evenodd" d="M264.316 134.396L264.296 134.257C264.299 134.303 264.306 134.349 264.316 134.396Z" fill="#DDDDFC"/>
<path fill-rule="evenodd" clip-rule="evenodd" d="M264.295 134.249L264.296 134.257V134.249H264.295Z" fill="#DDDDFC"/>
<path fill-rule="evenodd" clip-rule="evenodd" d="M280.664 135.265L274.436 138.507C273.311 139.093 272.581 139.037 271.649 138.577L264.944 135.107C264.566 134.896 264.376 134.648 264.316 134.396L264.388 134.896C264.435 135.152 264.675 135.364 264.972 135.53L271.676 138.999C272.607 139.459 273.337 139.515 274.462 138.929L280.691 135.687C281.075 135.487 281.442 135.347 281.48 134.946L281.53 134.21L281.527 134.211C281.508 134.613 281.197 134.987 280.664 135.265Z" fill="#DDDDFC"/>
<path fill-rule="evenodd" clip-rule="evenodd" d="M268.503 128.729L262.274 131.972C261.149 132.558 260.419 132.501 259.487 132.041L252.782 128.572C252.404 128.361 252.214 128.112 252.155 127.86L252.226 128.361C252.273 128.616 252.513 128.828 252.809 128.994L259.514 132.463C260.445 132.924 261.175 132.979 262.301 132.394L268.528 129.151C268.913 128.952 269.28 128.811 269.318 128.41L269.368 127.675H269.366C269.346 128.078 269.036 128.452 268.503 128.729Z" fill="#DDDDFC"/>
<path fill-rule="evenodd" clip-rule="evenodd" d="M337.425 186.542L337.405 186.403C337.408 186.45 337.414 186.495 337.425 186.542Z" fill="#DDDDFC"/>
<path fill-rule="evenodd" clip-rule="evenodd" d="M337.404 186.396L337.405 186.403C337.405 186.4 337.406 186.398 337.405 186.396H337.404Z" fill="#DDDDFC"/>
<path fill-rule="evenodd" clip-rule="evenodd" d="M325.13 180.1L325.109 179.961C325.113 180.007 325.119 180.054 325.13 180.1Z" fill="#DDDDFC"/>
<path fill-rule="evenodd" clip-rule="evenodd" d="M325.108 179.953L325.109 179.961C325.11 179.958 325.109 179.956 325.109 179.953H325.108Z" fill="#DDDDFC"/>
<path fill-rule="evenodd" clip-rule="evenodd" d="M341.477 180.969L335.249 184.211C334.124 184.797 333.394 184.741 332.462 184.281L325.758 180.811C325.38 180.6 325.189 180.352 325.129 180.1L325.201 180.6C325.248 180.856 325.488 181.068 325.785 181.234L332.489 184.704C333.42 185.163 334.15 185.219 335.275 184.633L341.504 181.391C341.888 181.191 342.255 181.051 342.293 180.649L342.343 179.915L342.341 179.915C342.322 180.318 342.011 180.691 341.477 180.969Z" fill="#DDDDFC"/>
<path fill-rule="evenodd" clip-rule="evenodd" d="M329.316 174.434L323.087 177.676C321.962 178.261 321.232 178.206 320.3 177.746L313.596 174.276C313.217 174.065 313.028 173.816 312.968 173.564L313.039 174.064C313.086 174.32 313.326 174.532 313.623 174.698L320.327 178.168C321.258 178.628 321.989 178.684 323.114 178.098L329.342 174.856C329.726 174.656 330.094 174.515 330.131 174.114L330.181 173.379H330.179C330.159 173.782 329.849 174.156 329.316 174.434Z" fill="#DDDDFC"/>
<path fill-rule="evenodd" clip-rule="evenodd" d="M301.105 166.791L301.084 166.653C301.087 166.699 301.093 166.745 301.105 166.791Z" fill="#DDDDFC"/>
<path fill-rule="evenodd" clip-rule="evenodd" d="M301.084 166.645L301.085 166.653C301.085 166.65 301.085 166.647 301.085 166.645H301.084Z" fill="#DDDDFC"/>
<path fill-rule="evenodd" clip-rule="evenodd" d="M317.453 167.66L311.224 170.902C310.099 171.488 309.37 171.432 308.437 170.973L301.733 167.503C301.355 167.291 301.164 167.043 301.105 166.791L301.176 167.291C301.223 167.546 301.463 167.759 301.76 167.925L308.464 171.395C309.395 171.855 310.126 171.91 311.251 171.325L317.479 168.083C317.863 167.882 318.231 167.742 318.268 167.341L318.319 166.606H318.316C318.297 167.009 317.986 167.382 317.453 167.66Z" fill="#DDDDFC"/>
<path fill-rule="evenodd" clip-rule="evenodd" d="M288.809 160.35L288.789 160.21C288.792 160.257 288.799 160.303 288.809 160.35Z" fill="#DDDDFC"/>
<path fill-rule="evenodd" clip-rule="evenodd" d="M288.788 160.203L288.789 160.21C288.79 160.208 288.789 160.205 288.789 160.203H288.788Z" fill="#DDDDFC"/>
<path fill-rule="evenodd" clip-rule="evenodd" d="M305.157 161.218L298.929 164.461C297.804 165.046 297.074 164.99 296.142 164.53L289.437 161.06C289.059 160.849 288.869 160.601 288.809 160.349L288.881 160.849C288.928 161.105 289.167 161.317 289.465 161.483L296.169 164.953C297.1 165.412 297.831 165.469 298.956 164.883L305.184 161.64C305.568 161.44 305.935 161.3 305.972 160.899L306.023 160.164H306.02C306.002 160.567 305.691 160.94 305.157 161.218Z" fill="#DDDDFC"/>
<path fill-rule="evenodd" clip-rule="evenodd" d="M292.995 154.683L286.767 157.925C285.642 158.511 284.912 158.455 283.98 157.995L277.275 154.526C276.897 154.314 276.707 154.066 276.647 153.814L276.719 154.314C276.765 154.569 277.007 154.782 277.302 154.947L284.007 158.417C284.939 158.877 285.668 158.933 286.793 158.347L293.022 155.105C293.406 154.905 293.774 154.765 293.811 154.364L293.861 153.629H293.858C293.839 154.031 293.529 154.405 292.995 154.683Z" fill="#DDDDFC"/>
<path fill-rule="evenodd" clip-rule="evenodd" d="M264.516 147.373L264.496 147.234C264.499 147.281 264.505 147.327 264.516 147.373Z" fill="#DDDDFC"/>
<path fill-rule="evenodd" clip-rule="evenodd" d="M264.495 147.227L264.496 147.235C264.496 147.232 264.496 147.229 264.496 147.227H264.495Z" fill="#DDDDFC"/>
<path fill-rule="evenodd" clip-rule="evenodd" d="M280.864 148.243L274.636 151.484C273.511 152.071 272.781 152.014 271.849 151.555L265.144 148.085C264.766 147.874 264.575 147.626 264.516 147.374L264.588 147.874C264.634 148.129 264.875 148.342 265.171 148.507L271.875 151.977C272.807 152.437 273.537 152.493 274.662 151.907L280.891 148.665C281.274 148.465 281.642 148.324 281.68 147.923L281.73 147.188H281.727C281.708 147.591 281.397 147.965 280.864 148.243Z" fill="#DDDDFC"/>
<path fill-rule="evenodd" clip-rule="evenodd" d="M252.22 140.932L252.2 140.792C252.203 140.839 252.21 140.885 252.22 140.932Z" fill="#DDDDFC"/>
<path fill-rule="evenodd" clip-rule="evenodd" d="M252.199 140.785L252.2 140.793V140.785H252.199Z" fill="#DDDDFC"/>
<path fill-rule="evenodd" clip-rule="evenodd" d="M268.568 141.801L262.34 145.043C261.215 145.629 260.486 145.573 259.554 145.113L252.849 141.643C252.471 141.432 252.28 141.184 252.221 140.932L252.292 141.432C252.339 141.687 252.579 141.899 252.876 142.065L259.581 145.535C260.512 145.995 261.242 146.051 262.367 145.465L268.596 142.223C268.98 142.023 269.347 141.883 269.384 141.481L269.434 140.746L269.432 140.747C269.412 141.149 269.102 141.523 268.568 141.801Z" fill="#DDDDFC"/>
<path fill-rule="evenodd" clip-rule="evenodd" d="M324.357 193.078L324.336 192.938C324.339 192.985 324.346 193.031 324.357 193.078Z" fill="#DDDDFC"/>
<path fill-rule="evenodd" clip-rule="evenodd" d="M324.335 192.931L324.336 192.939C324.336 192.936 324.337 192.934 324.336 192.931H324.335Z" fill="#DDDDFC"/>
<path fill-rule="evenodd" clip-rule="evenodd" d="M312.061 186.636L312.041 186.497C312.044 186.543 312.051 186.589 312.061 186.636Z" fill="#DDDDFC"/>
<path fill-rule="evenodd" clip-rule="evenodd" d="M312.04 186.489L312.041 186.497V186.489H312.04Z" fill="#DDDDFC"/>
<path fill-rule="evenodd" clip-rule="evenodd" d="M328.409 187.505L322.18 190.747C321.056 191.333 320.325 191.276 319.393 190.816L312.689 187.347C312.31 187.136 312.12 186.888 312.061 186.636L312.132 187.135C312.179 187.391 312.419 187.603 312.716 187.769L319.421 191.239C320.352 191.699 321.082 191.755 322.207 191.169L328.436 187.927C328.819 187.727 329.187 187.586 329.224 187.185L329.275 186.45L329.272 186.451C329.253 186.853 328.942 187.227 328.409 187.505Z" fill="#DDDDFC"/>
<path fill-rule="evenodd" clip-rule="evenodd" d="M316.247 180.969L310.018 184.211C308.894 184.797 308.164 184.741 307.231 184.281L300.527 180.812C300.148 180.601 299.959 180.352 299.899 180.1L299.97 180.6C300.017 180.855 300.258 181.068 300.554 181.233L307.258 184.703C308.19 185.164 308.92 185.219 310.045 184.634L316.274 181.391C316.657 181.191 317.025 181.051 317.062 180.65L317.112 179.915H317.11C317.091 180.318 316.78 180.691 316.247 180.969Z" fill="#DDDDFC"/>
<path fill-rule="evenodd" clip-rule="evenodd" d="M288.036 173.327L288.016 173.188C288.018 173.235 288.025 173.281 288.036 173.327Z" fill="#DDDDFC"/>
<path fill-rule="evenodd" clip-rule="evenodd" d="M288.015 173.181L288.016 173.188C288.016 173.185 288.016 173.183 288.016 173.181H288.015Z" fill="#DDDDFC"/>
<path fill-rule="evenodd" clip-rule="evenodd" d="M304.384 174.196L298.156 177.438C297.03 178.024 296.301 177.968 295.368 177.508L288.664 174.039C288.286 173.826 288.095 173.579 288.036 173.327L288.107 173.826C288.153 174.082 288.394 174.295 288.691 174.461L295.395 177.93C296.327 178.39 297.057 178.446 298.182 177.861L304.41 174.618C304.794 174.418 305.162 174.277 305.199 173.877L305.25 173.142H305.247C305.228 173.545 304.917 173.919 304.384 174.196Z" fill="#DDDDFC"/>
<path fill-rule="evenodd" clip-rule="evenodd" d="M275.74 166.885L275.72 166.746C275.723 166.792 275.73 166.839 275.74 166.885Z" fill="#DDDDFC"/>
<path fill-rule="evenodd" clip-rule="evenodd" d="M275.72 166.738L275.721 166.746V166.738H275.72Z" fill="#DDDDFC"/>
<path fill-rule="evenodd" clip-rule="evenodd" d="M292.088 167.754L285.86 170.997C284.735 171.582 284.004 171.526 283.073 171.066L276.368 167.596C275.99 167.385 275.8 167.137 275.74 166.885L275.812 167.385C275.858 167.64 276.098 167.853 276.396 168.019L283.1 171.489C284.031 171.948 284.761 172.005 285.886 171.419L292.115 168.176C292.499 167.976 292.866 167.836 292.904 167.435L292.954 166.7L292.951 166.7C292.932 167.103 292.621 167.477 292.088 167.754Z" fill="#DDDDFC"/>
<path fill-rule="evenodd" clip-rule="evenodd" d="M279.926 161.218L273.698 164.461C272.573 165.046 271.843 164.99 270.911 164.53L264.206 161.061C263.828 160.85 263.637 160.601 263.579 160.349L263.65 160.849C263.696 161.104 263.937 161.317 264.233 161.483L270.938 164.952C271.869 165.413 272.599 165.469 273.725 164.883L279.953 161.64C280.337 161.44 280.704 161.3 280.741 160.899L280.791 160.164H280.789C280.77 160.567 280.46 160.94 279.926 161.218Z" fill="#DDDDFC"/>
<path fill-rule="evenodd" clip-rule="evenodd" d="M251.447 153.909L251.427 153.77C251.429 153.817 251.437 153.863 251.447 153.909Z" fill="#DDDDFC"/>
<path fill-rule="evenodd" clip-rule="evenodd" d="M251.426 153.762L251.427 153.77C251.427 153.767 251.428 153.765 251.427 153.762H251.426Z" fill="#DDDDFC"/>
<path fill-rule="evenodd" clip-rule="evenodd" d="M267.795 154.778L261.567 158.021C260.442 158.607 259.712 158.55 258.78 158.091L252.075 154.621C251.698 154.409 251.506 154.161 251.447 153.909L251.519 154.409C251.565 154.665 251.806 154.877 252.102 155.043L258.807 158.513C259.738 158.972 260.469 159.029 261.593 158.443L267.822 155.201C268.206 155 268.573 154.86 268.611 154.459L268.661 153.724H268.658C268.639 154.127 268.328 154.501 267.795 154.778Z" fill="#DDDDFC"/>
<path fill-rule="evenodd" clip-rule="evenodd" d="M239.153 147.468L239.132 147.328C239.135 147.374 239.142 147.421 239.153 147.468Z" fill="#DDDDFC"/>
<path fill-rule="evenodd" clip-rule="evenodd" d="M239.13 147.32L239.132 147.328V147.32H239.13Z" fill="#DDDDFC"/>
<path fill-rule="evenodd" clip-rule="evenodd" d="M255.499 148.336L249.272 151.578C248.147 152.164 247.416 152.108 246.485 151.647L239.78 148.178C239.402 147.967 239.211 147.719 239.152 147.467L239.223 147.967C239.27 148.222 239.511 148.435 239.807 148.6L246.511 152.07C247.443 152.53 248.173 152.586 249.298 152L255.527 148.758C255.911 148.558 256.278 148.418 256.315 148.017L256.365 147.282L256.363 147.282C256.344 147.685 256.033 148.058 255.499 148.336Z" fill="#DDDDFC"/>
<path fill-rule="evenodd" clip-rule="evenodd" d="M256.406 135.368L250.179 138.611C249.054 139.197 248.324 139.14 247.392 138.68L240.687 135.211C240.309 134.999 240.119 134.752 240.059 134.5L240.13 134.999C240.178 135.255 240.417 135.467 240.714 135.633L247.419 139.103C248.35 139.563 249.08 139.619 250.205 139.033L256.434 135.791C256.818 135.59 257.186 135.45 257.222 135.049L257.273 134.314L257.27 134.314C257.251 134.717 256.94 135.091 256.406 135.368Z" fill="#DDDDFC"/>
<path fill-rule="evenodd" clip-rule="evenodd" d="M243.338 141.904L237.11 145.146C235.985 145.732 235.255 145.676 234.323 145.216L227.619 141.746C227.24 141.535 227.05 141.287 226.99 141.035L227.062 141.535C227.108 141.79 227.349 142.003 227.646 142.169L234.35 145.638C235.282 146.098 236.011 146.154 237.137 145.568L243.365 142.326C243.749 142.126 244.116 141.986 244.153 141.584L244.203 140.85L244.201 140.85C244.182 141.252 243.871 141.626 243.338 141.904Z" fill="#DDDDFC"/>
<path fill-rule="evenodd" clip-rule="evenodd" d="M353.618 187.457L334.32 197.196C333.195 197.782 332.466 197.726 331.534 197.266L324.83 193.796C324.45 193.586 324.261 193.337 324.201 193.084L324.273 193.585C324.319 193.84 324.56 194.053 324.856 194.218L331.561 197.688C332.492 198.148 333.223 198.204 334.348 197.619L353.644 187.879C354.028 187.679 354.396 187.539 354.433 187.138L354.484 186.403H354.48C354.462 186.805 354.151 187.179 353.618 187.457Z" fill="#DDDDFC"/>
<path fill-rule="evenodd" clip-rule="evenodd" d="M312.261 199.613L312.241 199.474C312.243 199.521 312.25 199.567 312.261 199.613Z" fill="#DDDDFC"/>
<path fill-rule="evenodd" clip-rule="evenodd" d="M312.24 199.466L312.241 199.474C312.241 199.471 312.242 199.469 312.241 199.466H312.24Z" fill="#DDDDFC"/>
<path fill-rule="evenodd" clip-rule="evenodd" d="M328.608 200.482L322.38 203.724C321.255 204.31 320.525 204.254 319.594 203.794L312.889 200.325C312.511 200.112 312.32 199.865 312.261 199.613L312.332 200.112C312.379 200.368 312.619 200.581 312.915 200.747L319.62 204.216C320.551 204.676 321.282 204.732 322.407 204.147L328.635 200.904C329.019 200.704 329.386 200.563 329.424 200.163L329.474 199.428H329.472C329.452 199.831 329.142 200.204 328.608 200.482Z" fill="#DDDDFC"/>
<path fill-rule="evenodd" clip-rule="evenodd" d="M299.966 193.171L299.945 193.032C299.948 193.078 299.955 193.124 299.966 193.171Z" fill="#DDDDFC"/>
<path fill-rule="evenodd" clip-rule="evenodd" d="M299.944 193.024L299.945 193.032C299.946 193.029 299.945 193.027 299.945 193.024H299.944Z" fill="#DDDDFC"/>
<path fill-rule="evenodd" clip-rule="evenodd" d="M316.312 194.04L310.085 197.283C308.96 197.868 308.23 197.812 307.298 197.352L300.594 193.883C300.216 193.671 300.025 193.423 299.965 193.171L300.036 193.671C300.084 193.927 300.324 194.139 300.621 194.305L307.325 197.774C308.256 198.234 308.986 198.291 310.111 197.705L316.34 194.462C316.724 194.262 317.091 194.122 317.129 193.721L317.179 192.986L317.176 192.986C317.157 193.389 316.846 193.762 316.312 194.04Z" fill="#DDDDFC"/>
<path fill-rule="evenodd" clip-rule="evenodd" d="M304.151 187.504L297.923 190.747C296.798 191.332 296.068 191.276 295.136 190.816L288.431 187.347C288.053 187.136 287.863 186.887 287.803 186.635L287.875 187.135C287.921 187.391 288.162 187.603 288.459 187.769L295.163 191.238C296.094 191.699 296.824 191.754 297.95 191.169L304.178 187.926C304.562 187.727 304.929 187.586 304.967 187.185L305.017 186.45H305.014C304.995 186.853 304.685 187.227 304.151 187.504Z" fill="#DDDDFC"/>
<path fill-rule="evenodd" clip-rule="evenodd" d="M275.94 179.863L275.92 179.724C275.923 179.771 275.929 179.816 275.94 179.863Z" fill="#DDDDFC"/>
<path fill-rule="evenodd" clip-rule="evenodd" d="M275.919 179.716L275.92 179.724C275.92 179.721 275.92 179.719 275.92 179.716H275.919Z" fill="#DDDDFC"/>
<path fill-rule="evenodd" clip-rule="evenodd" d="M292.288 180.731L286.06 183.973C284.935 184.559 284.205 184.503 283.273 184.044L276.568 180.574C276.19 180.362 276 180.114 275.94 179.862L276.012 180.362C276.059 180.618 276.299 180.831 276.596 180.997L283.3 184.466C284.231 184.925 284.961 184.982 286.086 184.396L292.315 181.154C292.699 180.954 293.066 180.813 293.104 180.412L293.154 179.678H293.151C293.132 180.08 292.821 180.454 292.288 180.731Z" fill="#DDDDFC"/>
<path fill-rule="evenodd" clip-rule="evenodd" d="M263.645 173.421L263.625 173.282C263.627 173.328 263.634 173.374 263.645 173.421Z" fill="#DDDDFC"/>
<path fill-rule="evenodd" clip-rule="evenodd" d="M263.624 173.274L263.624 173.282V173.274H263.624Z" fill="#DDDDFC"/>
<path fill-rule="evenodd" clip-rule="evenodd" d="M279.992 174.29L273.764 177.532C272.639 178.118 271.91 178.061 270.977 177.601L264.273 174.132C263.895 173.921 263.705 173.673 263.645 173.421L263.716 173.92C263.763 174.176 264.003 174.389 264.3 174.555L271.005 178.024C271.936 178.484 272.666 178.54 273.791 177.954L280.02 174.712C280.403 174.512 280.771 174.371 280.808 173.97L280.859 173.235L280.856 173.236C280.837 173.639 280.526 174.012 279.992 174.29Z" fill="#DDDDFC"/>
<path fill-rule="evenodd" clip-rule="evenodd" d="M267.831 167.754L261.603 170.997C260.478 171.582 259.747 171.526 258.816 171.066L252.111 167.597C251.733 167.386 251.543 167.137 251.483 166.885L251.555 167.385C251.601 167.641 251.842 167.853 252.138 168.019L258.842 171.488C259.774 171.949 260.504 172.004 261.629 171.419L267.858 168.176C268.241 167.977 268.609 167.836 268.647 167.435L268.697 166.7H268.694C268.675 167.103 268.364 167.477 267.831 167.754Z" fill="#DDDDFC"/>
<path fill-rule="evenodd" clip-rule="evenodd" d="M239.352 160.445L239.332 160.306C239.334 160.353 239.341 160.398 239.352 160.445Z" fill="#DDDDFC"/>
<path fill-rule="evenodd" clip-rule="evenodd" d="M239.331 160.298L239.332 160.306C239.331 160.303 239.332 160.301 239.331 160.298H239.331Z" fill="#DDDDFC"/>
<path fill-rule="evenodd" clip-rule="evenodd" d="M255.699 161.313L249.471 164.555C248.346 165.141 247.616 165.085 246.684 164.626L239.979 161.156C239.601 160.944 239.411 160.697 239.352 160.444L239.422 160.944C239.469 161.2 239.71 161.413 240.006 161.579L246.71 165.048C247.642 165.508 248.372 165.564 249.498 164.978L255.726 161.736C256.11 161.536 256.477 161.395 256.515 160.994L256.565 160.26H256.562C256.543 160.662 256.232 161.036 255.699 161.313Z" fill="#DDDDFC"/>
<path fill-rule="evenodd" clip-rule="evenodd" d="M227.056 154.003L227.036 153.864C227.039 153.91 227.046 153.956 227.056 154.003Z" fill="#DDDDFC"/>
<path fill-rule="evenodd" clip-rule="evenodd" d="M227.035 153.856L227.036 153.864V153.856H227.035Z" fill="#DDDDFC"/>
<path fill-rule="evenodd" clip-rule="evenodd" d="M243.403 154.872L237.175 158.114C236.05 158.7 235.321 158.643 234.389 158.183L227.684 154.714C227.306 154.502 227.116 154.254 227.056 154.002L227.127 154.502C227.175 154.758 227.414 154.971 227.711 155.136L234.416 158.606C235.347 159.065 236.077 159.122 237.202 158.536L243.43 155.293C243.814 155.094 244.182 154.953 244.219 154.552L244.27 153.817H244.267C244.248 154.22 243.937 154.594 243.403 154.872Z" fill="#DDDDFC"/>
<path fill-rule="evenodd" clip-rule="evenodd" d="M231.242 148.336L225.014 151.578C223.889 152.164 223.159 152.108 222.226 151.648L215.522 148.179C215.143 147.968 214.953 147.719 214.894 147.467L214.966 147.967C215.012 148.222 215.253 148.435 215.549 148.6L222.253 152.07C223.185 152.53 223.915 152.586 225.04 152L231.269 148.758C231.652 148.558 232.02 148.417 232.057 148.017L232.107 147.282H232.105C232.086 147.684 231.775 148.058 231.242 148.336Z" fill="#DDDDFC"/>
<path fill-rule="evenodd" clip-rule="evenodd" d="M299.196 206.148L299.177 206.009C299.179 206.056 299.185 206.102 299.196 206.148Z" fill="#DDDDFC"/>
<path fill-rule="evenodd" clip-rule="evenodd" d="M299.176 206.002L299.177 206.009V206.002H299.176Z" fill="#DDDDFC"/>
<path fill-rule="evenodd" clip-rule="evenodd" d="M315.544 207.017L309.316 210.259C308.191 210.845 307.461 210.789 306.53 210.33L299.825 206.86C299.447 206.648 299.256 206.4 299.196 206.148L299.268 206.648C299.315 206.903 299.555 207.116 299.852 207.282L306.556 210.751C307.487 211.211 308.218 211.267 309.342 210.682L315.571 207.44C315.955 207.239 316.322 207.099 316.36 206.698L316.411 205.963H316.408C316.388 206.366 316.078 206.739 315.544 207.017Z" fill="#DDDDFC"/>
<path fill-rule="evenodd" clip-rule="evenodd" d="M286.901 199.706L286.881 199.567C286.884 199.613 286.891 199.659 286.901 199.706Z" fill="#DDDDFC"/>
<path fill-rule="evenodd" clip-rule="evenodd" d="M286.88 199.56L286.881 199.567C286.882 199.564 286.881 199.562 286.881 199.56H286.88Z" fill="#DDDDFC"/>
<path fill-rule="evenodd" clip-rule="evenodd" d="M303.249 200.576L297.021 203.818C295.896 204.403 295.167 204.347 294.234 203.887L287.53 200.418C287.152 200.206 286.962 199.959 286.902 199.707L286.973 200.206C287.021 200.462 287.26 200.674 287.557 200.84L294.262 204.31C295.193 204.769 295.922 204.826 297.047 204.24L303.277 200.998C303.66 200.797 304.028 200.657 304.065 200.256L304.116 199.521L304.113 199.521C304.093 199.924 303.783 200.298 303.249 200.576Z" fill="#DDDDFC"/>
<path fill-rule="evenodd" clip-rule="evenodd" d="M291.087 194.04L284.859 197.282C283.734 197.868 283.004 197.812 282.072 197.352L226.916 167.716C226.537 167.505 226.347 167.256 226.287 167.004L226.359 167.504C226.406 167.76 226.646 167.972 226.942 168.138L282.099 197.774C283.03 198.234 283.761 198.289 284.886 197.704L291.114 194.462C291.498 194.262 291.865 194.121 291.903 193.72L291.953 192.985H291.95C291.931 193.388 291.62 193.762 291.087 194.04Z" fill="#DDDDFC"/>
<path fill-rule="evenodd" clip-rule="evenodd" d="M262.876 186.398L262.856 186.259C262.859 186.306 262.866 186.352 262.876 186.398Z" fill="#DDDDFC"/>
<path fill-rule="evenodd" clip-rule="evenodd" d="M262.855 186.251L262.856 186.259C262.856 186.256 262.856 186.254 262.856 186.251H262.855Z" fill="#DDDDFC"/>
<path fill-rule="evenodd" clip-rule="evenodd" d="M250.581 179.956L250.561 179.817C250.563 179.863 250.57 179.909 250.581 179.956Z" fill="#DDDDFC"/>
<path fill-rule="evenodd" clip-rule="evenodd" d="M250.56 179.809L250.56 179.817V179.809H250.56Z" fill="#DDDDFC"/>
<path fill-rule="evenodd" clip-rule="evenodd" d="M226.287 166.98L226.268 166.841C226.27 166.888 226.277 166.933 226.287 166.98Z" fill="#DDDDFC"/>
<path fill-rule="evenodd" clip-rule="evenodd" d="M226.267 166.833L226.268 166.841C226.268 166.838 226.268 166.836 226.268 166.833H226.267Z" fill="#DDDDFC"/>
<path fill-rule="evenodd" clip-rule="evenodd" d="M213.992 160.538L213.972 160.399C213.974 160.445 213.982 160.491 213.992 160.538Z" fill="#DDDDFC"/>
<path fill-rule="evenodd" clip-rule="evenodd" d="M213.972 160.392L213.973 160.399V160.392H213.972Z" fill="#DDDDFC"/>
<path fill-rule="evenodd" clip-rule="evenodd" d="M230.339 161.407L224.111 164.649C222.986 165.235 222.256 165.179 221.325 164.719L214.621 161.249C214.242 161.038 214.052 160.79 213.992 160.538L214.063 161.038C214.111 161.294 214.35 161.506 214.647 161.672L221.352 165.142C222.283 165.601 223.013 165.657 224.138 165.072L230.366 161.829C230.751 161.629 231.118 161.489 231.155 161.087L231.206 160.353H231.203C231.184 160.756 230.873 161.129 230.339 161.407Z" fill="#DDDDFC"/>
<path fill-rule="evenodd" clip-rule="evenodd" d="M218.178 154.872L211.95 158.114C210.825 158.7 210.095 158.643 209.163 158.184L202.458 154.714C202.08 154.503 201.889 154.254 201.83 154.002L201.902 154.503C201.948 154.758 202.189 154.971 202.485 155.136L209.189 158.606C210.121 159.066 210.851 159.122 211.977 158.536L218.205 155.294C218.588 155.094 218.956 154.953 218.993 154.552L219.044 153.817H219.041C219.022 154.22 218.712 154.594 218.178 154.872Z" fill="#DDDDFC"/>
<path fill-rule="evenodd" clip-rule="evenodd" d="M257.74 7.80156L257.785 105.581C257.919 109.179 260.877 110.173 260.877 110.173L379.635 173.166C379.635 173.166 381.181 173.957 382.999 174.168C384.065 174.293 385.224 174.218 386.218 173.667C386.318 173.611 386.415 173.555 386.504 173.492C388.629 171.989 388.604 168.193 388.604 168.193V72.8638C388.387 68.7538 384.577 67.2262 384.577 67.2262L262.107 3.59609C262.107 3.59609 259.745 2.38906 258.713 3.45174C257.615 4.58171 257.74 5.27086 257.74 7.80156Z" fill="#528EF9"/>
<path fill-rule="evenodd" clip-rule="evenodd" d="M369.37 195.735L373.631 193.431C374.291 193.074 374.681 192.216 374.314 191.607C374.73 191.655 375.119 191.867 375.351 192.219C375.751 192.83 375.358 193.713 374.686 194.076L370.426 196.38C370.032 196.593 369.572 196.608 369.178 196.466C368.897 196.365 368.648 196.188 368.481 195.934C368.474 195.923 368.469 195.911 368.462 195.9C368.766 195.938 369.086 195.889 369.37 195.735Z" fill="#B6B6DD"/>
<path fill-rule="evenodd" clip-rule="evenodd" d="M369.146 194.077L373.407 191.773C373.637 191.648 373.892 191.594 374.142 191.596C374.2 191.596 374.257 191.6 374.314 191.607C374.681 192.216 374.291 193.074 373.631 193.431L369.37 195.735C369.086 195.889 368.766 195.938 368.462 195.9C368.096 195.292 368.486 194.434 369.146 194.077Z" fill="#C7C7EA"/>
<path fill-rule="evenodd" clip-rule="evenodd" d="M290.379 27.6426V120.774L355.034 154.39V61.259L290.379 27.6426Z" fill="white"/>
<path fill-rule="evenodd" clip-rule="evenodd" d="M290.379 34.5029L355.034 68.1189V101.908L290.379 68.2909V34.5029Z" fill="#DDDDFC"/>
<path fill-rule="evenodd" clip-rule="evenodd" d="M298.162 91.4092V100.379L310.991 107.014V98.1673L298.162 91.4092Z" fill="#DDDDFC"/>
<path fill-rule="evenodd" clip-rule="evenodd" d="M305.792 81.7334V84.3746L338.857 101.73V99.2112L305.792 81.7334Z" fill="#DDDDFC"/>
<path fill-rule="evenodd" clip-rule="evenodd" d="M311.38 89.2129V91.4089L333.39 102.825V100.752L311.38 89.2129Z" fill="#DDDDFC"/>
<path fill-rule="evenodd" clip-rule="evenodd" d="M298.162 101.73V102.897L310.991 109.533V108.489L298.162 101.73Z" fill="#DDDDFC"/>
<path fill-rule="evenodd" clip-rule="evenodd" d="M298.162 104.509V105.677L308.367 111.01V109.966L298.162 104.509Z" fill="#DDDDFC"/>
<path fill-rule="evenodd" clip-rule="evenodd" d="M315.525 100.483V109.453L328.353 116.088V107.241L315.525 100.483Z" fill="#DDDDFC"/>
<path fill-rule="evenodd" clip-rule="evenodd" d="M315.525 110.805V111.972L328.353 118.607V117.563L315.525 110.805Z" fill="#DDDDFC"/>
<path fill-rule="evenodd" clip-rule="evenodd" d="M315.525 113.378V114.544L325.73 119.879V118.834L315.525 113.378Z" fill="#DDDDFC"/>
<path fill-rule="evenodd" clip-rule="evenodd" d="M332.828 109.558V118.528L345.656 125.163V116.316L332.828 109.558Z" fill="#DDDDFC"/>
<path fill-rule="evenodd" clip-rule="evenodd" d="M332.862 132.278V136.531L344.178 142.383V138.253L332.862 132.278Z" fill="#DDDDFC"/>
<path fill-rule="evenodd" clip-rule="evenodd" d="M332.828 119.879V121.046L345.656 127.682V126.637L332.828 119.879Z" fill="#DDDDFC"/>
<path fill-rule="evenodd" clip-rule="evenodd" d="M332.862 122.435V123.601L343.066 128.936V127.891L332.862 122.435Z" fill="#DDDDFC"/>
<path fill-rule="evenodd" clip-rule="evenodd" d="M332.862 132.278L333.675 131.904L344.853 137.877L344.178 138.253L332.862 132.278Z" fill="#E4E4F4"/>
<path fill-rule="evenodd" clip-rule="evenodd" d="M344.178 138.252L344.853 137.876V142.006L344.178 142.382V138.252Z" fill="#CECEEF"/>
<path fill-rule="evenodd" clip-rule="evenodd" d="M294.204 32.4983C294.73 32.103 295.549 32.2157 296.033 32.7495C296.518 33.2833 296.485 34.0368 295.959 34.4322C295.432 34.8275 294.613 34.7152 294.128 34.1814C293.644 33.6472 293.677 32.8941 294.204 32.4983Z" fill="#E8F0F4"/>
<path fill-rule="evenodd" clip-rule="evenodd" d="M151.627 129.425C151.627 129.425 83.1958 165.497 80.9498 166.68C77.0267 168.746 73.5045 166.357 73.5045 166.357L28.8957 142.952C28.8957 142.952 27.6077 142.417 27.5803 141.052C27.5789 141.046 27.5771 141.04 27.5771 141.034V143.31C27.5771 144.297 29.1648 145.126 29.1648 145.126L73.8807 168.999C73.8807 168.999 77.2895 171.114 81.2064 169.006C83.4397 167.803 151.627 131.394 151.627 131.394C151.627 131.394 153.702 130.486 153.702 128.871V127.433C153.554 128.612 151.627 129.425 151.627 129.425Z" fill="#DDDDFC"/>
<path fill-rule="evenodd" clip-rule="evenodd" d="M150.922 124.609L108.644 101.991C108.644 101.991 104.971 99.5383 100.757 101.778L28.9654 139.12C28.9654 139.12 27.5771 139.73 27.5771 141.01C27.5771 141.025 27.5789 141.038 27.5803 141.053C27.6077 142.417 28.8957 142.952 28.8957 142.952L73.5045 166.357C73.5045 166.357 77.0267 168.746 80.9498 166.68C83.1958 165.497 151.627 129.425 151.627 129.425C151.627 129.425 153.554 128.612 153.702 127.433C153.873 126.085 150.922 124.609 150.922 124.609Z" fill="#F6F6FF"/>
<path fill-rule="evenodd" clip-rule="evenodd" d="M146.974 127.579L86.2329 159.51L42.686 136.643L103.054 104.414L146.974 127.579Z" fill="#528EF9"/>
<path fill-rule="evenodd" clip-rule="evenodd" d="M53.9688 150.861C53.9688 149.887 55.4043 149.096 57.175 149.096C58.9449 149.096 60.3813 149.887 60.3813 150.861C60.3813 151.837 58.9449 152.628 57.175 152.628C55.4043 152.628 53.9688 151.837 53.9688 150.861ZM53.7163 150.862C53.7163 151.914 55.2648 152.767 57.1755 152.767C59.0853 152.767 60.6338 151.914 60.6338 150.862C60.6338 149.81 59.0853 148.958 57.1755 148.958C55.2648 148.958 53.7163 149.81 53.7163 150.862Z" fill="#D8D8D8"/>
<path fill-rule="evenodd" clip-rule="evenodd" d="M169.951 62.7915L169.988 63.474C170.278 68.002 172.675 93.54 190.04 98.0038C203.961 101.292 207.901 96.5362 208.348 95.9146L210.416 57.438H169.664L169.951 62.7837V62.7915Z" fill="white"/>
<path fill-rule="evenodd" clip-rule="evenodd" d="M190.04 98.0039C172.676 93.5401 170.278 68.0022 169.988 63.4741L171.872 98.5245C171.872 103.848 180.006 108.165 190.04 108.165C200.074 108.165 208.208 103.848 208.208 98.5245L208.348 95.9147C207.902 96.5363 203.961 101.292 190.04 98.0039Z" fill="#F6F6FF"/>
<path fill-rule="evenodd" clip-rule="evenodd" d="M190.039 104.693C180.454 104.693 172.58 100.811 171.687 95.8491C171.631 96.1593 171.6 96.4727 171.6 96.7903C171.6 102.195 179.856 106.576 190.039 106.576C200.224 106.576 208.48 102.195 208.48 96.7903C208.48 96.4727 208.449 96.1593 208.393 95.8491C207.5 100.811 199.625 104.693 190.039 104.693Z" fill="#F0F0FC"/>
<path fill-rule="evenodd" clip-rule="evenodd" d="M209.985 56.1971C209.985 62.0428 201.055 66.7814 190.04 66.7814C179.024 66.7814 170.094 62.0428 170.094 56.1971C170.094 50.3514 179.024 45.6133 190.04 45.6133C201.055 45.6133 209.985 50.3514 209.985 56.1971Z" fill="white"/>
<path fill-rule="evenodd" clip-rule="evenodd" d="M190.04 69.7865C179.486 69.7865 170.815 65.5126 169.832 60.0479C169.771 60.3897 169.736 60.7353 169.736 61.085C169.736 67.0354 178.827 71.86 190.04 71.86C201.253 71.86 210.344 67.0354 210.344 61.085C210.344 60.7353 210.309 60.3897 210.248 60.0479C209.265 65.5126 200.594 69.7865 190.04 69.7865Z" fill="#F0F0FC"/>
<path fill-rule="evenodd" clip-rule="evenodd" d="M190.04 60.7479C179.677 60.7479 171.163 56.551 170.199 51.1855C170.137 51.5208 170.104 51.8602 170.104 52.2042C170.104 58.0466 179.03 62.7839 190.04 62.7839C201.05 62.7839 209.976 58.0466 209.976 52.2042C209.976 51.8602 209.942 51.5208 209.883 51.1855C208.916 56.551 200.402 60.7479 190.04 60.7479Z" fill="#FCFCFC"/>
<path fill-rule="evenodd" clip-rule="evenodd" d="M190.443 66.5676C198.179 67.2266 202.903 66.1977 205.777 64.8112C207.667 63.6765 209.126 62.3365 210.023 60.8615C210.115 60.637 210.146 60.5044 210.146 60.5044C210.146 60.5044 210.169 60.5159 210.21 60.5345C210.745 59.5517 211.037 58.5133 211.037 57.4382C211.037 51.284 201.636 46.2954 190.039 46.2954C180.736 46.2954 172.85 49.5078 170.094 53.9551C170.084 54.2649 169.892 65.0572 190.443 66.5676Z" fill="white"/>
<path fill-rule="evenodd" clip-rule="evenodd" d="M190.039 68.5813C196.308 68.5813 201.93 67.1224 205.778 64.8112C202.903 66.1976 198.179 67.2266 190.443 66.5675C169.892 65.0571 170.084 54.2652 170.094 53.9551C169.414 55.0512 169.042 56.2218 169.042 57.4385C169.042 63.5924 178.443 68.5813 190.039 68.5813Z" fill="#F6F6FF"/>
<path fill-rule="evenodd" clip-rule="evenodd" d="M209.88 52.3616C209.88 58.1764 200.997 62.8906 190.04 62.8906C179.082 62.8906 170.199 58.1764 170.199 52.3616C170.199 46.5463 179.082 41.8325 190.04 41.8325C200.997 41.8325 209.88 46.5463 209.88 52.3616Z" fill="white"/>
<path fill-rule="evenodd" clip-rule="evenodd" d="M190.039 41.9551C179.173 41.9551 170.333 46.6232 170.333 52.3614C170.333 58.0996 179.173 62.7673 190.039 62.7673C200.906 62.7673 209.746 58.0996 209.746 52.3614C209.746 46.6232 200.906 41.9551 190.039 41.9551ZM190.04 63.0123C179.025 63.0123 170.065 58.2347 170.065 52.3613C170.065 46.488 179.025 41.71 190.04 41.71C201.054 41.71 210.015 46.488 210.015 52.3613C210.015 58.2347 201.054 63.0123 190.04 63.0123Z" fill="#F7F7F7"/>
<path fill-rule="evenodd" clip-rule="evenodd" d="M188.695 58.6221H193.119C193.231 58.6221 193.336 58.6439 193.432 58.6826C193.432 58.6744 193.434 58.6661 193.434 58.6579C193.434 58.2645 193.086 57.9453 192.656 57.9453H188.231C187.801 57.9453 187.452 58.2645 187.452 58.6579C187.452 58.9504 187.644 59.2004 187.919 59.3108C187.933 58.9289 188.274 58.6221 188.695 58.6221Z" fill="#DADEE0"/>
<path fill-rule="evenodd" clip-rule="evenodd" d="M192.656 59.3709C193.077 59.3709 193.418 59.0645 193.432 58.6826C193.336 58.6439 193.231 58.6221 193.119 58.6221H188.695C188.274 58.6221 187.932 58.9285 187.919 59.3108C188.014 59.3491 188.12 59.3709 188.23 59.3709H192.656Z" fill="#E8E8E8"/>
</svg>
