<svg width="24" height="24" viewBox="0 0 24 24" fill="none" xmlns="http://www.w3.org/2000/svg">
<path d="M11.8805 23.3147C5.58405 23.3147 0.445312 18.1756 0.445312 11.8795C0.445312 5.58307 5.58441 0.444336 11.8805 0.444336C18.177 0.444336 23.3157 5.58342 23.3157 11.8795C23.3157 18.176 18.1766 23.3147 11.8805 23.3147ZM8.46951 21.381C7.68495 20.3835 7.1148 19.1502 6.72029 17.9545H3.82321C4.99634 19.5065 6.60669 20.7102 8.46951 21.381ZM2.96695 16.6189H6.34114C6.03802 15.3486 5.85907 13.9697 5.8161 12.5495H1.80816C1.90437 14.0105 2.3126 15.3919 2.96695 16.6189ZM2.96695 7.14464C2.3126 8.37155 1.90437 9.74851 1.80816 11.2095H5.8161C5.85907 9.78934 6.03802 8.41488 6.34114 7.14464H2.96695ZM3.82321 5.80458H6.72024C7.11467 4.60911 7.68482 3.37567 8.46951 2.37804C6.60669 3.04883 4.99634 4.25252 3.82321 5.80458ZM11.2105 1.89812C9.71447 2.401 8.68303 4.32158 8.13825 5.80458H11.2105V1.89812ZM11.2105 7.14464H7.72118C7.39554 8.39693 7.20257 9.77491 7.1567 11.2095H11.2105V7.14464ZM11.2105 12.5495H7.1567C7.20262 13.9841 7.39559 15.3621 7.72118 16.6144H11.2105V12.5495ZM11.2105 17.9545H8.13825C8.68298 19.4374 9.71447 21.358 11.2105 21.8609V17.9545ZM20.7941 16.6144C21.4485 15.3875 21.8566 14.0105 21.9529 12.5495H17.9449C17.902 13.9697 17.723 15.3441 17.4199 16.6144H20.7941ZM19.9378 17.9545H17.0408C16.6464 19.1499 16.0762 20.3834 15.2915 21.381C17.1543 20.7102 18.7647 19.5065 19.9378 17.9545ZM12.5506 21.8609C14.0466 21.358 15.078 19.4375 15.6228 17.9545H12.5506V21.8609ZM12.5506 16.6144H16.0398C16.3655 15.3621 16.5585 13.9841 16.6043 12.5495H12.5506V16.6144ZM12.5506 11.2139H16.6043C16.5584 9.77938 16.3654 8.39693 16.0398 7.14464H12.5506V11.2139ZM12.5506 1.89812V5.80904H15.6228C15.078 4.32609 14.0466 2.401 12.5506 1.89812ZM15.2915 2.37804C16.0761 3.37554 16.6462 4.61331 17.0408 5.80904H19.9378C18.7647 4.25699 17.1543 3.04883 15.2915 2.37804ZM20.7941 7.14464H17.4199C17.723 8.41488 17.902 9.7938 17.9449 11.2139H21.9529C21.8566 9.75298 21.4484 8.37155 20.7941 7.14464Z" fill="#1B1732"/>
</svg>
