<svg width="161" height="40" viewBox="0 0 161 40" fill="none" xmlns="http://www.w3.org/2000/svg">
<path d="M10.9259 20.6874V38.6806H4.91463V20.6874H0V15.6104H15.8405V20.6874H10.9259Z" fill="#1B1732"/>
<path d="M52.233 20.6874V38.6806H46.2218V20.6874H41.3071V15.6104H57.1476V20.6874H52.233Z" fill="#1B1732"/>
<path d="M72.5008 21.5404C71.851 21.0124 71.2011 20.6063 70.5512 20.3626C69.9014 20.1189 69.2515 19.997 68.6422 19.997C67.8705 19.997 67.2206 20.2001 66.7332 20.5656C66.2458 20.9312 66.0021 21.4186 66.0021 21.9872C66.0021 22.3934 66.124 22.7183 66.3677 23.0026C66.6114 23.287 66.9363 23.49 67.3425 23.6931C67.7487 23.8962 68.1955 24.0587 68.6829 24.1805C69.1703 24.343 69.6577 24.4648 70.1857 24.6273C72.1353 25.2772 73.5569 26.1708 74.491 27.2268C75.3846 28.3234 75.872 29.745 75.872 31.4915C75.872 32.6694 75.6689 33.7661 75.2628 34.7003C74.8566 35.6751 74.288 36.4874 73.5162 37.1779C72.7445 37.8684 71.8103 38.3964 70.7137 38.7619C69.617 39.1275 68.3579 39.3306 66.9363 39.3306C64.0119 39.3306 61.3312 38.4776 58.813 36.7311L61.3718 31.8977C62.2654 32.71 63.159 33.2787 64.0525 33.6848C64.9461 34.091 65.7991 34.2535 66.652 34.2535C67.6268 34.2535 68.3579 34.0098 68.8453 33.563C69.3327 33.1162 69.5764 32.5882 69.5764 32.0196C69.5764 31.654 69.4952 31.3697 69.3733 31.126C69.2515 30.8823 69.0484 30.6386 68.7641 30.4355C68.4798 30.2324 68.1142 30.0293 67.6268 29.8263C67.18 29.6232 66.6114 29.4201 65.9615 29.217C65.1898 28.9733 64.4181 28.689 63.687 28.4047C62.9559 28.1204 62.2654 27.7142 61.6968 27.2268C61.1281 26.7394 60.6407 26.1301 60.2752 25.3584C59.9096 24.6273 59.7472 23.6525 59.7472 22.5152C59.7472 21.378 59.9503 20.3219 60.3158 19.4284C60.6814 18.4942 61.2094 17.7225 61.8999 17.032C62.5903 16.3821 63.4027 15.8541 64.4181 15.4886C65.3929 15.123 66.5302 14.9199 67.7487 14.9199C68.8859 14.9199 70.1044 15.0824 71.3229 15.4073C72.5821 15.7323 73.7599 16.179 74.8972 16.7883L72.5008 21.5404Z" fill="#1B1732"/>
<path d="M83.6706 15.6104L89.2351 29.6637L94.8402 15.6104H101.339L91.5909 38.6806H86.8387L77.1313 15.6104H83.6706Z" fill="#1B1732"/>
<path d="M101.664 27.1455C101.664 25.4396 101.989 23.8555 102.598 22.3527C103.248 20.8905 104.101 19.5908 105.238 18.4941C106.376 17.3975 107.716 16.5445 109.259 15.8946C110.803 15.2854 112.549 14.9604 114.418 14.9604C116.286 14.9604 117.992 15.2854 119.576 15.8946C121.16 16.5039 122.5 17.3975 123.638 18.4941C124.775 19.5908 125.669 20.8905 126.278 22.3527C126.928 23.8149 127.212 25.4396 127.212 27.1455C127.212 28.8514 126.887 30.4354 126.278 31.9382C125.628 33.4004 124.775 34.7002 123.638 35.7968C122.5 36.8935 121.16 37.7464 119.576 38.3963C117.992 39.0056 116.286 39.3305 114.418 39.3305C112.549 39.3305 110.803 39.0056 109.259 38.3963C107.716 37.7871 106.376 36.8935 105.238 35.7968C104.101 34.7002 103.248 33.4004 102.598 31.9382C101.989 30.476 101.664 28.892 101.664 27.1455ZM107.96 27.1455C107.96 28.0796 108.122 28.892 108.488 29.7043C108.853 30.476 109.3 31.1665 109.909 31.7352C110.519 32.3038 111.209 32.7506 111.981 33.0755C112.752 33.4004 113.605 33.5629 114.458 33.5629C115.352 33.5629 116.164 33.4004 116.936 33.0755C117.708 32.7506 118.398 32.3038 119.007 31.7352C119.617 31.1665 120.063 30.476 120.429 29.7043C120.795 28.9326 120.957 28.0796 120.957 27.1455C120.957 26.2113 120.795 25.399 120.429 24.5866C120.063 23.8149 119.617 23.1244 119.007 22.5558C118.398 21.9871 117.708 21.5404 116.936 21.2154C116.164 20.8905 115.311 20.728 114.458 20.728C113.565 20.728 112.752 20.8905 111.981 21.2154C111.209 21.5404 110.519 21.9871 109.909 22.5558C109.3 23.1244 108.853 23.8149 108.488 24.5866C108.122 25.399 107.96 26.2519 107.96 27.1455Z" fill="#1B1732"/>
<path d="M137 15.6104V38.6806H130.989V15.6104H137Z" fill="#1B1732"/>
<path d="M32.6557 15.6104H31.2747C31.1529 16.9913 29.975 18.088 28.5534 18.088C27.1318 18.088 25.9539 16.9913 25.8321 15.6104H24.4917H18.4805V28.9732C18.4805 32.5475 19.2928 35.1876 20.9581 36.8529C22.6234 38.5182 25.1416 39.3305 28.5534 39.3305C31.9652 39.3305 34.4835 38.5182 36.1081 36.8529C37.7328 35.1876 38.5857 32.5881 38.5857 28.9732V15.6104H32.6557ZM24.4511 21.8247H23.5982V21.4592H24.4511V21.8247ZM25.9539 21.8247H25.101V21.4592H25.9539V21.8247ZM27.4974 21.8247H26.6444V21.4592H27.4974V21.8247ZM29.0002 21.8247H28.1472V21.4592H29.0002V21.8247ZM30.503 21.8247H29.6501V21.4592H30.503V21.8247ZM32.0465 21.8247H31.1935V21.4592H32.0465V21.8247ZM33.5493 21.8247L32.6557 22.0278L32.4932 21.2155L33.5493 21.4592V21.8247Z" fill="#1B1732"/>
<path d="M33.5495 21.4592V15.6104H31.275C31.1531 16.9913 29.9752 18.088 28.5536 18.088C27.132 18.088 25.9542 16.9913 25.8323 15.6104H23.5977V21.4592H24.4107V21.8247H23.5977V30.5167C23.5977 32.9537 25.5074 34.9033 27.9444 34.9033H29.1223C31.5593 34.9033 33.5495 32.9522 33.5495 30.5152V21.8247H32.6559V21.4592H33.5495ZM25.9542 21.8247H25.1012V21.4592H25.9542V21.8247ZM27.4976 21.8247H26.6446V21.4592H27.4976V21.8247ZM29.0004 21.8247H28.1475V21.4592H29.0004V21.8247ZM30.5032 21.8247H29.6503V21.4592H30.5032V21.8247ZM32.0467 21.8247H31.1937V21.4592H32.0467V21.8247Z" fill="url(#paint0_linear)"/>
<path d="M153 15C149.14 15 146 11.8597 146 8C146 4.14027 149.14 1 153 1C156.86 1 160 4.14027 160 8C160 11.8597 156.86 15 153 15ZM153 1.875C149.623 1.875 146.875 4.62262 146.875 8C146.875 11.3774 149.623 14.125 153 14.125C156.377 14.125 159.125 11.3774 159.125 8C159.125 4.62262 156.377 1.875 153 1.875Z" fill="#1B1732" stroke="#1B1732" stroke-width="0.5"/>
<path d="M154.75 11.5004C154.749 10.3452 154.062 9.30567 153.001 8.85108L152.125 8.47595V11.5H151.25V4.9375C151.25 4.69568 151.446 4.5 151.688 4.5H153.656C154.742 4.5 155.625 5.38312 155.625 6.46874C155.625 7.43729 154.922 8.2444 154 8.40758C155.004 9.09887 155.624 10.2473 155.625 11.4996L154.75 11.5004ZM152.125 7.56251H153.656C154.26 7.56251 154.75 7.07205 154.75 6.46877C154.75 5.8655 154.26 5.37504 153.656 5.37504H152.125V7.56251Z" fill="#1B1732" stroke="#1B1732" stroke-width="0.5"/>
<defs>
<linearGradient id="paint0_linear" x1="28.6491" y1="12.9076" x2="28.4592" y2="36.8959" gradientUnits="userSpaceOnUse">
<stop offset="0.1612" stop-color="#FDC700"/>
<stop offset="0.5416" stop-color="#F08F34"/>
<stop offset="0.8876" stop-color="#E86031"/>
<stop offset="0.9876" stop-color="#E2312D"/>
</linearGradient>
</defs>
</svg>
