<svg width="181" height="43" viewBox="0 0 181 43" fill="none" xmlns="http://www.w3.org/2000/svg">
<path d="M63.3381 33.2599C63.4714 33.593 63.3381 33.9928 63.005 34.1927C62.472 34.4592 61.8724 34.7257 61.2727 34.8589C60.3399 35.0588 59.4072 35.1921 58.3411 35.1921C55.6761 35.1921 53.6772 34.5258 52.2115 33.1933C50.7457 31.8607 50.0794 29.8619 50.0794 27.2635V18.9351C50.0794 18.5354 49.7463 18.2022 49.3465 18.2022H47.4809C47.0812 18.2022 46.748 17.8691 46.748 17.4693V14.0713C46.748 13.6716 47.0812 13.3384 47.4809 13.3384H49.3465C49.7463 13.3384 50.0794 13.0053 50.0794 12.6056V8.7412C50.0794 8.34143 50.4125 8.0083 50.8123 8.0083H55.6761C56.0758 8.0083 56.4089 8.34143 56.4089 8.7412V12.6056C56.4089 13.0053 56.7421 13.3384 57.1418 13.3384H61.1395C61.5392 13.3384 61.8724 13.6716 61.8724 14.0713V17.4693C61.8724 17.8691 61.5392 18.2022 61.1395 18.2022H57.1418C56.7421 18.2022 56.4089 18.5354 56.4089 18.9351V27.1968C56.4089 28.1296 56.6755 28.8625 57.1418 29.3289C57.6082 29.8619 58.2745 30.0618 59.2073 30.0618C59.8735 30.0618 60.5398 29.9286 61.0728 29.662C61.4726 29.4622 62.0056 29.662 62.1389 30.0618L63.3381 33.2599Z" fill="#1C1832"/>
<path d="M87.3239 25.6642H72.3328C71.7998 25.6642 71.4 26.2639 71.6666 26.7303C72.0663 27.5964 72.666 28.3293 73.4655 28.8623C74.5981 29.6619 75.9973 30.0616 77.663 30.0616C78.7956 30.0616 79.8617 29.8617 80.7278 29.5286C81.3941 29.2621 82.0604 28.8623 82.7266 28.396C83.0598 28.1294 83.4595 28.1961 83.726 28.4626L86.1246 31.061C86.3911 31.3942 86.3911 31.8606 86.058 32.1271C83.9925 34.1259 81.1276 35.1253 77.4631 35.1253C74.9979 35.1253 72.7326 34.6589 70.867 33.6595C68.9348 32.6601 67.4691 31.3275 66.403 29.5952C65.337 27.8629 64.8706 25.9308 64.8706 23.7321C64.8706 21.5334 65.4036 19.6012 66.403 17.8689C67.4024 16.1366 68.8682 14.7374 70.6672 13.8047C72.4661 12.8053 74.4649 12.3389 76.7302 12.3389C78.9289 12.3389 80.8611 12.8053 82.5934 13.738C84.3257 14.6708 85.7248 16.0034 86.7242 17.7357C87.7236 19.468 88.2567 21.5334 88.2567 23.7987C88.2567 23.8653 88.2567 24.1985 88.19 24.7981C88.0568 25.3977 87.7236 25.6642 87.3239 25.6642ZM72.9991 18.5352C72.2662 19.1348 71.7332 19.9343 71.4 20.9337C71.2668 21.4001 71.5999 21.9331 72.1329 21.9331H81.1276C81.6606 21.9331 81.9937 21.4668 81.8605 20.9337C81.5273 20.001 80.9943 19.2014 80.2614 18.5352C79.262 17.669 78.0627 17.2693 76.6636 17.2693C75.1978 17.3359 73.9985 17.7356 72.9991 18.5352Z" fill="#1C1832"/>
<path d="M113.308 25.6642H98.3167C97.7837 25.6642 97.3839 26.2639 97.6504 26.7303C98.0502 27.5964 98.6498 28.3293 99.4494 28.8623C100.582 29.6619 101.981 30.0616 103.647 30.0616C104.78 30.0616 105.846 29.8617 106.712 29.5286C107.378 29.2621 108.044 28.8623 108.711 28.396C109.044 28.1294 109.443 28.1961 109.71 28.4626L112.108 31.061C112.375 31.3942 112.375 31.8606 112.042 32.1271C109.976 34.1259 107.111 35.1253 103.447 35.1253C100.982 35.1253 98.7165 34.6589 96.8509 33.6595C94.9187 32.6601 93.4529 31.3275 92.3869 29.5952C91.3209 27.8629 90.8545 25.9308 90.8545 23.7321C90.8545 21.5334 91.3875 19.6012 92.3869 17.8689C93.3863 16.1366 94.8521 14.7374 96.651 13.8047C98.45 12.8053 100.449 12.3389 102.714 12.3389C104.913 12.3389 106.845 12.8053 108.577 13.738C110.31 14.6708 111.709 16.0034 112.708 17.7357C113.708 19.468 114.241 21.5334 114.241 23.7987C114.241 23.8653 114.241 24.1985 114.174 24.7981C114.041 25.3977 113.708 25.6642 113.308 25.6642ZM98.983 18.5352C98.2501 19.1348 97.7171 19.9343 97.3839 20.9337C97.2507 21.4001 97.5838 21.9331 98.1168 21.9331H107.111C107.644 21.9331 107.978 21.4668 107.844 20.9337C107.511 20.001 106.978 19.2014 106.245 18.5352C105.246 17.669 104.047 17.2693 102.647 17.2693C101.182 17.3359 99.9824 17.7356 98.983 18.5352Z" fill="#1C1832"/>
<path d="M137.094 13.8711C138.759 14.8039 140.092 16.1364 141.091 17.8687C142.024 19.601 142.557 21.5998 142.557 23.8651C142.557 26.1304 142.091 28.1292 141.091 29.8615C140.159 31.5938 138.826 32.9264 137.094 33.8592C135.428 34.7919 133.563 35.2583 131.497 35.2583C129.298 35.2583 127.5 34.7253 126.034 33.6593C125.501 33.2595 124.834 33.6593 124.834 34.2589V42.1209C124.834 42.5207 124.501 42.8538 124.102 42.8538H119.238C118.838 42.8538 118.505 42.5207 118.505 42.1209V13.5379C118.505 13.1382 118.838 12.8051 119.238 12.8051H123.835C124.235 12.8051 124.568 13.1382 124.568 13.5379C124.568 14.2042 125.301 14.5374 125.834 14.1376C127.3 13.0049 129.232 12.4719 131.564 12.4719C133.563 12.4719 135.428 12.9383 137.094 13.8711ZM134.429 28.3291C135.495 27.1965 136.028 25.7307 136.028 23.8651C136.028 21.9996 135.495 20.5338 134.429 19.4011C133.363 18.2685 132.03 17.7354 130.364 17.7354C128.699 17.7354 127.366 18.2685 126.3 19.4011C125.234 20.5338 124.701 21.9996 124.701 23.8651C124.701 25.7307 125.234 27.1965 126.3 28.3291C127.366 29.4618 128.699 29.9948 130.364 29.9948C132.03 29.9948 133.363 29.4618 134.429 28.3291Z" fill="#1C1832"/>
<path d="M147.554 4.41016H152.417C152.817 4.41016 153.15 4.74329 153.15 5.14305V34.1924C153.15 34.5921 152.817 34.9253 152.417 34.9253H147.554C147.154 34.9253 146.821 34.5921 146.821 34.1924V5.14305C146.821 4.74329 147.154 4.41016 147.554 4.41016Z" fill="#1C1832"/>
<path d="M180.067 25.6642H165.076C164.543 25.6642 164.143 26.2639 164.41 26.7303C164.809 27.5964 165.409 28.3293 166.209 28.8623C167.341 29.6619 168.74 30.0616 170.406 30.0616C171.539 30.0616 172.605 29.8617 173.471 29.5286C174.137 29.2621 174.804 28.8623 175.47 28.396C175.803 28.1294 176.203 28.1961 176.469 28.4626L178.868 31.061C179.134 31.3942 179.134 31.8606 178.801 32.1271C176.736 34.1259 173.871 35.1253 170.206 35.1253C167.741 35.1253 165.476 34.6589 163.61 33.6595C161.678 32.6601 160.212 31.3275 159.146 29.5952C158.08 27.8629 157.614 25.9308 157.614 23.7321C157.614 21.5334 158.147 19.6012 159.146 17.8689C160.146 16.1366 161.611 14.7374 163.41 13.8047C165.209 12.8053 167.208 12.3389 169.473 12.3389C171.672 12.3389 173.604 12.8053 175.337 13.738C177.069 14.6708 178.468 16.0034 179.467 17.7357C180.467 19.468 181 21.5334 181 23.7987C181 23.8653 181 24.1985 180.933 24.7981C180.8 25.3977 180.467 25.6642 180.067 25.6642ZM165.742 18.5352C165.009 19.1348 164.476 19.9343 164.143 20.9337C164.01 21.4001 164.343 21.9331 164.876 21.9331H173.871C174.404 21.9331 174.737 21.4668 174.604 20.9337C174.27 20.001 173.737 19.2014 173.005 18.5352C172.005 17.669 170.806 17.2693 169.407 17.2693C167.941 17.3359 166.742 17.7356 165.742 18.5352Z" fill="#1C1832"/>
<path d="M-0.000156403 8.43201L-0.000156403 32.1421C-0.000156403 36.7985 3.77533 40.574 8.43176 40.574L32.1418 40.574C36.7982 40.574 40.5737 36.7985 40.5737 32.1421L40.5737 8.43201C40.5737 3.77557 36.7982 8.7738e-05 32.1418 8.7738e-05L8.43176 8.7738e-05C3.75016 8.7738e-05 -0.000156403 3.77557 -0.000156403 8.43201Z" fill="url(#paint0_linear)"/>
<path d="M7.70381 8.47863C7.64583 8.47863 7.60761 8.47863 7.54963 8.47863C6.1872 8.50761 5.08279 9.73792 5.08279 11.0997C5.08279 13.4175 5.08279 15.7198 5.08279 18.0376C5.11178 21.8041 4.65083 24.8835 7.54963 27.2883C9.14397 28.621 12.6021 30.2301 14.9501 28.9842C16.3416 28.2599 16.3811 25.5747 14.6418 24.8214C13.0764 24.1261 10.0744 24.9653 10.0165 20.967V11.0997C10.0165 9.82484 9.10447 8.59453 7.85799 8.47863C7.80001 8.42069 7.76179 8.47863 7.70381 8.47863Z" fill="white"/>
<path d="M13.4082 17.421C14.7706 17.421 15.8751 16.3165 15.8751 14.9541C15.8751 13.5917 14.7706 12.4873 13.4082 12.4873C12.0458 12.4873 10.9414 13.5917 10.9414 14.9541C10.9414 16.3165 12.0458 17.421 13.4082 17.421Z" fill="white"/>
<path d="M23.4295 20.9671C23.3713 24.1806 23.5168 27.2837 23.4295 30.5261C23.4004 31.8 22.2426 33.0603 20.9627 33.1472C20.9045 33.1472 20.7125 33.1472 20.6543 33.1472C20.3343 33.1472 20.0201 33.1088 19.7293 32.993C18.7402 32.6166 18.0624 31.5973 18.0333 30.5261C18.0042 27.081 18.0624 23.6414 18.0333 20.1963C18.0333 19.1251 18.2428 18.126 18.65 17.1127C20.4826 12.5385 25.1633 11.9568 28.3632 12.3332C35.3156 13.1728 39.3852 24.2082 30.3675 28.5218C28.5058 29.4193 24.6164 29.7593 24.3546 26.9801C24.2673 26.0826 24.5757 24.8411 26.2047 24.6674C31.7026 24.1752 30.4955 19.9566 30.0591 19.117C28.9828 17.0615 26.7632 17.0925 25.2796 17.7294C24.0288 18.3374 23.4586 19.5775 23.4295 20.9671Z" fill="white"/>
<defs>
<linearGradient id="paint0_linear" x1="40.5737" y1="20.287" x2="-0.000156403" y2="20.287" gradientUnits="userSpaceOnUse">
<stop stop-color="#F39F24"/>
<stop offset="1" stop-color="#E86131"/>
</linearGradient>
</defs>
</svg>
