<svg width="849" height="710" viewBox="0 0 849 710" fill="none" xmlns="http://www.w3.org/2000/svg">
<path d="M772.265 47.2932H505.424C484.272 47.2932 467.125 64.498 467.125 85.7211V660.733C467.125 681.957 484.272 699.161 505.424 699.161H772.265C793.417 699.161 810.564 681.957 810.564 660.733V85.7211C810.564 64.498 793.417 47.2932 772.265 47.2932Z" fill="#B0CDFE"/>
<path d="M663.642 72.7957H614.872C611.791 72.7957 609.293 75.302 609.293 78.3937C609.293 81.4855 611.791 83.9918 614.872 83.9918H663.642C666.723 83.9918 669.221 81.4855 669.221 78.3937C669.221 75.302 666.723 72.7957 663.642 72.7957Z" fill="#262424"/>
<path d="M785.164 85.7213V660.734C785.157 664.16 783.795 667.443 781.377 669.862C778.96 672.281 775.684 673.638 772.269 673.634H505.428C502.018 673.631 498.749 672.271 496.336 669.853C493.924 667.435 492.565 664.155 492.559 660.734V85.7213C492.555 84.0229 492.886 82.3404 493.531 80.7702C494.176 79.1999 495.123 77.7727 496.319 76.57C497.514 75.3673 498.934 74.4127 500.497 73.7608C502.06 73.109 503.736 72.7726 505.428 72.771H583.781C585.096 72.771 586.399 73.031 587.614 73.5362C588.83 74.0413 589.934 74.7817 590.865 75.7151C591.795 76.6485 592.533 77.7566 593.036 78.9761C593.54 80.1956 593.799 81.5027 593.799 82.8227C593.799 84.1427 594.058 85.4498 594.561 86.6694C595.065 87.8889 595.803 88.997 596.733 89.9304C597.663 90.8637 598.768 91.6042 599.983 92.1093C601.198 92.6144 602.501 92.8744 603.817 92.8744H673.868C675.184 92.8744 676.487 92.6144 677.702 92.1093C678.917 91.6042 680.022 90.8637 680.952 89.9304C681.882 88.997 682.62 87.8889 683.124 86.6694C683.627 85.4498 683.886 84.1427 683.886 82.8227C683.886 81.5011 684.146 80.1925 684.651 78.9718C685.155 77.751 685.895 76.6421 686.827 75.7085C687.759 74.7749 688.866 74.0348 690.083 73.5308C691.301 73.0267 692.606 72.7686 693.923 72.771H772.269C773.964 72.7694 775.642 73.1033 777.208 73.7537C778.774 74.4041 780.197 75.3581 781.395 76.5612C782.593 77.7642 783.542 79.1926 784.189 80.7644C784.836 82.3363 785.167 84.0208 785.164 85.7213Z" fill="white"/>
<path d="M772.272 675.195H505.425C501.603 675.192 497.939 673.667 495.237 670.956C492.535 668.244 491.015 664.568 491.012 660.734V85.7213C491.015 81.8868 492.535 78.2103 495.237 75.4989C497.939 72.7875 501.603 71.2628 505.425 71.2595H583.777C586.839 71.2628 589.775 72.4848 591.94 74.6572C594.105 76.8297 595.323 79.7753 595.327 82.8476C595.328 85.1071 596.224 87.2737 597.816 88.8714C599.408 90.4692 601.568 91.3675 603.82 91.3691H673.871C676.123 91.3675 678.282 90.4692 679.875 88.8714C681.467 87.2737 682.362 85.1071 682.364 82.8476C682.367 79.7753 683.585 76.8297 685.75 74.6572C687.916 72.4848 690.851 71.2628 693.913 71.2595H772.259C776.081 71.2628 779.745 72.7875 782.448 75.4989C785.15 78.2103 786.669 81.8868 786.673 85.7213V660.734C786.669 664.566 785.152 668.24 782.452 670.952C779.752 673.663 776.091 675.189 772.272 675.195ZM505.431 74.3322C502.422 74.3355 499.537 75.5365 497.409 77.6717C495.281 79.8068 494.084 82.7017 494.08 85.7213V660.734C494.084 663.753 495.281 666.648 497.409 668.783C499.537 670.918 502.422 672.119 505.431 672.122H772.272C775.281 672.119 778.167 670.918 780.294 668.783C782.422 666.648 783.619 663.753 783.623 660.734V85.7213C783.619 82.7017 782.422 79.8068 780.294 77.6717C778.167 75.5365 775.281 74.3355 772.272 74.3322H693.919C691.667 74.3339 689.508 75.2322 687.916 76.83C686.324 78.4277 685.428 80.5943 685.427 82.8538C685.423 85.9262 684.205 88.8717 682.04 91.0442C679.875 93.2167 676.939 94.4386 673.877 94.4419H603.826C600.764 94.4386 597.828 93.2167 595.663 91.0442C593.498 88.8717 592.28 85.9262 592.277 82.8538C592.275 80.5943 591.38 78.4277 589.787 76.83C588.195 75.2322 586.036 74.3339 583.784 74.3322H505.425H505.431Z" fill="#262424"/>
<path d="M705.041 556.373H572.656C551.21 556.373 533.824 573.817 533.824 595.336C533.824 616.854 551.21 634.298 572.656 634.298H705.041C726.488 634.298 743.874 616.854 743.874 595.336C743.874 573.817 726.488 556.373 705.041 556.373Z" fill="#B0CDFE"/>
<path d="M719.752 173.562H557.952C531.76 173.562 510.527 194.866 510.527 221.146C510.527 247.426 531.76 268.73 557.952 268.73H719.752C745.944 268.73 767.176 247.426 767.176 221.146C767.176 194.866 745.944 173.562 719.752 173.562Z" fill="#B0CDFE"/>
<path d="M728.889 197.434C728.889 191.034 723.72 185.846 717.343 185.846C710.966 185.846 705.797 191.034 705.797 197.434V217.861C705.797 224.261 710.966 229.449 717.343 229.449C723.72 229.449 728.889 224.261 728.889 217.861V197.434Z" fill="white"/>
<path d="M738.58 217.862C738.599 217.425 738.53 216.988 738.376 216.579C738.222 216.169 737.988 215.795 737.686 215.479C737.385 215.163 737.023 214.911 736.622 214.739C736.221 214.568 735.789 214.479 735.353 214.479C734.917 214.479 734.485 214.568 734.084 214.739C733.683 214.911 733.321 215.163 733.02 215.479C732.718 215.795 732.484 216.169 732.33 216.579C732.177 216.988 732.107 217.425 732.126 217.862C732.126 221.794 730.57 225.565 727.799 228.345C725.028 231.125 721.269 232.687 717.35 232.687C713.432 232.687 709.673 231.125 706.902 228.345C704.131 225.565 702.575 221.794 702.575 217.862C702.538 217.028 702.182 216.24 701.581 215.662C700.98 215.085 700.18 214.763 699.348 214.763C698.516 214.763 697.716 215.085 697.115 215.662C696.513 216.24 696.158 217.028 696.121 217.862C696.127 222.945 697.941 227.859 701.237 231.719C704.533 235.579 709.094 238.131 714.099 238.917V248.247H708.594C707.737 248.247 706.916 248.588 706.31 249.196C705.704 249.804 705.364 250.628 705.364 251.487C705.364 251.913 705.448 252.334 705.61 252.728C705.772 253.121 706.01 253.478 706.31 253.779C706.61 254.08 706.966 254.319 707.358 254.481C707.75 254.644 708.17 254.728 708.594 254.728H726.057C726.481 254.728 726.901 254.644 727.293 254.481C727.685 254.319 728.041 254.08 728.341 253.779C728.641 253.478 728.879 253.121 729.041 252.728C729.204 252.334 729.287 251.913 729.287 251.487C729.287 250.628 728.947 249.804 728.341 249.196C727.735 248.588 726.914 248.247 726.057 248.247H720.552V238.917C725.566 238.142 730.139 235.594 733.445 231.733C736.751 227.872 738.572 222.952 738.58 217.862Z" fill="white"/>
<path d="M820.484 312.892H457.208C441.459 312.892 428.691 325.702 428.691 341.504V483.323C428.691 499.125 441.459 511.935 457.208 511.935H820.484C836.234 511.935 849.001 499.125 849.001 483.323V341.504C849.001 325.702 836.234 312.892 820.484 312.892Z" fill="#FEA151"/>
<path d="M646.485 361.534H492.334C483.203 361.534 475.801 368.96 475.801 378.12C475.801 387.28 483.203 394.706 492.334 394.706H646.485C655.616 394.706 663.018 387.28 663.018 378.12C663.018 368.96 655.616 361.534 646.485 361.534Z" fill="white"/>
<path d="M646.485 430.117H492.334C483.203 430.117 475.801 437.542 475.801 446.703C475.801 455.863 483.203 463.289 492.334 463.289H646.485C655.616 463.289 663.018 455.863 663.018 446.703C663.018 437.542 655.616 430.117 646.485 430.117Z" fill="white"/>
<path d="M766.645 356.303C763.943 354.734 760.958 353.714 757.863 353.302C754.767 352.891 751.622 353.095 748.605 353.904C745.588 354.712 742.76 356.11 740.282 358.015C737.803 359.921 735.723 362.298 734.161 365.011L693.37 435.92C682.831 454.214 699.712 476.382 720.12 470.896C723.139 470.093 725.97 468.697 728.448 466.789C730.927 464.881 733.003 462.499 734.558 459.781L775.349 388.871C778.498 383.393 779.352 376.884 777.725 370.774C776.098 364.664 772.123 359.451 766.67 356.278L766.645 356.303Z" fill="white"/>
<path d="M736.928 441.68C736.121 438.651 734.727 435.812 732.825 433.325C730.924 430.837 728.552 428.751 725.846 427.184C723.14 425.617 720.152 424.601 717.054 424.194C713.956 423.787 710.809 423.996 707.792 424.811C687.377 430.297 683.831 457.964 702.057 468.519C720.283 479.075 742.415 462.299 736.916 441.68H736.928Z" fill="white"/>
<path d="M713.946 472.102C709.716 472.089 705.565 470.954 701.913 468.812C696.38 465.607 692.342 460.327 690.688 454.135C689.034 447.942 689.9 441.344 693.095 435.792C696.289 430.24 701.551 426.189 707.723 424.53C713.894 422.871 720.47 423.739 726.003 426.944C728.748 428.525 731.153 430.637 733.079 433.157C735.005 435.676 736.414 438.554 737.224 441.624C738.504 446.23 738.368 451.116 736.834 455.643C735.299 460.17 732.439 464.127 728.626 466.996C724.43 470.28 719.267 472.076 713.946 472.102ZM714.008 424.319C711.942 424.321 709.884 424.595 707.889 425.134C703.415 426.344 699.399 428.856 696.348 432.354C693.297 435.853 691.347 440.18 690.746 444.789C690.144 449.399 690.917 454.084 692.968 458.252C695.019 462.421 698.255 465.886 702.267 468.211C706.28 470.535 710.889 471.614 715.512 471.311C720.136 471.009 724.566 469.338 728.244 466.51C731.921 463.683 734.681 459.825 736.175 455.424C737.668 451.024 737.828 446.277 736.635 441.786C735.305 436.78 732.367 432.353 728.277 429.191C724.186 426.029 719.171 424.308 714.008 424.295V424.319Z" fill="#272525"/>
<path d="M816.635 435.92L775.844 365.011C774.287 362.297 772.209 359.919 769.731 358.016C767.253 356.112 764.423 354.72 761.406 353.92C740.992 348.434 724.136 370.609 734.656 388.896L775.447 459.805C776.999 462.538 779.074 464.936 781.552 466.861C784.03 468.786 786.864 470.201 789.889 471.023C792.914 471.846 796.072 472.061 799.18 471.655C802.288 471.249 805.286 470.23 808 468.657C810.715 467.085 813.092 464.99 814.997 462.492C816.901 459.994 818.295 457.143 819.097 454.103C819.9 451.063 820.096 447.893 819.673 444.777C819.25 441.661 818.218 438.659 816.635 435.945V435.92Z" fill="#B0CDFE"/>
<path d="M736.928 441.68C736.121 438.651 734.727 435.812 732.825 433.325C730.924 430.837 728.552 428.751 725.846 427.184C723.14 425.617 720.152 424.601 717.054 424.194C713.956 423.787 710.809 423.996 707.792 424.811C687.377 430.297 683.831 457.964 702.057 468.519C720.283 479.075 742.415 462.299 736.916 441.68H736.928Z" fill="#B0CDFE"/>
<path d="M419.476 76.5967C420.361 77.709 420.952 79.0276 421.194 80.4304C421.437 81.8331 421.322 83.2745 420.86 84.6207C420.399 85.967 419.606 87.1746 418.556 88.1315C417.505 89.0883 416.231 89.7635 414.851 90.0943C414.692 90.1294 414.544 90.2047 414.421 90.3131C414.299 90.4214 414.206 90.5593 414.151 90.7136C414.097 90.868 414.082 91.0338 414.109 91.1953C414.136 91.3568 414.204 91.5088 414.305 91.6369L423.499 103.163C423.735 103.458 423.91 103.797 424.015 104.16C424.121 104.524 424.153 104.904 424.112 105.28C424.071 105.656 423.956 106.02 423.774 106.352C423.592 106.683 423.347 106.976 423.053 107.212L411.41 116.542C411.281 116.646 411.127 116.714 410.964 116.741C410.8 116.767 410.633 116.751 410.478 116.693C410.322 116.636 410.184 116.539 410.077 116.412C409.97 116.285 409.898 116.133 409.867 115.97C409.596 114.539 408.96 113.202 408.022 112.09C407.084 110.978 405.876 110.128 404.514 109.623C403.152 109.118 401.683 108.976 400.249 109.209C398.816 109.442 397.467 110.043 396.334 110.954C395.2 111.864 394.321 113.054 393.781 114.406C393.241 115.759 393.059 117.228 393.253 118.672C393.446 120.116 394.008 121.485 394.885 122.646C395.762 123.808 396.923 124.722 398.256 125.3C398.407 125.367 398.539 125.471 398.639 125.604C398.738 125.736 398.802 125.892 398.824 126.057C398.846 126.221 398.825 126.389 398.763 126.543C398.702 126.697 398.602 126.832 398.473 126.936L387.252 135.943C386.958 136.179 386.62 136.355 386.258 136.461C385.896 136.567 385.516 136.599 385.142 136.558C384.767 136.516 384.404 136.401 384.074 136.219C383.743 136.036 383.452 135.79 383.216 135.495L373.837 123.776C373.733 123.645 373.666 123.489 373.64 123.324C373.615 123.159 373.633 122.99 373.692 122.834C373.751 122.678 373.85 122.539 373.979 122.433C374.108 122.327 374.262 122.256 374.426 122.227C375.875 121.987 377.236 121.371 378.374 120.439C379.512 119.508 380.388 118.294 380.913 116.918C381.439 115.542 381.597 114.051 381.371 112.595C381.146 111.139 380.544 109.768 379.627 108.617C378.709 107.466 377.507 106.576 376.141 106.036C374.775 105.495 373.291 105.322 371.838 105.535C370.385 105.748 369.012 106.338 367.856 107.248C366.701 108.157 365.803 109.355 365.251 110.72C365.187 110.875 365.084 111.01 364.953 111.113C364.821 111.216 364.665 111.282 364.5 111.306C364.335 111.33 364.166 111.31 364.011 111.249C363.856 111.188 363.719 111.087 363.614 110.957L354.576 99.6173C354.34 99.3221 354.164 98.9831 354.059 98.6198C353.954 98.2565 353.921 97.8759 353.963 97.4999C354.004 97.1238 354.119 96.7597 354.301 96.4282C354.483 96.0967 354.728 95.8044 355.022 95.568L366.082 86.6421C366.21 86.5395 366.31 86.4056 366.372 86.2532C366.434 86.1009 366.456 85.9351 366.436 85.7717C366.416 85.6084 366.355 85.4528 366.258 85.3199C366.161 85.187 366.032 85.0812 365.883 85.0125C364.607 84.3878 363.509 83.4495 362.692 82.2848C361.874 81.1201 361.363 79.7668 361.207 78.3509C361.051 76.935 361.254 75.5023 361.798 74.1863C362.341 72.8703 363.208 71.7137 364.317 70.8239C365.426 69.9342 366.741 69.3403 368.14 69.0975C369.539 68.8547 370.976 68.9709 372.319 69.4353C373.661 69.8996 374.864 70.6971 375.817 71.7534C376.77 72.8098 377.44 74.0907 377.767 75.4771C377.802 75.637 377.877 75.7854 377.985 75.9083C378.093 76.0311 378.23 76.1243 378.384 76.1791C378.538 76.2338 378.703 76.2484 378.864 76.2213C379.025 76.1943 379.177 76.1265 379.305 76.0244L390.798 66.8C391.092 66.5634 391.43 66.3873 391.792 66.2818C392.154 66.1763 392.533 66.1433 392.908 66.1849C393.283 66.2265 393.646 66.3418 393.976 66.5242C394.307 66.7066 394.598 66.9525 394.834 67.2478L403.717 78.3694C403.819 78.4968 403.952 78.5961 404.103 78.6579C404.254 78.7197 404.418 78.742 404.579 78.7227C404.741 78.7035 404.895 78.6432 405.028 78.5477C405.16 78.4521 405.266 78.3244 405.335 78.1766C405.958 76.8971 406.893 75.7962 408.054 74.9762C409.214 74.1562 410.562 73.6436 411.973 73.486C413.383 73.3284 414.81 73.5309 416.122 74.0747C417.434 74.6185 418.587 75.486 419.476 76.5967Z" fill="#B0CDFE"/>
<path d="M364.986 606.065C364.216 607.651 363.874 609.412 363.992 611.173C364.111 612.933 364.686 614.632 365.661 616.1C366.636 617.569 367.977 618.756 369.551 619.543C371.125 620.33 372.877 620.691 374.632 620.589C374.832 620.577 375.032 620.618 375.211 620.708C375.39 620.798 375.543 620.933 375.654 621.1C375.765 621.268 375.831 621.461 375.844 621.662C375.857 621.862 375.818 622.063 375.729 622.243L367.863 638.416C367.665 638.823 367.389 639.188 367.051 639.489C366.712 639.789 366.319 640.02 365.891 640.168C365.464 640.316 365.012 640.378 364.561 640.35C364.11 640.323 363.669 640.207 363.263 640.008L347.802 632.451C347.623 632.364 347.47 632.233 347.357 632.07C347.244 631.907 347.175 631.717 347.157 631.519C347.139 631.321 347.172 631.122 347.254 630.941C347.335 630.759 347.462 630.602 347.622 630.485C349.029 629.454 350.147 628.076 350.867 626.484C351.587 624.892 351.884 623.14 351.73 621.399C351.576 619.658 350.976 617.986 349.988 616.546C349 615.106 347.658 613.947 346.091 613.181C344.525 612.415 342.788 612.069 341.049 612.175C339.31 612.282 337.628 612.838 336.166 613.79C334.704 614.741 333.512 616.055 332.706 617.605C331.9 619.155 331.508 620.888 331.566 622.635C331.573 622.834 331.529 623.031 331.438 623.207C331.346 623.384 331.211 623.533 331.045 623.642C330.879 623.75 330.688 623.814 330.49 623.826C330.292 623.838 330.095 623.798 329.917 623.711L314.456 616.154C314.049 615.956 313.685 615.68 313.385 615.34C313.085 615.001 312.855 614.606 312.707 614.177C312.56 613.748 312.498 613.294 312.526 612.842C312.554 612.389 312.67 611.946 312.869 611.539L320.736 595.366C320.823 595.186 320.956 595.032 321.121 594.919C321.286 594.806 321.478 594.738 321.677 594.723C321.876 594.707 322.076 594.744 322.257 594.829C322.438 594.915 322.593 595.046 322.707 595.211C323.709 596.662 325.072 597.825 326.66 598.584C328.248 599.343 330.007 599.671 331.761 599.537C333.515 599.403 335.204 598.81 336.659 597.818C338.114 596.826 339.285 595.469 340.056 593.882C340.826 592.296 341.169 590.534 341.051 588.773C340.933 587.012 340.358 585.312 339.382 583.844C338.406 582.375 337.065 581.188 335.49 580.4C333.915 579.613 332.163 579.253 330.407 579.356C330.207 579.366 330.008 579.324 329.83 579.234C329.652 579.144 329.5 579.009 329.389 578.842C329.279 578.674 329.214 578.481 329.202 578.281C329.189 578.081 329.228 577.881 329.316 577.701L336.897 562.076C337.095 561.669 337.371 561.304 337.709 561.003C338.047 560.703 338.441 560.472 338.869 560.324C339.296 560.176 339.748 560.114 340.199 560.142C340.65 560.169 341.091 560.285 341.497 560.484L356.76 567.948C356.936 568.033 357.131 568.073 357.326 568.062C357.521 568.051 357.71 567.99 357.876 567.886C358.042 567.781 358.178 567.636 358.272 567.464C358.366 567.292 358.416 567.099 358.415 566.903C358.434 565.193 358.884 563.515 359.723 562.025C360.562 560.536 361.763 559.284 363.213 558.385C364.664 557.487 366.317 556.97 368.02 556.885C369.723 556.8 371.419 557.147 372.952 557.896C374.485 558.645 375.804 559.771 376.787 561.169C377.77 562.567 378.385 564.191 378.574 565.891C378.763 567.591 378.521 569.311 377.87 570.892C377.218 572.473 376.179 573.863 374.849 574.933C374.694 575.053 374.573 575.211 374.496 575.392C374.419 575.572 374.389 575.77 374.408 575.965C374.428 576.16 374.497 576.347 374.609 576.509C374.721 576.67 374.872 576.8 375.048 576.886L390.31 584.35C390.716 584.549 391.08 584.826 391.379 585.165C391.679 585.504 391.909 585.9 392.056 586.328C392.204 586.757 392.266 587.21 392.238 587.663C392.211 588.115 392.095 588.558 391.897 588.966L384.303 604.591C384.216 604.771 384.083 604.925 383.918 605.038C383.753 605.151 383.561 605.219 383.362 605.234C383.163 605.25 382.963 605.213 382.782 605.128C382.601 605.042 382.446 604.911 382.332 604.746C381.331 603.295 379.969 602.133 378.381 601.373C376.794 600.614 375.036 600.285 373.282 600.418C371.529 600.551 369.84 601.143 368.385 602.133C366.93 603.124 365.758 604.479 364.986 606.065Z" fill="#FEA151"/>
<path d="M238.355 548.144L223.898 584.923L237.407 593.184L259.247 556.162L238.355 548.144Z" fill="white"/>
<path d="M237.415 594.433C237.196 594.429 236.982 594.367 236.795 594.253L223.287 585.992C223.034 585.841 222.843 585.603 222.749 585.323C222.654 585.042 222.663 584.737 222.772 584.462L237.229 547.683C237.288 547.53 237.377 547.39 237.49 547.271C237.603 547.153 237.738 547.058 237.888 546.992C238.038 546.926 238.199 546.89 238.363 546.887C238.526 546.884 238.689 546.914 238.841 546.974L259.733 554.985C259.903 555.05 260.057 555.152 260.184 555.283C260.31 555.414 260.407 555.572 260.466 555.744C260.525 555.917 260.546 556.101 260.526 556.283C260.506 556.464 260.447 556.639 260.352 556.795L238.506 593.817C238.395 594.008 238.236 594.165 238.044 594.274C237.852 594.382 237.635 594.437 237.415 594.433ZM225.457 584.4L236.987 591.448L257.445 556.795L239.089 549.754L225.457 584.4Z" fill="#262424"/>
<path d="M192.934 580.407L235.876 684.731C239.106 683.471 242.238 681.974 245.249 680.252C252.285 675.954 252.763 671.513 252.57 659.782C252.31 644.175 256.216 583.815 256.216 583.815L223.074 568.178L202.542 576.513L192.934 580.407Z" fill="#B0CDFE"/>
<path d="M192.934 580.407L235.876 684.731C239.106 683.471 242.238 681.974 245.249 680.253L202.542 576.513L192.934 580.407Z" fill="white"/>
<path d="M235.867 685.981C235.62 685.982 235.378 685.908 235.172 685.77C234.967 685.631 234.807 685.434 234.714 685.204L191.766 580.886C191.701 580.733 191.668 580.569 191.668 580.403C191.668 580.237 191.701 580.073 191.765 579.92C191.829 579.767 191.923 579.628 192.041 579.512C192.16 579.396 192.3 579.305 192.454 579.244L202.063 575.344C202.214 575.281 202.376 575.249 202.54 575.25C202.704 575.25 202.866 575.283 203.017 575.346C203.168 575.41 203.305 575.503 203.42 575.62C203.535 575.737 203.626 575.876 203.687 576.028L246.394 679.767C246.509 680.044 246.521 680.353 246.428 680.637C246.334 680.922 246.142 681.163 245.885 681.316C242.824 683.077 239.635 684.603 236.345 685.882C236.194 685.946 236.031 685.98 235.867 685.981ZM194.562 581.098L236.549 683.108C238.984 682.118 241.362 680.992 243.672 679.736L201.858 578.156L194.562 581.098Z" fill="#262424"/>
<path d="M151.96 297.834C149.946 329.681 151.148 363.145 157.18 373.097C163.212 383.049 261.619 463.73 261.619 463.73L237.504 545.382L269.697 562.705C269.697 562.705 296.471 510.667 309.608 484.281C315.962 471.505 320.81 461.335 321.2 459.264C321.702 456.596 317.016 447.527 309.521 435.186C284.823 394.463 229.631 318.061 229.631 318.061C227.288 234.874 153.981 265.987 151.96 297.834Z" fill="#B0CDFE"/>
<path d="M172.421 336.66C172.127 336.673 171.839 336.581 171.606 336.401C171.374 336.221 171.213 335.964 171.152 335.676C171.091 335.387 171.134 335.087 171.273 334.827C171.412 334.568 171.639 334.366 171.912 334.259L177.864 331.603C180.003 330.648 181.847 329.132 183.2 327.214C184.552 325.296 185.365 323.047 185.551 320.705L187.262 299.109C187.288 298.779 187.444 298.473 187.695 298.258C187.946 298.044 188.272 297.938 188.601 297.964C188.93 297.991 189.234 298.147 189.448 298.399C189.662 298.651 189.768 298.978 189.741 299.308L188.03 320.904C187.812 323.695 186.846 326.375 185.235 328.661C183.625 330.947 181.429 332.754 178.88 333.892L172.929 336.548C172.769 336.621 172.596 336.659 172.421 336.66Z" fill="#262424"/>
<path d="M250.053 543.634C249.853 543.636 249.654 543.589 249.475 543.498C249.296 543.406 249.142 543.272 249.027 543.107C248.911 542.943 248.836 542.752 248.81 542.553C248.784 542.353 248.806 542.15 248.876 541.96L278.496 458.611L177.944 351.171C175.645 348.739 173.87 345.858 172.73 342.707C171.59 339.557 171.109 336.204 171.317 332.859L173.48 298.723C173.502 298.393 173.653 298.085 173.9 297.867C174.023 297.759 174.165 297.676 174.32 297.623C174.474 297.571 174.638 297.549 174.801 297.56C174.963 297.57 175.123 297.613 175.269 297.685C175.415 297.758 175.546 297.858 175.654 297.981C175.761 298.104 175.844 298.247 175.896 298.402C175.949 298.557 175.97 298.721 175.96 298.885L173.796 333.021C173.611 336.022 174.043 339.03 175.067 341.856C176.091 344.682 177.684 347.267 179.748 349.448L280.845 457.423C281.004 457.591 281.113 457.799 281.16 458.026C281.207 458.252 281.19 458.487 281.112 458.704L251.231 542.794C251.147 543.04 250.988 543.253 250.777 543.404C250.566 543.554 250.313 543.635 250.053 543.634Z" fill="#262424"/>
<path d="M263.868 464.495C263.559 464.514 263.254 464.415 263.013 464.22C262.773 464.024 262.614 463.745 262.568 463.438C262.523 463.13 262.593 462.817 262.766 462.559C262.938 462.302 263.201 462.118 263.502 462.045L289.018 454.17C289.335 454.072 289.677 454.104 289.97 454.259C290.263 454.414 290.482 454.68 290.58 454.997C290.678 455.315 290.646 455.658 290.492 455.952C290.337 456.246 290.072 456.467 289.756 456.565L264.24 464.439C264.119 464.477 263.994 464.496 263.868 464.495Z" fill="#262424"/>
<path d="M294.002 458.163C293.227 470.38 299.935 481.066 309.612 484.288C315.966 471.512 320.814 461.342 321.205 459.27C321.707 456.602 317.02 447.533 309.525 435.192C301.088 438.39 294.69 447.309 294.002 458.163Z" fill="#80AFFD"/>
<path d="M285.608 543.696L242.53 522.74C242.216 522.585 241.872 522.498 241.522 522.485C241.172 522.472 240.824 522.534 240.499 522.666C240.175 522.798 239.882 522.998 239.64 523.252C239.398 523.506 239.212 523.809 239.095 524.14L229.586 550.383C229.374 550.97 229.39 551.616 229.631 552.193C229.872 552.769 230.321 553.233 230.887 553.493L269.943 571.531C270.505 571.795 271.146 571.837 271.739 571.649C272.331 571.461 272.832 571.057 273.141 570.517L286.668 547.204C286.843 546.907 286.954 546.577 286.995 546.235C287.036 545.893 287.006 545.546 286.906 545.216C286.807 544.886 286.64 544.581 286.416 544.319C286.193 544.058 285.918 543.845 285.608 543.696Z" fill="#FEA151"/>
<path d="M66.9944 550.252L37.1016 576.009L45.204 589.638L81.7425 567.127L66.9944 550.252Z" fill="white"/>
<path d="M45.2009 590.906C44.9835 590.906 44.77 590.849 44.5817 590.739C44.3935 590.63 44.2372 590.473 44.1285 590.284L36.026 576.656C35.8737 576.403 35.8163 576.104 35.864 575.812C35.9117 575.52 36.0615 575.255 36.2864 575.064L66.1792 549.312C66.3023 549.205 66.4455 549.122 66.6004 549.07C66.7554 549.018 66.9191 548.997 67.0822 549.008C67.2452 549.02 67.4044 549.064 67.5505 549.137C67.6966 549.211 67.8268 549.313 67.9336 549.437L82.6816 566.312C82.798 566.448 82.8837 566.608 82.9328 566.78C82.982 566.953 82.9934 567.134 82.9663 567.311C82.9392 567.488 82.8742 567.657 82.7759 567.807C82.6775 567.957 82.5481 568.083 82.3964 568.178L45.8519 590.689C45.6596 590.821 45.434 590.897 45.2009 590.906ZM38.7103 576.289L45.6287 587.921L79.83 566.853L66.8735 552.031L38.7103 576.289Z" fill="#262424"/>
<path d="M11.8005 557.505L1.26172 669.877C4.70381 670.273 8.17029 670.415 11.6331 670.3C19.8533 669.796 22.3454 666.089 27.6271 655.627C34.6571 641.7 66.1927 590.148 66.1927 590.148L44.1606 560.801L22.116 558.562L11.8005 557.505Z" fill="#B0CDFE"/>
<path d="M11.8005 557.505L1.26172 669.877C4.70381 670.273 8.17029 670.415 11.6331 670.3L22.116 558.562L11.8005 557.505Z" fill="white"/>
<path d="M9.47913 671.619C7.30319 671.619 4.66851 671.463 1.13493 671.128C0.970719 671.114 0.810932 671.067 0.664916 670.99C0.518899 670.913 0.38958 670.808 0.284528 670.681C0.179476 670.554 0.100796 670.406 0.0530869 670.248C0.00537764 670.09 -0.0104018 669.924 0.00667006 669.759L10.5454 557.386C10.5593 557.221 10.606 557.06 10.6829 556.913C10.7597 556.766 10.865 556.636 10.9927 556.531C11.1203 556.425 11.2678 556.347 11.4262 556.299C11.5847 556.252 11.751 556.236 11.9154 556.254L22.231 557.306C22.3941 557.321 22.5526 557.369 22.6972 557.446C22.8418 557.524 22.9696 557.629 23.0734 557.756C23.1772 557.884 23.2548 558.03 23.3017 558.188C23.3486 558.345 23.364 558.511 23.3469 558.674L12.8515 670.418C12.825 670.717 12.6919 670.996 12.4766 671.204C12.2613 671.412 11.9784 671.535 11.6799 671.551C11.0104 671.594 10.254 671.619 9.47913 671.619ZM2.61656 668.745C5.23026 669.01 7.8566 669.128 10.4834 669.1L20.7556 559.682L12.9321 558.886L2.61656 668.745Z" fill="#262424"/>
<path d="M107.035 288.416C90.44 315.635 75.9276 345.809 76.6591 357.416C77.3906 369.023 126.873 486.496 126.873 486.496L67.5586 547.416L87.9727 577.813C87.9727 577.813 135.85 544.343 159.754 527.138C171.316 518.815 180.335 512.092 181.644 510.437C183.33 508.31 183.404 498.096 182.518 483.69C179.616 436.107 166.35 342.693 166.35 342.693C202.938 268.014 123.631 261.197 107.035 288.416Z" fill="#B0CDFE"/>
<path d="M171.685 383.858C171.381 383.86 171.086 383.75 170.857 383.548C170.629 383.346 170.482 383.066 170.445 382.763C167.501 359.979 165.095 343.023 165.071 342.855C165.036 342.606 165.077 342.352 165.188 342.127C168.162 336.189 170.566 329.98 172.367 323.585C172.41 323.426 172.484 323.277 172.585 323.147C172.685 323.017 172.81 322.908 172.953 322.826C173.095 322.744 173.252 322.691 173.415 322.671C173.578 322.65 173.743 322.661 173.902 322.705C174.06 322.748 174.208 322.822 174.338 322.923C174.468 323.024 174.576 323.149 174.658 323.292C174.739 323.435 174.792 323.593 174.813 323.756C174.833 323.919 174.822 324.085 174.779 324.244C172.973 330.676 170.57 336.923 167.6 342.905C167.972 345.548 170.222 361.565 172.925 382.464C172.948 382.628 172.938 382.794 172.895 382.954C172.853 383.114 172.78 383.263 172.679 383.394C172.579 383.525 172.454 383.634 172.311 383.716C172.168 383.798 172.01 383.85 171.846 383.87L171.685 383.858Z" fill="#262424"/>
<path d="M115.101 332.946C114.753 332.946 114.404 332.933 114.053 332.908L107.581 332.473C107.252 332.451 106.945 332.298 106.729 332.049C106.512 331.8 106.403 331.475 106.425 331.145C106.447 330.815 106.599 330.508 106.847 330.29C107.095 330.072 107.419 329.963 107.748 329.985L114.251 330.427C116.588 330.584 118.923 330.105 121.011 329.042C123.099 327.98 124.863 326.371 126.117 324.387L137.678 306.087C137.856 305.806 138.138 305.607 138.461 305.534C138.785 305.461 139.124 305.52 139.405 305.699C139.685 305.877 139.883 306.159 139.956 306.484C140.029 306.809 139.97 307.15 139.792 307.431L128.231 325.73C126.827 327.948 124.887 329.773 122.591 331.034C120.295 332.296 117.718 332.954 115.101 332.946Z" fill="#262424"/>
<path d="M80.0326 551.881C79.7788 551.886 79.5297 551.812 79.3188 551.67C79.108 551.528 78.9457 551.325 78.8537 551.088C78.7618 550.85 78.7447 550.59 78.8047 550.343C78.8648 550.095 78.9991 549.872 79.1895 549.704L144.158 489.842L105.195 347.762C104.297 344.537 104.069 341.16 104.526 337.843C104.984 334.526 106.117 331.338 107.855 328.479L125.647 299.301C125.732 299.16 125.844 299.038 125.977 298.941C126.11 298.844 126.26 298.774 126.419 298.736C126.579 298.697 126.744 298.69 126.906 298.716C127.068 298.741 127.224 298.798 127.364 298.884C127.504 298.97 127.626 299.082 127.722 299.215C127.819 299.348 127.889 299.499 127.927 299.659C127.966 299.819 127.973 299.985 127.947 300.148C127.922 300.311 127.865 300.467 127.779 300.607L109.987 329.786C108.426 332.348 107.406 335.206 106.993 338.181C106.579 341.155 106.78 344.184 107.582 347.077L146.749 489.91C146.809 490.13 146.807 490.363 146.743 490.583C146.68 490.802 146.558 491 146.389 491.154L80.851 551.526C80.6314 551.742 80.3398 551.869 80.0326 551.881Z" fill="#262424"/>
<path d="M155.326 493.35C155.247 493.358 155.168 493.358 155.09 493.35L128.861 488.374C128.698 488.343 128.543 488.281 128.404 488.19C128.266 488.099 128.146 487.982 128.052 487.845C127.959 487.708 127.893 487.553 127.859 487.391C127.825 487.228 127.823 487.06 127.854 486.897C127.884 486.733 127.946 486.578 128.037 486.438C128.127 486.299 128.244 486.179 128.381 486.085C128.518 485.991 128.672 485.926 128.834 485.891C128.996 485.857 129.163 485.855 129.326 485.886L155.555 490.862C155.884 490.893 156.187 491.053 156.398 491.308C156.609 491.563 156.711 491.891 156.68 492.221C156.65 492.551 156.49 492.855 156.236 493.067C155.982 493.279 155.654 493.381 155.326 493.35Z" fill="#262424"/>
<path d="M158.062 496.734C151.696 507.172 152.65 519.749 159.717 527.138C171.279 518.816 180.299 512.092 181.607 510.437C183.293 508.31 183.367 498.097 182.481 483.691C173.523 482.565 163.722 487.454 158.062 496.734Z" fill="#80AFFD"/>
<path d="M110.853 568.446L82.5042 529.738C82.299 529.454 82.0363 529.217 81.7334 529.042C81.4304 528.868 81.0941 528.759 80.7464 528.724C80.3987 528.689 80.0475 528.727 79.7158 528.838C79.3842 528.948 79.0795 529.128 78.8219 529.365L58.2032 548.125C57.7362 548.545 57.4453 549.127 57.3889 549.754C57.3326 550.38 57.515 551.005 57.8994 551.502L84.0602 585.713C84.4323 586.212 84.9777 586.554 85.5884 586.669C86.1992 586.784 86.8308 586.665 87.3582 586.335L110.165 572.029C110.455 571.848 110.704 571.608 110.898 571.326C111.091 571.044 111.224 570.724 111.289 570.388C111.353 570.052 111.348 569.705 111.273 569.371C111.198 569.037 111.055 568.722 110.853 568.446Z" fill="#FEA151"/>
<path d="M297.9 149.278C306.634 155.844 313.537 164.556 317.942 174.575C324.966 190.953 342.739 258.547 342.739 258.547L288.278 269.326C288.278 269.326 274.962 211.921 269.383 182.245C263.804 152.568 281.565 139.948 297.9 149.278Z" fill="#FEA151"/>
<path d="M292.106 257.826C291.731 257.821 291.37 257.678 291.093 257.424C290.816 257.171 290.641 256.824 290.602 256.449C290.563 256.075 290.663 255.699 290.882 255.393C291.101 255.087 291.424 254.873 291.79 254.79L335.185 245.46C335.572 245.402 335.967 245.495 336.288 245.719C336.609 245.944 336.832 246.283 336.911 246.668C336.991 247.053 336.92 247.453 336.714 247.787C336.509 248.121 336.183 248.364 335.805 248.464L292.41 257.795C292.31 257.815 292.208 257.825 292.106 257.826Z" fill="#262424"/>
<path d="M252.32 127.222C214.97 123.328 179.789 137.485 179.789 137.485C179.789 137.485 143.536 229.232 133.617 246.026C123.698 262.821 85.8828 307.605 85.8828 307.605C85.8828 307.605 119.359 358.61 187.861 363.587C256.362 368.563 271.551 349.28 271.551 349.28L283.639 254.399C283.639 254.399 297.587 238.848 301.307 230.451C305.027 222.054 307.816 171.671 297.897 149.279C297.897 149.279 271.241 129.194 252.32 127.222Z" fill="#FEA151"/>
<path d="M287.68 251.288C287.388 251.288 287.102 251.205 286.856 251.047C286.611 250.89 286.415 250.666 286.292 250.4C286.168 250.135 286.123 249.84 286.162 249.55C286.2 249.26 286.32 248.987 286.508 248.763C290.475 244.036 297.499 235.296 299.898 229.879C302.886 223.136 305.695 184.366 299.551 159.268C299.477 158.881 299.554 158.481 299.766 158.15C299.978 157.819 300.308 157.582 300.689 157.487C301.07 157.393 301.472 157.449 301.813 157.644C302.154 157.839 302.407 158.157 302.521 158.534C308.466 182.792 306.24 223.13 302.694 231.123C300.27 236.596 293.829 244.807 288.851 250.741C288.708 250.913 288.528 251.051 288.326 251.145C288.124 251.24 287.903 251.289 287.68 251.288Z" fill="#262424"/>
<path d="M251.346 122.258C228.261 124.982 218.306 157.112 246.537 171.696C246.537 171.696 253.414 157.562 257.695 158.146C261.975 158.731 262.36 172.976 262.36 172.976C262.36 172.976 279.529 167.385 282.134 148.694C284.739 130.004 268.259 120.26 251.346 122.258Z" fill="#B0CDFE"/>
<path d="M272.634 146.533C272.634 146.533 269.459 152.053 260.823 151.722C257.008 150.094 253.568 147.733 250.708 144.78C247.849 141.827 245.629 138.341 244.18 134.532L262.527 98.6375L268.934 103.061L284.535 113.809L274.67 141.013L272.634 146.533Z" fill="white"/>
<path d="M260.663 153.86H259.795C259.594 153.85 259.395 153.807 259.206 153.733C255.291 152 251.761 149.468 248.831 146.291C245.902 143.115 243.634 139.361 242.165 135.258C242.077 135.009 242.039 134.744 242.054 134.48C242.068 134.215 242.135 133.956 242.25 133.719L259.842 97.594C259.965 97.3422 260.14 97.1205 260.355 96.9443C260.57 96.768 260.819 96.6413 261.086 96.5727C261.353 96.5042 261.631 96.4954 261.902 96.5471C262.172 96.5987 262.429 96.7095 262.653 96.8719L283.723 112.125C284.062 112.372 284.314 112.725 284.44 113.132C284.566 113.539 284.559 113.976 284.42 114.379L273.002 147.321C272.967 147.425 272.923 147.526 272.87 147.623C272.723 147.877 269.369 153.86 260.663 153.86ZM260.283 149.94C266.41 150.115 269.005 146.527 269.47 145.813L280.314 114.466L262.227 101.411L246.007 134.743C248.708 141.483 253.812 146.917 260.283 149.94Z" fill="#262424"/>
<path d="M269.078 138.082C253.982 129.685 261.347 108.935 261.347 108.935C262.447 108.598 263.567 108.332 264.701 108.139L276.672 116.617L269.078 138.082Z" fill="#262424"/>
<path d="M208.912 352.645C204.573 352.645 200.029 352.496 195.187 352.16C163.763 349.995 139.555 336.772 124.782 326.036C108.77 314.429 100.308 303.488 99.9544 303.021C99.74 302.697 99.6563 302.303 99.7201 301.919C99.784 301.535 99.9906 301.19 100.298 300.953C100.606 300.716 100.992 300.605 101.378 300.643C101.764 300.68 102.122 300.863 102.378 301.155C102.465 301.267 110.983 312.264 126.661 323.61C141.099 334.06 164.737 346.954 195.398 349.069C245.054 352.49 265.722 336.1 265.927 335.932C266.242 335.676 266.645 335.556 267.048 335.598C267.451 335.64 267.821 335.841 268.077 336.156C268.333 336.471 268.454 336.875 268.414 337.28C268.373 337.684 268.174 338.056 267.861 338.314C267.074 338.992 249.846 352.645 208.912 352.645Z" fill="#262424"/>
<path d="M402.761 306.026C402.763 310.429 401.655 314.761 399.541 318.62C397.427 322.479 394.375 325.739 390.669 328.097C386.963 330.455 382.723 331.835 378.343 332.109C373.962 332.382 369.584 331.541 365.615 329.662C365.162 329.44 364.661 329.337 364.157 329.363C363.654 329.388 363.165 329.541 362.736 329.808C362.308 330.074 361.954 330.446 361.707 330.887C361.46 331.328 361.329 331.825 361.326 332.33V377.974C361.326 380.336 360.391 382.601 358.728 384.272C357.065 385.943 354.808 386.884 352.454 386.887H306.351C305.841 386.887 305.34 386.754 304.896 386.503C304.452 386.252 304.08 385.889 303.816 385.452C303.553 385.014 303.406 384.515 303.391 384.004C303.375 383.493 303.492 382.986 303.728 382.533C305.836 378.552 306.882 374.092 306.763 369.586C306.644 365.079 305.366 360.681 303.051 356.817C300.737 352.953 297.465 349.756 293.555 347.537C289.644 345.318 285.228 344.151 280.735 344.151C276.243 344.151 271.826 345.318 267.916 347.537C264.005 349.756 260.734 352.953 258.419 356.817C256.105 360.681 254.826 365.079 254.707 369.586C254.589 374.092 255.634 378.552 257.742 382.533C257.979 382.986 258.095 383.493 258.08 384.004C258.064 384.515 257.918 385.014 257.654 385.452C257.39 385.889 257.019 386.252 256.575 386.503C256.131 386.754 255.63 386.887 255.12 386.887H210.684C208.334 386.884 206.081 385.947 204.419 384.281C202.756 382.615 201.819 380.356 201.813 377.999V331.441C201.811 330.922 201.944 330.411 202.2 329.96C202.456 329.509 202.826 329.133 203.271 328.869C203.717 328.606 204.224 328.464 204.741 328.458C205.258 328.452 205.768 328.582 206.22 328.835C210.183 331.064 214.657 332.214 219.199 332.171C223.742 332.128 228.194 330.893 232.114 328.589C236.033 326.285 239.284 322.993 241.543 319.038C243.802 315.084 244.99 310.605 244.99 306.047C244.99 301.489 243.802 297.011 241.543 293.057C239.284 289.102 236.033 285.81 232.114 283.506C228.194 281.202 223.742 279.967 219.199 279.924C214.657 279.881 210.183 281.031 206.22 283.26C205.768 283.513 205.258 283.643 204.741 283.637C204.224 283.631 203.717 283.489 203.271 283.225C202.826 282.962 202.456 282.586 202.2 282.135C201.944 281.683 201.811 281.173 201.813 280.654V235.738C201.813 233.374 202.748 231.107 204.414 229.436C206.08 227.764 208.34 226.825 210.696 226.825H254.556C255.061 226.823 255.557 226.693 255.997 226.446C256.438 226.198 256.809 225.843 257.075 225.412C257.341 224.982 257.493 224.491 257.518 223.985C257.542 223.479 257.438 222.975 257.215 222.521C255.335 218.539 254.489 214.144 254.756 209.746C255.023 205.348 256.394 201.089 258.742 197.366C261.09 193.642 264.339 190.575 268.186 188.45C272.033 186.324 276.353 185.21 280.745 185.21C285.136 185.21 289.456 186.324 293.303 188.45C297.15 190.575 300.399 193.642 302.747 197.366C305.095 201.089 306.466 205.348 306.733 209.746C307 214.144 306.154 218.539 304.274 222.521C304.053 222.975 303.952 223.478 303.978 223.983C304.004 224.487 304.158 224.977 304.424 225.406C304.691 225.835 305.061 226.189 305.501 226.435C305.941 226.681 306.436 226.811 306.939 226.812H352.454C353.621 226.814 354.776 227.046 355.853 227.496C356.93 227.945 357.909 228.603 358.732 229.432C359.556 230.261 360.209 231.244 360.654 232.326C361.099 233.408 361.327 234.568 361.326 235.738V279.721C361.329 280.227 361.46 280.723 361.707 281.165C361.954 281.606 362.308 281.977 362.736 282.243C363.165 282.51 363.654 282.663 364.157 282.689C364.661 282.714 365.162 282.611 365.615 282.389C369.584 280.51 373.962 279.669 378.343 279.942C382.723 280.216 386.963 281.596 390.669 283.954C394.375 286.313 397.427 289.573 399.541 293.431C401.655 297.29 402.763 301.622 402.761 306.026Z" fill="white"/>
<path d="M352.455 388.448H306.351C305.575 388.448 304.812 388.247 304.137 387.863C303.461 387.48 302.896 386.927 302.497 386.259C302.097 385.592 301.877 384.832 301.857 384.053C301.837 383.275 302.019 382.504 302.384 381.817C304.367 378.07 305.351 373.872 305.239 369.631C305.127 365.39 303.924 361.25 301.745 357.614C299.567 353.978 296.488 350.969 292.807 348.88C289.127 346.792 284.97 345.694 280.742 345.694C276.514 345.694 272.357 346.792 268.677 348.88C264.997 350.969 261.917 353.978 259.739 357.614C257.561 361.25 256.357 365.39 256.245 369.631C256.133 373.872 257.117 378.07 259.1 381.817C259.466 382.505 259.647 383.276 259.627 384.055C259.607 384.834 259.386 385.594 258.986 386.262C258.586 386.93 258.02 387.482 257.343 387.865C256.667 388.248 255.903 388.449 255.127 388.448H210.684C207.923 388.445 205.276 387.342 203.324 385.383C201.371 383.424 200.273 380.768 200.27 377.998V331.44C200.269 330.654 200.473 329.881 200.862 329.199C201.25 328.516 201.81 327.947 202.486 327.549C203.161 327.15 203.929 326.936 204.712 326.927C205.496 326.917 206.268 327.114 206.952 327.497C210.682 329.59 214.892 330.668 219.165 330.624C223.438 330.581 227.626 329.416 231.312 327.247C234.998 325.078 238.055 321.98 240.179 318.259C242.303 314.538 243.421 310.325 243.421 306.038C243.421 301.75 242.303 297.537 240.179 293.816C238.055 290.095 234.998 286.997 231.312 284.828C227.626 282.659 223.438 281.494 219.165 281.451C214.892 281.407 210.682 282.485 206.952 284.578C206.268 284.961 205.496 285.158 204.712 285.148C203.929 285.139 203.161 284.925 202.486 284.526C201.81 284.128 201.25 283.559 200.862 282.876C200.473 282.194 200.269 281.421 200.27 280.635V235.738C200.273 232.967 201.371 230.311 203.324 228.352C205.276 226.393 207.923 225.291 210.684 225.288H254.544C254.784 225.291 255.021 225.232 255.232 225.117C255.442 225.001 255.62 224.833 255.747 224.629C255.884 224.414 255.964 224.167 255.978 223.912C255.992 223.657 255.94 223.402 255.827 223.173C253.836 218.957 252.939 214.304 253.222 209.647C253.504 204.99 254.956 200.48 257.442 196.537C259.928 192.595 263.368 189.347 267.441 187.096C271.514 184.846 276.089 183.666 280.739 183.666C285.389 183.666 289.963 184.846 294.037 187.096C298.11 189.347 301.55 192.595 304.036 196.537C306.522 200.48 307.974 204.99 308.256 209.647C308.538 214.304 307.642 218.957 305.651 223.173C305.539 223.399 305.488 223.65 305.503 223.902C305.517 224.154 305.595 224.398 305.731 224.61C305.858 224.814 306.036 224.983 306.246 225.098C306.457 225.214 306.694 225.273 306.934 225.269H352.455C355.216 225.273 357.863 226.375 359.816 228.334C361.768 230.293 362.866 232.949 362.87 235.719V279.702C362.868 279.941 362.927 280.178 363.042 280.388C363.157 280.598 363.324 280.775 363.527 280.902C363.741 281.04 363.987 281.12 364.242 281.134C364.496 281.148 364.749 281.096 364.978 280.983C368.659 279.234 372.683 278.333 376.756 278.346C383.995 278.454 390.901 281.416 395.982 286.591C401.063 291.766 403.911 298.739 403.911 306.003C403.911 313.268 401.063 320.24 395.982 325.415C390.901 330.59 383.995 333.552 376.756 333.661C372.683 333.674 368.659 332.773 364.978 331.024C364.749 330.91 364.496 330.858 364.242 330.873C363.987 330.887 363.741 330.967 363.527 331.105C363.324 331.231 363.157 331.408 363.042 331.619C362.927 331.829 362.868 332.065 362.87 332.305V377.948C362.875 379.324 362.609 380.688 362.088 381.961C361.567 383.233 360.801 384.391 359.833 385.366C358.866 386.341 357.716 387.115 356.45 387.644C355.184 388.173 353.826 388.446 352.455 388.448ZM280.73 342.612C281.089 342.612 281.451 342.612 281.815 342.612C286.477 342.795 291.017 344.163 295.009 346.587C299.001 349.01 302.315 352.411 304.64 356.47C306.966 360.529 308.226 365.114 308.304 369.795C308.382 374.476 307.275 379.101 305.087 383.235C304.971 383.453 304.913 383.697 304.918 383.943C304.923 384.19 304.991 384.431 305.115 384.644C305.24 384.856 305.416 385.034 305.628 385.158C305.84 385.283 306.081 385.351 306.326 385.356H352.455C354.404 385.353 356.272 384.575 357.65 383.192C359.028 381.809 359.804 379.935 359.807 377.979V332.355C359.805 331.598 359.994 330.852 360.357 330.188C360.72 329.525 361.246 328.964 361.884 328.561C362.534 328.146 363.279 327.905 364.048 327.859C364.817 327.814 365.585 327.965 366.279 328.299C369.548 329.852 373.121 330.654 376.737 330.644C383.238 330.644 389.472 328.053 394.068 323.442C398.664 318.83 401.246 312.575 401.246 306.053C401.246 299.531 398.664 293.276 394.068 288.664C389.472 284.053 383.238 281.462 376.737 281.462C373.121 281.452 369.548 282.254 366.279 283.807C365.585 284.141 364.817 284.292 364.048 284.246C363.279 284.2 362.535 283.959 361.884 283.546C361.246 283.142 360.72 282.581 360.357 281.918C359.994 281.254 359.805 280.509 359.807 279.751V235.738C359.798 233.787 359.019 231.918 357.642 230.541C356.264 229.164 354.4 228.389 352.455 228.386H306.928C306.171 228.388 305.427 228.198 304.764 227.832C304.102 227.467 303.543 226.938 303.14 226.296C302.729 225.645 302.489 224.899 302.445 224.13C302.4 223.36 302.552 222.592 302.886 221.898C304.655 218.15 305.451 214.015 305.199 209.875C304.947 205.736 303.657 201.728 301.446 198.224C299.236 194.72 296.179 191.833 292.558 189.833C288.938 187.833 284.872 186.784 280.739 186.784C276.606 186.784 272.54 187.833 268.92 189.833C265.299 191.833 262.242 194.72 260.031 198.224C257.821 201.728 256.53 205.736 256.279 209.875C256.027 214.015 256.823 218.15 258.592 221.898C258.926 222.594 259.078 223.365 259.034 224.136C258.989 224.908 258.75 225.655 258.338 226.308C257.936 226.951 257.377 227.48 256.714 227.845C256.051 228.211 255.307 228.401 254.55 228.398H210.684C208.742 228.401 206.879 229.174 205.502 230.549C204.125 231.924 203.345 233.789 203.332 235.738V280.635C203.332 280.887 203.398 281.135 203.524 281.354C203.651 281.572 203.832 281.753 204.051 281.879C204.265 282.004 204.507 282.07 204.755 282.07C205.002 282.07 205.245 282.004 205.458 281.879C209.654 279.517 214.392 278.299 219.202 278.344C224.012 278.389 228.726 279.695 232.877 282.135C237.028 284.574 240.47 288.06 242.862 292.247C245.255 296.434 246.513 301.177 246.513 306.003C246.513 310.83 245.255 315.572 242.862 319.759C240.47 323.947 237.028 327.433 232.877 329.872C228.726 332.311 224.012 333.618 219.202 333.663C214.392 333.708 209.654 332.489 205.458 330.128C205.245 330.002 205.002 329.936 204.755 329.936C204.507 329.936 204.264 330.002 204.051 330.128C203.832 330.253 203.651 330.434 203.524 330.653C203.398 330.871 203.332 331.119 203.332 331.372V377.93C203.335 379.885 204.111 381.76 205.489 383.142C206.867 384.525 208.735 385.303 210.684 385.307H255.127C255.377 385.309 255.623 385.246 255.841 385.122C256.059 384.999 256.24 384.82 256.367 384.604C256.495 384.393 256.566 384.153 256.573 383.906C256.579 383.659 256.521 383.415 256.404 383.198C254.287 379.196 253.18 374.735 253.18 370.204C253.198 362.883 256.108 355.868 261.272 350.696C266.436 345.524 273.433 342.617 280.73 342.612Z" fill="#262424"/>
<path d="M377.673 273.606C369.496 272.872 365.063 292.117 370.488 294.014C375.912 295.912 386.277 274.377 377.673 273.606Z" fill="white"/>
<path d="M371.194 295.669C370.772 295.672 370.352 295.603 369.954 295.463C366.928 294.406 365.788 289.959 367.04 284.137C368.361 277.985 372.291 271.578 377.777 272.076C378.724 272.124 379.636 272.455 380.394 273.027C381.152 273.599 381.722 274.385 382.03 275.285C383.735 279.951 380.015 288.907 375.8 293.206C373.952 295.109 372.384 295.669 371.194 295.669ZM377.225 275.142C373.915 275.142 371.076 280.038 370.053 284.802C369.129 289.088 369.817 292.179 370.989 292.584C371.392 292.727 372.328 292.416 373.642 291.072C377.362 287.278 380.313 279.44 379.184 276.361C379.075 276.008 378.855 275.7 378.556 275.483C378.258 275.265 377.898 275.15 377.529 275.155L377.225 275.142Z" fill="#262424"/>
<path d="M385.311 276.791C377.903 276.629 369.658 298.717 385.311 301.671C400.964 304.626 403.599 291.253 400.654 285.188C397.71 279.123 392.428 276.971 385.311 276.791Z" fill="white"/>
<path d="M389.555 303.656C388.031 303.646 386.512 303.494 385.017 303.202C377.944 301.865 374.181 296.621 374.955 289.163C375.637 282.57 380.163 275.28 385.215 275.28H385.308C393.714 275.46 399.015 278.39 401.99 284.542C402.999 286.833 403.39 289.351 403.125 291.842C402.859 294.333 401.946 296.71 400.478 298.736C398.686 301.124 395.388 303.656 389.555 303.656ZM385.215 278.346C382.475 278.346 378.625 283.447 377.999 289.48C377.646 292.876 378.161 298.81 385.581 300.185C391.284 301.261 395.605 300.117 398.072 296.87C399.185 295.291 399.878 293.454 400.086 291.532C400.294 289.61 400.011 287.667 399.263 285.885C396.783 280.834 392.493 278.508 385.259 278.353H385.209L385.215 278.346Z" fill="#262424"/>
<path d="M122.46 201.864C122.46 201.864 100.143 233.07 99.3186 244.888C98.4941 256.707 148.708 304.807 179.704 323.884C179.704 323.884 182.599 341.039 185.079 345.082C187.559 349.125 205.382 356.278 205.382 356.278C205.382 356.278 208.946 365.453 213.131 366.23C217.315 367.008 221.965 359.388 221.965 357.056C221.965 354.723 216.85 343.993 216.85 343.993C216.85 343.993 221.5 353.324 224.134 352.702C226.769 352.08 223.979 337.618 221.965 335.13C219.95 332.642 193.752 316.314 193.752 316.314L146.638 249.292L159.346 230.476L122.46 201.864Z" fill="white"/>
<path d="M213.714 367.816C213.419 367.816 213.124 367.789 212.834 367.735C208.494 366.933 205.165 359.767 204.192 357.453C200.107 355.786 186.214 349.908 183.734 345.878C181.379 342.034 178.893 328.374 178.273 324.816C163.574 315.667 143.799 299.619 126.472 282.756C117.638 274.16 97.1618 253.254 97.7507 244.77C98.6 232.659 120.254 202.249 121.178 200.961C121.298 200.795 121.45 200.654 121.625 200.547C121.801 200.44 121.996 200.37 122.199 200.341C122.402 200.311 122.609 200.323 122.807 200.375C123.005 200.427 123.191 200.519 123.354 200.644L160.239 229.257C160.547 229.496 160.752 229.844 160.813 230.23C160.874 230.616 160.787 231.011 160.568 231.334L148.498 249.273L194.825 315.175C199.784 318.285 221.116 331.652 223.149 334.159C225.307 336.821 227.65 348.465 226.354 352.278C226.242 352.735 226.011 353.153 225.684 353.489C225.357 353.826 224.946 354.069 224.494 354.194C223.922 354.316 223.326 354.255 222.79 354.02C223.166 354.985 223.408 355.998 223.509 357.03C223.509 359.326 220.949 363.636 218.246 365.894C217.008 367.051 215.403 367.731 213.714 367.816ZM122.777 204.059C118.599 210.049 101.526 235.073 100.832 244.994C100.491 249.839 111.401 263.797 128.629 280.56C146.037 297.504 165.912 313.601 180.492 322.571C180.678 322.686 180.837 322.839 180.959 323.02C181.081 323.201 181.162 323.406 181.199 323.622C181.992 328.312 184.46 341.169 186.369 344.273C187.981 346.904 199.226 352.154 205.934 354.847C206.128 354.925 206.304 355.042 206.451 355.191C206.598 355.339 206.713 355.517 206.789 355.712C208.147 359.189 211.092 364.283 213.392 364.712C214.39 364.893 215.499 364.183 216.256 363.549C218.735 361.459 220.415 357.92 220.415 357.043C220.415 355.799 217.837 349.653 215.456 344.64C215.303 344.278 215.293 343.871 215.43 343.502C215.567 343.134 215.84 342.832 216.192 342.659C216.544 342.486 216.948 342.455 217.322 342.572C217.696 342.69 218.011 342.947 218.202 343.29C219.975 346.842 222.35 350.244 223.54 351.022C224.203 348.422 222.35 338.047 220.763 336.093C219.554 334.607 205.525 325.463 192.934 317.613C192.77 317.511 192.627 317.378 192.513 317.222L145.398 250.175C145.221 249.918 145.126 249.613 145.126 249.301C145.126 248.989 145.221 248.684 145.398 248.427L157.301 230.806L122.777 204.059Z" fill="#262424"/>
<path d="M179.79 137.46C158.049 141.777 113.16 206.112 113.16 206.112L158.83 239.906C158.83 239.906 190.446 199.68 203.26 179.154C216.074 158.627 211.307 131.24 179.79 137.46Z" fill="#FEA151"/>
<path d="M158.821 241.442C158.533 241.442 158.251 241.361 158.008 241.207C157.764 241.054 157.568 240.835 157.443 240.576C157.317 240.316 157.267 240.026 157.298 239.739C157.329 239.452 157.44 239.18 157.618 238.954C157.934 238.549 189.327 198.56 201.949 178.339C208.502 167.839 210.175 155.834 206.22 147.748C203.53 142.243 198.384 138.959 191.342 138.262C191.135 138.252 190.933 138.199 190.747 138.107C190.561 138.015 190.395 137.887 190.26 137.729C190.125 137.571 190.023 137.388 189.961 137.19C189.899 136.991 189.877 136.782 189.898 136.575C189.918 136.369 189.981 136.168 190.081 135.986C190.181 135.804 190.317 135.644 190.48 135.516C190.644 135.388 190.831 135.295 191.032 135.242C191.232 135.189 191.441 135.178 191.646 135.208C199.792 136.017 205.786 139.886 208.967 146.404C213.381 155.424 211.639 168.604 204.54 179.993C191.832 200.352 160.333 240.477 160.017 240.876C159.873 241.054 159.691 241.198 159.483 241.296C159.276 241.393 159.05 241.443 158.821 241.442Z" fill="#262424"/>
<path d="M166.768 231.191C166.444 231.19 166.129 231.085 165.869 230.892L124.377 200.457C124.049 200.217 123.828 199.856 123.765 199.453C123.701 199.05 123.8 198.638 124.039 198.308C124.279 197.978 124.639 197.757 125.04 197.694C125.442 197.63 125.853 197.729 126.181 197.969L167.667 228.411C167.929 228.601 168.124 228.87 168.224 229.179C168.324 229.487 168.325 229.82 168.225 230.129C168.125 230.438 167.93 230.707 167.668 230.897C167.407 231.088 167.091 231.191 166.768 231.191Z" fill="#262424"/>
<path d="M263.199 41.8108C265.15 55.4507 236.402 59.5913 226.656 59.8303C216.909 60.0693 198.911 77.5645 183.562 67.4714C168.213 57.3784 155.152 99.9096 104.937 80.9726C66.2628 66.3611 55.5757 9.41886 83.8448 2.04759C112.114 -5.32368 145.962 26.6519 171.747 19.589C188.154 15.0938 205.313 -2.58643 226.468 16.4509C242.247 30.6382 261.655 31.0469 263.199 41.8108Z" fill="#262424"/>
<path d="M306.288 111.872C306.288 111.872 317.464 103.372 324.74 109.139C332.016 114.906 321.148 139.571 301.523 130.725L306.288 111.872Z" fill="white"/>
<path d="M309.725 134.744C306.525 134.693 303.382 133.961 300.543 132.606C300.129 132.417 299.796 132.106 299.598 131.722C299.399 131.338 299.347 130.904 299.45 130.49L304.233 111.326C304.332 110.924 304.573 110.564 304.917 110.299C305.434 109.9 317.587 100.679 326.126 107.539C331.084 111.518 329.365 120.571 324.933 126.619C320.985 131.954 315.634 134.744 309.725 134.744ZM303.815 129.831C313.539 133.464 319.365 127.378 321.477 124.465C325.534 118.907 325.834 112.307 323.38 110.337C318.255 106.213 310.175 111.303 308.055 112.767L303.815 129.831Z" fill="#262424"/>
<path d="M265.965 44.0994L261.921 40.4065C261.29 39.8241 260.52 39.428 259.692 39.2593C258.864 39.0907 258.008 39.1557 257.213 39.4476C254.923 40.2311 252.835 41.5457 251.105 43.2918C249.429 45.308 248.482 47.8697 248.428 50.5346C248.397 51.1769 248.489 51.8191 248.699 52.4241C248.908 53.0291 249.231 53.5849 249.649 54.0592L253.767 58.8035C254.236 59.3374 254.812 59.7574 255.455 60.0336C256.098 60.3098 256.792 60.4355 257.486 60.4018C258.181 60.3681 258.86 60.1757 259.476 59.8385C260.091 59.5012 260.628 59.0273 261.047 58.4502L266.58 50.7364C267.296 49.7511 267.629 48.5224 267.515 47.2934C267.402 46.0644 266.848 44.9246 265.965 44.0994Z" fill="white"/>
<path d="M257.271 62.5305C256.319 62.532 255.377 62.3263 254.507 61.9267C253.637 61.5271 252.858 60.9426 252.222 60.2114L248.064 55.455C247.46 54.7747 246.994 53.9765 246.694 53.1075C246.394 52.2385 246.265 51.3163 246.315 50.3951C246.396 47.229 247.553 44.1929 249.583 41.8185C251.55 39.8352 253.927 38.3386 256.536 37.4417C257.677 37.0268 258.905 36.9338 260.093 37.1725C261.28 37.4112 262.385 37.9728 263.292 38.7994L267.377 42.5016C268.65 43.6719 269.454 45.291 269.631 47.0415C269.808 48.7919 269.345 50.5474 268.333 51.9637L262.745 59.697C262.145 60.5311 261.372 61.2167 260.483 61.7039C259.594 62.1912 258.611 62.4678 257.606 62.5136H257.287L257.271 62.5305ZM258.791 41.2113C258.482 41.2109 258.175 41.2651 257.884 41.3716C255.87 42.0524 254.031 43.1907 252.5 44.7027C251.147 46.3565 250.388 48.4416 250.351 50.6059C250.335 50.9757 250.39 51.3452 250.513 51.6927C250.637 52.0403 250.826 52.3589 251.07 52.6299L255.229 57.3863C255.503 57.6996 255.84 57.9464 256.218 58.1089C256.595 58.2714 257.003 58.3457 257.411 58.3264C257.82 58.307 258.219 58.1945 258.58 57.997C258.942 57.7994 259.256 57.5218 259.501 57.1839L265.089 49.4506C265.501 48.8733 265.689 48.1581 265.617 47.4452C265.544 46.7323 265.216 46.073 264.697 45.5966L260.612 41.8944C260.104 41.449 259.457 41.2066 258.791 41.2113Z" fill="#262424"/>
<path d="M312.315 115.658C306.711 131.515 294.014 148.066 274.355 141.932C259.899 137.441 248.818 115.65 253.951 93.5507C259.083 71.4513 268.359 53.9199 294.594 62.7319C297.383 63.7161 300.101 64.8812 302.732 66.2197C317.196 73.9359 322.689 76.953 315.124 107.116C314.449 109.801 313.382 112.664 312.315 115.658Z" fill="white"/>
<path d="M280.388 145.364C277.404 145.346 274.442 144.875 271.604 143.968C256.779 139.352 244.17 117.32 249.785 93.0772C252.497 81.363 257.016 67.1508 267.921 61.1541C274.608 57.4847 283.093 57.3295 293.155 60.7041C296.059 61.7273 298.891 62.9402 301.631 64.3347C309.115 68.33 314.516 71.2081 317.04 77.3988C319.492 83.4265 318.916 92.1773 315.045 107.615C314.437 110.043 313.539 112.557 312.584 115.21L312.174 116.358C306.915 131.245 296.08 145.364 280.388 145.364ZM279.82 62.0772C276.336 62.0166 272.896 62.848 269.837 64.4899C262.457 68.5394 257.292 77.8953 253.578 93.9228C248.578 115.497 259.594 136.21 272.779 140.314C275.264 141.111 277.86 141.527 280.475 141.548C297.673 141.548 306.118 121.835 308.5 115.094L308.91 113.938C309.832 111.37 310.7 108.949 311.275 106.7C318.538 77.7091 313.815 75.1878 299.786 67.7016C297.236 66.4083 294.602 65.281 291.901 64.327C288.026 62.9315 283.945 62.1715 279.82 62.0772Z" fill="#262424"/>
<path d="M258.65 94.4921C261.613 94.221 264.45 93.1315 266.862 91.3386C269.274 89.5458 271.171 87.1161 272.353 84.3059C273.193 82.4205 274.113 79.8086 275.342 77.5641C283.272 93.0719 302.487 106.735 311.027 112.245C312.352 113.135 313.915 113.573 315.495 113.497C317.075 113.421 318.592 112.834 319.83 111.82C335.261 98.5487 331.138 63.1826 310.195 57.6569C291.305 33.8973 260.363 37.9701 250.72 57.3141C240.014 78.7557 251.211 95.3736 258.65 94.4921Z" fill="#262424"/>
<path d="M259.041 97.8713C259.041 97.8713 251.606 83.4006 239.473 83.7767C227.34 84.1529 226.361 112.958 254.752 117.753L259.041 97.8713Z" fill="white"/>
<path d="M254.938 119.871C254.834 119.88 254.729 119.88 254.625 119.871C236.299 116.796 228.676 104.092 229.349 93.5916C229.796 86.6182 233.815 81.824 239.355 81.6545C252.752 81.2509 260.665 96.2793 260.995 96.9169C261.198 97.3783 261.223 97.9022 261.065 98.3821C260.907 98.862 260.577 99.2618 260.143 99.5003C259.709 99.7388 259.203 99.798 258.728 99.6659C258.253 99.5339 257.845 99.2205 257.586 98.7894C257.516 98.6522 250.425 85.2784 239.472 85.6335C235.5 85.7546 233.463 89.8466 233.204 93.8499C232.648 102.615 239.3 113.269 255.244 115.94C255.695 116.049 256.094 116.32 256.368 116.706C256.641 117.091 256.771 117.565 256.734 118.041C256.697 118.517 256.496 118.964 256.166 119.3C255.836 119.636 255.401 119.838 254.938 119.871Z" fill="#262424"/>
<path d="M45.3428 124.442C44.9317 124.442 44.5375 124.278 44.2469 123.986C43.9562 123.694 43.793 123.299 43.793 122.886V115.69C43.793 115.277 43.9562 114.882 44.2469 114.59C44.5375 114.299 44.9317 114.135 45.3428 114.135C45.7538 114.135 46.148 114.299 46.4387 114.59C46.7293 114.882 46.8926 115.277 46.8926 115.69V122.893C46.8909 123.304 46.7269 123.698 46.4365 123.988C46.146 124.279 45.7527 124.442 45.3428 124.442Z" fill="#262424"/>
<path d="M56.1582 128.13H48.9795C48.5685 128.13 48.1743 127.966 47.8836 127.674C47.593 127.383 47.4297 126.987 47.4297 126.575C47.4297 126.162 47.593 125.767 47.8836 125.475C48.1743 125.183 48.5685 125.02 48.9795 125.02H56.1582C56.5693 125.02 56.9635 125.183 57.2541 125.475C57.5448 125.767 57.7081 126.162 57.7081 126.575C57.7081 126.987 57.5448 127.383 57.2541 127.674C56.9635 127.966 56.5693 128.13 56.1582 128.13Z" fill="#262424"/>
<path d="M45.3428 138.959C44.9317 138.959 44.5375 138.795 44.2469 138.503C43.9562 138.212 43.793 137.816 43.793 137.404V130.201C43.793 129.789 43.9562 129.393 44.2469 129.101C44.5375 128.81 44.9317 128.646 45.3428 128.646C45.7538 128.646 46.148 128.81 46.4387 129.101C46.7293 129.393 46.8926 129.789 46.8926 130.201V137.404C46.8926 137.608 46.8525 137.81 46.7746 137.999C46.6967 138.188 46.5826 138.359 46.4387 138.503C46.2947 138.648 46.1239 138.762 45.9359 138.841C45.7478 138.919 45.5463 138.959 45.3428 138.959Z" fill="#262424"/>
<path d="M41.6872 128.13H34.5147C34.1036 128.13 33.7094 127.966 33.4188 127.674C33.1281 127.383 32.9648 126.987 32.9648 126.575C32.9648 126.162 33.1281 125.767 33.4188 125.475C33.7094 125.183 34.1036 125.02 34.5147 125.02H41.6934C41.8969 125.02 42.0983 125.061 42.2862 125.139C42.4741 125.218 42.6447 125.333 42.7883 125.477C42.932 125.622 43.0458 125.794 43.1233 125.982C43.2008 126.171 43.2405 126.373 43.2401 126.578C43.2397 126.782 43.1992 126.984 43.1209 127.173C43.0426 127.361 42.9282 127.532 42.784 127.676C42.6398 127.82 42.4687 127.935 42.2805 128.012C42.0923 128.09 41.8907 128.13 41.6872 128.13Z" fill="#262424"/>
<path d="M22.1201 423.697C21.7091 423.697 21.3149 423.534 21.0242 423.242C20.7336 422.95 20.5703 422.555 20.5703 422.142V414.94C20.5703 414.527 20.7336 414.132 21.0242 413.84C21.3149 413.548 21.7091 413.385 22.1201 413.385C22.5312 413.385 22.9254 413.548 23.216 413.84C23.5067 414.132 23.6699 414.527 23.6699 414.94V422.142C23.6699 422.555 23.5067 422.95 23.216 423.242C22.9254 423.534 22.5312 423.697 22.1201 423.697Z" fill="#262424"/>
<path d="M32.948 427.355H25.7568C25.3458 427.355 24.9516 427.191 24.661 426.9C24.3703 426.608 24.207 426.212 24.207 425.8C24.207 425.388 24.3703 424.992 24.661 424.7C24.9516 424.409 25.3458 424.245 25.7568 424.245H32.948C33.359 424.245 33.7532 424.409 34.0439 424.7C34.3345 424.992 34.4978 425.388 34.4978 425.8C34.4978 426.212 34.3345 426.608 34.0439 426.9C33.7532 427.191 33.359 427.355 32.948 427.355Z" fill="#262424"/>
<path d="M22.1201 438.215C21.7091 438.215 21.3149 438.051 21.0242 437.76C20.7336 437.468 20.5703 437.073 20.5703 436.66V429.457C20.5703 429.045 20.7336 428.649 21.0242 428.358C21.3149 428.066 21.7091 427.902 22.1201 427.902C22.5312 427.902 22.9254 428.066 23.216 428.358C23.5067 428.649 23.67 429.045 23.67 429.457V436.648C23.6716 436.853 23.6327 437.057 23.5556 437.247C23.4784 437.437 23.3645 437.61 23.2204 437.755C23.0764 437.901 22.905 438.017 22.7161 438.096C22.5273 438.175 22.3247 438.215 22.1201 438.215Z" fill="#262424"/>
<path d="M18.4645 427.355H11.292C10.881 427.355 10.4868 427.191 10.1961 426.9C9.90547 426.608 9.74219 426.212 9.74219 425.8C9.74219 425.388 9.90547 424.992 10.1961 424.7C10.4868 424.409 10.881 424.245 11.292 424.245H18.4707C18.6743 424.245 18.8757 424.286 19.0636 424.364C19.2515 424.443 19.4221 424.558 19.5657 424.703C19.7093 424.847 19.8232 425.019 19.9007 425.208C19.9782 425.397 20.0179 425.599 20.0175 425.803C20.0171 426.007 19.9766 426.209 19.8983 426.398C19.82 426.586 19.7055 426.758 19.5613 426.902C19.4171 427.046 19.2461 427.16 19.0579 427.238C18.8697 427.316 18.6681 427.355 18.4645 427.355Z" fill="#262424"/>
<path d="M59.4274 494.961C62.3753 494.961 64.7649 492.564 64.7649 489.606C64.7649 486.648 62.3753 484.25 59.4274 484.25C56.4795 484.25 54.0898 486.648 54.0898 489.606C54.0898 492.564 56.4795 494.961 59.4274 494.961Z" fill="#B0CDFE"/>
<path d="M161.513 709.549C166.31 709.549 170.198 705.648 170.198 700.835C170.198 696.022 166.31 692.121 161.513 692.121C156.717 692.121 152.828 696.022 152.828 700.835C152.828 705.648 156.717 709.549 161.513 709.549Z" fill="#FEA151"/>
</svg>
