<svg width="181" height="92" viewBox="0 0 181 92" fill="none" xmlns="http://www.w3.org/2000/svg">
<ellipse cx="1.50938" cy="90.2511" rx="1.51259" ry="1.50938" transform="rotate(-90 1.50938 90.2511)" fill="#7854F7"/>
<ellipse cx="1.50938" cy="68.0665" rx="1.51259" ry="1.50938" transform="rotate(-90 1.50938 68.0665)" fill="#7854F7"/>
<ellipse cx="1.50938" cy="45.8819" rx="1.51259" ry="1.50938" transform="rotate(-90 1.50938 45.8819)" fill="#7854F7"/>
<ellipse cx="1.50938" cy="23.6974" rx="1.51259" ry="1.50938" transform="rotate(-90 1.50938 23.6974)" fill="#7854F7"/>
<ellipse cx="1.50938" cy="1.5128" rx="1.51259" ry="1.50938" transform="rotate(-90 1.50938 1.5128)" fill="#7854F7"/>
<ellipse cx="23.6471" cy="90.2511" rx="1.51259" ry="1.50938" transform="rotate(-90 23.6471 90.2511)" fill="#7854F7"/>
<ellipse cx="23.6471" cy="68.0665" rx="1.51259" ry="1.50938" transform="rotate(-90 23.6471 68.0665)" fill="#7854F7"/>
<ellipse cx="23.6471" cy="45.8819" rx="1.51259" ry="1.50938" transform="rotate(-90 23.6471 45.8819)" fill="#7854F7"/>
<ellipse cx="23.6471" cy="23.6974" rx="1.51259" ry="1.50938" transform="rotate(-90 23.6471 23.6974)" fill="#7854F7"/>
<ellipse cx="23.6471" cy="1.5128" rx="1.51259" ry="1.50938" transform="rotate(-90 23.6471 1.5128)" fill="#7854F7"/>
<ellipse cx="45.7848" cy="90.2511" rx="1.51259" ry="1.50938" transform="rotate(-90 45.7848 90.2511)" fill="#7854F7"/>
<ellipse cx="45.7848" cy="68.066" rx="1.51259" ry="1.50938" transform="rotate(-90 45.7848 68.066)" fill="#7854F7"/>
<ellipse cx="45.7848" cy="45.8819" rx="1.51259" ry="1.50938" transform="rotate(-90 45.7848 45.8819)" fill="#7854F7"/>
<ellipse cx="45.7848" cy="23.6974" rx="1.51259" ry="1.50938" transform="rotate(-90 45.7848 23.6974)" fill="#7854F7"/>
<ellipse cx="45.7848" cy="1.5128" rx="1.51259" ry="1.50938" transform="rotate(-90 45.7848 1.5128)" fill="#7854F7"/>
<ellipse cx="67.9225" cy="90.2511" rx="1.51259" ry="1.50938" transform="rotate(-90 67.9225 90.2511)" fill="#7854F7"/>
<ellipse cx="67.9225" cy="68.0665" rx="1.51259" ry="1.50938" transform="rotate(-90 67.9225 68.0665)" fill="#7854F7"/>
<ellipse cx="67.9225" cy="45.8819" rx="1.51259" ry="1.50938" transform="rotate(-90 67.9225 45.8819)" fill="#7854F7"/>
<ellipse cx="67.9225" cy="23.6974" rx="1.51259" ry="1.50938" transform="rotate(-90 67.9225 23.6974)" fill="#7854F7"/>
<ellipse cx="67.9225" cy="1.5128" rx="1.51259" ry="1.50938" transform="rotate(-90 67.9225 1.5128)" fill="#7854F7"/>
<ellipse cx="90.0602" cy="90.2511" rx="1.51259" ry="1.50938" transform="rotate(-90 90.0602 90.2511)" fill="#7854F7"/>
<ellipse cx="90.0602" cy="68.066" rx="1.51259" ry="1.50938" transform="rotate(-90 90.0602 68.066)" fill="#7854F7"/>
<ellipse cx="90.0602" cy="45.8819" rx="1.51259" ry="1.50938" transform="rotate(-90 90.0602 45.8819)" fill="#7854F7"/>
<ellipse cx="90.0602" cy="23.6974" rx="1.51259" ry="1.50938" transform="rotate(-90 90.0602 23.6974)" fill="#7854F7"/>
<ellipse cx="90.0602" cy="1.5128" rx="1.51259" ry="1.50938" transform="rotate(-90 90.0602 1.5128)" fill="#7854F7"/>
<ellipse cx="112.197" cy="90.2511" rx="1.51259" ry="1.50938" transform="rotate(-90 112.197 90.2511)" fill="#7854F7"/>
<ellipse cx="112.197" cy="68.0665" rx="1.51259" ry="1.50938" transform="rotate(-90 112.197 68.0665)" fill="#7854F7"/>
<ellipse cx="112.197" cy="45.8819" rx="1.51259" ry="1.50938" transform="rotate(-90 112.197 45.8819)" fill="#7854F7"/>
<ellipse cx="112.197" cy="23.6974" rx="1.51259" ry="1.50938" transform="rotate(-90 112.197 23.6974)" fill="#7854F7"/>
<ellipse cx="112.197" cy="1.5128" rx="1.51259" ry="1.50938" transform="rotate(-90 112.197 1.5128)" fill="#7854F7"/>
<ellipse cx="134.336" cy="90.2511" rx="1.51259" ry="1.50938" transform="rotate(-90 134.336 90.2511)" fill="#7854F7"/>
<ellipse cx="134.336" cy="68.0665" rx="1.51259" ry="1.50938" transform="rotate(-90 134.336 68.0665)" fill="#7854F7"/>
<ellipse cx="134.336" cy="45.8819" rx="1.51259" ry="1.50938" transform="rotate(-90 134.336 45.8819)" fill="#7854F7"/>
<ellipse cx="134.336" cy="23.6974" rx="1.51259" ry="1.50938" transform="rotate(-90 134.336 23.6974)" fill="#7854F7"/>
<ellipse cx="134.336" cy="1.5128" rx="1.51259" ry="1.50938" transform="rotate(-90 134.336 1.5128)" fill="#7854F7"/>
<ellipse cx="156.472" cy="90.2511" rx="1.51259" ry="1.50938" transform="rotate(-90 156.472 90.2511)" fill="#7854F7"/>
<ellipse cx="156.472" cy="68.066" rx="1.51259" ry="1.50938" transform="rotate(-90 156.472 68.066)" fill="#7854F7"/>
<ellipse cx="156.472" cy="45.8819" rx="1.51259" ry="1.50938" transform="rotate(-90 156.472 45.8819)" fill="#7854F7"/>
<ellipse cx="156.472" cy="23.6974" rx="1.51259" ry="1.50938" transform="rotate(-90 156.472 23.6974)" fill="#7854F7"/>
<ellipse cx="156.472" cy="1.5128" rx="1.51259" ry="1.50938" transform="rotate(-90 156.472 1.5128)" fill="#7854F7"/>
<ellipse cx="178.611" cy="90.2511" rx="1.51259" ry="1.50938" transform="rotate(-90 178.611 90.2511)" fill="#7854F7"/>
<ellipse cx="178.61" cy="68.066" rx="1.51259" ry="1.50938" transform="rotate(-90 178.61 68.066)" fill="#7854F7"/>
<ellipse cx="178.611" cy="45.8819" rx="1.51259" ry="1.50938" transform="rotate(-90 178.611 45.8819)" fill="#7854F7"/>
<ellipse cx="178.611" cy="23.6974" rx="1.51259" ry="1.50938" transform="rotate(-90 178.611 23.6974)" fill="#7854F7"/>
<ellipse cx="178.611" cy="1.5128" rx="1.51259" ry="1.50938" transform="rotate(-90 178.611 1.5128)" fill="#7854F7"/>
</svg>
