<svg width="183" height="135" viewBox="0 0 183 135" fill="none" xmlns="http://www.w3.org/2000/svg">
<path d="M124.837 130H119.026C118.705 130 118.397 129.872 118.17 129.644C117.943 129.416 117.816 129.106 117.816 128.784C117.816 128.461 117.943 128.152 118.17 127.924C118.397 127.696 118.705 127.567 119.026 127.567H124.837C125.158 127.567 125.466 127.696 125.693 127.924C125.92 128.152 126.048 128.461 126.048 128.784C126.048 129.106 125.92 129.416 125.693 129.644C125.466 129.872 125.158 130 124.837 130ZM113.215 130H107.404C107.083 130 106.775 129.872 106.548 129.644C106.321 129.416 106.194 129.106 106.194 128.784C106.194 128.461 106.321 128.152 106.548 127.924C106.775 127.696 107.083 127.567 107.404 127.567H113.215C113.536 127.567 113.844 127.696 114.071 127.924C114.298 128.152 114.426 128.461 114.426 128.784C114.426 129.106 114.298 129.416 114.071 129.644C113.844 129.872 113.536 130 113.215 130ZM101.593 130H95.7823C95.4612 130 95.1533 129.872 94.9262 129.644C94.6992 129.416 94.5716 129.106 94.5716 128.784C94.5716 128.461 94.6992 128.152 94.9262 127.924C95.1533 127.696 95.4612 127.567 95.7823 127.567H101.593C101.914 127.567 102.222 127.696 102.449 127.924C102.676 128.152 102.804 128.461 102.804 128.784C102.804 129.106 102.676 129.416 102.449 129.644C102.222 129.872 101.914 130 101.593 130ZM89.9712 130H84.1602C83.8391 130 83.5312 129.872 83.3042 129.644C83.0771 129.416 82.9496 129.106 82.9496 128.784C82.9496 128.461 83.0771 128.152 83.3042 127.924C83.5312 127.696 83.8391 127.567 84.1602 127.567H89.9712C90.2923 127.567 90.6002 127.696 90.8273 127.924C91.0543 128.152 91.1819 128.461 91.1819 128.784C91.1819 129.106 91.0543 129.416 90.8273 129.644C90.6002 129.872 90.2923 130 89.9712 130ZM78.3492 130H72.5382C72.2171 130 71.9092 129.872 71.6821 129.644C71.4551 129.416 71.3275 129.106 71.3275 128.784C71.3275 128.461 71.4551 128.152 71.6821 127.924C71.9092 127.696 72.2171 127.567 72.5382 127.567H78.3492C78.6703 127.567 78.9782 127.696 79.2052 127.924C79.4323 128.152 79.5598 128.461 79.5598 128.784C79.5598 129.106 79.4323 129.416 79.2052 129.644C78.9782 129.872 78.6703 130 78.3492 130ZM66.7271 130H60.9161C60.595 130 60.2871 129.872 60.0601 129.644C59.833 129.416 59.7055 129.106 59.7055 128.784C59.7055 128.461 59.833 128.152 60.0601 127.924C60.2871 127.696 60.595 127.567 60.9161 127.567H66.7271C67.0482 127.567 67.3561 127.696 67.5832 127.924C67.8102 128.152 67.9378 128.461 67.9378 128.784C67.9378 129.106 67.8102 129.416 67.5832 129.644C67.3561 129.872 67.0482 130 66.7271 130ZM55.1051 130H49.2941C48.973 130 48.6651 129.872 48.438 129.644C48.211 129.416 48.0834 129.106 48.0834 128.784C48.0834 128.461 48.211 128.152 48.438 127.924C48.6651 127.696 48.973 127.567 49.2941 127.567H55.1051C55.4262 127.567 55.7341 127.696 55.9611 127.924C56.1882 128.152 56.3157 128.461 56.3157 128.784C56.3157 129.106 56.1882 129.416 55.9611 129.644C55.7341 129.872 55.4262 130 55.1051 130ZM43.483 130H37.672C37.3509 130 37.043 129.872 36.816 129.644C36.5889 129.416 36.4614 129.106 36.4614 128.784C36.4614 128.461 36.5889 128.152 36.816 127.924C37.043 127.696 37.3509 127.567 37.672 127.567H43.483C43.8041 127.567 44.112 127.696 44.3391 127.924C44.5661 128.152 44.6937 128.461 44.6937 128.784C44.6937 129.106 44.5661 129.416 44.3391 129.644C44.112 129.872 43.8041 130 43.483 130ZM31.861 130H26.0499C25.7289 130 25.4209 129.872 25.1939 129.644C24.9669 129.416 24.8393 129.106 24.8393 128.784C24.8393 128.461 24.9669 128.152 25.1939 127.924C25.4209 127.696 25.7289 127.567 26.0499 127.567H31.861C32.1821 127.567 32.49 127.696 32.717 127.924C32.9441 128.152 33.0716 128.461 33.0716 128.784C33.0716 129.106 32.9441 129.416 32.717 129.644C32.49 129.872 32.1821 130 31.861 130ZM20.2389 130H14.4279C14.1068 130 13.7989 129.872 13.5719 129.644C13.3448 129.416 13.2173 129.106 13.2173 128.784C13.2173 128.461 13.3448 128.152 13.5719 127.924C13.7989 127.696 14.1068 127.567 14.4279 127.567H20.2389C20.56 127.567 20.8679 127.696 21.095 127.924C21.322 128.152 21.4496 128.461 21.4496 128.784C21.4496 129.106 21.322 129.416 21.095 129.644C20.8679 129.872 20.56 130 20.2389 130ZM8.61687 130H7.90985C7.58877 130 7.28084 129.872 7.05381 129.644C6.82677 129.416 6.69922 129.106 6.69922 128.784V122.946C6.69922 122.623 6.82677 122.314 7.05381 122.086C7.28084 121.857 7.58877 121.729 7.90985 121.729C8.23093 121.729 8.53885 121.857 8.76589 122.086C8.99293 122.314 9.12048 122.623 9.12048 122.946V127.679C9.37078 127.795 9.57418 127.994 9.69704 128.242C9.81989 128.49 9.85483 128.772 9.79611 129.043C9.73739 129.313 9.5885 129.556 9.37407 129.73C9.15965 129.904 8.89253 129.999 8.61687 130ZM130.489 129.839C130.168 129.839 129.86 129.711 129.633 129.483C129.406 129.255 129.278 128.946 129.278 128.623V122.785C129.278 122.463 129.406 122.153 129.633 121.925C129.86 121.697 130.168 121.569 130.489 121.569C130.81 121.569 131.118 121.697 131.345 121.925C131.572 122.153 131.699 122.463 131.699 122.785V128.623C131.699 128.946 131.572 129.255 131.345 129.483C131.118 129.711 130.81 129.839 130.489 129.839ZM7.90985 118.324C7.58877 118.324 7.28084 118.196 7.05381 117.968C6.82677 117.739 6.69922 117.43 6.69922 117.108V111.269C6.69922 110.947 6.82677 110.637 7.05381 110.409C7.28084 110.181 7.58877 110.053 7.90985 110.053C8.23093 110.053 8.53885 110.181 8.76589 110.409C8.99293 110.637 9.12048 110.947 9.12048 111.269V117.108C9.12048 117.43 8.99293 117.739 8.76589 117.968C8.53885 118.196 8.23093 118.324 7.90985 118.324ZM130.489 118.163C130.168 118.163 129.86 118.035 129.633 117.807C129.406 117.579 129.278 117.27 129.278 116.947V111.109C129.278 110.786 129.406 110.477 129.633 110.249C129.86 110.021 130.168 109.893 130.489 109.893C130.81 109.893 131.118 110.021 131.345 110.249C131.572 110.477 131.699 110.786 131.699 111.109V116.947C131.699 117.27 131.572 117.579 131.345 117.807C131.118 118.035 130.81 118.163 130.489 118.163ZM7.90985 106.648C7.58877 106.648 7.28084 106.519 7.05381 106.291C6.82677 106.063 6.69922 105.754 6.69922 105.431V99.5932C6.69922 99.2706 6.82677 98.9612 7.05381 98.7331C7.28084 98.5051 7.58877 98.3769 7.90985 98.3769C8.23093 98.3769 8.53885 98.5051 8.76589 98.7331C8.99293 98.9612 9.12048 99.2706 9.12048 99.5932V105.431C9.12048 105.754 8.99293 106.063 8.76589 106.291C8.53885 106.519 8.23093 106.648 7.90985 106.648ZM130.489 106.487C130.168 106.487 129.86 106.359 129.633 106.131C129.406 105.903 129.278 105.593 129.278 105.271V99.4327C129.278 99.1101 129.406 98.8007 129.633 98.5726C129.86 98.3445 130.168 98.2164 130.489 98.2164C130.81 98.2164 131.118 98.3445 131.345 98.5726C131.572 98.8007 131.699 99.1101 131.699 99.4327V105.271C131.699 105.593 131.572 105.903 131.345 106.131C131.118 106.359 130.81 106.487 130.489 106.487ZM7.90985 94.9714C7.58877 94.9714 7.28084 94.8433 7.05381 94.6152C6.82677 94.3871 6.69922 94.0777 6.69922 93.7551V87.917C6.69922 87.5944 6.82677 87.285 7.05381 87.0569C7.28084 86.8288 7.58877 86.7007 7.90985 86.7007C8.23093 86.7007 8.53885 86.8288 8.76589 87.0569C8.99293 87.285 9.12048 87.5944 9.12048 87.917V93.7551C9.12048 94.0777 8.99293 94.3871 8.76589 94.6152C8.53885 94.8433 8.23093 94.9714 7.90985 94.9714ZM130.489 94.8109C130.168 94.8109 129.86 94.6827 129.633 94.4546C129.406 94.2265 129.278 93.9172 129.278 93.5946V87.7565C129.278 87.4339 129.406 87.1245 129.633 86.8964C129.86 86.6683 130.168 86.5402 130.489 86.5402C130.81 86.5402 131.118 86.6683 131.345 86.8964C131.572 87.1245 131.699 87.4339 131.699 87.7565V93.5946C131.699 93.9172 131.572 94.2265 131.345 94.4546C131.118 94.6827 130.81 94.8109 130.489 94.8109ZM7.90985 83.2952C7.58877 83.2952 7.28084 83.1671 7.05381 82.939C6.82677 82.7109 6.69922 82.4015 6.69922 82.0789V76.2408C6.69922 75.9182 6.82677 75.6088 7.05381 75.3807C7.28084 75.1526 7.58877 75.0245 7.90985 75.0245C8.23093 75.0245 8.53885 75.1526 8.76589 75.3807C8.99293 75.6088 9.12048 75.9182 9.12048 76.2408V82.0789C9.12048 82.4015 8.99293 82.7109 8.76589 82.939C8.53885 83.1671 8.23093 83.2952 7.90985 83.2952ZM130.489 83.1346C130.168 83.1346 129.86 83.0065 129.633 82.7784C129.406 82.5503 129.278 82.241 129.278 81.9184V76.0803C129.278 75.7577 129.406 75.4483 129.633 75.2202C129.86 74.9921 130.168 74.864 130.489 74.864C130.81 74.864 131.118 74.9921 131.345 75.2202C131.572 75.4483 131.699 75.7577 131.699 76.0803V81.9184C131.699 82.241 131.572 82.5503 131.345 82.7784C131.118 83.0065 130.81 83.1346 130.489 83.1346ZM7.90985 71.619C7.58877 71.619 7.28084 71.4908 7.05381 71.2627C6.82677 71.0346 6.69922 70.7253 6.69922 70.4027V64.5646C6.69922 64.242 6.82677 63.9327 7.05381 63.7046C7.28084 63.4765 7.58877 63.3483 7.90985 63.3483C8.23093 63.3483 8.53885 63.4765 8.76589 63.7046C8.99293 63.9327 9.12048 64.242 9.12048 64.5646V70.4027C9.12048 70.7253 8.99293 71.0346 8.76589 71.2627C8.53885 71.4908 8.23093 71.619 7.90985 71.619ZM130.489 71.4584C130.168 71.4584 129.86 71.3303 129.633 71.1022C129.406 70.8741 129.278 70.5647 129.278 70.2421V64.404C129.278 64.0815 129.406 63.7721 129.633 63.544C129.86 63.3159 130.168 63.1878 130.489 63.1878C130.81 63.1878 131.118 63.3159 131.345 63.544C131.572 63.7721 131.699 64.0815 131.699 64.404V70.2421C131.699 70.5647 131.572 70.8741 131.345 71.1022C131.118 71.3303 130.81 71.4584 130.489 71.4584ZM7.90985 59.9428C7.58877 59.9428 7.28084 59.8146 7.05381 59.5865C6.82677 59.3584 6.69922 59.0491 6.69922 58.7265V52.8884C6.69922 52.5658 6.82677 52.2564 7.05381 52.0284C7.28084 51.8003 7.58877 51.6721 7.90985 51.6721C8.23093 51.6721 8.53885 51.8003 8.76589 52.0284C8.99293 52.2564 9.12048 52.5658 9.12048 52.8884V58.7265C9.12048 59.0491 8.99293 59.3584 8.76589 59.5865C8.53885 59.8146 8.23093 59.9428 7.90985 59.9428ZM130.489 59.7822C130.168 59.7822 129.86 59.6541 129.633 59.426C129.406 59.1979 129.278 58.8885 129.278 58.5659V52.7278C129.278 52.4053 129.406 52.0959 129.633 51.8678C129.86 51.6397 130.168 51.5116 130.489 51.5116C130.81 51.5116 131.118 51.6397 131.345 51.8678C131.572 52.0959 131.699 52.4053 131.699 52.7278V58.5659C131.699 58.8885 131.572 59.1979 131.345 59.426C131.118 59.6541 130.81 59.7822 130.489 59.7822ZM7.90985 48.2665C7.58877 48.2665 7.28084 48.1384 7.05381 47.9103C6.82677 47.6822 6.69922 47.3729 6.69922 47.0503V41.2122C6.69922 40.8896 6.82677 40.5802 7.05381 40.3521C7.28084 40.124 7.58877 39.9959 7.90985 39.9959C8.23093 39.9959 8.53885 40.124 8.76589 40.3521C8.99293 40.5802 9.12048 40.8896 9.12048 41.2122V47.0503C9.12048 47.3729 8.99293 47.6822 8.76589 47.9103C8.53885 48.1384 8.23093 48.2665 7.90985 48.2665ZM130.489 48.106C130.168 48.106 129.86 47.9778 129.633 47.7498C129.406 47.5217 129.278 47.2123 129.278 46.8897V41.0516C129.278 40.729 129.406 40.4197 129.633 40.1916C129.86 39.9635 130.168 39.8353 130.489 39.8353C130.81 39.8353 131.118 39.9635 131.345 40.1916C131.572 40.4197 131.699 40.729 131.699 41.0516V46.8897C131.699 47.2123 131.572 47.5217 131.345 47.7498C131.118 47.9778 130.81 48.106 130.489 48.106ZM7.90985 36.5903C7.58877 36.5903 7.28084 36.4622 7.05381 36.2341C6.82677 36.006 6.69922 35.6966 6.69922 35.3741V29.536C6.69922 29.2134 6.82677 28.904 7.05381 28.6759C7.28084 28.4478 7.58877 28.3197 7.90985 28.3197C8.23093 28.3197 8.53885 28.4478 8.76589 28.6759C8.99293 28.904 9.12048 29.2134 9.12048 29.536V35.3741C9.12048 35.6966 8.99293 36.006 8.76589 36.2341C8.53885 36.4622 8.23093 36.5903 7.90985 36.5903ZM130.489 36.4298C130.168 36.4298 129.86 36.3016 129.633 36.0735C129.406 35.8455 129.278 35.5361 129.278 35.2135V29.3754C129.278 29.0528 129.406 28.7435 129.633 28.5154C129.86 28.2873 130.168 28.1591 130.489 28.1591C130.81 28.1591 131.118 28.2873 131.345 28.5154C131.572 28.7435 131.699 29.0528 131.699 29.3754V35.2135C131.699 35.5361 131.572 35.8455 131.345 36.0735C131.118 36.3016 130.81 36.4298 130.489 36.4298ZM7.90985 24.9141C7.58877 24.9141 7.28084 24.786 7.05381 24.5579C6.82677 24.3298 6.69922 24.0204 6.69922 23.6979V17.8598C6.69922 17.5372 6.82677 17.2278 7.05381 16.9997C7.28084 16.7716 7.58877 16.6435 7.90985 16.6435C8.23093 16.6435 8.53885 16.7716 8.76589 16.9997C8.99293 17.2278 9.12048 17.5372 9.12048 17.8598V23.6979C9.12048 24.0204 8.99293 24.3298 8.76589 24.5579C8.53885 24.786 8.23093 24.9141 7.90985 24.9141ZM130.489 24.7536C130.168 24.7536 129.86 24.6254 129.633 24.3973C129.406 24.1692 129.278 23.8599 129.278 23.5373V17.6992C129.278 17.3766 129.406 17.0673 129.633 16.8392C129.86 16.6111 130.168 16.4829 130.489 16.4829C130.81 16.4829 131.118 16.6111 131.345 16.8392C131.572 17.0673 131.699 17.3766 131.699 17.6992V23.5373C131.699 23.8599 131.572 24.1692 131.345 24.3973C131.118 24.6254 130.81 24.7536 130.489 24.7536ZM130.135 13.4325H124.324C124.003 13.4325 123.695 13.3044 123.468 13.0763C123.241 12.8482 123.113 12.5388 123.113 12.2163C123.113 11.8937 123.241 11.5843 123.468 11.3562C123.695 11.1281 124.003 11 124.324 11H130.135C130.456 11 130.764 11.1281 130.991 11.3562C131.218 11.5843 131.346 11.8937 131.346 12.2163C131.346 12.5388 131.218 12.8482 130.991 13.0763C130.764 13.3044 130.456 13.4325 130.135 13.4325ZM118.513 13.4325H112.702C112.381 13.4325 112.073 13.3044 111.846 13.0763C111.619 12.8482 111.491 12.5388 111.491 12.2163C111.491 11.8937 111.619 11.5843 111.846 11.3562C112.073 11.1281 112.381 11 112.702 11H118.513C118.834 11 119.142 11.1281 119.369 11.3562C119.596 11.5843 119.724 11.8937 119.724 12.2163C119.724 12.5388 119.596 12.8482 119.369 13.0763C119.142 13.3044 118.834 13.4325 118.513 13.4325ZM106.891 13.4325H101.08C100.759 13.4325 100.451 13.3044 100.224 13.0763C99.9969 12.8482 99.8694 12.5388 99.8694 12.2163C99.8694 11.8937 99.9969 11.5843 100.224 11.3562C100.451 11.1281 100.759 11 101.08 11H106.891C107.212 11 107.52 11.1281 107.747 11.3562C107.974 11.5843 108.102 11.8937 108.102 12.2163C108.102 12.5388 107.974 12.8482 107.747 13.0763C107.52 13.3044 107.212 13.4325 106.891 13.4325ZM95.269 13.4325H89.4579C89.1369 13.4325 88.8289 13.3044 88.6019 13.0763C88.3749 12.8482 88.2473 12.5388 88.2473 12.2163C88.2473 11.8937 88.3749 11.5843 88.6019 11.3562C88.8289 11.1281 89.1369 11 89.4579 11H95.269C95.59 11 95.898 11.1281 96.125 11.3562C96.352 11.5843 96.4796 11.8937 96.4796 12.2163C96.4796 12.5388 96.352 12.8482 96.125 13.0763C95.898 13.3044 95.59 13.4325 95.269 13.4325ZM83.6469 13.4325H77.8359C77.5148 13.4325 77.2069 13.3044 76.9798 13.0763C76.7528 12.8482 76.6253 12.5388 76.6253 12.2163C76.6253 11.8937 76.7528 11.5843 76.9798 11.3562C77.2069 11.1281 77.5148 11 77.8359 11H83.6469C83.968 11 84.2759 11.1281 84.503 11.3562C84.73 11.5843 84.8575 11.8937 84.8575 12.2163C84.8575 12.5388 84.73 12.8482 84.503 13.0763C84.2759 13.3044 83.968 13.4325 83.6469 13.4325ZM72.0249 13.4325H66.2138C65.8927 13.4325 65.5848 13.3044 65.3578 13.0763C65.1307 12.8482 65.0032 12.5388 65.0032 12.2163C65.0032 11.8937 65.1307 11.5843 65.3578 11.3562C65.5848 11.1281 65.8927 11 66.2138 11H72.0249C72.3459 11 72.6539 11.1281 72.8809 11.3562C73.1079 11.5843 73.2355 11.8937 73.2355 12.2163C73.2355 12.5388 73.1079 12.8482 72.8809 13.0763C72.6539 13.3044 72.3459 13.4325 72.0249 13.4325ZM60.4028 13.4325H54.5918C54.2707 13.4325 53.9628 13.3044 53.7357 13.0763C53.5087 12.8482 53.3811 12.5388 53.3811 12.2163C53.3811 11.8937 53.5087 11.5843 53.7357 11.3562C53.9628 11.1281 54.2707 11 54.5918 11H60.4028C60.7239 11 61.0318 11.1281 61.2588 11.3562C61.4859 11.5843 61.6134 11.8937 61.6134 12.2163C61.6134 12.5388 61.4859 12.8482 61.2588 13.0763C61.0318 13.3044 60.7239 13.4325 60.4028 13.4325ZM48.7807 13.4325H42.9697C42.6486 13.4325 42.3407 13.3044 42.1137 13.0763C41.8866 12.8482 41.7591 12.5388 41.7591 12.2163C41.7591 11.8937 41.8866 11.5843 42.1137 11.3562C42.3407 11.1281 42.6486 11 42.9697 11H48.7807C49.1018 11 49.4098 11.1281 49.6368 11.3562C49.8638 11.5843 49.9914 11.8937 49.9914 12.2163C49.9914 12.5388 49.8638 12.8482 49.6368 13.0763C49.4098 13.3044 49.1018 13.4325 48.7807 13.4325ZM37.1587 13.4325H31.3477C31.0266 13.4325 30.7187 13.3044 30.4916 13.0763C30.2646 12.8482 30.137 12.5388 30.137 12.2163C30.137 11.8937 30.2646 11.5843 30.4916 11.3562C30.7187 11.1281 31.0266 11 31.3477 11H37.1587C37.4798 11 37.7877 11.1281 38.0147 11.3562C38.2418 11.5843 38.3693 11.8937 38.3693 12.2163C38.3693 12.5388 38.2418 12.8482 38.0147 13.0763C37.7877 13.3044 37.4798 13.4325 37.1587 13.4325ZM25.5366 13.4325H19.7256C19.4045 13.4325 19.0966 13.3044 18.8696 13.0763C18.6425 12.8482 18.515 12.5388 18.515 12.2163C18.515 11.8937 18.6425 11.5843 18.8696 11.3562C19.0966 11.1281 19.4045 11 19.7256 11H25.5366C25.8577 11 26.1656 11.1281 26.3927 11.3562C26.6197 11.5843 26.7473 11.8937 26.7473 12.2163C26.7473 12.5388 26.6197 12.8482 26.3927 13.0763C26.1656 13.3044 25.8577 13.4325 25.5366 13.4325ZM13.9146 13.4325H8.10356C7.78248 13.4325 7.47456 13.3044 7.24752 13.0763C7.02048 12.8482 6.89293 12.5388 6.89293 12.2163C6.89293 11.8937 7.02048 11.5843 7.24752 11.3562C7.47456 11.1281 7.78248 11 8.10356 11H13.9146C14.2357 11 14.5436 11.1281 14.7706 11.3562C14.9977 11.5843 15.1252 11.8937 15.1252 12.2163C15.1252 12.5388 14.9977 12.8482 14.7706 13.0763C14.5436 13.3044 14.2357 13.4325 13.9146 13.4325Z" fill="#262424"/>
<path d="M114.795 24H23.6036C20.895 24 18.6992 26.164 18.6992 28.8334V112.167C18.6992 114.836 20.895 117 23.6036 117H114.795C117.503 117 119.699 114.836 119.699 112.167V28.8334C119.699 26.164 117.503 24 114.795 24Z" fill="#FEA151"/>
<path d="M112.699 30H25.6992V111H112.699V30Z" fill="white"/>
<path d="M112.699 102.906V111H25.6992V92.6008L41.5249 76.7974C42.0954 76.2276 42.7727 75.7756 43.5182 75.4672C44.2637 75.1588 45.0627 75 45.8696 75C46.6765 75 47.4755 75.1588 48.2209 75.4672C48.9664 75.7756 49.6437 76.2276 50.2142 76.7974L73.4343 99.9848L87.2496 86.1891C87.8201 85.6192 88.4974 85.1672 89.2429 84.8588C89.9883 84.5504 90.7873 84.3916 91.5942 84.3916C92.4011 84.3916 93.2001 84.5504 93.9456 84.8588C94.6911 85.1672 95.3684 85.6192 95.9389 86.1891L112.699 102.906Z" fill="#B0CDFE"/>
<path d="M75.1992 82C78.7891 82 81.6992 78.866 81.6992 75C81.6992 71.134 78.7891 68 75.1992 68C71.6094 68 68.6992 71.134 68.6992 75C68.6992 78.866 71.6094 82 75.1992 82Z" fill="#B0CDFE"/>
<path d="M11.8013 6H2.59716C1.54895 6 0.699219 6.84976 0.699219 7.89797V17.102C0.699219 18.1502 1.54895 19 2.59716 19H11.8013C12.8495 19 13.6992 18.1502 13.6992 17.102V7.89797C13.6992 6.84976 12.8495 6 11.8013 6Z" fill="#B0CDFE"/>
<path d="M72.8013 6H63.5972C62.549 6 61.6992 6.84976 61.6992 7.89797V17.102C61.6992 18.1502 62.549 19 63.5972 19H72.8013C73.8495 19 74.6992 18.1502 74.6992 17.102V7.89797C74.6992 6.84976 73.8495 6 72.8013 6Z" fill="#B0CDFE"/>
<path d="M133.801 6H124.597C123.549 6 122.699 6.84976 122.699 7.89797V17.102C122.699 18.1502 123.549 19 124.597 19H133.801C134.849 19 135.699 18.1502 135.699 17.102V7.89797C135.699 6.84976 134.849 6 133.801 6Z" fill="#B0CDFE"/>
<path d="M11.8013 122H2.59716C1.54895 122 0.699219 122.85 0.699219 123.898V133.102C0.699219 134.15 1.54895 135 2.59716 135H11.8013C12.8495 135 13.6992 134.15 13.6992 133.102V123.898C13.6992 122.85 12.8495 122 11.8013 122Z" fill="#B0CDFE"/>
<path d="M72.8013 122H63.5972C62.549 122 61.6992 122.85 61.6992 123.898V133.102C61.6992 134.15 62.549 135 63.5972 135H72.8013C73.8495 135 74.6992 134.15 74.6992 133.102V123.898C74.6992 122.85 73.8495 122 72.8013 122Z" fill="#B0CDFE"/>
<path d="M133.801 122H124.597C123.549 122 122.699 122.85 122.699 123.898V133.102C122.699 134.15 123.549 135 124.597 135H133.801C134.849 135 135.699 134.15 135.699 133.102V123.898C135.699 122.85 134.849 122 133.801 122Z" fill="#B0CDFE"/>
<path d="M11.8013 64H2.59716C1.54895 64 0.699219 64.8497 0.699219 65.8979V75.102C0.699219 76.1502 1.54895 77 2.59716 77H11.8013C12.8495 77 13.6992 76.1502 13.6992 75.102V65.8979C13.6992 64.8497 12.8495 64 11.8013 64Z" fill="#B0CDFE"/>
<path d="M133.801 64H124.597C123.549 64 122.699 64.8497 122.699 65.8979V75.102C122.699 76.1502 123.549 77 124.597 77H133.801C134.849 77 135.699 76.1502 135.699 75.102V65.8979C135.699 64.8497 134.849 64 133.801 64Z" fill="#B0CDFE"/>
<path d="M176.199 6C175.801 6 175.42 5.87286 175.139 5.64655C174.857 5.42023 174.699 5.11329 174.699 4.79324V1.20676C174.699 0.886706 174.857 0.579765 175.139 0.353454C175.42 0.127143 175.801 0 176.199 0C176.597 0 176.979 0.127143 177.26 0.353454C177.541 0.579765 177.699 0.886706 177.699 1.20676V4.77878C177.701 4.93846 177.664 5.09692 177.59 5.24501C177.516 5.3931 177.406 5.52785 177.266 5.64145C177.127 5.75504 176.96 5.84523 176.777 5.90678C176.594 5.96833 176.398 6.00001 176.199 6Z" fill="#262424"/>
<path d="M181.49 8H177.909C177.588 8 177.28 7.84196 177.054 7.56066C176.827 7.27935 176.699 6.89782 176.699 6.5C176.699 6.10218 176.827 5.72065 177.054 5.43934C177.28 5.15804 177.588 5 177.909 5H181.49C181.81 5 182.118 5.15804 182.345 5.43934C182.572 5.72065 182.699 6.10218 182.699 6.5C182.699 6.89782 182.572 7.27935 182.345 7.56066C182.118 7.84196 181.81 8 181.49 8Z" fill="#262424"/>
<path d="M176.199 13C175.801 13 175.42 12.872 175.139 12.6443C174.857 12.4165 174.699 12.1075 174.699 11.7854V8.21458C174.699 7.89245 174.857 7.58352 175.139 7.35574C175.42 7.12797 175.801 7 176.199 7C176.597 7 176.979 7.12797 177.26 7.35574C177.541 7.58352 177.699 7.89245 177.699 8.21458V11.8097C177.691 12.1276 177.53 12.4304 177.249 12.6529C176.969 12.8755 176.592 13.0001 176.199 13Z" fill="#262424"/>
<path d="M174.49 8H170.909C170.588 8 170.28 7.84196 170.054 7.56066C169.827 7.27935 169.699 6.89782 169.699 6.5C169.699 6.10218 169.827 5.72065 170.054 5.43934C170.28 5.15804 170.588 5 170.909 5H174.49C174.81 5 175.118 5.15804 175.345 5.43934C175.572 5.72065 175.699 6.10218 175.699 6.5C175.699 6.89782 175.572 7.27935 175.345 7.56066C175.118 7.84196 174.81 8 174.49 8Z" fill="#262424"/>
</svg>
