<svg width="21" height="19" viewBox="0 0 21 19" fill="none" xmlns="http://www.w3.org/2000/svg">
<path d="M10.6992 8C10.434 8 10.1797 7.87275 9.99211 7.64626C9.80458 7.41977 9.69922 7.11258 9.69922 6.79227V1.20773C9.69922 0.88742 9.80458 0.580232 9.99211 0.353739C10.1797 0.127245 10.434 0 10.6992 0C10.9644 0 11.2188 0.127245 11.4063 0.353739C11.5939 0.580232 11.6992 0.88742 11.6992 1.20773V6.80193C11.6971 7.12056 11.5908 7.42527 11.4035 7.64968C11.2162 7.87409 10.9631 8.00001 10.6992 8Z" fill="#262424"/>
<path d="M19.4929 11H13.9055C13.5856 11 13.2788 10.8946 13.0525 10.7071C12.8263 10.5196 12.6992 10.2652 12.6992 10C12.6992 9.73478 12.8263 9.48043 13.0525 9.2929C13.2788 9.10536 13.5856 9 13.9055 9H19.4929C19.8129 9 20.1197 9.10536 20.3459 9.2929C20.5721 9.48043 20.6992 9.73478 20.6992 10C20.6992 10.2652 20.5721 10.5196 20.3459 10.7071C20.1197 10.8946 19.8129 11 19.4929 11Z" fill="#262424"/>
<path d="M10.6992 19C10.434 19 10.1797 18.8729 9.99211 18.6467C9.80458 18.4205 9.69922 18.1136 9.69922 17.7937V12.2063C9.69922 11.8863 9.80458 11.5795 9.99211 11.3533C10.1797 11.1271 10.434 11 10.6992 11C10.9644 11 11.2188 11.1271 11.4063 11.3533C11.5939 11.5795 11.6992 11.8863 11.6992 12.2063V17.7937C11.6992 17.9521 11.6734 18.109 11.6231 18.2554C11.5728 18.4017 11.4992 18.5347 11.4063 18.6467C11.3135 18.7587 11.2032 18.8476 11.0819 18.9082C10.9606 18.9688 10.8305 19 10.6992 19Z" fill="#262424"/>
<path d="M8.34134 11H2.0571C1.69696 11 1.35157 10.8946 1.09692 10.7071C0.842267 10.5196 0.699219 10.2652 0.699219 10C0.699219 9.73478 0.842267 9.48043 1.09692 9.2929C1.35157 9.10536 1.69696 9 2.0571 9H8.34134C8.70147 9 9.04687 9.10536 9.30152 9.2929C9.55617 9.48043 9.69922 9.73478 9.69922 10C9.69922 10.2652 9.55617 10.5196 9.30152 10.7071C9.04687 10.8946 8.70147 11 8.34134 11Z" fill="#262424"/>
</svg>
