<svg width="45" height="46" viewBox="0 0 45 46" fill="none" xmlns="http://www.w3.org/2000/svg">
<path d="M20.7179 24.8005C21.214 25.2402 21.5494 25.8204 21.6502 26.4135C21.751 27.0066 21.6089 27.5639 21.2553 27.9629L15.0794 34.9314C14.7258 35.3304 14.1896 35.5384 13.5887 35.5096C12.9878 35.4808 12.3715 35.2175 11.8753 34.7778C11.3792 34.3381 11.0438 33.7579 10.943 33.1648C10.8423 32.5717 10.9843 32.0144 11.3379 31.6154L17.5138 24.6469C17.8674 24.2479 18.4037 24.0399 19.0045 24.0687C19.6054 24.0975 20.2217 24.3607 20.7179 24.8005Z" fill="#262424"/>
<path d="M13.6869 11.8917L20.6554 18.0676C21.0544 18.4212 21.3206 18.8918 21.3955 19.3757C21.4703 19.8596 21.3477 20.3173 21.0545 20.6481C20.7614 20.9789 20.3217 21.1556 19.8323 21.1395C19.3429 21.1233 18.8438 20.9156 18.4448 20.5619L11.4763 14.386C11.0773 14.0324 10.8111 13.5619 10.7362 13.0779C10.6614 12.594 10.784 12.1363 11.0772 11.8055C11.3703 11.4748 11.81 11.298 12.2994 11.3142C12.7888 11.3303 13.2879 11.5381 13.6869 11.8917Z" fill="#262424"/>
<path d="M32.8741 11.0817C33.3703 11.5214 33.7057 12.1017 33.8065 12.6948C33.9073 13.2878 33.7652 13.8451 33.4116 14.2441L27.2357 21.2126C26.882 21.6116 26.3459 21.8196 25.745 21.7908C25.1441 21.762 24.5277 21.4988 24.0316 21.0591C23.5354 20.6193 23.2001 20.0391 23.0993 19.4461C22.9985 18.853 23.1405 18.2957 23.4941 17.8967L29.6701 10.9282C30.0237 10.5292 30.5599 10.3212 31.1608 10.35C31.7617 10.3788 32.378 10.642 32.8741 11.0817Z" fill="#262424"/>
<path d="M27.4091 24.0535L34.3737 30.2259C34.7728 30.5796 35.0392 31.0503 35.1141 31.5343C35.189 32.0183 35.0664 32.476 34.7733 32.8068C34.4801 33.1376 34.0404 33.3143 33.5509 33.298C33.0614 33.2818 32.5622 33.074 32.1631 32.7202L25.1925 26.5425C24.9951 26.367 24.8284 26.1611 24.7018 25.9364C24.5752 25.7117 24.4912 25.4727 24.4546 25.2331C24.4179 24.9935 24.4295 24.7579 24.4884 24.5397C24.5474 24.3216 24.6526 24.1252 24.7981 23.9617C24.9437 23.7983 25.1267 23.6711 25.3367 23.5872C25.5467 23.5034 25.7795 23.4646 26.022 23.4731C26.2644 23.4816 26.5117 23.5373 26.7497 23.6369C26.9877 23.7364 27.2118 23.878 27.4091 24.0535Z" fill="#262424"/>
</svg>
