<svg width="70" height="69" viewBox="0 0 70 69" fill="none" xmlns="http://www.w3.org/2000/svg">
<path d="M35.1992 69C54.2531 69 69.6992 53.5538 69.6992 34.5C69.6992 15.4462 54.2531 0 35.1992 0C16.1454 0 0.699219 15.4462 0.699219 34.5C0.699219 53.5538 16.1454 69 35.1992 69Z" fill="#B0CDFE"/>
<path d="M31.3731 46.2804C30.8868 46.2801 30.4084 46.1574 29.9816 45.9237C29.5549 45.69 29.1935 45.3526 28.9305 44.9425C28.6675 44.5324 28.5113 44.0627 28.4763 43.5764C28.4413 43.0901 28.5285 42.6027 28.7301 42.159L37.2263 23.58C37.4579 23.0722 37.8301 22.6418 38.2987 22.3401C38.7672 22.0383 39.3124 21.8779 39.8693 21.8779C40.3556 21.8782 40.834 22.0009 41.2607 22.2346C41.6875 22.4684 42.0489 22.8057 42.3119 23.2158C42.5749 23.6259 42.7311 24.0956 42.7661 24.5819C42.8011 25.0682 42.7138 25.5555 42.5123 25.9993L34.0366 44.5453C33.8085 45.0625 33.4351 45.5019 32.9622 45.81C32.4892 46.1181 31.9371 46.2815 31.3731 46.2804Z" fill="white"/>
<path d="M20.4945 34.0813L23.7396 37.3535C23.9855 37.6024 24.1529 37.9192 24.2207 38.2641C24.2885 38.609 24.2536 38.9663 24.1204 39.2912C23.9872 39.616 23.7617 39.8938 23.4724 40.0894C23.183 40.285 22.8427 40.3897 22.4945 40.3903C22.0281 40.3874 21.5818 40.198 21.2534 39.8635L16.0756 34.64C16.0021 34.5658 15.9438 34.4778 15.904 34.3809C15.8642 34.284 15.8438 34.1802 15.8438 34.0753C15.8438 33.9704 15.8642 33.8666 15.904 33.7697C15.9438 33.6728 16.0021 33.5848 16.0756 33.5106L21.2534 28.2911C21.5834 27.9571 22.0312 27.7691 22.4985 27.7683C22.8467 27.7689 23.1869 27.8736 23.4763 28.0692C23.7657 28.2648 23.9912 28.5425 24.1244 28.8674C24.2575 29.1922 24.2924 29.5496 24.2247 29.8945C24.1569 30.2393 23.9895 30.5562 23.7435 30.8051L20.4945 34.0813Z" fill="white"/>
<path d="M50.2726 34.0813L46.7031 37.3535C46.4325 37.6024 46.2484 37.9192 46.1738 38.2641C46.0992 38.609 46.1376 38.9663 46.2841 39.2912C46.4306 39.616 46.6787 39.8938 46.997 40.0894C47.3153 40.285 47.6896 40.3897 48.0726 40.3903C48.586 40.3905 49.0785 40.204 49.4422 39.8715L55.1378 34.6479C55.2186 34.5738 55.2828 34.4858 55.3265 34.3889C55.3703 34.292 55.3928 34.1882 55.3928 34.0833C55.3928 33.9784 55.3703 33.8745 55.3265 33.7776C55.2828 33.6808 55.2186 33.5927 55.1378 33.5186L49.4422 28.2911C49.0792 27.9571 48.5866 27.7691 48.0726 27.7683C47.6896 27.7689 47.3153 27.8736 46.997 28.0692C46.6787 28.2648 46.4306 28.5425 46.2841 28.8674C46.1376 29.1922 46.0992 29.5496 46.1738 29.8945C46.2484 30.2393 46.4325 30.5562 46.7031 30.8051L50.2726 34.0813Z" fill="white"/>
</svg>
