<svg width="44" height="44" viewBox="0 0 44 44" fill="none" xmlns="http://www.w3.org/2000/svg">
<path d="M20.8115 42.4C20.8115 42.0687 21.0802 41.8 21.4115 41.8H22.9511C23.2824 41.8 23.5511 42.0687 23.5511 42.4C23.5511 42.7314 23.2824 43 22.9511 43H21.4115C21.0802 43 20.8115 42.7314 20.8115 42.4Z" fill="#37355F" stroke="#37355F" stroke-width="0.4"/>
<path d="M41.2 43H27.394C27.0626 43 26.794 42.7314 26.794 42.4C26.794 42.0686 27.0626 41.8 27.394 41.8H41.2C41.279 41.8008 41.3574 41.7858 41.4306 41.756C41.5037 41.7261 41.5702 41.6819 41.6261 41.6261C41.6819 41.5702 41.7261 41.5037 41.756 41.4306C41.7858 41.3574 41.8008 41.279 41.8 41.2V2.8C41.8 2.64087 41.7368 2.48826 41.6243 2.37574C41.5117 2.26321 41.3591 2.2 41.2 2.2H2.8C2.64087 2.2 2.48826 2.26321 2.37574 2.37574C2.26321 2.48826 2.2 2.64087 2.2 2.8V41.2C2.2 41.3591 2.26321 41.5117 2.37574 41.6243C2.48826 41.7368 2.64087 41.8 2.8 41.8H10.072C10.4034 41.8 10.672 42.0686 10.672 42.4C10.672 42.7314 10.4034 43 10.072 43H2.8C2.32261 43 1.86477 42.8104 1.52721 42.4728C1.18964 42.1352 1 41.6774 1 41.2V2.8C1 2.32261 1.18964 1.86477 1.52721 1.52721C1.86477 1.18964 2.32261 1 2.8 1H41.2C41.6774 1 42.1352 1.18964 42.4728 1.52721C42.8104 1.86477 43 2.32261 43 2.8V41.2C43 41.6774 42.8104 42.1352 42.4728 42.4728C42.1352 42.8104 41.6774 43 41.2 43Z" fill="#37355F" stroke="#37355F" stroke-width="0.4"/>
<path d="M14.8721 42.4C14.8721 42.0687 15.1407 41.8 15.4721 41.8H16.9639C17.2953 41.8 17.5639 42.0687 17.5639 42.4C17.5639 42.7314 17.2953 43 16.9639 43H15.4721C15.1407 43 14.8721 42.7314 14.8721 42.4Z" fill="#37355F" stroke="#37355F" stroke-width="0.4"/>
<path d="M1.59961 11.5479H42.3996V12.7479H1.59961V11.5479Z" fill="#37355F" stroke="#37355F" stroke-width="0.4"/>
<path d="M37.1599 9.24323C36.7167 9.24323 36.2834 9.1118 35.9149 8.86556C35.5464 8.61931 35.2591 8.26931 35.0895 7.85983C34.9199 7.45034 34.8755 6.99975 34.962 6.56503C35.0485 6.13032 35.2619 5.73101 35.5753 5.41761C35.8887 5.1042 36.288 4.89076 36.7227 4.80429C37.1575 4.71782 37.6081 4.7622 38.0175 4.93182C38.427 5.10143 38.777 5.38867 39.0233 5.7572C39.2695 6.12573 39.4009 6.559 39.4009 7.00223C39.4003 7.59639 39.164 8.16602 38.7439 8.58616C38.3237 9.00629 37.7541 9.2426 37.1599 9.24323ZM37.1599 5.96183C36.954 5.96183 36.7527 6.0229 36.5815 6.13731C36.4103 6.25173 36.2769 6.41434 36.1981 6.6046C36.1194 6.79485 36.0988 7.00419 36.139 7.20614C36.1792 7.40809 36.2784 7.59358 36.4241 7.73914C36.5697 7.8847 36.7553 7.9838 36.9572 8.0239C37.1592 8.064 37.3685 8.0433 37.5587 7.96442C37.7489 7.88554 37.9115 7.75201 38.0258 7.58074C38.1401 7.40947 38.2011 7.20815 38.2009 7.00223C38.2006 6.72629 38.0908 6.46176 37.8957 6.2667C37.7005 6.07164 37.4359 5.96199 37.1599 5.96183Z" fill="#37355F" stroke="#37355F" stroke-width="0.4"/>
<path d="M30.598 9.24323C30.1548 9.24335 29.7215 9.11202 29.3528 8.86585C28.9842 8.61967 28.6969 8.26972 28.5272 7.86024C28.3575 7.45076 28.313 7.00015 28.3994 6.5654C28.4858 6.13065 28.6992 5.73129 29.0126 5.41782C29.326 5.10435 29.7253 4.89085 30.16 4.80434C30.5948 4.71782 31.0454 4.76216 31.4549 4.93176C31.8644 5.10136 32.2145 5.38859 32.4607 5.75714C32.707 6.12568 32.8384 6.55898 32.8384 7.00223C32.8377 7.59623 32.6014 8.16569 32.1814 8.58577C31.7614 9.00585 31.192 9.24228 30.598 9.24323ZM30.598 5.96183C30.3921 5.96171 30.1908 6.02268 30.0195 6.13702C29.8482 6.25136 29.7147 6.41394 29.6358 6.60418C29.5569 6.79442 29.5363 7.00378 29.5764 7.20577C29.6166 7.40776 29.7157 7.59331 29.8613 7.73893C30.007 7.88455 30.1925 7.98371 30.3945 8.02386C30.5965 8.06401 30.8059 8.04334 30.9961 7.96448C31.1863 7.88561 31.3489 7.75209 31.4633 7.58081C31.5776 7.40952 31.6386 7.20817 31.6384 7.00223C31.6381 6.7264 31.5284 6.46195 31.3334 6.26691C31.1383 6.07186 30.8739 5.96215 30.598 5.96183Z" fill="#37355F" stroke="#37355F" stroke-width="0.4"/>
<path d="M24.0336 9.24323C23.5903 9.24335 23.157 9.11202 22.7884 8.86585C22.4198 8.61967 22.1325 8.26972 21.9628 7.86024C21.793 7.45076 21.7486 7.00015 21.835 6.5654C21.9214 6.13065 22.1348 5.73129 22.4482 5.41782C22.7615 5.10435 23.1608 4.89085 23.5956 4.80434C24.0303 4.71782 24.4809 4.76216 24.8904 4.93176C25.3 5.10136 25.65 5.38859 25.8963 5.75714C26.1425 6.12568 26.274 6.55898 26.274 7.00223C26.2734 7.59628 26.0371 8.16583 25.6171 8.58594C25.1971 9.00606 24.6276 9.24244 24.0336 9.24323ZM24.0336 5.96183C23.8277 5.96171 23.6263 6.02268 23.455 6.13702C23.2837 6.25136 23.1502 6.41394 23.0713 6.60418C22.9925 6.79442 22.9718 7.00378 23.012 7.20577C23.0521 7.40776 23.1513 7.59331 23.2969 7.73893C23.4425 7.88455 23.6281 7.98371 23.8301 8.02386C24.032 8.06401 24.2414 8.04334 24.4316 7.96448C24.6219 7.88561 24.7845 7.75209 24.8988 7.58081C25.0131 7.40952 25.0741 7.20817 25.074 7.00223C25.0738 6.72635 24.9642 6.46181 24.7691 6.26673C24.574 6.07165 24.3095 5.96199 24.0336 5.96183Z" fill="#37355F" stroke="#37355F" stroke-width="0.4"/>
<path d="M36.0932 35.3992C36.0932 35.9515 35.6454 36.3992 35.0932 36.3992H29.4932V25.3508H35.0932C35.6455 25.3508 36.0932 25.7985 36.0932 26.3508V35.3992ZM30.6932 35.1992H34.8932V26.5508H30.6932V35.1992Z" fill="#37355F" stroke="#37355F" stroke-width="0.4"/>
<path d="M30.6947 36.3993H24.0947V19.1509C24.0947 18.5986 24.5424 18.1509 25.0947 18.1509H29.6947C30.247 18.1509 30.6947 18.5986 30.6947 19.1509V36.3993ZM25.2947 35.1993H29.4947V19.3509H25.2947V35.1993Z" fill="#37355F" stroke="#37355F" stroke-width="0.4"/>
<path d="M25.2953 36.3993H18.6953V22.9509H25.2953V36.3993ZM19.8953 35.1993H24.0953V24.1509H19.8953V35.1993Z" fill="#37355F" stroke="#37355F" stroke-width="0.4"/>
<path d="M19.8939 36.3993H13.2939V19.1509C13.2939 18.5986 13.7417 18.1509 14.2939 18.1509H18.8939C19.4462 18.1509 19.8939 18.5986 19.8939 19.1509V36.3993ZM14.4939 35.1993H18.6939V19.3509H14.4939V35.1993Z" fill="#37355F" stroke="#37355F" stroke-width="0.4"/>
<path d="M14.4945 36.3994H8.89453C8.34225 36.3994 7.89453 35.9517 7.89453 35.3994V29.1626C7.89453 28.6103 8.34225 28.1626 8.89453 28.1626H14.4945V36.3994ZM9.09453 35.1994H13.2945V29.3626H9.09453V35.1994Z" fill="#37355F" stroke="#37355F" stroke-width="0.4"/>
</svg>
