<svg width="26" height="46" viewBox="0 0 26 46" fill="none" xmlns="http://www.w3.org/2000/svg">
<path d="M7.95704 6.39845C7.91603 6.39845 7.83399 6.39845 7.79298 6.39845C7.75196 6.39845 7.66993 6.35743 7.62891 6.35743C7.5879 6.31642 7.50587 6.31642 7.46485 6.27541C7.42383 6.23439 7.38282 6.19337 7.3418 6.15235C7.30078 6.11134 7.25977 6.07033 7.21875 6.02931C7.17774 5.98829 7.17773 5.94728 7.13672 5.86525C7.0957 5.82423 7.0957 5.7422 7.0957 5.70119C7.0957 5.66017 7.0957 5.57813 7.0957 5.53711C7.0957 5.49609 7.0957 5.41407 7.0957 5.37305C7.0957 5.33203 7.13672 5.25 7.13672 5.20899C7.17773 5.16797 7.17774 5.08594 7.21875 5.04492C7.25977 5.00391 7.30078 4.96289 7.3418 4.92187C7.38282 4.88085 7.42383 4.83984 7.46485 4.79883C7.50587 4.75781 7.54688 4.7578 7.62891 4.71679C7.66993 4.67577 7.75196 4.67578 7.79298 4.67578C8.08009 4.63477 8.40822 4.71679 8.6133 4.92187C8.65432 4.96289 8.69533 5.00391 8.73635 5.04492C8.77736 5.08594 8.77736 5.12695 8.81838 5.20899C8.8594 5.25 8.8594 5.33203 8.8594 5.37305C8.8594 5.41407 8.8594 5.49609 8.8594 5.53711C8.8594 5.57813 8.8594 5.66017 8.8594 5.70119C8.8594 5.7422 8.81838 5.82423 8.81838 5.86525C8.77736 5.90626 8.77736 5.98829 8.73635 6.02931C8.69533 6.07033 8.65432 6.11134 8.6133 6.15235C8.40822 6.31642 8.16212 6.39845 7.95704 6.39845Z" fill="#37355F"/>
<path d="M21.6565 0H4.0606C1.84573 0 0 1.80472 0 4.06061V41.6724C0 43.8873 1.80471 45.733 4.0606 45.733H21.6155C23.8304 45.733 25.6761 43.9283 25.6761 41.6724V4.06061C25.7171 1.80472 23.8714 0 21.6565 0ZM4.0606 1.7637H21.6155C22.846 1.7637 23.8714 2.7891 23.8714 4.01959V4.59381H12.2228C11.7306 4.59381 11.3205 5.00398 11.3205 5.49617C11.3205 5.98837 11.7306 6.39852 12.2228 6.39852H23.9124V38.3911H1.80471V6.39852H4.14263C4.63482 6.39852 5.04498 5.98837 5.04498 5.49617C5.04498 5.00398 4.63482 4.59381 4.14263 4.59381H1.80471V4.01959C1.80471 2.7891 2.83011 1.7637 4.0606 1.7637ZM23.9124 41.6724C23.9124 42.9029 22.887 43.9283 21.6565 43.9283H4.0606C2.83011 43.9283 1.80471 42.9029 1.80471 41.6724V40.1958H23.9124V41.6724Z" fill="#37355F"/>
<path d="M10.9923 20.139H4.67579C4.1836 20.139 3.77344 19.7289 3.77344 19.2367V12.9202C3.77344 12.428 4.1836 12.0178 4.67579 12.0178H10.9923C11.4845 12.0178 11.8946 12.428 11.8946 12.9202V19.2367C11.8946 19.7289 11.4845 20.139 10.9923 20.139ZM5.57815 18.3343H10.0899V13.8225H5.57815V18.3343Z" fill="#37355F"/>
<path d="M21.0411 20.139H14.7246C14.2324 20.139 13.8223 19.7289 13.8223 19.2367V12.9202C13.8223 12.428 14.2324 12.0178 14.7246 12.0178H21.0411C21.5333 12.0178 21.9435 12.428 21.9435 12.9202V19.2367C21.9435 19.7289 21.5333 20.139 21.0411 20.139ZM15.627 18.3343H20.1388V13.8225H15.627V18.3343Z" fill="#37355F"/>
<path d="M10.9923 30.0648H4.67579C4.1836 30.0648 3.77344 29.6547 3.77344 29.1625V22.846C3.77344 22.3538 4.1836 21.9436 4.67579 21.9436H10.9923C11.4845 21.9436 11.8946 22.3538 11.8946 22.846V29.1625C11.8946 29.6547 11.4845 30.0648 10.9923 30.0648ZM5.57815 28.3011H10.0899V23.7893H5.57815V28.3011Z" fill="#37355F"/>
<path d="M21.0411 30.0648H14.7246C14.2324 30.0648 13.8223 29.6547 13.8223 29.1625V22.846C13.8223 22.3538 14.2324 21.9436 14.7246 21.9436H21.0411C21.5333 21.9436 21.9435 22.3538 21.9435 22.846V29.1625C21.9435 29.6547 21.5333 30.0648 21.0411 30.0648ZM15.627 28.3011H20.1388V23.7893H15.627V28.3011Z" fill="#37355F"/>
<path d="M13.9454 42.9439H11.7305C11.2383 42.9439 10.8281 42.5337 10.8281 42.0415C10.8281 41.5493 11.2383 41.1392 11.7305 41.1392H13.9454C14.4375 41.1392 14.8477 41.5493 14.8477 42.0415C14.8477 42.5337 14.4375 42.9439 13.9454 42.9439Z" fill="#37355F"/>
<path d="M15.7911 34.0025H9.92579C9.4336 34.0025 9.02344 33.5923 9.02344 33.1001C9.02344 32.6079 9.4336 32.1978 9.92579 32.1978H15.8321C16.3243 32.1978 16.7345 32.6079 16.7345 33.1001C16.6935 33.5923 16.2833 34.0025 15.7911 34.0025Z" fill="#37355F"/>
</svg>
