<svg width="43" height="39" viewBox="0 0 43 39" fill="none" xmlns="http://www.w3.org/2000/svg">
<path d="M5.55157 3.95776H5.54318C5.08673 3.95776 4.7168 4.3277 4.7168 4.78414C4.7168 5.24059 5.08673 5.61052 5.54318 5.61052H5.55157C6.00802 5.61052 6.37795 5.24059 6.37795 4.78414C6.37795 4.3277 6.00802 3.95776 5.55157 3.95776Z" fill="#37355F"/>
<path d="M9.64532 3.95776H9.63693C9.18048 3.95776 8.81055 4.3277 8.81055 4.78414C8.81055 5.24059 9.18048 5.61052 9.63693 5.61052H9.64532C10.1018 5.61052 10.4717 5.24059 10.4717 4.78414C10.4717 4.3277 10.1018 3.95776 9.64532 3.95776Z" fill="#37355F"/>
<path d="M13.7381 3.95776H13.7297C13.2733 3.95776 12.9033 4.3277 12.9033 4.78414C12.9033 5.24059 13.2733 5.61052 13.7297 5.61052H13.7381C14.1945 5.61052 14.5645 5.24059 14.5645 4.78414C14.5645 4.3277 14.1945 3.95776 13.7381 3.95776Z" fill="#37355F"/>
<path d="M36.717 3.95776H20.7736C20.3172 3.95776 19.9473 4.3277 19.9473 4.78414C19.9473 5.24027 20.3172 5.61052 20.7736 5.61052H36.717C37.1734 5.61052 37.5434 5.24027 37.5434 4.78414C37.5434 4.3277 37.1734 3.95776 36.717 3.95776Z" fill="#37355F"/>
<path d="M21.7248 37.3474C21.5076 37.3474 21.2952 37.4359 21.1405 37.5895C20.9869 37.7432 20.8984 37.9565 20.8984 38.1738C20.8984 38.391 20.9869 38.6044 21.1405 38.7581C21.2952 38.9117 21.5076 39.0002 21.7248 39.0002C21.9421 39.0002 22.1554 38.9117 22.3091 38.7581C22.4634 38.6044 22.5512 38.391 22.5512 38.1738C22.5512 37.9565 22.4634 37.7432 22.3091 37.5895C22.1554 37.4359 21.9421 37.3474 21.7248 37.3474Z" fill="#37355F"/>
<path d="M39.6853 0H2.62537C1.17792 0 0 1.17792 0 2.62537V36.3746C0 37.8224 1.17792 39 2.62537 39H18.263C18.7195 39 19.0894 38.6301 19.0894 38.1736C19.0894 37.7172 18.7195 37.3472 18.263 37.3472H2.62537C2.08919 37.3472 1.65276 36.9111 1.65276 36.3746V9.56858H40.6579V36.3746C40.6579 36.9108 40.2215 37.3472 39.6853 37.3472H25.0945C24.6381 37.3472 24.2682 37.7172 24.2682 38.1736C24.2682 38.6301 24.6381 39 25.0945 39H39.6853C41.1328 39 42.3107 37.8224 42.3107 36.3746V2.62537C42.3107 1.17792 41.1328 0 39.6853 0ZM1.65276 7.9155V2.62537C1.65276 2.08919 2.08919 1.65276 2.62537 1.65276H39.6853C40.2215 1.65276 40.6579 2.08919 40.6579 2.62537V7.91582H1.65276V7.9155Z" fill="#37355F"/>
<path d="M8.95626 34.3774H33.3558C33.8122 34.3774 34.1822 34.0074 34.1822 33.551C34.1822 33.0945 33.8122 32.7246 33.3558 32.7246H8.95626C8.50014 32.7246 8.12988 33.0945 8.12988 33.551C8.12988 34.0074 8.50014 34.3774 8.95626 34.3774Z" fill="#37355F"/>
</svg>
