<svg width="46" height="47" viewBox="0 0 46 47" fill="none" xmlns="http://www.w3.org/2000/svg">
<path d="M44.7076 33.3974C43.8463 32.1259 42.3697 31.7978 40.7701 32.5771L39.9087 32.9462C41.2622 30.0751 41.4263 26.9168 40.729 23.8816C39.9497 20.4363 38.104 17.073 35.2329 13.9147C34.9868 13.6276 34.5356 13.6276 34.2485 13.8737C33.9614 14.1198 33.9614 14.571 34.2075 14.8581C36.9145 17.8113 38.6782 20.9695 39.3755 24.1688C40.1138 27.5731 39.7036 31.0595 37.7759 33.8486L29.2855 37.581V36.6377C29.2855 36.5966 29.2855 36.5966 29.2855 36.5556C29.0805 34.5869 27.5628 33.0282 25.6351 32.7411L18.0881 31.8798C15.176 31.4696 14.4377 29.7059 10.5001 28.7215C10.213 26.4246 10.5822 23.9637 11.5666 21.5027C13.0431 17.8113 15.9963 14.2018 20.0569 11.0436C21.5745 12.11 28.3011 12.2331 29.8187 10.8795C30.598 11.4538 31.3363 12.069 32.0336 12.6842C32.1567 12.8073 32.3207 12.8483 32.4848 12.8483C32.6899 12.8483 32.8539 12.7663 32.977 12.6022C33.2231 12.3151 33.2231 11.9049 32.936 11.6178C32.1977 10.9616 31.3774 10.2643 30.516 9.64904C30.7211 8.78771 30.434 7.80332 29.6957 7.2291C31.8285 3.98882 32.4438 1.85598 31.5824 0.748545C31.0082 -0.0307618 30.2699 0.338384 29.9418 0.502449C29.4086 0.748545 29.1215 0.789561 28.6293 0.461432C27.6859 -0.153811 26.7015 -0.153811 25.7581 0.461432C25.2659 0.789561 24.8558 0.789561 24.3636 0.461432C23.4202 -0.153811 22.4358 -0.153811 21.4925 0.461432C21.0003 0.789561 20.7132 0.748545 20.1799 0.502449C19.8518 0.338384 19.1135 -0.0307618 18.5393 0.748545C17.719 1.81496 18.2522 3.90679 20.262 7.02401C20.1389 7.10605 20.0159 7.18808 19.9338 7.27011C19.1545 6.44979 17.842 5.54743 15.9553 5.75251C14.3967 5.91658 13.2482 5.42438 12.5509 4.93219C12.2228 4.72711 11.8127 4.80914 11.6076 5.13727C11.4025 5.4654 11.4845 5.87556 11.8127 6.08064C12.674 6.65487 14.1506 7.31113 16.1194 7.10605C17.5549 6.94198 18.5393 7.68027 19.1545 8.45958C19.1545 8.5006 19.1545 8.50059 19.1135 8.54161C18.5803 8.54161 17.801 8.58263 16.9397 8.78771C14.8478 9.23888 13.3302 10.2233 12.5099 11.6178C12.3048 11.9459 12.4279 12.3561 12.756 12.5612C13.0842 12.7663 13.4943 12.6432 13.6994 12.3151C14.9299 10.1823 18.0061 9.93616 19.1956 9.89514V9.93616C14.8889 13.2585 11.8947 16.9909 10.254 20.9695C9.22863 23.5125 8.81847 26.0145 9.02355 28.4344C8.36729 28.3524 7.71104 28.2704 7.05478 28.2704V27.8602C7.05478 26.7528 6.15243 25.8914 5.08601 25.8914H1.96878C0.861346 25.8914 0 26.7938 0 27.8602V43.7745C0 44.8819 0.902363 45.7432 1.96878 45.7432H5.08601C6.19345 45.7432 7.05478 44.8409 7.05478 43.7745V43.6104L13.9045 46.1534C14.8068 46.4815 15.7912 46.6866 16.7756 46.6866H26.9886C28.5472 46.6866 30.0648 46.2354 31.3773 45.4151C44.9947 36.8017 44.1744 37.3349 44.2154 37.2529C45.3228 36.2685 45.5279 34.6279 44.7076 33.3974ZM28.5472 10.0592C26.0452 10.6744 23.6253 10.6744 21.1233 10.0592C20.0569 9.77209 20.344 7.88535 21.5335 8.17246C23.7894 8.74669 25.9632 8.74669 28.1781 8.17246C29.2855 7.88535 29.6137 9.77209 28.5472 10.0592ZM19.5647 1.73293C19.6057 1.73293 19.6057 1.73293 19.5647 1.73293C20.5081 2.18411 21.3284 2.22513 22.2308 1.60988C23.3792 0.830576 23.5022 2.06106 25.0609 2.06106C25.7992 2.06106 26.2093 1.81496 26.4964 1.60988C26.9886 1.28175 27.3988 1.28175 27.891 1.60988C28.8343 2.22513 29.6137 2.18411 30.557 1.73293C30.6801 2.22513 30.393 3.74272 28.3422 6.77792C27.3167 6.77792 25.8812 7.76231 21.7386 6.81893C19.7698 3.78374 19.4417 2.26614 19.5647 1.73293ZM43.3951 36.1865L30.6801 44.2256C29.5726 44.9229 28.3011 45.2921 27.0296 45.2921H16.8166C15.9963 45.2921 15.176 45.128 14.4377 44.8819L7.13682 42.1748V34.833C7.13682 34.4638 6.8497 34.1357 6.43954 34.1357C6.07039 34.1357 5.74226 34.4228 5.74226 34.833V43.8565C5.74226 44.1846 5.45515 44.4717 5.12702 44.4717H2.0098C1.68167 44.4717 1.39456 44.1846 1.39456 43.8565V27.9422C1.39456 27.6141 1.68167 27.327 2.0098 27.327H5.12702C5.45515 27.327 5.74226 27.6141 5.74226 27.9422V31.6337C5.74226 32.0028 6.02938 32.331 6.43954 32.331C6.80868 32.331 7.13682 32.0439 7.13682 31.6337V29.6649C12.797 29.7059 14.0685 32.7001 17.9241 33.2333L25.471 34.0947C26.7835 34.2997 27.8089 35.3251 27.973 36.6787V37.9912H20.9182C20.5491 37.9912 20.221 38.2783 20.221 38.6885C20.221 39.0576 20.5081 39.3857 20.9182 39.3857H28.6293C28.7113 39.3857 28.8343 39.3857 28.9164 39.3447L41.3443 33.8896C42.2466 33.4794 43.067 33.4384 43.6002 34.2587C44.0103 34.833 43.9283 35.6533 43.3951 36.1865Z" fill="#37355F"/>
<path d="M25.0191 31.0185C25.3882 31.0185 25.7164 30.7314 25.7164 30.3212V29.1728C27.6441 28.8447 28.7515 27.3271 28.9976 25.8505C29.2848 24.0458 28.3414 22.4872 26.5777 21.8309C26.2496 21.7079 25.9625 21.6258 25.7164 21.5028V17.1961C26.5367 17.3191 27.0289 17.7293 27.0289 17.7703C27.316 18.0164 27.7261 18.0164 27.9722 17.7293C28.2183 17.4422 28.2183 17.032 27.9312 16.7449C27.8902 16.7039 27.0289 15.9656 25.6753 15.8015V14.8171C25.6753 14.448 25.3882 14.1199 24.9781 14.1199C24.6089 14.1199 24.2808 14.407 24.2808 14.8171V15.8426C24.1167 15.8836 23.9527 15.9246 23.7886 15.9656C22.6401 16.3347 21.7788 17.3191 21.5327 18.5496C21.3276 19.6981 21.6968 20.7645 22.4761 21.3797C22.9273 21.7489 23.5015 22.077 24.3218 22.4051V27.8193C23.5425 27.7782 23.0503 27.6552 22.189 27.081C21.8608 26.8759 21.4507 26.9579 21.2456 27.2861C21.0405 27.6142 21.1225 28.0243 21.4507 28.2294C22.5581 28.9677 23.2964 29.1318 24.3218 29.1728V30.2392C24.3218 30.7314 24.6089 31.0185 25.0191 31.0185ZM23.3374 20.3543C22.9273 20.0672 22.7632 19.452 22.8862 18.8367C23.0093 18.2625 23.4194 17.5242 24.1988 17.2781C24.2398 17.2781 24.2808 17.2371 24.3218 17.2371V20.9286C23.9116 20.7645 23.5835 20.5594 23.3374 20.3543ZM26.0855 23.1844C27.7672 23.7997 27.6851 25.2352 27.6031 25.6864C27.439 26.5888 26.7828 27.5321 25.6753 27.8193V23.0204C25.8394 23.0614 25.9624 23.1024 26.0855 23.1844Z" fill="#37355F"/>
</svg>
