<svg width="36" height="45" viewBox="0 0 36 45" fill="none" xmlns="http://www.w3.org/2000/svg">
<path d="M1.47658 19.1545C1.31252 18.9905 1.10744 18.9084 0.861341 18.9084C0.615245 18.9084 0.410164 18.9905 0.246099 19.1545C0.0820348 19.3186 0 19.5237 0 19.7698C0 20.0159 0.0820348 20.221 0.246099 20.385C0.410164 20.5491 0.615245 20.6311 0.861341 20.6311C1.10744 20.6311 1.31252 20.5491 1.47658 20.385C1.64065 20.221 1.72268 20.0159 1.72268 19.7698C1.72268 19.5237 1.64065 19.3186 1.47658 19.1545Z" fill="#37355F"/>
<path d="M26.7832 35.561C26.6191 35.397 26.4141 35.3149 26.168 35.3149C25.9219 35.3149 25.7168 35.397 25.5527 35.561C25.3887 35.7251 25.3066 35.9302 25.3066 36.1763C25.3066 36.4224 25.3887 36.6275 25.5527 36.7915C25.7168 36.9556 25.9219 37.0376 26.168 37.0376C26.4141 37.0376 26.6191 36.9556 26.7832 36.7915C26.9473 36.6275 27.0293 36.4224 27.0293 36.1763C27.0293 35.9302 26.9473 35.7251 26.7832 35.561Z" fill="#37355F"/>
<path d="M34.4125 0H4.71686C2.13284 0 0 2.13284 0 4.71686V15.5861C0 16.0783 0.410164 16.4475 0.861341 16.4475C1.31252 16.4475 1.72268 16.0373 1.72268 15.5861V4.71686C1.72268 3.07621 3.0352 1.76369 4.67585 1.76369H33.5102V35.2739H29.6547C29.1625 35.2739 28.7933 35.684 28.7933 36.1352C28.7933 36.5864 29.2035 36.9966 29.6547 36.9966H33.5102V39.0884H4.67585C4.18366 39.0884 3.81451 39.4985 3.81451 39.9497C3.81451 40.4009 4.22467 40.8111 4.67585 40.8111H33.5102V42.9029H4.67585C3.0352 42.9029 1.72268 41.5904 1.72268 39.9497C1.72268 38.3091 3.0352 36.9966 4.67585 36.9966H21.8616C22.3538 36.9966 22.7229 36.5864 22.7229 36.1352C22.7229 35.684 22.3128 35.2739 21.8616 35.2739H4.67585C3.56841 35.2739 2.50199 35.684 1.72268 36.3403V23.2151C1.72268 22.7229 1.31252 22.3538 0.861341 22.3538C0.410164 22.3538 0 22.764 0 23.2151V40.0318C0 42.6158 2.13284 44.7486 4.71686 44.7486H34.4125C34.9047 44.7486 35.2739 44.3384 35.2739 43.8873V0.861341C35.3149 0.369148 34.9047 0 34.4125 0Z" fill="#37355F"/>
</svg>
