<svg width="46" height="46" viewBox="0 0 46 46" fill="none" xmlns="http://www.w3.org/2000/svg">
<path d="M12.3459 8.44933C12.3459 10.5411 14.0685 12.2638 16.1604 12.2638C16.9807 12.2638 17.76 11.9767 18.3342 11.4845C18.4573 11.4025 18.5393 11.2794 18.6623 11.1564C18.9084 10.8693 18.8674 10.4591 18.5803 10.213C18.2932 9.96692 17.883 10.0079 17.6369 10.2951C17.5959 10.3771 17.5139 10.4181 17.4319 10.5001C17.1037 10.7872 16.6525 10.9513 16.1604 10.9513C14.8068 10.9513 13.6994 9.84388 13.6994 8.49035C13.6994 7.13681 14.8068 6.02938 16.1604 6.02938C16.6525 6.02938 17.1447 6.19344 17.5549 6.43954C17.842 6.64462 18.2932 6.56258 18.4983 6.27547C18.7034 5.98836 18.6213 5.53718 18.3342 5.3321C17.719 4.92194 16.9807 4.67584 16.2014 4.67584C14.0275 4.63483 12.3459 6.3575 12.3459 8.44933ZM24.1585 6.93173C24.1585 5.66023 23.0921 4.63482 21.7796 4.63482H20.0979C19.7288 4.63482 19.4416 4.92194 19.4416 5.29109V11.5666C19.4416 11.9357 19.7288 12.2228 20.0979 12.2228C20.4671 12.2228 20.7542 11.9357 20.7542 11.5666V9.47473L22.969 12.0177C23.0921 12.1818 23.2972 12.2638 23.4612 12.2638C23.6253 12.2638 23.7894 12.2228 23.9124 12.0998C24.1995 11.8537 24.1995 11.4435 23.9534 11.1564L22.2307 9.18762C23.3382 8.98254 24.1585 8.03917 24.1585 6.93173ZM21.7796 7.91612C21.5335 7.91612 21.1233 7.91612 20.7952 7.91612C20.7952 7.58799 20.7952 7.17783 20.7952 6.93173C20.7952 6.72665 20.7952 6.31649 20.7952 5.98836H21.7796C22.3538 5.98836 22.846 6.43954 22.846 6.93173C22.805 7.46494 22.3538 7.91612 21.7796 7.91612ZM36.4633 26.2503V23.9944C36.4633 22.1487 34.9868 20.6721 33.141 20.6721H23.3382V16.9397H32.3617C34.2075 16.9397 35.684 15.4631 35.684 13.6174V3.32231C35.684 1.47658 34.2075 0 32.3617 0H19.3596C18.9905 0 18.7034 0.287115 18.7034 0.656261C18.7034 1.02541 18.9905 1.31252 19.3596 1.31252H32.3617C33.4692 1.31252 34.3715 2.21487 34.3715 3.32231V13.6174C34.3715 14.7248 33.4692 15.6271 32.3617 15.6271H13.0021C11.8947 15.6271 10.9923 14.7248 10.9923 13.6174V3.32231C10.9923 2.21487 11.8947 1.31252 13.0021 1.31252H16.6936C17.0627 1.31252 17.3498 1.02541 17.3498 0.656261C17.3498 0.287115 17.0627 0 16.6936 0H13.0021C11.1564 0 9.6798 1.47658 9.6798 3.32231V13.6174C9.6798 15.4631 11.1564 16.9397 13.0021 16.9397H22.0257V20.6721H12.2228C10.3771 20.6721 8.9005 22.1487 8.9005 23.9944V26.2503C3.89653 26.6195 0 30.7621 0 35.8071C0 37.8169 0.615243 39.7036 1.7637 41.3443C3.52739 43.8463 6.52156 45.4049 9.59777 45.4049C14.8068 45.4049 19.1956 41.0982 19.1956 35.8481C19.1956 30.8031 15.258 26.6195 10.295 26.2913V24.0355C10.295 22.928 11.1974 22.0257 12.3048 22.0257H33.2231C34.3305 22.0257 35.2329 22.928 35.2329 24.0355V26.2913C32.1156 26.4964 29.2855 28.2601 27.6449 30.9672C27.4398 31.2953 27.5628 31.7055 27.891 31.8695C28.2191 32.0746 28.6293 31.9516 28.7933 31.6234C30.2699 29.1215 32.977 27.6039 35.8891 27.6039C40.4419 27.6039 44.1334 31.2953 44.1334 35.8481C44.1334 38.227 43.108 40.4009 41.4673 41.9185C41.0572 40.3599 40.0317 39.0064 38.5962 38.2681C39.0063 37.6938 39.2524 36.9966 39.2524 36.2583C39.2524 35.602 39.2524 33.6332 39.2524 32.936C39.2524 31.7055 38.227 30.6801 36.9966 30.6801H34.7407C33.5102 30.6801 32.4848 31.7055 32.4848 32.936V36.2583C32.4848 37.0376 32.7309 37.7349 33.141 38.2681C32.6488 38.5142 32.2387 38.8423 31.8285 39.2114C31.0492 39.9497 30.516 40.8931 30.2699 41.9185C28.6293 40.4009 27.6039 38.2681 27.6039 35.8481C27.6039 35.1918 27.6859 34.5356 27.85 33.9203C27.932 33.5512 27.7269 33.2231 27.3578 33.1C26.9886 33.018 26.6605 33.2231 26.5374 33.5922C26.3734 34.3305 26.2913 35.0688 26.2913 35.8481C26.2913 41.1392 30.6801 45.4459 35.8891 45.4459C41.0982 45.4459 45.4459 41.1802 45.4459 35.8891C45.4049 30.7621 41.4263 26.6195 36.4633 26.2503ZM9.55676 44.0513C7.99815 44.0513 6.43953 43.6002 5.16803 42.7798C5.29108 41.7544 5.74226 40.8111 6.48055 40.1138C6.89071 39.7036 7.42392 39.3755 7.95713 39.1704C8.44932 39.4165 8.98254 39.5806 9.55676 39.5806C10.131 39.5806 10.6642 39.4165 11.1564 39.1704C12.674 39.7446 13.7814 41.1802 13.9455 42.7798C12.674 43.6002 11.1564 44.0513 9.55676 44.0513ZM9.35168 34.7407C10.0079 34.5356 10.7052 34.6176 11.2794 35.0278L11.6076 35.2329V36.1762C11.6076 37.3247 10.7052 38.227 9.55676 38.227C8.40831 38.227 7.50595 37.3247 7.50595 36.1762V35.3559L9.35168 34.7407ZM7.50595 33.9614V32.8539C7.50595 32.3617 7.91611 31.9106 8.44932 31.9106H10.7052C11.1974 31.9106 11.6486 32.3207 11.6486 32.8539V33.6742C10.8283 33.2641 9.88489 33.1821 8.98253 33.5102L7.50595 33.9614ZM17.801 35.8071C17.801 38.186 16.7756 40.3599 15.135 41.8775C14.7248 40.3189 13.6994 38.9653 12.2638 38.186C12.674 37.6118 12.9201 36.9145 12.9201 36.1762V32.8539C12.9201 31.6234 11.8947 30.598 10.6642 30.598H8.40831C7.17782 30.598 6.15242 31.6234 6.15242 32.8539V36.1762C6.15242 36.9555 6.39851 37.6528 6.80868 38.186C6.31648 38.4321 5.90632 38.7602 5.49616 39.1294C4.71685 39.8677 4.18364 40.8111 3.93755 41.8365C3.52738 41.4673 3.11723 41.0161 2.7891 40.5239C1.80471 39.1294 1.2715 37.4888 1.2715 35.7661C1.2715 35.1918 1.31252 34.6176 1.43556 34.0844C2.21487 30.2699 5.61921 27.5218 9.51574 27.5218C14.1096 27.5628 17.801 31.2543 17.801 35.8071ZM33.7563 32.8539C33.7563 32.3617 34.1664 31.9106 34.6996 31.9106H36.9555C37.4477 31.9106 37.8989 32.3207 37.8989 32.8539V33.6742C37.0786 33.2641 36.1352 33.1821 35.2329 33.5102L33.7973 33.9614L33.7563 32.8539ZM33.7563 35.3559L35.602 34.7407C36.2583 34.5356 36.9555 34.6176 37.5298 35.0278L37.8579 35.2329V36.1762C37.8579 37.3247 36.9555 38.227 35.8071 38.227C34.6586 38.227 33.7563 37.3247 33.7563 36.1762V35.3559ZM35.8071 44.0513C34.2075 44.0513 32.6899 43.6002 31.4184 42.7798C31.5414 41.7544 31.9926 40.8111 32.7309 40.1138C33.141 39.7036 33.6742 39.3755 34.2075 39.1704C34.6996 39.4165 35.2329 39.5806 35.8071 39.5806C36.3813 39.5806 36.9145 39.4165 37.4067 39.1704C38.9243 39.7446 40.0317 41.1802 40.1958 42.7798C38.9243 43.6002 37.4067 44.0513 35.8071 44.0513ZM26.4144 11.6486L27.1117 7.71103L28.2601 11.6486C28.2601 11.6486 28.2601 11.6486 28.2601 11.6896C28.3832 12.0177 28.6703 12.2228 29.0394 12.2228C29.4086 12.2228 29.6957 11.9767 29.8187 11.6486C29.8187 11.6486 29.8187 11.6486 29.8187 11.6076L30.9262 7.67002L31.6645 11.6076C31.7465 11.9767 32.0746 12.2228 32.4438 12.1408C32.8129 12.0587 33.059 11.7306 32.977 11.3615L31.8285 5.25007C31.7465 4.88092 31.4594 4.63483 31.0902 4.59381C30.7211 4.59381 30.393 4.79889 30.2699 5.16804C30.2699 5.16804 30.2699 5.16804 30.2699 5.20905L29.0394 9.55676L27.7679 5.20905C27.7679 5.20905 27.7679 5.20905 27.7679 5.16804C27.6449 4.83991 27.3167 4.59381 26.9476 4.63482C26.5785 4.67584 26.2913 4.92194 26.2093 5.29109L25.1019 11.4025C25.0198 11.7716 25.2659 12.0998 25.6351 12.1818C26.0042 12.2638 26.3324 12.0177 26.4144 11.6486Z" fill="#37355F"/>
</svg>
