<svg width="31" height="47" viewBox="0 0 31 47" fill="none" xmlns="http://www.w3.org/2000/svg">
<path d="M26.4843 19.5129C26.4022 19.3078 26.3612 19.1027 26.3612 18.8566L27.0175 11.1456C27.0995 10.2842 26.7714 9.42292 26.1561 8.84869C25.5409 8.23345 24.6796 7.98734 23.8182 8.11039C23.162 8.19242 22.5057 8.3975 21.9315 8.72563C21.8905 8.6436 21.8494 8.60258 21.7674 8.52055C20.5779 7.08499 18.4451 6.92092 17.0095 8.11039L11.8415 12.4581V11.4737C11.8415 11.3917 11.8825 11.3507 11.9235 11.2686L12.99 9.71002C13.195 9.4229 13.113 9.01275 12.8259 8.80767C12.5388 8.60259 12.1286 8.68462 11.9235 8.97173L10.8571 10.5303C10.652 10.8175 10.57 11.1456 10.57 11.4737V13.5655L6.42737 17.0109V10.7764C6.42737 10.0792 6.63245 9.38189 7.04261 8.76665L10.8161 3.22947C11.1442 2.7783 11.5954 2.45017 12.1286 2.36813C12.6618 2.2861 13.236 2.36814 13.6872 2.69627C14.1384 3.0244 14.4665 3.47557 14.5486 4.00878C14.6306 4.54199 14.5486 5.11622 14.2204 5.5674L13.5232 6.5928C13.3181 6.87992 13.4001 7.29007 13.6872 7.49515C13.9743 7.70023 14.3845 7.6182 14.5896 7.33109L15.2869 6.30568C15.779 5.56739 15.9841 4.66503 15.8201 3.76268C15.656 2.86032 15.1638 2.12204 14.3845 1.58883C13.6462 1.09664 12.7439 0.89156 11.8415 1.05562C10.9391 1.21969 10.2009 1.71188 9.66764 2.49119L5.89416 8.02837C5.36095 8.84869 5.03282 9.79205 5.03282 10.7764V18.1183L3.06405 19.8C1.62849 20.9895 0.890196 22.7942 1.01324 24.6809L1.42341 30.054C1.46442 30.3822 1.75153 30.6693 2.07966 30.6693H2.12068C2.48982 30.6283 2.77694 30.3411 2.73592 29.972L2.32576 24.5989C2.20271 23.1633 2.81795 21.7688 3.88437 20.8664L17.8299 9.21783C18.6912 8.47954 20.0037 8.60259 20.742 9.46393C21.4803 10.3253 21.3572 11.6378 20.4959 12.3761L13.236 18.4054C12.7849 18.5285 12.3337 18.7336 11.9646 19.0617L8.43716 22.1379C8.15005 22.384 8.15005 22.7942 8.35513 23.0813C8.60123 23.3684 9.01139 23.3684 9.2985 23.1633L12.8259 20.0871C13.4411 19.5539 14.3435 19.5539 14.9587 20.0871L20.3318 24.6399C20.742 25.009 20.9881 25.5012 21.0701 26.0344C21.1111 26.5676 20.9471 27.1009 20.5779 27.552C20.3318 27.8391 19.9627 28.0853 19.5935 28.2083L15.8201 25.009C14.7126 24.0657 13.072 24.0657 11.9646 25.0501L8.43716 28.1263C8.15005 28.3724 8.15005 28.7825 8.35513 29.0696C8.60123 29.3568 9.01139 29.3568 9.2985 29.1517L12.8259 26.0755C13.4411 25.5423 14.3435 25.5423 14.9587 26.0755L20.3318 30.6282C20.742 30.9974 20.9881 31.4896 21.0701 32.0228C21.1111 32.556 20.9471 33.0892 20.5779 33.5404C20.2088 33.9506 19.7166 34.1967 19.1834 34.2787C18.6502 34.3197 18.117 34.1556 17.6658 33.7865L14.3435 30.9564C14.0974 30.7513 13.6872 30.7513 13.4411 30.9974L12.4567 31.9818C12.2106 32.2279 12.2106 32.6791 12.4567 32.9252C12.7028 33.1713 13.154 33.1713 13.4001 32.9252L13.9743 32.3509L16.8455 34.7709C17.4607 35.3041 18.24 35.5912 19.0193 35.5912C19.1014 35.5912 19.2244 35.5912 19.3064 35.5912C20.2088 35.5092 21.0291 35.099 21.6033 34.4017C22.1776 33.7045 22.4647 32.8431 22.3826 31.9408C22.3006 31.0384 21.8905 30.2181 21.1932 29.6439L20.701 29.2337C21.0291 29.0286 21.3162 28.7825 21.5623 28.4954C22.7518 27.0598 22.5877 24.927 21.1932 23.7375L18.8142 21.7277L20.2498 14.3859L21.3162 13.4835C22.0135 12.9093 22.4237 12.089 22.5057 11.1866C22.5467 10.8175 22.5057 10.4483 22.4237 10.1202C22.8748 9.83307 23.4081 9.66901 23.9413 9.58698C24.3924 9.50494 24.8436 9.66901 25.2128 9.99714C25.5409 10.3253 25.705 10.7764 25.705 11.2276L25.0487 18.9387C25.0077 19.3898 25.0897 19.841 25.2948 20.2512L26.4843 22.6711C27.9608 25.7473 28.0019 29.2747 26.6073 32.3919L25.869 34.0736C25.705 34.4017 25.869 34.8119 26.1971 34.9349C26.2792 34.976 26.3612 34.976 26.4843 34.976C26.7304 34.976 26.9765 34.8119 27.0995 34.5658L27.8378 32.8841C29.3964 29.3978 29.3554 25.4602 27.6737 22.0149L26.4843 19.5129ZM17.6658 20.5793L15.8201 19.0207C15.574 18.8156 15.3279 18.6516 15.0818 18.5695L18.6502 15.5753L17.6658 20.5793Z" fill="#37355F" stroke="#37355F" stroke-width="0.5" stroke-miterlimit="10"/>
<path d="M25.5821 36.2065C25.2539 36.0424 24.8438 36.2064 24.7207 36.5346L23.0391 40.3081C22.998 40.3901 22.998 40.4721 22.998 40.5952V45.5991C22.998 45.9683 23.2852 46.2554 23.6543 46.2554C24.0235 46.2554 24.3106 45.9683 24.3106 45.5991V40.7182L25.9512 37.0678C26.0743 36.7397 25.9102 36.3705 25.5821 36.2065Z" fill="#37355F" stroke="#37355F" stroke-width="0.5" stroke-miterlimit="10"/>
<path d="M21.7266 5.11626C22.0957 5.11626 22.3828 4.82915 22.3828 4.46V1.67091C22.3828 1.30176 22.0957 1.01465 21.7266 1.01465C21.3574 1.01465 21.0703 1.30176 21.0703 1.67091V4.46C21.0703 4.82915 21.3574 5.11626 21.7266 5.11626Z" fill="#37355F" stroke="#37355F" stroke-width="0.5" stroke-miterlimit="10"/>
<path d="M24.5566 5.77251C24.6387 5.81353 24.7617 5.85454 24.8848 5.85454C25.1309 5.85454 25.336 5.7315 25.459 5.52641L26.8125 3.06545C26.9766 2.73732 26.8946 2.32715 26.5664 2.16309C26.2383 1.99902 25.8281 2.08106 25.6641 2.40919L24.3105 4.87015C24.1465 5.19828 24.2285 5.60845 24.5566 5.77251Z" fill="#37355F" stroke="#37355F" stroke-width="0.5" stroke-miterlimit="10"/>
<path d="M30.2173 5.56738C30.0122 5.23925 29.6021 5.15722 29.315 5.3623L26.936 6.83887C26.6079 7.04395 26.5259 7.45411 26.7309 7.74123C26.854 7.94631 27.0591 8.06935 27.3052 8.06935C27.4282 8.06935 27.5513 8.02834 27.6333 7.98733L30.0122 6.51074C30.2994 6.30566 30.4224 5.89551 30.2173 5.56738Z" fill="#37355F" stroke="#37355F" stroke-width="0.5" stroke-miterlimit="10"/>
<path d="M4.90977 37.2318C3.88437 35.9193 3.22811 34.3607 2.98201 32.72C2.94099 32.3509 2.61287 32.1048 2.24372 32.1458C1.87458 32.1868 1.62848 32.515 1.6695 32.8841C1.91559 34.7708 2.6949 36.5756 3.84335 38.0521L6.59143 41.4975V45.5581C6.59143 45.9272 6.87855 46.2143 7.24769 46.2143C7.61684 46.2143 7.90395 45.9272 7.90395 45.5581V41.2924C7.90395 41.1283 7.86293 41.0053 7.73988 40.8822L4.90977 37.2318Z" fill="#37355F" stroke="#37355F" stroke-width="0.5" stroke-miterlimit="10"/>
</svg>
