<svg width="46" height="32" viewBox="0 0 46 32" fill="none" xmlns="http://www.w3.org/2000/svg">
<path d="M45.0215 19.2776L44.1192 16.7346C43.9961 16.4065 43.627 16.2014 43.2578 16.3244C42.9297 16.4475 42.7246 16.8166 42.8477 17.1858L43.75 19.7288C44.8985 22.887 44.4063 26.4144 42.4375 29.1625C41.8633 29.9828 40.9199 30.475 39.8945 30.475C38.8691 30.475 37.9668 30.0238 37.3515 29.1625L32.5936 22.5179C31.8964 21.5335 30.7069 20.9182 29.4764 20.9182H16.1872C14.9567 20.9182 13.8082 21.5335 13.07 22.5179L8.31209 29.1625C7.73786 29.9828 6.79449 30.475 5.76908 30.475C4.74368 30.475 3.84133 29.9828 3.22608 29.1625C3.10304 28.9984 2.97999 28.8343 2.89796 28.6703C2.69287 28.3421 2.28271 28.2601 1.9956 28.4652C1.66747 28.6703 1.58544 29.0804 1.79052 29.3675C1.91357 29.5726 2.03662 29.7367 2.15967 29.9418C3.021 31.1312 4.33352 31.8285 5.76908 31.8285C7.20465 31.8285 8.51717 31.1723 9.3785 29.9828L14.1364 23.3382C14.5876 22.6819 15.3669 22.3128 16.1462 22.3128H29.4764C30.2557 22.3128 31.035 22.6819 31.4862 23.3382L36.2441 29.9828C37.1054 31.1723 38.4179 31.8285 39.8535 31.8285C41.3301 31.8285 42.6426 31.1312 43.4629 29.9418C45.7188 26.8656 46.293 22.887 45.0215 19.2776Z" fill="#37355F"/>
<path d="M1.70901 26.0452C1.09376 23.9534 1.1758 21.7796 1.91409 19.7288L6.71297 6.27547C7.77939 3.32231 10.5685 1.35353 13.7267 1.35353H31.9379C35.0551 1.35353 37.8852 3.32231 38.9517 6.27547L41.8228 14.3556C41.9458 14.6838 42.315 14.8889 42.6841 14.7658C43.0123 14.6428 43.2173 14.2736 43.0943 13.9045L40.2232 5.8243C38.9927 2.33792 35.6704 0 31.9789 0H13.7267C10.0353 0 6.71297 2.33792 5.48249 5.8243L0.683602 19.2776C-0.13672 21.5745 -0.218753 24.0355 0.437505 26.4144C0.683602 27.2757 1.9551 26.8656 1.70901 26.0452Z" fill="#37355F"/>
<path d="M11.7579 12.3048H13.6036C14.2598 12.3048 14.7931 11.7716 14.7931 11.1153V9.88485H16.0235C16.6798 9.88485 17.213 9.35164 17.213 8.69538V6.84966C17.213 6.1934 16.6798 5.66018 16.0235 5.66018H14.7931V4.4297C14.7931 3.77344 14.2598 3.24023 13.6036 3.24023H11.7579C11.1016 3.24023 10.5684 3.77344 10.5684 4.4297V5.66018H9.33791C8.68165 5.66018 8.14844 6.1934 8.14844 6.84966V8.69538C8.14844 9.35164 8.68165 9.88485 9.33791 9.88485H10.5684V11.1153C10.5274 11.7716 11.1016 12.3048 11.7579 12.3048ZM9.41994 8.57233V6.9727H11.0196C11.4707 6.9727 11.8809 6.60356 11.8809 6.11136V4.51173H13.4805V6.11136C13.4805 6.56254 13.8497 6.9727 14.3419 6.9727H15.9415V8.57233H14.3419C13.8907 8.57233 13.4805 8.94147 13.4805 9.43367V11.0333H11.8809V9.43367C11.8809 8.98249 11.5118 8.57233 11.0196 8.57233H9.41994Z" fill="#37355F"/>
<path d="M32.9639 4.22461C32.3486 4.22461 31.8564 4.7168 31.8564 5.33204C31.8564 5.94729 32.3486 6.43948 32.9639 6.43948C33.5791 6.43948 34.0713 5.94729 34.0713 5.33204C34.0713 4.7168 33.5791 4.22461 32.9639 4.22461Z" fill="#37355F"/>
<path d="M32.9639 11.2796C33.5791 11.2796 34.0713 10.7874 34.0713 10.1721C34.0713 9.55689 33.5791 9.0647 32.9639 9.0647C32.3486 9.0647 31.8564 9.55689 31.8564 10.1721C31.8564 10.7874 32.3486 11.2796 32.9639 11.2796Z" fill="#37355F"/>
<path d="M35.3828 8.8594C35.9944 8.8594 36.4903 8.36359 36.4903 7.75197C36.4903 7.14035 35.9944 6.64453 35.3828 6.64453C34.7712 6.64453 34.2754 7.14035 34.2754 7.75197C34.2754 8.36359 34.7712 8.8594 35.3828 8.8594Z" fill="#37355F"/>
<path d="M31.6504 7.75197C31.6504 7.13672 31.1582 6.64453 30.543 6.64453C29.9277 6.64453 29.4355 7.13672 29.4355 7.75197C29.4355 8.36721 29.9277 8.8594 30.543 8.8594C31.1582 8.8594 31.6504 8.36721 31.6504 7.75197Z" fill="#37355F"/>
<path d="M28.2461 19.6058C30.42 19.6058 32.1837 17.8421 32.1837 15.6683C32.1837 13.4944 30.42 11.7307 28.2461 11.7307C26.0723 11.7307 24.3086 13.4944 24.3086 15.6683C24.3086 17.8421 26.0723 19.6058 28.2461 19.6058ZM28.2461 13.0842C29.6817 13.0842 30.8712 14.2737 30.8712 15.7093C30.8712 17.1448 29.6817 18.3343 28.2461 18.3343C26.8106 18.3343 25.6211 17.1448 25.6211 15.7093C25.6211 14.2737 26.8106 13.0842 28.2461 13.0842Z" fill="#37355F"/>
<path d="M18.2383 18.2933C17.8282 18.2933 17.459 18.2113 17.1309 18.0472C16.8028 17.8831 16.3926 18.0472 16.2285 18.3753C16.0645 18.7035 16.2285 19.1136 16.5567 19.2777C17.0899 19.5238 17.6641 19.6468 18.2383 19.6468C20.4122 19.6468 22.1759 17.8831 22.1759 15.7093C22.1759 13.5354 20.4122 11.7717 18.2383 11.7717C16.0645 11.7717 14.3008 13.5354 14.3008 15.7093C14.3008 15.9144 14.3008 16.1194 14.3418 16.2835C14.3828 16.6526 14.752 16.8987 15.0801 16.8577C15.4492 16.8167 15.6953 16.4476 15.6543 16.1194C15.6543 15.9964 15.6133 15.8733 15.6133 15.7503C15.6133 14.3147 16.8028 13.1253 18.2383 13.1253C19.6739 13.1253 20.8634 14.3147 20.8634 15.7503C20.8634 17.1859 19.6739 18.2933 18.2383 18.2933Z" fill="#37355F"/>
<path d="M22.8731 9.59772C21.4375 9.59772 20.248 8.40825 20.248 6.97269C20.248 5.53712 21.4375 4.34766 22.8731 4.34766C24.3086 4.34766 25.4981 5.53712 25.4981 6.97269C25.4981 8.40825 24.3086 9.59772 22.8731 9.59772ZM22.8731 5.66017C22.1758 5.66017 21.6016 6.2344 21.6016 6.93167C21.6016 7.62895 22.1758 8.20317 22.8731 8.20317C23.5704 8.20317 24.1446 7.62895 24.1446 6.93167C24.1446 6.2344 23.5704 5.66017 22.8731 5.66017Z" fill="#37355F"/>
</svg>
