<svg width="46" height="46" viewBox="0 0 46 46" fill="none" xmlns="http://www.w3.org/2000/svg">
<path d="M42.9811 6.75717H38.7672V4.42954C38.7672 2.94466 38.0047 1.58019 36.7606 0.737419C35.5166 -0.0652146 33.9514 -0.22574 32.5869 0.376235L25.7645 3.34598H19.6645L12.8421 0.376235C11.4777 -0.22574 9.91253 -0.105346 8.66845 0.737419C7.42437 1.54005 6.66186 2.94466 6.66186 4.42954V6.75717H2.44804C1.12369 6.75717 0 7.84073 0 9.20521V12.0546C0 13.2585 0.842766 14.2217 2.00659 14.4625V19.4789C2.00659 19.8401 2.28751 20.1612 2.68882 20.1612C3.05001 20.1612 3.37106 19.8802 3.37106 19.4789V14.4625H11.3573C11.3171 14.7033 11.3573 14.9842 11.3974 15.225C11.5178 16.148 12.0796 16.9908 12.8823 17.4723L16.5343 19.7598C16.775 19.9204 17.0961 19.9605 17.377 19.8802C17.6579 19.8 17.8987 19.5993 18.0191 19.3184L18.8619 17.4322V21.2447C15.1698 22.7697 12.5211 26.4217 12.5211 30.6757C12.5211 34.9296 15.1297 38.5816 18.8619 40.1066V43.9593H5.37765C4.29409 43.9593 3.37106 43.0764 3.37106 41.9527V22.4888C3.37106 22.1276 3.09014 21.8066 2.68882 21.8066C2.32764 21.8066 2.00659 22.0875 2.00659 22.4888V41.9527C2.00659 43.7987 3.49146 45.2836 5.33752 45.2836H40.0514C41.8975 45.2836 43.3824 43.7987 43.3824 41.9527V14.4223C44.5061 14.2217 45.389 13.2184 45.389 12.0144V9.16508C45.4291 7.84073 44.3054 6.75717 42.9811 6.75717ZM26.6073 4.42954L33.1488 1.58019C34.1119 1.17887 35.1955 1.25913 36.0383 1.82098C36.9212 2.38282 37.4429 3.34598 37.4429 4.38941V6.71704H26.6073V4.42954ZM27.6106 8.08152L32.306 13.4993C32.6672 13.9006 32.8277 14.4625 32.7475 15.0243C32.6672 15.5861 32.3461 16.0677 31.8646 16.3487L28.4935 18.4756L23.758 8.08152H27.6106ZM25.2428 14.4625L25.283 14.5427V20.8434C24.4803 20.6427 23.6376 20.5224 22.7547 20.5224C21.8718 20.5224 21.029 20.6427 20.2264 20.8434V14.5427L20.2665 14.4625H25.2428ZM20.8685 13.1381L22.7547 9.00455L24.6409 13.1381H20.8685ZM20.2264 4.67033H25.283V6.75717H20.2264V4.67033ZM8.06647 4.38941C8.06647 3.34598 8.58819 2.38282 9.47108 1.82098C10.354 1.25913 11.4375 1.17887 12.3606 1.58019L18.902 4.42954V6.71704H8.06647V4.38941ZM12.1599 12.6164C12.0395 12.7769 11.9191 12.9375 11.7987 13.098H2.48816C1.88619 13.098 1.36448 12.6164 1.36448 11.9743V9.12495C1.36448 8.52297 1.84606 8.00126 2.48816 8.00126H16.0928L12.1599 12.6164ZM16.9757 18.4756L13.6046 16.3487C13.1231 16.0677 12.802 15.5861 12.7217 15.0243C12.6415 14.4625 12.802 13.9006 13.1632 13.4993L17.8586 8.08152H21.7113L16.9757 18.4756ZM25.283 43.9994H20.2264V40.5882C21.029 40.7889 21.8718 40.9093 22.7547 40.9093C23.6376 40.9093 24.4803 40.7889 25.283 40.5882V43.9994ZM42.0982 41.9928C42.0982 43.0764 41.2153 43.9994 40.0916 43.9994H26.6073V40.1468C27.8514 39.625 29.0152 38.8625 29.9784 37.8994C30.2192 37.6586 30.2192 37.2171 29.9784 36.9763C29.7376 36.7356 29.2961 36.7356 29.0553 36.9763C27.3698 38.6619 25.1626 39.5849 22.7547 39.5849C17.8586 39.5849 13.8856 35.6119 13.8856 30.7158C13.8856 25.8197 17.8586 21.8467 22.7547 21.8467C27.6507 21.8467 31.6238 25.8197 31.6238 30.7158C31.6238 32.0803 31.3027 33.4046 30.7409 34.6086C30.5804 34.9296 30.7007 35.3309 31.0619 35.4915C31.383 35.652 31.7843 35.5316 31.9448 35.1704C32.6271 33.7658 32.9883 32.2809 32.9883 30.7158C32.9883 26.4618 30.3797 22.8099 26.6474 21.2849V17.4723L27.4902 19.3585C27.6106 19.6395 27.8514 19.8401 28.1323 19.9204C28.4132 20.0006 28.7343 19.9605 28.9751 19.8L32.6271 17.5125C33.4297 16.9908 33.9514 16.1881 34.1119 15.2651C34.1521 15.0243 34.1521 14.7434 34.1521 14.5026H42.1383V41.9928H42.0982ZM44.0646 12.0144C44.0646 12.6164 43.583 13.1381 42.9409 13.1381H33.6304C33.51 12.9776 33.4297 12.8171 33.2692 12.6565L29.3363 8.08152H42.9409C43.5429 8.08152 44.0646 8.5631 44.0646 9.20521V12.0144ZM25.0422 25.1776C24.7211 25.0171 24.3198 25.1776 24.1593 25.5388L20.106 35.2106C19.9455 35.5316 20.106 35.9329 20.4672 36.0934C20.7882 36.2138 21.1895 36.0935 21.3501 35.7323L25.4034 26.0204C25.5639 25.6993 25.4034 25.298 25.0422 25.1776ZM22.1126 27.425C22.1126 25.9 20.9889 24.6559 19.6645 24.6559C18.3001 24.6559 17.2165 25.9 17.2165 27.425C17.2165 28.95 18.3402 30.1941 19.6645 30.1941C20.9889 30.154 22.1126 28.9099 22.1126 27.425ZM19.6244 28.8296C18.9823 28.8296 18.5007 28.1875 18.5007 27.3849C18.5007 26.5822 19.0224 25.9401 19.6244 25.9401C20.2665 25.9401 20.7481 26.5822 20.7481 27.3849C20.7882 28.1875 20.2665 28.8296 19.6244 28.8296ZM25.8448 31.2776C24.4803 31.2776 23.3968 32.5217 23.3968 34.0467C23.3968 35.5717 24.5205 36.8158 25.8448 36.8158C27.2093 36.8158 28.2928 35.5717 28.2928 34.0467C28.333 32.5217 27.2093 31.2776 25.8448 31.2776ZM25.8448 35.4513C25.2027 35.4513 24.7211 34.8092 24.7211 34.0066C24.7211 33.204 25.2428 32.5619 25.8448 32.5619C26.4869 32.5619 26.9685 33.204 26.9685 34.0066C27.0086 34.8092 26.4869 35.4513 25.8448 35.4513Z" fill="#37355F"/>
</svg>
