<svg width="40" height="40" viewBox="0 0 40 40" fill="none" xmlns="http://www.w3.org/2000/svg">
<path d="M18.6516 26.3298C18.2415 26.3298 17.9134 26.0017 17.9134 25.5505C17.9134 24.5661 18.0364 23.7048 18.3235 22.9665C18.5286 22.4333 18.8567 21.859 19.3079 21.3258C19.636 20.9157 20.2513 20.3414 21.1126 19.5621C21.9739 18.7828 22.5482 18.1676 22.7943 17.7164C23.0404 17.2652 23.1634 16.732 23.1634 16.1988C23.1634 15.2144 22.7943 14.3531 22.015 13.5738C21.2767 12.8355 20.3333 12.4663 19.2259 12.4663C18.1595 12.4663 17.2571 12.7945 16.5598 13.4917C16.0266 13.9839 15.6575 14.6812 15.4114 15.5836C15.2473 16.1988 14.6321 16.609 14.0168 16.5269C13.2375 16.4449 12.7043 15.6246 12.9094 14.8453C13.2785 13.6148 13.8528 12.6714 14.6731 11.9331C15.8215 10.9077 17.3391 10.3745 19.1849 10.3745C21.1536 10.3745 22.7533 10.9077 23.9427 12.0152C25.1322 13.1226 25.7064 14.4351 25.7064 16.0347C25.7064 16.9371 25.5013 17.7574 25.0912 18.5367C24.681 19.316 23.8607 20.2184 22.6712 21.3258C21.8509 22.0641 21.3177 22.5973 21.0716 22.9665C20.8255 23.3356 20.6204 23.7047 20.4974 24.1559C20.4153 24.443 20.3743 24.8942 20.3333 25.4684C20.2923 25.9606 19.8821 26.3708 19.3899 26.3708H18.6516V26.3298ZM17.7493 30.0212C17.7493 29.2009 18.4055 28.5857 19.1849 28.5857C19.9642 28.5857 20.6204 29.2419 20.6204 30.0212C20.6204 30.8415 19.9642 31.4568 19.1849 31.4568C18.4055 31.4568 17.7493 30.8005 17.7493 30.0212Z" fill="#37355F"/>
<path d="M5.36266 32.3592C11.8432 40.1113 25.1324 41.4648 33.2126 33.4256C40.3904 26.3299 40.8826 14.3121 33.6228 6.72412C21.2769 -6.19596 -3.37378 3.93502 1.67121 25.3044" stroke="#37355F" stroke-width="2" stroke-miterlimit="10" stroke-linecap="round" stroke-linejoin="round"/>
<path d="M4.0502 28.2167C4.41934 28.6268 4.37833 29.2011 4.00918 29.5702C3.64003 29.9394 3.02479 29.8984 2.65564 29.5292C2.28649 29.119 2.32751 28.5448 2.69666 28.1757C3.10682 27.8065 3.68105 27.8475 4.0502 28.2167Z" fill="#37355F"/>
</svg>
