<svg width="46" height="46" viewBox="0 0 46 46" fill="none" xmlns="http://www.w3.org/2000/svg">
<path d="M42.0018 36.9995C43.0735 36.1738 43.7742 34.8939 43.7742 33.4488C43.7742 31.2606 42.1667 29.4027 40.0645 29.0724V28.2467C40.0645 26.1824 38.4158 24.5309 36.3548 24.5309H23.7419V21.806C24.1541 22.095 24.6075 22.3014 25.1434 22.3014C26.3799 22.3014 27.4104 21.3105 27.4516 20.0719C28.647 20.0306 29.6362 19.0398 29.6774 17.8424C30.8728 17.8011 31.862 16.8103 31.9032 15.6129C33.1398 15.5717 34.1702 14.5395 34.129 13.2596C34.129 12.6403 33.8405 12.0623 33.4283 11.6081L33.3047 11.4843C34.3351 10.2044 34.9122 8.63548 34.871 6.984C34.8297 3.2682 31.8208 0.17169 28.1111 0.0065432C26.215 -0.0760303 24.4014 0.62585 23 1.94703C21.6398 0.62585 19.8262 -0.0347436 17.9301 0.0065432C14.2616 0.130404 11.2939 3.14434 11.1703 6.77757C11.0878 8.67676 11.7885 10.4934 13.1075 11.8971C12.819 12.31 12.6541 12.7642 12.6541 13.2596C12.6541 14.4982 13.6434 15.5304 14.8799 15.5717C14.9211 16.769 15.9104 17.7599 17.1057 17.8011C17.147 18.9985 18.1362 19.9893 19.3315 20.0306C19.3728 21.2692 20.4032 22.2601 21.6398 22.2601C21.8459 22.2601 22.0932 22.2188 22.2993 22.1363V24.4483H9.64516C7.58423 24.4483 5.93548 26.0998 5.93548 28.1641V28.9899C3.83333 29.3614 2.2258 31.178 2.2258 33.3662C2.2258 34.8113 2.92652 36.0912 3.9982 36.9169C1.64874 37.9491 0 40.3024 0 43.0274V44.9265C0 45.5046 0.494626 46 1.07169 46H12.2831C12.8602 46 13.3548 45.5046 13.3548 44.9265V43.0274C13.3548 40.3024 11.7061 37.9491 9.35662 36.9169C10.4283 36.0912 11.129 34.8113 11.129 33.3662C11.129 31.178 9.5215 29.3202 7.41935 28.9899V28.1641C7.41935 26.9255 8.4086 25.9346 9.64516 25.9346H22.2581V28.9899C20.1559 29.3614 18.5484 31.178 18.5484 33.3662C18.5484 34.8113 19.2491 36.0912 20.3208 36.9169C17.9713 37.9491 16.3226 40.3024 16.3226 43.0274V44.9265C16.3226 45.5046 16.8172 46 17.3943 46H28.6057C29.1828 46 29.6774 45.5046 29.6774 44.9265V43.0274C29.6774 40.3024 28.0287 37.9491 25.6792 36.9169C26.7509 36.0912 27.4516 34.8113 27.4516 33.3662C27.4516 31.178 25.8441 29.3202 23.7419 28.9899V25.9346H36.3548C37.5914 25.9346 38.5806 26.9255 38.5806 28.1641V28.9899C36.4785 29.3614 34.871 31.178 34.871 33.3662C34.871 34.8113 35.5717 36.0912 36.6434 36.9169C34.2939 37.9491 32.6452 40.3024 32.6452 43.0274V44.9265C32.6452 45.5046 33.1398 46 33.7168 46H44.9283C45.5054 46 46 45.5046 46 44.9265V43.0274C45.9588 40.385 44.31 38.0729 42.0018 36.9995ZM27.8226 1.53416C30.8728 1.53416 33.3871 4.01136 33.3871 7.10787C33.3871 8.34648 32.9749 9.5025 32.233 10.4934L28.8118 7.06658C29.0179 6.90144 29.2652 6.73628 29.4301 6.52985L28.3996 5.49768C27.5753 6.32341 26.5036 6.77757 25.3495 6.77757H24.1541L22.8763 8.05746C22.7527 8.18132 22.5466 8.2639 22.3405 8.2639H19.5376C19.3728 8.2639 19.2491 8.14003 19.2491 7.97488C19.2491 7.89231 19.2903 7.80974 19.3315 7.76845L23.8656 3.22691C24.9373 2.11216 26.3387 1.53416 27.8226 1.53416ZM18.1774 1.53416C19.5789 1.53416 20.9391 2.07088 21.9695 3.02047L18.3423 6.65372C18.0125 6.98401 17.8064 7.43817 17.8064 7.93361C17.8064 8.92449 18.5896 9.70893 19.5789 9.70893H22.3817C22.9588 9.70893 23.5358 9.46121 23.948 9.04834L24.7724 8.22261H25.3495C26.0914 8.22261 26.7921 8.09875 27.4928 7.80974L32.3979 12.7229C32.5627 12.888 32.6452 13.0945 32.6452 13.3009C32.6452 13.755 32.2742 14.1266 31.8208 14.1266C31.6147 14.1266 31.4086 14.044 31.2437 13.8789L29.4713 12.1036L28.4409 13.1357L30.2133 14.9111C30.3781 15.0762 30.4606 15.2826 30.4606 15.4891C30.4606 15.9432 30.0896 16.3148 29.6362 16.3148C29.4301 16.3148 29.224 16.2322 29.0591 16.0671L27.2867 14.2918L26.2563 15.3239L28.0287 17.0993C28.1935 17.2644 28.276 17.4708 28.276 17.6773C28.276 18.1314 27.905 18.503 27.4516 18.503C27.2455 18.503 27.0394 18.4204 26.8745 18.2553L25.1021 16.48L24.0717 17.5121L25.8441 19.2875C26.009 19.4526 26.0914 19.659 26.0914 19.8655C26.0914 20.3196 25.7204 20.6912 25.267 20.6912C25.0609 20.6912 24.8548 20.6086 24.69 20.4435L24.4426 20.1958C24.5663 19.9068 24.6075 19.6178 24.6075 19.2875C24.6075 18.0489 23.6183 17.0167 22.3817 16.9754C22.3405 15.7781 21.3513 14.7872 20.1559 14.7459C20.1147 13.5486 19.1254 12.5577 17.9301 12.5164C17.8889 11.2778 16.8584 10.2869 15.6219 10.2869C15.1272 10.2869 14.6326 10.4521 14.2617 10.7411C13.2724 9.70893 12.7366 8.34647 12.7366 6.94272C12.6129 4.05264 15.086 1.53416 18.1774 1.53416ZM14.0968 13.3422C14.0968 13.1357 14.1792 12.9293 14.3441 12.7642L14.9211 12.1861C15.086 12.021 15.2921 11.9384 15.4982 11.9384C15.9516 11.9384 16.3226 12.31 16.3226 12.7642C16.3226 12.9706 16.2401 13.177 16.0753 13.3422L15.4982 13.9202C15.3333 14.0853 15.1272 14.1679 14.9211 14.1679C14.4677 14.1679 14.0968 13.7963 14.0968 13.3422ZM16.3226 15.5717C16.3226 15.3652 16.405 15.1588 16.5699 14.9936L17.147 14.4156C17.3118 14.2505 17.5179 14.1679 17.724 14.1679C18.1774 14.1679 18.5484 14.5395 18.5484 14.9936C18.5484 15.2001 18.4659 15.4065 18.3011 15.5717L17.724 16.1497C17.5591 16.3148 17.353 16.3974 17.147 16.3974C16.6936 16.3974 16.3226 16.0258 16.3226 15.5717ZM18.5484 17.8011C18.5484 17.5947 18.6308 17.3883 18.7957 17.2231L19.3728 16.6451C19.5376 16.48 19.7437 16.3974 19.9498 16.3974C20.4032 16.3974 20.7742 16.769 20.7742 17.2231C20.7742 17.4296 20.6917 17.636 20.5269 17.8011L19.9498 18.3792C19.7849 18.5443 19.5789 18.6269 19.3728 18.6269C18.9194 18.6269 18.5484 18.2553 18.5484 17.8011ZM21.5986 20.8564C21.1452 20.8564 20.7742 20.4848 20.7742 20.0306C20.7742 19.8242 20.8566 19.6178 21.0215 19.4526L21.5986 18.8746C21.7634 18.7095 21.9695 18.6269 22.1756 18.6269C22.629 18.6269 23 18.9985 23 19.4526C23 19.659 22.9176 19.8655 22.7527 20.0306L22.1756 20.6086C22.0107 20.7738 21.8047 20.8564 21.5986 20.8564ZM11.871 43.1925V44.5963H10.3871V42.3668C10.3871 41.9539 10.0573 41.6236 9.64516 41.6236C9.23297 41.6236 8.90323 41.9539 8.90323 42.3668V44.5963H4.45161V42.3668C4.45161 41.9539 4.12186 41.6236 3.70968 41.6236C3.29749 41.6236 2.96773 41.9539 2.96773 42.3668V44.5963H1.48387V43.1099C1.48387 40.2199 3.87455 37.8665 6.75985 37.9078C9.60394 37.9904 11.871 40.3437 11.871 43.1925ZM9.64516 33.4901C9.64516 35.1416 8.32616 36.4628 6.67741 36.4628C5.02867 36.4628 3.70968 35.1416 3.70968 33.4901C3.70968 31.8386 5.02867 30.5175 6.67741 30.5175C8.32616 30.5175 9.64516 31.8386 9.64516 33.4901ZM28.1935 43.1925V44.5963H26.7097V42.3668C26.7097 41.9539 26.3799 41.6236 25.9677 41.6236C25.5556 41.6236 25.2258 41.9539 25.2258 42.3668V44.5963H20.7742V42.3668C20.7742 41.9539 20.4444 41.6236 20.0323 41.6236C19.6201 41.6236 19.2903 41.9539 19.2903 42.3668V44.5963H17.8064V43.1099C17.8064 40.2199 20.1971 37.8665 23.0824 37.9078C25.9265 37.9904 28.1935 40.3437 28.1935 43.1925ZM25.9677 33.4901C25.9677 35.1416 24.6487 36.4628 23 36.4628C21.3512 36.4628 20.0323 35.1416 20.0323 33.4901C20.0323 31.8386 21.3512 30.5175 23 30.5175C24.6487 30.5175 25.9677 31.8386 25.9677 33.4901ZM36.3548 33.4901C36.3548 31.8386 37.6738 30.5175 39.3226 30.5175C40.9713 30.5175 42.2903 31.8386 42.2903 33.4901C42.2903 35.1416 40.9713 36.4628 39.3226 36.4628C37.6738 36.4628 36.3548 35.1003 36.3548 33.4901ZM44.4749 44.5963H42.991V42.3668C42.991 41.9539 42.6613 41.6236 42.2491 41.6236C41.8369 41.6236 41.5072 41.9539 41.5072 42.3668V44.5963H37.0555V42.3668C37.0555 41.9539 36.7258 41.6236 36.3136 41.6236C35.9014 41.6236 35.5717 41.9539 35.5717 42.3668V44.5963H34.0878V43.1925C34.0878 40.3437 36.3548 37.9491 39.1989 37.9078C42.0842 37.8665 44.4749 40.2199 44.4749 43.1099V44.5963V44.5963Z" fill="#37355F"/>
</svg>
