<svg width="45" height="42" viewBox="0 0 45 42" fill="none" xmlns="http://www.w3.org/2000/svg">
<path d="M17.6916 12.5963L17.4108 12.7166C16.9295 11.8742 16.0068 11.3126 15.0039 11.3126H10.5912C9.06682 11.3126 7.82324 12.5561 7.82324 14.0805V26.6768C7.82324 28.2012 9.06682 29.4448 10.5912 29.4448H15.0039C15.8865 29.4448 16.6486 29.0436 17.1701 28.4018C18.6945 29.0837 20.3794 29.4448 22.0642 29.4448H31.4111C32.9757 29.4448 34.2594 28.1611 34.2594 26.5966C34.2594 26.1152 34.139 25.6338 33.8983 25.2326C34.8611 24.7914 35.543 23.7885 35.543 22.6652C35.543 22.1839 35.4227 21.7426 35.2221 21.3414C36.2651 20.9002 36.9872 19.8973 36.9872 18.6938C36.9872 17.4903 36.2651 16.4875 35.2221 16.0462C35.4227 15.645 35.543 15.2038 35.543 14.7224C35.543 13.1579 34.2594 11.8742 32.6949 11.8742H28.0415C27.6002 11.8742 27.2391 11.5131 27.2391 11.0719V8.50447C27.2391 5.93708 25.1531 3.85107 22.5857 3.85107C21.4625 3.85107 20.5398 4.77373 20.5398 5.89696V8.18355C20.58 10.1893 19.4567 11.8742 17.6916 12.5963ZM15.0039 27.7198H10.5912C10.0296 27.7198 9.5482 27.2384 9.5482 26.6768V14.0805C9.5482 13.5189 10.0296 13.0375 10.5912 13.0375H15.0039C15.5655 13.0375 16.0469 13.5189 16.0469 14.0805V26.6768C16.0469 27.2384 15.5655 27.7198 15.0039 27.7198ZM22.345 8.26378V5.9772C22.345 5.81673 22.4654 5.69638 22.6259 5.69638C24.2305 5.69638 25.5142 6.98008 25.5142 8.5847V11.1521C25.5142 12.5561 26.6374 13.6794 28.0415 13.6794H32.6949C33.2966 13.6794 33.778 14.1608 33.778 14.7625C33.778 15.3642 33.2966 15.8456 32.6949 15.8456H27.2391C26.7578 15.8456 26.3566 16.2468 26.3566 16.7281C26.3566 17.2095 26.7578 17.6107 27.2391 17.6107H34.139C34.7407 17.6107 35.2221 18.0921 35.2221 18.6938C35.2221 19.2955 34.7407 19.7769 34.139 19.7769H27.2391C26.7578 19.7769 26.3566 20.1781 26.3566 20.6595C26.3566 21.1409 26.7578 21.542 27.2391 21.542H32.6949C33.2966 21.542 33.778 22.0234 33.778 22.6251C33.778 23.2269 33.2966 23.7082 32.6949 23.7082H27.2391C26.7578 23.7082 26.3566 24.1094 26.3566 24.5908C26.3566 25.0722 26.7578 25.4733 27.2391 25.4733H31.371C31.9728 25.4733 32.4542 25.9547 32.4542 26.5564C32.4542 27.1582 31.9728 27.6396 31.371 27.6396H22.0241C20.5399 27.6396 19.0957 27.3186 17.7318 26.7169C17.7318 26.6768 17.7318 26.6367 17.7318 26.5966V14.3613L18.3335 14.1206C20.7805 13.198 22.345 10.8713 22.345 8.26378Z" fill="#37355F"/>
<path d="M36.9063 0H26.3559C25.8745 0 25.4733 0.401154 25.4733 0.88254C25.4733 1.36393 25.8745 1.76509 26.3559 1.76509H36.9063C40.276 1.76509 43.0038 4.49294 43.0038 7.86264V28.121C43.0038 31.4907 40.276 34.2185 36.9063 34.2185H25.4332C25.1123 34.2185 24.8315 34.379 24.671 34.6598L22.3844 38.5911L20.0979 34.6598C19.9374 34.379 19.6566 34.2185 19.3357 34.2185H7.86263C4.49293 34.2185 1.76508 31.4907 1.76508 28.121V7.86264C1.76508 4.49294 4.49293 1.76509 7.86263 1.76509H18.413C18.8944 1.76509 19.2955 1.36393 19.2955 0.88254C19.2955 0.401154 18.8944 0 18.413 0H7.86263C3.53015 0 0 3.53017 0 7.86264V28.121C0 32.4534 3.53015 35.9836 7.86263 35.9836H18.8142L21.5821 40.7975C21.7426 41.0783 22.0234 41.2387 22.3443 41.2387C22.6652 41.2387 22.9461 41.0783 23.1065 40.7975L25.8745 35.9836H36.826C41.1585 35.9836 44.6887 32.4534 44.6887 28.121V7.86264C44.7689 3.53017 41.2387 0 36.9063 0Z" fill="#37355F"/>
<path d="M22.4254 1.72489C22.6661 1.72489 22.8667 1.64466 23.0272 1.48419C23.1876 1.32373 23.2679 1.08304 23.2679 0.882461C23.2679 0.641768 23.1876 0.44119 23.0272 0.280728C22.8667 0.120266 22.626 0.0400391 22.4254 0.0400391C22.1847 0.0400391 21.9842 0.120266 21.8237 0.280728C21.6632 0.44119 21.583 0.681883 21.583 0.882461C21.583 1.08304 21.6632 1.32373 21.8237 1.48419C21.944 1.64466 22.1847 1.72489 22.4254 1.72489Z" fill="#37355F"/>
</svg>
