<svg width="46" height="43" viewBox="0 0 46 43" fill="none" xmlns="http://www.w3.org/2000/svg">
<path d="M3.03519 36.5864H4.55279C4.96295 36.5864 5.3321 36.2583 5.3321 35.8071C5.3321 35.3969 5.00397 35.0278 4.55279 35.0278H3.03519C2.17386 35.0278 1.5176 34.3305 1.5176 33.5102V3.03519C1.5176 2.17386 2.21487 1.5176 3.03519 1.5176H36.5864C37.4477 1.5176 38.104 2.21487 38.104 3.03519V4.71686C38.104 5.12702 38.4321 5.49616 38.8833 5.49616C39.2935 5.49616 39.6626 5.16803 39.6626 4.71686V3.03519C39.6626 1.35353 38.3091 0 36.6274 0H3.03519C1.35353 0 0 1.35353 0 3.03519V33.5102C0 35.2329 1.35353 36.5864 3.03519 36.5864Z" fill="#37355F"/>
<path d="M3.81446 3.03516C4.22462 3.03516 4.59377 3.36328 4.59377 3.81446C4.59377 4.22462 4.26564 4.59377 3.81446 4.59377C3.4043 4.59377 3.03516 4.26564 3.03516 3.81446C3.03516 3.36328 3.36329 3.03516 3.81446 3.03516Z" fill="#37355F"/>
<path d="M6.84962 3.03516C7.25978 3.03516 7.62893 3.36328 7.62893 3.81446C7.62893 4.22462 7.3008 4.59377 6.84962 4.59377C6.43946 4.59377 6.07031 4.26564 6.07031 3.81446C6.07031 3.36328 6.43946 3.03516 6.84962 3.03516Z" fill="#37355F"/>
<path d="M9.88478 3.03516C10.2949 3.03516 10.6641 3.36328 10.6641 3.81446C10.6641 4.22462 10.336 4.59377 9.88478 4.59377C9.47461 4.59377 9.10547 4.26564 9.10547 3.81446C9.14648 3.36328 9.47461 3.03516 9.88478 3.03516Z" fill="#37355F"/>
<path d="M6.07031 39.6215C6.07031 41.3032 7.42384 42.6567 9.10551 42.6567H42.6567C44.3384 42.6567 45.6919 41.3032 45.6919 39.6215V9.14652C45.6919 7.46486 44.3384 6.11133 42.6567 6.11133H9.14652C7.46486 6.11133 6.11133 7.46486 6.11133 9.14652V39.6215H6.07031ZM7.58791 9.14652C7.58791 8.28518 8.28518 7.62893 9.10551 7.62893H42.6567C43.518 7.62893 44.1743 8.3262 44.1743 9.14652V39.6215C44.1743 40.4828 43.477 41.1391 42.6567 41.1391H9.14652C8.28518 41.1391 7.62893 40.4418 7.62893 39.6215V9.14652H7.58791Z" fill="#37355F"/>
<path d="M9.88478 9.14673C10.2949 9.14673 10.6641 9.47486 10.6641 9.92604C10.6641 10.3362 10.336 10.7053 9.88478 10.7053C9.47461 10.7053 9.10547 10.3772 9.10547 9.92604C9.14648 9.47486 9.47461 9.14673 9.88478 9.14673Z" fill="#37355F"/>
<path d="M12.9609 9.14673C13.3711 9.14673 13.7403 9.47486 13.7403 9.92604C13.7403 10.3362 13.4121 10.7053 12.9609 10.7053C12.5508 10.7053 12.1816 10.3772 12.1816 9.92604C12.1816 9.47486 12.5098 9.14673 12.9609 9.14673Z" fill="#37355F"/>
<path d="M15.9961 9.14673C16.4063 9.14673 16.7754 9.47486 16.7754 9.92604C16.7754 10.3362 16.4473 10.7053 15.9961 10.7053C15.5859 10.7053 15.2168 10.3772 15.2168 9.92604C15.2168 9.47486 15.5859 9.14673 15.9961 9.14673Z" fill="#37355F"/>
<path d="M9.88478 12.1819H41.8774C42.2875 12.1819 42.6567 12.51 42.6567 12.9612C42.6567 13.3714 42.3285 13.7405 41.8774 13.7405H9.88478C9.47461 13.7405 9.10547 13.4124 9.10547 12.9612C9.14648 12.51 9.47461 12.1819 9.88478 12.1819Z" fill="#37355F"/>
<path d="M9.88478 15.9963H14.4376C14.8477 15.9963 15.2169 16.3245 15.2169 16.7756C15.2169 17.1858 14.8887 17.5549 14.4376 17.5549H9.88478C9.47461 17.5549 9.10547 17.2268 9.10547 16.7756C9.14648 16.3245 9.47461 15.9963 9.88478 15.9963Z" fill="#37355F"/>
<path d="M9.88478 19.0315H12.92C13.3301 19.0315 13.6993 19.3596 13.6993 19.8108C13.6993 20.221 13.3711 20.5901 12.92 20.5901H9.88478C9.47461 20.5901 9.10547 20.262 9.10547 19.8108C9.14648 19.4006 9.47461 19.0315 9.88478 19.0315Z" fill="#37355F"/>
<path d="M25.8809 22.1077C22.9278 22.1077 20.5488 24.4866 20.5488 27.4398C20.5488 30.3929 22.9278 32.7719 25.8809 32.7719C28.8341 32.7719 31.213 30.3929 31.213 27.4398C31.213 24.4866 28.8341 22.1077 25.8809 22.1077ZM25.8809 31.2543C23.7891 31.2543 22.0664 29.5316 22.0664 27.4398C22.0664 25.3479 23.7891 23.6253 25.8809 23.6253C27.9727 23.6253 29.6954 25.3479 29.6954 27.4398C29.6954 29.5316 28.0138 31.2543 25.8809 31.2543Z" fill="#37355F"/>
<path d="M38.1038 25.1429C38.1038 24.7328 37.7757 24.3636 37.3245 24.3636H35.3147C35.1507 23.8714 34.9456 23.3793 34.6995 22.9281L36.135 21.4925C36.4222 21.2054 36.4222 20.7132 36.135 20.4261L32.8948 17.1858C32.6077 16.8987 32.1155 16.8987 31.8284 17.1858L30.3928 18.6214C29.9416 18.3753 29.4494 18.1702 28.9572 18.0061V15.9963C28.9572 15.5862 28.6291 15.217 28.1779 15.217H23.6251C23.215 15.217 22.8458 15.5452 22.8458 15.9963V18.0061C22.3536 18.1702 21.8614 18.3753 21.4103 18.6214L19.9747 17.1858C19.6876 16.8987 19.1954 16.8987 18.9083 17.1858L15.668 20.4261C15.3809 20.7132 15.3809 21.2054 15.668 21.4925L17.1036 22.9281C17.0215 23.0511 16.9805 23.1742 16.9395 23.2972C16.7754 23.6664 16.6524 23.9945 16.5293 24.3636H14.5195C14.1094 24.3636 13.7402 24.6918 13.7402 25.1429V29.6957C13.7402 30.1059 14.0684 30.475 14.5195 30.475H16.5293C16.6934 30.9672 16.8985 31.4594 17.1446 31.9106L15.709 33.3462C15.4219 33.6333 15.4219 34.1255 15.709 34.4126L18.9493 37.6529C19.2364 37.94 19.7286 37.94 20.0157 37.6529L21.4513 36.2173C21.9024 36.4634 22.3946 36.6685 22.8868 36.8325V38.8423C22.8868 39.2525 23.215 39.6216 23.6661 39.6216H28.2189C28.6291 39.6216 28.9982 39.2935 28.9982 38.8423V36.8325C29.4904 36.6685 29.9826 36.4634 30.4338 36.2173L31.8694 37.6529C32.1565 37.94 32.6487 37.94 32.9358 37.6529L36.1761 34.4126C36.4632 34.1255 36.4632 33.6333 36.1761 33.3462L34.7405 31.9106C34.9866 31.4594 35.1917 30.9672 35.3557 30.475H37.3655C37.7757 30.475 38.1448 30.1469 38.1448 29.6957V25.1429H38.1038ZM36.5862 28.9574H34.7815C34.4534 28.9574 34.1253 29.2035 34.0432 29.5317C33.8381 30.27 33.551 31.0083 33.1409 31.7055C32.9768 31.9926 33.0178 32.4028 33.2639 32.6489L34.5354 33.9204L32.3616 36.0943L31.0901 34.8228C30.844 34.5767 30.4748 34.5356 30.1467 34.6997C29.4904 35.1099 28.7521 35.397 27.9728 35.6021C27.6447 35.6841 27.3986 36.0122 27.3986 36.3403V38.1451H24.3634V36.3403C24.3634 36.0122 24.1173 35.6841 23.7892 35.6021C23.0509 35.397 22.3126 35.1099 21.6153 34.6997C21.3282 34.5356 20.9181 34.5767 20.672 34.8228L19.4005 36.0943L17.2266 33.9204L18.4981 32.6489C18.7442 32.4028 18.7852 32.0337 18.6212 31.7055C18.211 31.0493 17.9239 30.311 17.7188 29.5317C17.6368 29.2035 17.3086 28.9574 16.9805 28.9574H15.1758V25.9223H16.9805C17.3086 25.9223 17.6368 25.6762 17.7188 25.348C17.8418 24.8558 18.0059 24.4047 18.211 23.9535C18.334 23.7074 18.4571 23.4203 18.6212 23.1742C18.7852 22.8871 18.7442 22.4769 18.4981 22.2308L17.2266 20.9593L19.4005 18.7854L20.672 20.0569C20.9181 20.303 21.2872 20.3441 21.6153 20.18C22.2716 19.7698 23.0099 19.4827 23.7892 19.2776C24.1173 19.1956 24.3634 18.8675 24.3634 18.5393V16.7346H27.4396V18.5393C27.4396 18.8675 27.6857 19.1956 28.0139 19.2776C28.7521 19.4827 29.4904 19.7698 30.1877 20.18C30.4748 20.3441 30.885 20.303 31.1311 20.0569L32.4026 18.7854L34.5764 20.9593L33.3049 22.2308C33.0588 22.4769 33.0178 22.846 33.1819 23.1742C33.592 23.8304 33.8792 24.5687 34.0842 25.348C34.1663 25.6762 34.4944 25.9223 34.8225 25.9223H36.6272V28.9574H36.5862Z" fill="#37355F"/>
<path d="M38.8418 38.104H41.877C42.2872 38.104 42.6563 38.4321 42.6563 38.8833C42.6563 39.2935 42.3282 39.6626 41.877 39.6626H38.8418C38.4316 39.6626 38.0625 39.3345 38.0625 38.8833C38.1035 38.4321 38.4316 38.104 38.8418 38.104Z" fill="#37355F"/>
</svg>
