<svg width="38" height="46" viewBox="0 0 38 46" fill="none" xmlns="http://www.w3.org/2000/svg">
<path d="M21.4514 21.0413C21.0823 21.0413 20.7952 21.3284 20.7952 21.6975V23.9124H18.5803C18.2112 23.9124 17.9241 24.1995 17.9241 24.5687C17.9241 24.9378 18.2112 25.2249 18.5803 25.2249H20.8362C21.5335 25.2249 22.1487 24.6507 22.1487 23.9124V21.6565C22.1077 21.3284 21.8206 21.0413 21.4514 21.0413ZM18.5803 11.1154H20.7952V13.3302C20.7952 13.6994 21.0823 13.9865 21.4514 13.9865C21.8206 13.9865 22.1077 13.6994 22.1077 13.3302V11.0744C22.1077 10.3771 21.5335 9.76184 20.7952 9.76184H18.5393C18.1701 9.76184 17.883 10.049 17.883 10.4181C17.883 10.7872 18.2112 11.1154 18.5803 11.1154ZM16.2424 16.6526H18.4162C18.9905 16.6526 19.4416 16.2014 19.4416 15.6271V13.4533C19.4416 12.8791 18.9905 12.4279 18.4162 12.4279H16.2424C15.6682 12.4279 15.217 12.8791 15.217 13.4533V15.6271C15.217 16.2014 15.7092 16.6526 16.2424 16.6526ZM16.5705 13.7814H18.0881V15.299H16.5705V13.7814ZM19.4416 21.8616C19.4416 21.4924 19.1545 21.2053 18.7854 21.2053H15.9143C15.5451 21.2053 15.258 21.4924 15.258 21.8616C15.258 22.2307 15.5451 22.5179 15.9143 22.5179H18.7854C19.1545 22.5589 19.4416 22.2718 19.4416 21.8616ZM19.4416 19.9338V18.9905C19.4416 18.6213 19.1545 18.3342 18.7854 18.3342C18.4162 18.3342 18.1291 18.6213 18.1291 18.9905V19.9338C18.1291 20.303 18.4162 20.5901 18.7854 20.5901C19.1545 20.5901 19.4416 20.303 19.4416 19.9338ZM14.3967 3.65043C14.7658 3.65043 15.0529 3.36332 15.0529 2.99417C15.0529 2.62503 14.7658 2.33792 14.3967 2.33792C14.0275 2.33792 13.7404 2.62503 13.7404 2.99417C13.7404 3.36332 14.0275 3.65043 14.3967 3.65043ZM12.5099 18.3342H10.3361C9.76184 18.3342 9.31066 18.7854 9.31066 19.3596V21.5335C9.31066 22.1077 9.76184 22.5589 10.3361 22.5589H12.5099C13.0841 22.5589 13.5353 22.1077 13.5353 21.5335V19.3596C13.5763 18.7854 13.0841 18.3342 12.5099 18.3342ZM12.2228 21.2053H10.7052V19.6877H12.2228V21.2053ZM33.8383 30.598C33.4692 30.598 33.1821 30.8852 33.1821 31.2543L33.2231 33.4692L31.4184 30.8851C31.2543 30.639 30.9672 30.557 30.6801 30.6391C30.393 30.7211 30.2289 30.9672 30.2289 31.2953V35.602C30.2289 35.9711 30.516 36.2583 30.8852 36.2583C31.2543 36.2583 31.5414 35.9711 31.5414 35.602V33.4282L33.2231 35.8891C33.4282 36.1762 33.7563 36.2993 34.0434 36.1762C34.3715 36.0942 34.5766 35.8071 34.5766 35.4379L34.5356 31.2543C34.4946 30.8852 34.2075 30.598 33.8383 30.598ZM27.1527 31.0902C27.0296 30.8031 26.7425 30.598 26.4554 30.598C26.1273 30.598 25.8812 30.8031 25.7581 31.0902L24.1175 35.3559C23.9944 35.684 24.1585 36.0942 24.4866 36.2172C24.8148 36.3403 25.2249 36.1762 25.348 35.8481L25.5941 35.2329H27.2757L27.5218 35.8481C27.6449 36.2172 28.055 36.3813 28.3832 36.2583C28.7113 36.1352 28.9164 35.725 28.7933 35.3969L27.1527 31.0902ZM26.0863 33.8383L26.4144 32.977L26.7425 33.8383H26.0863ZM15.6271 32.8129C15.135 32.6078 14.6428 32.4027 14.4787 32.3617C14.4377 32.3207 14.4377 32.2387 14.4377 32.1977C14.4377 32.0746 14.5607 31.9926 14.6838 31.9516C15.217 31.7875 15.7502 32.1977 15.7502 32.1977C16.0373 32.4438 16.4475 32.4027 16.6936 32.1156C16.9397 31.8285 16.8986 31.4184 16.6115 31.1723C16.2014 30.8441 15.299 30.3519 14.3146 30.6801C13.6584 30.8851 13.2072 31.3773 13.1252 32.0336C13.0431 32.6078 13.2892 33.1821 13.7814 33.5102C14.0275 33.6743 14.3146 33.7563 15.176 34.0844C15.4221 34.1664 15.7092 34.3305 15.6682 34.5356C15.6271 34.6997 15.4221 34.9047 15.0529 34.9047C14.6428 34.9047 14.2736 34.7407 14.0275 34.4946C13.7814 34.2075 13.3713 34.2075 13.0841 34.4536C12.797 34.6996 12.797 35.1098 13.0431 35.3969C13.5353 35.9301 14.2736 36.2583 15.0529 36.2583C16.0373 36.2583 16.8576 35.643 16.9807 34.7817C17.1037 34.0844 16.8166 33.2641 15.6271 32.8129ZM22.887 34.4536C22.5999 34.2075 22.1897 34.2485 21.9436 34.5356C21.9026 34.5766 21.8616 34.6176 21.8206 34.6586C21.6155 34.8227 21.3694 34.9047 21.0823 34.9047C20.262 34.9047 19.6057 34.2485 19.6057 33.4282C19.6057 32.6078 20.262 31.9516 21.0823 31.9516C21.3694 31.9516 21.6565 32.0336 21.9026 32.1977C22.1897 32.4027 22.6409 32.3207 22.846 32.0336C23.0511 31.7465 22.969 31.2953 22.6819 31.0902C22.2307 30.7621 21.6565 30.598 21.0823 30.598C19.5237 30.598 18.2522 31.8695 18.2522 33.4282C18.2522 34.9868 19.5237 36.2583 21.0823 36.2583C21.6975 36.2583 22.2718 36.0532 22.7229 35.643C22.805 35.561 22.887 35.479 22.969 35.3969C23.2151 35.1098 23.1741 34.6996 22.887 34.4536ZM35.1508 28.1371H28.7933V4.22466C28.7933 1.88674 26.9066 0 24.5687 0H4.22466C1.88674 0 0 1.88674 0 4.22466V41.4673C0 43.8052 1.88674 45.692 4.22466 45.692H24.5687C26.9066 45.692 28.7933 43.8052 28.7933 41.4673V38.6372H35.1508C36.2993 38.6372 37.2426 37.6938 37.2426 36.5454V30.1879C37.2837 29.0804 36.3403 28.1371 35.1508 28.1371ZM35.9301 36.5864C35.9301 36.9966 35.602 37.3657 35.1508 37.3657H21.6975C21.3284 37.3657 21.0413 37.6528 21.0413 38.022C21.0413 38.3911 21.3284 38.6782 21.6975 38.6782H24.7737V41.0572C24.7737 41.4263 24.4866 41.7134 24.1175 41.7134H4.63482C4.26568 41.7134 3.97857 41.4263 3.97857 41.0572V13.9045C3.97857 13.5353 3.69145 13.2482 3.32231 13.2482C2.95316 13.2482 2.66605 13.5353 2.66605 13.9045V41.0572C2.66605 42.1646 3.5684 43.0669 4.67584 43.0669H24.1585C25.2659 43.0669 26.1683 42.1646 26.1683 41.0572V38.6782H27.5218V41.5083C27.5218 43.108 26.2093 44.4205 24.6097 44.4205H4.22466C2.62503 44.4205 1.31252 43.108 1.31252 41.5083V4.26568C1.31252 2.66605 2.62503 1.35353 4.22466 1.35353H24.5687C26.1683 1.35353 27.4808 2.66605 27.4808 4.26568V28.1781H26.1273V4.71686C26.1273 3.60942 25.2249 2.70707 24.1175 2.70707H21.6565C20.8772 2.70707 20.262 3.32231 20.262 4.10161C20.262 4.38873 20.0159 4.63482 19.7288 4.63482H9.02355C8.73644 4.63482 8.49034 4.38873 8.49034 4.10161C8.49034 3.73247 8.32628 3.36333 8.08018 3.11723C7.83408 2.87113 7.46494 2.70707 7.09579 2.70707H4.63482C3.52739 2.70707 2.62503 3.60942 2.62503 4.71686V10.8283C2.62503 11.1974 2.91215 11.4845 3.28129 11.4845C3.65044 11.4845 3.93755 11.1974 3.93755 10.8283V4.71686C3.93755 4.34771 4.22466 4.0606 4.59381 4.0606H7.05478H7.09579V4.10161C7.09579 5.12702 7.95713 5.98836 8.98253 5.98836H19.6877C20.7131 5.98836 21.5745 5.12702 21.5745 4.10161C21.5745 4.0606 21.5745 4.0606 21.6155 4.0606H24.0765C24.4456 4.0606 24.7327 4.34771 24.7327 4.71686V28.1781H12.2228C11.0744 28.1781 10.131 29.1215 10.131 30.2699V36.6274C10.131 37.7759 11.0744 38.7192 12.2228 38.7192H18.5803C18.9495 38.7192 19.2366 38.4321 19.2366 38.063C19.2366 37.6938 18.9495 37.4067 18.5803 37.4067H12.2228C11.8126 37.4067 11.4435 37.0786 11.4435 36.6274V30.2699C11.4435 29.8597 11.7716 29.4906 12.2228 29.4906H35.1508C35.561 29.4906 35.9301 29.8187 35.9301 30.2699V36.5864ZM9.35168 13.4943V15.6682C9.35168 16.2424 9.80286 16.6936 10.3771 16.6936H12.5509C13.1252 16.6936 13.5763 16.2424 13.5763 15.6682V13.4943C13.5763 12.9201 13.1252 12.4689 12.5509 12.4689H10.3771C9.80286 12.4689 9.35168 12.9201 9.35168 13.4943ZM10.7052 13.7814H12.2228V15.299H10.7052V13.7814ZM16.5705 18.3342H15.217V19.6877H16.5705V18.3342ZM7.34189 13.9865C7.71103 13.9865 7.99815 13.6994 7.99815 13.3302V11.1154H10.213C10.5822 11.1154 10.8693 10.8283 10.8693 10.4591C10.8693 10.09 10.5822 9.80285 10.213 9.80285H7.95713C7.25986 9.80285 6.64462 10.3771 6.64462 11.1154V13.3713C6.64462 13.6994 6.97274 13.9865 7.34189 13.9865ZM10.8693 24.5687C10.8693 24.1995 10.5822 23.9124 10.213 23.9124H7.99815V21.6975C7.99815 21.3284 7.71103 21.0413 7.34189 21.0413C6.97274 21.0413 6.68563 21.3284 6.68563 21.6975V23.9534C6.68563 24.6507 7.25986 25.2659 7.99815 25.2659H10.213C10.5822 25.2249 10.8693 24.9378 10.8693 24.5687Z" fill="#37355F"/>
</svg>
