<svg width="204" height="204" viewBox="0 0 204 204" fill="none" xmlns="http://www.w3.org/2000/svg">
<path d="M101.876 203.752C158.14 203.752 203.752 158.14 203.752 101.876C203.752 45.6113 158.14 0 101.876 0C45.6113 0 0 45.6113 0 101.876C0 158.14 45.6113 203.752 101.876 203.752Z" fill="#9DC6FB"/>
<path d="M203.062 113.719L197.255 103.661C196.297 102 194.323 101.215 192.485 101.763L184.492 104.147C183.309 104.5 182.034 104.301 181.006 103.617C179.095 102.344 177.111 101.196 175.058 100.174C173.955 99.6256 173.149 98.6224 172.864 97.4242L170.935 89.3211C170.491 87.4555 168.823 86.139 166.906 86.139H134.208C132.29 86.139 130.623 87.4555 130.179 89.3211L128.25 97.4242C127.965 98.6224 127.158 99.626 126.056 100.174C124.003 101.196 122.018 102.344 120.108 103.617C119.08 104.301 117.805 104.5 116.622 104.147L108.629 101.763C106.792 101.215 104.818 102 103.859 103.661L87.5095 131.978C86.5509 133.639 86.8573 135.741 88.2509 137.058L94.3022 142.779C95.1936 143.622 95.664 144.816 95.5868 146.041C95.5143 147.194 95.4777 148.348 95.4777 149.501C95.4777 150.653 95.5143 151.808 95.5868 152.96C95.664 154.184 95.1936 155.379 94.3022 156.222L88.2509 161.943C86.8573 163.26 86.5509 165.362 87.5095 167.023L103.859 195.34C104.817 197.001 106.791 197.787 108.629 197.238L116.621 194.854C117.804 194.501 119.08 194.7 120.107 195.384C122.018 196.657 124.003 197.806 126.055 198.827C126.779 199.187 127.372 199.746 127.777 200.425C167.794 189.936 198.198 155.721 203.062 113.719Z" fill="#80B4FB"/>
<path d="M101.876 190.499C150.821 190.499 190.499 150.821 190.499 101.876C190.499 52.9303 150.821 13.2522 101.876 13.2522C52.9301 13.2522 13.252 52.9303 13.252 101.876C13.252 150.821 52.9301 190.499 101.876 190.499Z" fill="#D3EFFB"/>
<path d="M190.493 102.357L184.492 104.146C183.309 104.499 182.034 104.301 181.006 103.616C179.096 102.344 177.111 101.195 175.059 100.174C173.956 99.6253 173.149 98.622 172.864 97.4238L170.935 89.3207C170.491 87.4551 168.824 86.1387 166.906 86.1387H134.208C132.29 86.1387 130.624 87.4551 130.18 89.3207L128.25 97.4238C127.965 98.622 127.158 99.6257 126.056 100.174C124.003 101.195 122.019 102.344 120.108 103.616C119.081 104.301 117.805 104.499 116.622 104.146L108.63 101.763C106.792 101.215 104.818 102 103.859 103.661L87.5095 131.978C86.5509 133.639 86.8573 135.741 88.2509 137.058L94.3022 142.779C95.1936 143.622 95.664 144.816 95.5868 146.041C95.5143 147.194 95.4777 148.348 95.4777 149.501C95.4777 150.653 95.5143 151.808 95.5868 152.96C95.664 154.185 95.1936 155.379 94.3022 156.222L88.2509 161.943C86.8573 163.26 86.5509 165.362 87.5095 167.023L101.058 190.489C101.331 190.492 101.602 190.5 101.876 190.5C150.66 190.499 190.233 151.08 190.493 102.357Z" fill="#9DC6FB"/>
<path d="M101.876 48.0388C98.2163 48.0388 95.25 51.0056 95.25 54.6647V101.876H108.502V54.6651C108.502 51.0056 105.535 48.0388 101.876 48.0388Z" fill="#E28086"/>
<path d="M108.502 81.3887C106.413 80.7114 104.187 80.3413 101.876 80.3413C99.5646 80.3413 97.3389 80.7118 95.25 81.3887V101.876H108.502V81.3887H108.502Z" fill="#CB5769"/>
<path d="M60.4629 101.876C60.4629 105.535 63.4296 108.502 67.0888 108.502H101.876V95.2498H67.0888C63.4296 95.2498 60.4629 98.2161 60.4629 101.876Z" fill="#E28086"/>
<path d="M101.876 95.2498H81.3887C80.7114 97.3386 80.3413 99.5644 80.3413 101.876C80.3413 104.187 80.7118 106.413 81.3887 108.502H101.876V95.2498Z" fill="#CB5769"/>
<path d="M101.876 114.3C108.737 114.3 114.3 108.737 114.3 101.876C114.3 95.0142 108.737 89.4518 101.876 89.4518C95.0141 89.4518 89.4517 95.0142 89.4517 101.876C89.4517 108.737 95.0141 114.3 101.876 114.3Z" fill="#F6E266"/>
<path d="M196.525 149.501C196.525 147.249 196.36 145.035 196.045 142.869C195.851 141.532 196.297 140.183 197.278 139.254L201.398 135.359C202.778 134.055 203.082 131.974 202.132 130.33L192.946 114.42C191.997 112.776 190.043 111.998 188.224 112.541L182.767 114.169C181.472 114.555 180.078 114.266 179.018 113.428C175.562 110.696 171.705 108.449 167.552 106.791C166.299 106.291 165.356 105.23 165.044 103.918L163.73 98.3996C163.29 96.5527 161.641 95.2494 159.742 95.2494H141.37C139.472 95.2494 137.822 96.5527 137.382 98.3996L136.068 103.918C135.756 105.23 134.813 106.291 133.561 106.791C129.408 108.449 125.551 110.696 122.094 113.428C121.034 114.266 119.641 114.555 118.345 114.169L112.888 112.541C111.069 111.999 109.115 112.776 108.166 114.42L98.9802 130.33C98.0311 131.974 98.3347 134.055 99.714 135.359L103.834 139.254C104.816 140.182 105.262 141.532 105.067 142.869C104.752 145.035 104.587 147.249 104.587 149.501C104.587 151.753 104.752 153.966 105.067 156.132C105.262 157.469 104.816 158.819 103.834 159.747L99.714 163.642C98.3347 164.946 98.0307 167.027 98.9802 168.671L108.166 184.581C109.115 186.225 111.069 187.003 112.888 186.46L118.345 184.832C119.641 184.446 121.034 184.735 122.094 185.573C125.551 188.306 129.407 190.552 133.561 192.21C134.813 192.711 135.756 193.771 136.068 195.083L137.382 200.602C137.822 202.449 139.472 203.752 141.37 203.752H159.742C161.64 203.752 163.29 202.449 163.73 200.602L165.044 195.083C165.357 193.771 166.299 192.711 167.552 192.21C171.705 190.552 175.562 188.306 179.018 185.573C180.078 184.735 181.471 184.446 182.767 184.832L188.224 186.46C190.043 187.002 191.997 186.225 192.946 184.581L202.132 168.671C203.081 167.027 202.778 164.946 201.398 163.642L197.278 159.747C196.297 158.819 195.851 157.469 196.045 156.132C196.36 153.966 196.525 151.752 196.525 149.501Z" fill="#4073C8"/>
<path d="M197.278 159.747C196.297 158.819 195.851 157.469 196.045 156.132C196.36 153.966 196.525 151.752 196.525 149.501C196.525 147.249 196.36 145.035 196.045 142.869C195.851 141.532 196.297 140.182 197.278 139.254L198.307 138.282C197.002 138.743 196.009 139.563 195.704 140.85C190.414 170.028 164.881 192.156 134.178 192.156C133.92 192.156 133.665 192.149 133.409 192.146C133.46 192.167 133.51 192.19 133.561 192.21C134.813 192.711 135.757 193.771 136.069 195.083L137.383 200.602C137.822 202.448 139.472 203.752 141.371 203.752H159.742C161.641 203.752 163.291 202.448 163.731 200.602L165.045 195.083C165.357 193.771 166.3 192.71 167.552 192.21C171.705 190.552 175.562 188.306 179.018 185.573C180.079 184.735 181.472 184.446 182.767 184.832L188.225 186.46C190.044 187.002 191.998 186.225 192.947 184.581L202.133 168.671C203.082 167.027 202.778 164.946 201.399 163.642L197.278 159.747Z" fill="#30579D"/>
<path d="M150.557 182.217C168.625 182.217 183.273 167.569 183.273 149.501C183.273 131.432 168.625 116.785 150.557 116.785C132.488 116.785 117.841 131.432 117.841 149.501C117.841 167.569 132.488 182.217 150.557 182.217Z" fill="#D3EFFB"/>
<path d="M146.623 163.374C144.927 163.374 143.231 162.727 141.937 161.433L135.311 154.807C132.724 152.219 132.724 148.024 135.311 145.436C137.899 142.849 142.094 142.849 144.682 145.436L146.623 147.377L156.432 137.568C159.02 134.981 163.215 134.981 165.803 137.568C168.391 140.156 168.391 144.351 165.803 146.939L151.308 161.434C150.014 162.727 148.318 163.374 146.623 163.374Z" fill="#95D6A4"/>
<path d="M101.876 37.8615C100.178 37.8615 98.8013 36.485 98.8013 34.787V26.5044C98.8013 24.8063 100.178 23.4298 101.876 23.4298C103.574 23.4298 104.95 24.8063 104.95 26.5044V34.787C104.95 36.485 103.574 37.8615 101.876 37.8615Z" fill="#E28086"/>
<path d="M68.3339 46.8506C67.2714 46.8506 66.2379 46.299 65.6684 45.3125L61.5273 38.1398C60.6781 36.669 61.1819 34.7886 62.6527 33.9398C64.1236 33.0906 66.0039 33.5944 66.8527 35.0652L70.9938 42.2383C71.843 43.7091 71.3392 45.5894 69.8684 46.4383C69.3845 46.7176 68.8556 46.8506 68.3339 46.8506Z" fill="#E28086"/>
<path d="M43.7724 71.4064C43.2507 71.4064 42.7222 71.2735 42.2379 70.9938L35.0648 66.8527C33.594 66.0039 33.0902 64.1231 33.9394 62.6527C34.7883 61.1823 36.669 60.6777 38.1394 61.5273L45.3125 65.6684C46.7833 66.5172 47.2871 68.3979 46.4379 69.8684C45.8684 70.8549 44.835 71.4064 43.7724 71.4064Z" fill="#E28086"/>
<path d="M34.7864 104.95H26.5043C24.8062 104.95 23.4297 103.574 23.4297 101.876C23.4297 100.178 24.8062 98.8011 26.5043 98.8011H34.7868C36.4849 98.8011 37.8614 100.178 37.8614 101.876C37.8614 103.574 36.4849 104.95 34.7864 104.95Z" fill="#E28086"/>
<path d="M135.417 46.8504C134.896 46.8504 134.367 46.7175 133.883 46.4377C132.412 45.5889 131.908 43.7082 132.757 42.2377L136.898 35.0646C137.748 33.5938 139.628 33.0896 141.098 33.9392C142.569 34.7881 143.073 36.6688 142.224 38.1392L138.083 45.3123C137.513 46.2988 136.48 46.8504 135.417 46.8504Z" fill="#E28086"/>
<path d="M159.979 71.4065C158.916 71.4065 157.883 70.8549 157.313 69.8684C156.464 68.3976 156.968 66.5172 158.439 65.6684L165.612 61.5273C167.082 60.6781 168.963 61.1819 169.812 62.6527C170.661 64.1236 170.157 66.0039 168.687 66.8527L161.513 70.9938C161.029 71.2736 160.501 71.4065 159.979 71.4065Z" fill="#E28086"/>
<path d="M36.6049 142.637C35.5424 142.637 34.5089 142.085 33.9394 141.099C33.0902 139.628 33.594 137.747 35.0648 136.899L42.2379 132.758C43.7084 131.908 45.5891 132.412 46.4379 133.883C47.2871 135.354 46.7833 137.234 45.3125 138.083L38.1398 142.224C37.6555 142.504 37.1266 142.637 36.6049 142.637Z" fill="#E28086"/>
<path d="M64.1872 170.225C63.6655 170.225 63.137 170.092 62.6527 169.812C61.1819 168.963 60.6781 167.082 61.5273 165.612L65.6684 158.439C66.5172 156.968 68.398 156.464 69.8684 157.313C71.3392 158.162 71.843 160.043 70.9938 161.513L66.8527 168.686C66.2832 169.673 65.2498 170.225 64.1872 170.225Z" fill="#E28086"/>
</svg>
