<svg width="217" height="202" viewBox="0 0 217 202" fill="none" xmlns="http://www.w3.org/2000/svg">
<path d="M192.008 129.091V22.2697C192.008 9.97045 182.037 0 169.738 0H22.2697C9.97044 0.000422351 0 9.97087 0 22.2702V129.091C0 141.39 9.97044 151.361 22.2697 151.361H70.8135C73.6999 151.361 76.3678 152.898 77.8144 155.396L94.526 184.249H105.085L121.796 155.396C123.243 152.898 125.911 151.361 128.797 151.361H145.43H145.431H169.74C182.038 151.36 192.008 141.39 192.008 129.091Z" fill="#E28086"/>
<path d="M111.237 155.396L94.5259 184.248L102.523 198.054C105.015 202.358 111.229 202.358 113.722 198.054L138.43 155.396C139.877 152.898 142.545 151.36 145.431 151.36H118.238C115.352 151.36 112.684 152.898 111.237 155.396Z" fill="#DD636E"/>
<path d="M193.974 0.000366211H166.782C179.081 0.000366211 189.051 9.97081 189.051 22.2701V129.091C189.051 141.39 179.081 151.36 166.782 151.36H193.974C206.274 151.36 216.244 141.39 216.244 129.091V22.2697C216.244 9.97081 206.274 0.000366211 193.974 0.000366211Z" fill="#DD636E"/>
<path d="M108.122 130.521C138.036 130.521 162.286 106.271 162.286 76.3574C162.286 46.4437 138.036 22.1938 108.122 22.1938C78.2084 22.1938 53.9585 46.4437 53.9585 76.3574C53.9585 106.271 78.2084 130.521 108.122 130.521Z" fill="#FFE07D"/>
<path d="M108.122 22.1938C103.459 22.1938 98.9321 22.7864 94.6123 23.8993C117.963 29.9165 135.266 51.1541 135.266 76.357C135.266 101.56 117.963 122.798 94.6123 128.815C98.9325 129.928 103.459 130.521 108.122 130.521C137.988 130.521 162.286 106.223 162.286 76.3574C162.286 46.4917 137.988 22.1938 108.122 22.1938Z" fill="#FFD064"/>
<path d="M98.1261 63.8347C96.3239 63.8347 94.863 62.3738 94.863 60.5716C94.863 58.8045 93.4253 57.3668 91.6582 57.3668C89.8911 57.3668 88.4534 58.8045 88.4534 60.5716C88.4534 62.3738 86.9925 63.8347 85.1903 63.8347C83.3882 63.8347 81.9272 62.3738 81.9272 60.5716C81.9272 55.2056 86.2927 50.8402 91.6586 50.8402C97.0246 50.8402 101.39 55.2056 101.39 60.5716C101.39 62.3738 99.9287 63.8347 98.1261 63.8347Z" fill="#E27D47"/>
<path d="M131.055 63.8347C129.253 63.8347 127.792 62.3738 127.792 60.5716C127.792 58.8045 126.355 57.3668 124.587 57.3668C122.82 57.3668 121.383 58.8045 121.383 60.5716C121.383 62.3738 119.922 63.8347 118.12 63.8347C116.317 63.8347 114.856 62.3738 114.856 60.5716C114.856 55.2056 119.222 50.8402 124.588 50.8402C129.954 50.8402 134.319 55.2056 134.319 60.5716C134.318 62.3738 132.857 63.8347 131.055 63.8347Z" fill="#E27D47"/>
<path d="M108.123 109.14C95.6442 109.14 84.6111 103.723 80.0147 95.3387C79.1484 93.7582 79.727 91.7749 81.3075 90.9086C82.8883 90.0428 84.8717 90.621 85.7375 92.2014C89.1518 98.4294 98.1475 102.614 108.123 102.614C118.097 102.614 127.093 98.4299 130.507 92.2014C131.373 90.621 133.357 90.0428 134.937 90.9086C136.518 91.7753 137.096 93.7587 136.23 95.3387C131.634 103.723 120.601 109.14 108.123 109.14Z" fill="#E27D47"/>
</svg>
