<svg width="111" height="98" viewBox="0 0 111 98" fill="none" xmlns="http://www.w3.org/2000/svg">
<path d="M16.1646 25.0804L26.028 34.9438C33.5193 27.4525 43.8683 22.819 55.2998 22.819V8.87012C40.0166 8.87012 26.1802 15.065 16.1646 25.0804Z" fill="#F6E266"/>
<path d="M94.434 25.0804L84.5706 34.9438C77.0793 27.4525 66.7303 22.819 55.2988 22.819V8.87012C70.5822 8.87012 84.4186 15.065 94.434 25.0804Z" fill="#E49542"/>
<path d="M94.431 25.084L84.5713 34.9437C91.5943 41.9667 96.1058 51.5016 96.6421 62.0852C96.7024 63.2754 97.6725 64.2155 98.8643 64.2155H108.37C109.637 64.2155 110.649 63.1596 110.597 61.8938C110.004 47.5345 103.937 34.5899 94.431 25.084Z" fill="#78C2A4"/>
<path d="M99.2861 30.6348C99.4412 31.9723 99.525 33.3259 99.525 34.6945C99.525 40.914 97.8885 46.8386 94.9302 52.2262C95.8809 55.3731 96.4688 58.6772 96.6421 62.0911C96.7024 63.2794 97.6755 64.2154 98.8655 64.2154H108.37C109.636 64.2154 110.649 63.1599 110.597 61.8943C110.112 50.1611 105.97 39.3747 99.2861 30.6348Z" fill="#95D6A4"/>
<path d="M16.168 25.084L26.0277 34.9437C19.0047 41.9667 14.4932 51.5016 13.9569 62.0852C13.8966 63.2754 12.9265 64.2155 11.7347 64.2155H2.22904C0.962118 64.2155 -0.0503382 63.1596 0.00193709 61.8938C0.594895 47.5345 6.66207 34.5899 16.168 25.084Z" fill="#DD5790"/>
<path d="M99.5256 21.6601C99.0981 21.6601 98.6706 21.497 98.3444 21.1711C86.8469 9.67309 71.56 3.34087 55.2998 3.34087C54.3772 3.34087 53.6294 2.59303 53.6294 1.67043C53.6294 0.747839 54.3772 0 55.2998 0C72.4524 0 88.5782 6.67957 100.707 18.8083C101.359 19.4609 101.359 20.5183 100.707 21.1708C100.381 21.497 99.9529 21.6601 99.5256 21.6601Z" fill="#DD5790"/>
<path d="M100.706 18.8084C100.125 18.2277 99.2082 18.1554 98.5433 18.6384L47.3178 55.8642C46.9227 56.1515 46.673 56.5974 46.6345 57.0847C46.5963 57.5716 46.7732 58.0514 47.1186 58.3968L61.118 72.3964C61.4323 72.7107 61.8579 72.8854 62.299 72.8854C62.3426 72.8854 62.3862 72.8837 62.4301 72.8803C62.9172 72.842 63.3631 72.5923 63.6506 72.197L100.876 20.9715C101.36 20.3069 101.287 19.3895 100.706 18.8084Z" fill="#4073C8"/>
<path d="M36.4009 73.2142V80.8861C36.4009 82.1161 37.398 83.1132 38.628 83.1132H71.9706C73.2005 83.1132 74.1977 82.1161 74.1977 80.8861V73.2142C74.1977 68.2441 70.1686 64.2148 65.1983 64.2148H45.4C40.43 64.2151 36.4009 68.2441 36.4009 73.2142Z" fill="#9DC6FB"/>
<path d="M65.1988 64.2158H59.7993C64.7696 64.2158 68.7987 68.2449 68.7987 73.2152V83.1144H71.971C73.201 83.1144 74.1981 82.1173 74.1981 80.8873V73.2154C74.1981 68.2449 70.1691 64.2158 65.1988 64.2158Z" fill="#80B4FB"/>
<path d="M71.9703 97.5118H38.628C37.398 97.5118 36.4009 96.5147 36.4009 95.2847V92.5396C36.4009 91.3096 37.398 90.3125 38.628 90.3125H71.9706C73.2005 90.3125 74.1977 91.3096 74.1977 92.5396V95.2847C74.1977 96.5147 73.2005 97.5118 71.9703 97.5118Z" fill="#4073C8"/>
<path d="M47.5206 83.1136V78.6138C47.5206 77.6912 46.7727 76.9434 45.8501 76.9434C44.9275 76.9434 44.1797 77.6912 44.1797 78.6138V83.1136H47.5206Z" fill="#80B4FB"/>
<path d="M66.419 78.6138C66.419 77.6912 65.6712 76.9434 64.7486 76.9434C63.826 76.9434 63.0781 77.6912 63.0781 78.6138V83.1136H66.419V78.6138Z" fill="#80B4FB"/>
<path d="M108.929 72.8848H98.3125C97.3899 72.8848 96.6421 72.137 96.6421 71.2144C96.6421 70.2918 97.3899 69.5439 98.3125 69.5439H108.929C109.851 69.5439 110.599 70.2918 110.599 71.2144C110.599 72.137 109.851 72.8848 108.929 72.8848Z" fill="#4073C8"/>
<path d="M106.145 80.085H101.195C100.273 80.085 99.5249 79.3372 99.5249 78.4146C99.5249 77.492 100.273 76.7441 101.195 76.7441H106.145C107.067 76.7441 107.815 77.492 107.815 78.4146C107.815 79.3372 107.067 80.085 106.145 80.085Z" fill="#4073C8"/>
<path d="M1.67043 72.8848H12.2864C13.209 72.8848 13.9569 72.137 13.9569 71.2144C13.9569 70.2918 13.209 69.5439 12.2864 69.5439H1.67043C0.747839 69.5439 0 70.2918 0 71.2144C0 72.1372 0.747839 72.8848 1.67043 72.8848Z" fill="#4073C8"/>
<path d="M4.45364 80.085H9.40316C10.3258 80.085 11.0736 79.3372 11.0736 78.4146C11.0736 77.492 10.3258 76.7441 9.40316 76.7441H4.45364C3.53104 76.7441 2.7832 77.492 2.7832 78.4146C2.7832 79.3372 3.53104 80.085 4.45364 80.085Z" fill="#4073C8"/>
<path d="M57.9577 30.7744C57.957 30.7744 51.3005 30.7744 51.3005 30.7744C46.5512 30.7744 42.7012 34.5354 42.7012 39.1748V45.6644H58.4183V31.4489L57.9577 30.7744Z" fill="#E49542"/>
<path d="M58.0521 30.7744H57.5913V45.6644H66.6907V39.1749C66.6907 34.5354 62.8231 30.7744 58.0521 30.7744Z" fill="#E27D47"/>
<path d="M59.659 63.7468V56.832H49.7324V63.7468C49.7324 66.5525 51.9546 68.8267 54.6957 68.8267C57.437 68.8269 59.659 66.5525 59.659 63.7468Z" fill="#FFCBBE"/>
<path d="M58.4183 49.9983V37.8057H50.0632C48.2911 37.8057 46.8545 39.2225 46.8545 40.9702V42.9225C46.8545 44.4315 45.6027 45.6659 44.0726 45.6659H42.7012V47.6033C42.7012 48.7465 43.6125 49.6877 44.7703 49.7405C44.7703 54.2959 47.876 58.1336 52.1124 59.3134C55.8145 57.7971 58.4183 54.1978 58.4183 49.9983Z" fill="#FFCBBE"/>
<path d="M51.3872 59.1122C52.4519 59.5094 53.6027 59.727 54.8039 59.727C60.2514 59.727 64.6676 55.265 64.6676 49.7611C65.7953 49.7245 66.6908 48.7902 66.6908 47.6502V45.6795H64.6676C63.5421 45.6795 62.6299 44.7578 62.6299 43.6207V40.9756C62.6299 39.2249 61.2252 37.8057 59.4924 37.8057H57.8341V49.7611C57.8342 54.0513 55.1507 57.7079 51.3872 59.1122Z" fill="#FFB19D"/>
</svg>
