<svg width="263" height="208" viewBox="0 0 263 208" fill="none" xmlns="http://www.w3.org/2000/svg">
<path d="M146.911 124.782C142.929 124.782 139.037 124.386 135.271 123.638V200.257H157.631V123.814C154.153 124.449 150.57 124.782 146.911 124.782Z" fill="#9DC6FB"/>
<path d="M135.271 123.638V200.257H144.061V124.713C141.068 124.571 138.133 124.207 135.271 123.638Z" fill="#698ED5"/>
<path d="M118.725 200.257V139.704C118.725 138.656 117.876 137.807 116.828 137.807H98.261C97.2137 137.807 96.3647 138.656 96.3647 139.704V200.257L118.725 200.257Z" fill="#F6E266"/>
<path d="M104.958 200.257V139.704C104.958 138.656 105.807 137.807 106.855 137.807H98.261C97.2137 137.807 96.3647 138.656 96.3647 139.704V200.257H104.958V200.257Z" fill="#FAC600"/>
<path d="M79.8184 200.257V106.114C79.8184 105.067 78.9694 104.218 77.9221 104.218H59.3547C58.3075 104.218 57.4585 105.067 57.4585 106.114V200.257H79.8184Z" fill="#9DC6FB"/>
<path d="M66.3198 200.257V106.114C66.3198 105.067 67.1688 104.218 68.216 104.218H59.3542C58.307 104.218 57.458 105.067 57.458 106.114V200.257H66.3198Z" fill="#698ED5"/>
<path d="M40.9116 200.257V68.1516C40.9116 67.1044 40.0626 66.2554 39.0154 66.2554H20.448C19.4008 66.2554 18.5518 67.1044 18.5518 68.1516V200.257H40.9116V200.257Z" fill="#95D6A4"/>
<path d="M27.2764 200.257V68.1516C27.2764 67.1044 28.1254 66.2554 29.1726 66.2554H20.448C19.4008 66.2554 18.5518 67.1044 18.5518 68.1516V200.257H27.2764V200.257Z" fill="#78C2A4"/>
<path d="M172 207.448H3.85205C1.72418 207.448 0 205.723 0 203.595C0 201.468 1.72418 199.743 3.85205 199.743H172C174.128 199.743 175.852 201.468 175.852 203.595C175.852 205.723 174.127 207.448 172 207.448Z" fill="#A8D3D8"/>
<path d="M212.958 119.723L194.456 101.22C191.026 105.802 186.952 109.876 182.371 113.305L200.874 131.809L212.958 119.723Z" fill="#A8D3D8"/>
<path d="M188.096 108.418C186.291 110.162 184.383 111.799 182.371 113.306L200.874 131.809L206.18 126.502L188.096 108.418Z" fill="#8EBAC5"/>
<path d="M260.676 169.626L251.11 179.193C248.056 182.247 243.104 182.247 240.05 179.193L198.629 137.772C197.395 136.538 197.395 134.536 198.629 133.302L214.785 117.146C216.019 115.912 218.021 115.912 219.255 117.146L260.676 158.567C263.73 161.621 263.73 166.573 260.676 169.626Z" fill="#678D98"/>
<path d="M216.189 137.773C214.955 136.538 214.955 134.537 216.189 133.303L225.801 123.691L219.256 117.147C218.022 115.912 216.02 115.912 214.786 117.147L198.63 133.303C197.396 134.537 197.396 136.538 198.63 137.773L240.051 179.193C243.105 182.247 248.056 182.247 251.11 179.193L254.36 175.944L216.189 137.773Z" fill="#537983"/>
<path d="M146.746 5.50024C136.953 5.50024 127.707 7.84435 119.538 12.0005V37.2519C119.538 37.8313 119.067 38.3023 118.487 38.3023H93.1932C89.0109 46.4922 86.6514 55.7685 86.6514 65.5959C86.6514 98.7857 113.557 125.691 146.746 125.691C179.936 125.691 206.842 98.7851 206.842 65.5953C206.842 32.4055 179.936 5.50024 146.746 5.50024Z" fill="#678D98"/>
<path d="M119.537 26.6315C121.88 24.9911 124.374 23.5535 126.998 22.3506C135.304 14.3358 145.912 8.69075 157.734 6.50637C154.171 5.84793 150.499 5.50073 146.745 5.50073C136.952 5.50073 127.706 7.84483 119.537 12.0009V26.6315H119.537Z" fill="#537983"/>
<path d="M99.2014 65.5953C99.2014 55.4465 102.4 46.0315 107.839 38.3018H93.1932C89.0109 46.4917 86.6509 55.768 86.6509 65.5953C86.6509 98.7851 113.557 125.69 146.746 125.69C150.499 125.69 154.172 125.343 157.735 124.685C145.913 122.5 135.305 116.855 126.999 108.841C110.612 101.329 99.2014 84.7703 99.2014 65.5953Z" fill="#537983"/>
<path d="M146.746 24.7278C136.305 24.7278 126.769 28.6692 119.537 35.1355V37.2516C119.537 37.8309 119.066 38.3019 118.487 38.3019H116.359C109.848 45.5438 105.878 55.1133 105.878 65.5955C105.878 88.1305 124.211 106.464 146.746 106.464C169.281 106.464 187.614 88.1305 187.614 65.5955C187.614 43.061 169.281 24.7278 146.746 24.7278Z" fill="#C8EFFE"/>
<path d="M146.746 17.5372C136.653 17.5372 127.279 20.6672 119.537 26.004V35.8222C126.718 29.2547 136.271 25.2413 146.746 25.2413C168.998 25.2413 187.101 43.3444 187.101 65.596C187.101 87.8475 168.998 105.951 146.746 105.951C124.495 105.951 106.392 87.8475 106.392 65.596C106.392 55.0793 110.439 45.4929 117.054 38.3024H107.213C101.841 46.0599 98.688 55.4661 98.688 65.596C98.688 92.0955 120.247 113.655 146.746 113.655C173.246 113.655 194.805 92.0955 194.805 65.596C194.805 39.0964 173.246 17.5372 146.746 17.5372Z" fill="#8EBAC5"/>
<path d="M146.533 66.1089H172.076L173.338 65.5953C173.338 50.9323 161.409 39.0033 146.746 39.0033C139.409 39.0033 132.756 41.9909 127.939 46.8132L128.547 48.146L146.533 66.1089Z" fill="#DD636E"/>
<path d="M146.746 65.5955H173.338C173.338 80.1835 161.334 92.1875 146.746 92.1875C132.158 92.1875 120.154 80.1835 120.154 65.5955C120.154 58.5514 122.953 51.7882 127.931 46.8042L146.746 65.5955Z" fill="#9DC6FB"/>
<path d="M128.718 65.5955C128.718 60.6053 130.129 55.76 132.717 51.5843L127.931 46.8042C122.953 51.7882 120.154 58.5514 120.154 65.5955C120.154 80.1835 132.158 92.1875 146.746 92.1875C148.203 92.1875 149.632 92.0627 151.028 91.8326C138.446 89.7597 128.718 78.7269 128.718 65.5955Z" fill="#698ED5"/>
<path d="M118.487 38.8158H19.9502C19.0863 38.8158 18.3862 38.1158 18.3862 37.2519V1.56393C18.3862 0.700045 19.0863 0 19.9502 0H118.487C119.351 0 120.051 0.700045 120.051 1.56393V37.2514C120.051 38.1153 119.351 38.8158 118.487 38.8158Z" fill="#E28086"/>
<path d="M43.7358 37.2514V1.56393C43.7358 0.700045 44.4359 0 45.2997 0H19.9502C19.0863 0 18.3862 0.700045 18.3862 1.56393V37.2514C18.3862 38.1153 19.0863 38.8153 19.9502 38.8153H45.3003C44.4364 38.8158 43.7358 38.1153 43.7358 37.2514Z" fill="#CB5769"/>
<path d="M48.5861 23.2601H35.5913C33.4634 23.2601 31.7393 21.5354 31.7393 19.4081C31.7393 17.2807 33.4634 15.556 35.5913 15.556H48.5861C50.714 15.556 52.4381 17.2807 52.4381 19.4081C52.4381 21.5354 50.7134 23.2601 48.5861 23.2601Z" fill="#E75562"/>
<path d="M102.846 23.2595H60.6167C58.4888 23.2595 56.7646 21.5348 56.7646 19.4075C56.7646 17.2801 58.4888 15.5554 60.6167 15.5554H102.846C104.974 15.5554 106.699 17.2801 106.699 19.4075C106.699 21.5348 104.974 23.2595 102.846 23.2595Z" fill="#E75562"/>
</svg>
