<svg width="261" height="573" viewBox="0 0 261 573" fill="none" xmlns="http://www.w3.org/2000/svg">
<circle cx="254.74" cy="568.399" r="4.26923" transform="rotate(-179.867 254.74 568.399)" fill="#70C217"/>
<circle cx="192.125" cy="568.254" r="4.26923" transform="rotate(-179.867 192.125 568.254)" fill="#70C217"/>
<circle cx="129.511" cy="568.108" r="4.26923" transform="rotate(-179.867 129.511 568.108)" fill="#70C217"/>
<circle cx="66.895" cy="567.962" r="4.26923" transform="rotate(-179.867 66.895 567.962)" fill="#70C217"/>
<circle cx="4.27978" cy="567.817" r="4.26923" transform="rotate(-179.867 4.27978 567.817)" fill="#70C217"/>
<circle cx="254.886" cy="505.784" r="4.26923" transform="rotate(-179.867 254.886 505.784)" fill="#70C217"/>
<circle cx="192.271" cy="505.638" r="4.26923" transform="rotate(-179.867 192.271 505.638)" fill="#70C217"/>
<circle cx="129.656" cy="505.493" r="4.26923" transform="rotate(-179.867 129.656 505.493)" fill="#70C217"/>
<circle cx="67.0405" cy="505.347" r="4.26923" transform="rotate(-179.867 67.0405 505.347)" fill="#70C217"/>
<circle cx="4.42528" cy="505.201" r="4.26923" transform="rotate(-179.867 4.42528 505.201)" fill="#70C217"/>
<circle cx="255.032" cy="443.169" r="4.26923" transform="rotate(-179.867 255.032 443.169)" fill="#70C217"/>
<circle cx="192.417" cy="443.023" r="4.26923" transform="rotate(-179.867 192.417 443.023)" fill="#70C217"/>
<circle cx="129.802" cy="442.877" r="4.26923" transform="rotate(-179.867 129.802 442.877)" fill="#70C217"/>
<circle cx="67.186" cy="442.732" r="4.26923" transform="rotate(-179.867 67.186 442.732)" fill="#70C217"/>
<circle cx="4.57079" cy="442.586" r="4.26923" transform="rotate(-179.867 4.57079 442.586)" fill="#70C217"/>
<circle cx="255.178" cy="380.553" r="4.26923" transform="rotate(-179.867 255.178 380.553)" fill="#70C217"/>
<circle cx="192.562" cy="380.408" r="4.26923" transform="rotate(-179.867 192.562 380.408)" fill="#70C217"/>
<circle cx="129.948" cy="380.262" r="4.26923" transform="rotate(-179.867 129.948 380.262)" fill="#70C217"/>
<circle cx="67.332" cy="380.117" r="4.26923" transform="rotate(-179.867 67.332 380.117)" fill="#70C217"/>
<circle cx="4.71679" cy="379.971" r="4.26923" transform="rotate(-179.867 4.71679 379.971)" fill="#70C217"/>
<circle cx="255.323" cy="317.939" r="4.26923" transform="rotate(-179.867 255.323 317.939)" fill="#70C217"/>
<circle cx="192.708" cy="317.793" r="4.26923" transform="rotate(-179.867 192.708 317.793)" fill="#70C217"/>
<circle cx="130.093" cy="317.647" r="4.26923" transform="rotate(-179.867 130.093 317.647)" fill="#70C217"/>
<circle cx="67.4775" cy="317.502" r="4.26923" transform="rotate(-179.867 67.4775 317.502)" fill="#70C217"/>
<circle cx="4.8623" cy="317.356" r="4.26923" transform="rotate(-179.867 4.8623 317.356)" fill="#70C217"/>
<circle cx="255.469" cy="255.324" r="4.26923" transform="rotate(-179.867 255.469 255.324)" fill="#70C217"/>
<circle cx="192.854" cy="255.177" r="4.26923" transform="rotate(-179.867 192.854 255.177)" fill="#70C217"/>
<circle cx="130.239" cy="255.031" r="4.26923" transform="rotate(-179.867 130.239 255.031)" fill="#70C217"/>
<circle cx="67.623" cy="254.886" r="4.26923" transform="rotate(-179.867 67.623 254.886)" fill="#70C217"/>
<circle cx="5.0078" cy="254.74" r="4.26923" transform="rotate(-179.867 5.0078 254.74)" fill="#70C217"/>
<circle cx="255.615" cy="192.707" r="4.26923" transform="rotate(-179.867 255.615 192.707)" fill="#70C217"/>
<circle cx="192.999" cy="192.562" r="4.26923" transform="rotate(-179.867 192.999 192.562)" fill="#70C217"/>
<circle cx="130.384" cy="192.416" r="4.26923" transform="rotate(-179.867 130.384 192.416)" fill="#70C217"/>
<circle cx="67.7685" cy="192.27" r="4.26923" transform="rotate(-179.867 67.7685 192.27)" fill="#70C217"/>
<circle cx="5.1538" cy="192.125" r="4.26923" transform="rotate(-179.867 5.1538 192.125)" fill="#70C217"/>
<circle cx="255.76" cy="130.092" r="4.26923" transform="rotate(-179.867 255.76 130.092)" fill="#70C217"/>
<circle cx="193.145" cy="129.947" r="4.26923" transform="rotate(-179.867 193.145 129.947)" fill="#70C217"/>
<circle cx="130.53" cy="129.801" r="4.26923" transform="rotate(-179.867 130.53 129.801)" fill="#70C217"/>
<circle cx="67.9145" cy="129.655" r="4.26923" transform="rotate(-179.867 67.9145 129.655)" fill="#70C217"/>
<circle cx="5.29931" cy="129.51" r="4.26923" transform="rotate(-179.867 5.29931 129.51)" fill="#70C217"/>
<circle cx="255.906" cy="67.477" r="4.26923" transform="rotate(-179.867 255.906 67.477)" fill="#70C217"/>
<circle cx="193.291" cy="67.3314" r="4.26923" transform="rotate(-179.867 193.291 67.3314)" fill="#70C217"/>
<circle cx="130.676" cy="67.1857" r="4.26923" transform="rotate(-179.867 130.676 67.1857)" fill="#70C217"/>
<circle cx="68.0601" cy="67.0402" r="4.26923" transform="rotate(-179.867 68.0601 67.0402)" fill="#70C217"/>
<circle cx="5.44481" cy="66.8944" r="4.26923" transform="rotate(-179.867 5.44481 66.8944)" fill="#70C217"/>
<circle cx="256.052" cy="4.86172" r="4.26923" transform="rotate(-179.867 256.052 4.86172)" fill="#70C217"/>
<circle cx="193.437" cy="4.71621" r="4.26923" transform="rotate(-179.867 193.437 4.71621)" fill="#70C217"/>
<circle cx="130.821" cy="4.57046" r="4.26923" transform="rotate(-179.867 130.821 4.57046)" fill="#70C217"/>
<circle cx="68.2056" cy="4.42495" r="4.26923" transform="rotate(-179.867 68.2056 4.42495)" fill="#70C217"/>
<circle cx="5.59032" cy="4.2792" r="4.26923" transform="rotate(-179.867 5.59032 4.2792)" fill="#70C217"/>
</svg>
