<svg width="159" height="29" viewBox="0 0 159 29" fill="none" xmlns="http://www.w3.org/2000/svg">
<path d="M12.6804 6.6939V27.5765H5.70383V6.6939H0V0.801514H18.3842V6.6939H12.6804Z" fill="#1B1732"/>
<path d="M60.6208 6.6939V27.5765H53.6443V6.6939H47.9404V0.801514H66.3247V6.6939H60.6208Z" fill="#1B1732"/>
<path d="M84.1432 7.68367C83.389 7.07086 82.6347 6.59946 81.8805 6.31663C81.1263 6.0338 80.3721 5.89238 79.665 5.89238C78.7693 5.89238 78.0151 6.12807 77.4494 6.55232C76.8838 6.97658 76.6009 7.54224 76.6009 8.20219C76.6009 8.67358 76.7424 9.05069 77.0252 9.38067C77.308 9.71064 77.6851 9.94633 78.1565 10.182C78.6279 10.4177 79.1464 10.6063 79.7121 10.7477C80.2778 10.9363 80.8435 11.0777 81.4563 11.2662C83.7189 12.0205 85.3688 13.0575 86.453 14.2831C87.4901 15.5559 88.0557 17.2058 88.0557 19.2327C88.0557 20.5998 87.82 21.8725 87.3486 22.9567C86.8772 24.0881 86.2173 25.0308 85.3217 25.8322C84.426 26.6336 83.3418 27.2464 82.0691 27.6706C80.7963 28.0949 79.335 28.3306 77.6851 28.3306C74.2911 28.3306 71.1799 27.3406 68.2573 25.3137L71.2271 19.7041C72.2641 20.6469 73.3012 21.3068 74.3383 21.7782C75.3753 22.2496 76.3652 22.4382 77.3552 22.4382C78.4865 22.4382 79.335 22.1554 79.9007 21.6368C80.4663 21.1183 80.7492 20.5055 80.7492 19.8455C80.7492 19.4213 80.6549 19.0913 80.5135 18.8085C80.3721 18.5257 80.1364 18.2428 79.8064 18.0071C79.4764 17.7714 79.0522 17.5357 78.4865 17.3C77.968 17.0643 77.308 16.8286 76.5538 16.5929C75.6582 16.3101 74.7625 15.9801 73.914 15.6502C73.0655 15.3202 72.2641 14.8488 71.6042 14.2831C70.9443 13.7175 70.3786 13.0104 69.9543 12.1147C69.5301 11.2662 69.3415 10.1349 69.3415 8.815C69.3415 7.49511 69.5772 6.26949 70.0015 5.23243C70.4257 4.14823 71.0385 3.25259 71.8399 2.45123C72.6413 1.697 73.584 1.0842 74.7625 0.659944C75.8939 0.235692 77.2137 0 78.6279 0C79.9478 0 81.362 0.188555 82.7762 0.565667C84.2375 0.94278 85.6045 1.46131 86.9244 2.16839L84.1432 7.68367Z" fill="#1B1732"/>
<path d="M97.1065 0.801514L103.565 17.1116L110.07 0.801514H117.612L106.299 27.5765H100.783L89.5171 0.801514H97.1065Z" fill="#1B1732"/>
<path d="M117.989 14.1886C117.989 12.2087 118.366 10.3703 119.073 8.62619C119.828 6.92918 120.818 5.42073 122.137 4.14798C123.457 2.87522 125.013 1.8853 126.804 1.13107C128.596 0.423989 130.623 0.046875 132.791 0.046875C134.959 0.046875 136.939 0.423989 138.778 1.13107C140.616 1.83816 142.172 2.87522 143.491 4.14798C144.811 5.42073 145.848 6.92918 146.556 8.62619C147.31 10.3232 147.64 12.2087 147.64 14.1886C147.64 16.1684 147.263 18.0069 146.556 19.751C145.801 21.448 144.811 22.9565 143.491 24.2292C142.172 25.502 140.616 26.4919 138.778 27.2461C136.939 27.9532 134.959 28.3303 132.791 28.3303C130.623 28.3303 128.596 27.9532 126.804 27.2461C125.013 26.539 123.457 25.502 122.137 24.2292C120.818 22.9565 119.828 21.448 119.073 19.751C118.366 18.054 117.989 16.2156 117.989 14.1886ZM125.296 14.1886C125.296 15.2728 125.484 16.2156 125.909 17.1583C126.333 18.054 126.851 18.8554 127.558 19.5153C128.266 20.1753 129.067 20.6938 129.963 21.0709C130.858 21.448 131.848 21.6366 132.838 21.6366C133.875 21.6366 134.818 21.448 135.714 21.0709C136.609 20.6938 137.411 20.1753 138.118 19.5153C138.825 18.8554 139.343 18.054 139.768 17.1583C140.192 16.2627 140.38 15.2728 140.38 14.1886C140.38 13.1044 140.192 12.1616 139.768 11.2188C139.343 10.3232 138.825 9.52183 138.118 8.86188C137.411 8.20194 136.609 7.6834 135.714 7.30629C134.818 6.92918 133.828 6.74063 132.838 6.74063C131.801 6.74063 130.858 6.92918 129.963 7.30629C129.067 7.6834 128.266 8.20194 127.558 8.86188C126.851 9.52183 126.333 10.3232 125.909 11.2188C125.484 12.1616 125.296 13.1515 125.296 14.1886Z" fill="#1B1732"/>
<path d="M159 0.801514V27.5765H152.023V0.801514H159Z" fill="#1B1732"/>
<path d="M37.8998 0.801514H36.297C36.1556 2.40424 34.7886 3.677 33.1387 3.677C31.4889 3.677 30.1218 2.40424 29.9804 0.801514H28.4248H21.4482V16.3103C21.4482 20.4585 22.391 23.5225 24.3237 25.4552C26.2564 27.3879 29.179 28.3307 33.1387 28.3307C37.0984 28.3307 40.021 27.3879 41.9066 25.4552C43.7922 23.5225 44.7821 20.5056 44.7821 16.3103V0.801514H37.8998ZM28.3777 8.01379H27.3878V7.58953H28.3777V8.01379ZM30.1218 8.01379H29.1319V7.58953H30.1218V8.01379ZM31.9131 8.01379H30.9232V7.58953H31.9131V8.01379ZM33.6573 8.01379H32.6673V7.58953H33.6573V8.01379ZM35.4014 8.01379H34.4115V7.58953H35.4014V8.01379ZM37.1927 8.01379H36.2028V7.58953H37.1927V8.01379ZM38.9368 8.01379L37.8998 8.24951L37.7112 7.30673L38.9368 7.58953V8.01379Z" fill="#1B1732"/>
<path d="M38.9371 7.58953V0.801514H36.2973C36.1559 2.40424 34.7889 3.677 33.139 3.677C31.4892 3.677 30.1221 2.40424 29.9807 0.801514H27.3873V7.58953H28.3308V8.01379H27.3872V18.1015C27.3872 20.9299 29.6036 23.1926 32.4319 23.1926H33.799C36.6273 23.1926 38.9371 20.9282 38.9371 18.0998V8.01379H37.9001V7.58953H38.9371ZM30.1221 8.01379H29.1322V7.58953H30.1221V8.01379ZM31.9134 8.01379H30.9235V7.58953H31.9134V8.01379ZM33.6576 8.01379H32.6676V7.58953H33.6576V8.01379ZM35.4017 8.01379H34.4118V7.58953H35.4017V8.01379ZM37.193 8.01379H36.2031V7.58953H37.193V8.01379Z" fill="url(#paint0_linear)"/>
<defs>
<linearGradient id="paint0_linear" x1="33.2498" y1="-2.33531" x2="33.0294" y2="25.5052" gradientUnits="userSpaceOnUse">
<stop offset="0.1612" stop-color="#FDC700"/>
<stop offset="0.5416" stop-color="#F08F34"/>
<stop offset="0.8876" stop-color="#E86031"/>
<stop offset="0.9876" stop-color="#E2312D"/>
</linearGradient>
</defs>
</svg>
