<svg width="535" height="242" viewBox="0 0 535 242" fill="none" xmlns="http://www.w3.org/2000/svg">
<circle cx="530.538" cy="3.9895" r="3.98901" transform="rotate(90 530.538 3.9895)" fill="#EF4358"/>
<circle cx="530.538" cy="62.4946" r="3.98901" transform="rotate(90 530.538 62.4946)" fill="#EF4358"/>
<circle cx="530.538" cy="121" r="3.98901" transform="rotate(90 530.538 121)" fill="#EF4358"/>
<circle cx="530.538" cy="179.506" r="3.98901" transform="rotate(90 530.538 179.506)" fill="#EF4358"/>
<circle cx="530.538" cy="238.011" r="3.98901" transform="rotate(90 530.538 238.011)" fill="#EF4358"/>
<circle cx="472.033" cy="3.98901" r="3.98901" transform="rotate(90 472.033 3.98901)" fill="#EF4358"/>
<circle cx="472.033" cy="62.4946" r="3.98901" transform="rotate(90 472.033 62.4946)" fill="#EF4358"/>
<circle cx="472.033" cy="121" r="3.98901" transform="rotate(90 472.033 121)" fill="#EF4358"/>
<circle cx="472.033" cy="179.506" r="3.98901" transform="rotate(90 472.033 179.506)" fill="#EF4358"/>
<circle cx="472.033" cy="238.011" r="3.98901" transform="rotate(90 472.033 238.011)" fill="#EF4358"/>
<circle cx="413.527" cy="3.98901" r="3.98901" transform="rotate(90 413.527 3.98901)" fill="#EF4358"/>
<circle cx="413.527" cy="62.4946" r="3.98901" transform="rotate(90 413.527 62.4946)" fill="#EF4358"/>
<circle cx="413.527" cy="121" r="3.98901" transform="rotate(90 413.527 121)" fill="#EF4358"/>
<circle cx="413.527" cy="179.506" r="3.98901" transform="rotate(90 413.527 179.506)" fill="#EF4358"/>
<circle cx="413.527" cy="238.011" r="3.98901" transform="rotate(90 413.527 238.011)" fill="#EF4358"/>
<circle cx="355.022" cy="3.98901" r="3.98901" transform="rotate(90 355.022 3.98901)" fill="#EF4358"/>
<circle cx="355.022" cy="62.4946" r="3.98901" transform="rotate(90 355.022 62.4946)" fill="#EF4358"/>
<circle cx="355.022" cy="121" r="3.98901" transform="rotate(90 355.022 121)" fill="#EF4358"/>
<circle cx="355.022" cy="179.506" r="3.98901" transform="rotate(90 355.022 179.506)" fill="#EF4358"/>
<circle cx="355.022" cy="238.011" r="3.98901" transform="rotate(90 355.022 238.011)" fill="#EF4358"/>
<circle cx="296.516" cy="3.98901" r="3.98901" transform="rotate(90 296.516 3.98901)" fill="#EF4358"/>
<circle cx="296.516" cy="62.4946" r="3.98901" transform="rotate(90 296.516 62.4946)" fill="#EF4358"/>
<circle cx="296.516" cy="121" r="3.98901" transform="rotate(90 296.516 121)" fill="#EF4358"/>
<circle cx="296.516" cy="179.506" r="3.98901" transform="rotate(90 296.516 179.506)" fill="#EF4358"/>
<circle cx="296.516" cy="238.011" r="3.98901" transform="rotate(90 296.516 238.011)" fill="#EF4358"/>
<circle cx="238.011" cy="3.98901" r="3.98901" transform="rotate(90 238.011 3.98901)" fill="#EF4358"/>
<circle cx="238.011" cy="62.4946" r="3.98901" transform="rotate(90 238.011 62.4946)" fill="#EF4358"/>
<circle cx="238.011" cy="121" r="3.98901" transform="rotate(90 238.011 121)" fill="#EF4358"/>
<circle cx="238.011" cy="179.506" r="3.98901" transform="rotate(90 238.011 179.506)" fill="#EF4358"/>
<circle cx="238.011" cy="238.011" r="3.98901" transform="rotate(90 238.011 238.011)" fill="#EF4358"/>
<circle cx="179.505" cy="3.98901" r="3.98901" transform="rotate(90 179.505 3.98901)" fill="#EF4358"/>
<circle cx="179.505" cy="62.4946" r="3.98901" transform="rotate(90 179.505 62.4946)" fill="#EF4358"/>
<circle cx="179.505" cy="121" r="3.98901" transform="rotate(90 179.505 121)" fill="#EF4358"/>
<circle cx="179.505" cy="179.506" r="3.98901" transform="rotate(90 179.505 179.506)" fill="#EF4358"/>
<circle cx="179.505" cy="238.011" r="3.98901" transform="rotate(90 179.505 238.011)" fill="#EF4358"/>
<circle cx="121" cy="3.98901" r="3.98901" transform="rotate(90 121 3.98901)" fill="#EF4358"/>
<circle cx="121" cy="62.4946" r="3.98901" transform="rotate(90 121 62.4946)" fill="#EF4358"/>
<circle cx="121" cy="121" r="3.98901" transform="rotate(90 121 121)" fill="#EF4358"/>
<circle cx="121" cy="179.506" r="3.98901" transform="rotate(90 121 179.506)" fill="#EF4358"/>
<circle cx="121" cy="238.011" r="3.98901" transform="rotate(90 121 238.011)" fill="#EF4358"/>
<circle cx="62.4944" cy="3.98901" r="3.98901" transform="rotate(90 62.4944 3.98901)" fill="#EF4358"/>
<circle cx="62.4944" cy="62.4946" r="3.98901" transform="rotate(90 62.4944 62.4946)" fill="#EF4358"/>
<circle cx="62.4944" cy="121" r="3.98901" transform="rotate(90 62.4944 121)" fill="#EF4358"/>
<circle cx="62.4944" cy="179.506" r="3.98901" transform="rotate(90 62.4944 179.506)" fill="#EF4358"/>
<circle cx="62.4944" cy="238.011" r="3.98901" transform="rotate(90 62.4944 238.011)" fill="#EF4358"/>
<circle cx="3.98853" cy="3.98901" r="3.98901" transform="rotate(90 3.98853 3.98901)" fill="#EF4358"/>
<circle cx="3.98853" cy="62.4946" r="3.98901" transform="rotate(90 3.98853 62.4946)" fill="#EF4358"/>
<circle cx="3.98853" cy="121" r="3.98901" transform="rotate(90 3.98853 121)" fill="#EF4358"/>
<circle cx="3.98853" cy="179.506" r="3.98901" transform="rotate(90 3.98853 179.506)" fill="#EF4358"/>
<circle cx="3.98853" cy="238.011" r="3.98901" transform="rotate(90 3.98853 238.011)" fill="#EF4358"/>
</svg>
