<svg width="24" height="25" viewBox="0 0 24 25" fill="none" xmlns="http://www.w3.org/2000/svg">
<path d="M21.7819 5.0736C21.7815 5.06586 21.7806 5.05813 21.7793 5.05044C21.7493 5.00758 21.7124 4.97071 21.6815 4.92871C21.4575 4.62344 21.2202 4.32963 20.9699 4.04722C20.9013 3.97005 20.8327 3.89374 20.7624 3.81827C20.5046 3.5422 20.2342 3.27893 19.9512 3.02858C19.8989 2.98226 19.85 2.93428 19.7977 2.88881C19.1004 2.29139 18.3368 1.77582 17.5221 1.35228C17.4895 1.33515 17.4552 1.32058 17.4217 1.3034C17.0589 1.11901 16.6869 0.953265 16.307 0.806912C16.2213 0.776064 16.1432 0.746874 16.0618 0.721151C15.724 0.599416 15.381 0.492804 15.0329 0.401315C14.93 0.373883 14.8271 0.345597 14.7225 0.321582C14.3795 0.241849 14.0365 0.180956 13.6858 0.131218C13.5795 0.115794 13.4749 0.0951946 13.3677 0.0823329C12.4644 -0.0274443 11.5511 -0.0274443 10.6478 0.0823329C10.5406 0.0951946 10.436 0.115794 10.3297 0.131218C9.97899 0.180956 9.63258 0.241849 9.293 0.321582C9.1884 0.345597 9.0855 0.373883 8.98261 0.401315C8.63218 0.492754 8.28923 0.599366 7.95367 0.721151C7.86791 0.75029 7.78988 0.779481 7.70844 0.806912C7.32867 0.953265 6.95658 1.11896 6.59374 1.3034C6.56028 1.32053 6.52601 1.3351 6.49341 1.35228C5.67593 1.77536 4.9098 2.29089 4.20999 2.88881C4.15769 2.93423 4.10881 2.98226 4.0565 3.02858C3.77068 3.28009 3.50028 3.54335 3.24536 3.81827C3.17507 3.89374 3.10644 3.97005 3.03786 4.04722C2.78691 4.32903 2.54967 4.62284 2.3262 4.92866C2.29535 4.97066 2.25847 5.00753 2.22843 5.05039C2.22451 5.05788 2.22104 5.06561 2.21813 5.07355C-0.739375 9.2183 -0.739375 14.7835 2.21813 18.9282C2.22104 18.9362 2.22446 18.9439 2.22843 18.9514C2.25842 18.9942 2.2953 19.0311 2.3262 19.0731C2.54972 19.3784 2.78691 19.6722 3.03786 19.9546C3.10644 20.0318 3.17507 20.1081 3.24536 20.1836C3.50375 20.4596 3.7741 20.7229 4.0565 20.9733C4.10881 21.0196 4.15769 21.0676 4.20999 21.113C4.90734 21.7104 5.67091 22.226 6.48567 22.6496C6.51828 22.6667 6.55254 22.6813 6.586 22.6984C6.94884 22.8828 7.32088 23.0486 7.7007 23.1949C7.78647 23.2258 7.86449 23.255 7.94593 23.2807C8.28375 23.4024 8.62675 23.509 8.97487 23.6005C9.07777 23.628 9.18066 23.6562 9.28526 23.6803C9.62826 23.76 9.97121 23.8209 10.3219 23.8706C10.4283 23.886 10.5329 23.9066 10.6401 23.9195C11.5434 24.0293 12.4566 24.0293 13.3599 23.9195C13.4671 23.9066 13.5717 23.886 13.6781 23.8706C14.0287 23.8209 14.3752 23.76 14.7147 23.6803C14.8193 23.6562 14.9222 23.628 15.0251 23.6005C15.3761 23.5091 15.7191 23.4025 16.0541 23.2807C16.1398 23.2515 16.2179 23.2224 16.2993 23.1949C16.6791 23.0486 17.0512 22.8829 17.414 22.6984C17.4475 22.6813 17.4817 22.6667 17.5143 22.6496C18.3291 22.226 19.0927 21.7104 19.79 21.113C19.8423 21.0676 19.8912 21.0196 19.9435 20.9733C20.2293 20.7223 20.4997 20.4591 20.7546 20.1836C20.8249 20.1081 20.8936 20.0318 20.9621 19.9546C21.2131 19.6722 21.4503 19.3784 21.6738 19.0731C21.7047 19.0311 21.7415 18.9942 21.7716 18.9514C21.7755 18.9439 21.779 18.9362 21.7819 18.9282C24.7394 14.7836 24.7394 9.21835 21.7819 5.0736ZM20.8035 6.69594C21.6236 8.04648 22.1187 9.56899 22.25 11.1435H17.1139C17.051 10.1218 16.8902 9.10858 16.6338 8.11762C18.0846 7.84591 19.4889 7.36712 20.8035 6.69594ZM14.1857 1.94819C14.2337 1.95935 14.28 1.97477 14.328 1.98592C14.635 2.05797 14.9394 2.14027 15.2369 2.24316C15.2824 2.25858 15.327 2.27662 15.3716 2.2929C15.6666 2.39579 15.9572 2.50984 16.2419 2.6359C16.2917 2.65906 16.3405 2.68478 16.3903 2.70794C16.6629 2.83771 16.9293 2.97804 17.1894 3.12896L17.3609 3.23271C17.6078 3.38364 17.8479 3.54511 18.0812 3.71719C18.1412 3.7609 18.2012 3.80295 18.2604 3.85093C18.489 4.0224 18.708 4.20619 18.9172 4.40228C18.972 4.45202 19.0287 4.5009 19.0827 4.55235C19.3022 4.7607 19.5114 4.98106 19.7137 5.20915C19.7395 5.23915 19.7669 5.26658 19.7926 5.29491C18.6316 5.84822 17.4016 6.24332 16.1356 6.4696C15.5491 4.85726 14.7743 3.31978 13.8274 1.88911C13.9464 1.91051 14.0682 1.92252 14.1857 1.94819ZM8.6054 11.1435C8.67302 10.2157 8.83098 9.29678 9.07701 8.39967C10.0485 8.51508 11.026 8.5723 12.0044 8.57115C12.9836 8.57085 13.962 8.51216 14.9343 8.39535C15.1799 9.29392 15.337 10.2143 15.4033 11.1435H8.6054ZM15.4033 12.8584C15.3357 13.7862 15.1777 14.7052 14.9317 15.6023C13.9602 15.4869 12.9827 15.4296 12.0043 15.4308C11.0251 15.4297 10.0468 15.4869 9.0744 15.6023C8.82907 14.7051 8.67202 13.7861 8.60535 12.8584H15.4033ZM12.0043 2.27064C12.9801 3.65363 13.7827 5.15107 14.394 6.7294C13.6003 6.81371 12.8026 6.85606 12.0043 6.85631C11.2069 6.85536 10.4101 6.81275 9.61716 6.72855C10.2293 5.15127 11.0309 3.65434 12.0043 2.27064ZM4.29585 5.20825C4.49737 4.98015 4.70743 4.75979 4.92693 4.55144C4.98094 4.5 5.03757 4.45111 5.09243 4.40137C5.30394 4.20875 5.5229 4.02497 5.74923 3.85003C5.80842 3.80456 5.86841 3.76426 5.92844 3.71628C6.16166 3.54481 6.40177 3.38328 6.6487 3.23181L6.82018 3.12806C7.08028 2.97603 7.34665 2.83565 7.61931 2.70704C7.66905 2.68388 7.71794 2.65815 7.76768 2.63499C8.05234 2.50637 8.34304 2.39233 8.63801 2.29199C8.68257 2.27572 8.72377 2.25768 8.7726 2.24225C9.07013 2.14278 9.37283 2.06048 9.68152 1.98502C9.72955 1.97387 9.77582 1.95844 9.8247 1.94814C9.94217 1.92242 10.064 1.91041 10.1831 1.88896C9.23578 3.31988 8.46075 4.85766 7.87399 6.47031C6.60796 6.24402 5.37795 5.84892 4.21697 5.29562C4.2427 5.26567 4.27013 5.23824 4.29585 5.20825ZM3.20517 6.69594C4.51953 7.36706 5.92352 7.84586 7.37409 8.11762C7.11791 9.10863 6.95739 10.1219 6.89478 11.1435H1.75867C1.89 9.56899 2.38518 8.04648 3.20517 6.69594ZM3.20517 17.306C2.38513 15.9555 1.88995 14.433 1.75867 12.8584H6.89478C6.95769 13.8801 7.11846 14.8934 7.37494 15.8844C5.92412 16.156 4.51983 16.6348 3.20517 17.306ZM9.823 22.0537C9.77497 22.0426 9.72869 22.0272 9.68066 22.016C9.37369 21.944 9.06928 21.8617 8.77175 21.7588C8.72628 21.7434 8.68172 21.7253 8.6371 21.709C8.34213 21.6061 8.05149 21.4921 7.76677 21.366C7.71703 21.3429 7.66815 21.3172 7.61841 21.294C7.34575 21.1642 7.07937 21.0239 6.81927 20.873L6.6478 20.7692C6.40086 20.6183 6.16076 20.4568 5.92754 20.2847C5.8675 20.241 5.80751 20.199 5.74833 20.151C5.51968 19.9795 5.30073 19.7957 5.09152 19.5997C5.03666 19.5499 4.98004 19.501 4.92603 19.4496C4.70653 19.2412 4.49732 19.0209 4.29495 18.7928C4.26923 18.7628 4.24179 18.7354 4.21607 18.707C5.3771 18.1537 6.60705 17.7586 7.87308 17.5323C8.4596 19.1447 9.23437 20.6822 10.1813 22.1128C10.0622 22.0915 9.94046 22.0795 9.823 22.0537ZM12.0043 21.7313C11.0285 20.3484 10.226 18.8509 9.61459 17.2726C11.2026 17.1017 12.8043 17.1017 14.3923 17.2726L14.3914 17.2734C13.7794 18.8507 12.9778 20.3476 12.0043 21.7313ZM19.7128 18.7937C19.5113 19.0218 19.3013 19.2421 19.0818 19.4505C19.0277 19.5019 18.9711 19.5508 18.9163 19.6006C18.7047 19.7938 18.4858 19.9776 18.2595 20.1519C18.2003 20.1973 18.1403 20.2419 18.0802 20.2857C17.847 20.4571 17.6069 20.6186 17.36 20.7701L17.1885 20.8739C16.929 21.0254 16.6626 21.1657 16.3894 21.2949C16.3396 21.3181 16.2908 21.3438 16.241 21.3669C15.9563 21.4956 15.6657 21.6096 15.3707 21.7099C15.3261 21.7262 15.2849 21.7443 15.2361 21.7597C14.9386 21.8592 14.6359 21.9415 14.3272 22.0169C14.2791 22.0281 14.2329 22.0435 14.184 22.0538C14.0665 22.0795 13.9447 22.0915 13.8256 22.113C14.7725 20.6823 15.5473 19.1448 16.1338 17.5325C17.3998 17.7588 18.6298 18.1539 19.7908 18.7072C19.766 18.7363 19.7386 18.7637 19.7128 18.7937ZM20.8035 17.306C19.4892 16.6349 18.0852 16.1561 16.6346 15.8844C16.8908 14.8934 17.0513 13.8801 17.1139 12.8584H22.25C22.1187 14.4329 21.6235 15.9555 20.8035 17.306Z" fill="#EC8133"/>
</svg>
