<svg width="46" height="46" viewBox="0 0 46 46" fill="none" xmlns="http://www.w3.org/2000/svg">
<path d="M44.8566 15.1766L40.4427 10.7626V1.61378C40.4427 1.13644 40.0557 0.749512 39.5785 0.749512H26.8459C26.3687 0.749512 25.9817 1.13644 25.9817 1.61378C25.9817 2.09111 26.3687 2.47804 26.8459 2.47804H38.7142V20.0967L22.9457 35.8653L7.25494 20.1746V2.47804H19.0676C19.5448 2.47804 19.9318 2.09111 19.9318 1.61378C19.9318 1.13644 19.5448 0.749512 19.0676 0.749512H6.39068C5.91343 0.749512 5.52641 1.13644 5.52641 1.61378V10.7626L1.11252 15.1766C0.950469 15.3387 0.859375 15.5585 0.859375 15.7877V40.6786C0.859375 43.0614 2.79792 44.9999 5.1807 44.9999H40.7885C43.1712 44.9999 45.1098 43.0614 45.1098 40.6786V15.7877C45.1098 15.5585 45.0187 15.3387 44.8566 15.1766ZM43.3813 40.6786C43.3813 41.0783 43.2902 41.4572 43.1278 41.7957L31.2939 29.9617L43.3813 17.8743V40.6786ZM40.4427 13.2072L43.0233 15.7877L40.4427 18.3682V13.2072ZM2.84131 41.7957C2.679 41.4572 2.58791 41.0784 2.58791 40.6786V17.952L14.6364 30.0006L2.84131 41.7957ZM5.52641 18.446L2.90699 15.8266L5.52641 13.2072V18.446ZM5.1807 43.2714C4.78098 43.2714 4.40209 43.1803 4.06364 43.018L15.8587 31.2228L22.3346 37.6987C22.4967 37.8607 22.7165 37.9518 22.9457 37.9518C23.1749 37.9518 23.3947 37.8607 23.5568 37.6987L30.0716 31.184L41.9056 43.0181C41.5671 43.1804 41.1883 43.2715 40.7885 43.2715H5.1807V43.2714Z" fill="#37355F" stroke="#37355F" stroke-width="0.7"/>
<path d="M22.958 2.47804C23.1853 2.47804 23.4083 2.38557 23.5691 2.22481C23.7297 2.06406 23.8223 1.84108 23.8223 1.61378C23.8223 1.38648 23.7298 1.1635 23.5691 1.00274C23.4083 0.841988 23.1853 0.749512 22.958 0.749512C22.7298 0.749512 22.5077 0.841988 22.347 1.00274C22.1863 1.1635 22.0938 1.38648 22.0938 1.61378C22.0938 1.84108 22.1862 2.06406 22.347 2.22481C22.5077 2.38557 22.7298 2.47804 22.958 2.47804Z" fill="#37355F" stroke="#37355F" stroke-width="0.7"/>
<path d="M14.8089 11.2223C13.6364 13.3528 13.3279 15.809 13.9406 18.1382C14.4712 20.156 15.6169 21.8966 17.254 23.172C18.8302 24.4 20.7935 25.1066 22.7822 25.1616C22.7904 25.1619 22.7984 25.162 22.8065 25.162C23.2727 25.162 23.657 24.7906 23.67 24.3215C23.6831 23.8445 23.3071 23.4469 22.8299 23.4338C19.4436 23.3402 16.4757 20.9818 15.6122 17.6987C14.5722 13.7444 16.8117 9.67465 20.7105 8.43348C22.6885 7.80378 24.7882 7.98925 26.6229 8.9555C28.4539 9.91976 29.7926 11.5403 30.3938 13.5195C30.7767 14.9658 30.6525 16.3065 29.9795 17.9991C29.7875 18.4816 29.1916 19.604 27.8053 19.604C27.586 19.604 27.3642 19.5024 27.1805 19.3179C26.9342 19.0703 26.794 18.7208 26.7958 18.3547V11.2093C26.7958 10.732 26.4088 10.3451 25.9316 10.3451C25.4542 10.3451 25.0673 10.732 25.0673 11.2093V11.4846C24.3927 10.9222 23.5547 10.6011 22.6158 10.6011C20.433 10.6011 18.1752 12.4935 18.1752 15.6601C18.1752 17.0558 18.6176 18.363 19.4207 19.3409C20.2349 20.3323 21.3664 20.9008 22.5249 20.9008C23.6108 20.9008 24.589 20.4213 25.3338 19.6218C25.4836 19.9615 25.693 20.2735 25.9553 20.537C26.4657 21.05 27.1227 21.3325 27.8053 21.3325C29.8024 21.3325 31.0676 19.9405 31.5856 18.6378C32.398 16.5949 32.5445 14.8748 32.0603 13.0603C32.0578 13.0513 32.0552 13.0424 32.0526 13.0335C31.3186 10.6014 29.6764 8.60996 27.4283 7.42609C25.1808 6.24239 22.6088 6.01518 20.1862 6.78636C17.8909 7.5171 15.9812 9.0924 14.8089 11.2223ZM22.525 19.1722C21.0797 19.1722 19.9038 17.5967 19.9038 15.66C19.9038 13.5753 21.2828 12.3296 22.6159 12.3296C24.0522 12.3296 25.0554 13.6884 25.0554 15.6339C25.0553 17.5849 23.9202 19.1722 22.525 19.1722Z" fill="#37355F" stroke="#37355F" stroke-width="0.7"/>
</svg>
