<svg width="46" height="46" viewBox="0 0 46 46" fill="none" xmlns="http://www.w3.org/2000/svg">
<path d="M44.9806 15.3454L40.5684 10.9564V1.85937C40.5684 1.38474 40.1815 1 39.7044 1H26.9767C26.4997 1 26.1128 1.38474 26.1128 1.85937C26.1128 2.33401 26.4997 2.71875 26.9767 2.71875H38.8405V20.2377L23.0779 35.917L7.39314 20.3151V2.71875H19.2013C19.6783 2.71875 20.0652 2.33401 20.0652 1.85937C20.0652 1.38474 19.6783 1 19.2013 1H6.52921C6.05214 1 5.66527 1.38474 5.66527 1.85937V10.9564L1.25305 15.3454C1.09106 15.5066 1 15.7252 1 15.9531V40.7031C1 43.0723 2.93781 44.9999 5.31969 44.9999H40.914C43.2958 44.9999 45.2336 43.0723 45.2336 40.7031V15.9531C45.2336 15.7252 45.1426 15.5066 44.9806 15.3454ZM43.5058 40.7031C43.5058 41.1005 43.4147 41.4773 43.2525 41.8139L31.423 30.0468L43.5058 18.0279V40.7031ZM40.5684 13.3872L43.1479 15.9531L40.5684 18.5189V13.3872ZM2.98118 41.8139C2.81894 41.4773 2.72788 41.1006 2.72788 40.7031V18.1051L14.7718 30.0855L2.98118 41.8139ZM5.66527 18.5963L3.04684 15.9918L5.66527 13.3872V18.5963ZM5.31969 43.2812C4.92012 43.2812 4.54137 43.1906 4.20305 43.0292L15.9937 31.3008L22.4671 37.74C22.6291 37.9011 22.8488 37.9917 23.0779 37.9917C23.3071 37.9917 23.5268 37.9011 23.6888 37.74L30.2011 31.2622L42.0307 43.0293C41.6923 43.1907 41.3136 43.2813 40.914 43.2813H5.31969V43.2812Z" fill="#37355F" stroke="#37355F" stroke-width="0.7"/>
<path d="M23.0906 2.71875C23.3179 2.71875 23.5409 2.62679 23.7016 2.46695C23.8623 2.30711 23.9548 2.08539 23.9548 1.85937C23.9548 1.63336 23.8624 1.41164 23.7016 1.2518C23.5409 1.09195 23.3179 1 23.0906 1C22.8624 1 22.6403 1.09195 22.4795 1.2518C22.3189 1.41164 22.2263 1.63336 22.2263 1.85937C22.2263 2.08539 22.3188 2.30711 22.4795 2.46695C22.6403 2.62679 22.8624 2.71875 23.0906 2.71875Z" fill="#37355F" stroke="#37355F" stroke-width="0.7"/>
<path d="M14.9442 11.4134C13.7721 13.5318 13.4638 15.9741 14.0762 18.2902C14.6067 20.2965 15.7519 22.0273 17.3884 23.2954C18.9639 24.5165 20.9265 25.2191 22.9145 25.2738C22.9227 25.2741 22.9307 25.2741 22.9387 25.2741C23.4048 25.2741 23.7889 24.9049 23.8019 24.4385C23.815 23.9641 23.4391 23.5688 22.9622 23.5557C19.5772 23.4627 16.6104 21.1176 15.7471 17.8531C14.7076 13.9212 16.9462 9.87451 20.8436 8.64036C22.8208 8.01422 24.9198 8.19865 26.7537 9.15943C28.5841 10.1182 29.9222 11.7296 30.5232 13.6976C30.906 15.1357 30.7818 16.4688 30.109 18.1518C29.9171 18.6316 29.3214 19.7477 27.9357 19.7477C27.7165 19.7477 27.4947 19.6466 27.3111 19.4631C27.0649 19.217 26.9248 18.8695 26.9266 18.5055V11.4005C26.9266 10.9259 26.5397 10.5411 26.0627 10.5411C25.5855 10.5411 25.1987 10.9259 25.1987 11.4005V11.6742C24.5243 11.115 23.6867 10.7958 22.7482 10.7958C20.5662 10.7958 18.3092 12.6774 18.3092 15.8261C18.3092 17.2139 18.7514 18.5137 19.5543 19.486C20.3681 20.4718 21.4992 21.0371 22.6573 21.0371C23.7428 21.0371 24.7206 20.5603 25.4651 19.7654C25.6149 20.1031 25.8242 20.4134 26.0863 20.6754C26.5966 21.1854 27.2533 21.4663 27.9357 21.4663C29.9321 21.4663 31.1967 20.0822 31.7145 18.7869C32.5266 16.7556 32.6731 15.0452 32.189 13.241C32.1866 13.2321 32.184 13.2231 32.1813 13.2143C31.4477 10.796 29.806 8.81585 27.5588 7.63868C25.3122 6.46168 22.7412 6.23575 20.3195 7.00257C18.025 7.72917 16.116 9.29555 14.9442 11.4134ZM22.6574 19.3183C21.2126 19.3183 20.0372 17.7517 20.0372 15.826C20.0372 13.7531 21.4156 12.5144 22.7482 12.5144C24.184 12.5144 25.1868 13.8655 25.1868 15.8C25.1867 17.74 24.052 19.3183 22.6574 19.3183Z" fill="#37355F" stroke="#37355F" stroke-width="0.7"/>
</svg>
