<svg width="47" height="48" viewBox="0 0 47 48" fill="none" xmlns="http://www.w3.org/2000/svg">
<path d="M21.7416 35.8227C21.3934 36.1705 21.3934 36.7354 21.7416 37.0839C22.0904 37.432 22.655 37.432 23.0028 37.0839C23.3516 36.7354 23.3516 36.1705 23.0028 35.8227C22.655 35.4738 22.0904 35.4738 21.7416 35.8227Z" fill="#37355F" stroke="#37355F" stroke-width="0.7"/>
<path d="M44.6186 34.2733L37.8452 28.5137C37.8139 28.4872 37.7808 28.4628 37.7463 28.4408C35.9693 27.3096 33.6877 27.5602 32.1979 29.0497L28.5049 32.7423C28.2491 32.9985 27.8675 33.0741 27.5329 32.9361C23.3628 31.211 19.9371 28.614 17.3509 25.218C15.3788 22.6283 14.6679 20.5704 14.5741 20.2805C14.563 20.2185 14.5452 20.1568 14.5201 20.0965C14.3818 19.7619 14.4574 19.381 14.7139 19.1252L18.4065 15.4315C19.8964 13.9417 20.1466 11.6601 19.0154 9.88315C19.0063 9.86886 18.9969 9.85492 18.9871 9.84098L14.0957 3.04359C12.5567 0.656047 9.20453 0.295355 7.19267 2.30687L6.45316 3.04637C6.45282 3.04707 6.45212 3.04777 6.45142 3.04812L3.81122 5.68831C0.662921 8.83696 0.147846 13.5681 2.32211 19.3713C4.18446 24.3422 7.91266 29.7825 12.8198 34.6897C17.843 39.7129 23.4304 43.5101 28.5526 45.3819C33.6225 47.2341 39.0155 47.4624 42.8325 43.645L45.3225 41.1553C47.3253 39.1522 46.9758 35.822 44.6186 34.2733ZM36.7398 29.9153L43.5072 35.67C43.5382 35.6965 43.5714 35.7209 43.6059 35.7429C45.0514 36.6632 45.2703 38.6845 44.0606 39.8938L43.8759 40.0788L32.3334 31.4369L33.4594 30.3112C34.3394 29.4309 35.6804 29.2717 36.7398 29.9153ZM12.6051 4.0239C12.6142 4.03819 12.6236 4.05248 12.6334 4.06607L17.5228 10.861C18.187 11.9243 18.0333 13.2817 17.145 14.17L16.0538 15.2615L8.24478 3.77786L8.45422 3.56842C9.66873 2.35391 11.6883 2.58357 12.6051 4.0239ZM29.1646 43.706C24.2815 41.9217 18.9247 38.2715 14.0814 33.4282C9.3502 28.6973 5.76733 23.4828 3.99244 18.7454C2.66015 15.1893 1.76626 10.2564 5.07278 6.95021L6.96057 5.06207L14.7696 16.5457L13.4527 17.8633C12.7034 18.6112 12.4678 19.718 12.8418 20.7036C13.1234 21.8592 14.4191 24.2579 15.7263 26.0254C17.65 28.6266 21.1415 32.2227 26.8509 34.5848C27.8542 34.9999 28.9983 34.7719 29.7664 34.0042L31.059 32.7113L42.6015 41.3533L41.571 42.3834C38.0265 45.9283 32.868 45.0592 29.1646 43.706Z" fill="#37355F" stroke="#37355F" stroke-width="0.7"/>
<path d="M20.0613 33.6926C19.119 32.8663 17.4891 31.4451 16.6307 30.5621C14.5258 28.399 12.3174 25.7769 11.0043 23.8825C10.7237 23.4775 10.1679 23.3764 9.76292 23.6573C9.35797 23.9379 9.25726 24.4937 9.53779 24.8987C11.1938 27.288 13.627 30.0334 15.3517 31.8058C16.2578 32.7384 17.9017 34.1721 18.8848 35.0339C19.2545 35.358 19.818 35.3225 20.1439 34.9514C20.4687 34.5813 20.4317 34.0174 20.0613 33.6926Z" fill="#37355F" stroke="#37355F" stroke-width="0.7"/>
</svg>
