<svg width="338" height="243" viewBox="0 0 338 243" fill="none" xmlns="http://www.w3.org/2000/svg">
<path d="M3.0614 227.221C17.348 212.277 28.5731 198.352 36.7369 185.445C44.9006 172.539 48.9825 162.01 48.9825 153.858C48.9825 149.103 47.2817 144.688 43.8801 140.612C41.1589 136.537 36.7369 132.121 30.6141 127.366C21.0897 119.894 13.6063 112.082 8.16376 103.931C2.72125 95.7794 0 84.9108 0 71.3251C0 50.2672 6.46293 33.285 19.3889 20.3786C32.3148 6.79287 48.6423 0 68.3714 0C89.4611 0 106.469 6.79287 119.395 20.3786C133.001 33.285 139.804 50.2672 139.804 71.3251C139.804 97.8173 128.579 127.027 106.129 158.953C84.3587 190.2 55.1053 218.051 18.3684 242.505L3.0614 227.221ZM201.032 227.221C215.319 212.277 226.544 198.352 234.708 185.445C242.872 172.539 246.953 162.01 246.953 153.858C246.953 149.103 245.253 144.688 241.851 140.612C239.13 136.537 234.708 132.121 228.585 127.366C219.061 119.894 211.577 112.082 206.135 103.931C200.692 95.7794 197.971 84.9108 197.971 71.3251C197.971 50.2672 204.434 33.285 217.36 20.3786C230.286 6.79287 246.613 0 266.342 0C287.432 0 304.44 6.79287 317.366 20.3786C330.972 33.285 337.775 50.2672 337.775 71.3251C337.775 97.8173 326.55 127.027 304.1 158.953C282.33 190.2 253.076 218.051 216.339 242.505L201.032 227.221Z" fill="#F1F4FF"/>
</svg>
