<svg width="25" height="22" viewBox="0 0 25 22" fill="none" xmlns="http://www.w3.org/2000/svg">
<path d="M23.6448 1.54755C23.3639 1.19442 22.9431 1 22.4598 1C22.1971 1 21.9188 1.05681 21.6328 1.16917L2.16379 8.80764C1.13059 9.21289 0.991438 9.82104 1.00039 10.1475C1.00934 10.4739 1.18183 11.073 2.23574 11.4177C2.24205 11.4197 2.24837 11.4217 2.25469 11.4235L6.29308 12.6113L8.47705 19.03C8.77484 19.9051 9.44322 20.4487 10.2216 20.4487C10.7124 20.4487 11.1952 20.2373 11.6177 19.8376L14.1156 17.4737L17.7387 20.4721C17.739 20.4725 17.7395 20.4726 17.7399 20.473L17.7743 20.5015C17.7774 20.504 17.7808 20.5067 17.7839 20.5093C18.1866 20.8303 18.6262 20.9998 19.0556 21H19.0558C19.8947 21 20.5628 20.3617 20.7574 19.3741L23.9473 3.18497C24.0754 2.53516 23.968 1.9537 23.6448 1.54755ZM7.64407 12.3856L15.4354 8.29471L10.584 13.5929C10.5045 13.6797 10.4482 13.7859 10.4204 13.9015L9.48499 17.796L7.64407 12.3856ZM10.7047 18.8186C10.6724 18.8491 10.64 18.8764 10.6075 18.9014L11.4754 15.2886L13.0542 16.5953L10.7047 18.8186ZM22.6265 2.90993L19.4366 19.0993C19.4059 19.2542 19.3078 19.6147 19.0556 19.6147C18.931 19.6147 18.7745 19.5449 18.6143 19.4181L14.5089 16.0206C14.5083 16.0201 14.5076 16.0196 14.5069 16.0192L12.0641 13.9975L19.0798 6.33555C19.3044 6.09027 19.3248 5.71459 19.1281 5.44515C18.9312 5.1757 18.5744 5.09093 18.2826 5.24423L6.74371 11.303L2.65038 10.0993L22.1134 2.4632C22.2779 2.39863 22.3926 2.38511 22.4598 2.38511C22.5011 2.38511 22.5744 2.39016 22.6016 2.4246C22.6374 2.46951 22.683 2.62263 22.6265 2.90993Z" fill="#EC8133" stroke="#EC8133" stroke-width="0.5"/>
</svg>
